<?xml version="1.0"?>
<!-- Generated by SVGo (float) -->
<svg width="348.614mm" height="115.252mm"
     viewBox="0.000 0.000 348.614 115.252"
     xmlns="http://www.w3.org/2000/svg"
     xmlns:xlink="http://www.w3.org/1999/xlink">
<polygon points="340.614,5.001 340.849,5.010 341.083,5.037 341.314,5.083 341.541,5.147 341.762,5.229 341.976,5.327 342.181,5.443 342.377,5.573 342.562,5.719 342.735,5.879 342.895,6.052 343.041,6.237 343.172,6.433 343.287,6.639 343.386,6.852 343.467,7.073 343.531,7.300 343.577,7.531 343.605,7.765 343.614,8.001 343.614,107.251 343.605,107.487 343.577,107.721 343.531,107.952 343.467,108.179 343.386,108.400 343.287,108.613 343.172,108.819 343.041,109.015 342.895,109.200 342.735,109.373 342.562,109.533 342.377,109.679 342.181,109.809 341.976,109.925 341.762,110.023 341.541,110.105 341.314,110.169 341.083,110.215 340.849,110.242 340.614,110.252 8.001,110.251 7.765,110.242 7.531,110.215 7.300,110.169 7.073,110.105 6.852,110.023 6.639,109.925 6.433,109.809 6.237,109.679 6.052,109.533 5.879,109.373 5.719,109.200 5.573,109.015 5.443,108.819 5.327,108.613 5.229,108.400 5.147,108.179 5.083,107.952 5.037,107.721 5.010,107.487 5.000,107.251 5.001,8.001 5.010,7.765 5.037,7.531 5.083,7.300 5.147,7.073 5.229,6.852 5.327,6.639 5.443,6.433 5.573,6.237 5.719,6.052 5.879,5.879 6.052,5.719 6.237,5.573 6.433,5.443 6.639,5.327 6.852,5.229 7.073,5.147 7.300,5.083 7.531,5.037 7.765,5.010 8.001,5.000" style="fill:none;stroke-width:0.050000mm;stroke:black" />
<polygon points="7.176,106.753 6.883,106.902 6.651,107.134 6.502,107.427 6.450,107.752 6.502,108.076 6.651,108.369 6.883,108.601 7.176,108.750 7.500,108.802 7.825,108.750 8.118,108.601 8.350,108.369 8.499,108.076 8.550,107.752 8.499,107.427 8.350,107.134 8.118,106.902 7.825,106.753 7.500,106.702" style="fill:none;stroke-width:0.050000mm;stroke:black" />
<polygon points="90.579,106.753 90.287,106.902 90.054,107.134 89.905,107.427 89.854,107.752 89.905,108.076 90.054,108.369 90.287,108.601 90.579,108.750 90.904,108.802 91.228,108.750 91.521,108.601 91.753,108.369 91.902,108.076 91.954,107.752 91.902,107.427 91.753,107.134 91.521,106.902 91.228,106.753 90.904,106.702" style="fill:none;stroke-width:0.050000mm;stroke:black" />
<polygon points="173.983,106.753 173.690,106.902 173.458,107.134 173.309,107.427 173.257,107.752 173.309,108.076 173.458,108.369 173.690,108.601 173.983,108.750 174.307,108.802 174.632,108.750 174.924,108.601 175.157,108.369 175.306,108.076 175.357,107.752 175.306,107.427 175.157,107.134 174.924,106.902 174.632,106.753 174.307,106.702" style="fill:none;stroke-width:0.050000mm;stroke:black" />
<polygon points="257.386,106.753 257.092,106.902 256.861,107.134 256.712,107.427 256.661,107.752 256.712,108.076 256.861,108.369 257.092,108.601 257.386,108.750 257.710,108.802 258.035,108.750 258.328,108.601 258.560,108.369 258.709,108.076 258.761,107.752 258.709,107.427 258.560,107.134 258.328,106.902 258.035,106.753 257.710,106.702" style="fill:none;stroke-width:0.050000mm;stroke:black" />
<polygon points="340.790,106.753 340.497,106.902 340.265,107.134 340.115,107.427 340.064,107.752 340.115,108.076 340.265,108.369 340.497,108.601 340.790,108.750 341.114,108.802 341.438,108.750 341.731,108.601 341.963,108.369 342.113,108.076 342.164,107.752 342.113,107.427 341.963,107.134 341.731,106.902 341.438,106.753 341.114,106.702" style="fill:none;stroke-width:0.050000mm;stroke:black" />
<polygon points="9.999,9.999 9.999,29.052 10.000,29.052 10.000,48.100 9.999,48.100 9.999,67.152 10.000,67.152 10.000,105.251 267.177,105.251 267.177,86.202 281.462,86.202 281.462,105.251 338.614,105.251 338.614,86.200 319.564,86.200 319.564,67.150 300.512,67.150 300.512,86.200 295.752,86.200 295.752,9.999" style="fill:none;stroke-width:0.050000mm;stroke:black" />
<polygon points="7.176,56.627 6.883,56.777 6.651,57.009 6.502,57.302 6.450,57.626 6.502,57.950 6.651,58.243 6.883,58.475 7.176,58.625 7.500,58.676 7.825,58.625 8.118,58.475 8.350,58.243 8.499,57.950 8.550,57.626 8.499,57.302 8.350,57.009 8.118,56.777 7.825,56.627 7.500,56.576" style="fill:none;stroke-width:0.050000mm;stroke:black" />
<polygon points="340.790,56.627 340.497,56.777 340.265,57.009 340.115,57.302 340.064,57.626 340.115,57.950 340.265,58.243 340.497,58.475 340.790,58.625 341.114,58.676 341.438,58.625 341.731,58.475 341.963,58.243 342.113,57.950 342.164,57.626 342.113,57.302 341.963,57.009 341.731,56.777 341.438,56.627 341.114,56.576" style="fill:none;stroke-width:0.050000mm;stroke:black" />
<polygon points="300.512,9.999 300.512,48.102 338.614,48.102 338.614,9.999" style="fill:none;stroke-width:0.050000mm;stroke:black" />
<polygon points="7.176,6.502 6.883,6.651 6.651,6.883 6.502,7.176 6.450,7.501 6.502,7.825 6.651,8.118 6.883,8.350 7.176,8.499 7.500,8.551 7.825,8.499 8.118,8.350 8.350,8.118 8.499,7.825 8.550,7.501 8.499,7.176 8.350,6.883 8.118,6.651 7.825,6.502 7.500,6.451" style="fill:none;stroke-width:0.050000mm;stroke:black" />
<polygon points="340.790,6.502 340.497,6.651 340.265,6.883 340.115,7.176 340.064,7.501 340.115,7.825 340.265,8.118 340.497,8.350 340.790,8.499 341.114,8.551 341.438,8.499 341.731,8.350 341.963,8.118 342.113,7.825 342.164,7.501 342.113,7.176 341.963,6.883 341.731,6.651 341.438,6.502 341.114,6.451" style="fill:none;stroke-width:0.050000mm;stroke:black" />
<polygon points="257.386,6.502 257.092,6.651 256.861,6.883 256.712,7.176 256.661,7.501 256.712,7.825 256.861,8.118 257.092,8.350 257.386,8.499 257.710,8.551 258.035,8.499 258.328,8.350 258.560,8.118 258.709,7.825 258.761,7.501 258.709,7.176 258.560,6.883 258.328,6.651 258.035,6.502 257.710,6.451" style="fill:none;stroke-width:0.050000mm;stroke:black" />
<polygon points="173.983,6.502 173.690,6.651 173.458,6.883 173.309,7.176 173.257,7.501 173.309,7.825 173.458,8.118 173.690,8.350 173.983,8.499 174.307,8.551 174.632,8.499 174.924,8.350 175.157,8.118 175.306,7.825 175.357,7.501 175.306,7.176 175.157,6.883 174.924,6.651 174.632,6.502 174.307,6.451" style="fill:none;stroke-width:0.050000mm;stroke:black" />
<polygon points="90.579,6.502 90.287,6.651 90.054,6.883 89.905,7.176 89.854,7.501 89.905,7.825 90.054,8.118 90.287,8.350 90.579,8.499 90.904,8.551 91.228,8.499 91.521,8.350 91.753,8.118 91.902,7.825 91.954,7.501 91.902,7.176 91.753,6.883 91.521,6.651 91.228,6.502 90.904,6.451" style="fill:none;stroke-width:0.050000mm;stroke:black" />
</svg>
