  0
SECTION
  2
HEADER
  9
$ACADVER
  1
AC1009
  9
$FILLMODE
 70
 0
  9
$SPLFRAME
 70
 1
  9
$EXTMIN
 10
0
 20
0
 30
0.0
  9
$EXTMAX
 10
1058.33
 20
1058.33
 30
0.0
  0
ENDSEC
  0
SECTION
  2
TABLES
  0
TABLE
  2
LAYER
 70
1
  0
LAYER
  2
0
 70
     0
 62
     7
  6
CONTINUOUS
  0
ENDTAB
  0
ENDSEC
  0
SECTION
  2
ENTITIES
  0
LINE
  8
0
 62
     0
 10
340.614
 20
110.357
 30
0.0
 11
340.85
 21
110.348
 31
0.0
  0
LINE
  8
0
 62
     0
 10
340.85
 20
110.348
 30
0.0
 11
341.082
 21
110.322
 31
0.0
  0
LINE
  8
0
 62
     0
 10
341.082
 20
110.322
 30
0.0
 11
341.314
 21
110.275
 31
0.0
  0
LINE
  8
0
 62
     0
 10
341.314
 20
110.275
 30
0.0
 11
341.541
 21
110.211
 31
0.0
  0
LINE
  8
0
 62
     0
 10
341.541
 20
110.211
 30
0.0
 11
341.762
 21
110.129
 31
0.0
  0
LINE
  8
0
 62
     0
 10
341.762
 20
110.129
 30
0.0
 11
341.975
 21
110.031
 31
0.0
  0
LINE
  8
0
 62
     0
 10
341.975
 20
110.031
 30
0.0
 11
342.181
 21
109.915
 31
0.0
  0
LINE
  8
0
 62
     0
 10
342.181
 20
109.915
 30
0.0
 11
342.376
 21
109.786
 31
0.0
  0
LINE
  8
0
 62
     0
 10
342.376
 20
109.786
 30
0.0
 11
342.562
 21
109.639
 31
0.0
  0
LINE
  8
0
 62
     0
 10
342.562
 20
109.639
 30
0.0
 11
342.735
 21
109.48
 31
0.0
  0
LINE
  8
0
 62
     0
 10
342.735
 20
109.48
 30
0.0
 11
342.894
 21
109.306
 31
0.0
  0
LINE
  8
0
 62
     0
 10
342.894
 20
109.306
 30
0.0
 11
343.04
 21
109.121
 31
0.0
  0
LINE
  8
0
 62
     0
 10
343.04
 20
109.121
 30
0.0
 11
343.172
 21
108.926
 31
0.0
  0
LINE
  8
0
 62
     0
 10
343.172
 20
108.926
 30
0.0
 11
343.287
 21
108.719
 31
0.0
  0
LINE
  8
0
 62
     0
 10
343.287
 20
108.719
 30
0.0
 11
343.386
 21
108.507
 31
0.0
  0
LINE
  8
0
 62
     0
 10
343.386
 20
108.507
 30
0.0
 11
343.466
 21
108.285
 31
0.0
  0
LINE
  8
0
 62
     0
 10
343.466
 20
108.285
 30
0.0
 11
343.531
 21
108.059
 31
0.0
  0
LINE
  8
0
 62
     0
 10
343.531
 20
108.059
 30
0.0
 11
343.577
 21
107.827
 31
0.0
  0
LINE
  8
0
 62
     0
 10
343.577
 20
107.827
 30
0.0
 11
343.606
 21
107.593
 31
0.0
  0
LINE
  8
0
 62
     0
 10
343.606
 20
107.593
 30
0.0
 11
343.614
 21
107.357
 31
0.0
  0
LINE
  8
0
 62
     0
 10
343.614
 20
107.357
 30
0.0
 11
343.614
 21
8.10701
 31
0.0
  0
LINE
  8
0
 62
     0
 10
343.614
 20
8.10701
 30
0.0
 11
343.606
 21
7.87135
 31
0.0
  0
LINE
  8
0
 62
     0
 10
343.606
 20
7.87135
 30
0.0
 11
343.577
 21
7.63707
 31
0.0
  0
LINE
  8
0
 62
     0
 10
343.577
 20
7.63707
 30
0.0
 11
343.531
 21
7.40696
 31
0.0
  0
LINE
  8
0
 62
     0
 10
343.531
 20
7.40696
 30
0.0
 11
343.466
 21
7.17959
 31
0.0
  0
LINE
  8
0
 62
     0
 10
343.466
 20
7.17959
 30
0.0
 11
343.386
 21
6.95773
 31
0.0
  0
LINE
  8
0
 62
     0
 10
343.386
 20
6.95773
 30
0.0
 11
343.287
 21
6.7455
 31
0.0
  0
LINE
  8
0
 62
     0
 10
343.287
 20
6.7455
 30
0.0
 11
343.172
 21
6.53881
 31
0.0
  0
LINE
  8
0
 62
     0
 10
343.172
 20
6.53881
 30
0.0
 11
343.04
 21
6.34312
 31
0.0
  0
LINE
  8
0
 62
     0
 10
343.04
 20
6.34312
 30
0.0
 11
342.894
 21
6.15844
 31
0.0
  0
LINE
  8
0
 62
     0
 10
342.894
 20
6.15844
 30
0.0
 11
342.735
 21
5.9848
 31
0.0
  0
LINE
  8
0
 62
     0
 10
342.735
 20
5.9848
 30
0.0
 11
342.562
 21
5.82496
 31
0.0
  0
LINE
  8
0
 62
     0
 10
342.562
 20
5.82496
 30
0.0
 11
342.376
 21
5.67891
 31
0.0
  0
LINE
  8
0
 62
     0
 10
342.376
 20
5.67891
 30
0.0
 11
342.181
 21
5.54937
 31
0.0
  0
LINE
  8
0
 62
     0
 10
342.181
 20
5.54937
 30
0.0
 11
341.975
 21
5.43359
 31
0.0
  0
LINE
  8
0
 62
     0
 10
341.975
 20
5.43359
 30
0.0
 11
341.762
 21
5.33576
 31
0.0
  0
LINE
  8
0
 62
     0
 10
341.762
 20
5.33576
 30
0.0
 11
341.541
 21
5.25307
 31
0.0
  0
LINE
  8
0
 62
     0
 10
341.541
 20
5.25307
 30
0.0
 11
341.314
 21
5.18968
 31
0.0
  0
LINE
  8
0
 62
     0
 10
341.314
 20
5.18968
 30
0.0
 11
341.082
 21
5.14283
 31
0.0
  0
LINE
  8
0
 62
     0
 10
341.082
 20
5.14283
 30
0.0
 11
340.85
 21
5.11665
 31
0.0
  0
LINE
  8
0
 62
     0
 10
340.85
 20
5.11665
 30
0.0
 11
340.614
 21
5.10702
 31
0.0
  0
LINE
  8
0
 62
     0
 10
340.614
 20
5.10702
 30
0.0
 11
8.00089
 21
5.10702
 31
0.0
  0
LINE
  8
0
 62
     0
 10
8.00089
 20
5.10702
 30
0.0
 11
7.76524
 21
5.11665
 31
0.0
  0
LINE
  8
0
 62
     0
 10
7.76524
 20
5.11665
 30
0.0
 11
7.53099
 21
5.14283
 31
0.0
  0
LINE
  8
0
 62
     0
 10
7.53099
 20
5.14283
 30
0.0
 11
7.29947
 21
5.18968
 31
0.0
  0
LINE
  8
0
 62
     0
 10
7.29947
 20
5.18968
 30
0.0
 11
7.07348
 21
5.25307
 31
0.0
  0
LINE
  8
0
 62
     0
 10
7.07348
 20
5.25307
 30
0.0
 11
6.85161
 21
5.33576
 31
0.0
  0
LINE
  8
0
 62
     0
 10
6.85161
 20
5.33576
 30
0.0
 11
6.63938
 21
5.43359
 31
0.0
  0
LINE
  8
0
 62
     0
 10
6.63938
 20
5.43359
 30
0.0
 11
6.43269
 21
5.54937
 31
0.0
  0
LINE
  8
0
 62
     0
 10
6.43269
 20
5.54937
 30
0.0
 11
6.23701
 21
5.67891
 31
0.0
  0
LINE
  8
0
 62
     0
 10
6.23701
 20
5.67891
 30
0.0
 11
6.05236
 21
5.82496
 31
0.0
  0
LINE
  8
0
 62
     0
 10
6.05236
 20
5.82496
 30
0.0
 11
5.87872
 21
5.9848
 31
0.0
  0
LINE
  8
0
 62
     0
 10
5.87872
 20
5.9848
 30
0.0
 11
5.71885
 21
6.15844
 31
0.0
  0
LINE
  8
0
 62
     0
 10
5.71885
 20
6.15844
 30
0.0
 11
5.5728
 21
6.34312
 31
0.0
  0
LINE
  8
0
 62
     0
 10
5.5728
 20
6.34312
 30
0.0
 11
5.44326
 21
6.53881
 31
0.0
  0
LINE
  8
0
 62
     0
 10
5.44326
 20
6.53881
 30
0.0
 11
5.32751
 21
6.7455
 31
0.0
  0
LINE
  8
0
 62
     0
 10
5.32751
 20
6.7455
 30
0.0
 11
5.22965
 21
6.95773
 31
0.0
  0
LINE
  8
0
 62
     0
 10
5.22965
 20
6.95773
 30
0.0
 11
5.14696
 21
7.17959
 31
0.0
  0
LINE
  8
0
 62
     0
 10
5.14696
 20
7.17959
 30
0.0
 11
5.0836
 21
7.40696
 31
0.0
  0
LINE
  8
0
 62
     0
 10
5.0836
 20
7.40696
 30
0.0
 11
5.03671
 21
7.63707
 31
0.0
  0
LINE
  8
0
 62
     0
 10
5.03671
 20
7.63707
 30
0.0
 11
5.01054
 21
7.87135
 31
0.0
  0
LINE
  8
0
 62
     0
 10
5.01054
 20
7.87135
 30
0.0
 11
4.99953
 21
8.10701
 31
0.0
  0
LINE
  8
0
 62
     0
 10
4.99953
 20
8.10701
 30
0.0
 11
5.00091
 21
107.357
 31
0.0
  0
LINE
  8
0
 62
     0
 10
5.00091
 20
107.357
 30
0.0
 11
5.01054
 21
107.593
 31
0.0
  0
LINE
  8
0
 62
     0
 10
5.01054
 20
107.593
 30
0.0
 11
5.03671
 21
107.827
 31
0.0
  0
LINE
  8
0
 62
     0
 10
5.03671
 20
107.827
 30
0.0
 11
5.0836
 21
108.059
 31
0.0
  0
LINE
  8
0
 62
     0
 10
5.0836
 20
108.059
 30
0.0
 11
5.14696
 21
108.285
 31
0.0
  0
LINE
  8
0
 62
     0
 10
5.14696
 20
108.285
 30
0.0
 11
5.22965
 21
108.507
 31
0.0
  0
LINE
  8
0
 62
     0
 10
5.22965
 20
108.507
 30
0.0
 11
5.32751
 21
108.719
 31
0.0
  0
LINE
  8
0
 62
     0
 10
5.32751
 20
108.719
 30
0.0
 11
5.44326
 21
108.926
 31
0.0
  0
LINE
  8
0
 62
     0
 10
5.44326
 20
108.926
 30
0.0
 11
5.5728
 21
109.121
 31
0.0
  0
LINE
  8
0
 62
     0
 10
5.5728
 20
109.121
 30
0.0
 11
5.71885
 21
109.306
 31
0.0
  0
LINE
  8
0
 62
     0
 10
5.71885
 20
109.306
 30
0.0
 11
5.87872
 21
109.48
 31
0.0
  0
LINE
  8
0
 62
     0
 10
5.87872
 20
109.48
 30
0.0
 11
6.05236
 21
109.639
 31
0.0
  0
LINE
  8
0
 62
     0
 10
6.05236
 20
109.639
 30
0.0
 11
6.23701
 21
109.786
 31
0.0
  0
LINE
  8
0
 62
     0
 10
6.23701
 20
109.786
 30
0.0
 11
6.43269
 21
109.915
 31
0.0
  0
LINE
  8
0
 62
     0
 10
6.43269
 20
109.915
 30
0.0
 11
6.63938
 21
110.031
 31
0.0
  0
LINE
  8
0
 62
     0
 10
6.63938
 20
110.031
 30
0.0
 11
6.85161
 21
110.129
 31
0.0
  0
LINE
  8
0
 62
     0
 10
6.85161
 20
110.129
 30
0.0
 11
7.07348
 21
110.211
 31
0.0
  0
LINE
  8
0
 62
     0
 10
7.07348
 20
110.211
 30
0.0
 11
7.29947
 21
110.275
 31
0.0
  0
LINE
  8
0
 62
     0
 10
7.29947
 20
110.275
 30
0.0
 11
7.53099
 21
110.322
 31
0.0
  0
LINE
  8
0
 62
     0
 10
7.53099
 20
110.322
 30
0.0
 11
7.76524
 21
110.348
 31
0.0
  0
LINE
  8
0
 62
     0
 10
7.76524
 20
110.348
 30
0.0
 11
8.00089
 21
110.359
 31
0.0
  0
LINE
  8
0
 62
     0
 10
8.00089
 20
110.359
 30
0.0
 11
340.614
 21
110.357
 31
0.0
  0
LINE
  8
0
 62
     0
 10
7.17543
 20
8.60584
 30
0.0
 11
6.88329
 21
8.45704
 31
0.0
  0
LINE
  8
0
 62
     0
 10
6.88329
 20
8.45704
 30
0.0
 11
6.65043
 21
8.22413
 31
0.0
  0
LINE
  8
0
 62
     0
 10
6.65043
 20
8.22413
 30
0.0
 11
6.50159
 21
7.932
 31
0.0
  0
LINE
  8
0
 62
     0
 10
6.50159
 20
7.932
 30
0.0
 11
6.45061
 21
7.60677
 31
0.0
  0
LINE
  8
0
 62
     0
 10
6.45061
 20
7.60677
 30
0.0
 11
6.50159
 21
7.28292
 31
0.0
  0
LINE
  8
0
 62
     0
 10
6.50159
 20
7.28292
 30
0.0
 11
6.65043
 21
6.98941
 31
0.0
  0
LINE
  8
0
 62
     0
 10
6.65043
 20
6.98941
 30
0.0
 11
6.88329
 21
6.75792
 31
0.0
  0
LINE
  8
0
 62
     0
 10
6.88329
 20
6.75792
 30
0.0
 11
7.17543
 21
6.6077
 31
0.0
  0
LINE
  8
0
 62
     0
 10
7.17543
 20
6.6077
 30
0.0
 11
7.50066
 21
6.55669
 31
0.0
  0
LINE
  8
0
 62
     0
 10
7.50066
 20
6.55669
 30
0.0
 11
7.82451
 21
6.6077
 31
0.0
  0
LINE
  8
0
 62
     0
 10
7.82451
 20
6.6077
 30
0.0
 11
8.11802
 21
6.75792
 31
0.0
  0
LINE
  8
0
 62
     0
 10
8.11802
 20
6.75792
 30
0.0
 11
8.34954
 21
6.98941
 31
0.0
  0
LINE
  8
0
 62
     0
 10
8.34954
 20
6.98941
 30
0.0
 11
8.49835
 21
7.28292
 31
0.0
  0
LINE
  8
0
 62
     0
 10
8.49835
 20
7.28292
 30
0.0
 11
8.54936
 21
7.60677
 31
0.0
  0
LINE
  8
0
 62
     0
 10
8.54936
 20
7.60677
 30
0.0
 11
8.49835
 21
7.932
 31
0.0
  0
LINE
  8
0
 62
     0
 10
8.49835
 20
7.932
 30
0.0
 11
8.34954
 21
8.22413
 31
0.0
  0
LINE
  8
0
 62
     0
 10
8.34954
 20
8.22413
 30
0.0
 11
8.11802
 21
8.45704
 31
0.0
  0
LINE
  8
0
 62
     0
 10
8.11802
 20
8.45704
 30
0.0
 11
7.82451
 21
8.60584
 31
0.0
  0
LINE
  8
0
 62
     0
 10
7.82451
 20
8.60584
 30
0.0
 11
7.50066
 21
8.65685
 31
0.0
  0
LINE
  8
0
 62
     0
 10
7.50066
 20
8.65685
 30
0.0
 11
7.17543
 21
8.60584
 31
0.0
  0
LINE
  8
0
 62
     0
 10
90.5785
 20
8.60584
 30
0.0
 11
90.2878
 21
8.45704
 31
0.0
  0
LINE
  8
0
 62
     0
 10
90.2878
 20
8.45704
 30
0.0
 11
90.0536
 21
8.22413
 31
0.0
  0
LINE
  8
0
 62
     0
 10
90.0536
 20
8.22413
 30
0.0
 11
89.9047
 21
7.932
 31
0.0
  0
LINE
  8
0
 62
     0
 10
89.9047
 20
7.932
 30
0.0
 11
89.8536
 21
7.60677
 31
0.0
  0
LINE
  8
0
 62
     0
 10
89.8536
 20
7.60677
 30
0.0
 11
89.9047
 21
7.28292
 31
0.0
  0
LINE
  8
0
 62
     0
 10
89.9047
 20
7.28292
 30
0.0
 11
90.0536
 21
6.98941
 31
0.0
  0
LINE
  8
0
 62
     0
 10
90.0536
 20
6.98941
 30
0.0
 11
90.2878
 21
6.75792
 31
0.0
  0
LINE
  8
0
 62
     0
 10
90.2878
 20
6.75792
 30
0.0
 11
90.5785
 21
6.6077
 31
0.0
  0
LINE
  8
0
 62
     0
 10
90.5785
 20
6.6077
 30
0.0
 11
90.9038
 21
6.55669
 31
0.0
  0
LINE
  8
0
 62
     0
 10
90.9038
 20
6.55669
 30
0.0
 11
91.2276
 21
6.6077
 31
0.0
  0
LINE
  8
0
 62
     0
 10
91.2276
 20
6.6077
 30
0.0
 11
91.5211
 21
6.75792
 31
0.0
  0
LINE
  8
0
 62
     0
 10
91.5211
 20
6.75792
 30
0.0
 11
91.7526
 21
6.98941
 31
0.0
  0
LINE
  8
0
 62
     0
 10
91.7526
 20
6.98941
 30
0.0
 11
91.9014
 21
7.28292
 31
0.0
  0
LINE
  8
0
 62
     0
 10
91.9014
 20
7.28292
 30
0.0
 11
91.9536
 21
7.60677
 31
0.0
  0
LINE
  8
0
 62
     0
 10
91.9536
 20
7.60677
 30
0.0
 11
91.9014
 21
7.932
 31
0.0
  0
LINE
  8
0
 62
     0
 10
91.9014
 20
7.932
 30
0.0
 11
91.7526
 21
8.22413
 31
0.0
  0
LINE
  8
0
 62
     0
 10
91.7526
 20
8.22413
 30
0.0
 11
91.5211
 21
8.45704
 31
0.0
  0
LINE
  8
0
 62
     0
 10
91.5211
 20
8.45704
 30
0.0
 11
91.2276
 21
8.60584
 31
0.0
  0
LINE
  8
0
 62
     0
 10
91.2276
 20
8.60584
 30
0.0
 11
90.9038
 21
8.65685
 31
0.0
  0
LINE
  8
0
 62
     0
 10
90.9038
 20
8.65685
 30
0.0
 11
90.5785
 21
8.60584
 31
0.0
  0
LINE
  8
0
 62
     0
 10
173.983
 20
8.60584
 30
0.0
 11
173.689
 21
8.45704
 31
0.0
  0
LINE
  8
0
 62
     0
 10
173.689
 20
8.45704
 30
0.0
 11
173.458
 21
8.22413
 31
0.0
  0
LINE
  8
0
 62
     0
 10
173.458
 20
8.22413
 30
0.0
 11
173.309
 21
7.932
 31
0.0
  0
LINE
  8
0
 62
     0
 10
173.309
 20
7.932
 30
0.0
 11
173.257
 21
7.60677
 31
0.0
  0
LINE
  8
0
 62
     0
 10
173.257
 20
7.60677
 30
0.0
 11
173.309
 21
7.28292
 31
0.0
  0
LINE
  8
0
 62
     0
 10
173.309
 20
7.28292
 30
0.0
 11
173.458
 21
6.98941
 31
0.0
  0
LINE
  8
0
 62
     0
 10
173.458
 20
6.98941
 30
0.0
 11
173.689
 21
6.75792
 31
0.0
  0
LINE
  8
0
 62
     0
 10
173.689
 20
6.75792
 30
0.0
 11
173.983
 21
6.6077
 31
0.0
  0
LINE
  8
0
 62
     0
 10
173.983
 20
6.6077
 30
0.0
 11
174.307
 21
6.55669
 31
0.0
  0
LINE
  8
0
 62
     0
 10
174.307
 20
6.55669
 30
0.0
 11
174.632
 21
6.6077
 31
0.0
  0
LINE
  8
0
 62
     0
 10
174.632
 20
6.6077
 30
0.0
 11
174.924
 21
6.75792
 31
0.0
  0
LINE
  8
0
 62
     0
 10
174.924
 20
6.75792
 30
0.0
 11
175.157
 21
6.98941
 31
0.0
  0
LINE
  8
0
 62
     0
 10
175.157
 20
6.98941
 30
0.0
 11
175.306
 21
7.28292
 31
0.0
  0
LINE
  8
0
 62
     0
 10
175.306
 20
7.28292
 30
0.0
 11
175.357
 21
7.60677
 31
0.0
  0
LINE
  8
0
 62
     0
 10
175.357
 20
7.60677
 30
0.0
 11
175.306
 21
7.932
 31
0.0
  0
LINE
  8
0
 62
     0
 10
175.306
 20
7.932
 30
0.0
 11
175.157
 21
8.22413
 31
0.0
  0
LINE
  8
0
 62
     0
 10
175.157
 20
8.22413
 30
0.0
 11
174.924
 21
8.45704
 31
0.0
  0
LINE
  8
0
 62
     0
 10
174.924
 20
8.45704
 30
0.0
 11
174.632
 21
8.60584
 31
0.0
  0
LINE
  8
0
 62
     0
 10
174.632
 20
8.60584
 30
0.0
 11
174.307
 21
8.65685
 31
0.0
  0
LINE
  8
0
 62
     0
 10
174.307
 20
8.65685
 30
0.0
 11
173.983
 21
8.60584
 31
0.0
  0
LINE
  8
0
 62
     0
 10
257.386
 20
8.60584
 30
0.0
 11
257.092
 21
8.45704
 31
0.0
  0
LINE
  8
0
 62
     0
 10
257.092
 20
8.45704
 30
0.0
 11
256.861
 21
8.22413
 31
0.0
  0
LINE
  8
0
 62
     0
 10
256.861
 20
8.22413
 30
0.0
 11
256.712
 21
7.932
 31
0.0
  0
LINE
  8
0
 62
     0
 10
256.712
 20
7.932
 30
0.0
 11
256.661
 21
7.60677
 31
0.0
  0
LINE
  8
0
 62
     0
 10
256.661
 20
7.60677
 30
0.0
 11
256.712
 21
7.28292
 31
0.0
  0
LINE
  8
0
 62
     0
 10
256.712
 20
7.28292
 30
0.0
 11
256.861
 21
6.98941
 31
0.0
  0
LINE
  8
0
 62
     0
 10
256.861
 20
6.98941
 30
0.0
 11
257.092
 21
6.75792
 31
0.0
  0
LINE
  8
0
 62
     0
 10
257.092
 20
6.75792
 30
0.0
 11
257.386
 21
6.6077
 31
0.0
  0
LINE
  8
0
 62
     0
 10
257.386
 20
6.6077
 30
0.0
 11
257.71
 21
6.55669
 31
0.0
  0
LINE
  8
0
 62
     0
 10
257.71
 20
6.55669
 30
0.0
 11
258.035
 21
6.6077
 31
0.0
  0
LINE
  8
0
 62
     0
 10
258.035
 20
6.6077
 30
0.0
 11
258.329
 21
6.75792
 31
0.0
  0
LINE
  8
0
 62
     0
 10
258.329
 20
6.75792
 30
0.0
 11
258.56
 21
6.98941
 31
0.0
  0
LINE
  8
0
 62
     0
 10
258.56
 20
6.98941
 30
0.0
 11
258.709
 21
7.28292
 31
0.0
  0
LINE
  8
0
 62
     0
 10
258.709
 20
7.28292
 30
0.0
 11
258.761
 21
7.60677
 31
0.0
  0
LINE
  8
0
 62
     0
 10
258.761
 20
7.60677
 30
0.0
 11
258.709
 21
7.932
 31
0.0
  0
LINE
  8
0
 62
     0
 10
258.709
 20
7.932
 30
0.0
 11
258.56
 21
8.22413
 31
0.0
  0
LINE
  8
0
 62
     0
 10
258.56
 20
8.22413
 30
0.0
 11
258.329
 21
8.45704
 31
0.0
  0
LINE
  8
0
 62
     0
 10
258.329
 20
8.45704
 30
0.0
 11
258.035
 21
8.60584
 31
0.0
  0
LINE
  8
0
 62
     0
 10
258.035
 20
8.60584
 30
0.0
 11
257.71
 21
8.65685
 31
0.0
  0
LINE
  8
0
 62
     0
 10
257.71
 20
8.65685
 30
0.0
 11
257.386
 21
8.60584
 31
0.0
  0
LINE
  8
0
 62
     0
 10
340.79
 20
8.60584
 30
0.0
 11
340.497
 21
8.45704
 31
0.0
  0
LINE
  8
0
 62
     0
 10
340.497
 20
8.45704
 30
0.0
 11
340.265
 21
8.22413
 31
0.0
  0
LINE
  8
0
 62
     0
 10
340.265
 20
8.22413
 30
0.0
 11
340.115
 21
7.932
 31
0.0
  0
LINE
  8
0
 62
     0
 10
340.115
 20
7.932
 30
0.0
 11
340.064
 21
7.60677
 31
0.0
  0
LINE
  8
0
 62
     0
 10
340.064
 20
7.60677
 30
0.0
 11
340.115
 21
7.28292
 31
0.0
  0
LINE
  8
0
 62
     0
 10
340.115
 20
7.28292
 30
0.0
 11
340.265
 21
6.98941
 31
0.0
  0
LINE
  8
0
 62
     0
 10
340.265
 20
6.98941
 30
0.0
 11
340.497
 21
6.75792
 31
0.0
  0
LINE
  8
0
 62
     0
 10
340.497
 20
6.75792
 30
0.0
 11
340.79
 21
6.6077
 31
0.0
  0
LINE
  8
0
 62
     0
 10
340.79
 20
6.6077
 30
0.0
 11
341.114
 21
6.55669
 31
0.0
  0
LINE
  8
0
 62
     0
 10
341.114
 20
6.55669
 30
0.0
 11
341.438
 21
6.6077
 31
0.0
  0
LINE
  8
0
 62
     0
 10
341.438
 20
6.6077
 30
0.0
 11
341.732
 21
6.75792
 31
0.0
  0
LINE
  8
0
 62
     0
 10
341.732
 20
6.75792
 30
0.0
 11
341.963
 21
6.98941
 31
0.0
  0
LINE
  8
0
 62
     0
 10
341.963
 20
6.98941
 30
0.0
 11
342.113
 21
7.28292
 31
0.0
  0
LINE
  8
0
 62
     0
 10
342.113
 20
7.28292
 30
0.0
 11
342.164
 21
7.60677
 31
0.0
  0
LINE
  8
0
 62
     0
 10
342.164
 20
7.60677
 30
0.0
 11
342.113
 21
7.932
 31
0.0
  0
LINE
  8
0
 62
     0
 10
342.113
 20
7.932
 30
0.0
 11
341.963
 21
8.22413
 31
0.0
  0
LINE
  8
0
 62
     0
 10
341.963
 20
8.22413
 30
0.0
 11
341.732
 21
8.45704
 31
0.0
  0
LINE
  8
0
 62
     0
 10
341.732
 20
8.45704
 30
0.0
 11
341.438
 21
8.60584
 31
0.0
  0
LINE
  8
0
 62
     0
 10
341.438
 20
8.60584
 30
0.0
 11
341.114
 21
8.65685
 31
0.0
  0
LINE
  8
0
 62
     0
 10
341.114
 20
8.65685
 30
0.0
 11
340.79
 21
8.60584
 31
0.0
  0
LINE
  8
0
 62
     0
 10
9.99906
 20
105.359
 30
0.0
 11
9.99906
 21
86.3064
 31
0.0
  0
LINE
  8
0
 62
     0
 10
9.99906
 20
86.3064
 30
0.0
 11
10.0004
 21
86.3064
 31
0.0
  0
LINE
  8
0
 62
     0
 10
10.0004
 20
86.3064
 30
0.0
 11
10.0004
 21
67.2578
 31
0.0
  0
LINE
  8
0
 62
     0
 10
10.0004
 20
67.2578
 30
0.0
 11
9.99906
 21
67.2578
 31
0.0
  0
LINE
  8
0
 62
     0
 10
9.99906
 20
67.2578
 30
0.0
 11
9.99906
 21
48.2064
 31
0.0
  0
LINE
  8
0
 62
     0
 10
9.99906
 20
48.2064
 30
0.0
 11
10.0004
 21
48.2064
 31
0.0
  0
LINE
  8
0
 62
     0
 10
10.0004
 20
48.2064
 30
0.0
 11
10.0004
 21
10.1079
 31
0.0
  0
LINE
  8
0
 62
     0
 10
10.0004
 20
10.1079
 30
0.0
 11
267.177
 21
10.1079
 31
0.0
  0
LINE
  8
0
 62
     0
 10
267.177
 20
10.1079
 30
0.0
 11
267.177
 21
29.1565
 31
0.0
  0
LINE
  8
0
 62
     0
 10
267.177
 20
29.1565
 30
0.0
 11
281.462
 21
29.1565
 31
0.0
  0
LINE
  8
0
 62
     0
 10
281.462
 20
29.1565
 30
0.0
 11
281.462
 21
10.1079
 31
0.0
  0
LINE
  8
0
 62
     0
 10
281.462
 20
10.1079
 30
0.0
 11
338.614
 21
10.1079
 31
0.0
  0
LINE
  8
0
 62
     0
 10
338.614
 20
10.1079
 30
0.0
 11
338.614
 21
29.1579
 31
0.0
  0
LINE
  8
0
 62
     0
 10
338.614
 20
29.1579
 30
0.0
 11
319.564
 21
29.1579
 31
0.0
  0
LINE
  8
0
 62
     0
 10
319.564
 20
29.1579
 30
0.0
 11
319.564
 21
48.2078
 31
0.0
  0
LINE
  8
0
 62
     0
 10
319.564
 20
48.2078
 30
0.0
 11
300.512
 21
48.2078
 31
0.0
  0
LINE
  8
0
 62
     0
 10
300.512
 20
48.2078
 30
0.0
 11
300.512
 21
29.1579
 31
0.0
  0
LINE
  8
0
 62
     0
 10
300.512
 20
29.1579
 30
0.0
 11
295.752
 21
29.1579
 31
0.0
  0
LINE
  8
0
 62
     0
 10
295.752
 20
29.1579
 30
0.0
 11
295.752
 21
105.359
 31
0.0
  0
LINE
  8
0
 62
     0
 10
295.752
 20
105.359
 30
0.0
 11
9.99906
 21
105.359
 31
0.0
  0
LINE
  8
0
 62
     0
 10
7.17543
 20
58.7319
 30
0.0
 11
6.88329
 21
58.5819
 31
0.0
  0
LINE
  8
0
 62
     0
 10
6.88329
 20
58.5819
 30
0.0
 11
6.65043
 21
58.3487
 31
0.0
  0
LINE
  8
0
 62
     0
 10
6.65043
 20
58.3487
 30
0.0
 11
6.50159
 21
58.0566
 31
0.0
  0
LINE
  8
0
 62
     0
 10
6.50159
 20
58.0566
 30
0.0
 11
6.45061
 21
57.7328
 31
0.0
  0
LINE
  8
0
 62
     0
 10
6.45061
 20
57.7328
 30
0.0
 11
6.50159
 21
57.4075
 31
0.0
  0
LINE
  8
0
 62
     0
 10
6.50159
 20
57.4075
 30
0.0
 11
6.65043
 21
57.1154
 31
0.0
  0
LINE
  8
0
 62
     0
 10
6.65043
 20
57.1154
 30
0.0
 11
6.88329
 21
56.8826
 31
0.0
  0
LINE
  8
0
 62
     0
 10
6.88329
 20
56.8826
 30
0.0
 11
7.17543
 21
56.7337
 31
0.0
  0
LINE
  8
0
 62
     0
 10
7.17543
 20
56.7337
 30
0.0
 11
7.50066
 21
56.6829
 31
0.0
  0
LINE
  8
0
 62
     0
 10
7.50066
 20
56.6829
 30
0.0
 11
7.82451
 21
56.7337
 31
0.0
  0
LINE
  8
0
 62
     0
 10
7.82451
 20
56.7337
 30
0.0
 11
8.11802
 21
56.8826
 31
0.0
  0
LINE
  8
0
 62
     0
 10
8.11802
 20
56.8826
 30
0.0
 11
8.34954
 21
57.1154
 31
0.0
  0
LINE
  8
0
 62
     0
 10
8.34954
 20
57.1154
 30
0.0
 11
8.49835
 21
57.4075
 31
0.0
  0
LINE
  8
0
 62
     0
 10
8.49835
 20
57.4075
 30
0.0
 11
8.54936
 21
57.7328
 31
0.0
  0
LINE
  8
0
 62
     0
 10
8.54936
 20
57.7328
 30
0.0
 11
8.49835
 21
58.0566
 31
0.0
  0
LINE
  8
0
 62
     0
 10
8.49835
 20
58.0566
 30
0.0
 11
8.34954
 21
58.3487
 31
0.0
  0
LINE
  8
0
 62
     0
 10
8.34954
 20
58.3487
 30
0.0
 11
8.11802
 21
58.5819
 31
0.0
  0
LINE
  8
0
 62
     0
 10
8.11802
 20
58.5819
 30
0.0
 11
7.82451
 21
58.7319
 31
0.0
  0
LINE
  8
0
 62
     0
 10
7.82451
 20
58.7319
 30
0.0
 11
7.50066
 21
58.783
 31
0.0
  0
LINE
  8
0
 62
     0
 10
7.50066
 20
58.783
 30
0.0
 11
7.17543
 21
58.7319
 31
0.0
  0
LINE
  8
0
 62
     0
 10
340.79
 20
58.7319
 30
0.0
 11
340.497
 21
58.5819
 31
0.0
  0
LINE
  8
0
 62
     0
 10
340.497
 20
58.5819
 30
0.0
 11
340.265
 21
58.3487
 31
0.0
  0
LINE
  8
0
 62
     0
 10
340.265
 20
58.3487
 30
0.0
 11
340.115
 21
58.0566
 31
0.0
  0
LINE
  8
0
 62
     0
 10
340.115
 20
58.0566
 30
0.0
 11
340.064
 21
57.7328
 31
0.0
  0
LINE
  8
0
 62
     0
 10
340.064
 20
57.7328
 30
0.0
 11
340.115
 21
57.4075
 31
0.0
  0
LINE
  8
0
 62
     0
 10
340.115
 20
57.4075
 30
0.0
 11
340.265
 21
57.1154
 31
0.0
  0
LINE
  8
0
 62
     0
 10
340.265
 20
57.1154
 30
0.0
 11
340.497
 21
56.8826
 31
0.0
  0
LINE
  8
0
 62
     0
 10
340.497
 20
56.8826
 30
0.0
 11
340.79
 21
56.7337
 31
0.0
  0
LINE
  8
0
 62
     0
 10
340.79
 20
56.7337
 30
0.0
 11
341.114
 21
56.6829
 31
0.0
  0
LINE
  8
0
 62
     0
 10
341.114
 20
56.6829
 30
0.0
 11
341.438
 21
56.7337
 31
0.0
  0
LINE
  8
0
 62
     0
 10
341.438
 20
56.7337
 30
0.0
 11
341.732
 21
56.8826
 31
0.0
  0
LINE
  8
0
 62
     0
 10
341.732
 20
56.8826
 30
0.0
 11
341.963
 21
57.1154
 31
0.0
  0
LINE
  8
0
 62
     0
 10
341.963
 20
57.1154
 30
0.0
 11
342.113
 21
57.4075
 31
0.0
  0
LINE
  8
0
 62
     0
 10
342.113
 20
57.4075
 30
0.0
 11
342.164
 21
57.7328
 31
0.0
  0
LINE
  8
0
 62
     0
 10
342.164
 20
57.7328
 30
0.0
 11
342.113
 21
58.0566
 31
0.0
  0
LINE
  8
0
 62
     0
 10
342.113
 20
58.0566
 30
0.0
 11
341.963
 21
58.3487
 31
0.0
  0
LINE
  8
0
 62
     0
 10
341.963
 20
58.3487
 30
0.0
 11
341.732
 21
58.5819
 31
0.0
  0
LINE
  8
0
 62
     0
 10
341.732
 20
58.5819
 30
0.0
 11
341.438
 21
58.7319
 31
0.0
  0
LINE
  8
0
 62
     0
 10
341.438
 20
58.7319
 30
0.0
 11
341.114
 21
58.783
 31
0.0
  0
LINE
  8
0
 62
     0
 10
341.114
 20
58.783
 30
0.0
 11
340.79
 21
58.7319
 31
0.0
  0
LINE
  8
0
 62
     0
 10
300.512
 20
105.359
 30
0.0
 11
338.614
 21
105.359
 31
0.0
  0
LINE
  8
0
 62
     0
 10
338.614
 20
105.359
 30
0.0
 11
338.614
 21
67.2564
 31
0.0
  0
LINE
  8
0
 62
     0
 10
338.614
 20
67.2564
 30
0.0
 11
300.512
 21
67.2564
 31
0.0
  0
LINE
  8
0
 62
     0
 10
300.512
 20
67.2564
 30
0.0
 11
300.512
 21
105.359
 31
0.0
  0
LINE
  8
0
 62
     0
 10
7.17543
 20
108.857
 30
0.0
 11
6.88329
 21
108.708
 31
0.0
  0
LINE
  8
0
 62
     0
 10
6.88329
 20
108.708
 30
0.0
 11
6.65043
 21
108.475
 31
0.0
  0
LINE
  8
0
 62
     0
 10
6.65043
 20
108.475
 30
0.0
 11
6.50159
 21
108.183
 31
0.0
  0
LINE
  8
0
 62
     0
 10
6.50159
 20
108.183
 30
0.0
 11
6.45061
 21
107.858
 31
0.0
  0
LINE
  8
0
 62
     0
 10
6.45061
 20
107.858
 30
0.0
 11
6.50159
 21
107.534
 31
0.0
  0
LINE
  8
0
 62
     0
 10
6.50159
 20
107.534
 30
0.0
 11
6.65043
 21
107.24
 31
0.0
  0
LINE
  8
0
 62
     0
 10
6.65043
 20
107.24
 30
0.0
 11
6.88329
 21
107.009
 31
0.0
  0
LINE
  8
0
 62
     0
 10
6.88329
 20
107.009
 30
0.0
 11
7.17543
 21
106.86
 31
0.0
  0
LINE
  8
0
 62
     0
 10
7.17543
 20
106.86
 30
0.0
 11
7.50066
 21
106.808
 31
0.0
  0
LINE
  8
0
 62
     0
 10
7.50066
 20
106.808
 30
0.0
 11
7.82451
 21
106.86
 31
0.0
  0
LINE
  8
0
 62
     0
 10
7.82451
 20
106.86
 30
0.0
 11
8.11802
 21
107.009
 31
0.0
  0
LINE
  8
0
 62
     0
 10
8.11802
 20
107.009
 30
0.0
 11
8.34954
 21
107.24
 31
0.0
  0
LINE
  8
0
 62
     0
 10
8.34954
 20
107.24
 30
0.0
 11
8.49835
 21
107.534
 31
0.0
  0
LINE
  8
0
 62
     0
 10
8.49835
 20
107.534
 30
0.0
 11
8.54936
 21
107.858
 31
0.0
  0
LINE
  8
0
 62
     0
 10
8.54936
 20
107.858
 30
0.0
 11
8.49835
 21
108.183
 31
0.0
  0
LINE
  8
0
 62
     0
 10
8.49835
 20
108.183
 30
0.0
 11
8.34954
 21
108.475
 31
0.0
  0
LINE
  8
0
 62
     0
 10
8.34954
 20
108.475
 30
0.0
 11
8.11802
 21
108.708
 31
0.0
  0
LINE
  8
0
 62
     0
 10
8.11802
 20
108.708
 30
0.0
 11
7.82451
 21
108.857
 31
0.0
  0
LINE
  8
0
 62
     0
 10
7.82451
 20
108.857
 30
0.0
 11
7.50066
 21
108.908
 31
0.0
  0
LINE
  8
0
 62
     0
 10
7.50066
 20
108.908
 30
0.0
 11
7.17543
 21
108.857
 31
0.0
  0
LINE
  8
0
 62
     0
 10
340.79
 20
108.857
 30
0.0
 11
340.497
 21
108.708
 31
0.0
  0
LINE
  8
0
 62
     0
 10
340.497
 20
108.708
 30
0.0
 11
340.265
 21
108.475
 31
0.0
  0
LINE
  8
0
 62
     0
 10
340.265
 20
108.475
 30
0.0
 11
340.115
 21
108.183
 31
0.0
  0
LINE
  8
0
 62
     0
 10
340.115
 20
108.183
 30
0.0
 11
340.064
 21
107.858
 31
0.0
  0
LINE
  8
0
 62
     0
 10
340.064
 20
107.858
 30
0.0
 11
340.115
 21
107.534
 31
0.0
  0
LINE
  8
0
 62
     0
 10
340.115
 20
107.534
 30
0.0
 11
340.265
 21
107.24
 31
0.0
  0
LINE
  8
0
 62
     0
 10
340.265
 20
107.24
 30
0.0
 11
340.497
 21
107.009
 31
0.0
  0
LINE
  8
0
 62
     0
 10
340.497
 20
107.009
 30
0.0
 11
340.79
 21
106.86
 31
0.0
  0
LINE
  8
0
 62
     0
 10
340.79
 20
106.86
 30
0.0
 11
341.114
 21
106.808
 31
0.0
  0
LINE
  8
0
 62
     0
 10
341.114
 20
106.808
 30
0.0
 11
341.438
 21
106.86
 31
0.0
  0
LINE
  8
0
 62
     0
 10
341.438
 20
106.86
 30
0.0
 11
341.732
 21
107.009
 31
0.0
  0
LINE
  8
0
 62
     0
 10
341.732
 20
107.009
 30
0.0
 11
341.963
 21
107.24
 31
0.0
  0
LINE
  8
0
 62
     0
 10
341.963
 20
107.24
 30
0.0
 11
342.113
 21
107.534
 31
0.0
  0
LINE
  8
0
 62
     0
 10
342.113
 20
107.534
 30
0.0
 11
342.164
 21
107.858
 31
0.0
  0
LINE
  8
0
 62
     0
 10
342.164
 20
107.858
 30
0.0
 11
342.113
 21
108.183
 31
0.0
  0
LINE
  8
0
 62
     0
 10
342.113
 20
108.183
 30
0.0
 11
341.963
 21
108.475
 31
0.0
  0
LINE
  8
0
 62
     0
 10
341.963
 20
108.475
 30
0.0
 11
341.732
 21
108.708
 31
0.0
  0
LINE
  8
0
 62
     0
 10
341.732
 20
108.708
 30
0.0
 11
341.438
 21
108.857
 31
0.0
  0
LINE
  8
0
 62
     0
 10
341.438
 20
108.857
 30
0.0
 11
341.114
 21
108.908
 31
0.0
  0
LINE
  8
0
 62
     0
 10
341.114
 20
108.908
 30
0.0
 11
340.79
 21
108.857
 31
0.0
  0
LINE
  8
0
 62
     0
 10
257.386
 20
108.857
 30
0.0
 11
257.092
 21
108.708
 31
0.0
  0
LINE
  8
0
 62
     0
 10
257.092
 20
108.708
 30
0.0
 11
256.861
 21
108.475
 31
0.0
  0
LINE
  8
0
 62
     0
 10
256.861
 20
108.475
 30
0.0
 11
256.712
 21
108.183
 31
0.0
  0
LINE
  8
0
 62
     0
 10
256.712
 20
108.183
 30
0.0
 11
256.661
 21
107.858
 31
0.0
  0
LINE
  8
0
 62
     0
 10
256.661
 20
107.858
 30
0.0
 11
256.712
 21
107.534
 31
0.0
  0
LINE
  8
0
 62
     0
 10
256.712
 20
107.534
 30
0.0
 11
256.861
 21
107.24
 31
0.0
  0
LINE
  8
0
 62
     0
 10
256.861
 20
107.24
 30
0.0
 11
257.092
 21
107.009
 31
0.0
  0
LINE
  8
0
 62
     0
 10
257.092
 20
107.009
 30
0.0
 11
257.386
 21
106.86
 31
0.0
  0
LINE
  8
0
 62
     0
 10
257.386
 20
106.86
 30
0.0
 11
257.71
 21
106.808
 31
0.0
  0
LINE
  8
0
 62
     0
 10
257.71
 20
106.808
 30
0.0
 11
258.035
 21
106.86
 31
0.0
  0
LINE
  8
0
 62
     0
 10
258.035
 20
106.86
 30
0.0
 11
258.329
 21
107.009
 31
0.0
  0
LINE
  8
0
 62
     0
 10
258.329
 20
107.009
 30
0.0
 11
258.56
 21
107.24
 31
0.0
  0
LINE
  8
0
 62
     0
 10
258.56
 20
107.24
 30
0.0
 11
258.709
 21
107.534
 31
0.0
  0
LINE
  8
0
 62
     0
 10
258.709
 20
107.534
 30
0.0
 11
258.761
 21
107.858
 31
0.0
  0
LINE
  8
0
 62
     0
 10
258.761
 20
107.858
 30
0.0
 11
258.709
 21
108.183
 31
0.0
  0
LINE
  8
0
 62
     0
 10
258.709
 20
108.183
 30
0.0
 11
258.56
 21
108.475
 31
0.0
  0
LINE
  8
0
 62
     0
 10
258.56
 20
108.475
 30
0.0
 11
258.329
 21
108.708
 31
0.0
  0
LINE
  8
0
 62
     0
 10
258.329
 20
108.708
 30
0.0
 11
258.035
 21
108.857
 31
0.0
  0
LINE
  8
0
 62
     0
 10
258.035
 20
108.857
 30
0.0
 11
257.71
 21
108.908
 31
0.0
  0
LINE
  8
0
 62
     0
 10
257.71
 20
108.908
 30
0.0
 11
257.386
 21
108.857
 31
0.0
  0
LINE
  8
0
 62
     0
 10
173.983
 20
108.857
 30
0.0
 11
173.689
 21
108.708
 31
0.0
  0
LINE
  8
0
 62
     0
 10
173.689
 20
108.708
 30
0.0
 11
173.458
 21
108.475
 31
0.0
  0
LINE
  8
0
 62
     0
 10
173.458
 20
108.475
 30
0.0
 11
173.309
 21
108.183
 31
0.0
  0
LINE
  8
0
 62
     0
 10
173.309
 20
108.183
 30
0.0
 11
173.257
 21
107.858
 31
0.0
  0
LINE
  8
0
 62
     0
 10
173.257
 20
107.858
 30
0.0
 11
173.309
 21
107.534
 31
0.0
  0
LINE
  8
0
 62
     0
 10
173.309
 20
107.534
 30
0.0
 11
173.458
 21
107.24
 31
0.0
  0
LINE
  8
0
 62
     0
 10
173.458
 20
107.24
 30
0.0
 11
173.689
 21
107.009
 31
0.0
  0
LINE
  8
0
 62
     0
 10
173.689
 20
107.009
 30
0.0
 11
173.983
 21
106.86
 31
0.0
  0
LINE
  8
0
 62
     0
 10
173.983
 20
106.86
 30
0.0
 11
174.307
 21
106.808
 31
0.0
  0
LINE
  8
0
 62
     0
 10
174.307
 20
106.808
 30
0.0
 11
174.632
 21
106.86
 31
0.0
  0
LINE
  8
0
 62
     0
 10
174.632
 20
106.86
 30
0.0
 11
174.924
 21
107.009
 31
0.0
  0
LINE
  8
0
 62
     0
 10
174.924
 20
107.009
 30
0.0
 11
175.157
 21
107.24
 31
0.0
  0
LINE
  8
0
 62
     0
 10
175.157
 20
107.24
 30
0.0
 11
175.306
 21
107.534
 31
0.0
  0
LINE
  8
0
 62
     0
 10
175.306
 20
107.534
 30
0.0
 11
175.357
 21
107.858
 31
0.0
  0
LINE
  8
0
 62
     0
 10
175.357
 20
107.858
 30
0.0
 11
175.306
 21
108.183
 31
0.0
  0
LINE
  8
0
 62
     0
 10
175.306
 20
108.183
 30
0.0
 11
175.157
 21
108.475
 31
0.0
  0
LINE
  8
0
 62
     0
 10
175.157
 20
108.475
 30
0.0
 11
174.924
 21
108.708
 31
0.0
  0
LINE
  8
0
 62
     0
 10
174.924
 20
108.708
 30
0.0
 11
174.632
 21
108.857
 31
0.0
  0
LINE
  8
0
 62
     0
 10
174.632
 20
108.857
 30
0.0
 11
174.307
 21
108.908
 31
0.0
  0
LINE
  8
0
 62
     0
 10
174.307
 20
108.908
 30
0.0
 11
173.983
 21
108.857
 31
0.0
  0
LINE
  8
0
 62
     0
 10
90.5785
 20
108.857
 30
0.0
 11
90.2878
 21
108.708
 31
0.0
  0
LINE
  8
0
 62
     0
 10
90.2878
 20
108.708
 30
0.0
 11
90.0536
 21
108.475
 31
0.0
  0
LINE
  8
0
 62
     0
 10
90.0536
 20
108.475
 30
0.0
 11
89.9047
 21
108.183
 31
0.0
  0
LINE
  8
0
 62
     0
 10
89.9047
 20
108.183
 30
0.0
 11
89.8536
 21
107.858
 31
0.0
  0
LINE
  8
0
 62
     0
 10
89.8536
 20
107.858
 30
0.0
 11
89.9047
 21
107.534
 31
0.0
  0
LINE
  8
0
 62
     0
 10
89.9047
 20
107.534
 30
0.0
 11
90.0536
 21
107.24
 31
0.0
  0
LINE
  8
0
 62
     0
 10
90.0536
 20
107.24
 30
0.0
 11
90.2878
 21
107.009
 31
0.0
  0
LINE
  8
0
 62
     0
 10
90.2878
 20
107.009
 30
0.0
 11
90.5785
 21
106.86
 31
0.0
  0
LINE
  8
0
 62
     0
 10
90.5785
 20
106.86
 30
0.0
 11
90.9038
 21
106.808
 31
0.0
  0
LINE
  8
0
 62
     0
 10
90.9038
 20
106.808
 30
0.0
 11
91.2276
 21
106.86
 31
0.0
  0
LINE
  8
0
 62
     0
 10
91.2276
 20
106.86
 30
0.0
 11
91.5211
 21
107.009
 31
0.0
  0
LINE
  8
0
 62
     0
 10
91.5211
 20
107.009
 30
0.0
 11
91.7526
 21
107.24
 31
0.0
  0
LINE
  8
0
 62
     0
 10
91.7526
 20
107.24
 30
0.0
 11
91.9014
 21
107.534
 31
0.0
  0
LINE
  8
0
 62
     0
 10
91.9014
 20
107.534
 30
0.0
 11
91.9536
 21
107.858
 31
0.0
  0
LINE
  8
0
 62
     0
 10
91.9536
 20
107.858
 30
0.0
 11
91.9014
 21
108.183
 31
0.0
  0
LINE
  8
0
 62
     0
 10
91.9014
 20
108.183
 30
0.0
 11
91.7526
 21
108.475
 31
0.0
  0
LINE
  8
0
 62
     0
 10
91.7526
 20
108.475
 30
0.0
 11
91.5211
 21
108.708
 31
0.0
  0
LINE
  8
0
 62
     0
 10
91.5211
 20
108.708
 30
0.0
 11
91.2276
 21
108.857
 31
0.0
  0
LINE
  8
0
 62
     0
 10
91.2276
 20
108.857
 30
0.0
 11
90.9038
 21
108.908
 31
0.0
  0
LINE
  8
0
 62
     0
 10
90.9038
 20
108.908
 30
0.0
 11
90.5785
 21
108.857
 31
0.0
  0
ENDSEC
  0
EOF
