<?xml version="1.0"?>
<!-- Generated by SVGo (float) -->
<svg width="348.614mm" height="115.252mm"
     viewBox="0.000 0.000 348.614 115.252"
     xmlns="http://www.w3.org/2000/svg"
     xmlns:xlink="http://www.w3.org/1999/xlink">
<polygon points="340.614,5.001 340.849,5.010 341.083,5.037 341.314,5.083 341.541,5.147 341.762,5.229 341.976,5.327 342.181,5.443 342.377,5.573 342.562,5.719 342.735,5.879 342.895,6.052 343.041,6.237 343.172,6.433 343.287,6.639 343.386,6.852 343.467,7.073 343.531,7.300 343.577,7.531 343.605,7.765 343.614,8.001 343.614,107.251 343.605,107.487 343.577,107.721 343.531,107.952 343.467,108.179 343.386,108.400 343.287,108.613 343.172,108.819 343.041,109.015 342.895,109.200 342.735,109.373 342.562,109.533 342.377,109.679 342.181,109.809 341.976,109.925 341.762,110.023 341.541,110.105 341.314,110.169 341.083,110.215 340.849,110.242 340.614,110.252 8.001,110.251 7.765,110.242 7.531,110.215 7.300,110.169 7.073,110.105 6.852,110.023 6.639,109.925 6.433,109.809 6.237,109.679 6.052,109.533 5.879,109.373 5.719,109.200 5.573,109.015 5.443,108.819 5.327,108.613 5.229,108.400 5.147,108.179 5.083,107.952 5.037,107.721 5.010,107.487 5.000,107.251 5.001,8.001 5.010,7.765 5.037,7.531 5.083,7.300 5.147,7.073 5.229,6.852 5.327,6.639 5.443,6.433 5.573,6.237 5.719,6.052 5.879,5.879 6.052,5.719 6.237,5.573 6.433,5.443 6.639,5.327 6.852,5.229 7.073,5.147 7.300,5.083 7.531,5.037 7.765,5.010 8.001,5.000" style="fill:none;stroke-width:0.050000mm;stroke:black" />
<polygon points="7.176,106.753 6.883,106.902 6.651,107.134 6.502,107.427 6.450,107.752 6.502,108.076 6.651,108.369 6.883,108.601 7.176,108.750 7.500,108.802 7.825,108.750 8.118,108.601 8.350,108.369 8.499,108.076 8.550,107.752 8.499,107.427 8.350,107.134 8.118,106.902 7.825,106.753 7.500,106.702" style="fill:none;stroke-width:0.050000mm;stroke:black" />
<polygon points="90.579,106.753 90.287,106.902 90.054,107.134 89.905,107.427 89.854,107.752 89.905,108.076 90.054,108.369 90.287,108.601 90.579,108.750 90.904,108.802 91.228,108.750 91.521,108.601 91.753,108.369 91.902,108.076 91.954,107.752 91.902,107.427 91.753,107.134 91.521,106.902 91.228,106.753 90.904,106.702" style="fill:none;stroke-width:0.050000mm;stroke:black" />
<polygon points="173.983,106.753 173.690,106.902 173.458,107.134 173.309,107.427 173.257,107.752 173.309,108.076 173.458,108.369 173.690,108.601 173.983,108.750 174.307,108.802 174.632,108.750 174.924,108.601 175.157,108.369 175.306,108.076 175.357,107.752 175.306,107.427 175.157,107.134 174.924,106.902 174.632,106.753 174.307,106.702" style="fill:none;stroke-width:0.050000mm;stroke:black" />
<polygon points="257.386,106.753 257.092,106.902 256.861,107.134 256.712,107.427 256.661,107.752 256.712,108.076 256.861,108.369 257.092,108.601 257.386,108.750 257.710,108.802 258.035,108.750 258.328,108.601 258.560,108.369 258.709,108.076 258.761,107.752 258.709,107.427 258.560,107.134 258.328,106.902 258.035,106.753 257.710,106.702" style="fill:none;stroke-width:0.050000mm;stroke:black" />
<polygon points="340.790,106.753 340.497,106.902 340.265,107.134 340.115,107.427 340.064,107.752 340.115,108.076 340.265,108.369 340.497,108.601 340.790,108.750 341.114,108.802 341.438,108.750 341.731,108.601 341.963,108.369 342.113,108.076 342.164,107.752 342.113,107.427 341.963,107.134 341.731,106.902 341.438,106.753 341.114,106.702" style="fill:none;stroke-width:0.050000mm;stroke:black" />
<polygon points="162.544,88.726 162.544,93.426 161.019,93.426 161.019,90.196 159.294,90.196 159.294,89.275 155.994,89.275 155.994,90.196 154.269,90.196 154.269,93.426 153.444,93.426 153.444,96.226 154.269,96.226 154.269,102.495 155.994,102.495 155.994,103.476 159.294,103.476 159.294,102.495 161.019,102.495 161.019,98.025 162.544,98.025 162.544,102.726 176.544,102.726 176.544,98.025 178.069,98.025 178.069,102.495 179.794,102.495 179.794,103.476 183.094,103.476 183.094,102.495 184.819,102.495 184.819,96.226 185.644,96.226 185.644,93.426 184.819,93.426 184.819,90.196 183.094,90.196 183.094,89.275 179.794,89.275 179.794,90.196 178.069,90.196 178.069,93.426 176.544,93.426 176.544,88.726" style="fill:none;stroke-width:0.050000mm;stroke:black" />
<polygon points="95.869,88.726 95.869,93.426 94.344,93.426 94.344,90.196 92.619,90.196 92.619,89.275 89.319,89.275 89.319,90.196 87.594,90.196 87.594,93.426 86.769,93.426 86.769,96.226 87.594,96.226 87.594,102.495 89.319,102.495 89.319,103.476 92.619,103.476 92.619,102.495 94.344,102.495 94.344,98.025 95.869,98.025 95.869,102.726 109.869,102.726 109.869,98.025 111.394,98.025 111.394,102.495 113.119,102.495 113.119,103.476 116.419,103.476 116.419,102.495 118.144,102.495 118.144,96.226 118.969,96.226 118.969,93.426 118.144,93.426 118.144,90.196 116.419,90.196 116.419,89.275 113.119,89.275 113.119,90.196 111.394,90.196 111.394,93.426 109.869,93.426 109.869,88.726" style="fill:none;stroke-width:0.050000mm;stroke:black" />
<polygon points="322.088,88.726 322.088,102.726 336.088,102.726 336.088,88.726" style="fill:none;stroke-width:0.050000mm;stroke:black" />
<polygon points="303.038,88.726 303.038,102.726 317.038,102.726 317.038,88.726" style="fill:none;stroke-width:0.050000mm;stroke:black" />
<polygon points="283.988,88.726 283.988,102.726 297.988,102.726 297.988,88.726" style="fill:none;stroke-width:0.050000mm;stroke:black" />
<polygon points="248.269,88.726 248.269,102.726 262.269,102.726 262.269,88.726" style="fill:none;stroke-width:0.050000mm;stroke:black" />
<polygon points="224.457,88.726 224.457,102.726 238.457,102.726 238.457,88.726" style="fill:none;stroke-width:0.050000mm;stroke:black" />
<polygon points="200.644,88.726 200.644,102.726 214.644,102.726 214.644,88.726" style="fill:none;stroke-width:0.050000mm;stroke:black" />
<polygon points="126.826,88.726 126.826,102.726 140.826,102.726 140.826,88.726" style="fill:none;stroke-width:0.050000mm;stroke:black" />
<polygon points="62.532,88.726 62.532,102.726 76.532,102.726 76.532,88.726" style="fill:none;stroke-width:0.050000mm;stroke:black" />
<polygon points="38.719,88.726 38.719,102.726 52.719,102.726 52.719,88.726" style="fill:none;stroke-width:0.050000mm;stroke:black" />
<polygon points="14.907,88.726 14.907,102.726 28.907,102.726 28.907,88.726" style="fill:none;stroke-width:0.050000mm;stroke:black" />
<polygon points="303.038,69.676 303.038,83.676 317.038,83.676 317.038,69.676" style="fill:none;stroke-width:0.050000mm;stroke:black" />
<polygon points="279.226,69.676 279.226,83.676 293.226,83.676 293.226,69.676" style="fill:none;stroke-width:0.050000mm;stroke:black" />
<polygon points="253.032,69.676 253.032,83.676 267.032,83.676 267.032,69.676" style="fill:none;stroke-width:0.050000mm;stroke:black" />
<polygon points="226.838,69.676 226.838,83.676 240.838,83.676 240.838,69.676" style="fill:none;stroke-width:0.050000mm;stroke:black" />
<polygon points="207.788,69.676 207.788,83.676 221.788,83.676 221.788,69.676" style="fill:none;stroke-width:0.050000mm;stroke:black" />
<polygon points="188.738,69.676 188.738,83.676 202.738,83.676 202.738,69.676" style="fill:none;stroke-width:0.050000mm;stroke:black" />
<polygon points="169.688,69.676 169.688,83.676 183.688,83.676 183.688,69.676" style="fill:none;stroke-width:0.050000mm;stroke:black" />
<polygon points="150.638,69.676 150.638,83.676 164.638,83.676 164.638,69.676" style="fill:none;stroke-width:0.050000mm;stroke:black" />
<polygon points="131.588,69.676 131.588,83.676 145.588,83.676 145.588,69.676" style="fill:none;stroke-width:0.050000mm;stroke:black" />
<polygon points="112.538,69.676 112.538,83.676 126.538,83.676 126.538,69.676" style="fill:none;stroke-width:0.050000mm;stroke:black" />
<polygon points="93.488,69.676 93.488,83.676 107.488,83.676 107.488,69.676" style="fill:none;stroke-width:0.050000mm;stroke:black" />
<polygon points="74.438,69.676 74.438,83.676 88.438,83.676 88.438,69.676" style="fill:none;stroke-width:0.050000mm;stroke:black" />
<polygon points="55.388,69.676 55.388,83.676 69.388,83.676 69.388,69.676" style="fill:none;stroke-width:0.050000mm;stroke:black" />
<polygon points="36.338,69.676 36.338,83.676 50.338,83.676 50.338,69.676" style="fill:none;stroke-width:0.050000mm;stroke:black" />
<polygon points="14.907,69.676 14.907,83.676 28.907,83.676 28.907,69.676" style="fill:none;stroke-width:0.050000mm;stroke:black" />
<polygon points="255.413,50.626 255.413,64.626 269.413,64.626 269.413,50.626" style="fill:none;stroke-width:0.050000mm;stroke:black" />
<polygon points="236.363,50.626 236.363,64.626 250.363,64.626 250.363,50.626" style="fill:none;stroke-width:0.050000mm;stroke:black" />
<polygon points="217.313,50.626 217.313,64.626 231.313,64.626 231.313,50.626" style="fill:none;stroke-width:0.050000mm;stroke:black" />
<polygon points="198.263,50.626 198.263,64.626 212.263,64.626 212.263,50.626" style="fill:none;stroke-width:0.050000mm;stroke:black" />
<polygon points="179.213,50.626 179.213,64.626 193.213,64.626 193.213,50.626" style="fill:none;stroke-width:0.050000mm;stroke:black" />
<polygon points="160.163,50.626 160.163,64.626 174.163,64.626 174.163,50.626" style="fill:none;stroke-width:0.050000mm;stroke:black" />
<polygon points="141.113,50.626 141.113,64.626 155.113,64.626 155.113,50.626" style="fill:none;stroke-width:0.050000mm;stroke:black" />
<polygon points="122.063,50.626 122.063,64.626 136.063,64.626 136.063,50.626" style="fill:none;stroke-width:0.050000mm;stroke:black" />
<polygon points="103.013,50.626 103.013,64.626 117.013,64.626 117.013,50.626" style="fill:none;stroke-width:0.050000mm;stroke:black" />
<polygon points="83.963,50.626 83.963,64.626 97.963,64.626 97.963,50.626" style="fill:none;stroke-width:0.050000mm;stroke:black" />
<polygon points="64.913,50.626 64.913,64.626 78.913,64.626 78.913,50.626" style="fill:none;stroke-width:0.050000mm;stroke:black" />
<polygon points="45.863,50.626 45.863,64.626 59.863,64.626 59.863,50.626" style="fill:none;stroke-width:0.050000mm;stroke:black" />
<polygon points="19.669,50.626 19.669,64.626 33.669,64.626 33.669,50.626" style="fill:none;stroke-width:0.050000mm;stroke:black" />
<polygon points="283.344,32.001 283.344,32.826 277.074,32.826 277.074,34.551 276.094,34.551 276.094,37.851 277.074,37.851 277.074,39.576 281.544,39.576 281.544,41.101 276.844,41.101 276.844,55.101 281.544,55.101 281.544,56.626 277.074,56.626 277.074,58.351 276.094,58.351 276.094,61.651 277.074,61.651 277.074,63.376 283.344,63.376 283.344,64.201 286.144,64.201 286.144,63.376 289.374,63.376 289.374,61.651 290.294,61.651 290.294,58.351 289.374,58.351 289.374,56.626 286.144,56.626 286.144,55.101 290.844,55.101 290.844,41.101 286.144,41.101 286.144,39.576 289.374,39.576 289.374,37.851 290.294,37.851 290.294,34.551 289.374,34.551 289.374,32.826 286.144,32.826 286.144,32.001" style="fill:none;stroke-width:0.050000mm;stroke:black" />
<polygon points="7.176,56.627 6.883,56.777 6.651,57.009 6.502,57.302 6.450,57.626 6.502,57.950 6.651,58.243 6.883,58.475 7.176,58.625 7.500,58.676 7.825,58.625 8.118,58.475 8.350,58.243 8.499,57.950 8.550,57.626 8.499,57.302 8.350,57.009 8.118,56.777 7.825,56.627 7.500,56.576" style="fill:none;stroke-width:0.050000mm;stroke:black" />
<polygon points="340.790,56.627 340.497,56.777 340.265,57.009 340.115,57.302 340.064,57.626 340.115,57.950 340.265,58.243 340.497,58.475 340.790,58.625 341.114,58.676 341.438,58.625 341.731,58.475 341.963,58.243 342.113,57.950 342.164,57.626 342.113,57.302 341.963,57.009 341.731,56.777 341.438,56.627 341.114,56.576" style="fill:none;stroke-width:0.050000mm;stroke:black" />
<polygon points="322.088,31.576 322.088,45.576 336.088,45.576 336.088,31.576" style="fill:none;stroke-width:0.050000mm;stroke:black" />
<polygon points="303.038,31.576 303.038,45.576 317.038,45.576 317.038,31.576" style="fill:none;stroke-width:0.050000mm;stroke:black" />
<polygon points="250.651,31.576 250.651,45.576 264.651,45.576 264.651,31.576" style="fill:none;stroke-width:0.050000mm;stroke:black" />
<polygon points="231.601,31.576 231.601,45.576 245.601,45.576 245.601,31.576" style="fill:none;stroke-width:0.050000mm;stroke:black" />
<polygon points="212.551,31.576 212.551,45.576 226.551,45.576 226.551,31.576" style="fill:none;stroke-width:0.050000mm;stroke:black" />
<polygon points="193.501,31.576 193.501,45.576 207.501,45.576 207.501,31.576" style="fill:none;stroke-width:0.050000mm;stroke:black" />
<polygon points="174.451,31.576 174.451,45.576 188.451,45.576 188.451,31.576" style="fill:none;stroke-width:0.050000mm;stroke:black" />
<polygon points="155.401,31.576 155.401,45.576 169.401,45.576 169.401,31.576" style="fill:none;stroke-width:0.050000mm;stroke:black" />
<polygon points="136.351,31.576 136.351,45.576 150.351,45.576 150.351,31.576" style="fill:none;stroke-width:0.050000mm;stroke:black" />
<polygon points="117.301,31.576 117.301,45.576 131.301,45.576 131.301,31.576" style="fill:none;stroke-width:0.050000mm;stroke:black" />
<polygon points="98.251,31.576 98.251,45.576 112.251,45.576 112.251,31.576" style="fill:none;stroke-width:0.050000mm;stroke:black" />
<polygon points="79.201,31.576 79.201,45.576 93.201,45.576 93.201,31.576" style="fill:none;stroke-width:0.050000mm;stroke:black" />
<polygon points="60.151,31.576 60.151,45.576 74.151,45.576 74.151,31.576" style="fill:none;stroke-width:0.050000mm;stroke:black" />
<polygon points="41.101,31.576 41.101,45.576 55.101,45.576 55.101,31.576" style="fill:none;stroke-width:0.050000mm;stroke:black" />
<polygon points="17.288,31.576 17.288,45.576 31.288,45.576 31.288,31.576" style="fill:none;stroke-width:0.050000mm;stroke:black" />
<polygon points="269.701,12.525 269.701,17.225 268.176,17.225 268.176,13.995 266.451,13.995 266.451,13.076 263.151,13.076 263.151,13.995 261.426,13.995 261.426,17.225 260.601,17.225 260.601,20.026 261.426,20.026 261.426,26.295 263.151,26.295 263.151,27.276 266.451,27.276 266.451,26.295 268.176,26.295 268.176,21.826 269.701,21.826 269.701,26.526 283.701,26.526 283.701,21.826 285.226,21.826 285.226,26.295 286.951,26.295 286.951,27.276 290.251,27.276 290.251,26.295 291.976,26.295 291.976,20.026 292.801,20.026 292.801,17.225 291.976,17.225 291.976,13.995 290.251,13.995 290.251,13.076 286.951,13.076 286.951,13.995 285.226,13.995 285.226,17.225 283.701,17.225 283.701,12.525" style="fill:none;stroke-width:0.050000mm;stroke:black" />
<polygon points="322.088,12.525 322.088,26.526 336.088,26.526 336.088,12.525" style="fill:none;stroke-width:0.050000mm;stroke:black" />
<polygon points="303.038,12.525 303.038,26.526 317.038,26.526 317.038,12.525" style="fill:none;stroke-width:0.050000mm;stroke:black" />
<polygon points="241.126,12.525 241.126,26.526 255.126,26.526 255.126,12.525" style="fill:none;stroke-width:0.050000mm;stroke:black" />
<polygon points="222.076,12.525 222.076,26.526 236.076,26.526 236.076,12.525" style="fill:none;stroke-width:0.050000mm;stroke:black" />
<polygon points="203.026,12.525 203.026,26.526 217.026,26.526 217.026,12.525" style="fill:none;stroke-width:0.050000mm;stroke:black" />
<polygon points="183.976,12.525 183.976,26.526 197.976,26.526 197.976,12.525" style="fill:none;stroke-width:0.050000mm;stroke:black" />
<polygon points="164.926,12.525 164.926,26.526 178.926,26.526 178.926,12.525" style="fill:none;stroke-width:0.050000mm;stroke:black" />
<polygon points="145.876,12.525 145.876,26.526 159.876,26.526 159.876,12.525" style="fill:none;stroke-width:0.050000mm;stroke:black" />
<polygon points="126.825,12.525 126.825,26.526 140.826,26.526 140.826,12.525" style="fill:none;stroke-width:0.050000mm;stroke:black" />
<polygon points="107.775,12.525 107.775,26.526 121.775,26.526 121.775,12.525" style="fill:none;stroke-width:0.050000mm;stroke:black" />
<polygon points="88.726,12.525 88.726,26.526 102.726,26.526 102.726,12.525" style="fill:none;stroke-width:0.050000mm;stroke:black" />
<polygon points="69.676,12.525 69.676,26.526 83.676,26.526 83.676,12.525" style="fill:none;stroke-width:0.050000mm;stroke:black" />
<polygon points="50.626,12.525 50.626,26.526 64.626,26.526 64.626,12.525" style="fill:none;stroke-width:0.050000mm;stroke:black" />
<polygon points="31.576,12.525 31.576,26.526 45.576,26.526 45.576,12.525" style="fill:none;stroke-width:0.050000mm;stroke:black" />
<polygon points="12.525,12.525 12.525,26.526 26.526,26.526 26.526,12.525" style="fill:none;stroke-width:0.050000mm;stroke:black" />
<polygon points="7.176,6.502 6.883,6.651 6.651,6.883 6.502,7.176 6.450,7.501 6.502,7.825 6.651,8.118 6.883,8.350 7.176,8.499 7.500,8.551 7.825,8.499 8.118,8.350 8.350,8.118 8.499,7.825 8.550,7.501 8.499,7.176 8.350,6.883 8.118,6.651 7.825,6.502 7.500,6.451" style="fill:none;stroke-width:0.050000mm;stroke:black" />
<polygon points="340.790,6.502 340.497,6.651 340.265,6.883 340.115,7.176 340.064,7.501 340.115,7.825 340.265,8.118 340.497,8.350 340.790,8.499 341.114,8.551 341.438,8.499 341.731,8.350 341.963,8.118 342.113,7.825 342.164,7.501 342.113,7.176 341.963,6.883 341.731,6.651 341.438,6.502 341.114,6.451" style="fill:none;stroke-width:0.050000mm;stroke:black" />
<polygon points="257.386,6.502 257.092,6.651 256.861,6.883 256.712,7.176 256.661,7.501 256.712,7.825 256.861,8.118 257.092,8.350 257.386,8.499 257.710,8.551 258.035,8.499 258.328,8.350 258.560,8.118 258.709,7.825 258.761,7.501 258.709,7.176 258.560,6.883 258.328,6.651 258.035,6.502 257.710,6.451" style="fill:none;stroke-width:0.050000mm;stroke:black" />
<polygon points="173.983,6.502 173.690,6.651 173.458,6.883 173.309,7.176 173.257,7.501 173.309,7.825 173.458,8.118 173.690,8.350 173.983,8.499 174.307,8.551 174.632,8.499 174.924,8.350 175.157,8.118 175.306,7.825 175.357,7.501 175.306,7.176 175.157,6.883 174.924,6.651 174.632,6.502 174.307,6.451" style="fill:none;stroke-width:0.050000mm;stroke:black" />
<polygon points="90.579,6.502 90.287,6.651 90.054,6.883 89.905,7.176 89.854,7.501 89.905,7.825 90.054,8.118 90.287,8.350 90.579,8.499 90.904,8.551 91.228,8.499 91.521,8.350 91.753,8.118 91.902,7.825 91.954,7.501 91.902,7.176 91.753,6.883 91.521,6.651 91.228,6.502 90.904,6.451" style="fill:none;stroke-width:0.050000mm;stroke:black" />
</svg>
