  0
SECTION
  2
HEADER
  9
$ACADVER
  1
AC1009
  9
$FILLMODE
 70
 0
  9
$SPLFRAME
 70
 1
  9
$EXTMIN
 10
0
 20
0
 30
0.0
  9
$EXTMAX
 10
1058.33
 20
1058.33
 30
0.0
  0
ENDSEC
  0
SECTION
  2
TABLES
  0
TABLE
  2
LAYER
 70
1
  0
LAYER
  2
0
 70
     0
 62
     7
  6
CONTINUOUS
  0
ENDTAB
  0
ENDSEC
  0
SECTION
  2
ENTITIES
  0
LINE
  8
0
 62
     0
 10
340.614
 20
110.357
 30
0.0
 11
340.85
 21
110.348
 31
0.0
  0
LINE
  8
0
 62
     0
 10
340.85
 20
110.348
 30
0.0
 11
341.082
 21
110.322
 31
0.0
  0
LINE
  8
0
 62
     0
 10
341.082
 20
110.322
 30
0.0
 11
341.314
 21
110.275
 31
0.0
  0
LINE
  8
0
 62
     0
 10
341.314
 20
110.275
 30
0.0
 11
341.541
 21
110.211
 31
0.0
  0
LINE
  8
0
 62
     0
 10
341.541
 20
110.211
 30
0.0
 11
341.762
 21
110.129
 31
0.0
  0
LINE
  8
0
 62
     0
 10
341.762
 20
110.129
 30
0.0
 11
341.975
 21
110.031
 31
0.0
  0
LINE
  8
0
 62
     0
 10
341.975
 20
110.031
 30
0.0
 11
342.181
 21
109.915
 31
0.0
  0
LINE
  8
0
 62
     0
 10
342.181
 20
109.915
 30
0.0
 11
342.376
 21
109.786
 31
0.0
  0
LINE
  8
0
 62
     0
 10
342.376
 20
109.786
 30
0.0
 11
342.562
 21
109.639
 31
0.0
  0
LINE
  8
0
 62
     0
 10
342.562
 20
109.639
 30
0.0
 11
342.735
 21
109.48
 31
0.0
  0
LINE
  8
0
 62
     0
 10
342.735
 20
109.48
 30
0.0
 11
342.894
 21
109.306
 31
0.0
  0
LINE
  8
0
 62
     0
 10
342.894
 20
109.306
 30
0.0
 11
343.04
 21
109.121
 31
0.0
  0
LINE
  8
0
 62
     0
 10
343.04
 20
109.121
 30
0.0
 11
343.172
 21
108.926
 31
0.0
  0
LINE
  8
0
 62
     0
 10
343.172
 20
108.926
 30
0.0
 11
343.287
 21
108.719
 31
0.0
  0
LINE
  8
0
 62
     0
 10
343.287
 20
108.719
 30
0.0
 11
343.386
 21
108.507
 31
0.0
  0
LINE
  8
0
 62
     0
 10
343.386
 20
108.507
 30
0.0
 11
343.466
 21
108.285
 31
0.0
  0
LINE
  8
0
 62
     0
 10
343.466
 20
108.285
 30
0.0
 11
343.531
 21
108.059
 31
0.0
  0
LINE
  8
0
 62
     0
 10
343.531
 20
108.059
 30
0.0
 11
343.577
 21
107.827
 31
0.0
  0
LINE
  8
0
 62
     0
 10
343.577
 20
107.827
 30
0.0
 11
343.606
 21
107.593
 31
0.0
  0
LINE
  8
0
 62
     0
 10
343.606
 20
107.593
 30
0.0
 11
343.614
 21
107.357
 31
0.0
  0
LINE
  8
0
 62
     0
 10
343.614
 20
107.357
 30
0.0
 11
343.614
 21
8.10701
 31
0.0
  0
LINE
  8
0
 62
     0
 10
343.614
 20
8.10701
 30
0.0
 11
343.606
 21
7.87135
 31
0.0
  0
LINE
  8
0
 62
     0
 10
343.606
 20
7.87135
 30
0.0
 11
343.577
 21
7.63707
 31
0.0
  0
LINE
  8
0
 62
     0
 10
343.577
 20
7.63707
 30
0.0
 11
343.531
 21
7.40696
 31
0.0
  0
LINE
  8
0
 62
     0
 10
343.531
 20
7.40696
 30
0.0
 11
343.466
 21
7.17959
 31
0.0
  0
LINE
  8
0
 62
     0
 10
343.466
 20
7.17959
 30
0.0
 11
343.386
 21
6.95773
 31
0.0
  0
LINE
  8
0
 62
     0
 10
343.386
 20
6.95773
 30
0.0
 11
343.287
 21
6.7455
 31
0.0
  0
LINE
  8
0
 62
     0
 10
343.287
 20
6.7455
 30
0.0
 11
343.172
 21
6.53881
 31
0.0
  0
LINE
  8
0
 62
     0
 10
343.172
 20
6.53881
 30
0.0
 11
343.04
 21
6.34312
 31
0.0
  0
LINE
  8
0
 62
     0
 10
343.04
 20
6.34312
 30
0.0
 11
342.894
 21
6.15844
 31
0.0
  0
LINE
  8
0
 62
     0
 10
342.894
 20
6.15844
 30
0.0
 11
342.735
 21
5.9848
 31
0.0
  0
LINE
  8
0
 62
     0
 10
342.735
 20
5.9848
 30
0.0
 11
342.562
 21
5.82496
 31
0.0
  0
LINE
  8
0
 62
     0
 10
342.562
 20
5.82496
 30
0.0
 11
342.376
 21
5.67891
 31
0.0
  0
LINE
  8
0
 62
     0
 10
342.376
 20
5.67891
 30
0.0
 11
342.181
 21
5.54937
 31
0.0
  0
LINE
  8
0
 62
     0
 10
342.181
 20
5.54937
 30
0.0
 11
341.975
 21
5.43359
 31
0.0
  0
LINE
  8
0
 62
     0
 10
341.975
 20
5.43359
 30
0.0
 11
341.762
 21
5.33576
 31
0.0
  0
LINE
  8
0
 62
     0
 10
341.762
 20
5.33576
 30
0.0
 11
341.541
 21
5.25307
 31
0.0
  0
LINE
  8
0
 62
     0
 10
341.541
 20
5.25307
 30
0.0
 11
341.314
 21
5.18968
 31
0.0
  0
LINE
  8
0
 62
     0
 10
341.314
 20
5.18968
 30
0.0
 11
341.082
 21
5.14283
 31
0.0
  0
LINE
  8
0
 62
     0
 10
341.082
 20
5.14283
 30
0.0
 11
340.85
 21
5.11665
 31
0.0
  0
LINE
  8
0
 62
     0
 10
340.85
 20
5.11665
 30
0.0
 11
340.614
 21
5.10702
 31
0.0
  0
LINE
  8
0
 62
     0
 10
340.614
 20
5.10702
 30
0.0
 11
8.00089
 21
5.10702
 31
0.0
  0
LINE
  8
0
 62
     0
 10
8.00089
 20
5.10702
 30
0.0
 11
7.76524
 21
5.11665
 31
0.0
  0
LINE
  8
0
 62
     0
 10
7.76524
 20
5.11665
 30
0.0
 11
7.53099
 21
5.14283
 31
0.0
  0
LINE
  8
0
 62
     0
 10
7.53099
 20
5.14283
 30
0.0
 11
7.29947
 21
5.18968
 31
0.0
  0
LINE
  8
0
 62
     0
 10
7.29947
 20
5.18968
 30
0.0
 11
7.07348
 21
5.25307
 31
0.0
  0
LINE
  8
0
 62
     0
 10
7.07348
 20
5.25307
 30
0.0
 11
6.85161
 21
5.33576
 31
0.0
  0
LINE
  8
0
 62
     0
 10
6.85161
 20
5.33576
 30
0.0
 11
6.63938
 21
5.43359
 31
0.0
  0
LINE
  8
0
 62
     0
 10
6.63938
 20
5.43359
 30
0.0
 11
6.43269
 21
5.54937
 31
0.0
  0
LINE
  8
0
 62
     0
 10
6.43269
 20
5.54937
 30
0.0
 11
6.23701
 21
5.67891
 31
0.0
  0
LINE
  8
0
 62
     0
 10
6.23701
 20
5.67891
 30
0.0
 11
6.05236
 21
5.82496
 31
0.0
  0
LINE
  8
0
 62
     0
 10
6.05236
 20
5.82496
 30
0.0
 11
5.87872
 21
5.9848
 31
0.0
  0
LINE
  8
0
 62
     0
 10
5.87872
 20
5.9848
 30
0.0
 11
5.71885
 21
6.15844
 31
0.0
  0
LINE
  8
0
 62
     0
 10
5.71885
 20
6.15844
 30
0.0
 11
5.5728
 21
6.34312
 31
0.0
  0
LINE
  8
0
 62
     0
 10
5.5728
 20
6.34312
 30
0.0
 11
5.44326
 21
6.53881
 31
0.0
  0
LINE
  8
0
 62
     0
 10
5.44326
 20
6.53881
 30
0.0
 11
5.32751
 21
6.7455
 31
0.0
  0
LINE
  8
0
 62
     0
 10
5.32751
 20
6.7455
 30
0.0
 11
5.22965
 21
6.95773
 31
0.0
  0
LINE
  8
0
 62
     0
 10
5.22965
 20
6.95773
 30
0.0
 11
5.14696
 21
7.17959
 31
0.0
  0
LINE
  8
0
 62
     0
 10
5.14696
 20
7.17959
 30
0.0
 11
5.0836
 21
7.40696
 31
0.0
  0
LINE
  8
0
 62
     0
 10
5.0836
 20
7.40696
 30
0.0
 11
5.03671
 21
7.63707
 31
0.0
  0
LINE
  8
0
 62
     0
 10
5.03671
 20
7.63707
 30
0.0
 11
5.01054
 21
7.87135
 31
0.0
  0
LINE
  8
0
 62
     0
 10
5.01054
 20
7.87135
 30
0.0
 11
4.99953
 21
8.10701
 31
0.0
  0
LINE
  8
0
 62
     0
 10
4.99953
 20
8.10701
 30
0.0
 11
5.00091
 21
107.357
 31
0.0
  0
LINE
  8
0
 62
     0
 10
5.00091
 20
107.357
 30
0.0
 11
5.01054
 21
107.593
 31
0.0
  0
LINE
  8
0
 62
     0
 10
5.01054
 20
107.593
 30
0.0
 11
5.03671
 21
107.827
 31
0.0
  0
LINE
  8
0
 62
     0
 10
5.03671
 20
107.827
 30
0.0
 11
5.0836
 21
108.059
 31
0.0
  0
LINE
  8
0
 62
     0
 10
5.0836
 20
108.059
 30
0.0
 11
5.14696
 21
108.285
 31
0.0
  0
LINE
  8
0
 62
     0
 10
5.14696
 20
108.285
 30
0.0
 11
5.22965
 21
108.507
 31
0.0
  0
LINE
  8
0
 62
     0
 10
5.22965
 20
108.507
 30
0.0
 11
5.32751
 21
108.719
 31
0.0
  0
LINE
  8
0
 62
     0
 10
5.32751
 20
108.719
 30
0.0
 11
5.44326
 21
108.926
 31
0.0
  0
LINE
  8
0
 62
     0
 10
5.44326
 20
108.926
 30
0.0
 11
5.5728
 21
109.121
 31
0.0
  0
LINE
  8
0
 62
     0
 10
5.5728
 20
109.121
 30
0.0
 11
5.71885
 21
109.306
 31
0.0
  0
LINE
  8
0
 62
     0
 10
5.71885
 20
109.306
 30
0.0
 11
5.87872
 21
109.48
 31
0.0
  0
LINE
  8
0
 62
     0
 10
5.87872
 20
109.48
 30
0.0
 11
6.05236
 21
109.639
 31
0.0
  0
LINE
  8
0
 62
     0
 10
6.05236
 20
109.639
 30
0.0
 11
6.23701
 21
109.786
 31
0.0
  0
LINE
  8
0
 62
     0
 10
6.23701
 20
109.786
 30
0.0
 11
6.43269
 21
109.915
 31
0.0
  0
LINE
  8
0
 62
     0
 10
6.43269
 20
109.915
 30
0.0
 11
6.63938
 21
110.031
 31
0.0
  0
LINE
  8
0
 62
     0
 10
6.63938
 20
110.031
 30
0.0
 11
6.85161
 21
110.129
 31
0.0
  0
LINE
  8
0
 62
     0
 10
6.85161
 20
110.129
 30
0.0
 11
7.07348
 21
110.211
 31
0.0
  0
LINE
  8
0
 62
     0
 10
7.07348
 20
110.211
 30
0.0
 11
7.29947
 21
110.275
 31
0.0
  0
LINE
  8
0
 62
     0
 10
7.29947
 20
110.275
 30
0.0
 11
7.53099
 21
110.322
 31
0.0
  0
LINE
  8
0
 62
     0
 10
7.53099
 20
110.322
 30
0.0
 11
7.76524
 21
110.348
 31
0.0
  0
LINE
  8
0
 62
     0
 10
7.76524
 20
110.348
 30
0.0
 11
8.00089
 21
110.359
 31
0.0
  0
LINE
  8
0
 62
     0
 10
8.00089
 20
110.359
 30
0.0
 11
340.614
 21
110.357
 31
0.0
  0
LINE
  8
0
 62
     0
 10
7.17543
 20
8.60584
 30
0.0
 11
6.88329
 21
8.45704
 31
0.0
  0
LINE
  8
0
 62
     0
 10
6.88329
 20
8.45704
 30
0.0
 11
6.65043
 21
8.22413
 31
0.0
  0
LINE
  8
0
 62
     0
 10
6.65043
 20
8.22413
 30
0.0
 11
6.50159
 21
7.932
 31
0.0
  0
LINE
  8
0
 62
     0
 10
6.50159
 20
7.932
 30
0.0
 11
6.45061
 21
7.60677
 31
0.0
  0
LINE
  8
0
 62
     0
 10
6.45061
 20
7.60677
 30
0.0
 11
6.50159
 21
7.28292
 31
0.0
  0
LINE
  8
0
 62
     0
 10
6.50159
 20
7.28292
 30
0.0
 11
6.65043
 21
6.98941
 31
0.0
  0
LINE
  8
0
 62
     0
 10
6.65043
 20
6.98941
 30
0.0
 11
6.88329
 21
6.75792
 31
0.0
  0
LINE
  8
0
 62
     0
 10
6.88329
 20
6.75792
 30
0.0
 11
7.17543
 21
6.6077
 31
0.0
  0
LINE
  8
0
 62
     0
 10
7.17543
 20
6.6077
 30
0.0
 11
7.50066
 21
6.55669
 31
0.0
  0
LINE
  8
0
 62
     0
 10
7.50066
 20
6.55669
 30
0.0
 11
7.82451
 21
6.6077
 31
0.0
  0
LINE
  8
0
 62
     0
 10
7.82451
 20
6.6077
 30
0.0
 11
8.11802
 21
6.75792
 31
0.0
  0
LINE
  8
0
 62
     0
 10
8.11802
 20
6.75792
 30
0.0
 11
8.34954
 21
6.98941
 31
0.0
  0
LINE
  8
0
 62
     0
 10
8.34954
 20
6.98941
 30
0.0
 11
8.49835
 21
7.28292
 31
0.0
  0
LINE
  8
0
 62
     0
 10
8.49835
 20
7.28292
 30
0.0
 11
8.54936
 21
7.60677
 31
0.0
  0
LINE
  8
0
 62
     0
 10
8.54936
 20
7.60677
 30
0.0
 11
8.49835
 21
7.932
 31
0.0
  0
LINE
  8
0
 62
     0
 10
8.49835
 20
7.932
 30
0.0
 11
8.34954
 21
8.22413
 31
0.0
  0
LINE
  8
0
 62
     0
 10
8.34954
 20
8.22413
 30
0.0
 11
8.11802
 21
8.45704
 31
0.0
  0
LINE
  8
0
 62
     0
 10
8.11802
 20
8.45704
 30
0.0
 11
7.82451
 21
8.60584
 31
0.0
  0
LINE
  8
0
 62
     0
 10
7.82451
 20
8.60584
 30
0.0
 11
7.50066
 21
8.65685
 31
0.0
  0
LINE
  8
0
 62
     0
 10
7.50066
 20
8.65685
 30
0.0
 11
7.17543
 21
8.60584
 31
0.0
  0
LINE
  8
0
 62
     0
 10
90.5785
 20
8.60584
 30
0.0
 11
90.2878
 21
8.45704
 31
0.0
  0
LINE
  8
0
 62
     0
 10
90.2878
 20
8.45704
 30
0.0
 11
90.0536
 21
8.22413
 31
0.0
  0
LINE
  8
0
 62
     0
 10
90.0536
 20
8.22413
 30
0.0
 11
89.9047
 21
7.932
 31
0.0
  0
LINE
  8
0
 62
     0
 10
89.9047
 20
7.932
 30
0.0
 11
89.8536
 21
7.60677
 31
0.0
  0
LINE
  8
0
 62
     0
 10
89.8536
 20
7.60677
 30
0.0
 11
89.9047
 21
7.28292
 31
0.0
  0
LINE
  8
0
 62
     0
 10
89.9047
 20
7.28292
 30
0.0
 11
90.0536
 21
6.98941
 31
0.0
  0
LINE
  8
0
 62
     0
 10
90.0536
 20
6.98941
 30
0.0
 11
90.2878
 21
6.75792
 31
0.0
  0
LINE
  8
0
 62
     0
 10
90.2878
 20
6.75792
 30
0.0
 11
90.5785
 21
6.6077
 31
0.0
  0
LINE
  8
0
 62
     0
 10
90.5785
 20
6.6077
 30
0.0
 11
90.9038
 21
6.55669
 31
0.0
  0
LINE
  8
0
 62
     0
 10
90.9038
 20
6.55669
 30
0.0
 11
91.2276
 21
6.6077
 31
0.0
  0
LINE
  8
0
 62
     0
 10
91.2276
 20
6.6077
 30
0.0
 11
91.5211
 21
6.75792
 31
0.0
  0
LINE
  8
0
 62
     0
 10
91.5211
 20
6.75792
 30
0.0
 11
91.7526
 21
6.98941
 31
0.0
  0
LINE
  8
0
 62
     0
 10
91.7526
 20
6.98941
 30
0.0
 11
91.9014
 21
7.28292
 31
0.0
  0
LINE
  8
0
 62
     0
 10
91.9014
 20
7.28292
 30
0.0
 11
91.9536
 21
7.60677
 31
0.0
  0
LINE
  8
0
 62
     0
 10
91.9536
 20
7.60677
 30
0.0
 11
91.9014
 21
7.932
 31
0.0
  0
LINE
  8
0
 62
     0
 10
91.9014
 20
7.932
 30
0.0
 11
91.7526
 21
8.22413
 31
0.0
  0
LINE
  8
0
 62
     0
 10
91.7526
 20
8.22413
 30
0.0
 11
91.5211
 21
8.45704
 31
0.0
  0
LINE
  8
0
 62
     0
 10
91.5211
 20
8.45704
 30
0.0
 11
91.2276
 21
8.60584
 31
0.0
  0
LINE
  8
0
 62
     0
 10
91.2276
 20
8.60584
 30
0.0
 11
90.9038
 21
8.65685
 31
0.0
  0
LINE
  8
0
 62
     0
 10
90.9038
 20
8.65685
 30
0.0
 11
90.5785
 21
8.60584
 31
0.0
  0
LINE
  8
0
 62
     0
 10
173.983
 20
8.60584
 30
0.0
 11
173.689
 21
8.45704
 31
0.0
  0
LINE
  8
0
 62
     0
 10
173.689
 20
8.45704
 30
0.0
 11
173.458
 21
8.22413
 31
0.0
  0
LINE
  8
0
 62
     0
 10
173.458
 20
8.22413
 30
0.0
 11
173.309
 21
7.932
 31
0.0
  0
LINE
  8
0
 62
     0
 10
173.309
 20
7.932
 30
0.0
 11
173.257
 21
7.60677
 31
0.0
  0
LINE
  8
0
 62
     0
 10
173.257
 20
7.60677
 30
0.0
 11
173.309
 21
7.28292
 31
0.0
  0
LINE
  8
0
 62
     0
 10
173.309
 20
7.28292
 30
0.0
 11
173.458
 21
6.98941
 31
0.0
  0
LINE
  8
0
 62
     0
 10
173.458
 20
6.98941
 30
0.0
 11
173.689
 21
6.75792
 31
0.0
  0
LINE
  8
0
 62
     0
 10
173.689
 20
6.75792
 30
0.0
 11
173.983
 21
6.6077
 31
0.0
  0
LINE
  8
0
 62
     0
 10
173.983
 20
6.6077
 30
0.0
 11
174.307
 21
6.55669
 31
0.0
  0
LINE
  8
0
 62
     0
 10
174.307
 20
6.55669
 30
0.0
 11
174.632
 21
6.6077
 31
0.0
  0
LINE
  8
0
 62
     0
 10
174.632
 20
6.6077
 30
0.0
 11
174.924
 21
6.75792
 31
0.0
  0
LINE
  8
0
 62
     0
 10
174.924
 20
6.75792
 30
0.0
 11
175.157
 21
6.98941
 31
0.0
  0
LINE
  8
0
 62
     0
 10
175.157
 20
6.98941
 30
0.0
 11
175.306
 21
7.28292
 31
0.0
  0
LINE
  8
0
 62
     0
 10
175.306
 20
7.28292
 30
0.0
 11
175.357
 21
7.60677
 31
0.0
  0
LINE
  8
0
 62
     0
 10
175.357
 20
7.60677
 30
0.0
 11
175.306
 21
7.932
 31
0.0
  0
LINE
  8
0
 62
     0
 10
175.306
 20
7.932
 30
0.0
 11
175.157
 21
8.22413
 31
0.0
  0
LINE
  8
0
 62
     0
 10
175.157
 20
8.22413
 30
0.0
 11
174.924
 21
8.45704
 31
0.0
  0
LINE
  8
0
 62
     0
 10
174.924
 20
8.45704
 30
0.0
 11
174.632
 21
8.60584
 31
0.0
  0
LINE
  8
0
 62
     0
 10
174.632
 20
8.60584
 30
0.0
 11
174.307
 21
8.65685
 31
0.0
  0
LINE
  8
0
 62
     0
 10
174.307
 20
8.65685
 30
0.0
 11
173.983
 21
8.60584
 31
0.0
  0
LINE
  8
0
 62
     0
 10
257.386
 20
8.60584
 30
0.0
 11
257.092
 21
8.45704
 31
0.0
  0
LINE
  8
0
 62
     0
 10
257.092
 20
8.45704
 30
0.0
 11
256.861
 21
8.22413
 31
0.0
  0
LINE
  8
0
 62
     0
 10
256.861
 20
8.22413
 30
0.0
 11
256.712
 21
7.932
 31
0.0
  0
LINE
  8
0
 62
     0
 10
256.712
 20
7.932
 30
0.0
 11
256.661
 21
7.60677
 31
0.0
  0
LINE
  8
0
 62
     0
 10
256.661
 20
7.60677
 30
0.0
 11
256.712
 21
7.28292
 31
0.0
  0
LINE
  8
0
 62
     0
 10
256.712
 20
7.28292
 30
0.0
 11
256.861
 21
6.98941
 31
0.0
  0
LINE
  8
0
 62
     0
 10
256.861
 20
6.98941
 30
0.0
 11
257.092
 21
6.75792
 31
0.0
  0
LINE
  8
0
 62
     0
 10
257.092
 20
6.75792
 30
0.0
 11
257.386
 21
6.6077
 31
0.0
  0
LINE
  8
0
 62
     0
 10
257.386
 20
6.6077
 30
0.0
 11
257.71
 21
6.55669
 31
0.0
  0
LINE
  8
0
 62
     0
 10
257.71
 20
6.55669
 30
0.0
 11
258.035
 21
6.6077
 31
0.0
  0
LINE
  8
0
 62
     0
 10
258.035
 20
6.6077
 30
0.0
 11
258.329
 21
6.75792
 31
0.0
  0
LINE
  8
0
 62
     0
 10
258.329
 20
6.75792
 30
0.0
 11
258.56
 21
6.98941
 31
0.0
  0
LINE
  8
0
 62
     0
 10
258.56
 20
6.98941
 30
0.0
 11
258.709
 21
7.28292
 31
0.0
  0
LINE
  8
0
 62
     0
 10
258.709
 20
7.28292
 30
0.0
 11
258.761
 21
7.60677
 31
0.0
  0
LINE
  8
0
 62
     0
 10
258.761
 20
7.60677
 30
0.0
 11
258.709
 21
7.932
 31
0.0
  0
LINE
  8
0
 62
     0
 10
258.709
 20
7.932
 30
0.0
 11
258.56
 21
8.22413
 31
0.0
  0
LINE
  8
0
 62
     0
 10
258.56
 20
8.22413
 30
0.0
 11
258.329
 21
8.45704
 31
0.0
  0
LINE
  8
0
 62
     0
 10
258.329
 20
8.45704
 30
0.0
 11
258.035
 21
8.60584
 31
0.0
  0
LINE
  8
0
 62
     0
 10
258.035
 20
8.60584
 30
0.0
 11
257.71
 21
8.65685
 31
0.0
  0
LINE
  8
0
 62
     0
 10
257.71
 20
8.65685
 30
0.0
 11
257.386
 21
8.60584
 31
0.0
  0
LINE
  8
0
 62
     0
 10
340.79
 20
8.60584
 30
0.0
 11
340.497
 21
8.45704
 31
0.0
  0
LINE
  8
0
 62
     0
 10
340.497
 20
8.45704
 30
0.0
 11
340.265
 21
8.22413
 31
0.0
  0
LINE
  8
0
 62
     0
 10
340.265
 20
8.22413
 30
0.0
 11
340.115
 21
7.932
 31
0.0
  0
LINE
  8
0
 62
     0
 10
340.115
 20
7.932
 30
0.0
 11
340.064
 21
7.60677
 31
0.0
  0
LINE
  8
0
 62
     0
 10
340.064
 20
7.60677
 30
0.0
 11
340.115
 21
7.28292
 31
0.0
  0
LINE
  8
0
 62
     0
 10
340.115
 20
7.28292
 30
0.0
 11
340.265
 21
6.98941
 31
0.0
  0
LINE
  8
0
 62
     0
 10
340.265
 20
6.98941
 30
0.0
 11
340.497
 21
6.75792
 31
0.0
  0
LINE
  8
0
 62
     0
 10
340.497
 20
6.75792
 30
0.0
 11
340.79
 21
6.6077
 31
0.0
  0
LINE
  8
0
 62
     0
 10
340.79
 20
6.6077
 30
0.0
 11
341.114
 21
6.55669
 31
0.0
  0
LINE
  8
0
 62
     0
 10
341.114
 20
6.55669
 30
0.0
 11
341.438
 21
6.6077
 31
0.0
  0
LINE
  8
0
 62
     0
 10
341.438
 20
6.6077
 30
0.0
 11
341.732
 21
6.75792
 31
0.0
  0
LINE
  8
0
 62
     0
 10
341.732
 20
6.75792
 30
0.0
 11
341.963
 21
6.98941
 31
0.0
  0
LINE
  8
0
 62
     0
 10
341.963
 20
6.98941
 30
0.0
 11
342.113
 21
7.28292
 31
0.0
  0
LINE
  8
0
 62
     0
 10
342.113
 20
7.28292
 30
0.0
 11
342.164
 21
7.60677
 31
0.0
  0
LINE
  8
0
 62
     0
 10
342.164
 20
7.60677
 30
0.0
 11
342.113
 21
7.932
 31
0.0
  0
LINE
  8
0
 62
     0
 10
342.113
 20
7.932
 30
0.0
 11
341.963
 21
8.22413
 31
0.0
  0
LINE
  8
0
 62
     0
 10
341.963
 20
8.22413
 30
0.0
 11
341.732
 21
8.45704
 31
0.0
  0
LINE
  8
0
 62
     0
 10
341.732
 20
8.45704
 30
0.0
 11
341.438
 21
8.60584
 31
0.0
  0
LINE
  8
0
 62
     0
 10
341.438
 20
8.60584
 30
0.0
 11
341.114
 21
8.65685
 31
0.0
  0
LINE
  8
0
 62
     0
 10
341.114
 20
8.65685
 30
0.0
 11
340.79
 21
8.60584
 31
0.0
  0
LINE
  8
0
 62
     0
 10
162.544
 20
26.632
 30
0.0
 11
162.544
 21
21.9329
 31
0.0
  0
LINE
  8
0
 62
     0
 10
162.544
 20
21.9329
 30
0.0
 11
161.02
 21
21.9329
 31
0.0
  0
LINE
  8
0
 62
     0
 10
161.02
 20
21.9329
 30
0.0
 11
161.02
 21
25.163
 31
0.0
  0
LINE
  8
0
 62
     0
 10
161.02
 20
25.163
 30
0.0
 11
159.294
 21
25.163
 31
0.0
  0
LINE
  8
0
 62
     0
 10
159.294
 20
25.163
 30
0.0
 11
159.294
 21
26.0835
 31
0.0
  0
LINE
  8
0
 62
     0
 10
159.294
 20
26.0835
 30
0.0
 11
155.994
 21
26.0835
 31
0.0
  0
LINE
  8
0
 62
     0
 10
155.994
 20
26.0835
 30
0.0
 11
155.994
 21
25.163
 31
0.0
  0
LINE
  8
0
 62
     0
 10
155.994
 20
25.163
 30
0.0
 11
154.269
 21
25.163
 31
0.0
  0
LINE
  8
0
 62
     0
 10
154.269
 20
25.163
 30
0.0
 11
154.269
 21
21.9329
 31
0.0
  0
LINE
  8
0
 62
     0
 10
154.269
 20
21.9329
 30
0.0
 11
153.445
 21
21.9329
 31
0.0
  0
LINE
  8
0
 62
     0
 10
153.445
 20
21.9329
 30
0.0
 11
153.445
 21
19.1327
 31
0.0
  0
LINE
  8
0
 62
     0
 10
153.445
 20
19.1327
 30
0.0
 11
154.269
 21
19.1327
 31
0.0
  0
LINE
  8
0
 62
     0
 10
154.269
 20
19.1327
 30
0.0
 11
154.269
 21
12.864
 31
0.0
  0
LINE
  8
0
 62
     0
 10
154.269
 20
12.864
 30
0.0
 11
155.994
 21
12.864
 31
0.0
  0
LINE
  8
0
 62
     0
 10
155.994
 20
12.864
 30
0.0
 11
155.994
 21
11.8828
 31
0.0
  0
LINE
  8
0
 62
     0
 10
155.994
 20
11.8828
 30
0.0
 11
159.294
 21
11.8828
 31
0.0
  0
LINE
  8
0
 62
     0
 10
159.294
 20
11.8828
 30
0.0
 11
159.294
 21
12.864
 31
0.0
  0
LINE
  8
0
 62
     0
 10
159.294
 20
12.864
 30
0.0
 11
161.02
 21
12.864
 31
0.0
  0
LINE
  8
0
 62
     0
 10
161.02
 20
12.864
 30
0.0
 11
161.02
 21
17.333
 31
0.0
  0
LINE
  8
0
 62
     0
 10
161.02
 20
17.333
 30
0.0
 11
162.544
 21
17.333
 31
0.0
  0
LINE
  8
0
 62
     0
 10
162.544
 20
17.333
 30
0.0
 11
162.544
 21
12.6325
 31
0.0
  0
LINE
  8
0
 62
     0
 10
162.544
 20
12.6325
 30
0.0
 11
176.544
 21
12.6325
 31
0.0
  0
LINE
  8
0
 62
     0
 10
176.544
 20
12.6325
 30
0.0
 11
176.544
 21
17.333
 31
0.0
  0
LINE
  8
0
 62
     0
 10
176.544
 20
17.333
 30
0.0
 11
178.069
 21
17.333
 31
0.0
  0
LINE
  8
0
 62
     0
 10
178.069
 20
17.333
 30
0.0
 11
178.069
 21
12.864
 31
0.0
  0
LINE
  8
0
 62
     0
 10
178.069
 20
12.864
 30
0.0
 11
179.794
 21
12.864
 31
0.0
  0
LINE
  8
0
 62
     0
 10
179.794
 20
12.864
 30
0.0
 11
179.794
 21
11.8828
 31
0.0
  0
LINE
  8
0
 62
     0
 10
179.794
 20
11.8828
 30
0.0
 11
183.094
 21
11.8828
 31
0.0
  0
LINE
  8
0
 62
     0
 10
183.094
 20
11.8828
 30
0.0
 11
183.094
 21
12.864
 31
0.0
  0
LINE
  8
0
 62
     0
 10
183.094
 20
12.864
 30
0.0
 11
184.819
 21
12.864
 31
0.0
  0
LINE
  8
0
 62
     0
 10
184.819
 20
12.864
 30
0.0
 11
184.819
 21
19.1327
 31
0.0
  0
LINE
  8
0
 62
     0
 10
184.819
 20
19.1327
 30
0.0
 11
185.644
 21
19.1327
 31
0.0
  0
LINE
  8
0
 62
     0
 10
185.644
 20
19.1327
 30
0.0
 11
185.644
 21
21.9329
 31
0.0
  0
LINE
  8
0
 62
     0
 10
185.644
 20
21.9329
 30
0.0
 11
184.819
 21
21.9329
 31
0.0
  0
LINE
  8
0
 62
     0
 10
184.819
 20
21.9329
 30
0.0
 11
184.819
 21
25.163
 31
0.0
  0
LINE
  8
0
 62
     0
 10
184.819
 20
25.163
 30
0.0
 11
183.094
 21
25.163
 31
0.0
  0
LINE
  8
0
 62
     0
 10
183.094
 20
25.163
 30
0.0
 11
183.094
 21
26.0835
 31
0.0
  0
LINE
  8
0
 62
     0
 10
183.094
 20
26.0835
 30
0.0
 11
179.794
 21
26.0835
 31
0.0
  0
LINE
  8
0
 62
     0
 10
179.794
 20
26.0835
 30
0.0
 11
179.794
 21
25.163
 31
0.0
  0
LINE
  8
0
 62
     0
 10
179.794
 20
25.163
 30
0.0
 11
178.069
 21
25.163
 31
0.0
  0
LINE
  8
0
 62
     0
 10
178.069
 20
25.163
 30
0.0
 11
178.069
 21
21.9329
 31
0.0
  0
LINE
  8
0
 62
     0
 10
178.069
 20
21.9329
 30
0.0
 11
176.544
 21
21.9329
 31
0.0
  0
LINE
  8
0
 62
     0
 10
176.544
 20
21.9329
 30
0.0
 11
176.544
 21
26.632
 31
0.0
  0
LINE
  8
0
 62
     0
 10
176.544
 20
26.632
 30
0.0
 11
162.544
 21
26.632
 31
0.0
  0
LINE
  8
0
 62
     0
 10
95.8688
 20
26.632
 30
0.0
 11
95.8688
 21
21.9329
 31
0.0
  0
LINE
  8
0
 62
     0
 10
95.8688
 20
21.9329
 30
0.0
 11
94.3448
 21
21.9329
 31
0.0
  0
LINE
  8
0
 62
     0
 10
94.3448
 20
21.9329
 30
0.0
 11
94.3448
 21
25.163
 31
0.0
  0
LINE
  8
0
 62
     0
 10
94.3448
 20
25.163
 30
0.0
 11
92.6193
 21
25.163
 31
0.0
  0
LINE
  8
0
 62
     0
 10
92.6193
 20
25.163
 30
0.0
 11
92.6193
 21
26.0835
 31
0.0
  0
LINE
  8
0
 62
     0
 10
92.6193
 20
26.0835
 30
0.0
 11
89.3191
 21
26.0835
 31
0.0
  0
LINE
  8
0
 62
     0
 10
89.3191
 20
26.0835
 30
0.0
 11
89.3191
 21
25.163
 31
0.0
  0
LINE
  8
0
 62
     0
 10
89.3191
 20
25.163
 30
0.0
 11
87.5937
 21
25.163
 31
0.0
  0
LINE
  8
0
 62
     0
 10
87.5937
 20
25.163
 30
0.0
 11
87.5937
 21
21.9329
 31
0.0
  0
LINE
  8
0
 62
     0
 10
87.5937
 20
21.9329
 30
0.0
 11
86.7696
 21
21.9329
 31
0.0
  0
LINE
  8
0
 62
     0
 10
86.7696
 20
21.9329
 30
0.0
 11
86.7696
 21
19.1327
 31
0.0
  0
LINE
  8
0
 62
     0
 10
86.7696
 20
19.1327
 30
0.0
 11
87.5937
 21
19.1327
 31
0.0
  0
LINE
  8
0
 62
     0
 10
87.5937
 20
19.1327
 30
0.0
 11
87.5937
 21
12.864
 31
0.0
  0
LINE
  8
0
 62
     0
 10
87.5937
 20
12.864
 30
0.0
 11
89.3191
 21
12.864
 31
0.0
  0
LINE
  8
0
 62
     0
 10
89.3191
 20
12.864
 30
0.0
 11
89.3191
 21
11.8828
 31
0.0
  0
LINE
  8
0
 62
     0
 10
89.3191
 20
11.8828
 30
0.0
 11
92.6193
 21
11.8828
 31
0.0
  0
LINE
  8
0
 62
     0
 10
92.6193
 20
11.8828
 30
0.0
 11
92.6193
 21
12.864
 31
0.0
  0
LINE
  8
0
 62
     0
 10
92.6193
 20
12.864
 30
0.0
 11
94.3448
 21
12.864
 31
0.0
  0
LINE
  8
0
 62
     0
 10
94.3448
 20
12.864
 30
0.0
 11
94.3448
 21
17.333
 31
0.0
  0
LINE
  8
0
 62
     0
 10
94.3448
 20
17.333
 30
0.0
 11
95.8688
 21
17.333
 31
0.0
  0
LINE
  8
0
 62
     0
 10
95.8688
 20
17.333
 30
0.0
 11
95.8688
 21
12.6325
 31
0.0
  0
LINE
  8
0
 62
     0
 10
95.8688
 20
12.6325
 30
0.0
 11
109.869
 21
12.6325
 31
0.0
  0
LINE
  8
0
 62
     0
 10
109.869
 20
12.6325
 30
0.0
 11
109.869
 21
17.333
 31
0.0
  0
LINE
  8
0
 62
     0
 10
109.869
 20
17.333
 30
0.0
 11
111.394
 21
17.333
 31
0.0
  0
LINE
  8
0
 62
     0
 10
111.394
 20
17.333
 30
0.0
 11
111.394
 21
12.864
 31
0.0
  0
LINE
  8
0
 62
     0
 10
111.394
 20
12.864
 30
0.0
 11
113.119
 21
12.864
 31
0.0
  0
LINE
  8
0
 62
     0
 10
113.119
 20
12.864
 30
0.0
 11
113.119
 21
11.8828
 31
0.0
  0
LINE
  8
0
 62
     0
 10
113.119
 20
11.8828
 30
0.0
 11
116.419
 21
11.8828
 31
0.0
  0
LINE
  8
0
 62
     0
 10
116.419
 20
11.8828
 30
0.0
 11
116.419
 21
12.864
 31
0.0
  0
LINE
  8
0
 62
     0
 10
116.419
 20
12.864
 30
0.0
 11
118.144
 21
12.864
 31
0.0
  0
LINE
  8
0
 62
     0
 10
118.144
 20
12.864
 30
0.0
 11
118.144
 21
19.1327
 31
0.0
  0
LINE
  8
0
 62
     0
 10
118.144
 20
19.1327
 30
0.0
 11
118.969
 21
19.1327
 31
0.0
  0
LINE
  8
0
 62
     0
 10
118.969
 20
19.1327
 30
0.0
 11
118.969
 21
21.9329
 31
0.0
  0
LINE
  8
0
 62
     0
 10
118.969
 20
21.9329
 30
0.0
 11
118.144
 21
21.9329
 31
0.0
  0
LINE
  8
0
 62
     0
 10
118.144
 20
21.9329
 30
0.0
 11
118.144
 21
25.163
 31
0.0
  0
LINE
  8
0
 62
     0
 10
118.144
 20
25.163
 30
0.0
 11
116.419
 21
25.163
 31
0.0
  0
LINE
  8
0
 62
     0
 10
116.419
 20
25.163
 30
0.0
 11
116.419
 21
26.0835
 31
0.0
  0
LINE
  8
0
 62
     0
 10
116.419
 20
26.0835
 30
0.0
 11
113.119
 21
26.0835
 31
0.0
  0
LINE
  8
0
 62
     0
 10
113.119
 20
26.0835
 30
0.0
 11
113.119
 21
25.163
 31
0.0
  0
LINE
  8
0
 62
     0
 10
113.119
 20
25.163
 30
0.0
 11
111.394
 21
25.163
 31
0.0
  0
LINE
  8
0
 62
     0
 10
111.394
 20
25.163
 30
0.0
 11
111.394
 21
21.9329
 31
0.0
  0
LINE
  8
0
 62
     0
 10
111.394
 20
21.9329
 30
0.0
 11
109.869
 21
21.9329
 31
0.0
  0
LINE
  8
0
 62
     0
 10
109.869
 20
21.9329
 30
0.0
 11
109.869
 21
26.632
 31
0.0
  0
LINE
  8
0
 62
     0
 10
109.869
 20
26.632
 30
0.0
 11
95.8688
 21
26.632
 31
0.0
  0
LINE
  8
0
 62
     0
 10
322.088
 20
26.632
 30
0.0
 11
336.088
 21
26.632
 31
0.0
  0
LINE
  8
0
 62
     0
 10
336.088
 20
26.632
 30
0.0
 11
336.088
 21
12.6325
 31
0.0
  0
LINE
  8
0
 62
     0
 10
336.088
 20
12.6325
 30
0.0
 11
322.088
 21
12.6325
 31
0.0
  0
LINE
  8
0
 62
     0
 10
322.088
 20
12.6325
 30
0.0
 11
322.088
 21
26.632
 31
0.0
  0
LINE
  8
0
 62
     0
 10
303.038
 20
26.632
 30
0.0
 11
317.038
 21
26.632
 31
0.0
  0
LINE
  8
0
 62
     0
 10
317.038
 20
26.632
 30
0.0
 11
317.038
 21
12.6325
 31
0.0
  0
LINE
  8
0
 62
     0
 10
317.038
 20
12.6325
 30
0.0
 11
303.038
 21
12.6325
 31
0.0
  0
LINE
  8
0
 62
     0
 10
303.038
 20
12.6325
 30
0.0
 11
303.038
 21
26.632
 31
0.0
  0
LINE
  8
0
 62
     0
 10
283.988
 20
26.632
 30
0.0
 11
297.988
 21
26.632
 31
0.0
  0
LINE
  8
0
 62
     0
 10
297.988
 20
26.632
 30
0.0
 11
297.988
 21
12.6325
 31
0.0
  0
LINE
  8
0
 62
     0
 10
297.988
 20
12.6325
 30
0.0
 11
283.988
 21
12.6325
 31
0.0
  0
LINE
  8
0
 62
     0
 10
283.988
 20
12.6325
 30
0.0
 11
283.988
 21
26.632
 31
0.0
  0
LINE
  8
0
 62
     0
 10
248.269
 20
26.632
 30
0.0
 11
262.269
 21
26.632
 31
0.0
  0
LINE
  8
0
 62
     0
 10
262.269
 20
26.632
 30
0.0
 11
262.269
 21
12.6325
 31
0.0
  0
LINE
  8
0
 62
     0
 10
262.269
 20
12.6325
 30
0.0
 11
248.269
 21
12.6325
 31
0.0
  0
LINE
  8
0
 62
     0
 10
248.269
 20
12.6325
 30
0.0
 11
248.269
 21
26.632
 31
0.0
  0
LINE
  8
0
 62
     0
 10
224.458
 20
26.632
 30
0.0
 11
238.457
 21
26.632
 31
0.0
  0
LINE
  8
0
 62
     0
 10
238.457
 20
26.632
 30
0.0
 11
238.457
 21
12.6325
 31
0.0
  0
LINE
  8
0
 62
     0
 10
238.457
 20
12.6325
 30
0.0
 11
224.458
 21
12.6325
 31
0.0
  0
LINE
  8
0
 62
     0
 10
224.458
 20
12.6325
 30
0.0
 11
224.458
 21
26.632
 31
0.0
  0
LINE
  8
0
 62
     0
 10
200.644
 20
26.632
 30
0.0
 11
214.644
 21
26.632
 31
0.0
  0
LINE
  8
0
 62
     0
 10
214.644
 20
26.632
 30
0.0
 11
214.644
 21
12.6325
 31
0.0
  0
LINE
  8
0
 62
     0
 10
214.644
 20
12.6325
 30
0.0
 11
200.644
 21
12.6325
 31
0.0
  0
LINE
  8
0
 62
     0
 10
200.644
 20
12.6325
 30
0.0
 11
200.644
 21
26.632
 31
0.0
  0
LINE
  8
0
 62
     0
 10
126.826
 20
26.632
 30
0.0
 11
140.826
 21
26.632
 31
0.0
  0
LINE
  8
0
 62
     0
 10
140.826
 20
26.632
 30
0.0
 11
140.826
 21
12.6325
 31
0.0
  0
LINE
  8
0
 62
     0
 10
140.826
 20
12.6325
 30
0.0
 11
126.826
 21
12.6325
 31
0.0
  0
LINE
  8
0
 62
     0
 10
126.826
 20
12.6325
 30
0.0
 11
126.826
 21
26.632
 31
0.0
  0
LINE
  8
0
 62
     0
 10
62.5327
 20
26.632
 30
0.0
 11
76.532
 21
26.632
 31
0.0
  0
LINE
  8
0
 62
     0
 10
76.532
 20
26.632
 30
0.0
 11
76.532
 21
12.6325
 31
0.0
  0
LINE
  8
0
 62
     0
 10
76.532
 20
12.6325
 30
0.0
 11
62.5327
 21
12.6325
 31
0.0
  0
LINE
  8
0
 62
     0
 10
62.5327
 20
12.6325
 30
0.0
 11
62.5327
 21
26.632
 31
0.0
  0
LINE
  8
0
 62
     0
 10
38.7188
 20
26.632
 30
0.0
 11
52.7195
 21
26.632
 31
0.0
  0
LINE
  8
0
 62
     0
 10
52.7195
 20
26.632
 30
0.0
 11
52.7195
 21
12.6325
 31
0.0
  0
LINE
  8
0
 62
     0
 10
52.7195
 20
12.6325
 30
0.0
 11
38.7188
 21
12.6325
 31
0.0
  0
LINE
  8
0
 62
     0
 10
38.7188
 20
12.6325
 30
0.0
 11
38.7188
 21
26.632
 31
0.0
  0
LINE
  8
0
 62
     0
 10
14.9076
 20
26.632
 30
0.0
 11
28.9071
 21
26.632
 31
0.0
  0
LINE
  8
0
 62
     0
 10
28.9071
 20
26.632
 30
0.0
 11
28.9071
 21
12.6325
 31
0.0
  0
LINE
  8
0
 62
     0
 10
28.9071
 20
12.6325
 30
0.0
 11
14.9076
 21
12.6325
 31
0.0
  0
LINE
  8
0
 62
     0
 10
14.9076
 20
12.6325
 30
0.0
 11
14.9076
 21
26.632
 31
0.0
  0
LINE
  8
0
 62
     0
 10
303.038
 20
45.6819
 30
0.0
 11
317.038
 21
45.6819
 31
0.0
  0
LINE
  8
0
 62
     0
 10
317.038
 20
45.6819
 30
0.0
 11
317.038
 21
31.6825
 31
0.0
  0
LINE
  8
0
 62
     0
 10
317.038
 20
31.6825
 30
0.0
 11
303.038
 21
31.6825
 31
0.0
  0
LINE
  8
0
 62
     0
 10
303.038
 20
31.6825
 30
0.0
 11
303.038
 21
45.6819
 31
0.0
  0
LINE
  8
0
 62
     0
 10
279.226
 20
45.6819
 30
0.0
 11
293.226
 21
45.6819
 31
0.0
  0
LINE
  8
0
 62
     0
 10
293.226
 20
45.6819
 30
0.0
 11
293.226
 21
31.6825
 31
0.0
  0
LINE
  8
0
 62
     0
 10
293.226
 20
31.6825
 30
0.0
 11
279.226
 21
31.6825
 31
0.0
  0
LINE
  8
0
 62
     0
 10
279.226
 20
31.6825
 30
0.0
 11
279.226
 21
45.6819
 31
0.0
  0
LINE
  8
0
 62
     0
 10
253.033
 20
45.6819
 30
0.0
 11
267.032
 21
45.6819
 31
0.0
  0
LINE
  8
0
 62
     0
 10
267.032
 20
45.6819
 30
0.0
 11
267.032
 21
31.6825
 31
0.0
  0
LINE
  8
0
 62
     0
 10
267.032
 20
31.6825
 30
0.0
 11
253.033
 21
31.6825
 31
0.0
  0
LINE
  8
0
 62
     0
 10
253.033
 20
31.6825
 30
0.0
 11
253.033
 21
45.6819
 31
0.0
  0
LINE
  8
0
 62
     0
 10
226.838
 20
45.6819
 30
0.0
 11
240.838
 21
45.6819
 31
0.0
  0
LINE
  8
0
 62
     0
 10
240.838
 20
45.6819
 30
0.0
 11
240.838
 21
31.6825
 31
0.0
  0
LINE
  8
0
 62
     0
 10
240.838
 20
31.6825
 30
0.0
 11
226.838
 21
31.6825
 31
0.0
  0
LINE
  8
0
 62
     0
 10
226.838
 20
31.6825
 30
0.0
 11
226.838
 21
45.6819
 31
0.0
  0
LINE
  8
0
 62
     0
 10
207.788
 20
45.6819
 30
0.0
 11
221.788
 21
45.6819
 31
0.0
  0
LINE
  8
0
 62
     0
 10
221.788
 20
45.6819
 30
0.0
 11
221.788
 21
31.6825
 31
0.0
  0
LINE
  8
0
 62
     0
 10
221.788
 20
31.6825
 30
0.0
 11
207.788
 21
31.6825
 31
0.0
  0
LINE
  8
0
 62
     0
 10
207.788
 20
31.6825
 30
0.0
 11
207.788
 21
45.6819
 31
0.0
  0
LINE
  8
0
 62
     0
 10
188.738
 20
45.6819
 30
0.0
 11
202.738
 21
45.6819
 31
0.0
  0
LINE
  8
0
 62
     0
 10
202.738
 20
45.6819
 30
0.0
 11
202.738
 21
31.6825
 31
0.0
  0
LINE
  8
0
 62
     0
 10
202.738
 20
31.6825
 30
0.0
 11
188.738
 21
31.6825
 31
0.0
  0
LINE
  8
0
 62
     0
 10
188.738
 20
31.6825
 30
0.0
 11
188.738
 21
45.6819
 31
0.0
  0
LINE
  8
0
 62
     0
 10
169.688
 20
45.6819
 30
0.0
 11
183.688
 21
45.6819
 31
0.0
  0
LINE
  8
0
 62
     0
 10
183.688
 20
45.6819
 30
0.0
 11
183.688
 21
31.6825
 31
0.0
  0
LINE
  8
0
 62
     0
 10
183.688
 20
31.6825
 30
0.0
 11
169.688
 21
31.6825
 31
0.0
  0
LINE
  8
0
 62
     0
 10
169.688
 20
31.6825
 30
0.0
 11
169.688
 21
45.6819
 31
0.0
  0
LINE
  8
0
 62
     0
 10
150.638
 20
45.6819
 30
0.0
 11
164.638
 21
45.6819
 31
0.0
  0
LINE
  8
0
 62
     0
 10
164.638
 20
45.6819
 30
0.0
 11
164.638
 21
31.6825
 31
0.0
  0
LINE
  8
0
 62
     0
 10
164.638
 20
31.6825
 30
0.0
 11
150.638
 21
31.6825
 31
0.0
  0
LINE
  8
0
 62
     0
 10
150.638
 20
31.6825
 30
0.0
 11
150.638
 21
45.6819
 31
0.0
  0
LINE
  8
0
 62
     0
 10
131.588
 20
45.6819
 30
0.0
 11
145.588
 21
45.6819
 31
0.0
  0
LINE
  8
0
 62
     0
 10
145.588
 20
45.6819
 30
0.0
 11
145.588
 21
31.6825
 31
0.0
  0
LINE
  8
0
 62
     0
 10
145.588
 20
31.6825
 30
0.0
 11
131.588
 21
31.6825
 31
0.0
  0
LINE
  8
0
 62
     0
 10
131.588
 20
31.6825
 30
0.0
 11
131.588
 21
45.6819
 31
0.0
  0
LINE
  8
0
 62
     0
 10
112.538
 20
45.6819
 30
0.0
 11
126.538
 21
45.6819
 31
0.0
  0
LINE
  8
0
 62
     0
 10
126.538
 20
45.6819
 30
0.0
 11
126.538
 21
31.6825
 31
0.0
  0
LINE
  8
0
 62
     0
 10
126.538
 20
31.6825
 30
0.0
 11
112.538
 21
31.6825
 31
0.0
  0
LINE
  8
0
 62
     0
 10
112.538
 20
31.6825
 30
0.0
 11
112.538
 21
45.6819
 31
0.0
  0
LINE
  8
0
 62
     0
 10
93.4875
 20
45.6819
 30
0.0
 11
107.488
 21
45.6819
 31
0.0
  0
LINE
  8
0
 62
     0
 10
107.488
 20
45.6819
 30
0.0
 11
107.488
 21
31.6825
 31
0.0
  0
LINE
  8
0
 62
     0
 10
107.488
 20
31.6825
 30
0.0
 11
93.4875
 21
31.6825
 31
0.0
  0
LINE
  8
0
 62
     0
 10
93.4875
 20
31.6825
 30
0.0
 11
93.4875
 21
45.6819
 31
0.0
  0
LINE
  8
0
 62
     0
 10
74.4375
 20
45.6819
 30
0.0
 11
88.4382
 21
45.6819
 31
0.0
  0
LINE
  8
0
 62
     0
 10
88.4382
 20
45.6819
 30
0.0
 11
88.4382
 21
31.6825
 31
0.0
  0
LINE
  8
0
 62
     0
 10
88.4382
 20
31.6825
 30
0.0
 11
74.4375
 21
31.6825
 31
0.0
  0
LINE
  8
0
 62
     0
 10
74.4375
 20
31.6825
 30
0.0
 11
74.4375
 21
45.6819
 31
0.0
  0
LINE
  8
0
 62
     0
 10
55.3875
 20
45.6819
 30
0.0
 11
69.3882
 21
45.6819
 31
0.0
  0
LINE
  8
0
 62
     0
 10
69.3882
 20
45.6819
 30
0.0
 11
69.3882
 21
31.6825
 31
0.0
  0
LINE
  8
0
 62
     0
 10
69.3882
 20
31.6825
 30
0.0
 11
55.3875
 21
31.6825
 31
0.0
  0
LINE
  8
0
 62
     0
 10
55.3875
 20
31.6825
 30
0.0
 11
55.3875
 21
45.6819
 31
0.0
  0
LINE
  8
0
 62
     0
 10
36.3375
 20
45.6819
 30
0.0
 11
50.3382
 21
45.6819
 31
0.0
  0
LINE
  8
0
 62
     0
 10
50.3382
 20
45.6819
 30
0.0
 11
50.3382
 21
31.6825
 31
0.0
  0
LINE
  8
0
 62
     0
 10
50.3382
 20
31.6825
 30
0.0
 11
36.3375
 21
31.6825
 31
0.0
  0
LINE
  8
0
 62
     0
 10
36.3375
 20
31.6825
 30
0.0
 11
36.3375
 21
45.6819
 31
0.0
  0
LINE
  8
0
 62
     0
 10
14.9076
 20
45.6819
 30
0.0
 11
28.9071
 21
45.6819
 31
0.0
  0
LINE
  8
0
 62
     0
 10
28.9071
 20
45.6819
 30
0.0
 11
28.9071
 21
31.6825
 31
0.0
  0
LINE
  8
0
 62
     0
 10
28.9071
 20
31.6825
 30
0.0
 11
14.9076
 21
31.6825
 31
0.0
  0
LINE
  8
0
 62
     0
 10
14.9076
 20
31.6825
 30
0.0
 11
14.9076
 21
45.6819
 31
0.0
  0
LINE
  8
0
 62
     0
 10
255.413
 20
64.7319
 30
0.0
 11
269.413
 21
64.7319
 31
0.0
  0
LINE
  8
0
 62
     0
 10
269.413
 20
64.7319
 30
0.0
 11
269.413
 21
50.7326
 31
0.0
  0
LINE
  8
0
 62
     0
 10
269.413
 20
50.7326
 30
0.0
 11
255.413
 21
50.7326
 31
0.0
  0
LINE
  8
0
 62
     0
 10
255.413
 20
50.7326
 30
0.0
 11
255.413
 21
64.7319
 31
0.0
  0
LINE
  8
0
 62
     0
 10
236.363
 20
64.7319
 30
0.0
 11
250.363
 21
64.7319
 31
0.0
  0
LINE
  8
0
 62
     0
 10
250.363
 20
64.7319
 30
0.0
 11
250.363
 21
50.7326
 31
0.0
  0
LINE
  8
0
 62
     0
 10
250.363
 20
50.7326
 30
0.0
 11
236.363
 21
50.7326
 31
0.0
  0
LINE
  8
0
 62
     0
 10
236.363
 20
50.7326
 30
0.0
 11
236.363
 21
64.7319
 31
0.0
  0
LINE
  8
0
 62
     0
 10
217.313
 20
64.7319
 30
0.0
 11
231.313
 21
64.7319
 31
0.0
  0
LINE
  8
0
 62
     0
 10
231.313
 20
64.7319
 30
0.0
 11
231.313
 21
50.7326
 31
0.0
  0
LINE
  8
0
 62
     0
 10
231.313
 20
50.7326
 30
0.0
 11
217.313
 21
50.7326
 31
0.0
  0
LINE
  8
0
 62
     0
 10
217.313
 20
50.7326
 30
0.0
 11
217.313
 21
64.7319
 31
0.0
  0
LINE
  8
0
 62
     0
 10
198.263
 20
64.7319
 30
0.0
 11
212.263
 21
64.7319
 31
0.0
  0
LINE
  8
0
 62
     0
 10
212.263
 20
64.7319
 30
0.0
 11
212.263
 21
50.7326
 31
0.0
  0
LINE
  8
0
 62
     0
 10
212.263
 20
50.7326
 30
0.0
 11
198.263
 21
50.7326
 31
0.0
  0
LINE
  8
0
 62
     0
 10
198.263
 20
50.7326
 30
0.0
 11
198.263
 21
64.7319
 31
0.0
  0
LINE
  8
0
 62
     0
 10
179.213
 20
64.7319
 30
0.0
 11
193.213
 21
64.7319
 31
0.0
  0
LINE
  8
0
 62
     0
 10
193.213
 20
64.7319
 30
0.0
 11
193.213
 21
50.7326
 31
0.0
  0
LINE
  8
0
 62
     0
 10
193.213
 20
50.7326
 30
0.0
 11
179.213
 21
50.7326
 31
0.0
  0
LINE
  8
0
 62
     0
 10
179.213
 20
50.7326
 30
0.0
 11
179.213
 21
64.7319
 31
0.0
  0
LINE
  8
0
 62
     0
 10
160.163
 20
64.7319
 30
0.0
 11
174.163
 21
64.7319
 31
0.0
  0
LINE
  8
0
 62
     0
 10
174.163
 20
64.7319
 30
0.0
 11
174.163
 21
50.7326
 31
0.0
  0
LINE
  8
0
 62
     0
 10
174.163
 20
50.7326
 30
0.0
 11
160.163
 21
50.7326
 31
0.0
  0
LINE
  8
0
 62
     0
 10
160.163
 20
50.7326
 30
0.0
 11
160.163
 21
64.7319
 31
0.0
  0
LINE
  8
0
 62
     0
 10
141.113
 20
64.7319
 30
0.0
 11
155.113
 21
64.7319
 31
0.0
  0
LINE
  8
0
 62
     0
 10
155.113
 20
64.7319
 30
0.0
 11
155.113
 21
50.7326
 31
0.0
  0
LINE
  8
0
 62
     0
 10
155.113
 20
50.7326
 30
0.0
 11
141.113
 21
50.7326
 31
0.0
  0
LINE
  8
0
 62
     0
 10
141.113
 20
50.7326
 30
0.0
 11
141.113
 21
64.7319
 31
0.0
  0
LINE
  8
0
 62
     0
 10
122.063
 20
64.7319
 30
0.0
 11
136.063
 21
64.7319
 31
0.0
  0
LINE
  8
0
 62
     0
 10
136.063
 20
64.7319
 30
0.0
 11
136.063
 21
50.7326
 31
0.0
  0
LINE
  8
0
 62
     0
 10
136.063
 20
50.7326
 30
0.0
 11
122.063
 21
50.7326
 31
0.0
  0
LINE
  8
0
 62
     0
 10
122.063
 20
50.7326
 30
0.0
 11
122.063
 21
64.7319
 31
0.0
  0
LINE
  8
0
 62
     0
 10
103.013
 20
64.7319
 30
0.0
 11
117.013
 21
64.7319
 31
0.0
  0
LINE
  8
0
 62
     0
 10
117.013
 20
64.7319
 30
0.0
 11
117.013
 21
50.7326
 31
0.0
  0
LINE
  8
0
 62
     0
 10
117.013
 20
50.7326
 30
0.0
 11
103.013
 21
50.7326
 31
0.0
  0
LINE
  8
0
 62
     0
 10
103.013
 20
50.7326
 30
0.0
 11
103.013
 21
64.7319
 31
0.0
  0
LINE
  8
0
 62
     0
 10
83.9625
 20
64.7319
 30
0.0
 11
97.9632
 21
64.7319
 31
0.0
  0
LINE
  8
0
 62
     0
 10
97.9632
 20
64.7319
 30
0.0
 11
97.9632
 21
50.7326
 31
0.0
  0
LINE
  8
0
 62
     0
 10
97.9632
 20
50.7326
 30
0.0
 11
83.9625
 21
50.7326
 31
0.0
  0
LINE
  8
0
 62
     0
 10
83.9625
 20
50.7326
 30
0.0
 11
83.9625
 21
64.7319
 31
0.0
  0
LINE
  8
0
 62
     0
 10
64.9125
 20
64.7319
 30
0.0
 11
78.9132
 21
64.7319
 31
0.0
  0
LINE
  8
0
 62
     0
 10
78.9132
 20
64.7319
 30
0.0
 11
78.9132
 21
50.7326
 31
0.0
  0
LINE
  8
0
 62
     0
 10
78.9132
 20
50.7326
 30
0.0
 11
64.9125
 21
50.7326
 31
0.0
  0
LINE
  8
0
 62
     0
 10
64.9125
 20
50.7326
 30
0.0
 11
64.9125
 21
64.7319
 31
0.0
  0
LINE
  8
0
 62
     0
 10
45.8625
 20
64.7319
 30
0.0
 11
59.8632
 21
64.7319
 31
0.0
  0
LINE
  8
0
 62
     0
 10
59.8632
 20
64.7319
 30
0.0
 11
59.8632
 21
50.7326
 31
0.0
  0
LINE
  8
0
 62
     0
 10
59.8632
 20
50.7326
 30
0.0
 11
45.8625
 21
50.7326
 31
0.0
  0
LINE
  8
0
 62
     0
 10
45.8625
 20
50.7326
 30
0.0
 11
45.8625
 21
64.7319
 31
0.0
  0
LINE
  8
0
 62
     0
 10
19.6687
 20
64.7319
 30
0.0
 11
33.6696
 21
64.7319
 31
0.0
  0
LINE
  8
0
 62
     0
 10
33.6696
 20
64.7319
 30
0.0
 11
33.6696
 21
50.7326
 31
0.0
  0
LINE
  8
0
 62
     0
 10
33.6696
 20
50.7326
 30
0.0
 11
19.6687
 21
50.7326
 31
0.0
  0
LINE
  8
0
 62
     0
 10
19.6687
 20
50.7326
 30
0.0
 11
19.6687
 21
64.7319
 31
0.0
  0
LINE
  8
0
 62
     0
 10
283.344
 20
83.3575
 30
0.0
 11
283.344
 21
82.532
 31
0.0
  0
LINE
  8
0
 62
     0
 10
283.344
 20
82.532
 30
0.0
 11
277.074
 21
82.532
 31
0.0
  0
LINE
  8
0
 62
     0
 10
277.074
 20
82.532
 30
0.0
 11
277.074
 21
80.8069
 31
0.0
  0
LINE
  8
0
 62
     0
 10
277.074
 20
80.8069
 30
0.0
 11
276.094
 21
80.8069
 31
0.0
  0
LINE
  8
0
 62
     0
 10
276.094
 20
80.8069
 30
0.0
 11
276.094
 21
77.5077
 31
0.0
  0
LINE
  8
0
 62
     0
 10
276.094
 20
77.5077
 30
0.0
 11
277.074
 21
77.5077
 31
0.0
  0
LINE
  8
0
 62
     0
 10
277.074
 20
77.5077
 30
0.0
 11
277.074
 21
75.7823
 31
0.0
  0
LINE
  8
0
 62
     0
 10
277.074
 20
75.7823
 30
0.0
 11
281.544
 21
75.7823
 31
0.0
  0
LINE
  8
0
 62
     0
 10
281.544
 20
75.7823
 30
0.0
 11
281.544
 21
74.2569
 31
0.0
  0
LINE
  8
0
 62
     0
 10
281.544
 20
74.2569
 30
0.0
 11
276.844
 21
74.2569
 31
0.0
  0
LINE
  8
0
 62
     0
 10
276.844
 20
74.2569
 30
0.0
 11
276.844
 21
60.2576
 31
0.0
  0
LINE
  8
0
 62
     0
 10
276.844
 20
60.2576
 30
0.0
 11
281.544
 21
60.2576
 31
0.0
  0
LINE
  8
0
 62
     0
 10
281.544
 20
60.2576
 30
0.0
 11
281.544
 21
58.7319
 31
0.0
  0
LINE
  8
0
 62
     0
 10
281.544
 20
58.7319
 30
0.0
 11
277.074
 21
58.7319
 31
0.0
  0
LINE
  8
0
 62
     0
 10
277.074
 20
58.7319
 30
0.0
 11
277.074
 21
57.0068
 31
0.0
  0
LINE
  8
0
 62
     0
 10
277.074
 20
57.0068
 30
0.0
 11
276.094
 21
57.0068
 31
0.0
  0
LINE
  8
0
 62
     0
 10
276.094
 20
57.0068
 30
0.0
 11
276.094
 21
53.7076
 31
0.0
  0
LINE
  8
0
 62
     0
 10
276.094
 20
53.7076
 30
0.0
 11
277.074
 21
53.7076
 31
0.0
  0
LINE
  8
0
 62
     0
 10
277.074
 20
53.7076
 30
0.0
 11
277.074
 21
51.9825
 31
0.0
  0
LINE
  8
0
 62
     0
 10
277.074
 20
51.9825
 30
0.0
 11
283.344
 21
51.9825
 31
0.0
  0
LINE
  8
0
 62
     0
 10
283.344
 20
51.9825
 30
0.0
 11
283.344
 21
51.157
 31
0.0
  0
LINE
  8
0
 62
     0
 10
283.344
 20
51.157
 30
0.0
 11
286.144
 21
51.157
 31
0.0
  0
LINE
  8
0
 62
     0
 10
286.144
 20
51.157
 30
0.0
 11
286.144
 21
51.9825
 31
0.0
  0
LINE
  8
0
 62
     0
 10
286.144
 20
51.9825
 30
0.0
 11
289.374
 21
51.9825
 31
0.0
  0
LINE
  8
0
 62
     0
 10
289.374
 20
51.9825
 30
0.0
 11
289.374
 21
53.7076
 31
0.0
  0
LINE
  8
0
 62
     0
 10
289.374
 20
53.7076
 30
0.0
 11
290.293
 21
53.7076
 31
0.0
  0
LINE
  8
0
 62
     0
 10
290.293
 20
53.7076
 30
0.0
 11
290.293
 21
57.0068
 31
0.0
  0
LINE
  8
0
 62
     0
 10
290.293
 20
57.0068
 30
0.0
 11
289.374
 21
57.0068
 31
0.0
  0
LINE
  8
0
 62
     0
 10
289.374
 20
57.0068
 30
0.0
 11
289.374
 21
58.7319
 31
0.0
  0
LINE
  8
0
 62
     0
 10
289.374
 20
58.7319
 30
0.0
 11
286.144
 21
58.7319
 31
0.0
  0
LINE
  8
0
 62
     0
 10
286.144
 20
58.7319
 30
0.0
 11
286.144
 21
60.2576
 31
0.0
  0
LINE
  8
0
 62
     0
 10
286.144
 20
60.2576
 30
0.0
 11
290.844
 21
60.2576
 31
0.0
  0
LINE
  8
0
 62
     0
 10
290.844
 20
60.2576
 30
0.0
 11
290.844
 21
74.2569
 31
0.0
  0
LINE
  8
0
 62
     0
 10
290.844
 20
74.2569
 30
0.0
 11
286.144
 21
74.2569
 31
0.0
  0
LINE
  8
0
 62
     0
 10
286.144
 20
74.2569
 30
0.0
 11
286.144
 21
75.7823
 31
0.0
  0
LINE
  8
0
 62
     0
 10
286.144
 20
75.7823
 30
0.0
 11
289.374
 21
75.7823
 31
0.0
  0
LINE
  8
0
 62
     0
 10
289.374
 20
75.7823
 30
0.0
 11
289.374
 21
77.5077
 31
0.0
  0
LINE
  8
0
 62
     0
 10
289.374
 20
77.5077
 30
0.0
 11
290.293
 21
77.5077
 31
0.0
  0
LINE
  8
0
 62
     0
 10
290.293
 20
77.5077
 30
0.0
 11
290.293
 21
80.8069
 31
0.0
  0
LINE
  8
0
 62
     0
 10
290.293
 20
80.8069
 30
0.0
 11
289.374
 21
80.8069
 31
0.0
  0
LINE
  8
0
 62
     0
 10
289.374
 20
80.8069
 30
0.0
 11
289.374
 21
82.532
 31
0.0
  0
LINE
  8
0
 62
     0
 10
289.374
 20
82.532
 30
0.0
 11
286.144
 21
82.532
 31
0.0
  0
LINE
  8
0
 62
     0
 10
286.144
 20
82.532
 30
0.0
 11
286.144
 21
83.3575
 31
0.0
  0
LINE
  8
0
 62
     0
 10
286.144
 20
83.3575
 30
0.0
 11
283.344
 21
83.3575
 31
0.0
  0
LINE
  8
0
 62
     0
 10
7.17543
 20
58.7319
 30
0.0
 11
6.88329
 21
58.5819
 31
0.0
  0
LINE
  8
0
 62
     0
 10
6.88329
 20
58.5819
 30
0.0
 11
6.65043
 21
58.3487
 31
0.0
  0
LINE
  8
0
 62
     0
 10
6.65043
 20
58.3487
 30
0.0
 11
6.50159
 21
58.0566
 31
0.0
  0
LINE
  8
0
 62
     0
 10
6.50159
 20
58.0566
 30
0.0
 11
6.45061
 21
57.7328
 31
0.0
  0
LINE
  8
0
 62
     0
 10
6.45061
 20
57.7328
 30
0.0
 11
6.50159
 21
57.4075
 31
0.0
  0
LINE
  8
0
 62
     0
 10
6.50159
 20
57.4075
 30
0.0
 11
6.65043
 21
57.1154
 31
0.0
  0
LINE
  8
0
 62
     0
 10
6.65043
 20
57.1154
 30
0.0
 11
6.88329
 21
56.8826
 31
0.0
  0
LINE
  8
0
 62
     0
 10
6.88329
 20
56.8826
 30
0.0
 11
7.17543
 21
56.7337
 31
0.0
  0
LINE
  8
0
 62
     0
 10
7.17543
 20
56.7337
 30
0.0
 11
7.50066
 21
56.6829
 31
0.0
  0
LINE
  8
0
 62
     0
 10
7.50066
 20
56.6829
 30
0.0
 11
7.82451
 21
56.7337
 31
0.0
  0
LINE
  8
0
 62
     0
 10
7.82451
 20
56.7337
 30
0.0
 11
8.11802
 21
56.8826
 31
0.0
  0
LINE
  8
0
 62
     0
 10
8.11802
 20
56.8826
 30
0.0
 11
8.34954
 21
57.1154
 31
0.0
  0
LINE
  8
0
 62
     0
 10
8.34954
 20
57.1154
 30
0.0
 11
8.49835
 21
57.4075
 31
0.0
  0
LINE
  8
0
 62
     0
 10
8.49835
 20
57.4075
 30
0.0
 11
8.54936
 21
57.7328
 31
0.0
  0
LINE
  8
0
 62
     0
 10
8.54936
 20
57.7328
 30
0.0
 11
8.49835
 21
58.0566
 31
0.0
  0
LINE
  8
0
 62
     0
 10
8.49835
 20
58.0566
 30
0.0
 11
8.34954
 21
58.3487
 31
0.0
  0
LINE
  8
0
 62
     0
 10
8.34954
 20
58.3487
 30
0.0
 11
8.11802
 21
58.5819
 31
0.0
  0
LINE
  8
0
 62
     0
 10
8.11802
 20
58.5819
 30
0.0
 11
7.82451
 21
58.7319
 31
0.0
  0
LINE
  8
0
 62
     0
 10
7.82451
 20
58.7319
 30
0.0
 11
7.50066
 21
58.783
 31
0.0
  0
LINE
  8
0
 62
     0
 10
7.50066
 20
58.783
 30
0.0
 11
7.17543
 21
58.7319
 31
0.0
  0
LINE
  8
0
 62
     0
 10
340.79
 20
58.7319
 30
0.0
 11
340.497
 21
58.5819
 31
0.0
  0
LINE
  8
0
 62
     0
 10
340.497
 20
58.5819
 30
0.0
 11
340.265
 21
58.3487
 31
0.0
  0
LINE
  8
0
 62
     0
 10
340.265
 20
58.3487
 30
0.0
 11
340.115
 21
58.0566
 31
0.0
  0
LINE
  8
0
 62
     0
 10
340.115
 20
58.0566
 30
0.0
 11
340.064
 21
57.7328
 31
0.0
  0
LINE
  8
0
 62
     0
 10
340.064
 20
57.7328
 30
0.0
 11
340.115
 21
57.4075
 31
0.0
  0
LINE
  8
0
 62
     0
 10
340.115
 20
57.4075
 30
0.0
 11
340.265
 21
57.1154
 31
0.0
  0
LINE
  8
0
 62
     0
 10
340.265
 20
57.1154
 30
0.0
 11
340.497
 21
56.8826
 31
0.0
  0
LINE
  8
0
 62
     0
 10
340.497
 20
56.8826
 30
0.0
 11
340.79
 21
56.7337
 31
0.0
  0
LINE
  8
0
 62
     0
 10
340.79
 20
56.7337
 30
0.0
 11
341.114
 21
56.6829
 31
0.0
  0
LINE
  8
0
 62
     0
 10
341.114
 20
56.6829
 30
0.0
 11
341.438
 21
56.7337
 31
0.0
  0
LINE
  8
0
 62
     0
 10
341.438
 20
56.7337
 30
0.0
 11
341.732
 21
56.8826
 31
0.0
  0
LINE
  8
0
 62
     0
 10
341.732
 20
56.8826
 30
0.0
 11
341.963
 21
57.1154
 31
0.0
  0
LINE
  8
0
 62
     0
 10
341.963
 20
57.1154
 30
0.0
 11
342.113
 21
57.4075
 31
0.0
  0
LINE
  8
0
 62
     0
 10
342.113
 20
57.4075
 30
0.0
 11
342.164
 21
57.7328
 31
0.0
  0
LINE
  8
0
 62
     0
 10
342.164
 20
57.7328
 30
0.0
 11
342.113
 21
58.0566
 31
0.0
  0
LINE
  8
0
 62
     0
 10
342.113
 20
58.0566
 30
0.0
 11
341.963
 21
58.3487
 31
0.0
  0
LINE
  8
0
 62
     0
 10
341.963
 20
58.3487
 30
0.0
 11
341.732
 21
58.5819
 31
0.0
  0
LINE
  8
0
 62
     0
 10
341.732
 20
58.5819
 30
0.0
 11
341.438
 21
58.7319
 31
0.0
  0
LINE
  8
0
 62
     0
 10
341.438
 20
58.7319
 30
0.0
 11
341.114
 21
58.783
 31
0.0
  0
LINE
  8
0
 62
     0
 10
341.114
 20
58.783
 30
0.0
 11
340.79
 21
58.7319
 31
0.0
  0
LINE
  8
0
 62
     0
 10
322.088
 20
83.7819
 30
0.0
 11
336.088
 21
83.7819
 31
0.0
  0
LINE
  8
0
 62
     0
 10
336.088
 20
83.7819
 30
0.0
 11
336.088
 21
69.7826
 31
0.0
  0
LINE
  8
0
 62
     0
 10
336.088
 20
69.7826
 30
0.0
 11
322.088
 21
69.7826
 31
0.0
  0
LINE
  8
0
 62
     0
 10
322.088
 20
69.7826
 30
0.0
 11
322.088
 21
83.7819
 31
0.0
  0
LINE
  8
0
 62
     0
 10
303.038
 20
83.7819
 30
0.0
 11
317.038
 21
83.7819
 31
0.0
  0
LINE
  8
0
 62
     0
 10
317.038
 20
83.7819
 30
0.0
 11
317.038
 21
69.7826
 31
0.0
  0
LINE
  8
0
 62
     0
 10
317.038
 20
69.7826
 30
0.0
 11
303.038
 21
69.7826
 31
0.0
  0
LINE
  8
0
 62
     0
 10
303.038
 20
69.7826
 30
0.0
 11
303.038
 21
83.7819
 31
0.0
  0
LINE
  8
0
 62
     0
 10
250.651
 20
83.7819
 30
0.0
 11
264.651
 21
83.7819
 31
0.0
  0
LINE
  8
0
 62
     0
 10
264.651
 20
83.7819
 30
0.0
 11
264.651
 21
69.7826
 31
0.0
  0
LINE
  8
0
 62
     0
 10
264.651
 20
69.7826
 30
0.0
 11
250.651
 21
69.7826
 31
0.0
  0
LINE
  8
0
 62
     0
 10
250.651
 20
69.7826
 30
0.0
 11
250.651
 21
83.7819
 31
0.0
  0
LINE
  8
0
 62
     0
 10
231.601
 20
83.7819
 30
0.0
 11
245.601
 21
83.7819
 31
0.0
  0
LINE
  8
0
 62
     0
 10
245.601
 20
83.7819
 30
0.0
 11
245.601
 21
69.7826
 31
0.0
  0
LINE
  8
0
 62
     0
 10
245.601
 20
69.7826
 30
0.0
 11
231.601
 21
69.7826
 31
0.0
  0
LINE
  8
0
 62
     0
 10
231.601
 20
69.7826
 30
0.0
 11
231.601
 21
83.7819
 31
0.0
  0
LINE
  8
0
 62
     0
 10
212.551
 20
83.7819
 30
0.0
 11
226.551
 21
83.7819
 31
0.0
  0
LINE
  8
0
 62
     0
 10
226.551
 20
83.7819
 30
0.0
 11
226.551
 21
69.7826
 31
0.0
  0
LINE
  8
0
 62
     0
 10
226.551
 20
69.7826
 30
0.0
 11
212.551
 21
69.7826
 31
0.0
  0
LINE
  8
0
 62
     0
 10
212.551
 20
69.7826
 30
0.0
 11
212.551
 21
83.7819
 31
0.0
  0
LINE
  8
0
 62
     0
 10
193.501
 20
83.7819
 30
0.0
 11
207.501
 21
83.7819
 31
0.0
  0
LINE
  8
0
 62
     0
 10
207.501
 20
83.7819
 30
0.0
 11
207.501
 21
69.7826
 31
0.0
  0
LINE
  8
0
 62
     0
 10
207.501
 20
69.7826
 30
0.0
 11
193.501
 21
69.7826
 31
0.0
  0
LINE
  8
0
 62
     0
 10
193.501
 20
69.7826
 30
0.0
 11
193.501
 21
83.7819
 31
0.0
  0
LINE
  8
0
 62
     0
 10
174.451
 20
83.7819
 30
0.0
 11
188.451
 21
83.7819
 31
0.0
  0
LINE
  8
0
 62
     0
 10
188.451
 20
83.7819
 30
0.0
 11
188.451
 21
69.7826
 31
0.0
  0
LINE
  8
0
 62
     0
 10
188.451
 20
69.7826
 30
0.0
 11
174.451
 21
69.7826
 31
0.0
  0
LINE
  8
0
 62
     0
 10
174.451
 20
69.7826
 30
0.0
 11
174.451
 21
83.7819
 31
0.0
  0
LINE
  8
0
 62
     0
 10
155.401
 20
83.7819
 30
0.0
 11
169.401
 21
83.7819
 31
0.0
  0
LINE
  8
0
 62
     0
 10
169.401
 20
83.7819
 30
0.0
 11
169.401
 21
69.7826
 31
0.0
  0
LINE
  8
0
 62
     0
 10
169.401
 20
69.7826
 30
0.0
 11
155.401
 21
69.7826
 31
0.0
  0
LINE
  8
0
 62
     0
 10
155.401
 20
69.7826
 30
0.0
 11
155.401
 21
83.7819
 31
0.0
  0
LINE
  8
0
 62
     0
 10
136.351
 20
83.7819
 30
0.0
 11
150.351
 21
83.7819
 31
0.0
  0
LINE
  8
0
 62
     0
 10
150.351
 20
83.7819
 30
0.0
 11
150.351
 21
69.7826
 31
0.0
  0
LINE
  8
0
 62
     0
 10
150.351
 20
69.7826
 30
0.0
 11
136.351
 21
69.7826
 31
0.0
  0
LINE
  8
0
 62
     0
 10
136.351
 20
69.7826
 30
0.0
 11
136.351
 21
83.7819
 31
0.0
  0
LINE
  8
0
 62
     0
 10
117.301
 20
83.7819
 30
0.0
 11
131.301
 21
83.7819
 31
0.0
  0
LINE
  8
0
 62
     0
 10
131.301
 20
83.7819
 30
0.0
 11
131.301
 21
69.7826
 31
0.0
  0
LINE
  8
0
 62
     0
 10
131.301
 20
69.7826
 30
0.0
 11
117.301
 21
69.7826
 31
0.0
  0
LINE
  8
0
 62
     0
 10
117.301
 20
69.7826
 30
0.0
 11
117.301
 21
83.7819
 31
0.0
  0
LINE
  8
0
 62
     0
 10
98.2514
 20
83.7819
 30
0.0
 11
112.251
 21
83.7819
 31
0.0
  0
LINE
  8
0
 62
     0
 10
112.251
 20
83.7819
 30
0.0
 11
112.251
 21
69.7826
 31
0.0
  0
LINE
  8
0
 62
     0
 10
112.251
 20
69.7826
 30
0.0
 11
98.2514
 21
69.7826
 31
0.0
  0
LINE
  8
0
 62
     0
 10
98.2514
 20
69.7826
 30
0.0
 11
98.2514
 21
83.7819
 31
0.0
  0
LINE
  8
0
 62
     0
 10
79.2014
 20
83.7819
 30
0.0
 11
93.2007
 21
83.7819
 31
0.0
  0
LINE
  8
0
 62
     0
 10
93.2007
 20
83.7819
 30
0.0
 11
93.2007
 21
69.7826
 31
0.0
  0
LINE
  8
0
 62
     0
 10
93.2007
 20
69.7826
 30
0.0
 11
79.2014
 21
69.7826
 31
0.0
  0
LINE
  8
0
 62
     0
 10
79.2014
 20
69.7826
 30
0.0
 11
79.2014
 21
83.7819
 31
0.0
  0
LINE
  8
0
 62
     0
 10
60.1514
 20
83.7819
 30
0.0
 11
74.1507
 21
83.7819
 31
0.0
  0
LINE
  8
0
 62
     0
 10
74.1507
 20
83.7819
 30
0.0
 11
74.1507
 21
69.7826
 31
0.0
  0
LINE
  8
0
 62
     0
 10
74.1507
 20
69.7826
 30
0.0
 11
60.1514
 21
69.7826
 31
0.0
  0
LINE
  8
0
 62
     0
 10
60.1514
 20
69.7826
 30
0.0
 11
60.1514
 21
83.7819
 31
0.0
  0
LINE
  8
0
 62
     0
 10
41.1014
 20
83.7819
 30
0.0
 11
55.1007
 21
83.7819
 31
0.0
  0
LINE
  8
0
 62
     0
 10
55.1007
 20
83.7819
 30
0.0
 11
55.1007
 21
69.7826
 31
0.0
  0
LINE
  8
0
 62
     0
 10
55.1007
 20
69.7826
 30
0.0
 11
41.1014
 21
69.7826
 31
0.0
  0
LINE
  8
0
 62
     0
 10
41.1014
 20
69.7826
 30
0.0
 11
41.1014
 21
83.7819
 31
0.0
  0
LINE
  8
0
 62
     0
 10
17.2875
 20
83.7819
 30
0.0
 11
31.2884
 21
83.7819
 31
0.0
  0
LINE
  8
0
 62
     0
 10
31.2884
 20
83.7819
 30
0.0
 11
31.2884
 21
69.7826
 31
0.0
  0
LINE
  8
0
 62
     0
 10
31.2884
 20
69.7826
 30
0.0
 11
17.2875
 21
69.7826
 31
0.0
  0
LINE
  8
0
 62
     0
 10
17.2875
 20
69.7826
 30
0.0
 11
17.2875
 21
83.7819
 31
0.0
  0
LINE
  8
0
 62
     0
 10
269.701
 20
102.833
 30
0.0
 11
269.701
 21
98.1329
 31
0.0
  0
LINE
  8
0
 62
     0
 10
269.701
 20
98.1329
 30
0.0
 11
268.176
 21
98.1329
 31
0.0
  0
LINE
  8
0
 62
     0
 10
268.176
 20
98.1329
 30
0.0
 11
268.176
 21
101.363
 31
0.0
  0
LINE
  8
0
 62
     0
 10
268.176
 20
101.363
 30
0.0
 11
266.451
 21
101.363
 31
0.0
  0
LINE
  8
0
 62
     0
 10
266.451
 20
101.363
 30
0.0
 11
266.451
 21
102.282
 31
0.0
  0
LINE
  8
0
 62
     0
 10
266.451
 20
102.282
 30
0.0
 11
263.151
 21
102.282
 31
0.0
  0
LINE
  8
0
 62
     0
 10
263.151
 20
102.282
 30
0.0
 11
263.151
 21
101.363
 31
0.0
  0
LINE
  8
0
 62
     0
 10
263.151
 20
101.363
 30
0.0
 11
261.426
 21
101.363
 31
0.0
  0
LINE
  8
0
 62
     0
 10
261.426
 20
101.363
 30
0.0
 11
261.426
 21
98.1329
 31
0.0
  0
LINE
  8
0
 62
     0
 10
261.426
 20
98.1329
 30
0.0
 11
260.601
 21
98.1329
 31
0.0
  0
LINE
  8
0
 62
     0
 10
260.601
 20
98.1329
 30
0.0
 11
260.601
 21
95.3326
 31
0.0
  0
LINE
  8
0
 62
     0
 10
260.601
 20
95.3326
 30
0.0
 11
261.426
 21
95.3326
 31
0.0
  0
LINE
  8
0
 62
     0
 10
261.426
 20
95.3326
 30
0.0
 11
261.426
 21
89.064
 31
0.0
  0
LINE
  8
0
 62
     0
 10
261.426
 20
89.064
 30
0.0
 11
263.151
 21
89.064
 31
0.0
  0
LINE
  8
0
 62
     0
 10
263.151
 20
89.064
 30
0.0
 11
263.151
 21
88.083
 31
0.0
  0
LINE
  8
0
 62
     0
 10
263.151
 20
88.083
 30
0.0
 11
266.451
 21
88.083
 31
0.0
  0
LINE
  8
0
 62
     0
 10
266.451
 20
88.083
 30
0.0
 11
266.451
 21
89.064
 31
0.0
  0
LINE
  8
0
 62
     0
 10
266.451
 20
89.064
 30
0.0
 11
268.176
 21
89.064
 31
0.0
  0
LINE
  8
0
 62
     0
 10
268.176
 20
89.064
 30
0.0
 11
268.176
 21
93.533
 31
0.0
  0
LINE
  8
0
 62
     0
 10
268.176
 20
93.533
 30
0.0
 11
269.701
 21
93.533
 31
0.0
  0
LINE
  8
0
 62
     0
 10
269.701
 20
93.533
 30
0.0
 11
269.701
 21
88.8326
 31
0.0
  0
LINE
  8
0
 62
     0
 10
269.701
 20
88.8326
 30
0.0
 11
283.701
 21
88.8326
 31
0.0
  0
LINE
  8
0
 62
     0
 10
283.701
 20
88.8326
 30
0.0
 11
283.701
 21
93.533
 31
0.0
  0
LINE
  8
0
 62
     0
 10
283.701
 20
93.533
 30
0.0
 11
285.226
 21
93.533
 31
0.0
  0
LINE
  8
0
 62
     0
 10
285.226
 20
93.533
 30
0.0
 11
285.226
 21
89.064
 31
0.0
  0
LINE
  8
0
 62
     0
 10
285.226
 20
89.064
 30
0.0
 11
286.952
 21
89.064
 31
0.0
  0
LINE
  8
0
 62
     0
 10
286.952
 20
89.064
 30
0.0
 11
286.952
 21
88.083
 31
0.0
  0
LINE
  8
0
 62
     0
 10
286.952
 20
88.083
 30
0.0
 11
290.251
 21
88.083
 31
0.0
  0
LINE
  8
0
 62
     0
 10
290.251
 20
88.083
 30
0.0
 11
290.251
 21
89.064
 31
0.0
  0
LINE
  8
0
 62
     0
 10
290.251
 20
89.064
 30
0.0
 11
291.976
 21
89.064
 31
0.0
  0
LINE
  8
0
 62
     0
 10
291.976
 20
89.064
 30
0.0
 11
291.976
 21
95.3326
 31
0.0
  0
LINE
  8
0
 62
     0
 10
291.976
 20
95.3326
 30
0.0
 11
292.801
 21
95.3326
 31
0.0
  0
LINE
  8
0
 62
     0
 10
292.801
 20
95.3326
 30
0.0
 11
292.801
 21
98.1329
 31
0.0
  0
LINE
  8
0
 62
     0
 10
292.801
 20
98.1329
 30
0.0
 11
291.976
 21
98.1329
 31
0.0
  0
LINE
  8
0
 62
     0
 10
291.976
 20
98.1329
 30
0.0
 11
291.976
 21
101.363
 31
0.0
  0
LINE
  8
0
 62
     0
 10
291.976
 20
101.363
 30
0.0
 11
290.251
 21
101.363
 31
0.0
  0
LINE
  8
0
 62
     0
 10
290.251
 20
101.363
 30
0.0
 11
290.251
 21
102.282
 31
0.0
  0
LINE
  8
0
 62
     0
 10
290.251
 20
102.282
 30
0.0
 11
286.952
 21
102.282
 31
0.0
  0
LINE
  8
0
 62
     0
 10
286.952
 20
102.282
 30
0.0
 11
286.952
 21
101.363
 31
0.0
  0
LINE
  8
0
 62
     0
 10
286.952
 20
101.363
 30
0.0
 11
285.226
 21
101.363
 31
0.0
  0
LINE
  8
0
 62
     0
 10
285.226
 20
101.363
 30
0.0
 11
285.226
 21
98.1329
 31
0.0
  0
LINE
  8
0
 62
     0
 10
285.226
 20
98.1329
 30
0.0
 11
283.701
 21
98.1329
 31
0.0
  0
LINE
  8
0
 62
     0
 10
283.701
 20
98.1329
 30
0.0
 11
283.701
 21
102.833
 31
0.0
  0
LINE
  8
0
 62
     0
 10
283.701
 20
102.833
 30
0.0
 11
269.701
 21
102.833
 31
0.0
  0
LINE
  8
0
 62
     0
 10
322.088
 20
102.833
 30
0.0
 11
336.088
 21
102.833
 31
0.0
  0
LINE
  8
0
 62
     0
 10
336.088
 20
102.833
 30
0.0
 11
336.088
 21
88.8326
 31
0.0
  0
LINE
  8
0
 62
     0
 10
336.088
 20
88.8326
 30
0.0
 11
322.088
 21
88.8326
 31
0.0
  0
LINE
  8
0
 62
     0
 10
322.088
 20
88.8326
 30
0.0
 11
322.088
 21
102.833
 31
0.0
  0
LINE
  8
0
 62
     0
 10
303.038
 20
102.833
 30
0.0
 11
317.038
 21
102.833
 31
0.0
  0
LINE
  8
0
 62
     0
 10
317.038
 20
102.833
 30
0.0
 11
317.038
 21
88.8326
 31
0.0
  0
LINE
  8
0
 62
     0
 10
317.038
 20
88.8326
 30
0.0
 11
303.038
 21
88.8326
 31
0.0
  0
LINE
  8
0
 62
     0
 10
303.038
 20
88.8326
 30
0.0
 11
303.038
 21
102.833
 31
0.0
  0
LINE
  8
0
 62
     0
 10
241.126
 20
102.833
 30
0.0
 11
255.126
 21
102.833
 31
0.0
  0
LINE
  8
0
 62
     0
 10
255.126
 20
102.833
 30
0.0
 11
255.126
 21
88.8326
 31
0.0
  0
LINE
  8
0
 62
     0
 10
255.126
 20
88.8326
 30
0.0
 11
241.126
 21
88.8326
 31
0.0
  0
LINE
  8
0
 62
     0
 10
241.126
 20
88.8326
 30
0.0
 11
241.126
 21
102.833
 31
0.0
  0
LINE
  8
0
 62
     0
 10
222.076
 20
102.833
 30
0.0
 11
236.076
 21
102.833
 31
0.0
  0
LINE
  8
0
 62
     0
 10
236.076
 20
102.833
 30
0.0
 11
236.076
 21
88.8326
 31
0.0
  0
LINE
  8
0
 62
     0
 10
236.076
 20
88.8326
 30
0.0
 11
222.076
 21
88.8326
 31
0.0
  0
LINE
  8
0
 62
     0
 10
222.076
 20
88.8326
 30
0.0
 11
222.076
 21
102.833
 31
0.0
  0
LINE
  8
0
 62
     0
 10
203.026
 20
102.833
 30
0.0
 11
217.026
 21
102.833
 31
0.0
  0
LINE
  8
0
 62
     0
 10
217.026
 20
102.833
 30
0.0
 11
217.026
 21
88.8326
 31
0.0
  0
LINE
  8
0
 62
     0
 10
217.026
 20
88.8326
 30
0.0
 11
203.026
 21
88.8326
 31
0.0
  0
LINE
  8
0
 62
     0
 10
203.026
 20
88.8326
 30
0.0
 11
203.026
 21
102.833
 31
0.0
  0
LINE
  8
0
 62
     0
 10
183.976
 20
102.833
 30
0.0
 11
197.976
 21
102.833
 31
0.0
  0
LINE
  8
0
 62
     0
 10
197.976
 20
102.833
 30
0.0
 11
197.976
 21
88.8326
 31
0.0
  0
LINE
  8
0
 62
     0
 10
197.976
 20
88.8326
 30
0.0
 11
183.976
 21
88.8326
 31
0.0
  0
LINE
  8
0
 62
     0
 10
183.976
 20
88.8326
 30
0.0
 11
183.976
 21
102.833
 31
0.0
  0
LINE
  8
0
 62
     0
 10
164.926
 20
102.833
 30
0.0
 11
178.926
 21
102.833
 31
0.0
  0
LINE
  8
0
 62
     0
 10
178.926
 20
102.833
 30
0.0
 11
178.926
 21
88.8326
 31
0.0
  0
LINE
  8
0
 62
     0
 10
178.926
 20
88.8326
 30
0.0
 11
164.926
 21
88.8326
 31
0.0
  0
LINE
  8
0
 62
     0
 10
164.926
 20
88.8326
 30
0.0
 11
164.926
 21
102.833
 31
0.0
  0
LINE
  8
0
 62
     0
 10
145.876
 20
102.833
 30
0.0
 11
159.876
 21
102.833
 31
0.0
  0
LINE
  8
0
 62
     0
 10
159.876
 20
102.833
 30
0.0
 11
159.876
 21
88.8326
 31
0.0
  0
LINE
  8
0
 62
     0
 10
159.876
 20
88.8326
 30
0.0
 11
145.876
 21
88.8326
 31
0.0
  0
LINE
  8
0
 62
     0
 10
145.876
 20
88.8326
 30
0.0
 11
145.876
 21
102.833
 31
0.0
  0
LINE
  8
0
 62
     0
 10
126.825
 20
102.833
 30
0.0
 11
140.826
 21
102.833
 31
0.0
  0
LINE
  8
0
 62
     0
 10
140.826
 20
102.833
 30
0.0
 11
140.826
 21
88.8326
 31
0.0
  0
LINE
  8
0
 62
     0
 10
140.826
 20
88.8326
 30
0.0
 11
126.825
 21
88.8326
 31
0.0
  0
LINE
  8
0
 62
     0
 10
126.825
 20
88.8326
 30
0.0
 11
126.825
 21
102.833
 31
0.0
  0
LINE
  8
0
 62
     0
 10
107.775
 20
102.833
 30
0.0
 11
121.775
 21
102.833
 31
0.0
  0
LINE
  8
0
 62
     0
 10
121.775
 20
102.833
 30
0.0
 11
121.775
 21
88.8326
 31
0.0
  0
LINE
  8
0
 62
     0
 10
121.775
 20
88.8326
 30
0.0
 11
107.775
 21
88.8326
 31
0.0
  0
LINE
  8
0
 62
     0
 10
107.775
 20
88.8326
 30
0.0
 11
107.775
 21
102.833
 31
0.0
  0
LINE
  8
0
 62
     0
 10
88.7264
 20
102.833
 30
0.0
 11
102.726
 21
102.833
 31
0.0
  0
LINE
  8
0
 62
     0
 10
102.726
 20
102.833
 30
0.0
 11
102.726
 21
88.8326
 31
0.0
  0
LINE
  8
0
 62
     0
 10
102.726
 20
88.8326
 30
0.0
 11
88.7264
 21
88.8326
 31
0.0
  0
LINE
  8
0
 62
     0
 10
88.7264
 20
88.8326
 30
0.0
 11
88.7264
 21
102.833
 31
0.0
  0
LINE
  8
0
 62
     0
 10
69.6764
 20
102.833
 30
0.0
 11
83.6757
 21
102.833
 31
0.0
  0
LINE
  8
0
 62
     0
 10
83.6757
 20
102.833
 30
0.0
 11
83.6757
 21
88.8326
 31
0.0
  0
LINE
  8
0
 62
     0
 10
83.6757
 20
88.8326
 30
0.0
 11
69.6764
 21
88.8326
 31
0.0
  0
LINE
  8
0
 62
     0
 10
69.6764
 20
88.8326
 30
0.0
 11
69.6764
 21
102.833
 31
0.0
  0
LINE
  8
0
 62
     0
 10
50.6264
 20
102.833
 30
0.0
 11
64.6257
 21
102.833
 31
0.0
  0
LINE
  8
0
 62
     0
 10
64.6257
 20
102.833
 30
0.0
 11
64.6257
 21
88.8326
 31
0.0
  0
LINE
  8
0
 62
     0
 10
64.6257
 20
88.8326
 30
0.0
 11
50.6264
 21
88.8326
 31
0.0
  0
LINE
  8
0
 62
     0
 10
50.6264
 20
88.8326
 30
0.0
 11
50.6264
 21
102.833
 31
0.0
  0
LINE
  8
0
 62
     0
 10
31.5764
 20
102.833
 30
0.0
 11
45.5757
 21
102.833
 31
0.0
  0
LINE
  8
0
 62
     0
 10
45.5757
 20
102.833
 30
0.0
 11
45.5757
 21
88.8326
 31
0.0
  0
LINE
  8
0
 62
     0
 10
45.5757
 20
88.8326
 30
0.0
 11
31.5764
 21
88.8326
 31
0.0
  0
LINE
  8
0
 62
     0
 10
31.5764
 20
88.8326
 30
0.0
 11
31.5764
 21
102.833
 31
0.0
  0
LINE
  8
0
 62
     0
 10
12.525
 20
102.833
 30
0.0
 11
26.5259
 21
102.833
 31
0.0
  0
LINE
  8
0
 62
     0
 10
26.5259
 20
102.833
 30
0.0
 11
26.5259
 21
88.8326
 31
0.0
  0
LINE
  8
0
 62
     0
 10
26.5259
 20
88.8326
 30
0.0
 11
12.525
 21
88.8326
 31
0.0
  0
LINE
  8
0
 62
     0
 10
12.525
 20
88.8326
 30
0.0
 11
12.525
 21
102.833
 31
0.0
  0
LINE
  8
0
 62
     0
 10
7.17543
 20
108.857
 30
0.0
 11
6.88329
 21
108.708
 31
0.0
  0
LINE
  8
0
 62
     0
 10
6.88329
 20
108.708
 30
0.0
 11
6.65043
 21
108.475
 31
0.0
  0
LINE
  8
0
 62
     0
 10
6.65043
 20
108.475
 30
0.0
 11
6.50159
 21
108.183
 31
0.0
  0
LINE
  8
0
 62
     0
 10
6.50159
 20
108.183
 30
0.0
 11
6.45061
 21
107.858
 31
0.0
  0
LINE
  8
0
 62
     0
 10
6.45061
 20
107.858
 30
0.0
 11
6.50159
 21
107.534
 31
0.0
  0
LINE
  8
0
 62
     0
 10
6.50159
 20
107.534
 30
0.0
 11
6.65043
 21
107.24
 31
0.0
  0
LINE
  8
0
 62
     0
 10
6.65043
 20
107.24
 30
0.0
 11
6.88329
 21
107.009
 31
0.0
  0
LINE
  8
0
 62
     0
 10
6.88329
 20
107.009
 30
0.0
 11
7.17543
 21
106.86
 31
0.0
  0
LINE
  8
0
 62
     0
 10
7.17543
 20
106.86
 30
0.0
 11
7.50066
 21
106.808
 31
0.0
  0
LINE
  8
0
 62
     0
 10
7.50066
 20
106.808
 30
0.0
 11
7.82451
 21
106.86
 31
0.0
  0
LINE
  8
0
 62
     0
 10
7.82451
 20
106.86
 30
0.0
 11
8.11802
 21
107.009
 31
0.0
  0
LINE
  8
0
 62
     0
 10
8.11802
 20
107.009
 30
0.0
 11
8.34954
 21
107.24
 31
0.0
  0
LINE
  8
0
 62
     0
 10
8.34954
 20
107.24
 30
0.0
 11
8.49835
 21
107.534
 31
0.0
  0
LINE
  8
0
 62
     0
 10
8.49835
 20
107.534
 30
0.0
 11
8.54936
 21
107.858
 31
0.0
  0
LINE
  8
0
 62
     0
 10
8.54936
 20
107.858
 30
0.0
 11
8.49835
 21
108.183
 31
0.0
  0
LINE
  8
0
 62
     0
 10
8.49835
 20
108.183
 30
0.0
 11
8.34954
 21
108.475
 31
0.0
  0
LINE
  8
0
 62
     0
 10
8.34954
 20
108.475
 30
0.0
 11
8.11802
 21
108.708
 31
0.0
  0
LINE
  8
0
 62
     0
 10
8.11802
 20
108.708
 30
0.0
 11
7.82451
 21
108.857
 31
0.0
  0
LINE
  8
0
 62
     0
 10
7.82451
 20
108.857
 30
0.0
 11
7.50066
 21
108.908
 31
0.0
  0
LINE
  8
0
 62
     0
 10
7.50066
 20
108.908
 30
0.0
 11
7.17543
 21
108.857
 31
0.0
  0
LINE
  8
0
 62
     0
 10
340.79
 20
108.857
 30
0.0
 11
340.497
 21
108.708
 31
0.0
  0
LINE
  8
0
 62
     0
 10
340.497
 20
108.708
 30
0.0
 11
340.265
 21
108.475
 31
0.0
  0
LINE
  8
0
 62
     0
 10
340.265
 20
108.475
 30
0.0
 11
340.115
 21
108.183
 31
0.0
  0
LINE
  8
0
 62
     0
 10
340.115
 20
108.183
 30
0.0
 11
340.064
 21
107.858
 31
0.0
  0
LINE
  8
0
 62
     0
 10
340.064
 20
107.858
 30
0.0
 11
340.115
 21
107.534
 31
0.0
  0
LINE
  8
0
 62
     0
 10
340.115
 20
107.534
 30
0.0
 11
340.265
 21
107.24
 31
0.0
  0
LINE
  8
0
 62
     0
 10
340.265
 20
107.24
 30
0.0
 11
340.497
 21
107.009
 31
0.0
  0
LINE
  8
0
 62
     0
 10
340.497
 20
107.009
 30
0.0
 11
340.79
 21
106.86
 31
0.0
  0
LINE
  8
0
 62
     0
 10
340.79
 20
106.86
 30
0.0
 11
341.114
 21
106.808
 31
0.0
  0
LINE
  8
0
 62
     0
 10
341.114
 20
106.808
 30
0.0
 11
341.438
 21
106.86
 31
0.0
  0
LINE
  8
0
 62
     0
 10
341.438
 20
106.86
 30
0.0
 11
341.732
 21
107.009
 31
0.0
  0
LINE
  8
0
 62
     0
 10
341.732
 20
107.009
 30
0.0
 11
341.963
 21
107.24
 31
0.0
  0
LINE
  8
0
 62
     0
 10
341.963
 20
107.24
 30
0.0
 11
342.113
 21
107.534
 31
0.0
  0
LINE
  8
0
 62
     0
 10
342.113
 20
107.534
 30
0.0
 11
342.164
 21
107.858
 31
0.0
  0
LINE
  8
0
 62
     0
 10
342.164
 20
107.858
 30
0.0
 11
342.113
 21
108.183
 31
0.0
  0
LINE
  8
0
 62
     0
 10
342.113
 20
108.183
 30
0.0
 11
341.963
 21
108.475
 31
0.0
  0
LINE
  8
0
 62
     0
 10
341.963
 20
108.475
 30
0.0
 11
341.732
 21
108.708
 31
0.0
  0
LINE
  8
0
 62
     0
 10
341.732
 20
108.708
 30
0.0
 11
341.438
 21
108.857
 31
0.0
  0
LINE
  8
0
 62
     0
 10
341.438
 20
108.857
 30
0.0
 11
341.114
 21
108.908
 31
0.0
  0
LINE
  8
0
 62
     0
 10
341.114
 20
108.908
 30
0.0
 11
340.79
 21
108.857
 31
0.0
  0
LINE
  8
0
 62
     0
 10
257.386
 20
108.857
 30
0.0
 11
257.092
 21
108.708
 31
0.0
  0
LINE
  8
0
 62
     0
 10
257.092
 20
108.708
 30
0.0
 11
256.861
 21
108.475
 31
0.0
  0
LINE
  8
0
 62
     0
 10
256.861
 20
108.475
 30
0.0
 11
256.712
 21
108.183
 31
0.0
  0
LINE
  8
0
 62
     0
 10
256.712
 20
108.183
 30
0.0
 11
256.661
 21
107.858
 31
0.0
  0
LINE
  8
0
 62
     0
 10
256.661
 20
107.858
 30
0.0
 11
256.712
 21
107.534
 31
0.0
  0
LINE
  8
0
 62
     0
 10
256.712
 20
107.534
 30
0.0
 11
256.861
 21
107.24
 31
0.0
  0
LINE
  8
0
 62
     0
 10
256.861
 20
107.24
 30
0.0
 11
257.092
 21
107.009
 31
0.0
  0
LINE
  8
0
 62
     0
 10
257.092
 20
107.009
 30
0.0
 11
257.386
 21
106.86
 31
0.0
  0
LINE
  8
0
 62
     0
 10
257.386
 20
106.86
 30
0.0
 11
257.71
 21
106.808
 31
0.0
  0
LINE
  8
0
 62
     0
 10
257.71
 20
106.808
 30
0.0
 11
258.035
 21
106.86
 31
0.0
  0
LINE
  8
0
 62
     0
 10
258.035
 20
106.86
 30
0.0
 11
258.329
 21
107.009
 31
0.0
  0
LINE
  8
0
 62
     0
 10
258.329
 20
107.009
 30
0.0
 11
258.56
 21
107.24
 31
0.0
  0
LINE
  8
0
 62
     0
 10
258.56
 20
107.24
 30
0.0
 11
258.709
 21
107.534
 31
0.0
  0
LINE
  8
0
 62
     0
 10
258.709
 20
107.534
 30
0.0
 11
258.761
 21
107.858
 31
0.0
  0
LINE
  8
0
 62
     0
 10
258.761
 20
107.858
 30
0.0
 11
258.709
 21
108.183
 31
0.0
  0
LINE
  8
0
 62
     0
 10
258.709
 20
108.183
 30
0.0
 11
258.56
 21
108.475
 31
0.0
  0
LINE
  8
0
 62
     0
 10
258.56
 20
108.475
 30
0.0
 11
258.329
 21
108.708
 31
0.0
  0
LINE
  8
0
 62
     0
 10
258.329
 20
108.708
 30
0.0
 11
258.035
 21
108.857
 31
0.0
  0
LINE
  8
0
 62
     0
 10
258.035
 20
108.857
 30
0.0
 11
257.71
 21
108.908
 31
0.0
  0
LINE
  8
0
 62
     0
 10
257.71
 20
108.908
 30
0.0
 11
257.386
 21
108.857
 31
0.0
  0
LINE
  8
0
 62
     0
 10
173.983
 20
108.857
 30
0.0
 11
173.689
 21
108.708
 31
0.0
  0
LINE
  8
0
 62
     0
 10
173.689
 20
108.708
 30
0.0
 11
173.458
 21
108.475
 31
0.0
  0
LINE
  8
0
 62
     0
 10
173.458
 20
108.475
 30
0.0
 11
173.309
 21
108.183
 31
0.0
  0
LINE
  8
0
 62
     0
 10
173.309
 20
108.183
 30
0.0
 11
173.257
 21
107.858
 31
0.0
  0
LINE
  8
0
 62
     0
 10
173.257
 20
107.858
 30
0.0
 11
173.309
 21
107.534
 31
0.0
  0
LINE
  8
0
 62
     0
 10
173.309
 20
107.534
 30
0.0
 11
173.458
 21
107.24
 31
0.0
  0
LINE
  8
0
 62
     0
 10
173.458
 20
107.24
 30
0.0
 11
173.689
 21
107.009
 31
0.0
  0
LINE
  8
0
 62
     0
 10
173.689
 20
107.009
 30
0.0
 11
173.983
 21
106.86
 31
0.0
  0
LINE
  8
0
 62
     0
 10
173.983
 20
106.86
 30
0.0
 11
174.307
 21
106.808
 31
0.0
  0
LINE
  8
0
 62
     0
 10
174.307
 20
106.808
 30
0.0
 11
174.632
 21
106.86
 31
0.0
  0
LINE
  8
0
 62
     0
 10
174.632
 20
106.86
 30
0.0
 11
174.924
 21
107.009
 31
0.0
  0
LINE
  8
0
 62
     0
 10
174.924
 20
107.009
 30
0.0
 11
175.157
 21
107.24
 31
0.0
  0
LINE
  8
0
 62
     0
 10
175.157
 20
107.24
 30
0.0
 11
175.306
 21
107.534
 31
0.0
  0
LINE
  8
0
 62
     0
 10
175.306
 20
107.534
 30
0.0
 11
175.357
 21
107.858
 31
0.0
  0
LINE
  8
0
 62
     0
 10
175.357
 20
107.858
 30
0.0
 11
175.306
 21
108.183
 31
0.0
  0
LINE
  8
0
 62
     0
 10
175.306
 20
108.183
 30
0.0
 11
175.157
 21
108.475
 31
0.0
  0
LINE
  8
0
 62
     0
 10
175.157
 20
108.475
 30
0.0
 11
174.924
 21
108.708
 31
0.0
  0
LINE
  8
0
 62
     0
 10
174.924
 20
108.708
 30
0.0
 11
174.632
 21
108.857
 31
0.0
  0
LINE
  8
0
 62
     0
 10
174.632
 20
108.857
 30
0.0
 11
174.307
 21
108.908
 31
0.0
  0
LINE
  8
0
 62
     0
 10
174.307
 20
108.908
 30
0.0
 11
173.983
 21
108.857
 31
0.0
  0
LINE
  8
0
 62
     0
 10
90.5785
 20
108.857
 30
0.0
 11
90.2878
 21
108.708
 31
0.0
  0
LINE
  8
0
 62
     0
 10
90.2878
 20
108.708
 30
0.0
 11
90.0536
 21
108.475
 31
0.0
  0
LINE
  8
0
 62
     0
 10
90.0536
 20
108.475
 30
0.0
 11
89.9047
 21
108.183
 31
0.0
  0
LINE
  8
0
 62
     0
 10
89.9047
 20
108.183
 30
0.0
 11
89.8536
 21
107.858
 31
0.0
  0
LINE
  8
0
 62
     0
 10
89.8536
 20
107.858
 30
0.0
 11
89.9047
 21
107.534
 31
0.0
  0
LINE
  8
0
 62
     0
 10
89.9047
 20
107.534
 30
0.0
 11
90.0536
 21
107.24
 31
0.0
  0
LINE
  8
0
 62
     0
 10
90.0536
 20
107.24
 30
0.0
 11
90.2878
 21
107.009
 31
0.0
  0
LINE
  8
0
 62
     0
 10
90.2878
 20
107.009
 30
0.0
 11
90.5785
 21
106.86
 31
0.0
  0
LINE
  8
0
 62
     0
 10
90.5785
 20
106.86
 30
0.0
 11
90.9038
 21
106.808
 31
0.0
  0
LINE
  8
0
 62
     0
 10
90.9038
 20
106.808
 30
0.0
 11
91.2276
 21
106.86
 31
0.0
  0
LINE
  8
0
 62
     0
 10
91.2276
 20
106.86
 30
0.0
 11
91.5211
 21
107.009
 31
0.0
  0
LINE
  8
0
 62
     0
 10
91.5211
 20
107.009
 30
0.0
 11
91.7526
 21
107.24
 31
0.0
  0
LINE
  8
0
 62
     0
 10
91.7526
 20
107.24
 30
0.0
 11
91.9014
 21
107.534
 31
0.0
  0
LINE
  8
0
 62
     0
 10
91.9014
 20
107.534
 30
0.0
 11
91.9536
 21
107.858
 31
0.0
  0
LINE
  8
0
 62
     0
 10
91.9536
 20
107.858
 30
0.0
 11
91.9014
 21
108.183
 31
0.0
  0
LINE
  8
0
 62
     0
 10
91.9014
 20
108.183
 30
0.0
 11
91.7526
 21
108.475
 31
0.0
  0
LINE
  8
0
 62
     0
 10
91.7526
 20
108.475
 30
0.0
 11
91.5211
 21
108.708
 31
0.0
  0
LINE
  8
0
 62
     0
 10
91.5211
 20
108.708
 30
0.0
 11
91.2276
 21
108.857
 31
0.0
  0
LINE
  8
0
 62
     0
 10
91.2276
 20
108.857
 30
0.0
 11
90.9038
 21
108.908
 31
0.0
  0
LINE
  8
0
 62
     0
 10
90.9038
 20
108.908
 30
0.0
 11
90.5785
 21
108.857
 31
0.0
  0
ENDSEC
  0
EOF
