  0
SECTION
  2
HEADER
  9
$ACADVER
  1
AC1009
  9
$EXTMIN
 10
0.0
 20
0.0
 30
0.0
  9
$EXTMAX
 10
1000.0
 20
1000.0
 30
0.0
  9
$FILLMODE
 70
 0
  9
$SPLFRAME
 70
 1
  0
ENDSEC
  0
SECTION
  2
TABLES
  0
TABLE
  2
LAYER
 70
1
  0
LAYER
  2
0
 70
     0
 62
     7
  6
CONTINUOUS
  0
ENDTAB
  0
ENDSEC
  0
SECTION
  2
ENTITIES
  0
LINE
  8
0
 62
     0
 10
343.709
 20
115.616
 30
0.0
 11
344.1
 21
115.601
 31
0.0
  0
LINE
  8
0
 62
     0
 10
344.1
 20
115.601
 30
0.0
 11
344.49
 21
115.554
 31
0.0
  0
LINE
  8
0
 62
     0
 10
344.49
 20
115.554
 30
0.0
 11
344.876
 21
115.478
 31
0.0
  0
LINE
  8
0
 62
     0
 10
344.876
 20
115.478
 30
0.0
 11
345.254
 21
115.372
 31
0.0
  0
LINE
  8
0
 62
     0
 10
345.254
 20
115.372
 30
0.0
 11
345.622
 21
115.236
 31
0.0
  0
LINE
  8
0
 62
     0
 10
345.622
 20
115.236
 30
0.0
 11
345.979
 21
115.072
 31
0.0
  0
LINE
  8
0
 62
     0
 10
345.979
 20
115.072
 30
0.0
 11
346.32
 21
114.88
 31
0.0
  0
LINE
  8
0
 62
     0
 10
346.32
 20
114.88
 30
0.0
 11
346.647
 21
114.661
 31
0.0
  0
LINE
  8
0
 62
     0
 10
346.647
 20
114.661
 30
0.0
 11
346.956
 21
114.419
 31
0.0
  0
LINE
  8
0
 62
     0
 10
346.956
 20
114.419
 30
0.0
 11
347.245
 21
114.151
 31
0.0
  0
LINE
  8
0
 62
     0
 10
347.245
 20
114.151
 30
0.0
 11
347.511
 21
113.863
 31
0.0
  0
LINE
  8
0
 62
     0
 10
347.511
 20
113.863
 30
0.0
 11
347.754
 21
113.555
 31
0.0
  0
LINE
  8
0
 62
     0
 10
347.754
 20
113.555
 30
0.0
 11
347.971
 21
113.229
 31
0.0
  0
LINE
  8
0
 62
     0
 10
347.971
 20
113.229
 30
0.0
 11
348.164
 21
112.886
 31
0.0
  0
LINE
  8
0
 62
     0
 10
348.164
 20
112.886
 30
0.0
 11
348.328
 21
112.529
 31
0.0
  0
LINE
  8
0
 62
     0
 10
348.328
 20
112.529
 30
0.0
 11
348.463
 21
112.161
 31
0.0
  0
LINE
  8
0
 62
     0
 10
348.463
 20
112.161
 30
0.0
 11
348.571
 21
111.784
 31
0.0
  0
LINE
  8
0
 62
     0
 10
348.571
 20
111.784
 30
0.0
 11
348.646
 21
111.399
 31
0.0
  0
LINE
  8
0
 62
     0
 10
348.646
 20
111.399
 30
0.0
 11
348.693
 21
111.009
 31
0.0
  0
LINE
  8
0
 62
     0
 10
348.693
 20
111.009
 30
0.0
 11
348.708
 21
110.615
 31
0.0
  0
LINE
  8
0
 62
     0
 10
348.708
 20
110.615
 30
0.0
 11
348.708
 21
5.36607
 31
0.0
  0
LINE
  8
0
 62
     0
 10
348.708
 20
5.36607
 30
0.0
 11
348.693
 21
4.97198
 31
0.0
  0
LINE
  8
0
 62
     0
 10
348.693
 20
4.97198
 30
0.0
 11
348.646
 21
4.58198
 31
0.0
  0
LINE
  8
0
 62
     0
 10
348.646
 20
4.58198
 30
0.0
 11
348.571
 21
4.19749
 31
0.0
  0
LINE
  8
0
 62
     0
 10
348.571
 20
4.19749
 30
0.0
 11
348.463
 21
3.81991
 31
0.0
  0
LINE
  8
0
 62
     0
 10
348.463
 20
3.81991
 30
0.0
 11
348.328
 21
3.45199
 31
0.0
  0
LINE
  8
0
 62
     0
 10
348.328
 20
3.45199
 30
0.0
 11
348.164
 21
3.09507
 31
0.0
  0
LINE
  8
0
 62
     0
 10
348.164
 20
3.09507
 30
0.0
 11
347.971
 21
2.75194
 31
0.0
  0
LINE
  8
0
 62
     0
 10
347.971
 20
2.75194
 30
0.0
 11
347.754
 21
2.42673
 31
0.0
  0
LINE
  8
0
 62
     0
 10
347.754
 20
2.42673
 30
0.0
 11
347.511
 21
2.11805
 31
0.0
  0
LINE
  8
0
 62
     0
 10
347.511
 20
2.11805
 30
0.0
 11
347.245
 21
1.83003
 31
0.0
  0
LINE
  8
0
 62
     0
 10
347.245
 20
1.83003
 30
0.0
 11
346.956
 21
1.5627
 31
0.0
  0
LINE
  8
0
 62
     0
 10
346.956
 20
1.5627
 30
0.0
 11
346.647
 21
1.32016
 31
0.0
  0
LINE
  8
0
 62
     0
 10
346.647
 20
1.32016
 30
0.0
 11
346.32
 21
1.10105
 31
0.0
  0
LINE
  8
0
 62
     0
 10
346.32
 20
1.10105
 30
0.0
 11
345.979
 21
0.909507
 31
0.0
  0
LINE
  8
0
 62
     0
 10
345.979
 20
0.909507
 30
0.0
 11
345.622
 21
0.745518
 31
0.0
  0
LINE
  8
0
 62
     0
 10
345.622
 20
0.745518
 30
0.0
 11
345.254
 21
0.609092
 31
0.0
  0
LINE
  8
0
 62
     0
 10
345.254
 20
0.609092
 30
0.0
 11
344.876
 21
0.502984
 31
0.0
  0
LINE
  8
0
 62
     0
 10
344.876
 20
0.502984
 30
0.0
 11
344.49
 21
0.427193
 31
0.0
  0
LINE
  8
0
 62
     0
 10
344.49
 20
0.427193
 30
0.0
 11
344.1
 21
0.38034
 31
0.0
  0
LINE
  8
0
 62
     0
 10
344.1
 20
0.38034
 30
0.0
 11
343.709
 21
0.365181
 31
0.0
  0
LINE
  8
0
 62
     0
 10
343.709
 20
0.365181
 30
0.0
 11
5.09598
 21
0.365181
 31
0.0
  0
LINE
  8
0
 62
     0
 10
5.09598
 20
0.365181
 30
0.0
 11
4.70186
 21
0.38034
 31
0.0
  0
LINE
  8
0
 62
     0
 10
4.70186
 20
0.38034
 30
0.0
 11
4.3119
 21
0.427193
 31
0.0
  0
LINE
  8
0
 62
     0
 10
4.3119
 20
0.427193
 30
0.0
 11
3.9274
 21
0.502984
 31
0.0
  0
LINE
  8
0
 62
     0
 10
3.9274
 20
0.502984
 30
0.0
 11
3.54983
 21
0.609092
 31
0.0
  0
LINE
  8
0
 62
     0
 10
3.54983
 20
0.609092
 30
0.0
 11
3.18189
 21
0.745518
 31
0.0
  0
LINE
  8
0
 62
     0
 10
3.18189
 20
0.745518
 30
0.0
 11
2.82498
 21
0.909507
 31
0.0
  0
LINE
  8
0
 62
     0
 10
2.82498
 20
0.909507
 30
0.0
 11
2.48185
 21
1.10105
 31
0.0
  0
LINE
  8
0
 62
     0
 10
2.48185
 20
1.10105
 30
0.0
 11
2.15663
 21
1.32016
 31
0.0
  0
LINE
  8
0
 62
     0
 10
2.15663
 20
1.32016
 30
0.0
 11
1.84795
 21
1.5627
 31
0.0
  0
LINE
  8
0
 62
     0
 10
1.84795
 20
1.5627
 30
0.0
 11
1.55994
 21
1.83003
 31
0.0
  0
LINE
  8
0
 62
     0
 10
1.55994
 20
1.83003
 30
0.0
 11
1.2926
 21
2.11805
 31
0.0
  0
LINE
  8
0
 62
     0
 10
1.2926
 20
2.11805
 30
0.0
 11
1.05006
 21
2.42673
 31
0.0
  0
LINE
  8
0
 62
     0
 10
1.05006
 20
2.42673
 30
0.0
 11
0.830957
 21
2.75194
 31
0.0
  0
LINE
  8
0
 62
     0
 10
0.830957
 20
2.75194
 30
0.0
 11
0.63941
 21
3.09507
 31
0.0
  0
LINE
  8
0
 62
     0
 10
0.63941
 20
3.09507
 30
0.0
 11
0.475424
 21
3.45199
 31
0.0
  0
LINE
  8
0
 62
     0
 10
0.475424
 20
3.45199
 30
0.0
 11
0.338998
 21
3.81991
 31
0.0
  0
LINE
  8
0
 62
     0
 10
0.338998
 20
3.81991
 30
0.0
 11
0.232888
 21
4.19749
 31
0.0
  0
LINE
  8
0
 62
     0
 10
0.232888
 20
4.19749
 30
0.0
 11
0.157097
 21
4.58198
 31
0.0
  0
LINE
  8
0
 62
     0
 10
0.157097
 20
4.58198
 30
0.0
 11
0.110243
 21
4.97198
 31
0.0
  0
LINE
  8
0
 62
     0
 10
0.110243
 20
4.97198
 30
0.0
 11
0.0950846
 21
5.36607
 31
0.0
  0
LINE
  8
0
 62
     0
 10
0.0950846
 20
5.36607
 30
0.0
 11
0.0950846
 21
110.615
 31
0.0
  0
LINE
  8
0
 62
     0
 10
0.0950846
 20
110.615
 30
0.0
 11
0.110243
 21
111.009
 31
0.0
  0
LINE
  8
0
 62
     0
 10
0.110243
 20
111.009
 30
0.0
 11
0.157097
 21
111.399
 31
0.0
  0
LINE
  8
0
 62
     0
 10
0.157097
 20
111.399
 30
0.0
 11
0.232888
 21
111.784
 31
0.0
  0
LINE
  8
0
 62
     0
 10
0.232888
 20
111.784
 30
0.0
 11
0.338998
 21
112.161
 31
0.0
  0
LINE
  8
0
 62
     0
 10
0.338998
 20
112.161
 30
0.0
 11
0.475424
 21
112.529
 31
0.0
  0
LINE
  8
0
 62
     0
 10
0.475424
 20
112.529
 30
0.0
 11
0.63941
 21
112.886
 31
0.0
  0
LINE
  8
0
 62
     0
 10
0.63941
 20
112.886
 30
0.0
 11
0.830957
 21
113.229
 31
0.0
  0
LINE
  8
0
 62
     0
 10
0.830957
 20
113.229
 30
0.0
 11
1.05006
 21
113.555
 31
0.0
  0
LINE
  8
0
 62
     0
 10
1.05006
 20
113.555
 30
0.0
 11
1.2926
 21
113.863
 31
0.0
  0
LINE
  8
0
 62
     0
 10
1.2926
 20
113.863
 30
0.0
 11
1.55994
 21
114.151
 31
0.0
  0
LINE
  8
0
 62
     0
 10
1.55994
 20
114.151
 30
0.0
 11
1.84795
 21
114.419
 31
0.0
  0
LINE
  8
0
 62
     0
 10
1.84795
 20
114.419
 30
0.0
 11
2.15663
 21
114.661
 31
0.0
  0
LINE
  8
0
 62
     0
 10
2.15663
 20
114.661
 30
0.0
 11
2.48185
 21
114.88
 31
0.0
  0
LINE
  8
0
 62
     0
 10
2.48185
 20
114.88
 30
0.0
 11
2.82498
 21
115.072
 31
0.0
  0
LINE
  8
0
 62
     0
 10
2.82498
 20
115.072
 30
0.0
 11
3.18189
 21
115.236
 31
0.0
  0
LINE
  8
0
 62
     0
 10
3.18189
 20
115.236
 30
0.0
 11
3.54983
 21
115.372
 31
0.0
  0
LINE
  8
0
 62
     0
 10
3.54983
 20
115.372
 30
0.0
 11
3.9274
 21
115.478
 31
0.0
  0
LINE
  8
0
 62
     0
 10
3.9274
 20
115.478
 30
0.0
 11
4.3119
 21
115.554
 31
0.0
  0
LINE
  8
0
 62
     0
 10
4.3119
 20
115.554
 30
0.0
 11
4.70186
 21
115.601
 31
0.0
  0
LINE
  8
0
 62
     0
 10
4.70186
 20
115.601
 30
0.0
 11
5.09598
 21
115.616
 31
0.0
  0
LINE
  8
0
 62
     0
 10
5.09598
 20
115.616
 30
0.0
 11
343.709
 21
115.616
 31
0.0
  0
LINE
  8
0
 62
     0
 10
4.5999
 20
6.88605
 30
0.0
 11
4.15477
 21
6.66006
 31
0.0
  0
LINE
  8
0
 62
     0
 10
4.15477
 20
6.66006
 30
0.0
 11
3.80062
 21
6.3059
 31
0.0
  0
LINE
  8
0
 62
     0
 10
3.80062
 20
6.3059
 30
0.0
 11
3.57325
 21
5.85943
 31
0.0
  0
LINE
  8
0
 62
     0
 10
3.57325
 20
5.85943
 30
0.0
 11
3.49608
 21
5.36607
 31
0.0
  0
LINE
  8
0
 62
     0
 10
3.49608
 20
5.36607
 30
0.0
 11
3.57325
 21
4.86999
 31
0.0
  0
LINE
  8
0
 62
     0
 10
3.57325
 20
4.86999
 30
0.0
 11
3.80062
 21
4.42489
 31
0.0
  0
LINE
  8
0
 62
     0
 10
3.80062
 20
4.42489
 30
0.0
 11
4.15477
 21
4.07074
 31
0.0
  0
LINE
  8
0
 62
     0
 10
4.15477
 20
4.07074
 30
0.0
 11
4.5999
 21
3.84334
 31
0.0
  0
LINE
  8
0
 62
     0
 10
4.5999
 20
3.84334
 30
0.0
 11
5.09598
 21
3.76619
 31
0.0
  0
LINE
  8
0
 62
     0
 10
5.09598
 20
3.76619
 30
0.0
 11
5.58934
 21
3.84334
 31
0.0
  0
LINE
  8
0
 62
     0
 10
5.58934
 20
3.84334
 30
0.0
 11
6.03582
 21
4.07074
 31
0.0
  0
LINE
  8
0
 62
     0
 10
6.03582
 20
4.07074
 30
0.0
 11
6.38997
 21
4.42489
 31
0.0
  0
LINE
  8
0
 62
     0
 10
6.38997
 20
4.42489
 30
0.0
 11
6.61596
 21
4.86999
 31
0.0
  0
LINE
  8
0
 62
     0
 10
6.61596
 20
4.86999
 30
0.0
 11
6.6959
 21
5.36607
 31
0.0
  0
LINE
  8
0
 62
     0
 10
6.6959
 20
5.36607
 30
0.0
 11
6.61596
 21
5.85943
 31
0.0
  0
LINE
  8
0
 62
     0
 10
6.61596
 20
5.85943
 30
0.0
 11
6.38997
 21
6.3059
 31
0.0
  0
LINE
  8
0
 62
     0
 10
6.38997
 20
6.3059
 30
0.0
 11
6.03582
 21
6.66006
 31
0.0
  0
LINE
  8
0
 62
     0
 10
6.03582
 20
6.66006
 30
0.0
 11
5.58934
 21
6.88605
 31
0.0
  0
LINE
  8
0
 62
     0
 10
5.58934
 20
6.88605
 30
0.0
 11
5.09598
 21
6.96461
 31
0.0
  0
LINE
  8
0
 62
     0
 10
5.09598
 20
6.96461
 30
0.0
 11
4.5999
 21
6.88605
 31
0.0
  0
LINE
  8
0
 62
     0
 10
89.2542
 20
6.88605
 30
0.0
 11
88.8076
 21
6.66006
 31
0.0
  0
LINE
  8
0
 62
     0
 10
88.8076
 20
6.66006
 30
0.0
 11
88.4534
 21
6.3059
 31
0.0
  0
LINE
  8
0
 62
     0
 10
88.4534
 20
6.3059
 30
0.0
 11
88.2262
 21
5.85943
 31
0.0
  0
LINE
  8
0
 62
     0
 10
88.2262
 20
5.85943
 30
0.0
 11
88.1489
 21
5.36607
 31
0.0
  0
LINE
  8
0
 62
     0
 10
88.1489
 20
5.36607
 30
0.0
 11
88.2262
 21
4.86999
 31
0.0
  0
LINE
  8
0
 62
     0
 10
88.2262
 20
4.86999
 30
0.0
 11
88.4534
 21
4.42489
 31
0.0
  0
LINE
  8
0
 62
     0
 10
88.4534
 20
4.42489
 30
0.0
 11
88.8076
 21
4.07074
 31
0.0
  0
LINE
  8
0
 62
     0
 10
88.8076
 20
4.07074
 30
0.0
 11
89.2542
 21
3.84334
 31
0.0
  0
LINE
  8
0
 62
     0
 10
89.2542
 20
3.84334
 30
0.0
 11
89.7488
 21
3.76619
 31
0.0
  0
LINE
  8
0
 62
     0
 10
89.7488
 20
3.76619
 30
0.0
 11
90.2423
 21
3.84334
 31
0.0
  0
LINE
  8
0
 62
     0
 10
90.2423
 20
3.84334
 30
0.0
 11
90.6886
 21
4.07074
 31
0.0
  0
LINE
  8
0
 62
     0
 10
90.6886
 20
4.07074
 30
0.0
 11
91.0428
 21
4.42489
 31
0.0
  0
LINE
  8
0
 62
     0
 10
91.0428
 20
4.42489
 30
0.0
 11
91.2703
 21
4.86999
 31
0.0
  0
LINE
  8
0
 62
     0
 10
91.2703
 20
4.86999
 30
0.0
 11
91.3486
 21
5.36607
 31
0.0
  0
LINE
  8
0
 62
     0
 10
91.3486
 20
5.36607
 30
0.0
 11
91.2703
 21
5.85943
 31
0.0
  0
LINE
  8
0
 62
     0
 10
91.2703
 20
5.85943
 30
0.0
 11
91.0428
 21
6.3059
 31
0.0
  0
LINE
  8
0
 62
     0
 10
91.0428
 20
6.3059
 30
0.0
 11
90.6886
 21
6.66006
 31
0.0
  0
LINE
  8
0
 62
     0
 10
90.6886
 20
6.66006
 30
0.0
 11
90.2423
 21
6.88605
 31
0.0
  0
LINE
  8
0
 62
     0
 10
90.2423
 20
6.88605
 30
0.0
 11
89.7488
 21
6.96461
 31
0.0
  0
LINE
  8
0
 62
     0
 10
89.7488
 20
6.96461
 30
0.0
 11
89.2542
 21
6.88605
 31
0.0
  0
LINE
  8
0
 62
     0
 10
173.907
 20
6.88605
 30
0.0
 11
173.462
 21
6.66006
 31
0.0
  0
LINE
  8
0
 62
     0
 10
173.462
 20
6.66006
 30
0.0
 11
173.108
 21
6.3059
 31
0.0
  0
LINE
  8
0
 62
     0
 10
173.108
 20
6.3059
 30
0.0
 11
172.881
 21
5.85943
 31
0.0
  0
LINE
  8
0
 62
     0
 10
172.881
 20
5.85943
 30
0.0
 11
172.802
 21
5.36607
 31
0.0
  0
LINE
  8
0
 62
     0
 10
172.802
 20
5.36607
 30
0.0
 11
172.881
 21
4.86999
 31
0.0
  0
LINE
  8
0
 62
     0
 10
172.881
 20
4.86999
 30
0.0
 11
173.108
 21
4.42489
 31
0.0
  0
LINE
  8
0
 62
     0
 10
173.108
 20
4.42489
 30
0.0
 11
173.462
 21
4.07074
 31
0.0
  0
LINE
  8
0
 62
     0
 10
173.462
 20
4.07074
 30
0.0
 11
173.907
 21
3.84334
 31
0.0
  0
LINE
  8
0
 62
     0
 10
173.907
 20
3.84334
 30
0.0
 11
174.402
 21
3.76619
 31
0.0
  0
LINE
  8
0
 62
     0
 10
174.402
 20
3.76619
 30
0.0
 11
174.897
 21
3.84334
 31
0.0
  0
LINE
  8
0
 62
     0
 10
174.897
 20
3.84334
 30
0.0
 11
175.343
 21
4.07074
 31
0.0
  0
LINE
  8
0
 62
     0
 10
175.343
 20
4.07074
 30
0.0
 11
175.697
 21
4.42489
 31
0.0
  0
LINE
  8
0
 62
     0
 10
175.697
 20
4.42489
 30
0.0
 11
175.923
 21
4.86999
 31
0.0
  0
LINE
  8
0
 62
     0
 10
175.923
 20
4.86999
 30
0.0
 11
176.002
 21
5.36607
 31
0.0
  0
LINE
  8
0
 62
     0
 10
176.002
 20
5.36607
 30
0.0
 11
175.923
 21
5.85943
 31
0.0
  0
LINE
  8
0
 62
     0
 10
175.923
 20
5.85943
 30
0.0
 11
175.697
 21
6.3059
 31
0.0
  0
LINE
  8
0
 62
     0
 10
175.697
 20
6.3059
 30
0.0
 11
175.343
 21
6.66006
 31
0.0
  0
LINE
  8
0
 62
     0
 10
175.343
 20
6.66006
 30
0.0
 11
174.897
 21
6.88605
 31
0.0
  0
LINE
  8
0
 62
     0
 10
174.897
 20
6.88605
 30
0.0
 11
174.402
 21
6.96461
 31
0.0
  0
LINE
  8
0
 62
     0
 10
174.402
 20
6.96461
 30
0.0
 11
173.907
 21
6.88605
 31
0.0
  0
LINE
  8
0
 62
     0
 10
258.56
 20
6.88605
 30
0.0
 11
258.115
 21
6.66006
 31
0.0
  0
LINE
  8
0
 62
     0
 10
258.115
 20
6.66006
 30
0.0
 11
257.761
 21
6.3059
 31
0.0
  0
LINE
  8
0
 62
     0
 10
257.761
 20
6.3059
 30
0.0
 11
257.533
 21
5.85943
 31
0.0
  0
LINE
  8
0
 62
     0
 10
257.533
 20
5.85943
 30
0.0
 11
257.456
 21
5.36607
 31
0.0
  0
LINE
  8
0
 62
     0
 10
257.456
 20
5.36607
 30
0.0
 11
257.533
 21
4.86999
 31
0.0
  0
LINE
  8
0
 62
     0
 10
257.533
 20
4.86999
 30
0.0
 11
257.761
 21
4.42489
 31
0.0
  0
LINE
  8
0
 62
     0
 10
257.761
 20
4.42489
 30
0.0
 11
258.115
 21
4.07074
 31
0.0
  0
LINE
  8
0
 62
     0
 10
258.115
 20
4.07074
 30
0.0
 11
258.56
 21
3.84334
 31
0.0
  0
LINE
  8
0
 62
     0
 10
258.56
 20
3.84334
 30
0.0
 11
259.056
 21
3.76619
 31
0.0
  0
LINE
  8
0
 62
     0
 10
259.056
 20
3.76619
 30
0.0
 11
259.549
 21
3.84334
 31
0.0
  0
LINE
  8
0
 62
     0
 10
259.549
 20
3.84334
 30
0.0
 11
259.996
 21
4.07074
 31
0.0
  0
LINE
  8
0
 62
     0
 10
259.996
 20
4.07074
 30
0.0
 11
260.35
 21
4.42489
 31
0.0
  0
LINE
  8
0
 62
     0
 10
260.35
 20
4.42489
 30
0.0
 11
260.576
 21
4.86999
 31
0.0
  0
LINE
  8
0
 62
     0
 10
260.576
 20
4.86999
 30
0.0
 11
260.656
 21
5.36607
 31
0.0
  0
LINE
  8
0
 62
     0
 10
260.656
 20
5.36607
 30
0.0
 11
260.576
 21
5.85943
 31
0.0
  0
LINE
  8
0
 62
     0
 10
260.576
 20
5.85943
 30
0.0
 11
260.35
 21
6.3059
 31
0.0
  0
LINE
  8
0
 62
     0
 10
260.35
 20
6.3059
 30
0.0
 11
259.996
 21
6.66006
 31
0.0
  0
LINE
  8
0
 62
     0
 10
259.996
 20
6.66006
 30
0.0
 11
259.549
 21
6.88605
 31
0.0
  0
LINE
  8
0
 62
     0
 10
259.549
 20
6.88605
 30
0.0
 11
259.056
 21
6.96461
 31
0.0
  0
LINE
  8
0
 62
     0
 10
259.056
 20
6.96461
 30
0.0
 11
258.56
 21
6.88605
 31
0.0
  0
LINE
  8
0
 62
     0
 10
343.214
 20
6.88605
 30
0.0
 11
342.769
 21
6.66006
 31
0.0
  0
LINE
  8
0
 62
     0
 10
342.769
 20
6.66006
 30
0.0
 11
342.415
 21
6.3059
 31
0.0
  0
LINE
  8
0
 62
     0
 10
342.415
 20
6.3059
 30
0.0
 11
342.186
 21
5.85943
 31
0.0
  0
LINE
  8
0
 62
     0
 10
342.186
 20
5.85943
 30
0.0
 11
342.109
 21
5.36607
 31
0.0
  0
LINE
  8
0
 62
     0
 10
342.109
 20
5.36607
 30
0.0
 11
342.186
 21
4.86999
 31
0.0
  0
LINE
  8
0
 62
     0
 10
342.186
 20
4.86999
 30
0.0
 11
342.415
 21
4.42489
 31
0.0
  0
LINE
  8
0
 62
     0
 10
342.415
 20
4.42489
 30
0.0
 11
342.769
 21
4.07074
 31
0.0
  0
LINE
  8
0
 62
     0
 10
342.769
 20
4.07074
 30
0.0
 11
343.214
 21
3.84334
 31
0.0
  0
LINE
  8
0
 62
     0
 10
343.214
 20
3.84334
 30
0.0
 11
343.709
 21
3.76619
 31
0.0
  0
LINE
  8
0
 62
     0
 10
343.709
 20
3.76619
 30
0.0
 11
344.202
 21
3.84334
 31
0.0
  0
LINE
  8
0
 62
     0
 10
344.202
 20
3.84334
 30
0.0
 11
344.649
 21
4.07074
 31
0.0
  0
LINE
  8
0
 62
     0
 10
344.649
 20
4.07074
 30
0.0
 11
345.003
 21
4.42489
 31
0.0
  0
LINE
  8
0
 62
     0
 10
345.003
 20
4.42489
 30
0.0
 11
345.23
 21
4.86999
 31
0.0
  0
LINE
  8
0
 62
     0
 10
345.23
 20
4.86999
 30
0.0
 11
345.309
 21
5.36607
 31
0.0
  0
LINE
  8
0
 62
     0
 10
345.309
 20
5.36607
 30
0.0
 11
345.23
 21
5.85943
 31
0.0
  0
LINE
  8
0
 62
     0
 10
345.23
 20
5.85943
 30
0.0
 11
345.003
 21
6.3059
 31
0.0
  0
LINE
  8
0
 62
     0
 10
345.003
 20
6.3059
 30
0.0
 11
344.649
 21
6.66006
 31
0.0
  0
LINE
  8
0
 62
     0
 10
344.649
 20
6.66006
 30
0.0
 11
344.202
 21
6.88605
 31
0.0
  0
LINE
  8
0
 62
     0
 10
344.202
 20
6.88605
 30
0.0
 11
343.709
 21
6.96461
 31
0.0
  0
LINE
  8
0
 62
     0
 10
343.709
 20
6.96461
 30
0.0
 11
343.214
 21
6.88605
 31
0.0
  0
LINE
  8
0
 62
     0
 10
4.5999
 20
112.138
 30
0.0
 11
4.15477
 21
111.911
 31
0.0
  0
LINE
  8
0
 62
     0
 10
4.15477
 20
111.911
 30
0.0
 11
3.80062
 21
111.556
 31
0.0
  0
LINE
  8
0
 62
     0
 10
3.80062
 20
111.556
 30
0.0
 11
3.57325
 21
111.111
 31
0.0
  0
LINE
  8
0
 62
     0
 10
3.57325
 20
111.111
 30
0.0
 11
3.49608
 21
110.615
 31
0.0
  0
LINE
  8
0
 62
     0
 10
3.49608
 20
110.615
 30
0.0
 11
3.57325
 21
110.122
 31
0.0
  0
LINE
  8
0
 62
     0
 10
3.57325
 20
110.122
 30
0.0
 11
3.80062
 21
109.675
 31
0.0
  0
LINE
  8
0
 62
     0
 10
3.80062
 20
109.675
 30
0.0
 11
4.15477
 21
109.321
 31
0.0
  0
LINE
  8
0
 62
     0
 10
4.15477
 20
109.321
 30
0.0
 11
4.5999
 21
109.095
 31
0.0
  0
LINE
  8
0
 62
     0
 10
4.5999
 20
109.095
 30
0.0
 11
5.09598
 21
109.015
 31
0.0
  0
LINE
  8
0
 62
     0
 10
5.09598
 20
109.015
 30
0.0
 11
5.58934
 21
109.095
 31
0.0
  0
LINE
  8
0
 62
     0
 10
5.58934
 20
109.095
 30
0.0
 11
6.03582
 21
109.321
 31
0.0
  0
LINE
  8
0
 62
     0
 10
6.03582
 20
109.321
 30
0.0
 11
6.38997
 21
109.675
 31
0.0
  0
LINE
  8
0
 62
     0
 10
6.38997
 20
109.675
 30
0.0
 11
6.61596
 21
110.122
 31
0.0
  0
LINE
  8
0
 62
     0
 10
6.61596
 20
110.122
 30
0.0
 11
6.6959
 21
110.615
 31
0.0
  0
LINE
  8
0
 62
     0
 10
6.6959
 20
110.615
 30
0.0
 11
6.61596
 21
111.111
 31
0.0
  0
LINE
  8
0
 62
     0
 10
6.61596
 20
111.111
 30
0.0
 11
6.38997
 21
111.556
 31
0.0
  0
LINE
  8
0
 62
     0
 10
6.38997
 20
111.556
 30
0.0
 11
6.03582
 21
111.911
 31
0.0
  0
LINE
  8
0
 62
     0
 10
6.03582
 20
111.911
 30
0.0
 11
5.58934
 21
112.138
 31
0.0
  0
LINE
  8
0
 62
     0
 10
5.58934
 20
112.138
 30
0.0
 11
5.09598
 21
112.215
 31
0.0
  0
LINE
  8
0
 62
     0
 10
5.09598
 20
112.215
 30
0.0
 11
4.5999
 21
112.138
 31
0.0
  0
LINE
  8
0
 62
     0
 10
343.214
 20
112.138
 30
0.0
 11
342.769
 21
111.911
 31
0.0
  0
LINE
  8
0
 62
     0
 10
342.769
 20
111.911
 30
0.0
 11
342.415
 21
111.556
 31
0.0
  0
LINE
  8
0
 62
     0
 10
342.415
 20
111.556
 30
0.0
 11
342.186
 21
111.111
 31
0.0
  0
LINE
  8
0
 62
     0
 10
342.186
 20
111.111
 30
0.0
 11
342.109
 21
110.615
 31
0.0
  0
LINE
  8
0
 62
     0
 10
342.109
 20
110.615
 30
0.0
 11
342.186
 21
110.122
 31
0.0
  0
LINE
  8
0
 62
     0
 10
342.186
 20
110.122
 30
0.0
 11
342.415
 21
109.675
 31
0.0
  0
LINE
  8
0
 62
     0
 10
342.415
 20
109.675
 30
0.0
 11
342.769
 21
109.321
 31
0.0
  0
LINE
  8
0
 62
     0
 10
342.769
 20
109.321
 30
0.0
 11
343.214
 21
109.095
 31
0.0
  0
LINE
  8
0
 62
     0
 10
343.214
 20
109.095
 30
0.0
 11
343.709
 21
109.015
 31
0.0
  0
LINE
  8
0
 62
     0
 10
343.709
 20
109.015
 30
0.0
 11
344.202
 21
109.095
 31
0.0
  0
LINE
  8
0
 62
     0
 10
344.202
 20
109.095
 30
0.0
 11
344.649
 21
109.321
 31
0.0
  0
LINE
  8
0
 62
     0
 10
344.649
 20
109.321
 30
0.0
 11
345.003
 21
109.675
 31
0.0
  0
LINE
  8
0
 62
     0
 10
345.003
 20
109.675
 30
0.0
 11
345.23
 21
110.122
 31
0.0
  0
LINE
  8
0
 62
     0
 10
345.23
 20
110.122
 30
0.0
 11
345.309
 21
110.615
 31
0.0
  0
LINE
  8
0
 62
     0
 10
345.309
 20
110.615
 30
0.0
 11
345.23
 21
111.111
 31
0.0
  0
LINE
  8
0
 62
     0
 10
345.23
 20
111.111
 30
0.0
 11
345.003
 21
111.556
 31
0.0
  0
LINE
  8
0
 62
     0
 10
345.003
 20
111.556
 30
0.0
 11
344.649
 21
111.911
 31
0.0
  0
LINE
  8
0
 62
     0
 10
344.649
 20
111.911
 30
0.0
 11
344.202
 21
112.138
 31
0.0
  0
LINE
  8
0
 62
     0
 10
344.202
 20
112.138
 30
0.0
 11
343.709
 21
112.215
 31
0.0
  0
LINE
  8
0
 62
     0
 10
343.709
 20
112.215
 30
0.0
 11
343.214
 21
112.138
 31
0.0
  0
LINE
  8
0
 62
     0
 10
258.56
 20
112.138
 30
0.0
 11
258.115
 21
111.911
 31
0.0
  0
LINE
  8
0
 62
     0
 10
258.115
 20
111.911
 30
0.0
 11
257.761
 21
111.556
 31
0.0
  0
LINE
  8
0
 62
     0
 10
257.761
 20
111.556
 30
0.0
 11
257.533
 21
111.111
 31
0.0
  0
LINE
  8
0
 62
     0
 10
257.533
 20
111.111
 30
0.0
 11
257.456
 21
110.615
 31
0.0
  0
LINE
  8
0
 62
     0
 10
257.456
 20
110.615
 30
0.0
 11
257.533
 21
110.122
 31
0.0
  0
LINE
  8
0
 62
     0
 10
257.533
 20
110.122
 30
0.0
 11
257.761
 21
109.675
 31
0.0
  0
LINE
  8
0
 62
     0
 10
257.761
 20
109.675
 30
0.0
 11
258.115
 21
109.321
 31
0.0
  0
LINE
  8
0
 62
     0
 10
258.115
 20
109.321
 30
0.0
 11
258.56
 21
109.095
 31
0.0
  0
LINE
  8
0
 62
     0
 10
258.56
 20
109.095
 30
0.0
 11
259.056
 21
109.015
 31
0.0
  0
LINE
  8
0
 62
     0
 10
259.056
 20
109.015
 30
0.0
 11
259.549
 21
109.095
 31
0.0
  0
LINE
  8
0
 62
     0
 10
259.549
 20
109.095
 30
0.0
 11
259.996
 21
109.321
 31
0.0
  0
LINE
  8
0
 62
     0
 10
259.996
 20
109.321
 30
0.0
 11
260.35
 21
109.675
 31
0.0
  0
LINE
  8
0
 62
     0
 10
260.35
 20
109.675
 30
0.0
 11
260.576
 21
110.122
 31
0.0
  0
LINE
  8
0
 62
     0
 10
260.576
 20
110.122
 30
0.0
 11
260.656
 21
110.615
 31
0.0
  0
LINE
  8
0
 62
     0
 10
260.656
 20
110.615
 30
0.0
 11
260.576
 21
111.111
 31
0.0
  0
LINE
  8
0
 62
     0
 10
260.576
 20
111.111
 30
0.0
 11
260.35
 21
111.556
 31
0.0
  0
LINE
  8
0
 62
     0
 10
260.35
 20
111.556
 30
0.0
 11
259.996
 21
111.911
 31
0.0
  0
LINE
  8
0
 62
     0
 10
259.996
 20
111.911
 30
0.0
 11
259.549
 21
112.138
 31
0.0
  0
LINE
  8
0
 62
     0
 10
259.549
 20
112.138
 30
0.0
 11
259.056
 21
112.215
 31
0.0
  0
LINE
  8
0
 62
     0
 10
259.056
 20
112.215
 30
0.0
 11
258.56
 21
112.138
 31
0.0
  0
LINE
  8
0
 62
     0
 10
173.907
 20
112.138
 30
0.0
 11
173.462
 21
111.911
 31
0.0
  0
LINE
  8
0
 62
     0
 10
173.462
 20
111.911
 30
0.0
 11
173.108
 21
111.556
 31
0.0
  0
LINE
  8
0
 62
     0
 10
173.108
 20
111.556
 30
0.0
 11
172.881
 21
111.111
 31
0.0
  0
LINE
  8
0
 62
     0
 10
172.881
 20
111.111
 30
0.0
 11
172.802
 21
110.615
 31
0.0
  0
LINE
  8
0
 62
     0
 10
172.802
 20
110.615
 30
0.0
 11
172.881
 21
110.122
 31
0.0
  0
LINE
  8
0
 62
     0
 10
172.881
 20
110.122
 30
0.0
 11
173.108
 21
109.675
 31
0.0
  0
LINE
  8
0
 62
     0
 10
173.108
 20
109.675
 30
0.0
 11
173.462
 21
109.321
 31
0.0
  0
LINE
  8
0
 62
     0
 10
173.462
 20
109.321
 30
0.0
 11
173.907
 21
109.095
 31
0.0
  0
LINE
  8
0
 62
     0
 10
173.907
 20
109.095
 30
0.0
 11
174.402
 21
109.015
 31
0.0
  0
LINE
  8
0
 62
     0
 10
174.402
 20
109.015
 30
0.0
 11
174.897
 21
109.095
 31
0.0
  0
LINE
  8
0
 62
     0
 10
174.897
 20
109.095
 30
0.0
 11
175.343
 21
109.321
 31
0.0
  0
LINE
  8
0
 62
     0
 10
175.343
 20
109.321
 30
0.0
 11
175.697
 21
109.675
 31
0.0
  0
LINE
  8
0
 62
     0
 10
175.697
 20
109.675
 30
0.0
 11
175.923
 21
110.122
 31
0.0
  0
LINE
  8
0
 62
     0
 10
175.923
 20
110.122
 30
0.0
 11
176.002
 21
110.615
 31
0.0
  0
LINE
  8
0
 62
     0
 10
176.002
 20
110.615
 30
0.0
 11
175.923
 21
111.111
 31
0.0
  0
LINE
  8
0
 62
     0
 10
175.923
 20
111.111
 30
0.0
 11
175.697
 21
111.556
 31
0.0
  0
LINE
  8
0
 62
     0
 10
175.697
 20
111.556
 30
0.0
 11
175.343
 21
111.911
 31
0.0
  0
LINE
  8
0
 62
     0
 10
175.343
 20
111.911
 30
0.0
 11
174.897
 21
112.138
 31
0.0
  0
LINE
  8
0
 62
     0
 10
174.897
 20
112.138
 30
0.0
 11
174.402
 21
112.215
 31
0.0
  0
LINE
  8
0
 62
     0
 10
174.402
 20
112.215
 30
0.0
 11
173.907
 21
112.138
 31
0.0
  0
LINE
  8
0
 62
     0
 10
89.2542
 20
112.138
 30
0.0
 11
88.8076
 21
111.911
 31
0.0
  0
LINE
  8
0
 62
     0
 10
88.8076
 20
111.911
 30
0.0
 11
88.4534
 21
111.556
 31
0.0
  0
LINE
  8
0
 62
     0
 10
88.4534
 20
111.556
 30
0.0
 11
88.2262
 21
111.111
 31
0.0
  0
LINE
  8
0
 62
     0
 10
88.2262
 20
111.111
 30
0.0
 11
88.1489
 21
110.615
 31
0.0
  0
LINE
  8
0
 62
     0
 10
88.1489
 20
110.615
 30
0.0
 11
88.2262
 21
110.122
 31
0.0
  0
LINE
  8
0
 62
     0
 10
88.2262
 20
110.122
 30
0.0
 11
88.4534
 21
109.675
 31
0.0
  0
LINE
  8
0
 62
     0
 10
88.4534
 20
109.675
 30
0.0
 11
88.8076
 21
109.321
 31
0.0
  0
LINE
  8
0
 62
     0
 10
88.8076
 20
109.321
 30
0.0
 11
89.2542
 21
109.095
 31
0.0
  0
LINE
  8
0
 62
     0
 10
89.2542
 20
109.095
 30
0.0
 11
89.7488
 21
109.015
 31
0.0
  0
LINE
  8
0
 62
     0
 10
89.7488
 20
109.015
 30
0.0
 11
90.2423
 21
109.095
 31
0.0
  0
LINE
  8
0
 62
     0
 10
90.2423
 20
109.095
 30
0.0
 11
90.6886
 21
109.321
 31
0.0
  0
LINE
  8
0
 62
     0
 10
90.6886
 20
109.321
 30
0.0
 11
91.0428
 21
109.675
 31
0.0
  0
LINE
  8
0
 62
     0
 10
91.0428
 20
109.675
 30
0.0
 11
91.2703
 21
110.122
 31
0.0
  0
LINE
  8
0
 62
     0
 10
91.2703
 20
110.122
 30
0.0
 11
91.3486
 21
110.615
 31
0.0
  0
LINE
  8
0
 62
     0
 10
91.3486
 20
110.615
 30
0.0
 11
91.2703
 21
111.111
 31
0.0
  0
LINE
  8
0
 62
     0
 10
91.2703
 20
111.111
 30
0.0
 11
91.0428
 21
111.556
 31
0.0
  0
LINE
  8
0
 62
     0
 10
91.0428
 20
111.556
 30
0.0
 11
90.6886
 21
111.911
 31
0.0
  0
LINE
  8
0
 62
     0
 10
90.6886
 20
111.911
 30
0.0
 11
90.2423
 21
112.138
 31
0.0
  0
LINE
  8
0
 62
     0
 10
90.2423
 20
112.138
 30
0.0
 11
89.7488
 21
112.215
 31
0.0
  0
LINE
  8
0
 62
     0
 10
89.7488
 20
112.215
 30
0.0
 11
89.2542
 21
112.138
 31
0.0
  0
ENDSEC
  0
EOF
