  0
SECTION
  2
HEADER
  9
$ACADVER
  1
AC1009
  9
$EXTMIN
 10
0.0
 20
0.0
 30
0.0
  9
$EXTMAX
 10
1000.0
 20
1000.0
 30
0.0
  9
$FILLMODE
 70
 0
  9
$SPLFRAME
 70
 1
  0
ENDSEC
  0
SECTION
  2
TABLES
  0
TABLE
  2
LAYER
 70
1
  0
LAYER
  2
0
 70
     0
 62
     7
  6
CONTINUOUS
  0
ENDTAB
  0
ENDSEC
  0
SECTION
  2
ENTITIES
  0
LINE
  8
0
 62
     0
 10
343.709
 20
115.616
 30
0.0
 11
344.1
 21
115.601
 31
0.0
  0
LINE
  8
0
 62
     0
 10
344.1
 20
115.601
 30
0.0
 11
344.49
 21
115.554
 31
0.0
  0
LINE
  8
0
 62
     0
 10
344.49
 20
115.554
 30
0.0
 11
344.876
 21
115.478
 31
0.0
  0
LINE
  8
0
 62
     0
 10
344.876
 20
115.478
 30
0.0
 11
345.254
 21
115.372
 31
0.0
  0
LINE
  8
0
 62
     0
 10
345.254
 20
115.372
 30
0.0
 11
345.622
 21
115.236
 31
0.0
  0
LINE
  8
0
 62
     0
 10
345.622
 20
115.236
 30
0.0
 11
345.979
 21
115.072
 31
0.0
  0
LINE
  8
0
 62
     0
 10
345.979
 20
115.072
 30
0.0
 11
346.32
 21
114.88
 31
0.0
  0
LINE
  8
0
 62
     0
 10
346.32
 20
114.88
 30
0.0
 11
346.647
 21
114.661
 31
0.0
  0
LINE
  8
0
 62
     0
 10
346.647
 20
114.661
 30
0.0
 11
346.956
 21
114.419
 31
0.0
  0
LINE
  8
0
 62
     0
 10
346.956
 20
114.419
 30
0.0
 11
347.245
 21
114.151
 31
0.0
  0
LINE
  8
0
 62
     0
 10
347.245
 20
114.151
 30
0.0
 11
347.511
 21
113.863
 31
0.0
  0
LINE
  8
0
 62
     0
 10
347.511
 20
113.863
 30
0.0
 11
347.754
 21
113.555
 31
0.0
  0
LINE
  8
0
 62
     0
 10
347.754
 20
113.555
 30
0.0
 11
347.971
 21
113.229
 31
0.0
  0
LINE
  8
0
 62
     0
 10
347.971
 20
113.229
 30
0.0
 11
348.164
 21
112.886
 31
0.0
  0
LINE
  8
0
 62
     0
 10
348.164
 20
112.886
 30
0.0
 11
348.328
 21
112.529
 31
0.0
  0
LINE
  8
0
 62
     0
 10
348.328
 20
112.529
 30
0.0
 11
348.463
 21
112.161
 31
0.0
  0
LINE
  8
0
 62
     0
 10
348.463
 20
112.161
 30
0.0
 11
348.571
 21
111.784
 31
0.0
  0
LINE
  8
0
 62
     0
 10
348.571
 20
111.784
 30
0.0
 11
348.646
 21
111.399
 31
0.0
  0
LINE
  8
0
 62
     0
 10
348.646
 20
111.399
 30
0.0
 11
348.693
 21
111.009
 31
0.0
  0
LINE
  8
0
 62
     0
 10
348.693
 20
111.009
 30
0.0
 11
348.708
 21
110.615
 31
0.0
  0
LINE
  8
0
 62
     0
 10
348.708
 20
110.615
 30
0.0
 11
348.708
 21
5.36607
 31
0.0
  0
LINE
  8
0
 62
     0
 10
348.708
 20
5.36607
 30
0.0
 11
348.693
 21
4.97198
 31
0.0
  0
LINE
  8
0
 62
     0
 10
348.693
 20
4.97198
 30
0.0
 11
348.646
 21
4.58198
 31
0.0
  0
LINE
  8
0
 62
     0
 10
348.646
 20
4.58198
 30
0.0
 11
348.571
 21
4.19749
 31
0.0
  0
LINE
  8
0
 62
     0
 10
348.571
 20
4.19749
 30
0.0
 11
348.463
 21
3.81991
 31
0.0
  0
LINE
  8
0
 62
     0
 10
348.463
 20
3.81991
 30
0.0
 11
348.328
 21
3.45199
 31
0.0
  0
LINE
  8
0
 62
     0
 10
348.328
 20
3.45199
 30
0.0
 11
348.164
 21
3.09507
 31
0.0
  0
LINE
  8
0
 62
     0
 10
348.164
 20
3.09507
 30
0.0
 11
347.971
 21
2.75194
 31
0.0
  0
LINE
  8
0
 62
     0
 10
347.971
 20
2.75194
 30
0.0
 11
347.754
 21
2.42673
 31
0.0
  0
LINE
  8
0
 62
     0
 10
347.754
 20
2.42673
 30
0.0
 11
347.511
 21
2.11805
 31
0.0
  0
LINE
  8
0
 62
     0
 10
347.511
 20
2.11805
 30
0.0
 11
347.245
 21
1.83003
 31
0.0
  0
LINE
  8
0
 62
     0
 10
347.245
 20
1.83003
 30
0.0
 11
346.956
 21
1.5627
 31
0.0
  0
LINE
  8
0
 62
     0
 10
346.956
 20
1.5627
 30
0.0
 11
346.647
 21
1.32016
 31
0.0
  0
LINE
  8
0
 62
     0
 10
346.647
 20
1.32016
 30
0.0
 11
346.32
 21
1.10105
 31
0.0
  0
LINE
  8
0
 62
     0
 10
346.32
 20
1.10105
 30
0.0
 11
345.979
 21
0.909507
 31
0.0
  0
LINE
  8
0
 62
     0
 10
345.979
 20
0.909507
 30
0.0
 11
345.622
 21
0.745518
 31
0.0
  0
LINE
  8
0
 62
     0
 10
345.622
 20
0.745518
 30
0.0
 11
345.254
 21
0.609092
 31
0.0
  0
LINE
  8
0
 62
     0
 10
345.254
 20
0.609092
 30
0.0
 11
344.876
 21
0.502984
 31
0.0
  0
LINE
  8
0
 62
     0
 10
344.876
 20
0.502984
 30
0.0
 11
344.49
 21
0.427193
 31
0.0
  0
LINE
  8
0
 62
     0
 10
344.49
 20
0.427193
 30
0.0
 11
344.1
 21
0.38034
 31
0.0
  0
LINE
  8
0
 62
     0
 10
344.1
 20
0.38034
 30
0.0
 11
343.709
 21
0.365181
 31
0.0
  0
LINE
  8
0
 62
     0
 10
343.709
 20
0.365181
 30
0.0
 11
5.09598
 21
0.365181
 31
0.0
  0
LINE
  8
0
 62
     0
 10
5.09598
 20
0.365181
 30
0.0
 11
4.70186
 21
0.38034
 31
0.0
  0
LINE
  8
0
 62
     0
 10
4.70186
 20
0.38034
 30
0.0
 11
4.3119
 21
0.427193
 31
0.0
  0
LINE
  8
0
 62
     0
 10
4.3119
 20
0.427193
 30
0.0
 11
3.9274
 21
0.502984
 31
0.0
  0
LINE
  8
0
 62
     0
 10
3.9274
 20
0.502984
 30
0.0
 11
3.54983
 21
0.609092
 31
0.0
  0
LINE
  8
0
 62
     0
 10
3.54983
 20
0.609092
 30
0.0
 11
3.18189
 21
0.745518
 31
0.0
  0
LINE
  8
0
 62
     0
 10
3.18189
 20
0.745518
 30
0.0
 11
2.82498
 21
0.909507
 31
0.0
  0
LINE
  8
0
 62
     0
 10
2.82498
 20
0.909507
 30
0.0
 11
2.48185
 21
1.10105
 31
0.0
  0
LINE
  8
0
 62
     0
 10
2.48185
 20
1.10105
 30
0.0
 11
2.15663
 21
1.32016
 31
0.0
  0
LINE
  8
0
 62
     0
 10
2.15663
 20
1.32016
 30
0.0
 11
1.84795
 21
1.5627
 31
0.0
  0
LINE
  8
0
 62
     0
 10
1.84795
 20
1.5627
 30
0.0
 11
1.55994
 21
1.83003
 31
0.0
  0
LINE
  8
0
 62
     0
 10
1.55994
 20
1.83003
 30
0.0
 11
1.2926
 21
2.11805
 31
0.0
  0
LINE
  8
0
 62
     0
 10
1.2926
 20
2.11805
 30
0.0
 11
1.05006
 21
2.42673
 31
0.0
  0
LINE
  8
0
 62
     0
 10
1.05006
 20
2.42673
 30
0.0
 11
0.830957
 21
2.75194
 31
0.0
  0
LINE
  8
0
 62
     0
 10
0.830957
 20
2.75194
 30
0.0
 11
0.63941
 21
3.09507
 31
0.0
  0
LINE
  8
0
 62
     0
 10
0.63941
 20
3.09507
 30
0.0
 11
0.475424
 21
3.45199
 31
0.0
  0
LINE
  8
0
 62
     0
 10
0.475424
 20
3.45199
 30
0.0
 11
0.338998
 21
3.81991
 31
0.0
  0
LINE
  8
0
 62
     0
 10
0.338998
 20
3.81991
 30
0.0
 11
0.232888
 21
4.19749
 31
0.0
  0
LINE
  8
0
 62
     0
 10
0.232888
 20
4.19749
 30
0.0
 11
0.157097
 21
4.58198
 31
0.0
  0
LINE
  8
0
 62
     0
 10
0.157097
 20
4.58198
 30
0.0
 11
0.110243
 21
4.97198
 31
0.0
  0
LINE
  8
0
 62
     0
 10
0.110243
 20
4.97198
 30
0.0
 11
0.0950846
 21
5.36607
 31
0.0
  0
LINE
  8
0
 62
     0
 10
0.0950846
 20
5.36607
 30
0.0
 11
0.0950846
 21
110.615
 31
0.0
  0
LINE
  8
0
 62
     0
 10
0.0950846
 20
110.615
 30
0.0
 11
0.110243
 21
111.009
 31
0.0
  0
LINE
  8
0
 62
     0
 10
0.110243
 20
111.009
 30
0.0
 11
0.157097
 21
111.399
 31
0.0
  0
LINE
  8
0
 62
     0
 10
0.157097
 20
111.399
 30
0.0
 11
0.232888
 21
111.784
 31
0.0
  0
LINE
  8
0
 62
     0
 10
0.232888
 20
111.784
 30
0.0
 11
0.338998
 21
112.161
 31
0.0
  0
LINE
  8
0
 62
     0
 10
0.338998
 20
112.161
 30
0.0
 11
0.475424
 21
112.529
 31
0.0
  0
LINE
  8
0
 62
     0
 10
0.475424
 20
112.529
 30
0.0
 11
0.63941
 21
112.886
 31
0.0
  0
LINE
  8
0
 62
     0
 10
0.63941
 20
112.886
 30
0.0
 11
0.830957
 21
113.229
 31
0.0
  0
LINE
  8
0
 62
     0
 10
0.830957
 20
113.229
 30
0.0
 11
1.05006
 21
113.555
 31
0.0
  0
LINE
  8
0
 62
     0
 10
1.05006
 20
113.555
 30
0.0
 11
1.2926
 21
113.863
 31
0.0
  0
LINE
  8
0
 62
     0
 10
1.2926
 20
113.863
 30
0.0
 11
1.55994
 21
114.151
 31
0.0
  0
LINE
  8
0
 62
     0
 10
1.55994
 20
114.151
 30
0.0
 11
1.84795
 21
114.419
 31
0.0
  0
LINE
  8
0
 62
     0
 10
1.84795
 20
114.419
 30
0.0
 11
2.15663
 21
114.661
 31
0.0
  0
LINE
  8
0
 62
     0
 10
2.15663
 20
114.661
 30
0.0
 11
2.48185
 21
114.88
 31
0.0
  0
LINE
  8
0
 62
     0
 10
2.48185
 20
114.88
 30
0.0
 11
2.82498
 21
115.072
 31
0.0
  0
LINE
  8
0
 62
     0
 10
2.82498
 20
115.072
 30
0.0
 11
3.18189
 21
115.236
 31
0.0
  0
LINE
  8
0
 62
     0
 10
3.18189
 20
115.236
 30
0.0
 11
3.54983
 21
115.372
 31
0.0
  0
LINE
  8
0
 62
     0
 10
3.54983
 20
115.372
 30
0.0
 11
3.9274
 21
115.478
 31
0.0
  0
LINE
  8
0
 62
     0
 10
3.9274
 20
115.478
 30
0.0
 11
4.3119
 21
115.554
 31
0.0
  0
LINE
  8
0
 62
     0
 10
4.3119
 20
115.554
 30
0.0
 11
4.70186
 21
115.601
 31
0.0
  0
LINE
  8
0
 62
     0
 10
4.70186
 20
115.601
 30
0.0
 11
5.09598
 21
115.616
 31
0.0
  0
LINE
  8
0
 62
     0
 10
5.09598
 20
115.616
 30
0.0
 11
343.709
 21
115.616
 31
0.0
  0
LINE
  8
0
 62
     0
 10
4.5999
 20
6.88605
 30
0.0
 11
4.15477
 21
6.66006
 31
0.0
  0
LINE
  8
0
 62
     0
 10
4.15477
 20
6.66006
 30
0.0
 11
3.80062
 21
6.3059
 31
0.0
  0
LINE
  8
0
 62
     0
 10
3.80062
 20
6.3059
 30
0.0
 11
3.57325
 21
5.85943
 31
0.0
  0
LINE
  8
0
 62
     0
 10
3.57325
 20
5.85943
 30
0.0
 11
3.49608
 21
5.36607
 31
0.0
  0
LINE
  8
0
 62
     0
 10
3.49608
 20
5.36607
 30
0.0
 11
3.57325
 21
4.86999
 31
0.0
  0
LINE
  8
0
 62
     0
 10
3.57325
 20
4.86999
 30
0.0
 11
3.80062
 21
4.42489
 31
0.0
  0
LINE
  8
0
 62
     0
 10
3.80062
 20
4.42489
 30
0.0
 11
4.15477
 21
4.07074
 31
0.0
  0
LINE
  8
0
 62
     0
 10
4.15477
 20
4.07074
 30
0.0
 11
4.5999
 21
3.84334
 31
0.0
  0
LINE
  8
0
 62
     0
 10
4.5999
 20
3.84334
 30
0.0
 11
5.09598
 21
3.76619
 31
0.0
  0
LINE
  8
0
 62
     0
 10
5.09598
 20
3.76619
 30
0.0
 11
5.58934
 21
3.84334
 31
0.0
  0
LINE
  8
0
 62
     0
 10
5.58934
 20
3.84334
 30
0.0
 11
6.03582
 21
4.07074
 31
0.0
  0
LINE
  8
0
 62
     0
 10
6.03582
 20
4.07074
 30
0.0
 11
6.38997
 21
4.42489
 31
0.0
  0
LINE
  8
0
 62
     0
 10
6.38997
 20
4.42489
 30
0.0
 11
6.61596
 21
4.86999
 31
0.0
  0
LINE
  8
0
 62
     0
 10
6.61596
 20
4.86999
 30
0.0
 11
6.6959
 21
5.36607
 31
0.0
  0
LINE
  8
0
 62
     0
 10
6.6959
 20
5.36607
 30
0.0
 11
6.61596
 21
5.85943
 31
0.0
  0
LINE
  8
0
 62
     0
 10
6.61596
 20
5.85943
 30
0.0
 11
6.38997
 21
6.3059
 31
0.0
  0
LINE
  8
0
 62
     0
 10
6.38997
 20
6.3059
 30
0.0
 11
6.03582
 21
6.66006
 31
0.0
  0
LINE
  8
0
 62
     0
 10
6.03582
 20
6.66006
 30
0.0
 11
5.58934
 21
6.88605
 31
0.0
  0
LINE
  8
0
 62
     0
 10
5.58934
 20
6.88605
 30
0.0
 11
5.09598
 21
6.96461
 31
0.0
  0
LINE
  8
0
 62
     0
 10
5.09598
 20
6.96461
 30
0.0
 11
4.5999
 21
6.88605
 31
0.0
  0
LINE
  8
0
 62
     0
 10
89.2542
 20
6.88605
 30
0.0
 11
88.8076
 21
6.66006
 31
0.0
  0
LINE
  8
0
 62
     0
 10
88.8076
 20
6.66006
 30
0.0
 11
88.4534
 21
6.3059
 31
0.0
  0
LINE
  8
0
 62
     0
 10
88.4534
 20
6.3059
 30
0.0
 11
88.2262
 21
5.85943
 31
0.0
  0
LINE
  8
0
 62
     0
 10
88.2262
 20
5.85943
 30
0.0
 11
88.1489
 21
5.36607
 31
0.0
  0
LINE
  8
0
 62
     0
 10
88.1489
 20
5.36607
 30
0.0
 11
88.2262
 21
4.86999
 31
0.0
  0
LINE
  8
0
 62
     0
 10
88.2262
 20
4.86999
 30
0.0
 11
88.4534
 21
4.42489
 31
0.0
  0
LINE
  8
0
 62
     0
 10
88.4534
 20
4.42489
 30
0.0
 11
88.8076
 21
4.07074
 31
0.0
  0
LINE
  8
0
 62
     0
 10
88.8076
 20
4.07074
 30
0.0
 11
89.2542
 21
3.84334
 31
0.0
  0
LINE
  8
0
 62
     0
 10
89.2542
 20
3.84334
 30
0.0
 11
89.7488
 21
3.76619
 31
0.0
  0
LINE
  8
0
 62
     0
 10
89.7488
 20
3.76619
 30
0.0
 11
90.2423
 21
3.84334
 31
0.0
  0
LINE
  8
0
 62
     0
 10
90.2423
 20
3.84334
 30
0.0
 11
90.6886
 21
4.07074
 31
0.0
  0
LINE
  8
0
 62
     0
 10
90.6886
 20
4.07074
 30
0.0
 11
91.0428
 21
4.42489
 31
0.0
  0
LINE
  8
0
 62
     0
 10
91.0428
 20
4.42489
 30
0.0
 11
91.2703
 21
4.86999
 31
0.0
  0
LINE
  8
0
 62
     0
 10
91.2703
 20
4.86999
 30
0.0
 11
91.3486
 21
5.36607
 31
0.0
  0
LINE
  8
0
 62
     0
 10
91.3486
 20
5.36607
 30
0.0
 11
91.2703
 21
5.85943
 31
0.0
  0
LINE
  8
0
 62
     0
 10
91.2703
 20
5.85943
 30
0.0
 11
91.0428
 21
6.3059
 31
0.0
  0
LINE
  8
0
 62
     0
 10
91.0428
 20
6.3059
 30
0.0
 11
90.6886
 21
6.66006
 31
0.0
  0
LINE
  8
0
 62
     0
 10
90.6886
 20
6.66006
 30
0.0
 11
90.2423
 21
6.88605
 31
0.0
  0
LINE
  8
0
 62
     0
 10
90.2423
 20
6.88605
 30
0.0
 11
89.7488
 21
6.96461
 31
0.0
  0
LINE
  8
0
 62
     0
 10
89.7488
 20
6.96461
 30
0.0
 11
89.2542
 21
6.88605
 31
0.0
  0
LINE
  8
0
 62
     0
 10
173.907
 20
6.88605
 30
0.0
 11
173.462
 21
6.66006
 31
0.0
  0
LINE
  8
0
 62
     0
 10
173.462
 20
6.66006
 30
0.0
 11
173.108
 21
6.3059
 31
0.0
  0
LINE
  8
0
 62
     0
 10
173.108
 20
6.3059
 30
0.0
 11
172.881
 21
5.85943
 31
0.0
  0
LINE
  8
0
 62
     0
 10
172.881
 20
5.85943
 30
0.0
 11
172.802
 21
5.36607
 31
0.0
  0
LINE
  8
0
 62
     0
 10
172.802
 20
5.36607
 30
0.0
 11
172.881
 21
4.86999
 31
0.0
  0
LINE
  8
0
 62
     0
 10
172.881
 20
4.86999
 30
0.0
 11
173.108
 21
4.42489
 31
0.0
  0
LINE
  8
0
 62
     0
 10
173.108
 20
4.42489
 30
0.0
 11
173.462
 21
4.07074
 31
0.0
  0
LINE
  8
0
 62
     0
 10
173.462
 20
4.07074
 30
0.0
 11
173.907
 21
3.84334
 31
0.0
  0
LINE
  8
0
 62
     0
 10
173.907
 20
3.84334
 30
0.0
 11
174.402
 21
3.76619
 31
0.0
  0
LINE
  8
0
 62
     0
 10
174.402
 20
3.76619
 30
0.0
 11
174.897
 21
3.84334
 31
0.0
  0
LINE
  8
0
 62
     0
 10
174.897
 20
3.84334
 30
0.0
 11
175.343
 21
4.07074
 31
0.0
  0
LINE
  8
0
 62
     0
 10
175.343
 20
4.07074
 30
0.0
 11
175.697
 21
4.42489
 31
0.0
  0
LINE
  8
0
 62
     0
 10
175.697
 20
4.42489
 30
0.0
 11
175.923
 21
4.86999
 31
0.0
  0
LINE
  8
0
 62
     0
 10
175.923
 20
4.86999
 30
0.0
 11
176.002
 21
5.36607
 31
0.0
  0
LINE
  8
0
 62
     0
 10
176.002
 20
5.36607
 30
0.0
 11
175.923
 21
5.85943
 31
0.0
  0
LINE
  8
0
 62
     0
 10
175.923
 20
5.85943
 30
0.0
 11
175.697
 21
6.3059
 31
0.0
  0
LINE
  8
0
 62
     0
 10
175.697
 20
6.3059
 30
0.0
 11
175.343
 21
6.66006
 31
0.0
  0
LINE
  8
0
 62
     0
 10
175.343
 20
6.66006
 30
0.0
 11
174.897
 21
6.88605
 31
0.0
  0
LINE
  8
0
 62
     0
 10
174.897
 20
6.88605
 30
0.0
 11
174.402
 21
6.96461
 31
0.0
  0
LINE
  8
0
 62
     0
 10
174.402
 20
6.96461
 30
0.0
 11
173.907
 21
6.88605
 31
0.0
  0
LINE
  8
0
 62
     0
 10
258.56
 20
6.88605
 30
0.0
 11
258.115
 21
6.66006
 31
0.0
  0
LINE
  8
0
 62
     0
 10
258.115
 20
6.66006
 30
0.0
 11
257.761
 21
6.3059
 31
0.0
  0
LINE
  8
0
 62
     0
 10
257.761
 20
6.3059
 30
0.0
 11
257.533
 21
5.85943
 31
0.0
  0
LINE
  8
0
 62
     0
 10
257.533
 20
5.85943
 30
0.0
 11
257.456
 21
5.36607
 31
0.0
  0
LINE
  8
0
 62
     0
 10
257.456
 20
5.36607
 30
0.0
 11
257.533
 21
4.86999
 31
0.0
  0
LINE
  8
0
 62
     0
 10
257.533
 20
4.86999
 30
0.0
 11
257.761
 21
4.42489
 31
0.0
  0
LINE
  8
0
 62
     0
 10
257.761
 20
4.42489
 30
0.0
 11
258.115
 21
4.07074
 31
0.0
  0
LINE
  8
0
 62
     0
 10
258.115
 20
4.07074
 30
0.0
 11
258.56
 21
3.84334
 31
0.0
  0
LINE
  8
0
 62
     0
 10
258.56
 20
3.84334
 30
0.0
 11
259.056
 21
3.76619
 31
0.0
  0
LINE
  8
0
 62
     0
 10
259.056
 20
3.76619
 30
0.0
 11
259.549
 21
3.84334
 31
0.0
  0
LINE
  8
0
 62
     0
 10
259.549
 20
3.84334
 30
0.0
 11
259.996
 21
4.07074
 31
0.0
  0
LINE
  8
0
 62
     0
 10
259.996
 20
4.07074
 30
0.0
 11
260.35
 21
4.42489
 31
0.0
  0
LINE
  8
0
 62
     0
 10
260.35
 20
4.42489
 30
0.0
 11
260.576
 21
4.86999
 31
0.0
  0
LINE
  8
0
 62
     0
 10
260.576
 20
4.86999
 30
0.0
 11
260.656
 21
5.36607
 31
0.0
  0
LINE
  8
0
 62
     0
 10
260.656
 20
5.36607
 30
0.0
 11
260.576
 21
5.85943
 31
0.0
  0
LINE
  8
0
 62
     0
 10
260.576
 20
5.85943
 30
0.0
 11
260.35
 21
6.3059
 31
0.0
  0
LINE
  8
0
 62
     0
 10
260.35
 20
6.3059
 30
0.0
 11
259.996
 21
6.66006
 31
0.0
  0
LINE
  8
0
 62
     0
 10
259.996
 20
6.66006
 30
0.0
 11
259.549
 21
6.88605
 31
0.0
  0
LINE
  8
0
 62
     0
 10
259.549
 20
6.88605
 30
0.0
 11
259.056
 21
6.96461
 31
0.0
  0
LINE
  8
0
 62
     0
 10
259.056
 20
6.96461
 30
0.0
 11
258.56
 21
6.88605
 31
0.0
  0
LINE
  8
0
 62
     0
 10
343.214
 20
6.88605
 30
0.0
 11
342.769
 21
6.66006
 31
0.0
  0
LINE
  8
0
 62
     0
 10
342.769
 20
6.66006
 30
0.0
 11
342.415
 21
6.3059
 31
0.0
  0
LINE
  8
0
 62
     0
 10
342.415
 20
6.3059
 30
0.0
 11
342.186
 21
5.85943
 31
0.0
  0
LINE
  8
0
 62
     0
 10
342.186
 20
5.85943
 30
0.0
 11
342.109
 21
5.36607
 31
0.0
  0
LINE
  8
0
 62
     0
 10
342.109
 20
5.36607
 30
0.0
 11
342.186
 21
4.86999
 31
0.0
  0
LINE
  8
0
 62
     0
 10
342.186
 20
4.86999
 30
0.0
 11
342.415
 21
4.42489
 31
0.0
  0
LINE
  8
0
 62
     0
 10
342.415
 20
4.42489
 30
0.0
 11
342.769
 21
4.07074
 31
0.0
  0
LINE
  8
0
 62
     0
 10
342.769
 20
4.07074
 30
0.0
 11
343.214
 21
3.84334
 31
0.0
  0
LINE
  8
0
 62
     0
 10
343.214
 20
3.84334
 30
0.0
 11
343.709
 21
3.76619
 31
0.0
  0
LINE
  8
0
 62
     0
 10
343.709
 20
3.76619
 30
0.0
 11
344.202
 21
3.84334
 31
0.0
  0
LINE
  8
0
 62
     0
 10
344.202
 20
3.84334
 30
0.0
 11
344.649
 21
4.07074
 31
0.0
  0
LINE
  8
0
 62
     0
 10
344.649
 20
4.07074
 30
0.0
 11
345.003
 21
4.42489
 31
0.0
  0
LINE
  8
0
 62
     0
 10
345.003
 20
4.42489
 30
0.0
 11
345.23
 21
4.86999
 31
0.0
  0
LINE
  8
0
 62
     0
 10
345.23
 20
4.86999
 30
0.0
 11
345.309
 21
5.36607
 31
0.0
  0
LINE
  8
0
 62
     0
 10
345.309
 20
5.36607
 30
0.0
 11
345.23
 21
5.85943
 31
0.0
  0
LINE
  8
0
 62
     0
 10
345.23
 20
5.85943
 30
0.0
 11
345.003
 21
6.3059
 31
0.0
  0
LINE
  8
0
 62
     0
 10
345.003
 20
6.3059
 30
0.0
 11
344.649
 21
6.66006
 31
0.0
  0
LINE
  8
0
 62
     0
 10
344.649
 20
6.66006
 30
0.0
 11
344.202
 21
6.88605
 31
0.0
  0
LINE
  8
0
 62
     0
 10
344.202
 20
6.88605
 30
0.0
 11
343.709
 21
6.96461
 31
0.0
  0
LINE
  8
0
 62
     0
 10
343.709
 20
6.96461
 30
0.0
 11
343.214
 21
6.88605
 31
0.0
  0
LINE
  8
0
 62
     0
 10
162.639
 20
26.8911
 30
0.0
 11
162.639
 21
22.1905
 31
0.0
  0
LINE
  8
0
 62
     0
 10
162.639
 20
22.1905
 30
0.0
 11
161.113
 21
22.1905
 31
0.0
  0
LINE
  8
0
 62
     0
 10
161.113
 20
22.1905
 30
0.0
 11
161.113
 21
25.4207
 31
0.0
  0
LINE
  8
0
 62
     0
 10
161.113
 20
25.4207
 30
0.0
 11
154.364
 21
25.4207
 31
0.0
  0
LINE
  8
0
 62
     0
 10
154.364
 20
25.4207
 30
0.0
 11
154.364
 21
22.1905
 31
0.0
  0
LINE
  8
0
 62
     0
 10
154.364
 20
22.1905
 30
0.0
 11
153.538
 21
22.1905
 31
0.0
  0
LINE
  8
0
 62
     0
 10
153.538
 20
22.1905
 30
0.0
 11
153.538
 21
19.3904
 31
0.0
  0
LINE
  8
0
 62
     0
 10
153.538
 20
19.3904
 30
0.0
 11
154.364
 21
19.3904
 31
0.0
  0
LINE
  8
0
 62
     0
 10
154.364
 20
19.3904
 30
0.0
 11
154.364
 21
13.1217
 31
0.0
  0
LINE
  8
0
 62
     0
 10
154.364
 20
13.1217
 30
0.0
 11
156.089
 21
13.1217
 31
0.0
  0
LINE
  8
0
 62
     0
 10
156.089
 20
13.1217
 30
0.0
 11
156.089
 21
11.92
 31
0.0
  0
LINE
  8
0
 62
     0
 10
156.089
 20
11.92
 30
0.0
 11
159.388
 21
11.92
 31
0.0
  0
LINE
  8
0
 62
     0
 10
159.388
 20
11.92
 30
0.0
 11
159.388
 21
13.1217
 31
0.0
  0
LINE
  8
0
 62
     0
 10
159.388
 20
13.1217
 30
0.0
 11
161.113
 21
13.1217
 31
0.0
  0
LINE
  8
0
 62
     0
 10
161.113
 20
13.1217
 30
0.0
 11
161.113
 21
17.592
 31
0.0
  0
LINE
  8
0
 62
     0
 10
161.113
 20
17.592
 30
0.0
 11
162.639
 21
17.592
 31
0.0
  0
LINE
  8
0
 62
     0
 10
162.639
 20
17.592
 30
0.0
 11
162.639
 21
12.8902
 31
0.0
  0
LINE
  8
0
 62
     0
 10
162.639
 20
12.8902
 30
0.0
 11
176.638
 21
12.8902
 31
0.0
  0
LINE
  8
0
 62
     0
 10
176.638
 20
12.8902
 30
0.0
 11
176.638
 21
17.592
 31
0.0
  0
LINE
  8
0
 62
     0
 10
176.638
 20
17.592
 30
0.0
 11
178.164
 21
17.592
 31
0.0
  0
LINE
  8
0
 62
     0
 10
178.164
 20
17.592
 30
0.0
 11
178.164
 21
13.1217
 31
0.0
  0
LINE
  8
0
 62
     0
 10
178.164
 20
13.1217
 30
0.0
 11
179.889
 21
13.1217
 31
0.0
  0
LINE
  8
0
 62
     0
 10
179.889
 20
13.1217
 30
0.0
 11
179.889
 21
11.92
 31
0.0
  0
LINE
  8
0
 62
     0
 10
179.889
 20
11.92
 30
0.0
 11
183.188
 21
11.92
 31
0.0
  0
LINE
  8
0
 62
     0
 10
183.188
 20
11.92
 30
0.0
 11
183.188
 21
13.1217
 31
0.0
  0
LINE
  8
0
 62
     0
 10
183.188
 20
13.1217
 30
0.0
 11
184.913
 21
13.1217
 31
0.0
  0
LINE
  8
0
 62
     0
 10
184.913
 20
13.1217
 30
0.0
 11
184.913
 21
19.3904
 31
0.0
  0
LINE
  8
0
 62
     0
 10
184.913
 20
19.3904
 30
0.0
 11
185.739
 21
19.3904
 31
0.0
  0
LINE
  8
0
 62
     0
 10
185.739
 20
19.3904
 30
0.0
 11
185.739
 21
22.1905
 31
0.0
  0
LINE
  8
0
 62
     0
 10
185.739
 20
22.1905
 30
0.0
 11
184.913
 21
22.1905
 31
0.0
  0
LINE
  8
0
 62
     0
 10
184.913
 20
22.1905
 30
0.0
 11
184.913
 21
25.4207
 31
0.0
  0
LINE
  8
0
 62
     0
 10
184.913
 20
25.4207
 30
0.0
 11
178.164
 21
25.4207
 31
0.0
  0
LINE
  8
0
 62
     0
 10
178.164
 20
25.4207
 30
0.0
 11
178.164
 21
22.1905
 31
0.0
  0
LINE
  8
0
 62
     0
 10
178.164
 20
22.1905
 30
0.0
 11
176.638
 21
22.1905
 31
0.0
  0
LINE
  8
0
 62
     0
 10
176.638
 20
22.1905
 30
0.0
 11
176.638
 21
26.8911
 31
0.0
  0
LINE
  8
0
 62
     0
 10
176.638
 20
26.8911
 30
0.0
 11
162.639
 21
26.8911
 31
0.0
  0
LINE
  8
0
 62
     0
 10
95.9637
 20
26.8911
 30
0.0
 11
95.9637
 21
22.1905
 31
0.0
  0
LINE
  8
0
 62
     0
 10
95.9637
 20
22.1905
 30
0.0
 11
94.4383
 21
22.1905
 31
0.0
  0
LINE
  8
0
 62
     0
 10
94.4383
 20
22.1905
 30
0.0
 11
94.4383
 21
25.4207
 31
0.0
  0
LINE
  8
0
 62
     0
 10
94.4383
 20
25.4207
 30
0.0
 11
87.6886
 21
25.4207
 31
0.0
  0
LINE
  8
0
 62
     0
 10
87.6886
 20
25.4207
 30
0.0
 11
87.6886
 21
22.1905
 31
0.0
  0
LINE
  8
0
 62
     0
 10
87.6886
 20
22.1905
 30
0.0
 11
86.8634
 21
22.1905
 31
0.0
  0
LINE
  8
0
 62
     0
 10
86.8634
 20
22.1905
 30
0.0
 11
86.8634
 21
19.3904
 31
0.0
  0
LINE
  8
0
 62
     0
 10
86.8634
 20
19.3904
 30
0.0
 11
87.6886
 21
19.3904
 31
0.0
  0
LINE
  8
0
 62
     0
 10
87.6886
 20
19.3904
 30
0.0
 11
87.6886
 21
13.1217
 31
0.0
  0
LINE
  8
0
 62
     0
 10
87.6886
 20
13.1217
 30
0.0
 11
89.414
 21
13.1217
 31
0.0
  0
LINE
  8
0
 62
     0
 10
89.414
 20
13.1217
 30
0.0
 11
89.414
 21
11.92
 31
0.0
  0
LINE
  8
0
 62
     0
 10
89.414
 20
11.92
 30
0.0
 11
92.7132
 21
11.92
 31
0.0
  0
LINE
  8
0
 62
     0
 10
92.7132
 20
11.92
 30
0.0
 11
92.7132
 21
13.1217
 31
0.0
  0
LINE
  8
0
 62
     0
 10
92.7132
 20
13.1217
 30
0.0
 11
94.4383
 21
13.1217
 31
0.0
  0
LINE
  8
0
 62
     0
 10
94.4383
 20
13.1217
 30
0.0
 11
94.4383
 21
17.592
 31
0.0
  0
LINE
  8
0
 62
     0
 10
94.4383
 20
17.592
 30
0.0
 11
95.9637
 21
17.592
 31
0.0
  0
LINE
  8
0
 62
     0
 10
95.9637
 20
17.592
 30
0.0
 11
95.9637
 21
12.8902
 31
0.0
  0
LINE
  8
0
 62
     0
 10
95.9637
 20
12.8902
 30
0.0
 11
109.963
 21
12.8902
 31
0.0
  0
LINE
  8
0
 62
     0
 10
109.963
 20
12.8902
 30
0.0
 11
109.963
 21
17.592
 31
0.0
  0
LINE
  8
0
 62
     0
 10
109.963
 20
17.592
 30
0.0
 11
111.489
 21
17.592
 31
0.0
  0
LINE
  8
0
 62
     0
 10
111.489
 20
17.592
 30
0.0
 11
111.489
 21
13.1217
 31
0.0
  0
LINE
  8
0
 62
     0
 10
111.489
 20
13.1217
 30
0.0
 11
113.214
 21
13.1217
 31
0.0
  0
LINE
  8
0
 62
     0
 10
113.214
 20
13.1217
 30
0.0
 11
113.214
 21
11.92
 31
0.0
  0
LINE
  8
0
 62
     0
 10
113.214
 20
11.92
 30
0.0
 11
116.513
 21
11.92
 31
0.0
  0
LINE
  8
0
 62
     0
 10
116.513
 20
11.92
 30
0.0
 11
116.513
 21
13.1217
 31
0.0
  0
LINE
  8
0
 62
     0
 10
116.513
 20
13.1217
 30
0.0
 11
118.238
 21
13.1217
 31
0.0
  0
LINE
  8
0
 62
     0
 10
118.238
 20
13.1217
 30
0.0
 11
118.238
 21
19.3904
 31
0.0
  0
LINE
  8
0
 62
     0
 10
118.238
 20
19.3904
 30
0.0
 11
119.064
 21
19.3904
 31
0.0
  0
LINE
  8
0
 62
     0
 10
119.064
 20
19.3904
 30
0.0
 11
119.064
 21
22.1905
 31
0.0
  0
LINE
  8
0
 62
     0
 10
119.064
 20
22.1905
 30
0.0
 11
118.238
 21
22.1905
 31
0.0
  0
LINE
  8
0
 62
     0
 10
118.238
 20
22.1905
 30
0.0
 11
118.238
 21
25.4207
 31
0.0
  0
LINE
  8
0
 62
     0
 10
118.238
 20
25.4207
 30
0.0
 11
111.489
 21
25.4207
 31
0.0
  0
LINE
  8
0
 62
     0
 10
111.489
 20
25.4207
 30
0.0
 11
111.489
 21
22.1905
 31
0.0
  0
LINE
  8
0
 62
     0
 10
111.489
 20
22.1905
 30
0.0
 11
109.963
 21
22.1905
 31
0.0
  0
LINE
  8
0
 62
     0
 10
109.963
 20
22.1905
 30
0.0
 11
109.963
 21
26.8911
 31
0.0
  0
LINE
  8
0
 62
     0
 10
109.963
 20
26.8911
 30
0.0
 11
95.9637
 21
26.8911
 31
0.0
  0
LINE
  8
0
 62
     0
 10
317.42
 20
26.8911
 30
0.0
 11
331.421
 21
26.8911
 31
0.0
  0
LINE
  8
0
 62
     0
 10
331.421
 20
26.8911
 30
0.0
 11
331.421
 21
12.8902
 31
0.0
  0
LINE
  8
0
 62
     0
 10
331.421
 20
12.8902
 30
0.0
 11
317.42
 21
12.8902
 31
0.0
  0
LINE
  8
0
 62
     0
 10
317.42
 20
12.8902
 30
0.0
 11
317.42
 21
26.8911
 31
0.0
  0
LINE
  8
0
 62
     0
 10
298.37
 20
26.8911
 30
0.0
 11
312.371
 21
26.8911
 31
0.0
  0
LINE
  8
0
 62
     0
 10
312.371
 20
26.8911
 30
0.0
 11
312.371
 21
12.8902
 31
0.0
  0
LINE
  8
0
 62
     0
 10
312.371
 20
12.8902
 30
0.0
 11
298.37
 21
12.8902
 31
0.0
  0
LINE
  8
0
 62
     0
 10
298.37
 20
12.8902
 30
0.0
 11
298.37
 21
26.8911
 31
0.0
  0
LINE
  8
0
 62
     0
 10
279.32
 20
26.8911
 30
0.0
 11
293.321
 21
26.8911
 31
0.0
  0
LINE
  8
0
 62
     0
 10
293.321
 20
26.8911
 30
0.0
 11
293.321
 21
12.8902
 31
0.0
  0
LINE
  8
0
 62
     0
 10
293.321
 20
12.8902
 30
0.0
 11
279.32
 21
12.8902
 31
0.0
  0
LINE
  8
0
 62
     0
 10
279.32
 20
12.8902
 30
0.0
 11
279.32
 21
26.8911
 31
0.0
  0
LINE
  8
0
 62
     0
 10
248.364
 20
26.8911
 30
0.0
 11
262.363
 21
26.8911
 31
0.0
  0
LINE
  8
0
 62
     0
 10
262.363
 20
26.8911
 30
0.0
 11
262.363
 21
12.8902
 31
0.0
  0
LINE
  8
0
 62
     0
 10
262.363
 20
12.8902
 30
0.0
 11
248.364
 21
12.8902
 31
0.0
  0
LINE
  8
0
 62
     0
 10
248.364
 20
12.8902
 30
0.0
 11
248.364
 21
26.8911
 31
0.0
  0
LINE
  8
0
 62
     0
 10
224.551
 20
26.8911
 30
0.0
 11
238.551
 21
26.8911
 31
0.0
  0
LINE
  8
0
 62
     0
 10
238.551
 20
26.8911
 30
0.0
 11
238.551
 21
12.8902
 31
0.0
  0
LINE
  8
0
 62
     0
 10
238.551
 20
12.8902
 30
0.0
 11
224.551
 21
12.8902
 31
0.0
  0
LINE
  8
0
 62
     0
 10
224.551
 20
12.8902
 30
0.0
 11
224.551
 21
26.8911
 31
0.0
  0
LINE
  8
0
 62
     0
 10
200.739
 20
26.8911
 30
0.0
 11
214.738
 21
26.8911
 31
0.0
  0
LINE
  8
0
 62
     0
 10
214.738
 20
26.8911
 30
0.0
 11
214.738
 21
12.8902
 31
0.0
  0
LINE
  8
0
 62
     0
 10
214.738
 20
12.8902
 30
0.0
 11
200.739
 21
12.8902
 31
0.0
  0
LINE
  8
0
 62
     0
 10
200.739
 20
12.8902
 30
0.0
 11
200.739
 21
26.8911
 31
0.0
  0
LINE
  8
0
 62
     0
 10
126.92
 20
26.8911
 30
0.0
 11
140.921
 21
26.8911
 31
0.0
  0
LINE
  8
0
 62
     0
 10
140.921
 20
26.8911
 30
0.0
 11
140.921
 21
12.8902
 31
0.0
  0
LINE
  8
0
 62
     0
 10
140.921
 20
12.8902
 30
0.0
 11
126.92
 21
12.8902
 31
0.0
  0
LINE
  8
0
 62
     0
 10
126.92
 20
12.8902
 30
0.0
 11
126.92
 21
26.8911
 31
0.0
  0
LINE
  8
0
 62
     0
 10
62.6262
 20
26.8911
 30
0.0
 11
76.6258
 21
26.8911
 31
0.0
  0
LINE
  8
0
 62
     0
 10
76.6258
 20
26.8911
 30
0.0
 11
76.6258
 21
12.8902
 31
0.0
  0
LINE
  8
0
 62
     0
 10
76.6258
 20
12.8902
 30
0.0
 11
62.6262
 21
12.8902
 31
0.0
  0
LINE
  8
0
 62
     0
 10
62.6262
 20
12.8902
 30
0.0
 11
62.6262
 21
26.8911
 31
0.0
  0
LINE
  8
0
 62
     0
 10
38.8137
 20
26.8911
 30
0.0
 11
52.8133
 21
26.8911
 31
0.0
  0
LINE
  8
0
 62
     0
 10
52.8133
 20
26.8911
 30
0.0
 11
52.8133
 21
12.8902
 31
0.0
  0
LINE
  8
0
 62
     0
 10
52.8133
 20
12.8902
 30
0.0
 11
38.8137
 21
12.8902
 31
0.0
  0
LINE
  8
0
 62
     0
 10
38.8137
 20
12.8902
 30
0.0
 11
38.8137
 21
26.8911
 31
0.0
  0
LINE
  8
0
 62
     0
 10
15.0013
 20
26.8911
 30
0.0
 11
29.0008
 21
26.8911
 31
0.0
  0
LINE
  8
0
 62
     0
 10
29.0008
 20
26.8911
 30
0.0
 11
29.0008
 21
12.8902
 31
0.0
  0
LINE
  8
0
 62
     0
 10
29.0008
 20
12.8902
 30
0.0
 11
15.0013
 21
12.8902
 31
0.0
  0
LINE
  8
0
 62
     0
 10
15.0013
 20
12.8902
 30
0.0
 11
15.0013
 21
26.8911
 31
0.0
  0
LINE
  8
0
 62
     0
 10
303.132
 20
45.9412
 30
0.0
 11
317.132
 21
45.9412
 31
0.0
  0
LINE
  8
0
 62
     0
 10
317.132
 20
45.9412
 30
0.0
 11
317.132
 21
31.9402
 31
0.0
  0
LINE
  8
0
 62
     0
 10
317.132
 20
31.9402
 30
0.0
 11
303.132
 21
31.9402
 31
0.0
  0
LINE
  8
0
 62
     0
 10
303.132
 20
31.9402
 30
0.0
 11
303.132
 21
45.9412
 31
0.0
  0
LINE
  8
0
 62
     0
 10
279.32
 20
45.9412
 30
0.0
 11
293.321
 21
45.9412
 31
0.0
  0
LINE
  8
0
 62
     0
 10
293.321
 20
45.9412
 30
0.0
 11
293.321
 21
31.9402
 31
0.0
  0
LINE
  8
0
 62
     0
 10
293.321
 20
31.9402
 30
0.0
 11
279.32
 21
31.9402
 31
0.0
  0
LINE
  8
0
 62
     0
 10
279.32
 20
31.9402
 30
0.0
 11
279.32
 21
45.9412
 31
0.0
  0
LINE
  8
0
 62
     0
 10
253.126
 20
45.9412
 30
0.0
 11
267.126
 21
45.9412
 31
0.0
  0
LINE
  8
0
 62
     0
 10
267.126
 20
45.9412
 30
0.0
 11
267.126
 21
31.9402
 31
0.0
  0
LINE
  8
0
 62
     0
 10
267.126
 20
31.9402
 30
0.0
 11
253.126
 21
31.9402
 31
0.0
  0
LINE
  8
0
 62
     0
 10
253.126
 20
31.9402
 30
0.0
 11
253.126
 21
45.9412
 31
0.0
  0
LINE
  8
0
 62
     0
 10
226.932
 20
45.9412
 30
0.0
 11
240.932
 21
45.9412
 31
0.0
  0
LINE
  8
0
 62
     0
 10
240.932
 20
45.9412
 30
0.0
 11
240.932
 21
31.9402
 31
0.0
  0
LINE
  8
0
 62
     0
 10
240.932
 20
31.9402
 30
0.0
 11
226.932
 21
31.9402
 31
0.0
  0
LINE
  8
0
 62
     0
 10
226.932
 20
31.9402
 30
0.0
 11
226.932
 21
45.9412
 31
0.0
  0
LINE
  8
0
 62
     0
 10
207.882
 20
45.9412
 30
0.0
 11
221.882
 21
45.9412
 31
0.0
  0
LINE
  8
0
 62
     0
 10
221.882
 20
45.9412
 30
0.0
 11
221.882
 21
31.9402
 31
0.0
  0
LINE
  8
0
 62
     0
 10
221.882
 20
31.9402
 30
0.0
 11
207.882
 21
31.9402
 31
0.0
  0
LINE
  8
0
 62
     0
 10
207.882
 20
31.9402
 30
0.0
 11
207.882
 21
45.9412
 31
0.0
  0
LINE
  8
0
 62
     0
 10
188.832
 20
45.9412
 30
0.0
 11
202.832
 21
45.9412
 31
0.0
  0
LINE
  8
0
 62
     0
 10
202.832
 20
45.9412
 30
0.0
 11
202.832
 21
31.9402
 31
0.0
  0
LINE
  8
0
 62
     0
 10
202.832
 20
31.9402
 30
0.0
 11
188.832
 21
31.9402
 31
0.0
  0
LINE
  8
0
 62
     0
 10
188.832
 20
31.9402
 30
0.0
 11
188.832
 21
45.9412
 31
0.0
  0
LINE
  8
0
 62
     0
 10
169.782
 20
45.9412
 30
0.0
 11
183.782
 21
45.9412
 31
0.0
  0
LINE
  8
0
 62
     0
 10
183.782
 20
45.9412
 30
0.0
 11
183.782
 21
31.9402
 31
0.0
  0
LINE
  8
0
 62
     0
 10
183.782
 20
31.9402
 30
0.0
 11
169.782
 21
31.9402
 31
0.0
  0
LINE
  8
0
 62
     0
 10
169.782
 20
31.9402
 30
0.0
 11
169.782
 21
45.9412
 31
0.0
  0
LINE
  8
0
 62
     0
 10
150.732
 20
45.9412
 30
0.0
 11
164.732
 21
45.9412
 31
0.0
  0
LINE
  8
0
 62
     0
 10
164.732
 20
45.9412
 30
0.0
 11
164.732
 21
31.9402
 31
0.0
  0
LINE
  8
0
 62
     0
 10
164.732
 20
31.9402
 30
0.0
 11
150.732
 21
31.9402
 31
0.0
  0
LINE
  8
0
 62
     0
 10
150.732
 20
31.9402
 30
0.0
 11
150.732
 21
45.9412
 31
0.0
  0
LINE
  8
0
 62
     0
 10
131.682
 20
45.9412
 30
0.0
 11
145.682
 21
45.9412
 31
0.0
  0
LINE
  8
0
 62
     0
 10
145.682
 20
45.9412
 30
0.0
 11
145.682
 21
31.9402
 31
0.0
  0
LINE
  8
0
 62
     0
 10
145.682
 20
31.9402
 30
0.0
 11
131.682
 21
31.9402
 31
0.0
  0
LINE
  8
0
 62
     0
 10
131.682
 20
31.9402
 30
0.0
 11
131.682
 21
45.9412
 31
0.0
  0
LINE
  8
0
 62
     0
 10
112.632
 20
45.9412
 30
0.0
 11
126.632
 21
45.9412
 31
0.0
  0
LINE
  8
0
 62
     0
 10
126.632
 20
45.9412
 30
0.0
 11
126.632
 21
31.9402
 31
0.0
  0
LINE
  8
0
 62
     0
 10
126.632
 20
31.9402
 30
0.0
 11
112.632
 21
31.9402
 31
0.0
  0
LINE
  8
0
 62
     0
 10
112.632
 20
31.9402
 30
0.0
 11
112.632
 21
45.9412
 31
0.0
  0
LINE
  8
0
 62
     0
 10
93.5824
 20
45.9412
 30
0.0
 11
107.582
 21
45.9412
 31
0.0
  0
LINE
  8
0
 62
     0
 10
107.582
 20
45.9412
 30
0.0
 11
107.582
 21
31.9402
 31
0.0
  0
LINE
  8
0
 62
     0
 10
107.582
 20
31.9402
 30
0.0
 11
93.5824
 21
31.9402
 31
0.0
  0
LINE
  8
0
 62
     0
 10
93.5824
 20
31.9402
 30
0.0
 11
93.5824
 21
45.9412
 31
0.0
  0
LINE
  8
0
 62
     0
 10
74.5324
 20
45.9412
 30
0.0
 11
88.5321
 21
45.9412
 31
0.0
  0
LINE
  8
0
 62
     0
 10
88.5321
 20
45.9412
 30
0.0
 11
88.5321
 21
31.9402
 31
0.0
  0
LINE
  8
0
 62
     0
 10
88.5321
 20
31.9402
 30
0.0
 11
74.5324
 21
31.9402
 31
0.0
  0
LINE
  8
0
 62
     0
 10
74.5324
 20
31.9402
 30
0.0
 11
74.5324
 21
45.9412
 31
0.0
  0
LINE
  8
0
 62
     0
 10
55.4824
 20
45.9412
 30
0.0
 11
69.4821
 21
45.9412
 31
0.0
  0
LINE
  8
0
 62
     0
 10
69.4821
 20
45.9412
 30
0.0
 11
69.4821
 21
31.9402
 31
0.0
  0
LINE
  8
0
 62
     0
 10
69.4821
 20
31.9402
 30
0.0
 11
55.4824
 21
31.9402
 31
0.0
  0
LINE
  8
0
 62
     0
 10
55.4824
 20
31.9402
 30
0.0
 11
55.4824
 21
45.9412
 31
0.0
  0
LINE
  8
0
 62
     0
 10
36.4324
 20
45.9412
 30
0.0
 11
50.4321
 21
45.9412
 31
0.0
  0
LINE
  8
0
 62
     0
 10
50.4321
 20
45.9412
 30
0.0
 11
50.4321
 21
31.9402
 31
0.0
  0
LINE
  8
0
 62
     0
 10
50.4321
 20
31.9402
 30
0.0
 11
36.4324
 21
31.9402
 31
0.0
  0
LINE
  8
0
 62
     0
 10
36.4324
 20
31.9402
 30
0.0
 11
36.4324
 21
45.9412
 31
0.0
  0
LINE
  8
0
 62
     0
 10
15.0013
 20
45.9412
 30
0.0
 11
29.0008
 21
45.9412
 31
0.0
  0
LINE
  8
0
 62
     0
 10
29.0008
 20
45.9412
 30
0.0
 11
29.0008
 21
31.9402
 31
0.0
  0
LINE
  8
0
 62
     0
 10
29.0008
 20
31.9402
 30
0.0
 11
15.0013
 21
31.9402
 31
0.0
  0
LINE
  8
0
 62
     0
 10
15.0013
 20
31.9402
 30
0.0
 11
15.0013
 21
45.9412
 31
0.0
  0
LINE
  8
0
 62
     0
 10
255.506
 20
64.9912
 30
0.0
 11
269.507
 21
64.9912
 31
0.0
  0
LINE
  8
0
 62
     0
 10
269.507
 20
64.9912
 30
0.0
 11
269.507
 21
50.9901
 31
0.0
  0
LINE
  8
0
 62
     0
 10
269.507
 20
50.9901
 30
0.0
 11
255.506
 21
50.9901
 31
0.0
  0
LINE
  8
0
 62
     0
 10
255.506
 20
50.9901
 30
0.0
 11
255.506
 21
64.9912
 31
0.0
  0
LINE
  8
0
 62
     0
 10
236.457
 20
64.9912
 30
0.0
 11
250.457
 21
64.9912
 31
0.0
  0
LINE
  8
0
 62
     0
 10
250.457
 20
64.9912
 30
0.0
 11
250.457
 21
50.9901
 31
0.0
  0
LINE
  8
0
 62
     0
 10
250.457
 20
50.9901
 30
0.0
 11
236.457
 21
50.9901
 31
0.0
  0
LINE
  8
0
 62
     0
 10
236.457
 20
50.9901
 30
0.0
 11
236.457
 21
64.9912
 31
0.0
  0
LINE
  8
0
 62
     0
 10
217.407
 20
64.9912
 30
0.0
 11
231.407
 21
64.9912
 31
0.0
  0
LINE
  8
0
 62
     0
 10
231.407
 20
64.9912
 30
0.0
 11
231.407
 21
50.9901
 31
0.0
  0
LINE
  8
0
 62
     0
 10
231.407
 20
50.9901
 30
0.0
 11
217.407
 21
50.9901
 31
0.0
  0
LINE
  8
0
 62
     0
 10
217.407
 20
50.9901
 30
0.0
 11
217.407
 21
64.9912
 31
0.0
  0
LINE
  8
0
 62
     0
 10
198.357
 20
64.9912
 30
0.0
 11
212.357
 21
64.9912
 31
0.0
  0
LINE
  8
0
 62
     0
 10
212.357
 20
64.9912
 30
0.0
 11
212.357
 21
50.9901
 31
0.0
  0
LINE
  8
0
 62
     0
 10
212.357
 20
50.9901
 30
0.0
 11
198.357
 21
50.9901
 31
0.0
  0
LINE
  8
0
 62
     0
 10
198.357
 20
50.9901
 30
0.0
 11
198.357
 21
64.9912
 31
0.0
  0
LINE
  8
0
 62
     0
 10
179.307
 20
64.9912
 30
0.0
 11
193.307
 21
64.9912
 31
0.0
  0
LINE
  8
0
 62
     0
 10
193.307
 20
64.9912
 30
0.0
 11
193.307
 21
50.9901
 31
0.0
  0
LINE
  8
0
 62
     0
 10
193.307
 20
50.9901
 30
0.0
 11
179.307
 21
50.9901
 31
0.0
  0
LINE
  8
0
 62
     0
 10
179.307
 20
50.9901
 30
0.0
 11
179.307
 21
64.9912
 31
0.0
  0
LINE
  8
0
 62
     0
 10
160.257
 20
64.9912
 30
0.0
 11
174.257
 21
64.9912
 31
0.0
  0
LINE
  8
0
 62
     0
 10
174.257
 20
64.9912
 30
0.0
 11
174.257
 21
50.9901
 31
0.0
  0
LINE
  8
0
 62
     0
 10
174.257
 20
50.9901
 30
0.0
 11
160.257
 21
50.9901
 31
0.0
  0
LINE
  8
0
 62
     0
 10
160.257
 20
50.9901
 30
0.0
 11
160.257
 21
64.9912
 31
0.0
  0
LINE
  8
0
 62
     0
 10
141.207
 20
64.9912
 30
0.0
 11
155.207
 21
64.9912
 31
0.0
  0
LINE
  8
0
 62
     0
 10
155.207
 20
64.9912
 30
0.0
 11
155.207
 21
50.9901
 31
0.0
  0
LINE
  8
0
 62
     0
 10
155.207
 20
50.9901
 30
0.0
 11
141.207
 21
50.9901
 31
0.0
  0
LINE
  8
0
 62
     0
 10
141.207
 20
50.9901
 30
0.0
 11
141.207
 21
64.9912
 31
0.0
  0
LINE
  8
0
 62
     0
 10
122.157
 20
64.9912
 30
0.0
 11
136.157
 21
64.9912
 31
0.0
  0
LINE
  8
0
 62
     0
 10
136.157
 20
64.9912
 30
0.0
 11
136.157
 21
50.9901
 31
0.0
  0
LINE
  8
0
 62
     0
 10
136.157
 20
50.9901
 30
0.0
 11
122.157
 21
50.9901
 31
0.0
  0
LINE
  8
0
 62
     0
 10
122.157
 20
50.9901
 30
0.0
 11
122.157
 21
64.9912
 31
0.0
  0
LINE
  8
0
 62
     0
 10
103.107
 20
64.9912
 30
0.0
 11
117.107
 21
64.9912
 31
0.0
  0
LINE
  8
0
 62
     0
 10
117.107
 20
64.9912
 30
0.0
 11
117.107
 21
50.9901
 31
0.0
  0
LINE
  8
0
 62
     0
 10
117.107
 20
50.9901
 30
0.0
 11
103.107
 21
50.9901
 31
0.0
  0
LINE
  8
0
 62
     0
 10
103.107
 20
50.9901
 30
0.0
 11
103.107
 21
64.9912
 31
0.0
  0
LINE
  8
0
 62
     0
 10
84.0574
 20
64.9912
 30
0.0
 11
98.0571
 21
64.9912
 31
0.0
  0
LINE
  8
0
 62
     0
 10
98.0571
 20
64.9912
 30
0.0
 11
98.0571
 21
50.9901
 31
0.0
  0
LINE
  8
0
 62
     0
 10
98.0571
 20
50.9901
 30
0.0
 11
84.0574
 21
50.9901
 31
0.0
  0
LINE
  8
0
 62
     0
 10
84.0574
 20
50.9901
 30
0.0
 11
84.0574
 21
64.9912
 31
0.0
  0
LINE
  8
0
 62
     0
 10
65.0074
 20
64.9912
 30
0.0
 11
79.0071
 21
64.9912
 31
0.0
  0
LINE
  8
0
 62
     0
 10
79.0071
 20
64.9912
 30
0.0
 11
79.0071
 21
50.9901
 31
0.0
  0
LINE
  8
0
 62
     0
 10
79.0071
 20
50.9901
 30
0.0
 11
65.0074
 21
50.9901
 31
0.0
  0
LINE
  8
0
 62
     0
 10
65.0074
 20
50.9901
 30
0.0
 11
65.0074
 21
64.9912
 31
0.0
  0
LINE
  8
0
 62
     0
 10
45.9574
 20
64.9912
 30
0.0
 11
59.9571
 21
64.9912
 31
0.0
  0
LINE
  8
0
 62
     0
 10
59.9571
 20
64.9912
 30
0.0
 11
59.9571
 21
50.9901
 31
0.0
  0
LINE
  8
0
 62
     0
 10
59.9571
 20
50.9901
 30
0.0
 11
45.9574
 21
50.9901
 31
0.0
  0
LINE
  8
0
 62
     0
 10
45.9574
 20
50.9901
 30
0.0
 11
45.9574
 21
64.9912
 31
0.0
  0
LINE
  8
0
 62
     0
 10
19.7638
 20
64.9912
 30
0.0
 11
33.7633
 21
64.9912
 31
0.0
  0
LINE
  8
0
 62
     0
 10
33.7633
 20
64.9912
 30
0.0
 11
33.7633
 21
50.9901
 31
0.0
  0
LINE
  8
0
 62
     0
 10
33.7633
 20
50.9901
 30
0.0
 11
19.7638
 21
50.9901
 31
0.0
  0
LINE
  8
0
 62
     0
 10
19.7638
 20
50.9901
 30
0.0
 11
19.7638
 21
64.9912
 31
0.0
  0
LINE
  8
0
 62
     0
 10
283.439
 20
83.6154
 30
0.0
 11
283.439
 21
82.7913
 31
0.0
  0
LINE
  8
0
 62
     0
 10
283.439
 20
82.7913
 30
0.0
 11
277.169
 21
82.7913
 31
0.0
  0
LINE
  8
0
 62
     0
 10
277.169
 20
82.7913
 30
0.0
 11
277.169
 21
81.0659
 31
0.0
  0
LINE
  8
0
 62
     0
 10
277.169
 20
81.0659
 30
0.0
 11
275.969
 21
81.0659
 31
0.0
  0
LINE
  8
0
 62
     0
 10
275.969
 20
81.0659
 30
0.0
 11
275.969
 21
77.7656
 31
0.0
  0
LINE
  8
0
 62
     0
 10
275.969
 20
77.7656
 30
0.0
 11
277.169
 21
77.7656
 31
0.0
  0
LINE
  8
0
 62
     0
 10
277.169
 20
77.7656
 30
0.0
 11
277.169
 21
76.0402
 31
0.0
  0
LINE
  8
0
 62
     0
 10
277.169
 20
76.0402
 30
0.0
 11
281.638
 21
76.0402
 31
0.0
  0
LINE
  8
0
 62
     0
 10
281.638
 20
76.0402
 30
0.0
 11
281.638
 21
74.5162
 31
0.0
  0
LINE
  8
0
 62
     0
 10
281.638
 20
74.5162
 30
0.0
 11
276.939
 21
74.5162
 31
0.0
  0
LINE
  8
0
 62
     0
 10
276.939
 20
74.5162
 30
0.0
 11
276.939
 21
60.5151
 31
0.0
  0
LINE
  8
0
 62
     0
 10
276.939
 20
60.5151
 30
0.0
 11
281.638
 21
60.5151
 31
0.0
  0
LINE
  8
0
 62
     0
 10
281.638
 20
60.5151
 30
0.0
 11
281.638
 21
58.9911
 31
0.0
  0
LINE
  8
0
 62
     0
 10
281.638
 20
58.9911
 30
0.0
 11
277.169
 21
58.9911
 31
0.0
  0
LINE
  8
0
 62
     0
 10
277.169
 20
58.9911
 30
0.0
 11
277.169
 21
57.2657
 31
0.0
  0
LINE
  8
0
 62
     0
 10
277.169
 20
57.2657
 30
0.0
 11
275.969
 21
57.2657
 31
0.0
  0
LINE
  8
0
 62
     0
 10
275.969
 20
57.2657
 30
0.0
 11
275.969
 21
53.9655
 31
0.0
  0
LINE
  8
0
 62
     0
 10
275.969
 20
53.9655
 30
0.0
 11
277.169
 21
53.9655
 31
0.0
  0
LINE
  8
0
 62
     0
 10
277.169
 20
53.9655
 30
0.0
 11
277.169
 21
52.24
 31
0.0
  0
LINE
  8
0
 62
     0
 10
277.169
 20
52.24
 30
0.0
 11
283.439
 21
52.24
 31
0.0
  0
LINE
  8
0
 62
     0
 10
283.439
 20
52.24
 30
0.0
 11
283.439
 21
51.416
 31
0.0
  0
LINE
  8
0
 62
     0
 10
283.439
 20
51.416
 30
0.0
 11
286.238
 21
51.416
 31
0.0
  0
LINE
  8
0
 62
     0
 10
286.238
 20
51.416
 30
0.0
 11
286.238
 21
52.24
 31
0.0
  0
LINE
  8
0
 62
     0
 10
286.238
 20
52.24
 30
0.0
 11
289.468
 21
52.24
 31
0.0
  0
LINE
  8
0
 62
     0
 10
289.468
 20
52.24
 30
0.0
 11
289.468
 21
58.9911
 31
0.0
  0
LINE
  8
0
 62
     0
 10
289.468
 20
58.9911
 30
0.0
 11
286.238
 21
58.9911
 31
0.0
  0
LINE
  8
0
 62
     0
 10
286.238
 20
58.9911
 30
0.0
 11
286.238
 21
60.5151
 31
0.0
  0
LINE
  8
0
 62
     0
 10
286.238
 20
60.5151
 30
0.0
 11
290.938
 21
60.5151
 31
0.0
  0
LINE
  8
0
 62
     0
 10
290.938
 20
60.5151
 30
0.0
 11
290.938
 21
74.5162
 31
0.0
  0
LINE
  8
0
 62
     0
 10
290.938
 20
74.5162
 30
0.0
 11
286.238
 21
74.5162
 31
0.0
  0
LINE
  8
0
 62
     0
 10
286.238
 20
74.5162
 30
0.0
 11
286.238
 21
76.0402
 31
0.0
  0
LINE
  8
0
 62
     0
 10
286.238
 20
76.0402
 30
0.0
 11
289.468
 21
76.0402
 31
0.0
  0
LINE
  8
0
 62
     0
 10
289.468
 20
76.0402
 30
0.0
 11
289.468
 21
82.7913
 31
0.0
  0
LINE
  8
0
 62
     0
 10
289.468
 20
82.7913
 30
0.0
 11
286.238
 21
82.7913
 31
0.0
  0
LINE
  8
0
 62
     0
 10
286.238
 20
82.7913
 30
0.0
 11
286.238
 21
83.6154
 31
0.0
  0
LINE
  8
0
 62
     0
 10
286.238
 20
83.6154
 30
0.0
 11
283.439
 21
83.6154
 31
0.0
  0
LINE
  8
0
 62
     0
 10
322.182
 20
84.0412
 30
0.0
 11
336.182
 21
84.0412
 31
0.0
  0
LINE
  8
0
 62
     0
 10
336.182
 20
84.0412
 30
0.0
 11
336.182
 21
70.0401
 31
0.0
  0
LINE
  8
0
 62
     0
 10
336.182
 20
70.0401
 30
0.0
 11
322.182
 21
70.0401
 31
0.0
  0
LINE
  8
0
 62
     0
 10
322.182
 20
70.0401
 30
0.0
 11
322.182
 21
84.0412
 31
0.0
  0
LINE
  8
0
 62
     0
 10
303.132
 20
84.0412
 30
0.0
 11
317.132
 21
84.0412
 31
0.0
  0
LINE
  8
0
 62
     0
 10
317.132
 20
84.0412
 30
0.0
 11
317.132
 21
70.0401
 31
0.0
  0
LINE
  8
0
 62
     0
 10
317.132
 20
70.0401
 30
0.0
 11
303.132
 21
70.0401
 31
0.0
  0
LINE
  8
0
 62
     0
 10
303.132
 20
70.0401
 30
0.0
 11
303.132
 21
84.0412
 31
0.0
  0
LINE
  8
0
 62
     0
 10
250.745
 20
84.0412
 30
0.0
 11
264.746
 21
84.0412
 31
0.0
  0
LINE
  8
0
 62
     0
 10
264.746
 20
84.0412
 30
0.0
 11
264.746
 21
70.0401
 31
0.0
  0
LINE
  8
0
 62
     0
 10
264.746
 20
70.0401
 30
0.0
 11
250.745
 21
70.0401
 31
0.0
  0
LINE
  8
0
 62
     0
 10
250.745
 20
70.0401
 30
0.0
 11
250.745
 21
84.0412
 31
0.0
  0
LINE
  8
0
 62
     0
 10
231.695
 20
84.0412
 30
0.0
 11
245.696
 21
84.0412
 31
0.0
  0
LINE
  8
0
 62
     0
 10
245.696
 20
84.0412
 30
0.0
 11
245.696
 21
70.0401
 31
0.0
  0
LINE
  8
0
 62
     0
 10
245.696
 20
70.0401
 30
0.0
 11
231.695
 21
70.0401
 31
0.0
  0
LINE
  8
0
 62
     0
 10
231.695
 20
70.0401
 30
0.0
 11
231.695
 21
84.0412
 31
0.0
  0
LINE
  8
0
 62
     0
 10
212.645
 20
84.0412
 30
0.0
 11
226.646
 21
84.0412
 31
0.0
  0
LINE
  8
0
 62
     0
 10
226.646
 20
84.0412
 30
0.0
 11
226.646
 21
70.0401
 31
0.0
  0
LINE
  8
0
 62
     0
 10
226.646
 20
70.0401
 30
0.0
 11
212.645
 21
70.0401
 31
0.0
  0
LINE
  8
0
 62
     0
 10
212.645
 20
70.0401
 30
0.0
 11
212.645
 21
84.0412
 31
0.0
  0
LINE
  8
0
 62
     0
 10
193.595
 20
84.0412
 30
0.0
 11
207.596
 21
84.0412
 31
0.0
  0
LINE
  8
0
 62
     0
 10
207.596
 20
84.0412
 30
0.0
 11
207.596
 21
70.0401
 31
0.0
  0
LINE
  8
0
 62
     0
 10
207.596
 20
70.0401
 30
0.0
 11
193.595
 21
70.0401
 31
0.0
  0
LINE
  8
0
 62
     0
 10
193.595
 20
70.0401
 30
0.0
 11
193.595
 21
84.0412
 31
0.0
  0
LINE
  8
0
 62
     0
 10
174.545
 20
84.0412
 30
0.0
 11
188.546
 21
84.0412
 31
0.0
  0
LINE
  8
0
 62
     0
 10
188.546
 20
84.0412
 30
0.0
 11
188.546
 21
70.0401
 31
0.0
  0
LINE
  8
0
 62
     0
 10
188.546
 20
70.0401
 30
0.0
 11
174.545
 21
70.0401
 31
0.0
  0
LINE
  8
0
 62
     0
 10
174.545
 20
70.0401
 30
0.0
 11
174.545
 21
84.0412
 31
0.0
  0
LINE
  8
0
 62
     0
 10
155.495
 20
84.0412
 30
0.0
 11
169.496
 21
84.0412
 31
0.0
  0
LINE
  8
0
 62
     0
 10
169.496
 20
84.0412
 30
0.0
 11
169.496
 21
70.0401
 31
0.0
  0
LINE
  8
0
 62
     0
 10
169.496
 20
70.0401
 30
0.0
 11
155.495
 21
70.0401
 31
0.0
  0
LINE
  8
0
 62
     0
 10
155.495
 20
70.0401
 30
0.0
 11
155.495
 21
84.0412
 31
0.0
  0
LINE
  8
0
 62
     0
 10
136.445
 20
84.0412
 30
0.0
 11
150.446
 21
84.0412
 31
0.0
  0
LINE
  8
0
 62
     0
 10
150.446
 20
84.0412
 30
0.0
 11
150.446
 21
70.0401
 31
0.0
  0
LINE
  8
0
 62
     0
 10
150.446
 20
70.0401
 30
0.0
 11
136.445
 21
70.0401
 31
0.0
  0
LINE
  8
0
 62
     0
 10
136.445
 20
70.0401
 30
0.0
 11
136.445
 21
84.0412
 31
0.0
  0
LINE
  8
0
 62
     0
 10
117.395
 20
84.0412
 30
0.0
 11
131.396
 21
84.0412
 31
0.0
  0
LINE
  8
0
 62
     0
 10
131.396
 20
84.0412
 30
0.0
 11
131.396
 21
70.0401
 31
0.0
  0
LINE
  8
0
 62
     0
 10
131.396
 20
70.0401
 30
0.0
 11
117.395
 21
70.0401
 31
0.0
  0
LINE
  8
0
 62
     0
 10
117.395
 20
70.0401
 30
0.0
 11
117.395
 21
84.0412
 31
0.0
  0
LINE
  8
0
 62
     0
 10
98.3449
 20
84.0412
 30
0.0
 11
112.346
 21
84.0412
 31
0.0
  0
LINE
  8
0
 62
     0
 10
112.346
 20
84.0412
 30
0.0
 11
112.346
 21
70.0401
 31
0.0
  0
LINE
  8
0
 62
     0
 10
112.346
 20
70.0401
 30
0.0
 11
98.3449
 21
70.0401
 31
0.0
  0
LINE
  8
0
 62
     0
 10
98.3449
 20
70.0401
 30
0.0
 11
98.3449
 21
84.0412
 31
0.0
  0
LINE
  8
0
 62
     0
 10
79.2949
 20
84.0412
 30
0.0
 11
93.296
 21
84.0412
 31
0.0
  0
LINE
  8
0
 62
     0
 10
93.296
 20
84.0412
 30
0.0
 11
93.296
 21
70.0401
 31
0.0
  0
LINE
  8
0
 62
     0
 10
93.296
 20
70.0401
 30
0.0
 11
79.2949
 21
70.0401
 31
0.0
  0
LINE
  8
0
 62
     0
 10
79.2949
 20
70.0401
 30
0.0
 11
79.2949
 21
84.0412
 31
0.0
  0
LINE
  8
0
 62
     0
 10
60.2449
 20
84.0412
 30
0.0
 11
74.246
 21
84.0412
 31
0.0
  0
LINE
  8
0
 62
     0
 10
74.246
 20
84.0412
 30
0.0
 11
74.246
 21
70.0401
 31
0.0
  0
LINE
  8
0
 62
     0
 10
74.246
 20
70.0401
 30
0.0
 11
60.2449
 21
70.0401
 31
0.0
  0
LINE
  8
0
 62
     0
 10
60.2449
 20
70.0401
 30
0.0
 11
60.2449
 21
84.0412
 31
0.0
  0
LINE
  8
0
 62
     0
 10
41.1949
 20
84.0412
 30
0.0
 11
55.196
 21
84.0412
 31
0.0
  0
LINE
  8
0
 62
     0
 10
55.196
 20
84.0412
 30
0.0
 11
55.196
 21
70.0401
 31
0.0
  0
LINE
  8
0
 62
     0
 10
55.196
 20
70.0401
 30
0.0
 11
41.1949
 21
70.0401
 31
0.0
  0
LINE
  8
0
 62
     0
 10
41.1949
 20
70.0401
 30
0.0
 11
41.1949
 21
84.0412
 31
0.0
  0
LINE
  8
0
 62
     0
 10
17.3826
 20
84.0412
 30
0.0
 11
31.3821
 21
84.0412
 31
0.0
  0
LINE
  8
0
 62
     0
 10
31.3821
 20
84.0412
 30
0.0
 11
31.3821
 21
70.0401
 31
0.0
  0
LINE
  8
0
 62
     0
 10
31.3821
 20
70.0401
 30
0.0
 11
17.3826
 21
70.0401
 31
0.0
  0
LINE
  8
0
 62
     0
 10
17.3826
 20
70.0401
 30
0.0
 11
17.3826
 21
84.0412
 31
0.0
  0
LINE
  8
0
 62
     0
 10
269.795
 20
103.091
 30
0.0
 11
269.795
 21
98.3918
 31
0.0
  0
LINE
  8
0
 62
     0
 10
269.795
 20
98.3918
 30
0.0
 11
268.271
 21
98.3918
 31
0.0
  0
LINE
  8
0
 62
     0
 10
268.271
 20
98.3918
 30
0.0
 11
268.271
 21
101.622
 31
0.0
  0
LINE
  8
0
 62
     0
 10
268.271
 20
101.622
 30
0.0
 11
261.52
 21
101.622
 31
0.0
  0
LINE
  8
0
 62
     0
 10
261.52
 20
101.622
 30
0.0
 11
261.52
 21
98.3918
 31
0.0
  0
LINE
  8
0
 62
     0
 10
261.52
 20
98.3918
 30
0.0
 11
260.696
 21
98.3918
 31
0.0
  0
LINE
  8
0
 62
     0
 10
260.696
 20
98.3918
 30
0.0
 11
260.696
 21
95.5904
 31
0.0
  0
LINE
  8
0
 62
     0
 10
260.696
 20
95.5904
 30
0.0
 11
261.52
 21
95.5904
 31
0.0
  0
LINE
  8
0
 62
     0
 10
261.52
 20
95.5904
 30
0.0
 11
261.52
 21
89.3216
 31
0.0
  0
LINE
  8
0
 62
     0
 10
261.52
 20
89.3216
 30
0.0
 11
263.245
 21
89.3216
 31
0.0
  0
LINE
  8
0
 62
     0
 10
263.245
 20
89.3216
 30
0.0
 11
263.245
 21
88.1214
 31
0.0
  0
LINE
  8
0
 62
     0
 10
263.245
 20
88.1214
 30
0.0
 11
266.546
 21
88.1214
 31
0.0
  0
LINE
  8
0
 62
     0
 10
266.546
 20
88.1214
 30
0.0
 11
266.546
 21
89.3216
 31
0.0
  0
LINE
  8
0
 62
     0
 10
266.546
 20
89.3216
 30
0.0
 11
268.271
 21
89.3216
 31
0.0
  0
LINE
  8
0
 62
     0
 10
268.271
 20
89.3216
 30
0.0
 11
268.271
 21
93.7906
 31
0.0
  0
LINE
  8
0
 62
     0
 10
268.271
 20
93.7906
 30
0.0
 11
269.795
 21
93.7906
 31
0.0
  0
LINE
  8
0
 62
     0
 10
269.795
 20
93.7906
 30
0.0
 11
269.795
 21
89.0901
 31
0.0
  0
LINE
  8
0
 62
     0
 10
269.795
 20
89.0901
 30
0.0
 11
283.796
 21
89.0901
 31
0.0
  0
LINE
  8
0
 62
     0
 10
283.796
 20
89.0901
 30
0.0
 11
283.796
 21
93.7906
 31
0.0
  0
LINE
  8
0
 62
     0
 10
283.796
 20
93.7906
 30
0.0
 11
285.32
 21
93.7906
 31
0.0
  0
LINE
  8
0
 62
     0
 10
285.32
 20
93.7906
 30
0.0
 11
285.32
 21
89.3216
 31
0.0
  0
LINE
  8
0
 62
     0
 10
285.32
 20
89.3216
 30
0.0
 11
287.045
 21
89.3216
 31
0.0
  0
LINE
  8
0
 62
     0
 10
287.045
 20
89.3216
 30
0.0
 11
287.045
 21
88.1214
 31
0.0
  0
LINE
  8
0
 62
     0
 10
287.045
 20
88.1214
 30
0.0
 11
290.346
 21
88.1214
 31
0.0
  0
LINE
  8
0
 62
     0
 10
290.346
 20
88.1214
 30
0.0
 11
290.346
 21
89.3216
 31
0.0
  0
LINE
  8
0
 62
     0
 10
290.346
 20
89.3216
 30
0.0
 11
292.071
 21
89.3216
 31
0.0
  0
LINE
  8
0
 62
     0
 10
292.071
 20
89.3216
 30
0.0
 11
292.071
 21
95.5904
 31
0.0
  0
LINE
  8
0
 62
     0
 10
292.071
 20
95.5904
 30
0.0
 11
292.895
 21
95.5904
 31
0.0
  0
LINE
  8
0
 62
     0
 10
292.895
 20
95.5904
 30
0.0
 11
292.895
 21
98.3918
 31
0.0
  0
LINE
  8
0
 62
     0
 10
292.895
 20
98.3918
 30
0.0
 11
292.071
 21
98.3918
 31
0.0
  0
LINE
  8
0
 62
     0
 10
292.071
 20
98.3918
 30
0.0
 11
292.071
 21
101.622
 31
0.0
  0
LINE
  8
0
 62
     0
 10
292.071
 20
101.622
 30
0.0
 11
285.32
 21
101.622
 31
0.0
  0
LINE
  8
0
 62
     0
 10
285.32
 20
101.622
 30
0.0
 11
285.32
 21
98.3918
 31
0.0
  0
LINE
  8
0
 62
     0
 10
285.32
 20
98.3918
 30
0.0
 11
283.796
 21
98.3918
 31
0.0
  0
LINE
  8
0
 62
     0
 10
283.796
 20
98.3918
 30
0.0
 11
283.796
 21
103.091
 31
0.0
  0
LINE
  8
0
 62
     0
 10
283.796
 20
103.091
 30
0.0
 11
269.795
 21
103.091
 31
0.0
  0
LINE
  8
0
 62
     0
 10
322.182
 20
103.091
 30
0.0
 11
336.182
 21
103.091
 31
0.0
  0
LINE
  8
0
 62
     0
 10
336.182
 20
103.091
 30
0.0
 11
336.182
 21
89.0901
 31
0.0
  0
LINE
  8
0
 62
     0
 10
336.182
 20
89.0901
 30
0.0
 11
322.182
 21
89.0901
 31
0.0
  0
LINE
  8
0
 62
     0
 10
322.182
 20
89.0901
 30
0.0
 11
322.182
 21
103.091
 31
0.0
  0
LINE
  8
0
 62
     0
 10
303.132
 20
103.091
 30
0.0
 11
317.132
 21
103.091
 31
0.0
  0
LINE
  8
0
 62
     0
 10
317.132
 20
103.091
 30
0.0
 11
317.132
 21
89.0901
 31
0.0
  0
LINE
  8
0
 62
     0
 10
317.132
 20
89.0901
 30
0.0
 11
303.132
 21
89.0901
 31
0.0
  0
LINE
  8
0
 62
     0
 10
303.132
 20
89.0901
 30
0.0
 11
303.132
 21
103.091
 31
0.0
  0
LINE
  8
0
 62
     0
 10
241.22
 20
103.091
 30
0.0
 11
255.221
 21
103.091
 31
0.0
  0
LINE
  8
0
 62
     0
 10
255.221
 20
103.091
 30
0.0
 11
255.221
 21
89.0901
 31
0.0
  0
LINE
  8
0
 62
     0
 10
255.221
 20
89.0901
 30
0.0
 11
241.22
 21
89.0901
 31
0.0
  0
LINE
  8
0
 62
     0
 10
241.22
 20
89.0901
 30
0.0
 11
241.22
 21
103.091
 31
0.0
  0
LINE
  8
0
 62
     0
 10
222.17
 20
103.091
 30
0.0
 11
236.171
 21
103.091
 31
0.0
  0
LINE
  8
0
 62
     0
 10
236.171
 20
103.091
 30
0.0
 11
236.171
 21
89.0901
 31
0.0
  0
LINE
  8
0
 62
     0
 10
236.171
 20
89.0901
 30
0.0
 11
222.17
 21
89.0901
 31
0.0
  0
LINE
  8
0
 62
     0
 10
222.17
 20
89.0901
 30
0.0
 11
222.17
 21
103.091
 31
0.0
  0
LINE
  8
0
 62
     0
 10
203.12
 20
103.091
 30
0.0
 11
217.121
 21
103.091
 31
0.0
  0
LINE
  8
0
 62
     0
 10
217.121
 20
103.091
 30
0.0
 11
217.121
 21
89.0901
 31
0.0
  0
LINE
  8
0
 62
     0
 10
217.121
 20
89.0901
 30
0.0
 11
203.12
 21
89.0901
 31
0.0
  0
LINE
  8
0
 62
     0
 10
203.12
 20
89.0901
 30
0.0
 11
203.12
 21
103.091
 31
0.0
  0
LINE
  8
0
 62
     0
 10
184.07
 20
103.091
 30
0.0
 11
198.071
 21
103.091
 31
0.0
  0
LINE
  8
0
 62
     0
 10
198.071
 20
103.091
 30
0.0
 11
198.071
 21
89.0901
 31
0.0
  0
LINE
  8
0
 62
     0
 10
198.071
 20
89.0901
 30
0.0
 11
184.07
 21
89.0901
 31
0.0
  0
LINE
  8
0
 62
     0
 10
184.07
 20
89.0901
 30
0.0
 11
184.07
 21
103.091
 31
0.0
  0
LINE
  8
0
 62
     0
 10
165.02
 20
103.091
 30
0.0
 11
179.021
 21
103.091
 31
0.0
  0
LINE
  8
0
 62
     0
 10
179.021
 20
103.091
 30
0.0
 11
179.021
 21
89.0901
 31
0.0
  0
LINE
  8
0
 62
     0
 10
179.021
 20
89.0901
 30
0.0
 11
165.02
 21
89.0901
 31
0.0
  0
LINE
  8
0
 62
     0
 10
165.02
 20
89.0901
 30
0.0
 11
165.02
 21
103.091
 31
0.0
  0
LINE
  8
0
 62
     0
 10
145.97
 20
103.091
 30
0.0
 11
159.971
 21
103.091
 31
0.0
  0
LINE
  8
0
 62
     0
 10
159.971
 20
103.091
 30
0.0
 11
159.971
 21
89.0901
 31
0.0
  0
LINE
  8
0
 62
     0
 10
159.971
 20
89.0901
 30
0.0
 11
145.97
 21
89.0901
 31
0.0
  0
LINE
  8
0
 62
     0
 10
145.97
 20
89.0901
 30
0.0
 11
145.97
 21
103.091
 31
0.0
  0
LINE
  8
0
 62
     0
 10
126.92
 20
103.091
 30
0.0
 11
140.921
 21
103.091
 31
0.0
  0
LINE
  8
0
 62
     0
 10
140.921
 20
103.091
 30
0.0
 11
140.921
 21
89.0901
 31
0.0
  0
LINE
  8
0
 62
     0
 10
140.921
 20
89.0901
 30
0.0
 11
126.92
 21
89.0901
 31
0.0
  0
LINE
  8
0
 62
     0
 10
126.92
 20
89.0901
 30
0.0
 11
126.92
 21
103.091
 31
0.0
  0
LINE
  8
0
 62
     0
 10
107.87
 20
103.091
 30
0.0
 11
121.87
 21
103.091
 31
0.0
  0
LINE
  8
0
 62
     0
 10
121.87
 20
103.091
 30
0.0
 11
121.87
 21
89.0901
 31
0.0
  0
LINE
  8
0
 62
     0
 10
121.87
 20
89.0901
 30
0.0
 11
107.87
 21
89.0901
 31
0.0
  0
LINE
  8
0
 62
     0
 10
107.87
 20
89.0901
 30
0.0
 11
107.87
 21
103.091
 31
0.0
  0
LINE
  8
0
 62
     0
 10
88.8199
 20
103.091
 30
0.0
 11
102.821
 21
103.091
 31
0.0
  0
LINE
  8
0
 62
     0
 10
102.821
 20
103.091
 30
0.0
 11
102.821
 21
89.0901
 31
0.0
  0
LINE
  8
0
 62
     0
 10
102.821
 20
89.0901
 30
0.0
 11
88.8199
 21
89.0901
 31
0.0
  0
LINE
  8
0
 62
     0
 10
88.8199
 20
89.0901
 30
0.0
 11
88.8199
 21
103.091
 31
0.0
  0
LINE
  8
0
 62
     0
 10
69.7699
 20
103.091
 30
0.0
 11
83.771
 21
103.091
 31
0.0
  0
LINE
  8
0
 62
     0
 10
83.771
 20
103.091
 30
0.0
 11
83.771
 21
89.0901
 31
0.0
  0
LINE
  8
0
 62
     0
 10
83.771
 20
89.0901
 30
0.0
 11
69.7699
 21
89.0901
 31
0.0
  0
LINE
  8
0
 62
     0
 10
69.7699
 20
89.0901
 30
0.0
 11
69.7699
 21
103.091
 31
0.0
  0
LINE
  8
0
 62
     0
 10
50.7199
 20
103.091
 30
0.0
 11
64.721
 21
103.091
 31
0.0
  0
LINE
  8
0
 62
     0
 10
64.721
 20
103.091
 30
0.0
 11
64.721
 21
89.0901
 31
0.0
  0
LINE
  8
0
 62
     0
 10
64.721
 20
89.0901
 30
0.0
 11
50.7199
 21
89.0901
 31
0.0
  0
LINE
  8
0
 62
     0
 10
50.7199
 20
89.0901
 30
0.0
 11
50.7199
 21
103.091
 31
0.0
  0
LINE
  8
0
 62
     0
 10
31.6701
 20
103.091
 30
0.0
 11
45.671
 21
103.091
 31
0.0
  0
LINE
  8
0
 62
     0
 10
45.671
 20
103.091
 30
0.0
 11
45.671
 21
89.0901
 31
0.0
  0
LINE
  8
0
 62
     0
 10
45.671
 20
89.0901
 30
0.0
 11
31.6701
 21
89.0901
 31
0.0
  0
LINE
  8
0
 62
     0
 10
31.6701
 20
89.0901
 30
0.0
 11
31.6701
 21
103.091
 31
0.0
  0
LINE
  8
0
 62
     0
 10
12.6201
 20
103.091
 30
0.0
 11
26.6209
 21
103.091
 31
0.0
  0
LINE
  8
0
 62
     0
 10
26.6209
 20
103.091
 30
0.0
 11
26.6209
 21
89.0901
 31
0.0
  0
LINE
  8
0
 62
     0
 10
26.6209
 20
89.0901
 30
0.0
 11
12.6201
 21
89.0901
 31
0.0
  0
LINE
  8
0
 62
     0
 10
12.6201
 20
89.0901
 30
0.0
 11
12.6201
 21
103.091
 31
0.0
  0
LINE
  8
0
 62
     0
 10
4.5999
 20
112.138
 30
0.0
 11
4.15477
 21
111.911
 31
0.0
  0
LINE
  8
0
 62
     0
 10
4.15477
 20
111.911
 30
0.0
 11
3.80062
 21
111.556
 31
0.0
  0
LINE
  8
0
 62
     0
 10
3.80062
 20
111.556
 30
0.0
 11
3.57325
 21
111.111
 31
0.0
  0
LINE
  8
0
 62
     0
 10
3.57325
 20
111.111
 30
0.0
 11
3.49608
 21
110.615
 31
0.0
  0
LINE
  8
0
 62
     0
 10
3.49608
 20
110.615
 30
0.0
 11
3.57325
 21
110.122
 31
0.0
  0
LINE
  8
0
 62
     0
 10
3.57325
 20
110.122
 30
0.0
 11
3.80062
 21
109.675
 31
0.0
  0
LINE
  8
0
 62
     0
 10
3.80062
 20
109.675
 30
0.0
 11
4.15477
 21
109.321
 31
0.0
  0
LINE
  8
0
 62
     0
 10
4.15477
 20
109.321
 30
0.0
 11
4.5999
 21
109.095
 31
0.0
  0
LINE
  8
0
 62
     0
 10
4.5999
 20
109.095
 30
0.0
 11
5.09598
 21
109.015
 31
0.0
  0
LINE
  8
0
 62
     0
 10
5.09598
 20
109.015
 30
0.0
 11
5.58934
 21
109.095
 31
0.0
  0
LINE
  8
0
 62
     0
 10
5.58934
 20
109.095
 30
0.0
 11
6.03582
 21
109.321
 31
0.0
  0
LINE
  8
0
 62
     0
 10
6.03582
 20
109.321
 30
0.0
 11
6.38997
 21
109.675
 31
0.0
  0
LINE
  8
0
 62
     0
 10
6.38997
 20
109.675
 30
0.0
 11
6.61596
 21
110.122
 31
0.0
  0
LINE
  8
0
 62
     0
 10
6.61596
 20
110.122
 30
0.0
 11
6.6959
 21
110.615
 31
0.0
  0
LINE
  8
0
 62
     0
 10
6.6959
 20
110.615
 30
0.0
 11
6.61596
 21
111.111
 31
0.0
  0
LINE
  8
0
 62
     0
 10
6.61596
 20
111.111
 30
0.0
 11
6.38997
 21
111.556
 31
0.0
  0
LINE
  8
0
 62
     0
 10
6.38997
 20
111.556
 30
0.0
 11
6.03582
 21
111.911
 31
0.0
  0
LINE
  8
0
 62
     0
 10
6.03582
 20
111.911
 30
0.0
 11
5.58934
 21
112.138
 31
0.0
  0
LINE
  8
0
 62
     0
 10
5.58934
 20
112.138
 30
0.0
 11
5.09598
 21
112.215
 31
0.0
  0
LINE
  8
0
 62
     0
 10
5.09598
 20
112.215
 30
0.0
 11
4.5999
 21
112.138
 31
0.0
  0
LINE
  8
0
 62
     0
 10
343.214
 20
112.138
 30
0.0
 11
342.769
 21
111.911
 31
0.0
  0
LINE
  8
0
 62
     0
 10
342.769
 20
111.911
 30
0.0
 11
342.415
 21
111.556
 31
0.0
  0
LINE
  8
0
 62
     0
 10
342.415
 20
111.556
 30
0.0
 11
342.186
 21
111.111
 31
0.0
  0
LINE
  8
0
 62
     0
 10
342.186
 20
111.111
 30
0.0
 11
342.109
 21
110.615
 31
0.0
  0
LINE
  8
0
 62
     0
 10
342.109
 20
110.615
 30
0.0
 11
342.186
 21
110.122
 31
0.0
  0
LINE
  8
0
 62
     0
 10
342.186
 20
110.122
 30
0.0
 11
342.415
 21
109.675
 31
0.0
  0
LINE
  8
0
 62
     0
 10
342.415
 20
109.675
 30
0.0
 11
342.769
 21
109.321
 31
0.0
  0
LINE
  8
0
 62
     0
 10
342.769
 20
109.321
 30
0.0
 11
343.214
 21
109.095
 31
0.0
  0
LINE
  8
0
 62
     0
 10
343.214
 20
109.095
 30
0.0
 11
343.709
 21
109.015
 31
0.0
  0
LINE
  8
0
 62
     0
 10
343.709
 20
109.015
 30
0.0
 11
344.202
 21
109.095
 31
0.0
  0
LINE
  8
0
 62
     0
 10
344.202
 20
109.095
 30
0.0
 11
344.649
 21
109.321
 31
0.0
  0
LINE
  8
0
 62
     0
 10
344.649
 20
109.321
 30
0.0
 11
345.003
 21
109.675
 31
0.0
  0
LINE
  8
0
 62
     0
 10
345.003
 20
109.675
 30
0.0
 11
345.23
 21
110.122
 31
0.0
  0
LINE
  8
0
 62
     0
 10
345.23
 20
110.122
 30
0.0
 11
345.309
 21
110.615
 31
0.0
  0
LINE
  8
0
 62
     0
 10
345.309
 20
110.615
 30
0.0
 11
345.23
 21
111.111
 31
0.0
  0
LINE
  8
0
 62
     0
 10
345.23
 20
111.111
 30
0.0
 11
345.003
 21
111.556
 31
0.0
  0
LINE
  8
0
 62
     0
 10
345.003
 20
111.556
 30
0.0
 11
344.649
 21
111.911
 31
0.0
  0
LINE
  8
0
 62
     0
 10
344.649
 20
111.911
 30
0.0
 11
344.202
 21
112.138
 31
0.0
  0
LINE
  8
0
 62
     0
 10
344.202
 20
112.138
 30
0.0
 11
343.709
 21
112.215
 31
0.0
  0
LINE
  8
0
 62
     0
 10
343.709
 20
112.215
 30
0.0
 11
343.214
 21
112.138
 31
0.0
  0
LINE
  8
0
 62
     0
 10
258.56
 20
112.138
 30
0.0
 11
258.115
 21
111.911
 31
0.0
  0
LINE
  8
0
 62
     0
 10
258.115
 20
111.911
 30
0.0
 11
257.761
 21
111.556
 31
0.0
  0
LINE
  8
0
 62
     0
 10
257.761
 20
111.556
 30
0.0
 11
257.533
 21
111.111
 31
0.0
  0
LINE
  8
0
 62
     0
 10
257.533
 20
111.111
 30
0.0
 11
257.456
 21
110.615
 31
0.0
  0
LINE
  8
0
 62
     0
 10
257.456
 20
110.615
 30
0.0
 11
257.533
 21
110.122
 31
0.0
  0
LINE
  8
0
 62
     0
 10
257.533
 20
110.122
 30
0.0
 11
257.761
 21
109.675
 31
0.0
  0
LINE
  8
0
 62
     0
 10
257.761
 20
109.675
 30
0.0
 11
258.115
 21
109.321
 31
0.0
  0
LINE
  8
0
 62
     0
 10
258.115
 20
109.321
 30
0.0
 11
258.56
 21
109.095
 31
0.0
  0
LINE
  8
0
 62
     0
 10
258.56
 20
109.095
 30
0.0
 11
259.056
 21
109.015
 31
0.0
  0
LINE
  8
0
 62
     0
 10
259.056
 20
109.015
 30
0.0
 11
259.549
 21
109.095
 31
0.0
  0
LINE
  8
0
 62
     0
 10
259.549
 20
109.095
 30
0.0
 11
259.996
 21
109.321
 31
0.0
  0
LINE
  8
0
 62
     0
 10
259.996
 20
109.321
 30
0.0
 11
260.35
 21
109.675
 31
0.0
  0
LINE
  8
0
 62
     0
 10
260.35
 20
109.675
 30
0.0
 11
260.576
 21
110.122
 31
0.0
  0
LINE
  8
0
 62
     0
 10
260.576
 20
110.122
 30
0.0
 11
260.656
 21
110.615
 31
0.0
  0
LINE
  8
0
 62
     0
 10
260.656
 20
110.615
 30
0.0
 11
260.576
 21
111.111
 31
0.0
  0
LINE
  8
0
 62
     0
 10
260.576
 20
111.111
 30
0.0
 11
260.35
 21
111.556
 31
0.0
  0
LINE
  8
0
 62
     0
 10
260.35
 20
111.556
 30
0.0
 11
259.996
 21
111.911
 31
0.0
  0
LINE
  8
0
 62
     0
 10
259.996
 20
111.911
 30
0.0
 11
259.549
 21
112.138
 31
0.0
  0
LINE
  8
0
 62
     0
 10
259.549
 20
112.138
 30
0.0
 11
259.056
 21
112.215
 31
0.0
  0
LINE
  8
0
 62
     0
 10
259.056
 20
112.215
 30
0.0
 11
258.56
 21
112.138
 31
0.0
  0
LINE
  8
0
 62
     0
 10
173.907
 20
112.138
 30
0.0
 11
173.462
 21
111.911
 31
0.0
  0
LINE
  8
0
 62
     0
 10
173.462
 20
111.911
 30
0.0
 11
173.108
 21
111.556
 31
0.0
  0
LINE
  8
0
 62
     0
 10
173.108
 20
111.556
 30
0.0
 11
172.881
 21
111.111
 31
0.0
  0
LINE
  8
0
 62
     0
 10
172.881
 20
111.111
 30
0.0
 11
172.802
 21
110.615
 31
0.0
  0
LINE
  8
0
 62
     0
 10
172.802
 20
110.615
 30
0.0
 11
172.881
 21
110.122
 31
0.0
  0
LINE
  8
0
 62
     0
 10
172.881
 20
110.122
 30
0.0
 11
173.108
 21
109.675
 31
0.0
  0
LINE
  8
0
 62
     0
 10
173.108
 20
109.675
 30
0.0
 11
173.462
 21
109.321
 31
0.0
  0
LINE
  8
0
 62
     0
 10
173.462
 20
109.321
 30
0.0
 11
173.907
 21
109.095
 31
0.0
  0
LINE
  8
0
 62
     0
 10
173.907
 20
109.095
 30
0.0
 11
174.402
 21
109.015
 31
0.0
  0
LINE
  8
0
 62
     0
 10
174.402
 20
109.015
 30
0.0
 11
174.897
 21
109.095
 31
0.0
  0
LINE
  8
0
 62
     0
 10
174.897
 20
109.095
 30
0.0
 11
175.343
 21
109.321
 31
0.0
  0
LINE
  8
0
 62
     0
 10
175.343
 20
109.321
 30
0.0
 11
175.697
 21
109.675
 31
0.0
  0
LINE
  8
0
 62
     0
 10
175.697
 20
109.675
 30
0.0
 11
175.923
 21
110.122
 31
0.0
  0
LINE
  8
0
 62
     0
 10
175.923
 20
110.122
 30
0.0
 11
176.002
 21
110.615
 31
0.0
  0
LINE
  8
0
 62
     0
 10
176.002
 20
110.615
 30
0.0
 11
175.923
 21
111.111
 31
0.0
  0
LINE
  8
0
 62
     0
 10
175.923
 20
111.111
 30
0.0
 11
175.697
 21
111.556
 31
0.0
  0
LINE
  8
0
 62
     0
 10
175.697
 20
111.556
 30
0.0
 11
175.343
 21
111.911
 31
0.0
  0
LINE
  8
0
 62
     0
 10
175.343
 20
111.911
 30
0.0
 11
174.897
 21
112.138
 31
0.0
  0
LINE
  8
0
 62
     0
 10
174.897
 20
112.138
 30
0.0
 11
174.402
 21
112.215
 31
0.0
  0
LINE
  8
0
 62
     0
 10
174.402
 20
112.215
 30
0.0
 11
173.907
 21
112.138
 31
0.0
  0
LINE
  8
0
 62
     0
 10
89.2542
 20
112.138
 30
0.0
 11
88.8076
 21
111.911
 31
0.0
  0
LINE
  8
0
 62
     0
 10
88.8076
 20
111.911
 30
0.0
 11
88.4534
 21
111.556
 31
0.0
  0
LINE
  8
0
 62
     0
 10
88.4534
 20
111.556
 30
0.0
 11
88.2262
 21
111.111
 31
0.0
  0
LINE
  8
0
 62
     0
 10
88.2262
 20
111.111
 30
0.0
 11
88.1489
 21
110.615
 31
0.0
  0
LINE
  8
0
 62
     0
 10
88.1489
 20
110.615
 30
0.0
 11
88.2262
 21
110.122
 31
0.0
  0
LINE
  8
0
 62
     0
 10
88.2262
 20
110.122
 30
0.0
 11
88.4534
 21
109.675
 31
0.0
  0
LINE
  8
0
 62
     0
 10
88.4534
 20
109.675
 30
0.0
 11
88.8076
 21
109.321
 31
0.0
  0
LINE
  8
0
 62
     0
 10
88.8076
 20
109.321
 30
0.0
 11
89.2542
 21
109.095
 31
0.0
  0
LINE
  8
0
 62
     0
 10
89.2542
 20
109.095
 30
0.0
 11
89.7488
 21
109.015
 31
0.0
  0
LINE
  8
0
 62
     0
 10
89.7488
 20
109.015
 30
0.0
 11
90.2423
 21
109.095
 31
0.0
  0
LINE
  8
0
 62
     0
 10
90.2423
 20
109.095
 30
0.0
 11
90.6886
 21
109.321
 31
0.0
  0
LINE
  8
0
 62
     0
 10
90.6886
 20
109.321
 30
0.0
 11
91.0428
 21
109.675
 31
0.0
  0
LINE
  8
0
 62
     0
 10
91.0428
 20
109.675
 30
0.0
 11
91.2703
 21
110.122
 31
0.0
  0
LINE
  8
0
 62
     0
 10
91.2703
 20
110.122
 30
0.0
 11
91.3486
 21
110.615
 31
0.0
  0
LINE
  8
0
 62
     0
 10
91.3486
 20
110.615
 30
0.0
 11
91.2703
 21
111.111
 31
0.0
  0
LINE
  8
0
 62
     0
 10
91.2703
 20
111.111
 30
0.0
 11
91.0428
 21
111.556
 31
0.0
  0
LINE
  8
0
 62
     0
 10
91.0428
 20
111.556
 30
0.0
 11
90.6886
 21
111.911
 31
0.0
  0
LINE
  8
0
 62
     0
 10
90.6886
 20
111.911
 30
0.0
 11
90.2423
 21
112.138
 31
0.0
  0
LINE
  8
0
 62
     0
 10
90.2423
 20
112.138
 30
0.0
 11
89.7488
 21
112.215
 31
0.0
  0
LINE
  8
0
 62
     0
 10
89.7488
 20
112.215
 30
0.0
 11
89.2542
 21
112.138
 31
0.0
  0
ENDSEC
  0
EOF
