%TF.GenerationSoftware,KiCad,Pcbnew,(5.1.10-1-10_14)*%
%TF.CreationDate,2021-10-08T14:04:21+02:00*%
%TF.ProjectId,lazercut,6c617a65-7263-4757-942e-6b696361645f,rev?*%
%TF.SameCoordinates,Original*%
%TF.FileFunction,Copper,L2,Bot*%
%TF.FilePolarity,Positive*%
%FSLAX46Y46*%
G04 Gerber Fmt 4.6, Leading zero omitted, Abs format (unit mm)*
G04 Created by KiCad (PCBNEW (5.1.10-1-10_14)) date 2021-10-08 14:04:21*
%MOMM*%
%LPD*%
G01*
G04 APERTURE LIST*
%TA.AperFunction,ComponentPad*%
%ADD10C,1.600000*%
%TD*%
%TA.AperFunction,ComponentPad*%
%ADD11R,1.600000X1.600000*%
%TD*%
%TA.AperFunction,ComponentPad*%
%ADD12C,2.250000*%
%TD*%
%TA.AperFunction,SMDPad,CuDef*%
%ADD13R,1.200000X0.900000*%
%TD*%
%TA.AperFunction,Conductor*%
%ADD14C,0.250000*%
%TD*%
G04 APERTURE END LIST*
D10*
%TO.P,U1,24*%
%TO.N,Net-(U1-Pad24)*%
X77470000Y-142398750D03*
%TO.P,U1,23*%
%TO.N,GND*%
X77470000Y-144938750D03*
%TO.P,U1,22*%
%TO.N,Net-(U1-Pad22)*%
X77470000Y-147478750D03*
%TO.P,U1,21*%
%TO.N,+5V*%
X77470000Y-150018750D03*
%TO.P,U1,20*%
%TO.N,Net-(U1-Pad20)*%
X77470000Y-152558750D03*
%TO.P,U1,19*%
%TO.N,Net-(U1-Pad19)*%
X77470000Y-155098750D03*
%TO.P,U1,18*%
%TO.N,Net-(U1-Pad18)*%
X77470000Y-157638750D03*
%TO.P,U1,17*%
%TO.N,Net-(U1-Pad17)*%
X77470000Y-160178750D03*
%TO.P,U1,16*%
%TO.N,Net-(U1-Pad16)*%
X77470000Y-162718750D03*
%TO.P,U1,15*%
%TO.N,Net-(U1-Pad15)*%
X77470000Y-165258750D03*
%TO.P,U1,14*%
%TO.N,Net-(U1-Pad14)*%
X77470000Y-167798750D03*
%TO.P,U1,13*%
%TO.N,Net-(U1-Pad13)*%
X77470000Y-170338750D03*
%TO.P,U1,12*%
%TO.N,Net-(U1-Pad12)*%
X62230000Y-170338750D03*
%TO.P,U1,11*%
%TO.N,Col2*%
X62230000Y-167798750D03*
%TO.P,U1,10*%
%TO.N,Col1*%
X62230000Y-165258750D03*
%TO.P,U1,9*%
%TO.N,Col0*%
X62230000Y-162718750D03*
%TO.P,U1,8*%
%TO.N,Row5*%
X62230000Y-160178750D03*
%TO.P,U1,7*%
%TO.N,Row4*%
X62230000Y-157638750D03*
%TO.P,U1,6*%
%TO.N,Row3*%
X62230000Y-155098750D03*
%TO.P,U1,5*%
%TO.N,Row2*%
X62230000Y-152558750D03*
%TO.P,U1,4*%
%TO.N,GND*%
X62230000Y-150018750D03*
%TO.P,U1,3*%
X62230000Y-147478750D03*
%TO.P,U1,2*%
%TO.N,Row1*%
X62230000Y-144938750D03*
D11*
%TO.P,U1,1*%
%TO.N,Row0*%
X62230000Y-142398750D03*
%TD*%
D12*
%TO.P,MX4,1*%
%TO.N,Col1*%
X126087500Y-159512500D03*
%TA.AperFunction,ComponentPad*%
G36*
G01*
X124026188Y-161809850D02*
X124026183Y-161809845D01*
G75*
G02*
X123940155Y-160221183I751317J837345D01*
G01*
X125250157Y-158761183D01*
G75*
G02*
X126838819Y-158675155I837345J-751317D01*
G01*
X126838819Y-158675155D01*
G75*
G02*
X126924847Y-160263817I-751317J-837345D01*
G01*
X125614845Y-161723817D01*
G75*
G02*
X124026183Y-161809845I-837345J751317D01*
G01*
G37*
%TD.AperFunction*%
%TO.P,MX4,2*%
%TO.N,Net-(D4-Pad2)*%
X131127500Y-158432500D03*
%TA.AperFunction,ComponentPad*%
G36*
G01*
X131010983Y-160134895D02*
X131010097Y-160134834D01*
G75*
G02*
X129965166Y-158935097I77403J1122334D01*
G01*
X130005166Y-158355097D01*
G75*
G02*
X131204903Y-157310166I1122334J-77403D01*
G01*
X131204903Y-157310166D01*
G75*
G02*
X132249834Y-158509903I-77403J-1122334D01*
G01*
X132209834Y-159089903D01*
G75*
G02*
X131010097Y-160134834I-1122334J77403D01*
G01*
G37*
%TD.AperFunction*%
%TD*%
%TO.P,MX3,1*%
%TO.N,Col0*%
X107037500Y-159512500D03*
%TA.AperFunction,ComponentPad*%
G36*
G01*
X104976188Y-161809850D02*
X104976183Y-161809845D01*
G75*
G02*
X104890155Y-160221183I751317J837345D01*
G01*
X106200157Y-158761183D01*
G75*
G02*
X107788819Y-158675155I837345J-751317D01*
G01*
X107788819Y-158675155D01*
G75*
G02*
X107874847Y-160263817I-751317J-837345D01*
G01*
X106564845Y-161723817D01*
G75*
G02*
X104976183Y-161809845I-837345J751317D01*
G01*
G37*
%TD.AperFunction*%
%TO.P,MX3,2*%
%TO.N,Net-(D3-Pad2)*%
X112077500Y-158432500D03*
%TA.AperFunction,ComponentPad*%
G36*
G01*
X111960983Y-160134895D02*
X111960097Y-160134834D01*
G75*
G02*
X110915166Y-158935097I77403J1122334D01*
G01*
X110955166Y-158355097D01*
G75*
G02*
X112154903Y-157310166I1122334J-77403D01*
G01*
X112154903Y-157310166D01*
G75*
G02*
X113199834Y-158509903I-77403J-1122334D01*
G01*
X113159834Y-159089903D01*
G75*
G02*
X111960097Y-160134834I-1122334J77403D01*
G01*
G37*
%TD.AperFunction*%
%TD*%
%TO.P,MX2,1*%
%TO.N,Col1*%
X126087500Y-140462500D03*
%TA.AperFunction,ComponentPad*%
G36*
G01*
X124026188Y-142759850D02*
X124026183Y-142759845D01*
G75*
G02*
X123940155Y-141171183I751317J837345D01*
G01*
X125250157Y-139711183D01*
G75*
G02*
X126838819Y-139625155I837345J-751317D01*
G01*
X126838819Y-139625155D01*
G75*
G02*
X126924847Y-141213817I-751317J-837345D01*
G01*
X125614845Y-142673817D01*
G75*
G02*
X124026183Y-142759845I-837345J751317D01*
G01*
G37*
%TD.AperFunction*%
%TO.P,MX2,2*%
%TO.N,Net-(D2-Pad2)*%
X131127500Y-139382500D03*
%TA.AperFunction,ComponentPad*%
G36*
G01*
X131010983Y-141084895D02*
X131010097Y-141084834D01*
G75*
G02*
X129965166Y-139885097I77403J1122334D01*
G01*
X130005166Y-139305097D01*
G75*
G02*
X131204903Y-138260166I1122334J-77403D01*
G01*
X131204903Y-138260166D01*
G75*
G02*
X132249834Y-139459903I-77403J-1122334D01*
G01*
X132209834Y-140039903D01*
G75*
G02*
X131010097Y-141084834I-1122334J77403D01*
G01*
G37*
%TD.AperFunction*%
%TD*%
%TO.P,MX1,1*%
%TO.N,Col0*%
X107037500Y-140462500D03*
%TA.AperFunction,ComponentPad*%
G36*
G01*
X104976188Y-142759850D02*
X104976183Y-142759845D01*
G75*
G02*
X104890155Y-141171183I751317J837345D01*
G01*
X106200157Y-139711183D01*
G75*
G02*
X107788819Y-139625155I837345J-751317D01*
G01*
X107788819Y-139625155D01*
G75*
G02*
X107874847Y-141213817I-751317J-837345D01*
G01*
X106564845Y-142673817D01*
G75*
G02*
X104976183Y-142759845I-837345J751317D01*
G01*
G37*
%TD.AperFunction*%
%TO.P,MX1,2*%
%TO.N,Net-(D1-Pad2)*%
X112077500Y-139382500D03*
%TA.AperFunction,ComponentPad*%
G36*
G01*
X111960983Y-141084895D02*
X111960097Y-141084834D01*
G75*
G02*
X110915166Y-139885097I77403J1122334D01*
G01*
X110955166Y-139305097D01*
G75*
G02*
X112154903Y-138260166I1122334J-77403D01*
G01*
X112154903Y-138260166D01*
G75*
G02*
X113199834Y-139459903I-77403J-1122334D01*
G01*
X113159834Y-140039903D01*
G75*
G02*
X111960097Y-141084834I-1122334J77403D01*
G01*
G37*
%TD.AperFunction*%
%TD*%
D13*
%TO.P,D4,2*%
%TO.N,Net-(D4-Pad2)*%
X136525000Y-161862500D03*
%TO.P,D4,1*%
%TO.N,Row1*%
X136525000Y-165162500D03*
%TD*%
%TO.P,D3,2*%
%TO.N,Net-(D3-Pad2)*%
X117475000Y-161862500D03*
%TO.P,D3,1*%
%TO.N,Row1*%
X117475000Y-165162500D03*
%TD*%
%TO.P,D2,2*%
%TO.N,Net-(D2-Pad2)*%
X136525000Y-142812500D03*
%TO.P,D2,1*%
%TO.N,Row0*%
X136525000Y-146112500D03*
%TD*%
%TO.P,D1,2*%
%TO.N,Net-(D1-Pad2)*%
X117475000Y-142875000D03*
%TO.P,D1,1*%
%TO.N,Row0*%
X117475000Y-146175000D03*
%TD*%
D14*
%TO.N,Net-(D1-Pad2)*%
X115570000Y-142875000D02*
X112077500Y-139382500D01*
X117475000Y-142875000D02*
X115570000Y-142875000D01*
%TO.N,Row0*%
X136525000Y-146112500D02*
X135856099Y-146781401D01*
X126143901Y-146781401D02*
X126206250Y-146843750D01*
X135856099Y-146781401D02*
X126143901Y-146781401D01*
X118081401Y-146781401D02*
X117475000Y-146175000D01*
X126143901Y-146781401D02*
X118081401Y-146781401D01*
X116868599Y-146781401D02*
X117475000Y-146175000D01*
X105000399Y-146781401D02*
X116868599Y-146781401D01*
X99492747Y-141273749D02*
X105000399Y-146781401D01*
X63355001Y-141273749D02*
X99492747Y-141273749D01*
X62230000Y-142398750D02*
X63355001Y-141273749D01*
%TO.N,Net-(D2-Pad2)*%
X134557500Y-142812500D02*
X131127500Y-139382500D01*
X136525000Y-142812500D02*
X134557500Y-142812500D01*
%TO.N,Net-(D3-Pad2)*%
X114887500Y-161862500D02*
X112037500Y-159012500D01*
X117475000Y-161862500D02*
X114887500Y-161862500D01*
%TO.N,Row1*%
X118143901Y-165831401D02*
X117475000Y-165162500D01*
X135856099Y-165831401D02*
X118143901Y-165831401D01*
X136525000Y-165162500D02*
X135856099Y-165831401D01*
X116806099Y-165831401D02*
X117475000Y-165162500D01*
X82692749Y-143523751D02*
X105000399Y-165831401D01*
X105000399Y-165831401D02*
X116806099Y-165831401D01*
X63644999Y-143523751D02*
X82692749Y-143523751D01*
X62230000Y-144938750D02*
X63644999Y-143523751D01*
%TO.N,Net-(D4-Pad2)*%
X133675000Y-159012500D02*
X136525000Y-161862500D01*
X131087500Y-159012500D02*
X133675000Y-159012500D01*
%TD*%
M02*
