M48
; DRILL file {KiCad (5.1.10-1-10_14)} date Friday, October 08, 2021 at 02:04:42 PM
; FORMAT={-:-/ absolute / inch / decimal}
; #@! TF.CreationDate,2021-10-08T14:04:42+02:00
; #@! TF.GenerationSoftware,Kicad,Pcbnew,(5.1.10-1-10_14)
; #@! TF.FileFunction,Plated,1,2,PTH
FMAT,2
INCH
T1C0.0433
T2C0.0579
%
G90
G05
T1
X2.45Y-5.6063
X2.45Y-5.7062
X2.45Y-5.8062
X2.45Y-5.9062
X2.45Y-6.0062
X2.45Y-6.1063
X2.45Y-6.2062
X2.45Y-6.3062
X2.45Y-6.4062
X2.45Y-6.5062
X2.45Y-6.6063
X2.45Y-6.7062
X3.05Y-5.6063
X3.05Y-5.7062
X3.05Y-5.8062
X3.05Y-5.9062
X3.05Y-6.0062
X3.05Y-6.1063
X3.05Y-6.2062
X3.05Y-6.3062
X3.05Y-6.4062
X3.05Y-6.5062
X3.05Y-6.6063
X3.05Y-6.7062
T2
X4.1625Y-5.5875
X4.1625Y-6.3375
X4.2141Y-5.53
X4.2141Y-6.28
X4.4109Y-5.5103
X4.4109Y-6.2603
X4.4125Y-5.4875
X4.4125Y-6.2375
X4.9125Y-5.5875
X4.9125Y-6.3375
X4.9641Y-5.53
X4.9641Y-6.28
X5.1609Y-5.5103
X5.1609Y-6.2603
X5.1625Y-5.4875
X5.1625Y-6.2375
T0
M30
