%TF.GenerationSoftware,KiCad,Pcbnew,(5.1.10-1-10_14)*%
%TF.CreationDate,2021-10-08T14:04:21+02:00*%
%TF.ProjectId,lazercut,6c617a65-7263-4757-942e-6b696361645f,rev?*%
%TF.SameCoordinates,Original*%
%TF.FileFunction,Soldermask,Bot*%
%TF.FilePolarity,Negative*%
%FSLAX46Y46*%
G04 Gerber Fmt 4.6, Leading zero omitted, Abs format (unit mm)*
G04 Created by KiCad (PCBNEW (5.1.10-1-10_14)) date 2021-10-08 14:04:21*
%MOMM*%
%LPD*%
G01*
G04 APERTURE LIST*
%ADD10C,1.600000*%
%ADD11R,1.600000X1.600000*%
%ADD12C,1.750000*%
%ADD13C,2.250000*%
%ADD14C,3.987800*%
%ADD15R,1.200000X0.900000*%
G04 APERTURE END LIST*
D10*
%TO.C,U1*%
X77470000Y-142398750D03*
X77470000Y-144938750D03*
X77470000Y-147478750D03*
X77470000Y-150018750D03*
X77470000Y-152558750D03*
X77470000Y-155098750D03*
X77470000Y-157638750D03*
X77470000Y-160178750D03*
X77470000Y-162718750D03*
X77470000Y-165258750D03*
X77470000Y-167798750D03*
X77470000Y-170338750D03*
X62230000Y-170338750D03*
X62230000Y-167798750D03*
X62230000Y-165258750D03*
X62230000Y-162718750D03*
X62230000Y-160178750D03*
X62230000Y-157638750D03*
X62230000Y-155098750D03*
X62230000Y-152558750D03*
X62230000Y-150018750D03*
X62230000Y-147478750D03*
X62230000Y-144938750D03*
D11*
X62230000Y-142398750D03*
%TD*%
D12*
%TO.C,MX4*%
X133667500Y-163512500D03*
X123507500Y-163512500D03*
D13*
X126087500Y-159512500D03*
D14*
X128587500Y-163512500D03*
G36*
G01*
X124026188Y-161809850D02*
X124026183Y-161809845D01*
G75*
G02*
X123940155Y-160221183I751317J837345D01*
G01*
X125250157Y-158761183D01*
G75*
G02*
X126838819Y-158675155I837345J-751317D01*
G01*
X126838819Y-158675155D01*
G75*
G02*
X126924847Y-160263817I-751317J-837345D01*
G01*
X125614845Y-161723817D01*
G75*
G02*
X124026183Y-161809845I-837345J751317D01*
G01*
G37*
D13*
X131127500Y-158432500D03*
G36*
G01*
X131010983Y-160134895D02*
X131010097Y-160134834D01*
G75*
G02*
X129965166Y-158935097I77403J1122334D01*
G01*
X130005166Y-158355097D01*
G75*
G02*
X131204903Y-157310166I1122334J-77403D01*
G01*
X131204903Y-157310166D01*
G75*
G02*
X132249834Y-158509903I-77403J-1122334D01*
G01*
X132209834Y-159089903D01*
G75*
G02*
X131010097Y-160134834I-1122334J77403D01*
G01*
G37*
%TD*%
D12*
%TO.C,MX3*%
X114617500Y-163512500D03*
X104457500Y-163512500D03*
D13*
X107037500Y-159512500D03*
D14*
X109537500Y-163512500D03*
G36*
G01*
X104976188Y-161809850D02*
X104976183Y-161809845D01*
G75*
G02*
X104890155Y-160221183I751317J837345D01*
G01*
X106200157Y-158761183D01*
G75*
G02*
X107788819Y-158675155I837345J-751317D01*
G01*
X107788819Y-158675155D01*
G75*
G02*
X107874847Y-160263817I-751317J-837345D01*
G01*
X106564845Y-161723817D01*
G75*
G02*
X104976183Y-161809845I-837345J751317D01*
G01*
G37*
D13*
X112077500Y-158432500D03*
G36*
G01*
X111960983Y-160134895D02*
X111960097Y-160134834D01*
G75*
G02*
X110915166Y-158935097I77403J1122334D01*
G01*
X110955166Y-158355097D01*
G75*
G02*
X112154903Y-157310166I1122334J-77403D01*
G01*
X112154903Y-157310166D01*
G75*
G02*
X113199834Y-158509903I-77403J-1122334D01*
G01*
X113159834Y-159089903D01*
G75*
G02*
X111960097Y-160134834I-1122334J77403D01*
G01*
G37*
%TD*%
D12*
%TO.C,MX2*%
X133667500Y-144462500D03*
X123507500Y-144462500D03*
D13*
X126087500Y-140462500D03*
D14*
X128587500Y-144462500D03*
G36*
G01*
X124026188Y-142759850D02*
X124026183Y-142759845D01*
G75*
G02*
X123940155Y-141171183I751317J837345D01*
G01*
X125250157Y-139711183D01*
G75*
G02*
X126838819Y-139625155I837345J-751317D01*
G01*
X126838819Y-139625155D01*
G75*
G02*
X126924847Y-141213817I-751317J-837345D01*
G01*
X125614845Y-142673817D01*
G75*
G02*
X124026183Y-142759845I-837345J751317D01*
G01*
G37*
D13*
X131127500Y-139382500D03*
G36*
G01*
X131010983Y-141084895D02*
X131010097Y-141084834D01*
G75*
G02*
X129965166Y-139885097I77403J1122334D01*
G01*
X130005166Y-139305097D01*
G75*
G02*
X131204903Y-138260166I1122334J-77403D01*
G01*
X131204903Y-138260166D01*
G75*
G02*
X132249834Y-139459903I-77403J-1122334D01*
G01*
X132209834Y-140039903D01*
G75*
G02*
X131010097Y-141084834I-1122334J77403D01*
G01*
G37*
%TD*%
D12*
%TO.C,MX1*%
X114617500Y-144462500D03*
X104457500Y-144462500D03*
D13*
X107037500Y-140462500D03*
D14*
X109537500Y-144462500D03*
G36*
G01*
X104976188Y-142759850D02*
X104976183Y-142759845D01*
G75*
G02*
X104890155Y-141171183I751317J837345D01*
G01*
X106200157Y-139711183D01*
G75*
G02*
X107788819Y-139625155I837345J-751317D01*
G01*
X107788819Y-139625155D01*
G75*
G02*
X107874847Y-141213817I-751317J-837345D01*
G01*
X106564845Y-142673817D01*
G75*
G02*
X104976183Y-142759845I-837345J751317D01*
G01*
G37*
D13*
X112077500Y-139382500D03*
G36*
G01*
X111960983Y-141084895D02*
X111960097Y-141084834D01*
G75*
G02*
X110915166Y-139885097I77403J1122334D01*
G01*
X110955166Y-139305097D01*
G75*
G02*
X112154903Y-138260166I1122334J-77403D01*
G01*
X112154903Y-138260166D01*
G75*
G02*
X113199834Y-139459903I-77403J-1122334D01*
G01*
X113159834Y-140039903D01*
G75*
G02*
X111960097Y-141084834I-1122334J77403D01*
G01*
G37*
%TD*%
D15*
%TO.C,D4*%
X136525000Y-161862500D03*
X136525000Y-165162500D03*
%TD*%
%TO.C,D3*%
X117475000Y-161862500D03*
X117475000Y-165162500D03*
%TD*%
%TO.C,D2*%
X136525000Y-142812500D03*
X136525000Y-146112500D03*
%TD*%
%TO.C,D1*%
X117475000Y-142875000D03*
X117475000Y-146175000D03*
%TD*%
M02*
