G04 #@! TF.GenerationSoftware,KiCad,Pcbnew,(6.0.2-0)*
G04 #@! TF.CreationDate,2022-03-14T13:33:37+01:00*
G04 #@! TF.ProjectId,lasercut,6c617365-7263-4757-942e-6b696361645f,rev?*
G04 #@! TF.SameCoordinates,Original*
G04 #@! TF.FileFunction,Paste,Bot*
G04 #@! TF.FilePolarity,Positive*
%FSLAX46Y46*%
G04 Gerber Fmt 4.6, Leading zero omitted, Abs format (unit mm)*
G04 Created by KiCad (PCBNEW (6.0.2-0)) date 2022-03-14 13:33:37*
%MOMM*%
%LPD*%
G01*
G04 APERTURE LIST*
G04 Aperture macros list*
%AMRoundRect*
0 Rectangle with rounded corners*
0 $1 Rounding radius*
0 $2 $3 $4 $5 $6 $7 $8 $9 X,Y pos of 4 corners*
0 Add a 4 corners polygon primitive as box body*
4,1,4,$2,$3,$4,$5,$6,$7,$8,$9,$2,$3,0*
0 Add four circle primitives for the rounded corners*
1,1,$1+$1,$2,$3*
1,1,$1+$1,$4,$5*
1,1,$1+$1,$6,$7*
1,1,$1+$1,$8,$9*
0 Add four rect primitives between the rounded corners*
20,1,$1+$1,$2,$3,$4,$5,0*
20,1,$1+$1,$4,$5,$6,$7,0*
20,1,$1+$1,$6,$7,$8,$9,0*
20,1,$1+$1,$8,$9,$2,$3,0*%
G04 Aperture macros list end*
G04 #@! TA.AperFunction,Profile*
%ADD10C,0.200000*%
G04 #@! TD*
%ADD11RoundRect,0.250000X-1.025000X-1.000000X1.025000X-1.000000X1.025000X1.000000X-1.025000X1.000000X0*%
%ADD12R,0.500000X0.500000*%
G04 APERTURE END LIST*
D10*
X356581000Y-125053620D02*
X356354000Y-125117010D01*
X22805240Y-125190040D02*
X22570990Y-125163860D01*
X358646000Y-122435340D02*
X358617000Y-122669620D01*
X357015000Y-124873100D02*
X356802000Y-124970930D01*
X20050540Y-122435340D02*
X20039530Y-122199680D01*
X356354000Y-125117010D02*
X356122000Y-125163860D01*
X358571000Y-122899730D02*
X358506000Y-123127100D01*
X358617000Y-122669620D02*
X358571000Y-122899730D01*
X23040890Y-19947690D02*
X355654000Y-19949690D01*
X358327000Y-21587690D02*
X358426000Y-21799690D01*
X358506000Y-123127100D02*
X358426000Y-123348960D01*
X20123600Y-122899730D02*
X20076710Y-122669620D01*
X21891610Y-20177690D02*
X22113480Y-20095690D01*
X358617000Y-22479690D02*
X358646000Y-22713690D01*
X358327000Y-123561190D02*
X358212000Y-123767880D01*
X20040910Y-22949690D02*
X20050540Y-22713690D01*
X22339470Y-20031690D02*
X22570990Y-19984690D01*
X357221000Y-20391690D02*
X357416000Y-20520690D01*
X20483260Y-123767880D02*
X20367510Y-123561190D01*
X356802000Y-20177690D02*
X357015000Y-20275690D01*
X20076710Y-122669620D02*
X20050540Y-122435340D01*
X355890000Y-19958690D02*
X356122000Y-19984690D01*
X20186960Y-22021690D02*
X20269650Y-21799690D01*
X358212000Y-21380690D02*
X358327000Y-21587690D01*
X22570990Y-125163860D02*
X22339470Y-125117010D01*
X20612800Y-123963570D02*
X20483260Y-123767880D01*
X357221000Y-124757320D02*
X357015000Y-124873100D01*
X20269650Y-21799690D02*
X20367510Y-21587690D01*
X20918720Y-124321890D02*
X20758850Y-124148250D01*
X358571000Y-22247690D02*
X358617000Y-22479690D01*
X20612800Y-21185690D02*
X20758850Y-21000690D01*
X20269650Y-123348960D02*
X20186960Y-123127100D01*
X21092360Y-124481730D02*
X20918720Y-124321890D01*
X356581000Y-20095690D02*
X356802000Y-20177690D01*
X358212000Y-123767880D02*
X358080000Y-123963570D01*
X20050540Y-22713690D02*
X20076710Y-22479690D01*
X20918720Y-20826690D02*
X21092360Y-20667690D01*
X358654000Y-122199680D02*
X358646000Y-122435340D01*
X22113480Y-20095690D02*
X22339470Y-20031690D01*
X357934000Y-21000690D02*
X358080000Y-21185690D01*
X20758850Y-21000690D02*
X20918720Y-20826690D01*
X358654000Y-22949690D02*
X358654000Y-122199680D01*
X356354000Y-20031690D02*
X356581000Y-20095690D01*
X21277010Y-124627780D02*
X21092360Y-124481730D01*
X21277010Y-20520690D02*
X21472690Y-20391690D01*
X21891610Y-124970930D02*
X21679380Y-124873100D01*
X20186960Y-123127100D02*
X20123600Y-122899730D01*
X20758850Y-124148250D02*
X20612800Y-123963570D01*
X20039530Y-122199680D02*
X20040910Y-22949690D01*
X358426000Y-123348960D02*
X358327000Y-123561190D01*
X357602000Y-20667690D02*
X357775000Y-20826690D01*
X23040890Y-125199670D02*
X22805240Y-125190040D01*
X356122000Y-19984690D02*
X356354000Y-20031690D01*
X21472690Y-124757320D02*
X21277010Y-124627780D01*
X358080000Y-21185690D02*
X358212000Y-21380690D01*
X20367510Y-123561190D02*
X20269650Y-123348960D01*
X357416000Y-124627780D02*
X357221000Y-124757320D01*
X355654000Y-125199670D02*
X23040890Y-125199670D01*
X356802000Y-124970930D02*
X356581000Y-125053620D01*
X356122000Y-125163860D02*
X355890000Y-125190040D01*
X355890000Y-125190040D02*
X355654000Y-125199670D01*
X22113480Y-125053620D02*
X21891610Y-124970930D01*
X357602000Y-124481730D02*
X357416000Y-124627780D01*
X20076710Y-22479690D02*
X20123600Y-22247690D01*
X21472690Y-20391690D02*
X21679380Y-20275690D01*
X20483260Y-21380690D02*
X20612800Y-21185690D01*
X357775000Y-124321890D02*
X357602000Y-124481730D01*
X21092360Y-20667690D02*
X21277010Y-20520690D01*
X21679380Y-20275690D02*
X21891610Y-20177690D01*
X22570990Y-19984690D02*
X22805240Y-19958690D01*
X357416000Y-20520690D02*
X357602000Y-20667690D01*
X22339470Y-125117010D02*
X22113480Y-125053620D01*
X357015000Y-20275690D02*
X357221000Y-20391690D01*
X357775000Y-20826690D02*
X357934000Y-21000690D01*
X358426000Y-21799690D02*
X358506000Y-22021690D01*
X22805240Y-19958690D02*
X23040890Y-19947690D01*
X355654000Y-19949690D02*
X355890000Y-19958690D01*
X20367510Y-21587690D02*
X20483260Y-21380690D01*
X21679380Y-124873100D02*
X21472690Y-124757320D01*
X357934000Y-124148250D02*
X357775000Y-124321890D01*
X358080000Y-123963570D02*
X357934000Y-124148250D01*
X20123600Y-22247690D02*
X20186960Y-22021690D01*
X358646000Y-22713690D02*
X358654000Y-22949690D01*
X358506000Y-22021690D02*
X358571000Y-22247690D01*
D11*
X217940000Y-31985000D03*
X230867000Y-29445000D03*
X127452500Y-89135000D03*
X140379500Y-86595000D03*
X47510750Y-67545000D03*
X34583750Y-70085000D03*
X75065000Y-51035000D03*
X87992000Y-48495000D03*
X73704500Y-67545000D03*
X60777500Y-70085000D03*
X66560750Y-105645000D03*
X53633750Y-108185000D03*
X154667000Y-29445000D03*
X141740000Y-31985000D03*
X111804500Y-67545000D03*
X98877500Y-70085000D03*
X265565000Y-51035000D03*
X278492000Y-48495000D03*
X168954500Y-67545000D03*
X156027500Y-70085000D03*
X337002500Y-51035000D03*
X349929500Y-48495000D03*
X154667000Y-105645000D03*
X141740000Y-108185000D03*
X159429500Y-86595000D03*
X146502500Y-89135000D03*
X70302500Y-89135000D03*
X83229500Y-86595000D03*
X232227500Y-70085000D03*
X245154500Y-67545000D03*
X330879500Y-105645000D03*
X317952500Y-108185000D03*
X197529500Y-86595000D03*
X184602500Y-89135000D03*
X132215000Y-51035000D03*
X145142000Y-48495000D03*
X264204500Y-67545000D03*
X251277500Y-70085000D03*
X337002500Y-31985000D03*
X349929500Y-29445000D03*
X297542000Y-29445000D03*
X284615000Y-31985000D03*
X103640000Y-31985000D03*
X116567000Y-29445000D03*
X330879500Y-48495000D03*
X317952500Y-51035000D03*
X84590000Y-31985000D03*
X97517000Y-29445000D03*
X175077500Y-70085000D03*
X188004500Y-67545000D03*
X178479500Y-86595000D03*
X165552500Y-89135000D03*
X246515000Y-51035000D03*
X259442000Y-48495000D03*
X92754500Y-67545000D03*
X79827500Y-70085000D03*
X151265000Y-51035000D03*
X164192000Y-48495000D03*
X122690000Y-31985000D03*
X135617000Y-29445000D03*
X177458750Y-108185000D03*
X190385750Y-105645000D03*
X235629500Y-86595000D03*
X222702500Y-89135000D03*
X108402500Y-89135000D03*
X121329500Y-86595000D03*
X42748250Y-86595000D03*
X29821250Y-89135000D03*
X349929500Y-105645000D03*
X337002500Y-108185000D03*
X42748250Y-105645000D03*
X29821250Y-108185000D03*
X304685750Y-58020000D03*
X291758750Y-60560000D03*
X46490000Y-31985000D03*
X59417000Y-29445000D03*
X226104500Y-67545000D03*
X213177500Y-70085000D03*
X64179500Y-86595000D03*
X51252500Y-89135000D03*
X268967000Y-29445000D03*
X256040000Y-31985000D03*
X298902500Y-108185000D03*
X311829500Y-105645000D03*
X270327500Y-70085000D03*
X283254500Y-67545000D03*
X194127500Y-70085000D03*
X207054500Y-67545000D03*
X263183750Y-108185000D03*
X276110750Y-105645000D03*
X45129500Y-48495000D03*
X32202500Y-51035000D03*
X215558750Y-108185000D03*
X228485750Y-105645000D03*
X254679500Y-86595000D03*
X241752500Y-89135000D03*
X239371250Y-108185000D03*
X252298250Y-105645000D03*
X280873250Y-86595000D03*
X267946250Y-89135000D03*
X294140000Y-89135000D03*
X307067000Y-86595000D03*
X136977500Y-70085000D03*
X149904500Y-67545000D03*
X130854500Y-67545000D03*
X117927500Y-70085000D03*
X94115000Y-51035000D03*
X107042000Y-48495000D03*
X192767000Y-29445000D03*
X179840000Y-31985000D03*
X227465000Y-51035000D03*
X240392000Y-48495000D03*
X27440000Y-31985000D03*
X40367000Y-29445000D03*
X208415000Y-51035000D03*
X221342000Y-48495000D03*
X211817000Y-29445000D03*
X198890000Y-31985000D03*
X236990000Y-31985000D03*
X249917000Y-29445000D03*
X113165000Y-51035000D03*
X126092000Y-48495000D03*
X89352500Y-89135000D03*
X102279500Y-86595000D03*
X317952500Y-31985000D03*
X330879500Y-29445000D03*
X77446250Y-108185000D03*
X90373250Y-105645000D03*
X173717000Y-29445000D03*
X160790000Y-31985000D03*
X317952500Y-89135000D03*
X330879500Y-86595000D03*
X170315000Y-51035000D03*
X183242000Y-48495000D03*
X203652500Y-89135000D03*
X216579500Y-86595000D03*
X110783750Y-108185000D03*
X123710750Y-105645000D03*
X189365000Y-51035000D03*
X202292000Y-48495000D03*
X68942000Y-48495000D03*
X56015000Y-51035000D03*
X65540000Y-31985000D03*
X78467000Y-29445000D03*
D12*
X349167500Y-114655000D03*
X349167500Y-116855000D03*
X44367500Y-57505000D03*
X44367500Y-59705000D03*
X46748750Y-76555000D03*
X46748750Y-78755000D03*
X91992500Y-76555000D03*
X91992500Y-78755000D03*
X101517500Y-95605000D03*
X101517500Y-97805000D03*
X58655000Y-38455000D03*
X58655000Y-40655000D03*
X139617500Y-95605000D03*
X139617500Y-97805000D03*
X77705000Y-38455000D03*
X77705000Y-40655000D03*
X187242500Y-76555000D03*
X187242500Y-78755000D03*
X115805000Y-38455000D03*
X115805000Y-40655000D03*
X122948750Y-114655000D03*
X122948750Y-116855000D03*
X39605000Y-38455000D03*
X39605000Y-40655000D03*
X65798750Y-114655000D03*
X65798750Y-116855000D03*
X306305000Y-95605000D03*
X306305000Y-97805000D03*
X215817500Y-95605000D03*
X215817500Y-97805000D03*
X149142500Y-76555000D03*
X149142500Y-78755000D03*
X125330000Y-57505000D03*
X125330000Y-59705000D03*
X263442500Y-76555000D03*
X263442500Y-78755000D03*
X201530000Y-57505000D03*
X201530000Y-59705000D03*
X277730000Y-57505000D03*
X277730000Y-59705000D03*
X225342500Y-76555000D03*
X225342500Y-78755000D03*
X227723750Y-114655000D03*
X227723750Y-116855000D03*
X168192500Y-76555000D03*
X168192500Y-78755000D03*
X189623750Y-114655000D03*
X189623750Y-116855000D03*
X96755000Y-38455000D03*
X96755000Y-40655000D03*
X172955000Y-38455000D03*
X172955000Y-40655000D03*
X239630000Y-57505000D03*
X239630000Y-59705000D03*
X134855000Y-38455000D03*
X134855000Y-40655000D03*
X280111250Y-95605000D03*
X280111250Y-97805000D03*
X82467500Y-95605000D03*
X82467500Y-97805000D03*
X158667500Y-95605000D03*
X158667500Y-97805000D03*
X244392500Y-76555000D03*
X244392500Y-78755000D03*
X163430000Y-57505000D03*
X163430000Y-59705000D03*
X253917500Y-95605000D03*
X253917500Y-97805000D03*
X249155000Y-38455000D03*
X249155000Y-40655000D03*
X144380000Y-57505000D03*
X144380000Y-59705000D03*
X63417500Y-95605000D03*
X63417500Y-97805000D03*
X177717500Y-95605000D03*
X177717500Y-97805000D03*
X220580000Y-57505000D03*
X220580000Y-59705000D03*
X153905000Y-114655000D03*
X153905000Y-116855000D03*
X41986250Y-95605000D03*
X41986250Y-97805000D03*
X330117500Y-114655000D03*
X330117500Y-116855000D03*
X182480000Y-57505000D03*
X182480000Y-59705000D03*
X120567500Y-95605000D03*
X120567500Y-97805000D03*
X130092500Y-76555000D03*
X130092500Y-78755000D03*
X330117500Y-95605000D03*
X330117500Y-97805000D03*
X211055000Y-38455000D03*
X211055000Y-40655000D03*
X303923750Y-67030000D03*
X303923750Y-69230000D03*
X111042500Y-76555000D03*
X111042500Y-78755000D03*
X330117500Y-38455000D03*
X330117500Y-40655000D03*
X349167500Y-38455000D03*
X349167500Y-40655000D03*
X41986250Y-114655000D03*
X41986250Y-116855000D03*
X230105000Y-38455000D03*
X230105000Y-40655000D03*
X258680000Y-57505000D03*
X258680000Y-59705000D03*
X251536250Y-114655000D03*
X251536250Y-116855000D03*
X192005000Y-38455000D03*
X192005000Y-40655000D03*
X89611250Y-114655000D03*
X89611250Y-116855000D03*
X87230000Y-57505000D03*
X87230000Y-59705000D03*
X311067500Y-114655000D03*
X311067500Y-116855000D03*
X72942500Y-76555000D03*
X72942500Y-78755000D03*
X196767500Y-95605000D03*
X196767500Y-97805000D03*
X349167500Y-57505000D03*
X349167500Y-59705000D03*
X106280000Y-57505000D03*
X106280000Y-59705000D03*
X234867500Y-95605000D03*
X234867500Y-97805000D03*
X68180000Y-57505000D03*
X68180000Y-59705000D03*
X275348750Y-114655000D03*
X275348750Y-116855000D03*
X330117500Y-57505000D03*
X330117500Y-59705000D03*
X153905000Y-38455000D03*
X153905000Y-40655000D03*
X268205000Y-38455000D03*
X268205000Y-40655000D03*
X206292500Y-76555000D03*
X206292500Y-78755000D03*
X296780000Y-38455000D03*
X296780000Y-40655000D03*
X282492500Y-76555000D03*
X282492500Y-78755000D03*
M02*
