%TF.GenerationSoftware,KiCad,Pcbnew,(6.0.2-0)*%
%TF.CreationDate,2022-03-14T13:24:27+01:00*%
%TF.ProjectId,lasercut,6c617365-7263-4757-942e-6b696361645f,rev?*%
%TF.SameCoordinates,Original*%
%TF.FileFunction,Soldermask,Bot*%
%TF.FilePolarity,Negative*%
%FSLAX46Y46*%
G04 Gerber Fmt 4.6, Leading zero omitted, Abs format (unit mm)*
G04 Created by KiCad (PCBNEW (6.0.2-0)) date 2022-03-14 13:24:27*
%MOMM*%
%LPD*%
G01*
G04 APERTURE LIST*
G04 Aperture macros list*
%AMRoundRect*
0 Rectangle with rounded corners*
0 $1 Rounding radius*
0 $2 $3 $4 $5 $6 $7 $8 $9 X,Y pos of 4 corners*
0 Add a 4 corners polygon primitive as box body*
4,1,4,$2,$3,$4,$5,$6,$7,$8,$9,$2,$3,0*
0 Add four circle primitives for the rounded corners*
1,1,$1+$1,$2,$3*
1,1,$1+$1,$4,$5*
1,1,$1+$1,$6,$7*
1,1,$1+$1,$8,$9*
0 Add four rect primitives between the rounded corners*
20,1,$1+$1,$2,$3,$4,$5,0*
20,1,$1+$1,$4,$5,$6,$7,0*
20,1,$1+$1,$6,$7,$8,$9,0*
20,1,$1+$1,$8,$9,$2,$3,0*%
G04 Aperture macros list end*
%ADD10C,1.400000*%
%ADD11R,1.700000X1.700000*%
%ADD12O,1.700000X1.700000*%
%ADD13C,3.600000*%
%ADD14C,1.750000*%
%ADD15C,4.000000*%
%ADD16RoundRect,0.250000X-1.025000X-1.000000X1.025000X-1.000000X1.025000X1.000000X-1.025000X1.000000X0*%
%ADD17C,2.200000*%
%ADD18C,1.752600*%
%ADD19R,1.752600X1.752600*%
%ADD20R,0.500000X0.500000*%
G04 APERTURE END LIST*
D10*
%TO.C,RESET*%
X336800000Y-88000000D03*
X336800000Y-85460000D03*
%TD*%
D11*
%TO.C,BAT*%
X344260000Y-84600000D03*
D12*
X346800000Y-84600000D03*
%TD*%
D13*
%TO.C,SW11*%
X227565000Y-29445000D03*
X221215000Y-31985000D03*
D14*
X219945000Y-34525000D03*
X230105000Y-34525000D03*
D15*
X225025000Y-34525000D03*
D16*
X217940000Y-31985000D03*
X230867000Y-29445000D03*
%TD*%
D13*
%TO.C,SW51*%
X137077500Y-86595000D03*
X130727500Y-89135000D03*
D14*
X129457500Y-91675000D03*
D16*
X127452500Y-89135000D03*
D15*
X134537500Y-91675000D03*
D14*
X139617500Y-91675000D03*
D16*
X140379500Y-86595000D03*
%TD*%
D13*
%TO.C,SW33*%
X44208750Y-67545000D03*
X37858750Y-70085000D03*
D14*
X36588750Y-72625000D03*
D16*
X47510750Y-67545000D03*
X34583750Y-70085000D03*
D15*
X41668750Y-72625000D03*
D14*
X46748750Y-72625000D03*
%TD*%
D13*
%TO.C,SW19*%
X84690000Y-48495000D03*
X78340000Y-51035000D03*
D16*
X75065000Y-51035000D03*
D14*
X77070000Y-53575000D03*
D16*
X87992000Y-48495000D03*
D15*
X82150000Y-53575000D03*
D14*
X87230000Y-53575000D03*
%TD*%
D13*
%TO.C,SW34*%
X70402500Y-67545000D03*
X64052500Y-70085000D03*
D16*
X73704500Y-67545000D03*
D14*
X72942500Y-72625000D03*
X62782500Y-72625000D03*
D16*
X60777500Y-70085000D03*
D15*
X67862500Y-72625000D03*
%TD*%
D13*
%TO.C,SW62*%
X63258750Y-105645000D03*
X56908750Y-108185000D03*
D14*
X55638750Y-110725000D03*
D15*
X60718750Y-110725000D03*
D14*
X65798750Y-110725000D03*
D16*
X66560750Y-105645000D03*
X53633750Y-108185000D03*
%TD*%
D13*
%TO.C,SW7*%
X151365000Y-29445000D03*
X145015000Y-31985000D03*
D14*
X153905000Y-34525000D03*
D16*
X154667000Y-29445000D03*
D15*
X148825000Y-34525000D03*
D16*
X141740000Y-31985000D03*
D14*
X143745000Y-34525000D03*
%TD*%
D13*
%TO.C,SW36*%
X108502500Y-67545000D03*
X102152500Y-70085000D03*
D16*
X111804500Y-67545000D03*
D14*
X100882500Y-72625000D03*
D16*
X98877500Y-70085000D03*
D15*
X105962500Y-72625000D03*
D14*
X111042500Y-72625000D03*
%TD*%
D13*
%TO.C,SW29*%
X275190000Y-48495000D03*
X268840000Y-51035000D03*
D15*
X272650000Y-53575000D03*
D14*
X267570000Y-53575000D03*
D16*
X265565000Y-51035000D03*
X278492000Y-48495000D03*
D14*
X277730000Y-53575000D03*
%TD*%
D13*
%TO.C,SW39*%
X165652500Y-67545000D03*
X159302500Y-70085000D03*
D14*
X168192500Y-72625000D03*
D16*
X168954500Y-67545000D03*
D14*
X158032500Y-72625000D03*
D15*
X163112500Y-72625000D03*
D16*
X156027500Y-70085000D03*
%TD*%
D13*
%TO.C,SW32*%
X346627500Y-48495000D03*
X340277500Y-51035000D03*
D15*
X344087500Y-53575000D03*
D16*
X337002500Y-51035000D03*
X349929500Y-48495000D03*
D14*
X349167500Y-53575000D03*
X339007500Y-53575000D03*
%TD*%
D13*
%TO.C,SW65*%
X151365000Y-105645000D03*
X145015000Y-108185000D03*
D16*
X154667000Y-105645000D03*
D14*
X153905000Y-110725000D03*
D15*
X148825000Y-110725000D03*
D14*
X143745000Y-110725000D03*
D16*
X141740000Y-108185000D03*
%TD*%
D13*
%TO.C,SW52*%
X156127500Y-86595000D03*
X149777500Y-89135000D03*
D15*
X153587500Y-91675000D03*
D16*
X159429500Y-86595000D03*
D14*
X148507500Y-91675000D03*
X158667500Y-91675000D03*
D16*
X146502500Y-89135000D03*
%TD*%
D13*
%TO.C,SW48*%
X79927500Y-86595000D03*
X73577500Y-89135000D03*
D14*
X82467500Y-91675000D03*
X72307500Y-91675000D03*
D16*
X70302500Y-89135000D03*
X83229500Y-86595000D03*
D15*
X77387500Y-91675000D03*
%TD*%
D13*
%TO.C,SW43*%
X241852500Y-67545000D03*
X235502500Y-70085000D03*
D14*
X234232500Y-72625000D03*
D15*
X239312500Y-72625000D03*
D16*
X232227500Y-70085000D03*
X245154500Y-67545000D03*
D14*
X244392500Y-72625000D03*
%TD*%
D13*
%TO.C,SW71*%
X327577500Y-105645000D03*
X321227500Y-108185000D03*
D15*
X325037500Y-110725000D03*
D14*
X330117500Y-110725000D03*
X319957500Y-110725000D03*
D16*
X330879500Y-105645000D03*
X317952500Y-108185000D03*
%TD*%
D17*
%TO.C,REF\u002A\u002A9*%
X189350000Y-122700000D03*
%TD*%
D13*
%TO.C,SW54*%
X194227500Y-86595000D03*
X187877500Y-89135000D03*
D16*
X197529500Y-86595000D03*
D14*
X196767500Y-91675000D03*
D15*
X191687500Y-91675000D03*
D16*
X184602500Y-89135000D03*
D14*
X186607500Y-91675000D03*
%TD*%
D13*
%TO.C,SW22*%
X141840000Y-48495000D03*
X135490000Y-51035000D03*
D15*
X139300000Y-53575000D03*
D16*
X132215000Y-51035000D03*
X145142000Y-48495000D03*
D14*
X134220000Y-53575000D03*
X144380000Y-53575000D03*
%TD*%
D13*
%TO.C,SW44*%
X260902500Y-67545000D03*
X254552500Y-70085000D03*
D14*
X253282500Y-72625000D03*
D16*
X264204500Y-67545000D03*
D15*
X258362500Y-72625000D03*
D16*
X251277500Y-70085000D03*
D14*
X263442500Y-72625000D03*
%TD*%
D13*
%TO.C,SW16*%
X346627500Y-29445000D03*
X340277500Y-31985000D03*
D14*
X339007500Y-34525000D03*
D16*
X337002500Y-31985000D03*
X349929500Y-29445000D03*
D14*
X349167500Y-34525000D03*
D15*
X344087500Y-34525000D03*
%TD*%
D13*
%TO.C,SW14*%
X294240000Y-29445000D03*
X287890000Y-31985000D03*
D14*
X296780000Y-34525000D03*
X286620000Y-34525000D03*
D16*
X297542000Y-29445000D03*
X284615000Y-31985000D03*
D15*
X291700000Y-34525000D03*
%TD*%
D13*
%TO.C,SW5*%
X113265000Y-29445000D03*
X106915000Y-31985000D03*
D14*
X105645000Y-34525000D03*
X115805000Y-34525000D03*
D16*
X103640000Y-31985000D03*
D15*
X110725000Y-34525000D03*
D16*
X116567000Y-29445000D03*
%TD*%
D17*
%TO.C,REF\u002A\u002A4*%
X272750000Y-22450000D03*
%TD*%
D13*
%TO.C,SW31*%
X327577500Y-48495000D03*
X321227500Y-51035000D03*
D14*
X330117500Y-53575000D03*
D16*
X330879500Y-48495000D03*
D15*
X325037500Y-53575000D03*
D16*
X317952500Y-51035000D03*
D14*
X319957500Y-53575000D03*
%TD*%
D13*
%TO.C,SW4*%
X94215000Y-29445000D03*
X87865000Y-31985000D03*
D15*
X91675000Y-34525000D03*
D14*
X96755000Y-34525000D03*
D16*
X84590000Y-31985000D03*
D14*
X86595000Y-34525000D03*
D16*
X97517000Y-29445000D03*
%TD*%
D13*
%TO.C,SW40*%
X184702500Y-67545000D03*
X178352500Y-70085000D03*
D16*
X175077500Y-70085000D03*
D14*
X177082500Y-72625000D03*
D16*
X188004500Y-67545000D03*
D14*
X187242500Y-72625000D03*
D15*
X182162500Y-72625000D03*
%TD*%
D13*
%TO.C,SW53*%
X175177500Y-86595000D03*
X168827500Y-89135000D03*
D14*
X177717500Y-91675000D03*
D16*
X178479500Y-86595000D03*
D15*
X172637500Y-91675000D03*
D14*
X167557500Y-91675000D03*
D16*
X165552500Y-89135000D03*
%TD*%
D13*
%TO.C,SW28*%
X256140000Y-48495000D03*
X249790000Y-51035000D03*
D16*
X246515000Y-51035000D03*
D14*
X258680000Y-53575000D03*
X248520000Y-53575000D03*
D16*
X259442000Y-48495000D03*
D15*
X253600000Y-53575000D03*
%TD*%
D13*
%TO.C,SW35*%
X89452500Y-67545000D03*
X83102500Y-70085000D03*
D15*
X86912500Y-72625000D03*
D14*
X91992500Y-72625000D03*
D16*
X92754500Y-67545000D03*
X79827500Y-70085000D03*
D14*
X81832500Y-72625000D03*
%TD*%
D13*
%TO.C,SW23*%
X160890000Y-48495000D03*
X154540000Y-51035000D03*
D14*
X163430000Y-53575000D03*
D15*
X158350000Y-53575000D03*
D16*
X151265000Y-51035000D03*
D14*
X153270000Y-53575000D03*
D16*
X164192000Y-48495000D03*
%TD*%
D13*
%TO.C,SW6*%
X132315000Y-29445000D03*
X125965000Y-31985000D03*
D14*
X134855000Y-34525000D03*
D15*
X129775000Y-34525000D03*
D16*
X122690000Y-31985000D03*
D14*
X124695000Y-34525000D03*
D16*
X135617000Y-29445000D03*
%TD*%
D13*
%TO.C,SW66*%
X187083750Y-105645000D03*
X180733750Y-108185000D03*
D14*
X179463750Y-110725000D03*
D16*
X177458750Y-108185000D03*
D14*
X189623750Y-110725000D03*
D15*
X184543750Y-110725000D03*
D16*
X190385750Y-105645000D03*
%TD*%
D13*
%TO.C,SW56*%
X232327500Y-86595000D03*
X225977500Y-89135000D03*
D14*
X234867500Y-91675000D03*
X224707500Y-91675000D03*
D16*
X235629500Y-86595000D03*
X222702500Y-89135000D03*
D15*
X229787500Y-91675000D03*
%TD*%
D17*
%TO.C,REF\u002A\u002A2*%
X105950000Y-22450000D03*
%TD*%
D13*
%TO.C,SW50*%
X118027500Y-86595000D03*
X111677500Y-89135000D03*
D14*
X120567500Y-91675000D03*
D16*
X108402500Y-89135000D03*
D14*
X110407500Y-91675000D03*
D15*
X115487500Y-91675000D03*
D16*
X121329500Y-86595000D03*
%TD*%
D13*
%TO.C,SW46*%
X39446250Y-86595000D03*
X33096250Y-89135000D03*
D14*
X31826250Y-91675000D03*
D15*
X36906250Y-91675000D03*
D16*
X42748250Y-86595000D03*
D14*
X41986250Y-91675000D03*
D16*
X29821250Y-89135000D03*
%TD*%
D13*
%TO.C,SW72*%
X346627500Y-105645000D03*
X340277500Y-108185000D03*
D15*
X344087500Y-110725000D03*
D16*
X349929500Y-105645000D03*
D14*
X349167500Y-110725000D03*
D16*
X337002500Y-108185000D03*
D14*
X339007500Y-110725000D03*
%TD*%
D13*
%TO.C,SW61*%
X39446250Y-105645000D03*
X33096250Y-108185000D03*
D14*
X41986250Y-110725000D03*
D15*
X36906250Y-110725000D03*
D14*
X31826250Y-110725000D03*
D16*
X42748250Y-105645000D03*
X29821250Y-108185000D03*
%TD*%
D13*
%TO.C,SW30*%
X301383750Y-58020000D03*
X295033750Y-60560000D03*
D14*
X293763750Y-63100000D03*
D16*
X304685750Y-58020000D03*
D15*
X298843750Y-63100000D03*
D14*
X303923750Y-63100000D03*
D16*
X291758750Y-60560000D03*
%TD*%
D17*
%TO.C,REF\u002A\u002A8*%
X105950000Y-122700000D03*
%TD*%
%TO.C,REF\u002A\u002A6*%
X22550000Y-72575000D03*
%TD*%
D13*
%TO.C,SW2*%
X56115000Y-29445000D03*
X49765000Y-31985000D03*
D16*
X46490000Y-31985000D03*
D15*
X53575000Y-34525000D03*
D14*
X48495000Y-34525000D03*
X58655000Y-34525000D03*
D16*
X59417000Y-29445000D03*
%TD*%
D17*
%TO.C,REF\u002A\u002A7*%
X22550000Y-122700000D03*
%TD*%
D13*
%TO.C,SW42*%
X222802500Y-67545000D03*
X216452500Y-70085000D03*
D14*
X215182500Y-72625000D03*
X225342500Y-72625000D03*
D16*
X226104500Y-67545000D03*
X213177500Y-70085000D03*
D15*
X220262500Y-72625000D03*
%TD*%
D13*
%TO.C,SW47*%
X60877500Y-86595000D03*
X54527500Y-89135000D03*
D14*
X53257500Y-91675000D03*
D16*
X64179500Y-86595000D03*
D14*
X63417500Y-91675000D03*
D15*
X58337500Y-91675000D03*
D16*
X51252500Y-89135000D03*
%TD*%
D13*
%TO.C,SW13*%
X265665000Y-29445000D03*
X259315000Y-31985000D03*
D14*
X268205000Y-34525000D03*
X258045000Y-34525000D03*
D15*
X263125000Y-34525000D03*
D16*
X268967000Y-29445000D03*
X256040000Y-31985000D03*
%TD*%
D13*
%TO.C,SW70*%
X308527500Y-105645000D03*
X302177500Y-108185000D03*
D15*
X305987500Y-110725000D03*
D16*
X298902500Y-108185000D03*
D14*
X311067500Y-110725000D03*
D16*
X311829500Y-105645000D03*
D14*
X300907500Y-110725000D03*
%TD*%
D13*
%TO.C,SW45*%
X279952500Y-67545000D03*
X273602500Y-70085000D03*
D16*
X270327500Y-70085000D03*
X283254500Y-67545000D03*
D14*
X272332500Y-72625000D03*
D15*
X277412500Y-72625000D03*
D14*
X282492500Y-72625000D03*
%TD*%
D13*
%TO.C,SW41*%
X203752500Y-67545000D03*
X197402500Y-70085000D03*
D16*
X194127500Y-70085000D03*
D15*
X201212500Y-72625000D03*
D14*
X206292500Y-72625000D03*
D16*
X207054500Y-67545000D03*
D14*
X196132500Y-72625000D03*
%TD*%
D13*
%TO.C,SW69*%
X272808750Y-105645000D03*
X266458750Y-108185000D03*
D15*
X270268750Y-110725000D03*
D14*
X265188750Y-110725000D03*
D16*
X263183750Y-108185000D03*
D14*
X275348750Y-110725000D03*
D16*
X276110750Y-105645000D03*
%TD*%
D13*
%TO.C,SW17*%
X41827500Y-48495000D03*
X35477500Y-51035000D03*
D15*
X39287500Y-53575000D03*
D14*
X34207500Y-53575000D03*
D16*
X45129500Y-48495000D03*
X32202500Y-51035000D03*
D14*
X44367500Y-53575000D03*
%TD*%
D17*
%TO.C,REF\u002A\u002A10*%
X272750000Y-122700000D03*
%TD*%
D13*
%TO.C,SW67*%
X225183750Y-105645000D03*
X218833750Y-108185000D03*
D16*
X215558750Y-108185000D03*
X228485750Y-105645000D03*
D15*
X222643750Y-110725000D03*
D14*
X217563750Y-110725000D03*
X227723750Y-110725000D03*
%TD*%
D13*
%TO.C,SW57*%
X251377500Y-86595000D03*
X245027500Y-89135000D03*
D16*
X254679500Y-86595000D03*
D15*
X248837500Y-91675000D03*
D16*
X241752500Y-89135000D03*
D14*
X253917500Y-91675000D03*
X243757500Y-91675000D03*
%TD*%
D13*
%TO.C,SW68*%
X248996250Y-105645000D03*
X242646250Y-108185000D03*
D14*
X251536250Y-110725000D03*
D15*
X246456250Y-110725000D03*
D14*
X241376250Y-110725000D03*
D16*
X239371250Y-108185000D03*
X252298250Y-105645000D03*
%TD*%
D13*
%TO.C,SW58*%
X277571250Y-86595000D03*
X271221250Y-89135000D03*
D16*
X280873250Y-86595000D03*
D14*
X280111250Y-91675000D03*
D15*
X275031250Y-91675000D03*
D14*
X269951250Y-91675000D03*
D16*
X267946250Y-89135000D03*
%TD*%
D13*
%TO.C,SW59*%
X303765000Y-86595000D03*
X297415000Y-89135000D03*
D14*
X306305000Y-91675000D03*
D16*
X294140000Y-89135000D03*
D15*
X301225000Y-91675000D03*
D16*
X307067000Y-86595000D03*
D14*
X296145000Y-91675000D03*
%TD*%
D13*
%TO.C,SW38*%
X146602500Y-67545000D03*
X140252500Y-70085000D03*
D14*
X138982500Y-72625000D03*
X149142500Y-72625000D03*
D16*
X136977500Y-70085000D03*
D15*
X144062500Y-72625000D03*
D16*
X149904500Y-67545000D03*
%TD*%
D13*
%TO.C,SW37*%
X127552500Y-67545000D03*
X121202500Y-70085000D03*
D16*
X130854500Y-67545000D03*
D14*
X130092500Y-72625000D03*
X119932500Y-72625000D03*
D15*
X125012500Y-72625000D03*
D16*
X117927500Y-70085000D03*
%TD*%
D17*
%TO.C,REF\u002A\u002A5*%
X356150000Y-22450000D03*
%TD*%
%TO.C,REF\u002A\u002A1*%
X22550000Y-22450000D03*
%TD*%
%TO.C,REF\u002A\u002A3*%
X189350000Y-22450000D03*
%TD*%
D13*
%TO.C,SW20*%
X103740000Y-48495000D03*
X97390000Y-51035000D03*
D14*
X106280000Y-53575000D03*
X96120000Y-53575000D03*
D16*
X94115000Y-51035000D03*
X107042000Y-48495000D03*
D15*
X101200000Y-53575000D03*
%TD*%
D13*
%TO.C,SW9*%
X189465000Y-29445000D03*
X183115000Y-31985000D03*
D16*
X192767000Y-29445000D03*
D14*
X192005000Y-34525000D03*
D15*
X186925000Y-34525000D03*
D16*
X179840000Y-31985000D03*
D14*
X181845000Y-34525000D03*
%TD*%
D13*
%TO.C,SW27*%
X237090000Y-48495000D03*
X230740000Y-51035000D03*
D16*
X227465000Y-51035000D03*
X240392000Y-48495000D03*
D15*
X234550000Y-53575000D03*
D14*
X239630000Y-53575000D03*
X229470000Y-53575000D03*
%TD*%
D13*
%TO.C,SW1*%
X37065000Y-29445000D03*
X30715000Y-31985000D03*
D14*
X29445000Y-34525000D03*
D15*
X34525000Y-34525000D03*
D16*
X27440000Y-31985000D03*
D14*
X39605000Y-34525000D03*
D16*
X40367000Y-29445000D03*
%TD*%
D13*
%TO.C,SW26*%
X218040000Y-48495000D03*
X211690000Y-51035000D03*
D14*
X210420000Y-53575000D03*
D16*
X208415000Y-51035000D03*
D14*
X220580000Y-53575000D03*
D16*
X221342000Y-48495000D03*
D15*
X215500000Y-53575000D03*
%TD*%
D13*
%TO.C,SW10*%
X208515000Y-29445000D03*
X202165000Y-31985000D03*
D14*
X211055000Y-34525000D03*
D16*
X211817000Y-29445000D03*
D15*
X205975000Y-34525000D03*
D14*
X200895000Y-34525000D03*
D16*
X198890000Y-31985000D03*
%TD*%
D13*
%TO.C,SW12*%
X246615000Y-29445000D03*
X240265000Y-31985000D03*
D15*
X244075000Y-34525000D03*
D16*
X236990000Y-31985000D03*
D14*
X249155000Y-34525000D03*
X238995000Y-34525000D03*
D16*
X249917000Y-29445000D03*
%TD*%
D13*
%TO.C,SW21*%
X122790000Y-48495000D03*
X116440000Y-51035000D03*
D14*
X125330000Y-53575000D03*
D15*
X120250000Y-53575000D03*
D16*
X113165000Y-51035000D03*
D14*
X115170000Y-53575000D03*
D16*
X126092000Y-48495000D03*
%TD*%
D13*
%TO.C,SW49*%
X98977500Y-86595000D03*
X92627500Y-89135000D03*
D14*
X101517500Y-91675000D03*
D16*
X89352500Y-89135000D03*
D14*
X91357500Y-91675000D03*
D15*
X96437500Y-91675000D03*
D16*
X102279500Y-86595000D03*
%TD*%
D13*
%TO.C,SW15*%
X327577500Y-29445000D03*
X321227500Y-31985000D03*
D14*
X330117500Y-34525000D03*
X319957500Y-34525000D03*
D16*
X317952500Y-31985000D03*
X330879500Y-29445000D03*
D15*
X325037500Y-34525000D03*
%TD*%
D13*
%TO.C,SW63*%
X87071250Y-105645000D03*
X80721250Y-108185000D03*
D16*
X77446250Y-108185000D03*
D14*
X89611250Y-110725000D03*
D16*
X90373250Y-105645000D03*
D14*
X79451250Y-110725000D03*
D15*
X84531250Y-110725000D03*
%TD*%
D13*
%TO.C,SW8*%
X170415000Y-29445000D03*
X164065000Y-31985000D03*
D16*
X173717000Y-29445000D03*
X160790000Y-31985000D03*
D14*
X162795000Y-34525000D03*
D15*
X167875000Y-34525000D03*
D14*
X172955000Y-34525000D03*
%TD*%
D13*
%TO.C,SW60*%
X327577500Y-86595000D03*
X321227500Y-89135000D03*
D15*
X325037500Y-91675000D03*
D16*
X317952500Y-89135000D03*
D14*
X330117500Y-91675000D03*
D16*
X330879500Y-86595000D03*
D14*
X319957500Y-91675000D03*
%TD*%
D13*
%TO.C,SW24*%
X179940000Y-48495000D03*
X173590000Y-51035000D03*
D14*
X172320000Y-53575000D03*
D16*
X170315000Y-51035000D03*
X183242000Y-48495000D03*
D14*
X182480000Y-53575000D03*
D15*
X177400000Y-53575000D03*
%TD*%
D13*
%TO.C,SW55*%
X213277500Y-86595000D03*
X206927500Y-89135000D03*
D14*
X215817500Y-91675000D03*
D16*
X203652500Y-89135000D03*
D14*
X205657500Y-91675000D03*
D15*
X210737500Y-91675000D03*
D16*
X216579500Y-86595000D03*
%TD*%
D18*
%TO.C,U*%
X349370000Y-80220000D03*
X346830000Y-80220000D03*
X344290000Y-80220000D03*
X341750000Y-80220000D03*
X339210000Y-80220000D03*
X336670000Y-80220000D03*
X334130000Y-80220000D03*
X331590000Y-80220000D03*
X329050000Y-80220000D03*
X326510000Y-80220000D03*
X323970000Y-80220000D03*
X321430000Y-80220000D03*
X321430000Y-64980000D03*
X323970000Y-64980000D03*
X326510000Y-64980000D03*
X329050000Y-64980000D03*
X331590000Y-64980000D03*
X334130000Y-64980000D03*
X336670000Y-64980000D03*
X339210000Y-64980000D03*
X341750000Y-64980000D03*
X344290000Y-64980000D03*
X346830000Y-64980000D03*
D19*
X349370000Y-64980000D03*
%TD*%
D13*
%TO.C,SW64*%
X120408750Y-105645000D03*
X114058750Y-108185000D03*
D14*
X122948750Y-110725000D03*
D15*
X117868750Y-110725000D03*
D14*
X112788750Y-110725000D03*
D16*
X110783750Y-108185000D03*
X123710750Y-105645000D03*
%TD*%
D13*
%TO.C,SW25*%
X198990000Y-48495000D03*
X192640000Y-51035000D03*
D14*
X191370000Y-53575000D03*
D15*
X196450000Y-53575000D03*
D14*
X201530000Y-53575000D03*
D16*
X189365000Y-51035000D03*
X202292000Y-48495000D03*
%TD*%
D17*
%TO.C,REF\u002A\u002A11*%
X356150000Y-122700000D03*
%TD*%
D13*
%TO.C,SW18*%
X65640000Y-48495000D03*
X59290000Y-51035000D03*
D16*
X68942000Y-48495000D03*
X56015000Y-51035000D03*
D14*
X58020000Y-53575000D03*
D15*
X63100000Y-53575000D03*
D14*
X68180000Y-53575000D03*
%TD*%
D13*
%TO.C,SW3*%
X75165000Y-29445000D03*
X68815000Y-31985000D03*
D15*
X72625000Y-34525000D03*
D16*
X65540000Y-31985000D03*
D14*
X77705000Y-34525000D03*
D16*
X78467000Y-29445000D03*
D14*
X67545000Y-34525000D03*
%TD*%
D20*
%TO.C,D72*%
X349167500Y-114655000D03*
X349167500Y-116855000D03*
%TD*%
%TO.C,D17*%
X44367500Y-57505000D03*
X44367500Y-59705000D03*
%TD*%
%TO.C,D33*%
X46748750Y-76555000D03*
X46748750Y-78755000D03*
%TD*%
%TO.C,D35*%
X91992500Y-76555000D03*
X91992500Y-78755000D03*
%TD*%
%TO.C,D49*%
X101517500Y-95605000D03*
X101517500Y-97805000D03*
%TD*%
%TO.C,D2*%
X58655000Y-38455000D03*
X58655000Y-40655000D03*
%TD*%
%TO.C,D51*%
X139617500Y-95605000D03*
X139617500Y-97805000D03*
%TD*%
%TO.C,D3*%
X77705000Y-38455000D03*
X77705000Y-40655000D03*
%TD*%
%TO.C,D40*%
X187242500Y-76555000D03*
X187242500Y-78755000D03*
%TD*%
%TO.C,D5*%
X115805000Y-38455000D03*
X115805000Y-40655000D03*
%TD*%
%TO.C,D64*%
X122948750Y-114655000D03*
X122948750Y-116855000D03*
%TD*%
%TO.C,D1*%
X39605000Y-38455000D03*
X39605000Y-40655000D03*
%TD*%
%TO.C,D62*%
X65798750Y-114655000D03*
X65798750Y-116855000D03*
%TD*%
%TO.C,D59*%
X306305000Y-95605000D03*
X306305000Y-97805000D03*
%TD*%
%TO.C,D55*%
X215817500Y-95605000D03*
X215817500Y-97805000D03*
%TD*%
%TO.C,D38*%
X149142500Y-76555000D03*
X149142500Y-78755000D03*
%TD*%
%TO.C,D21*%
X125330000Y-57505000D03*
X125330000Y-59705000D03*
%TD*%
%TO.C,D44*%
X263442500Y-76555000D03*
X263442500Y-78755000D03*
%TD*%
%TO.C,D25*%
X201530000Y-57505000D03*
X201530000Y-59705000D03*
%TD*%
%TO.C,D29*%
X277730000Y-57505000D03*
X277730000Y-59705000D03*
%TD*%
%TO.C,D42*%
X225342500Y-76555000D03*
X225342500Y-78755000D03*
%TD*%
%TO.C,D67*%
X227723750Y-114655000D03*
X227723750Y-116855000D03*
%TD*%
%TO.C,D39*%
X168192500Y-76555000D03*
X168192500Y-78755000D03*
%TD*%
%TO.C,D66*%
X189623750Y-114655000D03*
X189623750Y-116855000D03*
%TD*%
%TO.C,D4*%
X96755000Y-38455000D03*
X96755000Y-40655000D03*
%TD*%
%TO.C,D8*%
X172955000Y-38455000D03*
X172955000Y-40655000D03*
%TD*%
%TO.C,D27*%
X239630000Y-57505000D03*
X239630000Y-59705000D03*
%TD*%
%TO.C,D6*%
X134855000Y-38455000D03*
X134855000Y-40655000D03*
%TD*%
%TO.C,D58*%
X280111250Y-95605000D03*
X280111250Y-97805000D03*
%TD*%
%TO.C,D48*%
X82467500Y-95605000D03*
X82467500Y-97805000D03*
%TD*%
%TO.C,D52*%
X158667500Y-95605000D03*
X158667500Y-97805000D03*
%TD*%
%TO.C,D43*%
X244392500Y-76555000D03*
X244392500Y-78755000D03*
%TD*%
%TO.C,D23*%
X163430000Y-57505000D03*
X163430000Y-59705000D03*
%TD*%
%TO.C,D57*%
X253917500Y-95605000D03*
X253917500Y-97805000D03*
%TD*%
%TO.C,D12*%
X249155000Y-38455000D03*
X249155000Y-40655000D03*
%TD*%
%TO.C,D22*%
X144380000Y-57505000D03*
X144380000Y-59705000D03*
%TD*%
%TO.C,D47*%
X63417500Y-95605000D03*
X63417500Y-97805000D03*
%TD*%
%TO.C,D53*%
X177717500Y-95605000D03*
X177717500Y-97805000D03*
%TD*%
%TO.C,D26*%
X220580000Y-57505000D03*
X220580000Y-59705000D03*
%TD*%
%TO.C,D65*%
X153905000Y-114655000D03*
X153905000Y-116855000D03*
%TD*%
%TO.C,D46*%
X41986250Y-95605000D03*
X41986250Y-97805000D03*
%TD*%
%TO.C,D71*%
X330117500Y-114655000D03*
X330117500Y-116855000D03*
%TD*%
%TO.C,D24*%
X182480000Y-57505000D03*
X182480000Y-59705000D03*
%TD*%
%TO.C,D50*%
X120567500Y-95605000D03*
X120567500Y-97805000D03*
%TD*%
%TO.C,D37*%
X130092500Y-76555000D03*
X130092500Y-78755000D03*
%TD*%
%TO.C,D60*%
X330117500Y-95605000D03*
X330117500Y-97805000D03*
%TD*%
%TO.C,D10*%
X211055000Y-38455000D03*
X211055000Y-40655000D03*
%TD*%
%TO.C,D30*%
X303923750Y-67030000D03*
X303923750Y-69230000D03*
%TD*%
%TO.C,D36*%
X111042500Y-76555000D03*
X111042500Y-78755000D03*
%TD*%
%TO.C,D15*%
X330117500Y-38455000D03*
X330117500Y-40655000D03*
%TD*%
%TO.C,D16*%
X349167500Y-38455000D03*
X349167500Y-40655000D03*
%TD*%
%TO.C,D61*%
X41986250Y-114655000D03*
X41986250Y-116855000D03*
%TD*%
%TO.C,D11*%
X230105000Y-38455000D03*
X230105000Y-40655000D03*
%TD*%
%TO.C,D28*%
X258680000Y-57505000D03*
X258680000Y-59705000D03*
%TD*%
%TO.C,D68*%
X251536250Y-114655000D03*
X251536250Y-116855000D03*
%TD*%
%TO.C,D9*%
X192005000Y-38455000D03*
X192005000Y-40655000D03*
%TD*%
%TO.C,D63*%
X89611250Y-114655000D03*
X89611250Y-116855000D03*
%TD*%
%TO.C,D19*%
X87230000Y-57505000D03*
X87230000Y-59705000D03*
%TD*%
%TO.C,D70*%
X311067500Y-114655000D03*
X311067500Y-116855000D03*
%TD*%
%TO.C,D34*%
X72942500Y-76555000D03*
X72942500Y-78755000D03*
%TD*%
%TO.C,D54*%
X196767500Y-95605000D03*
X196767500Y-97805000D03*
%TD*%
%TO.C,D32*%
X349167500Y-57505000D03*
X349167500Y-59705000D03*
%TD*%
%TO.C,D20*%
X106280000Y-57505000D03*
X106280000Y-59705000D03*
%TD*%
%TO.C,D56*%
X234867500Y-95605000D03*
X234867500Y-97805000D03*
%TD*%
%TO.C,D18*%
X68180000Y-57505000D03*
X68180000Y-59705000D03*
%TD*%
%TO.C,D69*%
X275348750Y-114655000D03*
X275348750Y-116855000D03*
%TD*%
%TO.C,D31*%
X330117500Y-57505000D03*
X330117500Y-59705000D03*
%TD*%
%TO.C,D7*%
X153905000Y-38455000D03*
X153905000Y-40655000D03*
%TD*%
%TO.C,D13*%
X268205000Y-38455000D03*
X268205000Y-40655000D03*
%TD*%
%TO.C,D41*%
X206292500Y-76555000D03*
X206292500Y-78755000D03*
%TD*%
%TO.C,D14*%
X296780000Y-38455000D03*
X296780000Y-40655000D03*
%TD*%
%TO.C,D45*%
X282492500Y-76555000D03*
X282492500Y-78755000D03*
%TD*%
M02*
