M48
; DRILL file {KiCad (6.0.2-0)} date 2022 March 14, Monday 13:34:20
; FORMAT={-:-/ absolute / metric / decimal}
; #@! TF.CreationDate,2022-03-14T13:34:20+01:00
; #@! TF.GenerationSoftware,Kicad,Pcbnew,(6.0.2-0)
; #@! TF.FileFunction,Plated,1,2,PTH
FMAT,2
METRIC
; #@! TA.AperFunction,Plated,PTH,ViaDrill
T1C0.400
; #@! TA.AperFunction,Plated,PTH,ComponentDrill
T2C0.800
; #@! TA.AperFunction,Plated,PTH,ComponentDrill
T3C1.000
; #@! TA.AperFunction,Plated,PTH,ComponentDrill
T4C1.092
; #@! TA.AperFunction,Plated,PTH,ComponentDrill
T5C3.050
%
G90
G05
T1
X149.8Y-98.529
X190.545Y-40.655
X193.2Y-44.574
X297.4Y-76.8
X302.388Y-68.588
X324.6Y-73.4
X325.4Y-72.6
X336.7Y-59.7
X344.145Y-40.655
T2
X336.8Y-85.46
X336.8Y-88.0
T3
X344.26Y-84.6
X346.8Y-84.6
T4
X321.43Y-64.98
X321.43Y-80.22
X323.97Y-64.98
X323.97Y-80.22
X326.51Y-64.98
X326.51Y-80.22
X329.05Y-64.98
X329.05Y-80.22
X331.59Y-64.98
X331.59Y-80.22
X334.13Y-64.98
X334.13Y-80.22
X336.67Y-64.98
X336.67Y-80.22
X339.21Y-64.98
X339.21Y-80.22
X341.75Y-64.98
X341.75Y-80.22
X344.29Y-64.98
X344.29Y-80.22
X346.83Y-64.98
X346.83Y-80.22
X349.37Y-64.98
X349.37Y-80.22
T5
X30.715Y-31.985
X33.096Y-89.135
X33.096Y-108.185
X35.477Y-51.035
X37.065Y-29.445
X37.859Y-70.085
X39.446Y-86.595
X39.446Y-105.645
X41.828Y-48.495
X44.209Y-67.545
X49.765Y-31.985
X54.527Y-89.135
X56.115Y-29.445
X56.909Y-108.185
X59.29Y-51.035
X60.877Y-86.595
X63.259Y-105.645
X64.052Y-70.085
X65.64Y-48.495
X68.815Y-31.985
X70.403Y-67.545
X73.578Y-89.135
X75.165Y-29.445
X78.34Y-51.035
X79.927Y-86.595
X80.721Y-108.185
X83.102Y-70.085
X84.69Y-48.495
X87.071Y-105.645
X87.865Y-31.985
X89.453Y-67.545
X92.627Y-89.135
X94.215Y-29.445
X97.39Y-51.035
X98.977Y-86.595
X102.152Y-70.085
X103.74Y-48.495
X106.915Y-31.985
X108.502Y-67.545
X111.677Y-89.135
X113.265Y-29.445
X114.059Y-108.185
X116.44Y-51.035
X118.027Y-86.595
X120.409Y-105.645
X121.203Y-70.085
X122.79Y-48.495
X125.965Y-31.985
X127.552Y-67.545
X130.727Y-89.135
X132.315Y-29.445
X135.49Y-51.035
X137.077Y-86.595
X140.252Y-70.085
X141.84Y-48.495
X145.015Y-31.985
X145.015Y-108.185
X146.602Y-67.545
X149.778Y-89.135
X151.365Y-29.445
X151.365Y-105.645
X154.54Y-51.035
X156.127Y-86.595
X159.302Y-70.085
X160.89Y-48.495
X164.065Y-31.985
X165.653Y-67.545
X168.827Y-89.135
X170.415Y-29.445
X173.59Y-51.035
X175.177Y-86.595
X178.352Y-70.085
X179.94Y-48.495
X180.734Y-108.185
X183.115Y-31.985
X184.702Y-67.545
X187.084Y-105.645
X187.877Y-89.135
X189.465Y-29.445
X192.64Y-51.035
X194.227Y-86.595
X197.403Y-70.085
X198.99Y-48.495
X202.165Y-31.985
X203.752Y-67.545
X206.927Y-89.135
X208.515Y-29.445
X211.69Y-51.035
X213.278Y-86.595
X216.452Y-70.085
X218.04Y-48.495
X218.834Y-108.185
X221.215Y-31.985
X222.802Y-67.545
X225.184Y-105.645
X225.977Y-89.135
X227.565Y-29.445
X230.74Y-51.035
X232.327Y-86.595
X235.502Y-70.085
X237.09Y-48.495
X240.265Y-31.985
X241.852Y-67.545
X242.646Y-108.185
X245.027Y-89.135
X246.615Y-29.445
X248.996Y-105.645
X249.79Y-51.035
X251.377Y-86.595
X254.552Y-70.085
X256.14Y-48.495
X259.315Y-31.985
X260.902Y-67.545
X265.665Y-29.445
X266.459Y-108.185
X268.84Y-51.035
X271.221Y-89.135
X272.809Y-105.645
X273.602Y-70.085
X275.19Y-48.495
X277.571Y-86.595
X279.952Y-67.545
X287.89Y-31.985
X294.24Y-29.445
X295.034Y-60.56
X297.415Y-89.135
X301.384Y-58.02
X302.178Y-108.185
X303.765Y-86.595
X308.527Y-105.645
X321.227Y-31.985
X321.227Y-51.035
X321.227Y-89.135
X321.227Y-108.185
X327.577Y-29.445
X327.577Y-48.495
X327.577Y-86.595
X327.577Y-105.645
X340.277Y-31.985
X340.277Y-51.035
X340.277Y-108.185
X346.627Y-29.445
X346.627Y-48.495
X346.627Y-105.645
T0
M30
