M48
; DRILL file {KiCad (6.0.2-0)} date 2022 March 14, Monday 13:34:20
; FORMAT={-:-/ absolute / metric / decimal}
; #@! TF.CreationDate,2022-03-14T13:34:20+01:00
; #@! TF.GenerationSoftware,Kicad,Pcbnew,(6.0.2-0)
; #@! TF.FileFunction,NonPlated,1,2,NPTH
FMAT,2
METRIC
; #@! TA.AperFunction,NonPlated,NPTH,ComponentDrill
T1C1.750
; #@! TA.AperFunction,NonPlated,NPTH,ComponentDrill
T2C2.200
; #@! TA.AperFunction,NonPlated,NPTH,ComponentDrill
T3C4.000
%
G90
G05
T1
X29.445Y-34.525
X31.826Y-91.675
X31.826Y-110.725
X34.207Y-53.575
X36.589Y-72.625
X39.605Y-34.525
X41.986Y-91.675
X41.986Y-110.725
X44.367Y-53.575
X46.749Y-72.625
X48.495Y-34.525
X53.258Y-91.675
X55.639Y-110.725
X58.02Y-53.575
X58.655Y-34.525
X62.782Y-72.625
X63.417Y-91.675
X65.799Y-110.725
X67.545Y-34.525
X68.18Y-53.575
X72.307Y-91.675
X72.942Y-72.625
X77.07Y-53.575
X77.705Y-34.525
X79.451Y-110.725
X81.832Y-72.625
X82.468Y-91.675
X86.595Y-34.525
X87.23Y-53.575
X89.611Y-110.725
X91.358Y-91.675
X91.992Y-72.625
X96.12Y-53.575
X96.755Y-34.525
X100.882Y-72.625
X101.517Y-91.675
X105.645Y-34.525
X106.28Y-53.575
X110.407Y-91.675
X111.042Y-72.625
X112.789Y-110.725
X115.17Y-53.575
X115.805Y-34.525
X119.932Y-72.625
X120.567Y-91.675
X122.949Y-110.725
X124.695Y-34.525
X125.33Y-53.575
X129.457Y-91.675
X130.093Y-72.625
X134.22Y-53.575
X134.855Y-34.525
X138.982Y-72.625
X139.618Y-91.675
X143.745Y-34.525
X143.745Y-110.725
X144.38Y-53.575
X148.507Y-91.675
X149.142Y-72.625
X153.27Y-53.575
X153.905Y-34.525
X153.905Y-110.725
X158.032Y-72.625
X158.667Y-91.675
X162.795Y-34.525
X163.43Y-53.575
X167.558Y-91.675
X168.192Y-72.625
X172.32Y-53.575
X172.955Y-34.525
X177.082Y-72.625
X177.718Y-91.675
X179.464Y-110.725
X181.845Y-34.525
X182.48Y-53.575
X186.607Y-91.675
X187.242Y-72.625
X189.624Y-110.725
X191.37Y-53.575
X192.005Y-34.525
X196.132Y-72.625
X196.767Y-91.675
X200.895Y-34.525
X201.53Y-53.575
X205.657Y-91.675
X206.292Y-72.625
X210.42Y-53.575
X211.055Y-34.525
X215.182Y-72.625
X215.817Y-91.675
X217.564Y-110.725
X219.945Y-34.525
X220.58Y-53.575
X224.707Y-91.675
X225.343Y-72.625
X227.724Y-110.725
X229.47Y-53.575
X230.105Y-34.525
X234.232Y-72.625
X234.867Y-91.675
X238.995Y-34.525
X239.63Y-53.575
X241.376Y-110.725
X243.757Y-91.675
X244.392Y-72.625
X248.52Y-53.575
X249.155Y-34.525
X251.536Y-110.725
X253.282Y-72.625
X253.917Y-91.675
X258.045Y-34.525
X258.68Y-53.575
X263.442Y-72.625
X265.189Y-110.725
X267.57Y-53.575
X268.205Y-34.525
X269.951Y-91.675
X272.332Y-72.625
X275.349Y-110.725
X277.73Y-53.575
X280.111Y-91.675
X282.493Y-72.625
X286.62Y-34.525
X293.764Y-63.1
X296.145Y-91.675
X296.78Y-34.525
X300.907Y-110.725
X303.924Y-63.1
X306.305Y-91.675
X311.067Y-110.725
X319.957Y-34.525
X319.957Y-53.575
X319.957Y-91.675
X319.957Y-110.725
X330.118Y-34.525
X330.118Y-53.575
X330.118Y-91.675
X330.118Y-110.725
X339.007Y-34.525
X339.007Y-53.575
X339.007Y-110.725
X349.167Y-34.525
X349.167Y-53.575
X349.167Y-110.725
T2
X22.55Y-22.45
X22.55Y-72.575
X22.55Y-122.7
X105.95Y-22.45
X105.95Y-122.7
X189.35Y-22.45
X189.35Y-122.7
X272.75Y-22.45
X272.75Y-122.7
X356.15Y-22.45
X356.15Y-122.7
T3
X34.525Y-34.525
X36.906Y-91.675
X36.906Y-110.725
X39.288Y-53.575
X41.669Y-72.625
X53.575Y-34.525
X58.337Y-91.675
X60.719Y-110.725
X63.1Y-53.575
X67.862Y-72.625
X72.625Y-34.525
X77.388Y-91.675
X82.15Y-53.575
X84.531Y-110.725
X86.912Y-72.625
X91.675Y-34.525
X96.438Y-91.675
X101.2Y-53.575
X105.962Y-72.625
X110.725Y-34.525
X115.487Y-91.675
X117.869Y-110.725
X120.25Y-53.575
X125.012Y-72.625
X129.775Y-34.525
X134.537Y-91.675
X139.3Y-53.575
X144.062Y-72.625
X148.825Y-34.525
X148.825Y-110.725
X153.588Y-91.675
X158.35Y-53.575
X163.112Y-72.625
X167.875Y-34.525
X172.637Y-91.675
X177.4Y-53.575
X182.162Y-72.625
X184.544Y-110.725
X186.925Y-34.525
X191.688Y-91.675
X196.45Y-53.575
X201.212Y-72.625
X205.975Y-34.525
X210.737Y-91.675
X215.5Y-53.575
X220.262Y-72.625
X222.644Y-110.725
X225.025Y-34.525
X229.787Y-91.675
X234.55Y-53.575
X239.312Y-72.625
X244.075Y-34.525
X246.456Y-110.725
X248.837Y-91.675
X253.6Y-53.575
X258.363Y-72.625
X263.125Y-34.525
X270.269Y-110.725
X272.65Y-53.575
X275.031Y-91.675
X277.412Y-72.625
X291.7Y-34.525
X298.844Y-63.1
X301.225Y-91.675
X305.988Y-110.725
X325.037Y-34.525
X325.037Y-53.575
X325.037Y-91.675
X325.037Y-110.725
X344.087Y-34.525
X344.087Y-53.575
X344.087Y-110.725
T0
M30
