G04 #@! TF.GenerationSoftware,KiCad,Pcbnew,(6.0.2-0)*
G04 #@! TF.CreationDate,2022-03-14T13:33:38+01:00*
G04 #@! TF.ProjectId,lasercut,6c617365-7263-4757-942e-6b696361645f,rev?*
G04 #@! TF.SameCoordinates,Original*
G04 #@! TF.FileFunction,Soldermask,Top*
G04 #@! TF.FilePolarity,Negative*
%FSLAX46Y46*%
G04 Gerber Fmt 4.6, Leading zero omitted, Abs format (unit mm)*
G04 Created by KiCad (PCBNEW (6.0.2-0)) date 2022-03-14 13:33:38*
%MOMM*%
%LPD*%
G01*
G04 APERTURE LIST*
G04 #@! TA.AperFunction,Profile*
%ADD10C,0.200000*%
G04 #@! TD*
%ADD11C,1.400000*%
%ADD12R,1.700000X1.700000*%
%ADD13O,1.700000X1.700000*%
%ADD14C,1.750000*%
%ADD15C,4.000000*%
%ADD16C,2.200000*%
%ADD17C,1.752600*%
%ADD18R,1.752600X1.752600*%
G04 APERTURE END LIST*
D10*
X356581000Y-125053620D02*
X356354000Y-125117010D01*
X22805240Y-125190040D02*
X22570990Y-125163860D01*
X358646000Y-122435340D02*
X358617000Y-122669620D01*
X357015000Y-124873100D02*
X356802000Y-124970930D01*
X20050540Y-122435340D02*
X20039530Y-122199680D01*
X356354000Y-125117010D02*
X356122000Y-125163860D01*
X358571000Y-122899730D02*
X358506000Y-123127100D01*
X358617000Y-122669620D02*
X358571000Y-122899730D01*
X23040890Y-19947690D02*
X355654000Y-19949690D01*
X358327000Y-21587690D02*
X358426000Y-21799690D01*
X358506000Y-123127100D02*
X358426000Y-123348960D01*
X20123600Y-122899730D02*
X20076710Y-122669620D01*
X21891610Y-20177690D02*
X22113480Y-20095690D01*
X358617000Y-22479690D02*
X358646000Y-22713690D01*
X358327000Y-123561190D02*
X358212000Y-123767880D01*
X20040910Y-22949690D02*
X20050540Y-22713690D01*
X22339470Y-20031690D02*
X22570990Y-19984690D01*
X357221000Y-20391690D02*
X357416000Y-20520690D01*
X20483260Y-123767880D02*
X20367510Y-123561190D01*
X356802000Y-20177690D02*
X357015000Y-20275690D01*
X20076710Y-122669620D02*
X20050540Y-122435340D01*
X355890000Y-19958690D02*
X356122000Y-19984690D01*
X20186960Y-22021690D02*
X20269650Y-21799690D01*
X358212000Y-21380690D02*
X358327000Y-21587690D01*
X22570990Y-125163860D02*
X22339470Y-125117010D01*
X20612800Y-123963570D02*
X20483260Y-123767880D01*
X357221000Y-124757320D02*
X357015000Y-124873100D01*
X20269650Y-21799690D02*
X20367510Y-21587690D01*
X20918720Y-124321890D02*
X20758850Y-124148250D01*
X358571000Y-22247690D02*
X358617000Y-22479690D01*
X20612800Y-21185690D02*
X20758850Y-21000690D01*
X20269650Y-123348960D02*
X20186960Y-123127100D01*
X21092360Y-124481730D02*
X20918720Y-124321890D01*
X356581000Y-20095690D02*
X356802000Y-20177690D01*
X358212000Y-123767880D02*
X358080000Y-123963570D01*
X20050540Y-22713690D02*
X20076710Y-22479690D01*
X20918720Y-20826690D02*
X21092360Y-20667690D01*
X358654000Y-122199680D02*
X358646000Y-122435340D01*
X22113480Y-20095690D02*
X22339470Y-20031690D01*
X357934000Y-21000690D02*
X358080000Y-21185690D01*
X20758850Y-21000690D02*
X20918720Y-20826690D01*
X358654000Y-22949690D02*
X358654000Y-122199680D01*
X356354000Y-20031690D02*
X356581000Y-20095690D01*
X21277010Y-124627780D02*
X21092360Y-124481730D01*
X21277010Y-20520690D02*
X21472690Y-20391690D01*
X21891610Y-124970930D02*
X21679380Y-124873100D01*
X20186960Y-123127100D02*
X20123600Y-122899730D01*
X20758850Y-124148250D02*
X20612800Y-123963570D01*
X20039530Y-122199680D02*
X20040910Y-22949690D01*
X358426000Y-123348960D02*
X358327000Y-123561190D01*
X357602000Y-20667690D02*
X357775000Y-20826690D01*
X23040890Y-125199670D02*
X22805240Y-125190040D01*
X356122000Y-19984690D02*
X356354000Y-20031690D01*
X21472690Y-124757320D02*
X21277010Y-124627780D01*
X358080000Y-21185690D02*
X358212000Y-21380690D01*
X20367510Y-123561190D02*
X20269650Y-123348960D01*
X357416000Y-124627780D02*
X357221000Y-124757320D01*
X355654000Y-125199670D02*
X23040890Y-125199670D01*
X356802000Y-124970930D02*
X356581000Y-125053620D01*
X356122000Y-125163860D02*
X355890000Y-125190040D01*
X355890000Y-125190040D02*
X355654000Y-125199670D01*
X22113480Y-125053620D02*
X21891610Y-124970930D01*
X357602000Y-124481730D02*
X357416000Y-124627780D01*
X20076710Y-22479690D02*
X20123600Y-22247690D01*
X21472690Y-20391690D02*
X21679380Y-20275690D01*
X20483260Y-21380690D02*
X20612800Y-21185690D01*
X357775000Y-124321890D02*
X357602000Y-124481730D01*
X21092360Y-20667690D02*
X21277010Y-20520690D01*
X21679380Y-20275690D02*
X21891610Y-20177690D01*
X22570990Y-19984690D02*
X22805240Y-19958690D01*
X357416000Y-20520690D02*
X357602000Y-20667690D01*
X22339470Y-125117010D02*
X22113480Y-125053620D01*
X357015000Y-20275690D02*
X357221000Y-20391690D01*
X357775000Y-20826690D02*
X357934000Y-21000690D01*
X358426000Y-21799690D02*
X358506000Y-22021690D01*
X22805240Y-19958690D02*
X23040890Y-19947690D01*
X355654000Y-19949690D02*
X355890000Y-19958690D01*
X20367510Y-21587690D02*
X20483260Y-21380690D01*
X21679380Y-124873100D02*
X21472690Y-124757320D01*
X357934000Y-124148250D02*
X357775000Y-124321890D01*
X358080000Y-123963570D02*
X357934000Y-124148250D01*
X20123600Y-22247690D02*
X20186960Y-22021690D01*
X358646000Y-22713690D02*
X358654000Y-22949690D01*
X358506000Y-22021690D02*
X358571000Y-22247690D01*
D11*
X336800000Y-88000000D03*
X336800000Y-85460000D03*
D12*
X344260000Y-84600000D03*
D13*
X346800000Y-84600000D03*
D14*
X219945000Y-34525000D03*
X230105000Y-34525000D03*
D15*
X225025000Y-34525000D03*
D14*
X129457500Y-91675000D03*
D15*
X134537500Y-91675000D03*
D14*
X139617500Y-91675000D03*
X36588750Y-72625000D03*
D15*
X41668750Y-72625000D03*
D14*
X46748750Y-72625000D03*
X77070000Y-53575000D03*
D15*
X82150000Y-53575000D03*
D14*
X87230000Y-53575000D03*
X72942500Y-72625000D03*
X62782500Y-72625000D03*
D15*
X67862500Y-72625000D03*
D14*
X55638750Y-110725000D03*
D15*
X60718750Y-110725000D03*
D14*
X65798750Y-110725000D03*
X153905000Y-34525000D03*
D15*
X148825000Y-34525000D03*
D14*
X143745000Y-34525000D03*
X100882500Y-72625000D03*
D15*
X105962500Y-72625000D03*
D14*
X111042500Y-72625000D03*
D15*
X272650000Y-53575000D03*
D14*
X267570000Y-53575000D03*
X277730000Y-53575000D03*
X168192500Y-72625000D03*
X158032500Y-72625000D03*
D15*
X163112500Y-72625000D03*
X344087500Y-53575000D03*
D14*
X349167500Y-53575000D03*
X339007500Y-53575000D03*
X153905000Y-110725000D03*
D15*
X148825000Y-110725000D03*
D14*
X143745000Y-110725000D03*
D15*
X153587500Y-91675000D03*
D14*
X148507500Y-91675000D03*
X158667500Y-91675000D03*
X82467500Y-91675000D03*
X72307500Y-91675000D03*
D15*
X77387500Y-91675000D03*
D14*
X234232500Y-72625000D03*
D15*
X239312500Y-72625000D03*
D14*
X244392500Y-72625000D03*
D15*
X325037500Y-110725000D03*
D14*
X330117500Y-110725000D03*
X319957500Y-110725000D03*
D16*
X189350000Y-122700000D03*
D14*
X196767500Y-91675000D03*
D15*
X191687500Y-91675000D03*
D14*
X186607500Y-91675000D03*
D15*
X139300000Y-53575000D03*
D14*
X134220000Y-53575000D03*
X144380000Y-53575000D03*
X253282500Y-72625000D03*
D15*
X258362500Y-72625000D03*
D14*
X263442500Y-72625000D03*
X339007500Y-34525000D03*
X349167500Y-34525000D03*
D15*
X344087500Y-34525000D03*
D14*
X296780000Y-34525000D03*
X286620000Y-34525000D03*
D15*
X291700000Y-34525000D03*
D14*
X105645000Y-34525000D03*
X115805000Y-34525000D03*
D15*
X110725000Y-34525000D03*
D16*
X272750000Y-22450000D03*
D14*
X330117500Y-53575000D03*
D15*
X325037500Y-53575000D03*
D14*
X319957500Y-53575000D03*
D15*
X91675000Y-34525000D03*
D14*
X96755000Y-34525000D03*
X86595000Y-34525000D03*
X177082500Y-72625000D03*
X187242500Y-72625000D03*
D15*
X182162500Y-72625000D03*
D14*
X177717500Y-91675000D03*
D15*
X172637500Y-91675000D03*
D14*
X167557500Y-91675000D03*
X258680000Y-53575000D03*
X248520000Y-53575000D03*
D15*
X253600000Y-53575000D03*
X86912500Y-72625000D03*
D14*
X91992500Y-72625000D03*
X81832500Y-72625000D03*
X163430000Y-53575000D03*
D15*
X158350000Y-53575000D03*
D14*
X153270000Y-53575000D03*
X134855000Y-34525000D03*
D15*
X129775000Y-34525000D03*
D14*
X124695000Y-34525000D03*
X179463750Y-110725000D03*
X189623750Y-110725000D03*
D15*
X184543750Y-110725000D03*
D14*
X234867500Y-91675000D03*
X224707500Y-91675000D03*
D15*
X229787500Y-91675000D03*
D16*
X105950000Y-22450000D03*
D14*
X120567500Y-91675000D03*
X110407500Y-91675000D03*
D15*
X115487500Y-91675000D03*
D14*
X31826250Y-91675000D03*
D15*
X36906250Y-91675000D03*
D14*
X41986250Y-91675000D03*
D15*
X344087500Y-110725000D03*
D14*
X349167500Y-110725000D03*
X339007500Y-110725000D03*
X41986250Y-110725000D03*
D15*
X36906250Y-110725000D03*
D14*
X31826250Y-110725000D03*
X293763750Y-63100000D03*
D15*
X298843750Y-63100000D03*
D14*
X303923750Y-63100000D03*
D16*
X105950000Y-122700000D03*
X22550000Y-72575000D03*
D15*
X53575000Y-34525000D03*
D14*
X48495000Y-34525000D03*
X58655000Y-34525000D03*
D16*
X22550000Y-122700000D03*
D14*
X215182500Y-72625000D03*
X225342500Y-72625000D03*
D15*
X220262500Y-72625000D03*
D14*
X53257500Y-91675000D03*
X63417500Y-91675000D03*
D15*
X58337500Y-91675000D03*
D14*
X268205000Y-34525000D03*
X258045000Y-34525000D03*
D15*
X263125000Y-34525000D03*
X305987500Y-110725000D03*
D14*
X311067500Y-110725000D03*
X300907500Y-110725000D03*
X272332500Y-72625000D03*
D15*
X277412500Y-72625000D03*
D14*
X282492500Y-72625000D03*
D15*
X201212500Y-72625000D03*
D14*
X206292500Y-72625000D03*
X196132500Y-72625000D03*
D15*
X270268750Y-110725000D03*
D14*
X265188750Y-110725000D03*
X275348750Y-110725000D03*
D15*
X39287500Y-53575000D03*
D14*
X34207500Y-53575000D03*
X44367500Y-53575000D03*
D16*
X272750000Y-122700000D03*
D15*
X222643750Y-110725000D03*
D14*
X217563750Y-110725000D03*
X227723750Y-110725000D03*
D15*
X248837500Y-91675000D03*
D14*
X253917500Y-91675000D03*
X243757500Y-91675000D03*
X251536250Y-110725000D03*
D15*
X246456250Y-110725000D03*
D14*
X241376250Y-110725000D03*
X280111250Y-91675000D03*
D15*
X275031250Y-91675000D03*
D14*
X269951250Y-91675000D03*
X306305000Y-91675000D03*
D15*
X301225000Y-91675000D03*
D14*
X296145000Y-91675000D03*
X138982500Y-72625000D03*
X149142500Y-72625000D03*
D15*
X144062500Y-72625000D03*
D14*
X130092500Y-72625000D03*
X119932500Y-72625000D03*
D15*
X125012500Y-72625000D03*
D16*
X356150000Y-22450000D03*
X22550000Y-22450000D03*
X189350000Y-22450000D03*
D14*
X106280000Y-53575000D03*
X96120000Y-53575000D03*
D15*
X101200000Y-53575000D03*
D14*
X192005000Y-34525000D03*
D15*
X186925000Y-34525000D03*
D14*
X181845000Y-34525000D03*
D15*
X234550000Y-53575000D03*
D14*
X239630000Y-53575000D03*
X229470000Y-53575000D03*
X29445000Y-34525000D03*
D15*
X34525000Y-34525000D03*
D14*
X39605000Y-34525000D03*
X210420000Y-53575000D03*
X220580000Y-53575000D03*
D15*
X215500000Y-53575000D03*
D14*
X211055000Y-34525000D03*
D15*
X205975000Y-34525000D03*
D14*
X200895000Y-34525000D03*
D15*
X244075000Y-34525000D03*
D14*
X249155000Y-34525000D03*
X238995000Y-34525000D03*
X125330000Y-53575000D03*
D15*
X120250000Y-53575000D03*
D14*
X115170000Y-53575000D03*
X101517500Y-91675000D03*
X91357500Y-91675000D03*
D15*
X96437500Y-91675000D03*
D14*
X330117500Y-34525000D03*
X319957500Y-34525000D03*
D15*
X325037500Y-34525000D03*
D14*
X89611250Y-110725000D03*
X79451250Y-110725000D03*
D15*
X84531250Y-110725000D03*
D14*
X162795000Y-34525000D03*
D15*
X167875000Y-34525000D03*
D14*
X172955000Y-34525000D03*
D15*
X325037500Y-91675000D03*
D14*
X330117500Y-91675000D03*
X319957500Y-91675000D03*
X172320000Y-53575000D03*
X182480000Y-53575000D03*
D15*
X177400000Y-53575000D03*
D14*
X215817500Y-91675000D03*
X205657500Y-91675000D03*
D15*
X210737500Y-91675000D03*
D17*
X349370000Y-80220000D03*
X346830000Y-80220000D03*
X344290000Y-80220000D03*
X341750000Y-80220000D03*
X339210000Y-80220000D03*
X336670000Y-80220000D03*
X334130000Y-80220000D03*
X331590000Y-80220000D03*
X329050000Y-80220000D03*
X326510000Y-80220000D03*
X323970000Y-80220000D03*
X321430000Y-80220000D03*
X321430000Y-64980000D03*
X323970000Y-64980000D03*
X326510000Y-64980000D03*
X329050000Y-64980000D03*
X331590000Y-64980000D03*
X334130000Y-64980000D03*
X336670000Y-64980000D03*
X339210000Y-64980000D03*
X341750000Y-64980000D03*
X344290000Y-64980000D03*
X346830000Y-64980000D03*
D18*
X349370000Y-64980000D03*
D14*
X122948750Y-110725000D03*
D15*
X117868750Y-110725000D03*
D14*
X112788750Y-110725000D03*
X191370000Y-53575000D03*
D15*
X196450000Y-53575000D03*
D14*
X201530000Y-53575000D03*
D16*
X356150000Y-122700000D03*
D14*
X58020000Y-53575000D03*
D15*
X63100000Y-53575000D03*
D14*
X68180000Y-53575000D03*
D15*
X72625000Y-34525000D03*
D14*
X77705000Y-34525000D03*
X67545000Y-34525000D03*
M02*
