%TF.GenerationSoftware,KiCad,Pcbnew,(6.0.2-0)*%
%TF.CreationDate,2022-03-14T13:24:27+01:00*%
%TF.ProjectId,lasercut,6c617365-7263-4757-942e-6b696361645f,rev?*%
%TF.SameCoordinates,Original*%
%TF.FileFunction,Legend,Top*%
%TF.FilePolarity,Positive*%
%FSLAX46Y46*%
G04 Gerber Fmt 4.6, Leading zero omitted, Abs format (unit mm)*
G04 Created by KiCad (PCBNEW (6.0.2-0)) date 2022-03-14 13:24:27*
%MOMM*%
%LPD*%
G01*
G04 APERTURE LIST*
%ADD10C,0.300000*%
%ADD11C,0.150000*%
%ADD12C,0.120000*%
%ADD13C,0.381000*%
%ADD14C,1.752600*%
%ADD15R,1.752600X1.752600*%
G04 APERTURE END LIST*
D10*
X341428571Y-84707142D02*
X342571428Y-84707142D01*
X342000000Y-85278571D02*
X342000000Y-84135714D01*
X348428571Y-84707142D02*
X349571428Y-84707142D01*
D11*
X335652380Y-88252380D02*
X335176190Y-88585714D01*
X335652380Y-88823809D02*
X334652380Y-88823809D01*
X334652380Y-88442857D01*
X334700000Y-88347619D01*
X334747619Y-88300000D01*
X334842857Y-88252380D01*
X334985714Y-88252380D01*
X335080952Y-88300000D01*
X335128571Y-88347619D01*
X335176190Y-88442857D01*
X335176190Y-88823809D01*
X335128571Y-87823809D02*
X335128571Y-87490476D01*
X335652380Y-87347619D02*
X335652380Y-87823809D01*
X334652380Y-87823809D01*
X334652380Y-87347619D01*
X335604761Y-86966666D02*
X335652380Y-86823809D01*
X335652380Y-86585714D01*
X335604761Y-86490476D01*
X335557142Y-86442857D01*
X335461904Y-86395238D01*
X335366666Y-86395238D01*
X335271428Y-86442857D01*
X335223809Y-86490476D01*
X335176190Y-86585714D01*
X335128571Y-86776190D01*
X335080952Y-86871428D01*
X335033333Y-86919047D01*
X334938095Y-86966666D01*
X334842857Y-86966666D01*
X334747619Y-86919047D01*
X334700000Y-86871428D01*
X334652380Y-86776190D01*
X334652380Y-86538095D01*
X334700000Y-86395238D01*
X335128571Y-85966666D02*
X335128571Y-85633333D01*
X335652380Y-85490476D02*
X335652380Y-85966666D01*
X334652380Y-85966666D01*
X334652380Y-85490476D01*
X334652380Y-85204761D02*
X334652380Y-84633333D01*
X335652380Y-84919047D02*
X334652380Y-84919047D01*
%TO.C,SW11*%
X223215476Y-26929761D02*
X223358333Y-26977380D01*
X223596428Y-26977380D01*
X223691666Y-26929761D01*
X223739285Y-26882142D01*
X223786904Y-26786904D01*
X223786904Y-26691666D01*
X223739285Y-26596428D01*
X223691666Y-26548809D01*
X223596428Y-26501190D01*
X223405952Y-26453571D01*
X223310714Y-26405952D01*
X223263095Y-26358333D01*
X223215476Y-26263095D01*
X223215476Y-26167857D01*
X223263095Y-26072619D01*
X223310714Y-26025000D01*
X223405952Y-25977380D01*
X223644047Y-25977380D01*
X223786904Y-26025000D01*
X224120238Y-25977380D02*
X224358333Y-26977380D01*
X224548809Y-26263095D01*
X224739285Y-26977380D01*
X224977380Y-25977380D01*
X225882142Y-26977380D02*
X225310714Y-26977380D01*
X225596428Y-26977380D02*
X225596428Y-25977380D01*
X225501190Y-26120238D01*
X225405952Y-26215476D01*
X225310714Y-26263095D01*
X226834523Y-26977380D02*
X226263095Y-26977380D01*
X226548809Y-26977380D02*
X226548809Y-25977380D01*
X226453571Y-26120238D01*
X226358333Y-26215476D01*
X226263095Y-26263095D01*
%TO.C,SW51*%
X132727976Y-84079761D02*
X132870833Y-84127380D01*
X133108928Y-84127380D01*
X133204166Y-84079761D01*
X133251785Y-84032142D01*
X133299404Y-83936904D01*
X133299404Y-83841666D01*
X133251785Y-83746428D01*
X133204166Y-83698809D01*
X133108928Y-83651190D01*
X132918452Y-83603571D01*
X132823214Y-83555952D01*
X132775595Y-83508333D01*
X132727976Y-83413095D01*
X132727976Y-83317857D01*
X132775595Y-83222619D01*
X132823214Y-83175000D01*
X132918452Y-83127380D01*
X133156547Y-83127380D01*
X133299404Y-83175000D01*
X133632738Y-83127380D02*
X133870833Y-84127380D01*
X134061309Y-83413095D01*
X134251785Y-84127380D01*
X134489880Y-83127380D01*
X135347023Y-83127380D02*
X134870833Y-83127380D01*
X134823214Y-83603571D01*
X134870833Y-83555952D01*
X134966071Y-83508333D01*
X135204166Y-83508333D01*
X135299404Y-83555952D01*
X135347023Y-83603571D01*
X135394642Y-83698809D01*
X135394642Y-83936904D01*
X135347023Y-84032142D01*
X135299404Y-84079761D01*
X135204166Y-84127380D01*
X134966071Y-84127380D01*
X134870833Y-84079761D01*
X134823214Y-84032142D01*
X136347023Y-84127380D02*
X135775595Y-84127380D01*
X136061309Y-84127380D02*
X136061309Y-83127380D01*
X135966071Y-83270238D01*
X135870833Y-83365476D01*
X135775595Y-83413095D01*
%TO.C,SW33*%
X39859226Y-65029761D02*
X40002083Y-65077380D01*
X40240178Y-65077380D01*
X40335416Y-65029761D01*
X40383035Y-64982142D01*
X40430654Y-64886904D01*
X40430654Y-64791666D01*
X40383035Y-64696428D01*
X40335416Y-64648809D01*
X40240178Y-64601190D01*
X40049702Y-64553571D01*
X39954464Y-64505952D01*
X39906845Y-64458333D01*
X39859226Y-64363095D01*
X39859226Y-64267857D01*
X39906845Y-64172619D01*
X39954464Y-64125000D01*
X40049702Y-64077380D01*
X40287797Y-64077380D01*
X40430654Y-64125000D01*
X40763988Y-64077380D02*
X41002083Y-65077380D01*
X41192559Y-64363095D01*
X41383035Y-65077380D01*
X41621130Y-64077380D01*
X41906845Y-64077380D02*
X42525892Y-64077380D01*
X42192559Y-64458333D01*
X42335416Y-64458333D01*
X42430654Y-64505952D01*
X42478273Y-64553571D01*
X42525892Y-64648809D01*
X42525892Y-64886904D01*
X42478273Y-64982142D01*
X42430654Y-65029761D01*
X42335416Y-65077380D01*
X42049702Y-65077380D01*
X41954464Y-65029761D01*
X41906845Y-64982142D01*
X42859226Y-64077380D02*
X43478273Y-64077380D01*
X43144940Y-64458333D01*
X43287797Y-64458333D01*
X43383035Y-64505952D01*
X43430654Y-64553571D01*
X43478273Y-64648809D01*
X43478273Y-64886904D01*
X43430654Y-64982142D01*
X43383035Y-65029761D01*
X43287797Y-65077380D01*
X43002083Y-65077380D01*
X42906845Y-65029761D01*
X42859226Y-64982142D01*
%TO.C,SW19*%
X80340476Y-45979761D02*
X80483333Y-46027380D01*
X80721428Y-46027380D01*
X80816666Y-45979761D01*
X80864285Y-45932142D01*
X80911904Y-45836904D01*
X80911904Y-45741666D01*
X80864285Y-45646428D01*
X80816666Y-45598809D01*
X80721428Y-45551190D01*
X80530952Y-45503571D01*
X80435714Y-45455952D01*
X80388095Y-45408333D01*
X80340476Y-45313095D01*
X80340476Y-45217857D01*
X80388095Y-45122619D01*
X80435714Y-45075000D01*
X80530952Y-45027380D01*
X80769047Y-45027380D01*
X80911904Y-45075000D01*
X81245238Y-45027380D02*
X81483333Y-46027380D01*
X81673809Y-45313095D01*
X81864285Y-46027380D01*
X82102380Y-45027380D01*
X83007142Y-46027380D02*
X82435714Y-46027380D01*
X82721428Y-46027380D02*
X82721428Y-45027380D01*
X82626190Y-45170238D01*
X82530952Y-45265476D01*
X82435714Y-45313095D01*
X83483333Y-46027380D02*
X83673809Y-46027380D01*
X83769047Y-45979761D01*
X83816666Y-45932142D01*
X83911904Y-45789285D01*
X83959523Y-45598809D01*
X83959523Y-45217857D01*
X83911904Y-45122619D01*
X83864285Y-45075000D01*
X83769047Y-45027380D01*
X83578571Y-45027380D01*
X83483333Y-45075000D01*
X83435714Y-45122619D01*
X83388095Y-45217857D01*
X83388095Y-45455952D01*
X83435714Y-45551190D01*
X83483333Y-45598809D01*
X83578571Y-45646428D01*
X83769047Y-45646428D01*
X83864285Y-45598809D01*
X83911904Y-45551190D01*
X83959523Y-45455952D01*
%TO.C,SW34*%
X66052976Y-65029761D02*
X66195833Y-65077380D01*
X66433928Y-65077380D01*
X66529166Y-65029761D01*
X66576785Y-64982142D01*
X66624404Y-64886904D01*
X66624404Y-64791666D01*
X66576785Y-64696428D01*
X66529166Y-64648809D01*
X66433928Y-64601190D01*
X66243452Y-64553571D01*
X66148214Y-64505952D01*
X66100595Y-64458333D01*
X66052976Y-64363095D01*
X66052976Y-64267857D01*
X66100595Y-64172619D01*
X66148214Y-64125000D01*
X66243452Y-64077380D01*
X66481547Y-64077380D01*
X66624404Y-64125000D01*
X66957738Y-64077380D02*
X67195833Y-65077380D01*
X67386309Y-64363095D01*
X67576785Y-65077380D01*
X67814880Y-64077380D01*
X68100595Y-64077380D02*
X68719642Y-64077380D01*
X68386309Y-64458333D01*
X68529166Y-64458333D01*
X68624404Y-64505952D01*
X68672023Y-64553571D01*
X68719642Y-64648809D01*
X68719642Y-64886904D01*
X68672023Y-64982142D01*
X68624404Y-65029761D01*
X68529166Y-65077380D01*
X68243452Y-65077380D01*
X68148214Y-65029761D01*
X68100595Y-64982142D01*
X69576785Y-64410714D02*
X69576785Y-65077380D01*
X69338690Y-64029761D02*
X69100595Y-64744047D01*
X69719642Y-64744047D01*
%TO.C,SW62*%
X58909226Y-103129761D02*
X59052083Y-103177380D01*
X59290178Y-103177380D01*
X59385416Y-103129761D01*
X59433035Y-103082142D01*
X59480654Y-102986904D01*
X59480654Y-102891666D01*
X59433035Y-102796428D01*
X59385416Y-102748809D01*
X59290178Y-102701190D01*
X59099702Y-102653571D01*
X59004464Y-102605952D01*
X58956845Y-102558333D01*
X58909226Y-102463095D01*
X58909226Y-102367857D01*
X58956845Y-102272619D01*
X59004464Y-102225000D01*
X59099702Y-102177380D01*
X59337797Y-102177380D01*
X59480654Y-102225000D01*
X59813988Y-102177380D02*
X60052083Y-103177380D01*
X60242559Y-102463095D01*
X60433035Y-103177380D01*
X60671130Y-102177380D01*
X61480654Y-102177380D02*
X61290178Y-102177380D01*
X61194940Y-102225000D01*
X61147321Y-102272619D01*
X61052083Y-102415476D01*
X61004464Y-102605952D01*
X61004464Y-102986904D01*
X61052083Y-103082142D01*
X61099702Y-103129761D01*
X61194940Y-103177380D01*
X61385416Y-103177380D01*
X61480654Y-103129761D01*
X61528273Y-103082142D01*
X61575892Y-102986904D01*
X61575892Y-102748809D01*
X61528273Y-102653571D01*
X61480654Y-102605952D01*
X61385416Y-102558333D01*
X61194940Y-102558333D01*
X61099702Y-102605952D01*
X61052083Y-102653571D01*
X61004464Y-102748809D01*
X61956845Y-102272619D02*
X62004464Y-102225000D01*
X62099702Y-102177380D01*
X62337797Y-102177380D01*
X62433035Y-102225000D01*
X62480654Y-102272619D01*
X62528273Y-102367857D01*
X62528273Y-102463095D01*
X62480654Y-102605952D01*
X61909226Y-103177380D01*
X62528273Y-103177380D01*
%TO.C,SW7*%
X147491666Y-26929761D02*
X147634523Y-26977380D01*
X147872619Y-26977380D01*
X147967857Y-26929761D01*
X148015476Y-26882142D01*
X148063095Y-26786904D01*
X148063095Y-26691666D01*
X148015476Y-26596428D01*
X147967857Y-26548809D01*
X147872619Y-26501190D01*
X147682142Y-26453571D01*
X147586904Y-26405952D01*
X147539285Y-26358333D01*
X147491666Y-26263095D01*
X147491666Y-26167857D01*
X147539285Y-26072619D01*
X147586904Y-26025000D01*
X147682142Y-25977380D01*
X147920238Y-25977380D01*
X148063095Y-26025000D01*
X148396428Y-25977380D02*
X148634523Y-26977380D01*
X148825000Y-26263095D01*
X149015476Y-26977380D01*
X149253571Y-25977380D01*
X149539285Y-25977380D02*
X150205952Y-25977380D01*
X149777380Y-26977380D01*
%TO.C,SW36*%
X104152976Y-65029761D02*
X104295833Y-65077380D01*
X104533928Y-65077380D01*
X104629166Y-65029761D01*
X104676785Y-64982142D01*
X104724404Y-64886904D01*
X104724404Y-64791666D01*
X104676785Y-64696428D01*
X104629166Y-64648809D01*
X104533928Y-64601190D01*
X104343452Y-64553571D01*
X104248214Y-64505952D01*
X104200595Y-64458333D01*
X104152976Y-64363095D01*
X104152976Y-64267857D01*
X104200595Y-64172619D01*
X104248214Y-64125000D01*
X104343452Y-64077380D01*
X104581547Y-64077380D01*
X104724404Y-64125000D01*
X105057738Y-64077380D02*
X105295833Y-65077380D01*
X105486309Y-64363095D01*
X105676785Y-65077380D01*
X105914880Y-64077380D01*
X106200595Y-64077380D02*
X106819642Y-64077380D01*
X106486309Y-64458333D01*
X106629166Y-64458333D01*
X106724404Y-64505952D01*
X106772023Y-64553571D01*
X106819642Y-64648809D01*
X106819642Y-64886904D01*
X106772023Y-64982142D01*
X106724404Y-65029761D01*
X106629166Y-65077380D01*
X106343452Y-65077380D01*
X106248214Y-65029761D01*
X106200595Y-64982142D01*
X107676785Y-64077380D02*
X107486309Y-64077380D01*
X107391071Y-64125000D01*
X107343452Y-64172619D01*
X107248214Y-64315476D01*
X107200595Y-64505952D01*
X107200595Y-64886904D01*
X107248214Y-64982142D01*
X107295833Y-65029761D01*
X107391071Y-65077380D01*
X107581547Y-65077380D01*
X107676785Y-65029761D01*
X107724404Y-64982142D01*
X107772023Y-64886904D01*
X107772023Y-64648809D01*
X107724404Y-64553571D01*
X107676785Y-64505952D01*
X107581547Y-64458333D01*
X107391071Y-64458333D01*
X107295833Y-64505952D01*
X107248214Y-64553571D01*
X107200595Y-64648809D01*
%TO.C,SW29*%
X270840476Y-45979761D02*
X270983333Y-46027380D01*
X271221428Y-46027380D01*
X271316666Y-45979761D01*
X271364285Y-45932142D01*
X271411904Y-45836904D01*
X271411904Y-45741666D01*
X271364285Y-45646428D01*
X271316666Y-45598809D01*
X271221428Y-45551190D01*
X271030952Y-45503571D01*
X270935714Y-45455952D01*
X270888095Y-45408333D01*
X270840476Y-45313095D01*
X270840476Y-45217857D01*
X270888095Y-45122619D01*
X270935714Y-45075000D01*
X271030952Y-45027380D01*
X271269047Y-45027380D01*
X271411904Y-45075000D01*
X271745238Y-45027380D02*
X271983333Y-46027380D01*
X272173809Y-45313095D01*
X272364285Y-46027380D01*
X272602380Y-45027380D01*
X272935714Y-45122619D02*
X272983333Y-45075000D01*
X273078571Y-45027380D01*
X273316666Y-45027380D01*
X273411904Y-45075000D01*
X273459523Y-45122619D01*
X273507142Y-45217857D01*
X273507142Y-45313095D01*
X273459523Y-45455952D01*
X272888095Y-46027380D01*
X273507142Y-46027380D01*
X273983333Y-46027380D02*
X274173809Y-46027380D01*
X274269047Y-45979761D01*
X274316666Y-45932142D01*
X274411904Y-45789285D01*
X274459523Y-45598809D01*
X274459523Y-45217857D01*
X274411904Y-45122619D01*
X274364285Y-45075000D01*
X274269047Y-45027380D01*
X274078571Y-45027380D01*
X273983333Y-45075000D01*
X273935714Y-45122619D01*
X273888095Y-45217857D01*
X273888095Y-45455952D01*
X273935714Y-45551190D01*
X273983333Y-45598809D01*
X274078571Y-45646428D01*
X274269047Y-45646428D01*
X274364285Y-45598809D01*
X274411904Y-45551190D01*
X274459523Y-45455952D01*
%TO.C,SW39*%
X161302976Y-65029761D02*
X161445833Y-65077380D01*
X161683928Y-65077380D01*
X161779166Y-65029761D01*
X161826785Y-64982142D01*
X161874404Y-64886904D01*
X161874404Y-64791666D01*
X161826785Y-64696428D01*
X161779166Y-64648809D01*
X161683928Y-64601190D01*
X161493452Y-64553571D01*
X161398214Y-64505952D01*
X161350595Y-64458333D01*
X161302976Y-64363095D01*
X161302976Y-64267857D01*
X161350595Y-64172619D01*
X161398214Y-64125000D01*
X161493452Y-64077380D01*
X161731547Y-64077380D01*
X161874404Y-64125000D01*
X162207738Y-64077380D02*
X162445833Y-65077380D01*
X162636309Y-64363095D01*
X162826785Y-65077380D01*
X163064880Y-64077380D01*
X163350595Y-64077380D02*
X163969642Y-64077380D01*
X163636309Y-64458333D01*
X163779166Y-64458333D01*
X163874404Y-64505952D01*
X163922023Y-64553571D01*
X163969642Y-64648809D01*
X163969642Y-64886904D01*
X163922023Y-64982142D01*
X163874404Y-65029761D01*
X163779166Y-65077380D01*
X163493452Y-65077380D01*
X163398214Y-65029761D01*
X163350595Y-64982142D01*
X164445833Y-65077380D02*
X164636309Y-65077380D01*
X164731547Y-65029761D01*
X164779166Y-64982142D01*
X164874404Y-64839285D01*
X164922023Y-64648809D01*
X164922023Y-64267857D01*
X164874404Y-64172619D01*
X164826785Y-64125000D01*
X164731547Y-64077380D01*
X164541071Y-64077380D01*
X164445833Y-64125000D01*
X164398214Y-64172619D01*
X164350595Y-64267857D01*
X164350595Y-64505952D01*
X164398214Y-64601190D01*
X164445833Y-64648809D01*
X164541071Y-64696428D01*
X164731547Y-64696428D01*
X164826785Y-64648809D01*
X164874404Y-64601190D01*
X164922023Y-64505952D01*
%TO.C,SW32*%
X342277976Y-45979761D02*
X342420833Y-46027380D01*
X342658928Y-46027380D01*
X342754166Y-45979761D01*
X342801785Y-45932142D01*
X342849404Y-45836904D01*
X342849404Y-45741666D01*
X342801785Y-45646428D01*
X342754166Y-45598809D01*
X342658928Y-45551190D01*
X342468452Y-45503571D01*
X342373214Y-45455952D01*
X342325595Y-45408333D01*
X342277976Y-45313095D01*
X342277976Y-45217857D01*
X342325595Y-45122619D01*
X342373214Y-45075000D01*
X342468452Y-45027380D01*
X342706547Y-45027380D01*
X342849404Y-45075000D01*
X343182738Y-45027380D02*
X343420833Y-46027380D01*
X343611309Y-45313095D01*
X343801785Y-46027380D01*
X344039880Y-45027380D01*
X344325595Y-45027380D02*
X344944642Y-45027380D01*
X344611309Y-45408333D01*
X344754166Y-45408333D01*
X344849404Y-45455952D01*
X344897023Y-45503571D01*
X344944642Y-45598809D01*
X344944642Y-45836904D01*
X344897023Y-45932142D01*
X344849404Y-45979761D01*
X344754166Y-46027380D01*
X344468452Y-46027380D01*
X344373214Y-45979761D01*
X344325595Y-45932142D01*
X345325595Y-45122619D02*
X345373214Y-45075000D01*
X345468452Y-45027380D01*
X345706547Y-45027380D01*
X345801785Y-45075000D01*
X345849404Y-45122619D01*
X345897023Y-45217857D01*
X345897023Y-45313095D01*
X345849404Y-45455952D01*
X345277976Y-46027380D01*
X345897023Y-46027380D01*
%TO.C,SW65*%
X147015476Y-103129761D02*
X147158333Y-103177380D01*
X147396428Y-103177380D01*
X147491666Y-103129761D01*
X147539285Y-103082142D01*
X147586904Y-102986904D01*
X147586904Y-102891666D01*
X147539285Y-102796428D01*
X147491666Y-102748809D01*
X147396428Y-102701190D01*
X147205952Y-102653571D01*
X147110714Y-102605952D01*
X147063095Y-102558333D01*
X147015476Y-102463095D01*
X147015476Y-102367857D01*
X147063095Y-102272619D01*
X147110714Y-102225000D01*
X147205952Y-102177380D01*
X147444047Y-102177380D01*
X147586904Y-102225000D01*
X147920238Y-102177380D02*
X148158333Y-103177380D01*
X148348809Y-102463095D01*
X148539285Y-103177380D01*
X148777380Y-102177380D01*
X149586904Y-102177380D02*
X149396428Y-102177380D01*
X149301190Y-102225000D01*
X149253571Y-102272619D01*
X149158333Y-102415476D01*
X149110714Y-102605952D01*
X149110714Y-102986904D01*
X149158333Y-103082142D01*
X149205952Y-103129761D01*
X149301190Y-103177380D01*
X149491666Y-103177380D01*
X149586904Y-103129761D01*
X149634523Y-103082142D01*
X149682142Y-102986904D01*
X149682142Y-102748809D01*
X149634523Y-102653571D01*
X149586904Y-102605952D01*
X149491666Y-102558333D01*
X149301190Y-102558333D01*
X149205952Y-102605952D01*
X149158333Y-102653571D01*
X149110714Y-102748809D01*
X150586904Y-102177380D02*
X150110714Y-102177380D01*
X150063095Y-102653571D01*
X150110714Y-102605952D01*
X150205952Y-102558333D01*
X150444047Y-102558333D01*
X150539285Y-102605952D01*
X150586904Y-102653571D01*
X150634523Y-102748809D01*
X150634523Y-102986904D01*
X150586904Y-103082142D01*
X150539285Y-103129761D01*
X150444047Y-103177380D01*
X150205952Y-103177380D01*
X150110714Y-103129761D01*
X150063095Y-103082142D01*
%TO.C,SW52*%
X151777976Y-84079761D02*
X151920833Y-84127380D01*
X152158928Y-84127380D01*
X152254166Y-84079761D01*
X152301785Y-84032142D01*
X152349404Y-83936904D01*
X152349404Y-83841666D01*
X152301785Y-83746428D01*
X152254166Y-83698809D01*
X152158928Y-83651190D01*
X151968452Y-83603571D01*
X151873214Y-83555952D01*
X151825595Y-83508333D01*
X151777976Y-83413095D01*
X151777976Y-83317857D01*
X151825595Y-83222619D01*
X151873214Y-83175000D01*
X151968452Y-83127380D01*
X152206547Y-83127380D01*
X152349404Y-83175000D01*
X152682738Y-83127380D02*
X152920833Y-84127380D01*
X153111309Y-83413095D01*
X153301785Y-84127380D01*
X153539880Y-83127380D01*
X154397023Y-83127380D02*
X153920833Y-83127380D01*
X153873214Y-83603571D01*
X153920833Y-83555952D01*
X154016071Y-83508333D01*
X154254166Y-83508333D01*
X154349404Y-83555952D01*
X154397023Y-83603571D01*
X154444642Y-83698809D01*
X154444642Y-83936904D01*
X154397023Y-84032142D01*
X154349404Y-84079761D01*
X154254166Y-84127380D01*
X154016071Y-84127380D01*
X153920833Y-84079761D01*
X153873214Y-84032142D01*
X154825595Y-83222619D02*
X154873214Y-83175000D01*
X154968452Y-83127380D01*
X155206547Y-83127380D01*
X155301785Y-83175000D01*
X155349404Y-83222619D01*
X155397023Y-83317857D01*
X155397023Y-83413095D01*
X155349404Y-83555952D01*
X154777976Y-84127380D01*
X155397023Y-84127380D01*
%TO.C,SW48*%
X75577976Y-84079761D02*
X75720833Y-84127380D01*
X75958928Y-84127380D01*
X76054166Y-84079761D01*
X76101785Y-84032142D01*
X76149404Y-83936904D01*
X76149404Y-83841666D01*
X76101785Y-83746428D01*
X76054166Y-83698809D01*
X75958928Y-83651190D01*
X75768452Y-83603571D01*
X75673214Y-83555952D01*
X75625595Y-83508333D01*
X75577976Y-83413095D01*
X75577976Y-83317857D01*
X75625595Y-83222619D01*
X75673214Y-83175000D01*
X75768452Y-83127380D01*
X76006547Y-83127380D01*
X76149404Y-83175000D01*
X76482738Y-83127380D02*
X76720833Y-84127380D01*
X76911309Y-83413095D01*
X77101785Y-84127380D01*
X77339880Y-83127380D01*
X78149404Y-83460714D02*
X78149404Y-84127380D01*
X77911309Y-83079761D02*
X77673214Y-83794047D01*
X78292261Y-83794047D01*
X78816071Y-83555952D02*
X78720833Y-83508333D01*
X78673214Y-83460714D01*
X78625595Y-83365476D01*
X78625595Y-83317857D01*
X78673214Y-83222619D01*
X78720833Y-83175000D01*
X78816071Y-83127380D01*
X79006547Y-83127380D01*
X79101785Y-83175000D01*
X79149404Y-83222619D01*
X79197023Y-83317857D01*
X79197023Y-83365476D01*
X79149404Y-83460714D01*
X79101785Y-83508333D01*
X79006547Y-83555952D01*
X78816071Y-83555952D01*
X78720833Y-83603571D01*
X78673214Y-83651190D01*
X78625595Y-83746428D01*
X78625595Y-83936904D01*
X78673214Y-84032142D01*
X78720833Y-84079761D01*
X78816071Y-84127380D01*
X79006547Y-84127380D01*
X79101785Y-84079761D01*
X79149404Y-84032142D01*
X79197023Y-83936904D01*
X79197023Y-83746428D01*
X79149404Y-83651190D01*
X79101785Y-83603571D01*
X79006547Y-83555952D01*
%TO.C,SW43*%
X237502976Y-65029761D02*
X237645833Y-65077380D01*
X237883928Y-65077380D01*
X237979166Y-65029761D01*
X238026785Y-64982142D01*
X238074404Y-64886904D01*
X238074404Y-64791666D01*
X238026785Y-64696428D01*
X237979166Y-64648809D01*
X237883928Y-64601190D01*
X237693452Y-64553571D01*
X237598214Y-64505952D01*
X237550595Y-64458333D01*
X237502976Y-64363095D01*
X237502976Y-64267857D01*
X237550595Y-64172619D01*
X237598214Y-64125000D01*
X237693452Y-64077380D01*
X237931547Y-64077380D01*
X238074404Y-64125000D01*
X238407738Y-64077380D02*
X238645833Y-65077380D01*
X238836309Y-64363095D01*
X239026785Y-65077380D01*
X239264880Y-64077380D01*
X240074404Y-64410714D02*
X240074404Y-65077380D01*
X239836309Y-64029761D02*
X239598214Y-64744047D01*
X240217261Y-64744047D01*
X240502976Y-64077380D02*
X241122023Y-64077380D01*
X240788690Y-64458333D01*
X240931547Y-64458333D01*
X241026785Y-64505952D01*
X241074404Y-64553571D01*
X241122023Y-64648809D01*
X241122023Y-64886904D01*
X241074404Y-64982142D01*
X241026785Y-65029761D01*
X240931547Y-65077380D01*
X240645833Y-65077380D01*
X240550595Y-65029761D01*
X240502976Y-64982142D01*
%TO.C,SW71*%
X323227976Y-103129761D02*
X323370833Y-103177380D01*
X323608928Y-103177380D01*
X323704166Y-103129761D01*
X323751785Y-103082142D01*
X323799404Y-102986904D01*
X323799404Y-102891666D01*
X323751785Y-102796428D01*
X323704166Y-102748809D01*
X323608928Y-102701190D01*
X323418452Y-102653571D01*
X323323214Y-102605952D01*
X323275595Y-102558333D01*
X323227976Y-102463095D01*
X323227976Y-102367857D01*
X323275595Y-102272619D01*
X323323214Y-102225000D01*
X323418452Y-102177380D01*
X323656547Y-102177380D01*
X323799404Y-102225000D01*
X324132738Y-102177380D02*
X324370833Y-103177380D01*
X324561309Y-102463095D01*
X324751785Y-103177380D01*
X324989880Y-102177380D01*
X325275595Y-102177380D02*
X325942261Y-102177380D01*
X325513690Y-103177380D01*
X326847023Y-103177380D02*
X326275595Y-103177380D01*
X326561309Y-103177380D02*
X326561309Y-102177380D01*
X326466071Y-102320238D01*
X326370833Y-102415476D01*
X326275595Y-102463095D01*
%TO.C,SW54*%
X189877976Y-84079761D02*
X190020833Y-84127380D01*
X190258928Y-84127380D01*
X190354166Y-84079761D01*
X190401785Y-84032142D01*
X190449404Y-83936904D01*
X190449404Y-83841666D01*
X190401785Y-83746428D01*
X190354166Y-83698809D01*
X190258928Y-83651190D01*
X190068452Y-83603571D01*
X189973214Y-83555952D01*
X189925595Y-83508333D01*
X189877976Y-83413095D01*
X189877976Y-83317857D01*
X189925595Y-83222619D01*
X189973214Y-83175000D01*
X190068452Y-83127380D01*
X190306547Y-83127380D01*
X190449404Y-83175000D01*
X190782738Y-83127380D02*
X191020833Y-84127380D01*
X191211309Y-83413095D01*
X191401785Y-84127380D01*
X191639880Y-83127380D01*
X192497023Y-83127380D02*
X192020833Y-83127380D01*
X191973214Y-83603571D01*
X192020833Y-83555952D01*
X192116071Y-83508333D01*
X192354166Y-83508333D01*
X192449404Y-83555952D01*
X192497023Y-83603571D01*
X192544642Y-83698809D01*
X192544642Y-83936904D01*
X192497023Y-84032142D01*
X192449404Y-84079761D01*
X192354166Y-84127380D01*
X192116071Y-84127380D01*
X192020833Y-84079761D01*
X191973214Y-84032142D01*
X193401785Y-83460714D02*
X193401785Y-84127380D01*
X193163690Y-83079761D02*
X192925595Y-83794047D01*
X193544642Y-83794047D01*
%TO.C,SW22*%
X137490476Y-45979761D02*
X137633333Y-46027380D01*
X137871428Y-46027380D01*
X137966666Y-45979761D01*
X138014285Y-45932142D01*
X138061904Y-45836904D01*
X138061904Y-45741666D01*
X138014285Y-45646428D01*
X137966666Y-45598809D01*
X137871428Y-45551190D01*
X137680952Y-45503571D01*
X137585714Y-45455952D01*
X137538095Y-45408333D01*
X137490476Y-45313095D01*
X137490476Y-45217857D01*
X137538095Y-45122619D01*
X137585714Y-45075000D01*
X137680952Y-45027380D01*
X137919047Y-45027380D01*
X138061904Y-45075000D01*
X138395238Y-45027380D02*
X138633333Y-46027380D01*
X138823809Y-45313095D01*
X139014285Y-46027380D01*
X139252380Y-45027380D01*
X139585714Y-45122619D02*
X139633333Y-45075000D01*
X139728571Y-45027380D01*
X139966666Y-45027380D01*
X140061904Y-45075000D01*
X140109523Y-45122619D01*
X140157142Y-45217857D01*
X140157142Y-45313095D01*
X140109523Y-45455952D01*
X139538095Y-46027380D01*
X140157142Y-46027380D01*
X140538095Y-45122619D02*
X140585714Y-45075000D01*
X140680952Y-45027380D01*
X140919047Y-45027380D01*
X141014285Y-45075000D01*
X141061904Y-45122619D01*
X141109523Y-45217857D01*
X141109523Y-45313095D01*
X141061904Y-45455952D01*
X140490476Y-46027380D01*
X141109523Y-46027380D01*
%TO.C,SW44*%
X256552976Y-65029761D02*
X256695833Y-65077380D01*
X256933928Y-65077380D01*
X257029166Y-65029761D01*
X257076785Y-64982142D01*
X257124404Y-64886904D01*
X257124404Y-64791666D01*
X257076785Y-64696428D01*
X257029166Y-64648809D01*
X256933928Y-64601190D01*
X256743452Y-64553571D01*
X256648214Y-64505952D01*
X256600595Y-64458333D01*
X256552976Y-64363095D01*
X256552976Y-64267857D01*
X256600595Y-64172619D01*
X256648214Y-64125000D01*
X256743452Y-64077380D01*
X256981547Y-64077380D01*
X257124404Y-64125000D01*
X257457738Y-64077380D02*
X257695833Y-65077380D01*
X257886309Y-64363095D01*
X258076785Y-65077380D01*
X258314880Y-64077380D01*
X259124404Y-64410714D02*
X259124404Y-65077380D01*
X258886309Y-64029761D02*
X258648214Y-64744047D01*
X259267261Y-64744047D01*
X260076785Y-64410714D02*
X260076785Y-65077380D01*
X259838690Y-64029761D02*
X259600595Y-64744047D01*
X260219642Y-64744047D01*
%TO.C,SW16*%
X342277976Y-26929761D02*
X342420833Y-26977380D01*
X342658928Y-26977380D01*
X342754166Y-26929761D01*
X342801785Y-26882142D01*
X342849404Y-26786904D01*
X342849404Y-26691666D01*
X342801785Y-26596428D01*
X342754166Y-26548809D01*
X342658928Y-26501190D01*
X342468452Y-26453571D01*
X342373214Y-26405952D01*
X342325595Y-26358333D01*
X342277976Y-26263095D01*
X342277976Y-26167857D01*
X342325595Y-26072619D01*
X342373214Y-26025000D01*
X342468452Y-25977380D01*
X342706547Y-25977380D01*
X342849404Y-26025000D01*
X343182738Y-25977380D02*
X343420833Y-26977380D01*
X343611309Y-26263095D01*
X343801785Y-26977380D01*
X344039880Y-25977380D01*
X344944642Y-26977380D02*
X344373214Y-26977380D01*
X344658928Y-26977380D02*
X344658928Y-25977380D01*
X344563690Y-26120238D01*
X344468452Y-26215476D01*
X344373214Y-26263095D01*
X345801785Y-25977380D02*
X345611309Y-25977380D01*
X345516071Y-26025000D01*
X345468452Y-26072619D01*
X345373214Y-26215476D01*
X345325595Y-26405952D01*
X345325595Y-26786904D01*
X345373214Y-26882142D01*
X345420833Y-26929761D01*
X345516071Y-26977380D01*
X345706547Y-26977380D01*
X345801785Y-26929761D01*
X345849404Y-26882142D01*
X345897023Y-26786904D01*
X345897023Y-26548809D01*
X345849404Y-26453571D01*
X345801785Y-26405952D01*
X345706547Y-26358333D01*
X345516071Y-26358333D01*
X345420833Y-26405952D01*
X345373214Y-26453571D01*
X345325595Y-26548809D01*
%TO.C,SW14*%
X289890476Y-26929761D02*
X290033333Y-26977380D01*
X290271428Y-26977380D01*
X290366666Y-26929761D01*
X290414285Y-26882142D01*
X290461904Y-26786904D01*
X290461904Y-26691666D01*
X290414285Y-26596428D01*
X290366666Y-26548809D01*
X290271428Y-26501190D01*
X290080952Y-26453571D01*
X289985714Y-26405952D01*
X289938095Y-26358333D01*
X289890476Y-26263095D01*
X289890476Y-26167857D01*
X289938095Y-26072619D01*
X289985714Y-26025000D01*
X290080952Y-25977380D01*
X290319047Y-25977380D01*
X290461904Y-26025000D01*
X290795238Y-25977380D02*
X291033333Y-26977380D01*
X291223809Y-26263095D01*
X291414285Y-26977380D01*
X291652380Y-25977380D01*
X292557142Y-26977380D02*
X291985714Y-26977380D01*
X292271428Y-26977380D02*
X292271428Y-25977380D01*
X292176190Y-26120238D01*
X292080952Y-26215476D01*
X291985714Y-26263095D01*
X293414285Y-26310714D02*
X293414285Y-26977380D01*
X293176190Y-25929761D02*
X292938095Y-26644047D01*
X293557142Y-26644047D01*
%TO.C,SW5*%
X109391666Y-26929761D02*
X109534523Y-26977380D01*
X109772619Y-26977380D01*
X109867857Y-26929761D01*
X109915476Y-26882142D01*
X109963095Y-26786904D01*
X109963095Y-26691666D01*
X109915476Y-26596428D01*
X109867857Y-26548809D01*
X109772619Y-26501190D01*
X109582142Y-26453571D01*
X109486904Y-26405952D01*
X109439285Y-26358333D01*
X109391666Y-26263095D01*
X109391666Y-26167857D01*
X109439285Y-26072619D01*
X109486904Y-26025000D01*
X109582142Y-25977380D01*
X109820238Y-25977380D01*
X109963095Y-26025000D01*
X110296428Y-25977380D02*
X110534523Y-26977380D01*
X110725000Y-26263095D01*
X110915476Y-26977380D01*
X111153571Y-25977380D01*
X112010714Y-25977380D02*
X111534523Y-25977380D01*
X111486904Y-26453571D01*
X111534523Y-26405952D01*
X111629761Y-26358333D01*
X111867857Y-26358333D01*
X111963095Y-26405952D01*
X112010714Y-26453571D01*
X112058333Y-26548809D01*
X112058333Y-26786904D01*
X112010714Y-26882142D01*
X111963095Y-26929761D01*
X111867857Y-26977380D01*
X111629761Y-26977380D01*
X111534523Y-26929761D01*
X111486904Y-26882142D01*
%TO.C,SW31*%
X323227976Y-45979761D02*
X323370833Y-46027380D01*
X323608928Y-46027380D01*
X323704166Y-45979761D01*
X323751785Y-45932142D01*
X323799404Y-45836904D01*
X323799404Y-45741666D01*
X323751785Y-45646428D01*
X323704166Y-45598809D01*
X323608928Y-45551190D01*
X323418452Y-45503571D01*
X323323214Y-45455952D01*
X323275595Y-45408333D01*
X323227976Y-45313095D01*
X323227976Y-45217857D01*
X323275595Y-45122619D01*
X323323214Y-45075000D01*
X323418452Y-45027380D01*
X323656547Y-45027380D01*
X323799404Y-45075000D01*
X324132738Y-45027380D02*
X324370833Y-46027380D01*
X324561309Y-45313095D01*
X324751785Y-46027380D01*
X324989880Y-45027380D01*
X325275595Y-45027380D02*
X325894642Y-45027380D01*
X325561309Y-45408333D01*
X325704166Y-45408333D01*
X325799404Y-45455952D01*
X325847023Y-45503571D01*
X325894642Y-45598809D01*
X325894642Y-45836904D01*
X325847023Y-45932142D01*
X325799404Y-45979761D01*
X325704166Y-46027380D01*
X325418452Y-46027380D01*
X325323214Y-45979761D01*
X325275595Y-45932142D01*
X326847023Y-46027380D02*
X326275595Y-46027380D01*
X326561309Y-46027380D02*
X326561309Y-45027380D01*
X326466071Y-45170238D01*
X326370833Y-45265476D01*
X326275595Y-45313095D01*
%TO.C,SW4*%
X90341666Y-26929761D02*
X90484523Y-26977380D01*
X90722619Y-26977380D01*
X90817857Y-26929761D01*
X90865476Y-26882142D01*
X90913095Y-26786904D01*
X90913095Y-26691666D01*
X90865476Y-26596428D01*
X90817857Y-26548809D01*
X90722619Y-26501190D01*
X90532142Y-26453571D01*
X90436904Y-26405952D01*
X90389285Y-26358333D01*
X90341666Y-26263095D01*
X90341666Y-26167857D01*
X90389285Y-26072619D01*
X90436904Y-26025000D01*
X90532142Y-25977380D01*
X90770238Y-25977380D01*
X90913095Y-26025000D01*
X91246428Y-25977380D02*
X91484523Y-26977380D01*
X91675000Y-26263095D01*
X91865476Y-26977380D01*
X92103571Y-25977380D01*
X92913095Y-26310714D02*
X92913095Y-26977380D01*
X92675000Y-25929761D02*
X92436904Y-26644047D01*
X93055952Y-26644047D01*
%TO.C,SW40*%
X180352976Y-65029761D02*
X180495833Y-65077380D01*
X180733928Y-65077380D01*
X180829166Y-65029761D01*
X180876785Y-64982142D01*
X180924404Y-64886904D01*
X180924404Y-64791666D01*
X180876785Y-64696428D01*
X180829166Y-64648809D01*
X180733928Y-64601190D01*
X180543452Y-64553571D01*
X180448214Y-64505952D01*
X180400595Y-64458333D01*
X180352976Y-64363095D01*
X180352976Y-64267857D01*
X180400595Y-64172619D01*
X180448214Y-64125000D01*
X180543452Y-64077380D01*
X180781547Y-64077380D01*
X180924404Y-64125000D01*
X181257738Y-64077380D02*
X181495833Y-65077380D01*
X181686309Y-64363095D01*
X181876785Y-65077380D01*
X182114880Y-64077380D01*
X182924404Y-64410714D02*
X182924404Y-65077380D01*
X182686309Y-64029761D02*
X182448214Y-64744047D01*
X183067261Y-64744047D01*
X183638690Y-64077380D02*
X183733928Y-64077380D01*
X183829166Y-64125000D01*
X183876785Y-64172619D01*
X183924404Y-64267857D01*
X183972023Y-64458333D01*
X183972023Y-64696428D01*
X183924404Y-64886904D01*
X183876785Y-64982142D01*
X183829166Y-65029761D01*
X183733928Y-65077380D01*
X183638690Y-65077380D01*
X183543452Y-65029761D01*
X183495833Y-64982142D01*
X183448214Y-64886904D01*
X183400595Y-64696428D01*
X183400595Y-64458333D01*
X183448214Y-64267857D01*
X183495833Y-64172619D01*
X183543452Y-64125000D01*
X183638690Y-64077380D01*
%TO.C,SW53*%
X170827976Y-84079761D02*
X170970833Y-84127380D01*
X171208928Y-84127380D01*
X171304166Y-84079761D01*
X171351785Y-84032142D01*
X171399404Y-83936904D01*
X171399404Y-83841666D01*
X171351785Y-83746428D01*
X171304166Y-83698809D01*
X171208928Y-83651190D01*
X171018452Y-83603571D01*
X170923214Y-83555952D01*
X170875595Y-83508333D01*
X170827976Y-83413095D01*
X170827976Y-83317857D01*
X170875595Y-83222619D01*
X170923214Y-83175000D01*
X171018452Y-83127380D01*
X171256547Y-83127380D01*
X171399404Y-83175000D01*
X171732738Y-83127380D02*
X171970833Y-84127380D01*
X172161309Y-83413095D01*
X172351785Y-84127380D01*
X172589880Y-83127380D01*
X173447023Y-83127380D02*
X172970833Y-83127380D01*
X172923214Y-83603571D01*
X172970833Y-83555952D01*
X173066071Y-83508333D01*
X173304166Y-83508333D01*
X173399404Y-83555952D01*
X173447023Y-83603571D01*
X173494642Y-83698809D01*
X173494642Y-83936904D01*
X173447023Y-84032142D01*
X173399404Y-84079761D01*
X173304166Y-84127380D01*
X173066071Y-84127380D01*
X172970833Y-84079761D01*
X172923214Y-84032142D01*
X173827976Y-83127380D02*
X174447023Y-83127380D01*
X174113690Y-83508333D01*
X174256547Y-83508333D01*
X174351785Y-83555952D01*
X174399404Y-83603571D01*
X174447023Y-83698809D01*
X174447023Y-83936904D01*
X174399404Y-84032142D01*
X174351785Y-84079761D01*
X174256547Y-84127380D01*
X173970833Y-84127380D01*
X173875595Y-84079761D01*
X173827976Y-84032142D01*
%TO.C,SW28*%
X251790476Y-45979761D02*
X251933333Y-46027380D01*
X252171428Y-46027380D01*
X252266666Y-45979761D01*
X252314285Y-45932142D01*
X252361904Y-45836904D01*
X252361904Y-45741666D01*
X252314285Y-45646428D01*
X252266666Y-45598809D01*
X252171428Y-45551190D01*
X251980952Y-45503571D01*
X251885714Y-45455952D01*
X251838095Y-45408333D01*
X251790476Y-45313095D01*
X251790476Y-45217857D01*
X251838095Y-45122619D01*
X251885714Y-45075000D01*
X251980952Y-45027380D01*
X252219047Y-45027380D01*
X252361904Y-45075000D01*
X252695238Y-45027380D02*
X252933333Y-46027380D01*
X253123809Y-45313095D01*
X253314285Y-46027380D01*
X253552380Y-45027380D01*
X253885714Y-45122619D02*
X253933333Y-45075000D01*
X254028571Y-45027380D01*
X254266666Y-45027380D01*
X254361904Y-45075000D01*
X254409523Y-45122619D01*
X254457142Y-45217857D01*
X254457142Y-45313095D01*
X254409523Y-45455952D01*
X253838095Y-46027380D01*
X254457142Y-46027380D01*
X255028571Y-45455952D02*
X254933333Y-45408333D01*
X254885714Y-45360714D01*
X254838095Y-45265476D01*
X254838095Y-45217857D01*
X254885714Y-45122619D01*
X254933333Y-45075000D01*
X255028571Y-45027380D01*
X255219047Y-45027380D01*
X255314285Y-45075000D01*
X255361904Y-45122619D01*
X255409523Y-45217857D01*
X255409523Y-45265476D01*
X255361904Y-45360714D01*
X255314285Y-45408333D01*
X255219047Y-45455952D01*
X255028571Y-45455952D01*
X254933333Y-45503571D01*
X254885714Y-45551190D01*
X254838095Y-45646428D01*
X254838095Y-45836904D01*
X254885714Y-45932142D01*
X254933333Y-45979761D01*
X255028571Y-46027380D01*
X255219047Y-46027380D01*
X255314285Y-45979761D01*
X255361904Y-45932142D01*
X255409523Y-45836904D01*
X255409523Y-45646428D01*
X255361904Y-45551190D01*
X255314285Y-45503571D01*
X255219047Y-45455952D01*
%TO.C,SW35*%
X85102976Y-65029761D02*
X85245833Y-65077380D01*
X85483928Y-65077380D01*
X85579166Y-65029761D01*
X85626785Y-64982142D01*
X85674404Y-64886904D01*
X85674404Y-64791666D01*
X85626785Y-64696428D01*
X85579166Y-64648809D01*
X85483928Y-64601190D01*
X85293452Y-64553571D01*
X85198214Y-64505952D01*
X85150595Y-64458333D01*
X85102976Y-64363095D01*
X85102976Y-64267857D01*
X85150595Y-64172619D01*
X85198214Y-64125000D01*
X85293452Y-64077380D01*
X85531547Y-64077380D01*
X85674404Y-64125000D01*
X86007738Y-64077380D02*
X86245833Y-65077380D01*
X86436309Y-64363095D01*
X86626785Y-65077380D01*
X86864880Y-64077380D01*
X87150595Y-64077380D02*
X87769642Y-64077380D01*
X87436309Y-64458333D01*
X87579166Y-64458333D01*
X87674404Y-64505952D01*
X87722023Y-64553571D01*
X87769642Y-64648809D01*
X87769642Y-64886904D01*
X87722023Y-64982142D01*
X87674404Y-65029761D01*
X87579166Y-65077380D01*
X87293452Y-65077380D01*
X87198214Y-65029761D01*
X87150595Y-64982142D01*
X88674404Y-64077380D02*
X88198214Y-64077380D01*
X88150595Y-64553571D01*
X88198214Y-64505952D01*
X88293452Y-64458333D01*
X88531547Y-64458333D01*
X88626785Y-64505952D01*
X88674404Y-64553571D01*
X88722023Y-64648809D01*
X88722023Y-64886904D01*
X88674404Y-64982142D01*
X88626785Y-65029761D01*
X88531547Y-65077380D01*
X88293452Y-65077380D01*
X88198214Y-65029761D01*
X88150595Y-64982142D01*
%TO.C,SW23*%
X156540476Y-45979761D02*
X156683333Y-46027380D01*
X156921428Y-46027380D01*
X157016666Y-45979761D01*
X157064285Y-45932142D01*
X157111904Y-45836904D01*
X157111904Y-45741666D01*
X157064285Y-45646428D01*
X157016666Y-45598809D01*
X156921428Y-45551190D01*
X156730952Y-45503571D01*
X156635714Y-45455952D01*
X156588095Y-45408333D01*
X156540476Y-45313095D01*
X156540476Y-45217857D01*
X156588095Y-45122619D01*
X156635714Y-45075000D01*
X156730952Y-45027380D01*
X156969047Y-45027380D01*
X157111904Y-45075000D01*
X157445238Y-45027380D02*
X157683333Y-46027380D01*
X157873809Y-45313095D01*
X158064285Y-46027380D01*
X158302380Y-45027380D01*
X158635714Y-45122619D02*
X158683333Y-45075000D01*
X158778571Y-45027380D01*
X159016666Y-45027380D01*
X159111904Y-45075000D01*
X159159523Y-45122619D01*
X159207142Y-45217857D01*
X159207142Y-45313095D01*
X159159523Y-45455952D01*
X158588095Y-46027380D01*
X159207142Y-46027380D01*
X159540476Y-45027380D02*
X160159523Y-45027380D01*
X159826190Y-45408333D01*
X159969047Y-45408333D01*
X160064285Y-45455952D01*
X160111904Y-45503571D01*
X160159523Y-45598809D01*
X160159523Y-45836904D01*
X160111904Y-45932142D01*
X160064285Y-45979761D01*
X159969047Y-46027380D01*
X159683333Y-46027380D01*
X159588095Y-45979761D01*
X159540476Y-45932142D01*
%TO.C,SW6*%
X128441666Y-26929761D02*
X128584523Y-26977380D01*
X128822619Y-26977380D01*
X128917857Y-26929761D01*
X128965476Y-26882142D01*
X129013095Y-26786904D01*
X129013095Y-26691666D01*
X128965476Y-26596428D01*
X128917857Y-26548809D01*
X128822619Y-26501190D01*
X128632142Y-26453571D01*
X128536904Y-26405952D01*
X128489285Y-26358333D01*
X128441666Y-26263095D01*
X128441666Y-26167857D01*
X128489285Y-26072619D01*
X128536904Y-26025000D01*
X128632142Y-25977380D01*
X128870238Y-25977380D01*
X129013095Y-26025000D01*
X129346428Y-25977380D02*
X129584523Y-26977380D01*
X129775000Y-26263095D01*
X129965476Y-26977380D01*
X130203571Y-25977380D01*
X131013095Y-25977380D02*
X130822619Y-25977380D01*
X130727380Y-26025000D01*
X130679761Y-26072619D01*
X130584523Y-26215476D01*
X130536904Y-26405952D01*
X130536904Y-26786904D01*
X130584523Y-26882142D01*
X130632142Y-26929761D01*
X130727380Y-26977380D01*
X130917857Y-26977380D01*
X131013095Y-26929761D01*
X131060714Y-26882142D01*
X131108333Y-26786904D01*
X131108333Y-26548809D01*
X131060714Y-26453571D01*
X131013095Y-26405952D01*
X130917857Y-26358333D01*
X130727380Y-26358333D01*
X130632142Y-26405952D01*
X130584523Y-26453571D01*
X130536904Y-26548809D01*
%TO.C,SW66*%
X182734226Y-103129761D02*
X182877083Y-103177380D01*
X183115178Y-103177380D01*
X183210416Y-103129761D01*
X183258035Y-103082142D01*
X183305654Y-102986904D01*
X183305654Y-102891666D01*
X183258035Y-102796428D01*
X183210416Y-102748809D01*
X183115178Y-102701190D01*
X182924702Y-102653571D01*
X182829464Y-102605952D01*
X182781845Y-102558333D01*
X182734226Y-102463095D01*
X182734226Y-102367857D01*
X182781845Y-102272619D01*
X182829464Y-102225000D01*
X182924702Y-102177380D01*
X183162797Y-102177380D01*
X183305654Y-102225000D01*
X183638988Y-102177380D02*
X183877083Y-103177380D01*
X184067559Y-102463095D01*
X184258035Y-103177380D01*
X184496130Y-102177380D01*
X185305654Y-102177380D02*
X185115178Y-102177380D01*
X185019940Y-102225000D01*
X184972321Y-102272619D01*
X184877083Y-102415476D01*
X184829464Y-102605952D01*
X184829464Y-102986904D01*
X184877083Y-103082142D01*
X184924702Y-103129761D01*
X185019940Y-103177380D01*
X185210416Y-103177380D01*
X185305654Y-103129761D01*
X185353273Y-103082142D01*
X185400892Y-102986904D01*
X185400892Y-102748809D01*
X185353273Y-102653571D01*
X185305654Y-102605952D01*
X185210416Y-102558333D01*
X185019940Y-102558333D01*
X184924702Y-102605952D01*
X184877083Y-102653571D01*
X184829464Y-102748809D01*
X186258035Y-102177380D02*
X186067559Y-102177380D01*
X185972321Y-102225000D01*
X185924702Y-102272619D01*
X185829464Y-102415476D01*
X185781845Y-102605952D01*
X185781845Y-102986904D01*
X185829464Y-103082142D01*
X185877083Y-103129761D01*
X185972321Y-103177380D01*
X186162797Y-103177380D01*
X186258035Y-103129761D01*
X186305654Y-103082142D01*
X186353273Y-102986904D01*
X186353273Y-102748809D01*
X186305654Y-102653571D01*
X186258035Y-102605952D01*
X186162797Y-102558333D01*
X185972321Y-102558333D01*
X185877083Y-102605952D01*
X185829464Y-102653571D01*
X185781845Y-102748809D01*
%TO.C,SW56*%
X227977976Y-84079761D02*
X228120833Y-84127380D01*
X228358928Y-84127380D01*
X228454166Y-84079761D01*
X228501785Y-84032142D01*
X228549404Y-83936904D01*
X228549404Y-83841666D01*
X228501785Y-83746428D01*
X228454166Y-83698809D01*
X228358928Y-83651190D01*
X228168452Y-83603571D01*
X228073214Y-83555952D01*
X228025595Y-83508333D01*
X227977976Y-83413095D01*
X227977976Y-83317857D01*
X228025595Y-83222619D01*
X228073214Y-83175000D01*
X228168452Y-83127380D01*
X228406547Y-83127380D01*
X228549404Y-83175000D01*
X228882738Y-83127380D02*
X229120833Y-84127380D01*
X229311309Y-83413095D01*
X229501785Y-84127380D01*
X229739880Y-83127380D01*
X230597023Y-83127380D02*
X230120833Y-83127380D01*
X230073214Y-83603571D01*
X230120833Y-83555952D01*
X230216071Y-83508333D01*
X230454166Y-83508333D01*
X230549404Y-83555952D01*
X230597023Y-83603571D01*
X230644642Y-83698809D01*
X230644642Y-83936904D01*
X230597023Y-84032142D01*
X230549404Y-84079761D01*
X230454166Y-84127380D01*
X230216071Y-84127380D01*
X230120833Y-84079761D01*
X230073214Y-84032142D01*
X231501785Y-83127380D02*
X231311309Y-83127380D01*
X231216071Y-83175000D01*
X231168452Y-83222619D01*
X231073214Y-83365476D01*
X231025595Y-83555952D01*
X231025595Y-83936904D01*
X231073214Y-84032142D01*
X231120833Y-84079761D01*
X231216071Y-84127380D01*
X231406547Y-84127380D01*
X231501785Y-84079761D01*
X231549404Y-84032142D01*
X231597023Y-83936904D01*
X231597023Y-83698809D01*
X231549404Y-83603571D01*
X231501785Y-83555952D01*
X231406547Y-83508333D01*
X231216071Y-83508333D01*
X231120833Y-83555952D01*
X231073214Y-83603571D01*
X231025595Y-83698809D01*
%TO.C,SW50*%
X113677976Y-84079761D02*
X113820833Y-84127380D01*
X114058928Y-84127380D01*
X114154166Y-84079761D01*
X114201785Y-84032142D01*
X114249404Y-83936904D01*
X114249404Y-83841666D01*
X114201785Y-83746428D01*
X114154166Y-83698809D01*
X114058928Y-83651190D01*
X113868452Y-83603571D01*
X113773214Y-83555952D01*
X113725595Y-83508333D01*
X113677976Y-83413095D01*
X113677976Y-83317857D01*
X113725595Y-83222619D01*
X113773214Y-83175000D01*
X113868452Y-83127380D01*
X114106547Y-83127380D01*
X114249404Y-83175000D01*
X114582738Y-83127380D02*
X114820833Y-84127380D01*
X115011309Y-83413095D01*
X115201785Y-84127380D01*
X115439880Y-83127380D01*
X116297023Y-83127380D02*
X115820833Y-83127380D01*
X115773214Y-83603571D01*
X115820833Y-83555952D01*
X115916071Y-83508333D01*
X116154166Y-83508333D01*
X116249404Y-83555952D01*
X116297023Y-83603571D01*
X116344642Y-83698809D01*
X116344642Y-83936904D01*
X116297023Y-84032142D01*
X116249404Y-84079761D01*
X116154166Y-84127380D01*
X115916071Y-84127380D01*
X115820833Y-84079761D01*
X115773214Y-84032142D01*
X116963690Y-83127380D02*
X117058928Y-83127380D01*
X117154166Y-83175000D01*
X117201785Y-83222619D01*
X117249404Y-83317857D01*
X117297023Y-83508333D01*
X117297023Y-83746428D01*
X117249404Y-83936904D01*
X117201785Y-84032142D01*
X117154166Y-84079761D01*
X117058928Y-84127380D01*
X116963690Y-84127380D01*
X116868452Y-84079761D01*
X116820833Y-84032142D01*
X116773214Y-83936904D01*
X116725595Y-83746428D01*
X116725595Y-83508333D01*
X116773214Y-83317857D01*
X116820833Y-83222619D01*
X116868452Y-83175000D01*
X116963690Y-83127380D01*
%TO.C,SW46*%
X35096726Y-84079761D02*
X35239583Y-84127380D01*
X35477678Y-84127380D01*
X35572916Y-84079761D01*
X35620535Y-84032142D01*
X35668154Y-83936904D01*
X35668154Y-83841666D01*
X35620535Y-83746428D01*
X35572916Y-83698809D01*
X35477678Y-83651190D01*
X35287202Y-83603571D01*
X35191964Y-83555952D01*
X35144345Y-83508333D01*
X35096726Y-83413095D01*
X35096726Y-83317857D01*
X35144345Y-83222619D01*
X35191964Y-83175000D01*
X35287202Y-83127380D01*
X35525297Y-83127380D01*
X35668154Y-83175000D01*
X36001488Y-83127380D02*
X36239583Y-84127380D01*
X36430059Y-83413095D01*
X36620535Y-84127380D01*
X36858630Y-83127380D01*
X37668154Y-83460714D02*
X37668154Y-84127380D01*
X37430059Y-83079761D02*
X37191964Y-83794047D01*
X37811011Y-83794047D01*
X38620535Y-83127380D02*
X38430059Y-83127380D01*
X38334821Y-83175000D01*
X38287202Y-83222619D01*
X38191964Y-83365476D01*
X38144345Y-83555952D01*
X38144345Y-83936904D01*
X38191964Y-84032142D01*
X38239583Y-84079761D01*
X38334821Y-84127380D01*
X38525297Y-84127380D01*
X38620535Y-84079761D01*
X38668154Y-84032142D01*
X38715773Y-83936904D01*
X38715773Y-83698809D01*
X38668154Y-83603571D01*
X38620535Y-83555952D01*
X38525297Y-83508333D01*
X38334821Y-83508333D01*
X38239583Y-83555952D01*
X38191964Y-83603571D01*
X38144345Y-83698809D01*
%TO.C,SW72*%
X342277976Y-103129761D02*
X342420833Y-103177380D01*
X342658928Y-103177380D01*
X342754166Y-103129761D01*
X342801785Y-103082142D01*
X342849404Y-102986904D01*
X342849404Y-102891666D01*
X342801785Y-102796428D01*
X342754166Y-102748809D01*
X342658928Y-102701190D01*
X342468452Y-102653571D01*
X342373214Y-102605952D01*
X342325595Y-102558333D01*
X342277976Y-102463095D01*
X342277976Y-102367857D01*
X342325595Y-102272619D01*
X342373214Y-102225000D01*
X342468452Y-102177380D01*
X342706547Y-102177380D01*
X342849404Y-102225000D01*
X343182738Y-102177380D02*
X343420833Y-103177380D01*
X343611309Y-102463095D01*
X343801785Y-103177380D01*
X344039880Y-102177380D01*
X344325595Y-102177380D02*
X344992261Y-102177380D01*
X344563690Y-103177380D01*
X345325595Y-102272619D02*
X345373214Y-102225000D01*
X345468452Y-102177380D01*
X345706547Y-102177380D01*
X345801785Y-102225000D01*
X345849404Y-102272619D01*
X345897023Y-102367857D01*
X345897023Y-102463095D01*
X345849404Y-102605952D01*
X345277976Y-103177380D01*
X345897023Y-103177380D01*
%TO.C,SW61*%
X35096726Y-103129761D02*
X35239583Y-103177380D01*
X35477678Y-103177380D01*
X35572916Y-103129761D01*
X35620535Y-103082142D01*
X35668154Y-102986904D01*
X35668154Y-102891666D01*
X35620535Y-102796428D01*
X35572916Y-102748809D01*
X35477678Y-102701190D01*
X35287202Y-102653571D01*
X35191964Y-102605952D01*
X35144345Y-102558333D01*
X35096726Y-102463095D01*
X35096726Y-102367857D01*
X35144345Y-102272619D01*
X35191964Y-102225000D01*
X35287202Y-102177380D01*
X35525297Y-102177380D01*
X35668154Y-102225000D01*
X36001488Y-102177380D02*
X36239583Y-103177380D01*
X36430059Y-102463095D01*
X36620535Y-103177380D01*
X36858630Y-102177380D01*
X37668154Y-102177380D02*
X37477678Y-102177380D01*
X37382440Y-102225000D01*
X37334821Y-102272619D01*
X37239583Y-102415476D01*
X37191964Y-102605952D01*
X37191964Y-102986904D01*
X37239583Y-103082142D01*
X37287202Y-103129761D01*
X37382440Y-103177380D01*
X37572916Y-103177380D01*
X37668154Y-103129761D01*
X37715773Y-103082142D01*
X37763392Y-102986904D01*
X37763392Y-102748809D01*
X37715773Y-102653571D01*
X37668154Y-102605952D01*
X37572916Y-102558333D01*
X37382440Y-102558333D01*
X37287202Y-102605952D01*
X37239583Y-102653571D01*
X37191964Y-102748809D01*
X38715773Y-103177380D02*
X38144345Y-103177380D01*
X38430059Y-103177380D02*
X38430059Y-102177380D01*
X38334821Y-102320238D01*
X38239583Y-102415476D01*
X38144345Y-102463095D01*
%TO.C,SW30*%
X297034226Y-55504761D02*
X297177083Y-55552380D01*
X297415178Y-55552380D01*
X297510416Y-55504761D01*
X297558035Y-55457142D01*
X297605654Y-55361904D01*
X297605654Y-55266666D01*
X297558035Y-55171428D01*
X297510416Y-55123809D01*
X297415178Y-55076190D01*
X297224702Y-55028571D01*
X297129464Y-54980952D01*
X297081845Y-54933333D01*
X297034226Y-54838095D01*
X297034226Y-54742857D01*
X297081845Y-54647619D01*
X297129464Y-54600000D01*
X297224702Y-54552380D01*
X297462797Y-54552380D01*
X297605654Y-54600000D01*
X297938988Y-54552380D02*
X298177083Y-55552380D01*
X298367559Y-54838095D01*
X298558035Y-55552380D01*
X298796130Y-54552380D01*
X299081845Y-54552380D02*
X299700892Y-54552380D01*
X299367559Y-54933333D01*
X299510416Y-54933333D01*
X299605654Y-54980952D01*
X299653273Y-55028571D01*
X299700892Y-55123809D01*
X299700892Y-55361904D01*
X299653273Y-55457142D01*
X299605654Y-55504761D01*
X299510416Y-55552380D01*
X299224702Y-55552380D01*
X299129464Y-55504761D01*
X299081845Y-55457142D01*
X300319940Y-54552380D02*
X300415178Y-54552380D01*
X300510416Y-54600000D01*
X300558035Y-54647619D01*
X300605654Y-54742857D01*
X300653273Y-54933333D01*
X300653273Y-55171428D01*
X300605654Y-55361904D01*
X300558035Y-55457142D01*
X300510416Y-55504761D01*
X300415178Y-55552380D01*
X300319940Y-55552380D01*
X300224702Y-55504761D01*
X300177083Y-55457142D01*
X300129464Y-55361904D01*
X300081845Y-55171428D01*
X300081845Y-54933333D01*
X300129464Y-54742857D01*
X300177083Y-54647619D01*
X300224702Y-54600000D01*
X300319940Y-54552380D01*
%TO.C,SW2*%
X52241666Y-26929761D02*
X52384523Y-26977380D01*
X52622619Y-26977380D01*
X52717857Y-26929761D01*
X52765476Y-26882142D01*
X52813095Y-26786904D01*
X52813095Y-26691666D01*
X52765476Y-26596428D01*
X52717857Y-26548809D01*
X52622619Y-26501190D01*
X52432142Y-26453571D01*
X52336904Y-26405952D01*
X52289285Y-26358333D01*
X52241666Y-26263095D01*
X52241666Y-26167857D01*
X52289285Y-26072619D01*
X52336904Y-26025000D01*
X52432142Y-25977380D01*
X52670238Y-25977380D01*
X52813095Y-26025000D01*
X53146428Y-25977380D02*
X53384523Y-26977380D01*
X53575000Y-26263095D01*
X53765476Y-26977380D01*
X54003571Y-25977380D01*
X54336904Y-26072619D02*
X54384523Y-26025000D01*
X54479761Y-25977380D01*
X54717857Y-25977380D01*
X54813095Y-26025000D01*
X54860714Y-26072619D01*
X54908333Y-26167857D01*
X54908333Y-26263095D01*
X54860714Y-26405952D01*
X54289285Y-26977380D01*
X54908333Y-26977380D01*
%TO.C,SW42*%
X218452976Y-65029761D02*
X218595833Y-65077380D01*
X218833928Y-65077380D01*
X218929166Y-65029761D01*
X218976785Y-64982142D01*
X219024404Y-64886904D01*
X219024404Y-64791666D01*
X218976785Y-64696428D01*
X218929166Y-64648809D01*
X218833928Y-64601190D01*
X218643452Y-64553571D01*
X218548214Y-64505952D01*
X218500595Y-64458333D01*
X218452976Y-64363095D01*
X218452976Y-64267857D01*
X218500595Y-64172619D01*
X218548214Y-64125000D01*
X218643452Y-64077380D01*
X218881547Y-64077380D01*
X219024404Y-64125000D01*
X219357738Y-64077380D02*
X219595833Y-65077380D01*
X219786309Y-64363095D01*
X219976785Y-65077380D01*
X220214880Y-64077380D01*
X221024404Y-64410714D02*
X221024404Y-65077380D01*
X220786309Y-64029761D02*
X220548214Y-64744047D01*
X221167261Y-64744047D01*
X221500595Y-64172619D02*
X221548214Y-64125000D01*
X221643452Y-64077380D01*
X221881547Y-64077380D01*
X221976785Y-64125000D01*
X222024404Y-64172619D01*
X222072023Y-64267857D01*
X222072023Y-64363095D01*
X222024404Y-64505952D01*
X221452976Y-65077380D01*
X222072023Y-65077380D01*
%TO.C,SW47*%
X56527976Y-84079761D02*
X56670833Y-84127380D01*
X56908928Y-84127380D01*
X57004166Y-84079761D01*
X57051785Y-84032142D01*
X57099404Y-83936904D01*
X57099404Y-83841666D01*
X57051785Y-83746428D01*
X57004166Y-83698809D01*
X56908928Y-83651190D01*
X56718452Y-83603571D01*
X56623214Y-83555952D01*
X56575595Y-83508333D01*
X56527976Y-83413095D01*
X56527976Y-83317857D01*
X56575595Y-83222619D01*
X56623214Y-83175000D01*
X56718452Y-83127380D01*
X56956547Y-83127380D01*
X57099404Y-83175000D01*
X57432738Y-83127380D02*
X57670833Y-84127380D01*
X57861309Y-83413095D01*
X58051785Y-84127380D01*
X58289880Y-83127380D01*
X59099404Y-83460714D02*
X59099404Y-84127380D01*
X58861309Y-83079761D02*
X58623214Y-83794047D01*
X59242261Y-83794047D01*
X59527976Y-83127380D02*
X60194642Y-83127380D01*
X59766071Y-84127380D01*
%TO.C,SW13*%
X261315476Y-26929761D02*
X261458333Y-26977380D01*
X261696428Y-26977380D01*
X261791666Y-26929761D01*
X261839285Y-26882142D01*
X261886904Y-26786904D01*
X261886904Y-26691666D01*
X261839285Y-26596428D01*
X261791666Y-26548809D01*
X261696428Y-26501190D01*
X261505952Y-26453571D01*
X261410714Y-26405952D01*
X261363095Y-26358333D01*
X261315476Y-26263095D01*
X261315476Y-26167857D01*
X261363095Y-26072619D01*
X261410714Y-26025000D01*
X261505952Y-25977380D01*
X261744047Y-25977380D01*
X261886904Y-26025000D01*
X262220238Y-25977380D02*
X262458333Y-26977380D01*
X262648809Y-26263095D01*
X262839285Y-26977380D01*
X263077380Y-25977380D01*
X263982142Y-26977380D02*
X263410714Y-26977380D01*
X263696428Y-26977380D02*
X263696428Y-25977380D01*
X263601190Y-26120238D01*
X263505952Y-26215476D01*
X263410714Y-26263095D01*
X264315476Y-25977380D02*
X264934523Y-25977380D01*
X264601190Y-26358333D01*
X264744047Y-26358333D01*
X264839285Y-26405952D01*
X264886904Y-26453571D01*
X264934523Y-26548809D01*
X264934523Y-26786904D01*
X264886904Y-26882142D01*
X264839285Y-26929761D01*
X264744047Y-26977380D01*
X264458333Y-26977380D01*
X264363095Y-26929761D01*
X264315476Y-26882142D01*
%TO.C,SW70*%
X304177976Y-103129761D02*
X304320833Y-103177380D01*
X304558928Y-103177380D01*
X304654166Y-103129761D01*
X304701785Y-103082142D01*
X304749404Y-102986904D01*
X304749404Y-102891666D01*
X304701785Y-102796428D01*
X304654166Y-102748809D01*
X304558928Y-102701190D01*
X304368452Y-102653571D01*
X304273214Y-102605952D01*
X304225595Y-102558333D01*
X304177976Y-102463095D01*
X304177976Y-102367857D01*
X304225595Y-102272619D01*
X304273214Y-102225000D01*
X304368452Y-102177380D01*
X304606547Y-102177380D01*
X304749404Y-102225000D01*
X305082738Y-102177380D02*
X305320833Y-103177380D01*
X305511309Y-102463095D01*
X305701785Y-103177380D01*
X305939880Y-102177380D01*
X306225595Y-102177380D02*
X306892261Y-102177380D01*
X306463690Y-103177380D01*
X307463690Y-102177380D02*
X307558928Y-102177380D01*
X307654166Y-102225000D01*
X307701785Y-102272619D01*
X307749404Y-102367857D01*
X307797023Y-102558333D01*
X307797023Y-102796428D01*
X307749404Y-102986904D01*
X307701785Y-103082142D01*
X307654166Y-103129761D01*
X307558928Y-103177380D01*
X307463690Y-103177380D01*
X307368452Y-103129761D01*
X307320833Y-103082142D01*
X307273214Y-102986904D01*
X307225595Y-102796428D01*
X307225595Y-102558333D01*
X307273214Y-102367857D01*
X307320833Y-102272619D01*
X307368452Y-102225000D01*
X307463690Y-102177380D01*
%TO.C,SW45*%
X275602976Y-65029761D02*
X275745833Y-65077380D01*
X275983928Y-65077380D01*
X276079166Y-65029761D01*
X276126785Y-64982142D01*
X276174404Y-64886904D01*
X276174404Y-64791666D01*
X276126785Y-64696428D01*
X276079166Y-64648809D01*
X275983928Y-64601190D01*
X275793452Y-64553571D01*
X275698214Y-64505952D01*
X275650595Y-64458333D01*
X275602976Y-64363095D01*
X275602976Y-64267857D01*
X275650595Y-64172619D01*
X275698214Y-64125000D01*
X275793452Y-64077380D01*
X276031547Y-64077380D01*
X276174404Y-64125000D01*
X276507738Y-64077380D02*
X276745833Y-65077380D01*
X276936309Y-64363095D01*
X277126785Y-65077380D01*
X277364880Y-64077380D01*
X278174404Y-64410714D02*
X278174404Y-65077380D01*
X277936309Y-64029761D02*
X277698214Y-64744047D01*
X278317261Y-64744047D01*
X279174404Y-64077380D02*
X278698214Y-64077380D01*
X278650595Y-64553571D01*
X278698214Y-64505952D01*
X278793452Y-64458333D01*
X279031547Y-64458333D01*
X279126785Y-64505952D01*
X279174404Y-64553571D01*
X279222023Y-64648809D01*
X279222023Y-64886904D01*
X279174404Y-64982142D01*
X279126785Y-65029761D01*
X279031547Y-65077380D01*
X278793452Y-65077380D01*
X278698214Y-65029761D01*
X278650595Y-64982142D01*
%TO.C,SW41*%
X199402976Y-65029761D02*
X199545833Y-65077380D01*
X199783928Y-65077380D01*
X199879166Y-65029761D01*
X199926785Y-64982142D01*
X199974404Y-64886904D01*
X199974404Y-64791666D01*
X199926785Y-64696428D01*
X199879166Y-64648809D01*
X199783928Y-64601190D01*
X199593452Y-64553571D01*
X199498214Y-64505952D01*
X199450595Y-64458333D01*
X199402976Y-64363095D01*
X199402976Y-64267857D01*
X199450595Y-64172619D01*
X199498214Y-64125000D01*
X199593452Y-64077380D01*
X199831547Y-64077380D01*
X199974404Y-64125000D01*
X200307738Y-64077380D02*
X200545833Y-65077380D01*
X200736309Y-64363095D01*
X200926785Y-65077380D01*
X201164880Y-64077380D01*
X201974404Y-64410714D02*
X201974404Y-65077380D01*
X201736309Y-64029761D02*
X201498214Y-64744047D01*
X202117261Y-64744047D01*
X203022023Y-65077380D02*
X202450595Y-65077380D01*
X202736309Y-65077380D02*
X202736309Y-64077380D01*
X202641071Y-64220238D01*
X202545833Y-64315476D01*
X202450595Y-64363095D01*
%TO.C,SW69*%
X268459226Y-103129761D02*
X268602083Y-103177380D01*
X268840178Y-103177380D01*
X268935416Y-103129761D01*
X268983035Y-103082142D01*
X269030654Y-102986904D01*
X269030654Y-102891666D01*
X268983035Y-102796428D01*
X268935416Y-102748809D01*
X268840178Y-102701190D01*
X268649702Y-102653571D01*
X268554464Y-102605952D01*
X268506845Y-102558333D01*
X268459226Y-102463095D01*
X268459226Y-102367857D01*
X268506845Y-102272619D01*
X268554464Y-102225000D01*
X268649702Y-102177380D01*
X268887797Y-102177380D01*
X269030654Y-102225000D01*
X269363988Y-102177380D02*
X269602083Y-103177380D01*
X269792559Y-102463095D01*
X269983035Y-103177380D01*
X270221130Y-102177380D01*
X271030654Y-102177380D02*
X270840178Y-102177380D01*
X270744940Y-102225000D01*
X270697321Y-102272619D01*
X270602083Y-102415476D01*
X270554464Y-102605952D01*
X270554464Y-102986904D01*
X270602083Y-103082142D01*
X270649702Y-103129761D01*
X270744940Y-103177380D01*
X270935416Y-103177380D01*
X271030654Y-103129761D01*
X271078273Y-103082142D01*
X271125892Y-102986904D01*
X271125892Y-102748809D01*
X271078273Y-102653571D01*
X271030654Y-102605952D01*
X270935416Y-102558333D01*
X270744940Y-102558333D01*
X270649702Y-102605952D01*
X270602083Y-102653571D01*
X270554464Y-102748809D01*
X271602083Y-103177380D02*
X271792559Y-103177380D01*
X271887797Y-103129761D01*
X271935416Y-103082142D01*
X272030654Y-102939285D01*
X272078273Y-102748809D01*
X272078273Y-102367857D01*
X272030654Y-102272619D01*
X271983035Y-102225000D01*
X271887797Y-102177380D01*
X271697321Y-102177380D01*
X271602083Y-102225000D01*
X271554464Y-102272619D01*
X271506845Y-102367857D01*
X271506845Y-102605952D01*
X271554464Y-102701190D01*
X271602083Y-102748809D01*
X271697321Y-102796428D01*
X271887797Y-102796428D01*
X271983035Y-102748809D01*
X272030654Y-102701190D01*
X272078273Y-102605952D01*
%TO.C,SW17*%
X37477976Y-45979761D02*
X37620833Y-46027380D01*
X37858928Y-46027380D01*
X37954166Y-45979761D01*
X38001785Y-45932142D01*
X38049404Y-45836904D01*
X38049404Y-45741666D01*
X38001785Y-45646428D01*
X37954166Y-45598809D01*
X37858928Y-45551190D01*
X37668452Y-45503571D01*
X37573214Y-45455952D01*
X37525595Y-45408333D01*
X37477976Y-45313095D01*
X37477976Y-45217857D01*
X37525595Y-45122619D01*
X37573214Y-45075000D01*
X37668452Y-45027380D01*
X37906547Y-45027380D01*
X38049404Y-45075000D01*
X38382738Y-45027380D02*
X38620833Y-46027380D01*
X38811309Y-45313095D01*
X39001785Y-46027380D01*
X39239880Y-45027380D01*
X40144642Y-46027380D02*
X39573214Y-46027380D01*
X39858928Y-46027380D02*
X39858928Y-45027380D01*
X39763690Y-45170238D01*
X39668452Y-45265476D01*
X39573214Y-45313095D01*
X40477976Y-45027380D02*
X41144642Y-45027380D01*
X40716071Y-46027380D01*
%TO.C,SW67*%
X220834226Y-103129761D02*
X220977083Y-103177380D01*
X221215178Y-103177380D01*
X221310416Y-103129761D01*
X221358035Y-103082142D01*
X221405654Y-102986904D01*
X221405654Y-102891666D01*
X221358035Y-102796428D01*
X221310416Y-102748809D01*
X221215178Y-102701190D01*
X221024702Y-102653571D01*
X220929464Y-102605952D01*
X220881845Y-102558333D01*
X220834226Y-102463095D01*
X220834226Y-102367857D01*
X220881845Y-102272619D01*
X220929464Y-102225000D01*
X221024702Y-102177380D01*
X221262797Y-102177380D01*
X221405654Y-102225000D01*
X221738988Y-102177380D02*
X221977083Y-103177380D01*
X222167559Y-102463095D01*
X222358035Y-103177380D01*
X222596130Y-102177380D01*
X223405654Y-102177380D02*
X223215178Y-102177380D01*
X223119940Y-102225000D01*
X223072321Y-102272619D01*
X222977083Y-102415476D01*
X222929464Y-102605952D01*
X222929464Y-102986904D01*
X222977083Y-103082142D01*
X223024702Y-103129761D01*
X223119940Y-103177380D01*
X223310416Y-103177380D01*
X223405654Y-103129761D01*
X223453273Y-103082142D01*
X223500892Y-102986904D01*
X223500892Y-102748809D01*
X223453273Y-102653571D01*
X223405654Y-102605952D01*
X223310416Y-102558333D01*
X223119940Y-102558333D01*
X223024702Y-102605952D01*
X222977083Y-102653571D01*
X222929464Y-102748809D01*
X223834226Y-102177380D02*
X224500892Y-102177380D01*
X224072321Y-103177380D01*
%TO.C,SW57*%
X247027976Y-84079761D02*
X247170833Y-84127380D01*
X247408928Y-84127380D01*
X247504166Y-84079761D01*
X247551785Y-84032142D01*
X247599404Y-83936904D01*
X247599404Y-83841666D01*
X247551785Y-83746428D01*
X247504166Y-83698809D01*
X247408928Y-83651190D01*
X247218452Y-83603571D01*
X247123214Y-83555952D01*
X247075595Y-83508333D01*
X247027976Y-83413095D01*
X247027976Y-83317857D01*
X247075595Y-83222619D01*
X247123214Y-83175000D01*
X247218452Y-83127380D01*
X247456547Y-83127380D01*
X247599404Y-83175000D01*
X247932738Y-83127380D02*
X248170833Y-84127380D01*
X248361309Y-83413095D01*
X248551785Y-84127380D01*
X248789880Y-83127380D01*
X249647023Y-83127380D02*
X249170833Y-83127380D01*
X249123214Y-83603571D01*
X249170833Y-83555952D01*
X249266071Y-83508333D01*
X249504166Y-83508333D01*
X249599404Y-83555952D01*
X249647023Y-83603571D01*
X249694642Y-83698809D01*
X249694642Y-83936904D01*
X249647023Y-84032142D01*
X249599404Y-84079761D01*
X249504166Y-84127380D01*
X249266071Y-84127380D01*
X249170833Y-84079761D01*
X249123214Y-84032142D01*
X250027976Y-83127380D02*
X250694642Y-83127380D01*
X250266071Y-84127380D01*
%TO.C,SW68*%
X244646726Y-103129761D02*
X244789583Y-103177380D01*
X245027678Y-103177380D01*
X245122916Y-103129761D01*
X245170535Y-103082142D01*
X245218154Y-102986904D01*
X245218154Y-102891666D01*
X245170535Y-102796428D01*
X245122916Y-102748809D01*
X245027678Y-102701190D01*
X244837202Y-102653571D01*
X244741964Y-102605952D01*
X244694345Y-102558333D01*
X244646726Y-102463095D01*
X244646726Y-102367857D01*
X244694345Y-102272619D01*
X244741964Y-102225000D01*
X244837202Y-102177380D01*
X245075297Y-102177380D01*
X245218154Y-102225000D01*
X245551488Y-102177380D02*
X245789583Y-103177380D01*
X245980059Y-102463095D01*
X246170535Y-103177380D01*
X246408630Y-102177380D01*
X247218154Y-102177380D02*
X247027678Y-102177380D01*
X246932440Y-102225000D01*
X246884821Y-102272619D01*
X246789583Y-102415476D01*
X246741964Y-102605952D01*
X246741964Y-102986904D01*
X246789583Y-103082142D01*
X246837202Y-103129761D01*
X246932440Y-103177380D01*
X247122916Y-103177380D01*
X247218154Y-103129761D01*
X247265773Y-103082142D01*
X247313392Y-102986904D01*
X247313392Y-102748809D01*
X247265773Y-102653571D01*
X247218154Y-102605952D01*
X247122916Y-102558333D01*
X246932440Y-102558333D01*
X246837202Y-102605952D01*
X246789583Y-102653571D01*
X246741964Y-102748809D01*
X247884821Y-102605952D02*
X247789583Y-102558333D01*
X247741964Y-102510714D01*
X247694345Y-102415476D01*
X247694345Y-102367857D01*
X247741964Y-102272619D01*
X247789583Y-102225000D01*
X247884821Y-102177380D01*
X248075297Y-102177380D01*
X248170535Y-102225000D01*
X248218154Y-102272619D01*
X248265773Y-102367857D01*
X248265773Y-102415476D01*
X248218154Y-102510714D01*
X248170535Y-102558333D01*
X248075297Y-102605952D01*
X247884821Y-102605952D01*
X247789583Y-102653571D01*
X247741964Y-102701190D01*
X247694345Y-102796428D01*
X247694345Y-102986904D01*
X247741964Y-103082142D01*
X247789583Y-103129761D01*
X247884821Y-103177380D01*
X248075297Y-103177380D01*
X248170535Y-103129761D01*
X248218154Y-103082142D01*
X248265773Y-102986904D01*
X248265773Y-102796428D01*
X248218154Y-102701190D01*
X248170535Y-102653571D01*
X248075297Y-102605952D01*
%TO.C,SW58*%
X273221726Y-84079761D02*
X273364583Y-84127380D01*
X273602678Y-84127380D01*
X273697916Y-84079761D01*
X273745535Y-84032142D01*
X273793154Y-83936904D01*
X273793154Y-83841666D01*
X273745535Y-83746428D01*
X273697916Y-83698809D01*
X273602678Y-83651190D01*
X273412202Y-83603571D01*
X273316964Y-83555952D01*
X273269345Y-83508333D01*
X273221726Y-83413095D01*
X273221726Y-83317857D01*
X273269345Y-83222619D01*
X273316964Y-83175000D01*
X273412202Y-83127380D01*
X273650297Y-83127380D01*
X273793154Y-83175000D01*
X274126488Y-83127380D02*
X274364583Y-84127380D01*
X274555059Y-83413095D01*
X274745535Y-84127380D01*
X274983630Y-83127380D01*
X275840773Y-83127380D02*
X275364583Y-83127380D01*
X275316964Y-83603571D01*
X275364583Y-83555952D01*
X275459821Y-83508333D01*
X275697916Y-83508333D01*
X275793154Y-83555952D01*
X275840773Y-83603571D01*
X275888392Y-83698809D01*
X275888392Y-83936904D01*
X275840773Y-84032142D01*
X275793154Y-84079761D01*
X275697916Y-84127380D01*
X275459821Y-84127380D01*
X275364583Y-84079761D01*
X275316964Y-84032142D01*
X276459821Y-83555952D02*
X276364583Y-83508333D01*
X276316964Y-83460714D01*
X276269345Y-83365476D01*
X276269345Y-83317857D01*
X276316964Y-83222619D01*
X276364583Y-83175000D01*
X276459821Y-83127380D01*
X276650297Y-83127380D01*
X276745535Y-83175000D01*
X276793154Y-83222619D01*
X276840773Y-83317857D01*
X276840773Y-83365476D01*
X276793154Y-83460714D01*
X276745535Y-83508333D01*
X276650297Y-83555952D01*
X276459821Y-83555952D01*
X276364583Y-83603571D01*
X276316964Y-83651190D01*
X276269345Y-83746428D01*
X276269345Y-83936904D01*
X276316964Y-84032142D01*
X276364583Y-84079761D01*
X276459821Y-84127380D01*
X276650297Y-84127380D01*
X276745535Y-84079761D01*
X276793154Y-84032142D01*
X276840773Y-83936904D01*
X276840773Y-83746428D01*
X276793154Y-83651190D01*
X276745535Y-83603571D01*
X276650297Y-83555952D01*
%TO.C,SW59*%
X299415476Y-84079761D02*
X299558333Y-84127380D01*
X299796428Y-84127380D01*
X299891666Y-84079761D01*
X299939285Y-84032142D01*
X299986904Y-83936904D01*
X299986904Y-83841666D01*
X299939285Y-83746428D01*
X299891666Y-83698809D01*
X299796428Y-83651190D01*
X299605952Y-83603571D01*
X299510714Y-83555952D01*
X299463095Y-83508333D01*
X299415476Y-83413095D01*
X299415476Y-83317857D01*
X299463095Y-83222619D01*
X299510714Y-83175000D01*
X299605952Y-83127380D01*
X299844047Y-83127380D01*
X299986904Y-83175000D01*
X300320238Y-83127380D02*
X300558333Y-84127380D01*
X300748809Y-83413095D01*
X300939285Y-84127380D01*
X301177380Y-83127380D01*
X302034523Y-83127380D02*
X301558333Y-83127380D01*
X301510714Y-83603571D01*
X301558333Y-83555952D01*
X301653571Y-83508333D01*
X301891666Y-83508333D01*
X301986904Y-83555952D01*
X302034523Y-83603571D01*
X302082142Y-83698809D01*
X302082142Y-83936904D01*
X302034523Y-84032142D01*
X301986904Y-84079761D01*
X301891666Y-84127380D01*
X301653571Y-84127380D01*
X301558333Y-84079761D01*
X301510714Y-84032142D01*
X302558333Y-84127380D02*
X302748809Y-84127380D01*
X302844047Y-84079761D01*
X302891666Y-84032142D01*
X302986904Y-83889285D01*
X303034523Y-83698809D01*
X303034523Y-83317857D01*
X302986904Y-83222619D01*
X302939285Y-83175000D01*
X302844047Y-83127380D01*
X302653571Y-83127380D01*
X302558333Y-83175000D01*
X302510714Y-83222619D01*
X302463095Y-83317857D01*
X302463095Y-83555952D01*
X302510714Y-83651190D01*
X302558333Y-83698809D01*
X302653571Y-83746428D01*
X302844047Y-83746428D01*
X302939285Y-83698809D01*
X302986904Y-83651190D01*
X303034523Y-83555952D01*
%TO.C,SW38*%
X142252976Y-65029761D02*
X142395833Y-65077380D01*
X142633928Y-65077380D01*
X142729166Y-65029761D01*
X142776785Y-64982142D01*
X142824404Y-64886904D01*
X142824404Y-64791666D01*
X142776785Y-64696428D01*
X142729166Y-64648809D01*
X142633928Y-64601190D01*
X142443452Y-64553571D01*
X142348214Y-64505952D01*
X142300595Y-64458333D01*
X142252976Y-64363095D01*
X142252976Y-64267857D01*
X142300595Y-64172619D01*
X142348214Y-64125000D01*
X142443452Y-64077380D01*
X142681547Y-64077380D01*
X142824404Y-64125000D01*
X143157738Y-64077380D02*
X143395833Y-65077380D01*
X143586309Y-64363095D01*
X143776785Y-65077380D01*
X144014880Y-64077380D01*
X144300595Y-64077380D02*
X144919642Y-64077380D01*
X144586309Y-64458333D01*
X144729166Y-64458333D01*
X144824404Y-64505952D01*
X144872023Y-64553571D01*
X144919642Y-64648809D01*
X144919642Y-64886904D01*
X144872023Y-64982142D01*
X144824404Y-65029761D01*
X144729166Y-65077380D01*
X144443452Y-65077380D01*
X144348214Y-65029761D01*
X144300595Y-64982142D01*
X145491071Y-64505952D02*
X145395833Y-64458333D01*
X145348214Y-64410714D01*
X145300595Y-64315476D01*
X145300595Y-64267857D01*
X145348214Y-64172619D01*
X145395833Y-64125000D01*
X145491071Y-64077380D01*
X145681547Y-64077380D01*
X145776785Y-64125000D01*
X145824404Y-64172619D01*
X145872023Y-64267857D01*
X145872023Y-64315476D01*
X145824404Y-64410714D01*
X145776785Y-64458333D01*
X145681547Y-64505952D01*
X145491071Y-64505952D01*
X145395833Y-64553571D01*
X145348214Y-64601190D01*
X145300595Y-64696428D01*
X145300595Y-64886904D01*
X145348214Y-64982142D01*
X145395833Y-65029761D01*
X145491071Y-65077380D01*
X145681547Y-65077380D01*
X145776785Y-65029761D01*
X145824404Y-64982142D01*
X145872023Y-64886904D01*
X145872023Y-64696428D01*
X145824404Y-64601190D01*
X145776785Y-64553571D01*
X145681547Y-64505952D01*
%TO.C,SW37*%
X123202976Y-65029761D02*
X123345833Y-65077380D01*
X123583928Y-65077380D01*
X123679166Y-65029761D01*
X123726785Y-64982142D01*
X123774404Y-64886904D01*
X123774404Y-64791666D01*
X123726785Y-64696428D01*
X123679166Y-64648809D01*
X123583928Y-64601190D01*
X123393452Y-64553571D01*
X123298214Y-64505952D01*
X123250595Y-64458333D01*
X123202976Y-64363095D01*
X123202976Y-64267857D01*
X123250595Y-64172619D01*
X123298214Y-64125000D01*
X123393452Y-64077380D01*
X123631547Y-64077380D01*
X123774404Y-64125000D01*
X124107738Y-64077380D02*
X124345833Y-65077380D01*
X124536309Y-64363095D01*
X124726785Y-65077380D01*
X124964880Y-64077380D01*
X125250595Y-64077380D02*
X125869642Y-64077380D01*
X125536309Y-64458333D01*
X125679166Y-64458333D01*
X125774404Y-64505952D01*
X125822023Y-64553571D01*
X125869642Y-64648809D01*
X125869642Y-64886904D01*
X125822023Y-64982142D01*
X125774404Y-65029761D01*
X125679166Y-65077380D01*
X125393452Y-65077380D01*
X125298214Y-65029761D01*
X125250595Y-64982142D01*
X126202976Y-64077380D02*
X126869642Y-64077380D01*
X126441071Y-65077380D01*
%TO.C,SW20*%
X99390476Y-45979761D02*
X99533333Y-46027380D01*
X99771428Y-46027380D01*
X99866666Y-45979761D01*
X99914285Y-45932142D01*
X99961904Y-45836904D01*
X99961904Y-45741666D01*
X99914285Y-45646428D01*
X99866666Y-45598809D01*
X99771428Y-45551190D01*
X99580952Y-45503571D01*
X99485714Y-45455952D01*
X99438095Y-45408333D01*
X99390476Y-45313095D01*
X99390476Y-45217857D01*
X99438095Y-45122619D01*
X99485714Y-45075000D01*
X99580952Y-45027380D01*
X99819047Y-45027380D01*
X99961904Y-45075000D01*
X100295238Y-45027380D02*
X100533333Y-46027380D01*
X100723809Y-45313095D01*
X100914285Y-46027380D01*
X101152380Y-45027380D01*
X101485714Y-45122619D02*
X101533333Y-45075000D01*
X101628571Y-45027380D01*
X101866666Y-45027380D01*
X101961904Y-45075000D01*
X102009523Y-45122619D01*
X102057142Y-45217857D01*
X102057142Y-45313095D01*
X102009523Y-45455952D01*
X101438095Y-46027380D01*
X102057142Y-46027380D01*
X102676190Y-45027380D02*
X102771428Y-45027380D01*
X102866666Y-45075000D01*
X102914285Y-45122619D01*
X102961904Y-45217857D01*
X103009523Y-45408333D01*
X103009523Y-45646428D01*
X102961904Y-45836904D01*
X102914285Y-45932142D01*
X102866666Y-45979761D01*
X102771428Y-46027380D01*
X102676190Y-46027380D01*
X102580952Y-45979761D01*
X102533333Y-45932142D01*
X102485714Y-45836904D01*
X102438095Y-45646428D01*
X102438095Y-45408333D01*
X102485714Y-45217857D01*
X102533333Y-45122619D01*
X102580952Y-45075000D01*
X102676190Y-45027380D01*
%TO.C,SW9*%
X185591666Y-26929761D02*
X185734523Y-26977380D01*
X185972619Y-26977380D01*
X186067857Y-26929761D01*
X186115476Y-26882142D01*
X186163095Y-26786904D01*
X186163095Y-26691666D01*
X186115476Y-26596428D01*
X186067857Y-26548809D01*
X185972619Y-26501190D01*
X185782142Y-26453571D01*
X185686904Y-26405952D01*
X185639285Y-26358333D01*
X185591666Y-26263095D01*
X185591666Y-26167857D01*
X185639285Y-26072619D01*
X185686904Y-26025000D01*
X185782142Y-25977380D01*
X186020238Y-25977380D01*
X186163095Y-26025000D01*
X186496428Y-25977380D02*
X186734523Y-26977380D01*
X186925000Y-26263095D01*
X187115476Y-26977380D01*
X187353571Y-25977380D01*
X187782142Y-26977380D02*
X187972619Y-26977380D01*
X188067857Y-26929761D01*
X188115476Y-26882142D01*
X188210714Y-26739285D01*
X188258333Y-26548809D01*
X188258333Y-26167857D01*
X188210714Y-26072619D01*
X188163095Y-26025000D01*
X188067857Y-25977380D01*
X187877380Y-25977380D01*
X187782142Y-26025000D01*
X187734523Y-26072619D01*
X187686904Y-26167857D01*
X187686904Y-26405952D01*
X187734523Y-26501190D01*
X187782142Y-26548809D01*
X187877380Y-26596428D01*
X188067857Y-26596428D01*
X188163095Y-26548809D01*
X188210714Y-26501190D01*
X188258333Y-26405952D01*
%TO.C,SW27*%
X232740476Y-45979761D02*
X232883333Y-46027380D01*
X233121428Y-46027380D01*
X233216666Y-45979761D01*
X233264285Y-45932142D01*
X233311904Y-45836904D01*
X233311904Y-45741666D01*
X233264285Y-45646428D01*
X233216666Y-45598809D01*
X233121428Y-45551190D01*
X232930952Y-45503571D01*
X232835714Y-45455952D01*
X232788095Y-45408333D01*
X232740476Y-45313095D01*
X232740476Y-45217857D01*
X232788095Y-45122619D01*
X232835714Y-45075000D01*
X232930952Y-45027380D01*
X233169047Y-45027380D01*
X233311904Y-45075000D01*
X233645238Y-45027380D02*
X233883333Y-46027380D01*
X234073809Y-45313095D01*
X234264285Y-46027380D01*
X234502380Y-45027380D01*
X234835714Y-45122619D02*
X234883333Y-45075000D01*
X234978571Y-45027380D01*
X235216666Y-45027380D01*
X235311904Y-45075000D01*
X235359523Y-45122619D01*
X235407142Y-45217857D01*
X235407142Y-45313095D01*
X235359523Y-45455952D01*
X234788095Y-46027380D01*
X235407142Y-46027380D01*
X235740476Y-45027380D02*
X236407142Y-45027380D01*
X235978571Y-46027380D01*
%TO.C,SW1*%
X33191666Y-26929761D02*
X33334523Y-26977380D01*
X33572619Y-26977380D01*
X33667857Y-26929761D01*
X33715476Y-26882142D01*
X33763095Y-26786904D01*
X33763095Y-26691666D01*
X33715476Y-26596428D01*
X33667857Y-26548809D01*
X33572619Y-26501190D01*
X33382142Y-26453571D01*
X33286904Y-26405952D01*
X33239285Y-26358333D01*
X33191666Y-26263095D01*
X33191666Y-26167857D01*
X33239285Y-26072619D01*
X33286904Y-26025000D01*
X33382142Y-25977380D01*
X33620238Y-25977380D01*
X33763095Y-26025000D01*
X34096428Y-25977380D02*
X34334523Y-26977380D01*
X34525000Y-26263095D01*
X34715476Y-26977380D01*
X34953571Y-25977380D01*
X35858333Y-26977380D02*
X35286904Y-26977380D01*
X35572619Y-26977380D02*
X35572619Y-25977380D01*
X35477380Y-26120238D01*
X35382142Y-26215476D01*
X35286904Y-26263095D01*
%TO.C,SW26*%
X213690476Y-45979761D02*
X213833333Y-46027380D01*
X214071428Y-46027380D01*
X214166666Y-45979761D01*
X214214285Y-45932142D01*
X214261904Y-45836904D01*
X214261904Y-45741666D01*
X214214285Y-45646428D01*
X214166666Y-45598809D01*
X214071428Y-45551190D01*
X213880952Y-45503571D01*
X213785714Y-45455952D01*
X213738095Y-45408333D01*
X213690476Y-45313095D01*
X213690476Y-45217857D01*
X213738095Y-45122619D01*
X213785714Y-45075000D01*
X213880952Y-45027380D01*
X214119047Y-45027380D01*
X214261904Y-45075000D01*
X214595238Y-45027380D02*
X214833333Y-46027380D01*
X215023809Y-45313095D01*
X215214285Y-46027380D01*
X215452380Y-45027380D01*
X215785714Y-45122619D02*
X215833333Y-45075000D01*
X215928571Y-45027380D01*
X216166666Y-45027380D01*
X216261904Y-45075000D01*
X216309523Y-45122619D01*
X216357142Y-45217857D01*
X216357142Y-45313095D01*
X216309523Y-45455952D01*
X215738095Y-46027380D01*
X216357142Y-46027380D01*
X217214285Y-45027380D02*
X217023809Y-45027380D01*
X216928571Y-45075000D01*
X216880952Y-45122619D01*
X216785714Y-45265476D01*
X216738095Y-45455952D01*
X216738095Y-45836904D01*
X216785714Y-45932142D01*
X216833333Y-45979761D01*
X216928571Y-46027380D01*
X217119047Y-46027380D01*
X217214285Y-45979761D01*
X217261904Y-45932142D01*
X217309523Y-45836904D01*
X217309523Y-45598809D01*
X217261904Y-45503571D01*
X217214285Y-45455952D01*
X217119047Y-45408333D01*
X216928571Y-45408333D01*
X216833333Y-45455952D01*
X216785714Y-45503571D01*
X216738095Y-45598809D01*
%TO.C,SW10*%
X204165476Y-26929761D02*
X204308333Y-26977380D01*
X204546428Y-26977380D01*
X204641666Y-26929761D01*
X204689285Y-26882142D01*
X204736904Y-26786904D01*
X204736904Y-26691666D01*
X204689285Y-26596428D01*
X204641666Y-26548809D01*
X204546428Y-26501190D01*
X204355952Y-26453571D01*
X204260714Y-26405952D01*
X204213095Y-26358333D01*
X204165476Y-26263095D01*
X204165476Y-26167857D01*
X204213095Y-26072619D01*
X204260714Y-26025000D01*
X204355952Y-25977380D01*
X204594047Y-25977380D01*
X204736904Y-26025000D01*
X205070238Y-25977380D02*
X205308333Y-26977380D01*
X205498809Y-26263095D01*
X205689285Y-26977380D01*
X205927380Y-25977380D01*
X206832142Y-26977380D02*
X206260714Y-26977380D01*
X206546428Y-26977380D02*
X206546428Y-25977380D01*
X206451190Y-26120238D01*
X206355952Y-26215476D01*
X206260714Y-26263095D01*
X207451190Y-25977380D02*
X207546428Y-25977380D01*
X207641666Y-26025000D01*
X207689285Y-26072619D01*
X207736904Y-26167857D01*
X207784523Y-26358333D01*
X207784523Y-26596428D01*
X207736904Y-26786904D01*
X207689285Y-26882142D01*
X207641666Y-26929761D01*
X207546428Y-26977380D01*
X207451190Y-26977380D01*
X207355952Y-26929761D01*
X207308333Y-26882142D01*
X207260714Y-26786904D01*
X207213095Y-26596428D01*
X207213095Y-26358333D01*
X207260714Y-26167857D01*
X207308333Y-26072619D01*
X207355952Y-26025000D01*
X207451190Y-25977380D01*
%TO.C,SW12*%
X242265476Y-26929761D02*
X242408333Y-26977380D01*
X242646428Y-26977380D01*
X242741666Y-26929761D01*
X242789285Y-26882142D01*
X242836904Y-26786904D01*
X242836904Y-26691666D01*
X242789285Y-26596428D01*
X242741666Y-26548809D01*
X242646428Y-26501190D01*
X242455952Y-26453571D01*
X242360714Y-26405952D01*
X242313095Y-26358333D01*
X242265476Y-26263095D01*
X242265476Y-26167857D01*
X242313095Y-26072619D01*
X242360714Y-26025000D01*
X242455952Y-25977380D01*
X242694047Y-25977380D01*
X242836904Y-26025000D01*
X243170238Y-25977380D02*
X243408333Y-26977380D01*
X243598809Y-26263095D01*
X243789285Y-26977380D01*
X244027380Y-25977380D01*
X244932142Y-26977380D02*
X244360714Y-26977380D01*
X244646428Y-26977380D02*
X244646428Y-25977380D01*
X244551190Y-26120238D01*
X244455952Y-26215476D01*
X244360714Y-26263095D01*
X245313095Y-26072619D02*
X245360714Y-26025000D01*
X245455952Y-25977380D01*
X245694047Y-25977380D01*
X245789285Y-26025000D01*
X245836904Y-26072619D01*
X245884523Y-26167857D01*
X245884523Y-26263095D01*
X245836904Y-26405952D01*
X245265476Y-26977380D01*
X245884523Y-26977380D01*
%TO.C,SW21*%
X118440476Y-45979761D02*
X118583333Y-46027380D01*
X118821428Y-46027380D01*
X118916666Y-45979761D01*
X118964285Y-45932142D01*
X119011904Y-45836904D01*
X119011904Y-45741666D01*
X118964285Y-45646428D01*
X118916666Y-45598809D01*
X118821428Y-45551190D01*
X118630952Y-45503571D01*
X118535714Y-45455952D01*
X118488095Y-45408333D01*
X118440476Y-45313095D01*
X118440476Y-45217857D01*
X118488095Y-45122619D01*
X118535714Y-45075000D01*
X118630952Y-45027380D01*
X118869047Y-45027380D01*
X119011904Y-45075000D01*
X119345238Y-45027380D02*
X119583333Y-46027380D01*
X119773809Y-45313095D01*
X119964285Y-46027380D01*
X120202380Y-45027380D01*
X120535714Y-45122619D02*
X120583333Y-45075000D01*
X120678571Y-45027380D01*
X120916666Y-45027380D01*
X121011904Y-45075000D01*
X121059523Y-45122619D01*
X121107142Y-45217857D01*
X121107142Y-45313095D01*
X121059523Y-45455952D01*
X120488095Y-46027380D01*
X121107142Y-46027380D01*
X122059523Y-46027380D02*
X121488095Y-46027380D01*
X121773809Y-46027380D02*
X121773809Y-45027380D01*
X121678571Y-45170238D01*
X121583333Y-45265476D01*
X121488095Y-45313095D01*
%TO.C,SW49*%
X94627976Y-84079761D02*
X94770833Y-84127380D01*
X95008928Y-84127380D01*
X95104166Y-84079761D01*
X95151785Y-84032142D01*
X95199404Y-83936904D01*
X95199404Y-83841666D01*
X95151785Y-83746428D01*
X95104166Y-83698809D01*
X95008928Y-83651190D01*
X94818452Y-83603571D01*
X94723214Y-83555952D01*
X94675595Y-83508333D01*
X94627976Y-83413095D01*
X94627976Y-83317857D01*
X94675595Y-83222619D01*
X94723214Y-83175000D01*
X94818452Y-83127380D01*
X95056547Y-83127380D01*
X95199404Y-83175000D01*
X95532738Y-83127380D02*
X95770833Y-84127380D01*
X95961309Y-83413095D01*
X96151785Y-84127380D01*
X96389880Y-83127380D01*
X97199404Y-83460714D02*
X97199404Y-84127380D01*
X96961309Y-83079761D02*
X96723214Y-83794047D01*
X97342261Y-83794047D01*
X97770833Y-84127380D02*
X97961309Y-84127380D01*
X98056547Y-84079761D01*
X98104166Y-84032142D01*
X98199404Y-83889285D01*
X98247023Y-83698809D01*
X98247023Y-83317857D01*
X98199404Y-83222619D01*
X98151785Y-83175000D01*
X98056547Y-83127380D01*
X97866071Y-83127380D01*
X97770833Y-83175000D01*
X97723214Y-83222619D01*
X97675595Y-83317857D01*
X97675595Y-83555952D01*
X97723214Y-83651190D01*
X97770833Y-83698809D01*
X97866071Y-83746428D01*
X98056547Y-83746428D01*
X98151785Y-83698809D01*
X98199404Y-83651190D01*
X98247023Y-83555952D01*
%TO.C,SW15*%
X323227976Y-26929761D02*
X323370833Y-26977380D01*
X323608928Y-26977380D01*
X323704166Y-26929761D01*
X323751785Y-26882142D01*
X323799404Y-26786904D01*
X323799404Y-26691666D01*
X323751785Y-26596428D01*
X323704166Y-26548809D01*
X323608928Y-26501190D01*
X323418452Y-26453571D01*
X323323214Y-26405952D01*
X323275595Y-26358333D01*
X323227976Y-26263095D01*
X323227976Y-26167857D01*
X323275595Y-26072619D01*
X323323214Y-26025000D01*
X323418452Y-25977380D01*
X323656547Y-25977380D01*
X323799404Y-26025000D01*
X324132738Y-25977380D02*
X324370833Y-26977380D01*
X324561309Y-26263095D01*
X324751785Y-26977380D01*
X324989880Y-25977380D01*
X325894642Y-26977380D02*
X325323214Y-26977380D01*
X325608928Y-26977380D02*
X325608928Y-25977380D01*
X325513690Y-26120238D01*
X325418452Y-26215476D01*
X325323214Y-26263095D01*
X326799404Y-25977380D02*
X326323214Y-25977380D01*
X326275595Y-26453571D01*
X326323214Y-26405952D01*
X326418452Y-26358333D01*
X326656547Y-26358333D01*
X326751785Y-26405952D01*
X326799404Y-26453571D01*
X326847023Y-26548809D01*
X326847023Y-26786904D01*
X326799404Y-26882142D01*
X326751785Y-26929761D01*
X326656547Y-26977380D01*
X326418452Y-26977380D01*
X326323214Y-26929761D01*
X326275595Y-26882142D01*
%TO.C,SW63*%
X82721726Y-103129761D02*
X82864583Y-103177380D01*
X83102678Y-103177380D01*
X83197916Y-103129761D01*
X83245535Y-103082142D01*
X83293154Y-102986904D01*
X83293154Y-102891666D01*
X83245535Y-102796428D01*
X83197916Y-102748809D01*
X83102678Y-102701190D01*
X82912202Y-102653571D01*
X82816964Y-102605952D01*
X82769345Y-102558333D01*
X82721726Y-102463095D01*
X82721726Y-102367857D01*
X82769345Y-102272619D01*
X82816964Y-102225000D01*
X82912202Y-102177380D01*
X83150297Y-102177380D01*
X83293154Y-102225000D01*
X83626488Y-102177380D02*
X83864583Y-103177380D01*
X84055059Y-102463095D01*
X84245535Y-103177380D01*
X84483630Y-102177380D01*
X85293154Y-102177380D02*
X85102678Y-102177380D01*
X85007440Y-102225000D01*
X84959821Y-102272619D01*
X84864583Y-102415476D01*
X84816964Y-102605952D01*
X84816964Y-102986904D01*
X84864583Y-103082142D01*
X84912202Y-103129761D01*
X85007440Y-103177380D01*
X85197916Y-103177380D01*
X85293154Y-103129761D01*
X85340773Y-103082142D01*
X85388392Y-102986904D01*
X85388392Y-102748809D01*
X85340773Y-102653571D01*
X85293154Y-102605952D01*
X85197916Y-102558333D01*
X85007440Y-102558333D01*
X84912202Y-102605952D01*
X84864583Y-102653571D01*
X84816964Y-102748809D01*
X85721726Y-102177380D02*
X86340773Y-102177380D01*
X86007440Y-102558333D01*
X86150297Y-102558333D01*
X86245535Y-102605952D01*
X86293154Y-102653571D01*
X86340773Y-102748809D01*
X86340773Y-102986904D01*
X86293154Y-103082142D01*
X86245535Y-103129761D01*
X86150297Y-103177380D01*
X85864583Y-103177380D01*
X85769345Y-103129761D01*
X85721726Y-103082142D01*
%TO.C,SW8*%
X166541666Y-26929761D02*
X166684523Y-26977380D01*
X166922619Y-26977380D01*
X167017857Y-26929761D01*
X167065476Y-26882142D01*
X167113095Y-26786904D01*
X167113095Y-26691666D01*
X167065476Y-26596428D01*
X167017857Y-26548809D01*
X166922619Y-26501190D01*
X166732142Y-26453571D01*
X166636904Y-26405952D01*
X166589285Y-26358333D01*
X166541666Y-26263095D01*
X166541666Y-26167857D01*
X166589285Y-26072619D01*
X166636904Y-26025000D01*
X166732142Y-25977380D01*
X166970238Y-25977380D01*
X167113095Y-26025000D01*
X167446428Y-25977380D02*
X167684523Y-26977380D01*
X167875000Y-26263095D01*
X168065476Y-26977380D01*
X168303571Y-25977380D01*
X168827380Y-26405952D02*
X168732142Y-26358333D01*
X168684523Y-26310714D01*
X168636904Y-26215476D01*
X168636904Y-26167857D01*
X168684523Y-26072619D01*
X168732142Y-26025000D01*
X168827380Y-25977380D01*
X169017857Y-25977380D01*
X169113095Y-26025000D01*
X169160714Y-26072619D01*
X169208333Y-26167857D01*
X169208333Y-26215476D01*
X169160714Y-26310714D01*
X169113095Y-26358333D01*
X169017857Y-26405952D01*
X168827380Y-26405952D01*
X168732142Y-26453571D01*
X168684523Y-26501190D01*
X168636904Y-26596428D01*
X168636904Y-26786904D01*
X168684523Y-26882142D01*
X168732142Y-26929761D01*
X168827380Y-26977380D01*
X169017857Y-26977380D01*
X169113095Y-26929761D01*
X169160714Y-26882142D01*
X169208333Y-26786904D01*
X169208333Y-26596428D01*
X169160714Y-26501190D01*
X169113095Y-26453571D01*
X169017857Y-26405952D01*
%TO.C,SW60*%
X323227976Y-84079761D02*
X323370833Y-84127380D01*
X323608928Y-84127380D01*
X323704166Y-84079761D01*
X323751785Y-84032142D01*
X323799404Y-83936904D01*
X323799404Y-83841666D01*
X323751785Y-83746428D01*
X323704166Y-83698809D01*
X323608928Y-83651190D01*
X323418452Y-83603571D01*
X323323214Y-83555952D01*
X323275595Y-83508333D01*
X323227976Y-83413095D01*
X323227976Y-83317857D01*
X323275595Y-83222619D01*
X323323214Y-83175000D01*
X323418452Y-83127380D01*
X323656547Y-83127380D01*
X323799404Y-83175000D01*
X324132738Y-83127380D02*
X324370833Y-84127380D01*
X324561309Y-83413095D01*
X324751785Y-84127380D01*
X324989880Y-83127380D01*
X325799404Y-83127380D02*
X325608928Y-83127380D01*
X325513690Y-83175000D01*
X325466071Y-83222619D01*
X325370833Y-83365476D01*
X325323214Y-83555952D01*
X325323214Y-83936904D01*
X325370833Y-84032142D01*
X325418452Y-84079761D01*
X325513690Y-84127380D01*
X325704166Y-84127380D01*
X325799404Y-84079761D01*
X325847023Y-84032142D01*
X325894642Y-83936904D01*
X325894642Y-83698809D01*
X325847023Y-83603571D01*
X325799404Y-83555952D01*
X325704166Y-83508333D01*
X325513690Y-83508333D01*
X325418452Y-83555952D01*
X325370833Y-83603571D01*
X325323214Y-83698809D01*
X326513690Y-83127380D02*
X326608928Y-83127380D01*
X326704166Y-83175000D01*
X326751785Y-83222619D01*
X326799404Y-83317857D01*
X326847023Y-83508333D01*
X326847023Y-83746428D01*
X326799404Y-83936904D01*
X326751785Y-84032142D01*
X326704166Y-84079761D01*
X326608928Y-84127380D01*
X326513690Y-84127380D01*
X326418452Y-84079761D01*
X326370833Y-84032142D01*
X326323214Y-83936904D01*
X326275595Y-83746428D01*
X326275595Y-83508333D01*
X326323214Y-83317857D01*
X326370833Y-83222619D01*
X326418452Y-83175000D01*
X326513690Y-83127380D01*
%TO.C,SW24*%
X175590476Y-45979761D02*
X175733333Y-46027380D01*
X175971428Y-46027380D01*
X176066666Y-45979761D01*
X176114285Y-45932142D01*
X176161904Y-45836904D01*
X176161904Y-45741666D01*
X176114285Y-45646428D01*
X176066666Y-45598809D01*
X175971428Y-45551190D01*
X175780952Y-45503571D01*
X175685714Y-45455952D01*
X175638095Y-45408333D01*
X175590476Y-45313095D01*
X175590476Y-45217857D01*
X175638095Y-45122619D01*
X175685714Y-45075000D01*
X175780952Y-45027380D01*
X176019047Y-45027380D01*
X176161904Y-45075000D01*
X176495238Y-45027380D02*
X176733333Y-46027380D01*
X176923809Y-45313095D01*
X177114285Y-46027380D01*
X177352380Y-45027380D01*
X177685714Y-45122619D02*
X177733333Y-45075000D01*
X177828571Y-45027380D01*
X178066666Y-45027380D01*
X178161904Y-45075000D01*
X178209523Y-45122619D01*
X178257142Y-45217857D01*
X178257142Y-45313095D01*
X178209523Y-45455952D01*
X177638095Y-46027380D01*
X178257142Y-46027380D01*
X179114285Y-45360714D02*
X179114285Y-46027380D01*
X178876190Y-44979761D02*
X178638095Y-45694047D01*
X179257142Y-45694047D01*
%TO.C,SW55*%
X208927976Y-84079761D02*
X209070833Y-84127380D01*
X209308928Y-84127380D01*
X209404166Y-84079761D01*
X209451785Y-84032142D01*
X209499404Y-83936904D01*
X209499404Y-83841666D01*
X209451785Y-83746428D01*
X209404166Y-83698809D01*
X209308928Y-83651190D01*
X209118452Y-83603571D01*
X209023214Y-83555952D01*
X208975595Y-83508333D01*
X208927976Y-83413095D01*
X208927976Y-83317857D01*
X208975595Y-83222619D01*
X209023214Y-83175000D01*
X209118452Y-83127380D01*
X209356547Y-83127380D01*
X209499404Y-83175000D01*
X209832738Y-83127380D02*
X210070833Y-84127380D01*
X210261309Y-83413095D01*
X210451785Y-84127380D01*
X210689880Y-83127380D01*
X211547023Y-83127380D02*
X211070833Y-83127380D01*
X211023214Y-83603571D01*
X211070833Y-83555952D01*
X211166071Y-83508333D01*
X211404166Y-83508333D01*
X211499404Y-83555952D01*
X211547023Y-83603571D01*
X211594642Y-83698809D01*
X211594642Y-83936904D01*
X211547023Y-84032142D01*
X211499404Y-84079761D01*
X211404166Y-84127380D01*
X211166071Y-84127380D01*
X211070833Y-84079761D01*
X211023214Y-84032142D01*
X212499404Y-83127380D02*
X212023214Y-83127380D01*
X211975595Y-83603571D01*
X212023214Y-83555952D01*
X212118452Y-83508333D01*
X212356547Y-83508333D01*
X212451785Y-83555952D01*
X212499404Y-83603571D01*
X212547023Y-83698809D01*
X212547023Y-83936904D01*
X212499404Y-84032142D01*
X212451785Y-84079761D01*
X212356547Y-84127380D01*
X212118452Y-84127380D01*
X212023214Y-84079761D01*
X211975595Y-84032142D01*
%TO.C,U*%
X326452857Y-78384809D02*
X326490952Y-78270523D01*
X326529047Y-78232428D01*
X326605238Y-78194333D01*
X326719523Y-78194333D01*
X326795714Y-78232428D01*
X326833809Y-78270523D01*
X326871904Y-78346714D01*
X326871904Y-78651476D01*
X326071904Y-78651476D01*
X326071904Y-78384809D01*
X326110000Y-78308619D01*
X326148095Y-78270523D01*
X326224285Y-78232428D01*
X326300476Y-78232428D01*
X326376666Y-78270523D01*
X326414761Y-78308619D01*
X326452857Y-78384809D01*
X326452857Y-78651476D01*
X326071904Y-77927666D02*
X326071904Y-77432428D01*
X326376666Y-77699095D01*
X326376666Y-77584809D01*
X326414761Y-77508619D01*
X326452857Y-77470523D01*
X326529047Y-77432428D01*
X326719523Y-77432428D01*
X326795714Y-77470523D01*
X326833809Y-77508619D01*
X326871904Y-77584809D01*
X326871904Y-77813380D01*
X326833809Y-77889571D01*
X326795714Y-77927666D01*
X334491904Y-67729476D02*
X333691904Y-67729476D01*
X333691904Y-67539000D01*
X333730000Y-67424714D01*
X333806190Y-67348523D01*
X333882380Y-67310428D01*
X334034761Y-67272333D01*
X334149047Y-67272333D01*
X334301428Y-67310428D01*
X334377619Y-67348523D01*
X334453809Y-67424714D01*
X334491904Y-67539000D01*
X334491904Y-67729476D01*
X333958571Y-66586619D02*
X334491904Y-66586619D01*
X333653809Y-66777095D02*
X334225238Y-66967571D01*
X334225238Y-66472333D01*
X346430000Y-78670523D02*
X346391904Y-78746714D01*
X346391904Y-78861000D01*
X346430000Y-78975285D01*
X346506190Y-79051476D01*
X346582380Y-79089571D01*
X346734761Y-79127666D01*
X346849047Y-79127666D01*
X347001428Y-79089571D01*
X347077619Y-79051476D01*
X347153809Y-78975285D01*
X347191904Y-78861000D01*
X347191904Y-78784809D01*
X347153809Y-78670523D01*
X347115714Y-78632428D01*
X346849047Y-78632428D01*
X346849047Y-78784809D01*
X347191904Y-78289571D02*
X346391904Y-78289571D01*
X347191904Y-77832428D01*
X346391904Y-77832428D01*
X347191904Y-77451476D02*
X346391904Y-77451476D01*
X346391904Y-77261000D01*
X346430000Y-77146714D01*
X346506190Y-77070523D01*
X346582380Y-77032428D01*
X346734761Y-76994333D01*
X346849047Y-76994333D01*
X347001428Y-77032428D01*
X347077619Y-77070523D01*
X347153809Y-77146714D01*
X347191904Y-77261000D01*
X347191904Y-77451476D01*
X326452857Y-67691380D02*
X326452857Y-67424714D01*
X326871904Y-67310428D02*
X326871904Y-67691380D01*
X326071904Y-67691380D01*
X326071904Y-67310428D01*
X326071904Y-66624714D02*
X326071904Y-66777095D01*
X326110000Y-66853285D01*
X326148095Y-66891380D01*
X326262380Y-66967571D01*
X326414761Y-67005666D01*
X326719523Y-67005666D01*
X326795714Y-66967571D01*
X326833809Y-66929476D01*
X326871904Y-66853285D01*
X326871904Y-66700904D01*
X326833809Y-66624714D01*
X326795714Y-66586619D01*
X326719523Y-66548523D01*
X326529047Y-66548523D01*
X326452857Y-66586619D01*
X326414761Y-66624714D01*
X326376666Y-66700904D01*
X326376666Y-66853285D01*
X326414761Y-66929476D01*
X326452857Y-66967571D01*
X326529047Y-67005666D01*
X334072857Y-78327666D02*
X334072857Y-78594333D01*
X334491904Y-78594333D02*
X333691904Y-78594333D01*
X333691904Y-78213380D01*
X333691904Y-77565761D02*
X333691904Y-77718142D01*
X333730000Y-77794333D01*
X333768095Y-77832428D01*
X333882380Y-77908619D01*
X334034761Y-77946714D01*
X334339523Y-77946714D01*
X334415714Y-77908619D01*
X334453809Y-77870523D01*
X334491904Y-77794333D01*
X334491904Y-77641952D01*
X334453809Y-77565761D01*
X334415714Y-77527666D01*
X334339523Y-77489571D01*
X334149047Y-77489571D01*
X334072857Y-77527666D01*
X334034761Y-77565761D01*
X333996666Y-77641952D01*
X333996666Y-77794333D01*
X334034761Y-77870523D01*
X334072857Y-77908619D01*
X334149047Y-77946714D01*
X331875714Y-67272333D02*
X331913809Y-67310428D01*
X331951904Y-67424714D01*
X331951904Y-67500904D01*
X331913809Y-67615190D01*
X331837619Y-67691380D01*
X331761428Y-67729476D01*
X331609047Y-67767571D01*
X331494761Y-67767571D01*
X331342380Y-67729476D01*
X331266190Y-67691380D01*
X331190000Y-67615190D01*
X331151904Y-67500904D01*
X331151904Y-67424714D01*
X331190000Y-67310428D01*
X331228095Y-67272333D01*
X331151904Y-66586619D02*
X331151904Y-66739000D01*
X331190000Y-66815190D01*
X331228095Y-66853285D01*
X331342380Y-66929476D01*
X331494761Y-66967571D01*
X331799523Y-66967571D01*
X331875714Y-66929476D01*
X331913809Y-66891380D01*
X331951904Y-66815190D01*
X331951904Y-66662809D01*
X331913809Y-66586619D01*
X331875714Y-66548523D01*
X331799523Y-66510428D01*
X331609047Y-66510428D01*
X331532857Y-66548523D01*
X331494761Y-66586619D01*
X331456666Y-66662809D01*
X331456666Y-66815190D01*
X331494761Y-66891380D01*
X331532857Y-66929476D01*
X331609047Y-66967571D01*
X341311904Y-79127666D02*
X342111904Y-78861000D01*
X341311904Y-78594333D01*
X342035714Y-77870523D02*
X342073809Y-77908619D01*
X342111904Y-78022904D01*
X342111904Y-78099095D01*
X342073809Y-78213380D01*
X341997619Y-78289571D01*
X341921428Y-78327666D01*
X341769047Y-78365761D01*
X341654761Y-78365761D01*
X341502380Y-78327666D01*
X341426190Y-78289571D01*
X341350000Y-78213380D01*
X341311904Y-78099095D01*
X341311904Y-78022904D01*
X341350000Y-77908619D01*
X341388095Y-77870523D01*
X342035714Y-77070523D02*
X342073809Y-77108619D01*
X342111904Y-77222904D01*
X342111904Y-77299095D01*
X342073809Y-77413380D01*
X341997619Y-77489571D01*
X341921428Y-77527666D01*
X341769047Y-77565761D01*
X341654761Y-77565761D01*
X341502380Y-77527666D01*
X341426190Y-77489571D01*
X341350000Y-77413380D01*
X341311904Y-77299095D01*
X341311904Y-77222904D01*
X341350000Y-77108619D01*
X341388095Y-77070523D01*
X331532857Y-78327666D02*
X331532857Y-78594333D01*
X331951904Y-78594333D02*
X331151904Y-78594333D01*
X331151904Y-78213380D01*
X331151904Y-77984809D02*
X331151904Y-77451476D01*
X331951904Y-77794333D01*
X339152857Y-78327666D02*
X339152857Y-78594333D01*
X339571904Y-78594333D02*
X338771904Y-78594333D01*
X338771904Y-78213380D01*
X339038571Y-77565761D02*
X339571904Y-77565761D01*
X338733809Y-77756238D02*
X339305238Y-77946714D01*
X339305238Y-77451476D01*
X344643809Y-78866453D02*
X344681904Y-78752167D01*
X344681904Y-78561691D01*
X344643809Y-78485500D01*
X344605714Y-78447405D01*
X344529523Y-78409310D01*
X344453333Y-78409310D01*
X344377142Y-78447405D01*
X344339047Y-78485500D01*
X344300952Y-78561691D01*
X344262857Y-78714072D01*
X344224761Y-78790262D01*
X344186666Y-78828358D01*
X344110476Y-78866453D01*
X344034285Y-78866453D01*
X343958095Y-78828358D01*
X343920000Y-78790262D01*
X343881904Y-78714072D01*
X343881904Y-78523596D01*
X343920000Y-78409310D01*
X343881904Y-78180739D02*
X343881904Y-77723596D01*
X344681904Y-77952167D02*
X343881904Y-77952167D01*
X348931904Y-71218604D02*
X348931904Y-70761461D01*
X349731904Y-70990032D02*
X348931904Y-70990032D01*
X348931904Y-70570985D02*
X349731904Y-70037651D01*
X348931904Y-70037651D02*
X349731904Y-70570985D01*
X348931904Y-69580508D02*
X348931904Y-69504318D01*
X348970000Y-69428128D01*
X349008095Y-69390032D01*
X349084285Y-69351937D01*
X349236666Y-69313842D01*
X349427142Y-69313842D01*
X349579523Y-69351937D01*
X349655714Y-69390032D01*
X349693809Y-69428128D01*
X349731904Y-69504318D01*
X349731904Y-69580508D01*
X349693809Y-69656699D01*
X349655714Y-69694794D01*
X349579523Y-69732889D01*
X349427142Y-69770985D01*
X349236666Y-69770985D01*
X349084285Y-69732889D01*
X349008095Y-69694794D01*
X348970000Y-69656699D01*
X348931904Y-69580508D01*
X348893809Y-68399556D02*
X349922380Y-69085270D01*
X349731904Y-68132889D02*
X348931904Y-68132889D01*
X348931904Y-67942413D01*
X348970000Y-67828128D01*
X349046190Y-67751937D01*
X349122380Y-67713842D01*
X349274761Y-67675747D01*
X349389047Y-67675747D01*
X349541428Y-67713842D01*
X349617619Y-67751937D01*
X349693809Y-67828128D01*
X349731904Y-67942413D01*
X349731904Y-68132889D01*
X348931904Y-67409080D02*
X348931904Y-66913842D01*
X349236666Y-67180508D01*
X349236666Y-67066223D01*
X349274761Y-66990032D01*
X349312857Y-66951937D01*
X349389047Y-66913842D01*
X349579523Y-66913842D01*
X349655714Y-66951937D01*
X349693809Y-66990032D01*
X349731904Y-67066223D01*
X349731904Y-67294794D01*
X349693809Y-67370985D01*
X349655714Y-67409080D01*
X337031904Y-67729476D02*
X336231904Y-67729476D01*
X336231904Y-67539000D01*
X336270000Y-67424714D01*
X336346190Y-67348523D01*
X336422380Y-67310428D01*
X336574761Y-67272333D01*
X336689047Y-67272333D01*
X336841428Y-67310428D01*
X336917619Y-67348523D01*
X336993809Y-67424714D01*
X337031904Y-67539000D01*
X337031904Y-67729476D01*
X336231904Y-66777095D02*
X336231904Y-66700904D01*
X336270000Y-66624714D01*
X336308095Y-66586619D01*
X336384285Y-66548523D01*
X336536666Y-66510428D01*
X336727142Y-66510428D01*
X336879523Y-66548523D01*
X336955714Y-66586619D01*
X336993809Y-66624714D01*
X337031904Y-66700904D01*
X337031904Y-66777095D01*
X336993809Y-66853285D01*
X336955714Y-66891380D01*
X336879523Y-66929476D01*
X336727142Y-66967571D01*
X336536666Y-66967571D01*
X336384285Y-66929476D01*
X336308095Y-66891380D01*
X336270000Y-66853285D01*
X336231904Y-66777095D01*
X328992857Y-78384809D02*
X329030952Y-78270523D01*
X329069047Y-78232428D01*
X329145238Y-78194333D01*
X329259523Y-78194333D01*
X329335714Y-78232428D01*
X329373809Y-78270523D01*
X329411904Y-78346714D01*
X329411904Y-78651476D01*
X328611904Y-78651476D01*
X328611904Y-78384809D01*
X328650000Y-78308619D01*
X328688095Y-78270523D01*
X328764285Y-78232428D01*
X328840476Y-78232428D01*
X328916666Y-78270523D01*
X328954761Y-78308619D01*
X328992857Y-78384809D01*
X328992857Y-78651476D01*
X329411904Y-77432428D02*
X329411904Y-77889571D01*
X329411904Y-77661000D02*
X328611904Y-77661000D01*
X328726190Y-77737190D01*
X328802380Y-77813380D01*
X328840476Y-77889571D01*
X349731904Y-78613380D02*
X349350952Y-78880047D01*
X349731904Y-79070523D02*
X348931904Y-79070523D01*
X348931904Y-78765761D01*
X348970000Y-78689571D01*
X349008095Y-78651476D01*
X349084285Y-78613380D01*
X349198571Y-78613380D01*
X349274761Y-78651476D01*
X349312857Y-78689571D01*
X349350952Y-78765761D01*
X349350952Y-79070523D01*
X349503333Y-78308619D02*
X349503333Y-77927666D01*
X349731904Y-78384809D02*
X348931904Y-78118142D01*
X349731904Y-77851476D01*
X348931904Y-77661000D02*
X349731904Y-77470523D01*
X349160476Y-77318142D01*
X349731904Y-77165761D01*
X348931904Y-76975285D01*
X321372857Y-78384809D02*
X321410952Y-78270523D01*
X321449047Y-78232428D01*
X321525238Y-78194333D01*
X321639523Y-78194333D01*
X321715714Y-78232428D01*
X321753809Y-78270523D01*
X321791904Y-78346714D01*
X321791904Y-78651476D01*
X320991904Y-78651476D01*
X320991904Y-78384809D01*
X321030000Y-78308619D01*
X321068095Y-78270523D01*
X321144285Y-78232428D01*
X321220476Y-78232428D01*
X321296666Y-78270523D01*
X321334761Y-78308619D01*
X321372857Y-78384809D01*
X321372857Y-78651476D01*
X320991904Y-77508619D02*
X320991904Y-77661000D01*
X321030000Y-77737190D01*
X321068095Y-77775285D01*
X321182380Y-77851476D01*
X321334761Y-77889571D01*
X321639523Y-77889571D01*
X321715714Y-77851476D01*
X321753809Y-77813380D01*
X321791904Y-77737190D01*
X321791904Y-77584809D01*
X321753809Y-77508619D01*
X321715714Y-77470523D01*
X321639523Y-77432428D01*
X321449047Y-77432428D01*
X321372857Y-77470523D01*
X321334761Y-77508619D01*
X321296666Y-77584809D01*
X321296666Y-77737190D01*
X321334761Y-77813380D01*
X321372857Y-77851476D01*
X321449047Y-77889571D01*
X347191904Y-67729476D02*
X346391904Y-67729476D01*
X346391904Y-67539000D01*
X346430000Y-67424714D01*
X346506190Y-67348523D01*
X346582380Y-67310428D01*
X346734761Y-67272333D01*
X346849047Y-67272333D01*
X347001428Y-67310428D01*
X347077619Y-67348523D01*
X347153809Y-67424714D01*
X347191904Y-67539000D01*
X347191904Y-67729476D01*
X346468095Y-66967571D02*
X346430000Y-66929476D01*
X346391904Y-66853285D01*
X346391904Y-66662809D01*
X346430000Y-66586619D01*
X346468095Y-66548523D01*
X346544285Y-66510428D01*
X346620476Y-66510428D01*
X346734761Y-66548523D01*
X347191904Y-67005666D01*
X347191904Y-66510428D01*
X339571904Y-67729476D02*
X338771904Y-67729476D01*
X338771904Y-67539000D01*
X338810000Y-67424714D01*
X338886190Y-67348523D01*
X338962380Y-67310428D01*
X339114761Y-67272333D01*
X339229047Y-67272333D01*
X339381428Y-67310428D01*
X339457619Y-67348523D01*
X339533809Y-67424714D01*
X339571904Y-67539000D01*
X339571904Y-67729476D01*
X339571904Y-66510428D02*
X339571904Y-66967571D01*
X339571904Y-66739000D02*
X338771904Y-66739000D01*
X338886190Y-66815190D01*
X338962380Y-66891380D01*
X339000476Y-66967571D01*
X343890000Y-67748523D02*
X343851904Y-67824714D01*
X343851904Y-67939000D01*
X343890000Y-68053285D01*
X343966190Y-68129476D01*
X344042380Y-68167571D01*
X344194761Y-68205666D01*
X344309047Y-68205666D01*
X344461428Y-68167571D01*
X344537619Y-68129476D01*
X344613809Y-68053285D01*
X344651904Y-67939000D01*
X344651904Y-67862809D01*
X344613809Y-67748523D01*
X344575714Y-67710428D01*
X344309047Y-67710428D01*
X344309047Y-67862809D01*
X344651904Y-67367571D02*
X343851904Y-67367571D01*
X344651904Y-66910428D01*
X343851904Y-66910428D01*
X344651904Y-66529476D02*
X343851904Y-66529476D01*
X343851904Y-66339000D01*
X343890000Y-66224714D01*
X343966190Y-66148523D01*
X344042380Y-66110428D01*
X344194761Y-66072333D01*
X344309047Y-66072333D01*
X344461428Y-66110428D01*
X344537619Y-66148523D01*
X344613809Y-66224714D01*
X344651904Y-66339000D01*
X344651904Y-66529476D01*
X323912857Y-78384809D02*
X323950952Y-78270523D01*
X323989047Y-78232428D01*
X324065238Y-78194333D01*
X324179523Y-78194333D01*
X324255714Y-78232428D01*
X324293809Y-78270523D01*
X324331904Y-78346714D01*
X324331904Y-78651476D01*
X323531904Y-78651476D01*
X323531904Y-78384809D01*
X323570000Y-78308619D01*
X323608095Y-78270523D01*
X323684285Y-78232428D01*
X323760476Y-78232428D01*
X323836666Y-78270523D01*
X323874761Y-78308619D01*
X323912857Y-78384809D01*
X323912857Y-78651476D01*
X323608095Y-77889571D02*
X323570000Y-77851476D01*
X323531904Y-77775285D01*
X323531904Y-77584809D01*
X323570000Y-77508619D01*
X323608095Y-77470523D01*
X323684285Y-77432428D01*
X323760476Y-77432428D01*
X323874761Y-77470523D01*
X324331904Y-77927666D01*
X324331904Y-77432428D01*
X341350000Y-67748523D02*
X341311904Y-67824714D01*
X341311904Y-67939000D01*
X341350000Y-68053285D01*
X341426190Y-68129476D01*
X341502380Y-68167571D01*
X341654761Y-68205666D01*
X341769047Y-68205666D01*
X341921428Y-68167571D01*
X341997619Y-68129476D01*
X342073809Y-68053285D01*
X342111904Y-67939000D01*
X342111904Y-67862809D01*
X342073809Y-67748523D01*
X342035714Y-67710428D01*
X341769047Y-67710428D01*
X341769047Y-67862809D01*
X342111904Y-67367571D02*
X341311904Y-67367571D01*
X342111904Y-66910428D01*
X341311904Y-66910428D01*
X342111904Y-66529476D02*
X341311904Y-66529476D01*
X341311904Y-66339000D01*
X341350000Y-66224714D01*
X341426190Y-66148523D01*
X341502380Y-66110428D01*
X341654761Y-66072333D01*
X341769047Y-66072333D01*
X341921428Y-66110428D01*
X341997619Y-66148523D01*
X342073809Y-66224714D01*
X342111904Y-66339000D01*
X342111904Y-66529476D01*
X336612857Y-78327666D02*
X336612857Y-78594333D01*
X337031904Y-78594333D02*
X336231904Y-78594333D01*
X336231904Y-78213380D01*
X336231904Y-77527666D02*
X336231904Y-77908619D01*
X336612857Y-77946714D01*
X336574761Y-77908619D01*
X336536666Y-77832428D01*
X336536666Y-77641952D01*
X336574761Y-77565761D01*
X336612857Y-77527666D01*
X336689047Y-77489571D01*
X336879523Y-77489571D01*
X336955714Y-77527666D01*
X336993809Y-77565761D01*
X337031904Y-77641952D01*
X337031904Y-77832428D01*
X336993809Y-77908619D01*
X336955714Y-77946714D01*
X329411904Y-67729476D02*
X328611904Y-67729476D01*
X328611904Y-67539000D01*
X328650000Y-67424714D01*
X328726190Y-67348523D01*
X328802380Y-67310428D01*
X328954761Y-67272333D01*
X329069047Y-67272333D01*
X329221428Y-67310428D01*
X329297619Y-67348523D01*
X329373809Y-67424714D01*
X329411904Y-67539000D01*
X329411904Y-67729476D01*
X328611904Y-67005666D02*
X328611904Y-66472333D01*
X329411904Y-66815190D01*
X321372857Y-67462809D02*
X321410952Y-67348523D01*
X321449047Y-67310428D01*
X321525238Y-67272333D01*
X321639523Y-67272333D01*
X321715714Y-67310428D01*
X321753809Y-67348523D01*
X321791904Y-67424714D01*
X321791904Y-67729476D01*
X320991904Y-67729476D01*
X320991904Y-67462809D01*
X321030000Y-67386619D01*
X321068095Y-67348523D01*
X321144285Y-67310428D01*
X321220476Y-67310428D01*
X321296666Y-67348523D01*
X321334761Y-67386619D01*
X321372857Y-67462809D01*
X321372857Y-67729476D01*
X320991904Y-66548523D02*
X320991904Y-66929476D01*
X321372857Y-66967571D01*
X321334761Y-66929476D01*
X321296666Y-66853285D01*
X321296666Y-66662809D01*
X321334761Y-66586619D01*
X321372857Y-66548523D01*
X321449047Y-66510428D01*
X321639523Y-66510428D01*
X321715714Y-66548523D01*
X321753809Y-66586619D01*
X321791904Y-66662809D01*
X321791904Y-66853285D01*
X321753809Y-66929476D01*
X321715714Y-66967571D01*
X323912857Y-67462809D02*
X323950952Y-67348523D01*
X323989047Y-67310428D01*
X324065238Y-67272333D01*
X324179523Y-67272333D01*
X324255714Y-67310428D01*
X324293809Y-67348523D01*
X324331904Y-67424714D01*
X324331904Y-67729476D01*
X323531904Y-67729476D01*
X323531904Y-67462809D01*
X323570000Y-67386619D01*
X323608095Y-67348523D01*
X323684285Y-67310428D01*
X323760476Y-67310428D01*
X323836666Y-67348523D01*
X323874761Y-67386619D01*
X323912857Y-67462809D01*
X323912857Y-67729476D01*
X323798571Y-66586619D02*
X324331904Y-66586619D01*
X323493809Y-66777095D02*
X324065238Y-66967571D01*
X324065238Y-66472333D01*
%TO.C,SW64*%
X116059226Y-103129761D02*
X116202083Y-103177380D01*
X116440178Y-103177380D01*
X116535416Y-103129761D01*
X116583035Y-103082142D01*
X116630654Y-102986904D01*
X116630654Y-102891666D01*
X116583035Y-102796428D01*
X116535416Y-102748809D01*
X116440178Y-102701190D01*
X116249702Y-102653571D01*
X116154464Y-102605952D01*
X116106845Y-102558333D01*
X116059226Y-102463095D01*
X116059226Y-102367857D01*
X116106845Y-102272619D01*
X116154464Y-102225000D01*
X116249702Y-102177380D01*
X116487797Y-102177380D01*
X116630654Y-102225000D01*
X116963988Y-102177380D02*
X117202083Y-103177380D01*
X117392559Y-102463095D01*
X117583035Y-103177380D01*
X117821130Y-102177380D01*
X118630654Y-102177380D02*
X118440178Y-102177380D01*
X118344940Y-102225000D01*
X118297321Y-102272619D01*
X118202083Y-102415476D01*
X118154464Y-102605952D01*
X118154464Y-102986904D01*
X118202083Y-103082142D01*
X118249702Y-103129761D01*
X118344940Y-103177380D01*
X118535416Y-103177380D01*
X118630654Y-103129761D01*
X118678273Y-103082142D01*
X118725892Y-102986904D01*
X118725892Y-102748809D01*
X118678273Y-102653571D01*
X118630654Y-102605952D01*
X118535416Y-102558333D01*
X118344940Y-102558333D01*
X118249702Y-102605952D01*
X118202083Y-102653571D01*
X118154464Y-102748809D01*
X119583035Y-102510714D02*
X119583035Y-103177380D01*
X119344940Y-102129761D02*
X119106845Y-102844047D01*
X119725892Y-102844047D01*
%TO.C,SW25*%
X194640476Y-45979761D02*
X194783333Y-46027380D01*
X195021428Y-46027380D01*
X195116666Y-45979761D01*
X195164285Y-45932142D01*
X195211904Y-45836904D01*
X195211904Y-45741666D01*
X195164285Y-45646428D01*
X195116666Y-45598809D01*
X195021428Y-45551190D01*
X194830952Y-45503571D01*
X194735714Y-45455952D01*
X194688095Y-45408333D01*
X194640476Y-45313095D01*
X194640476Y-45217857D01*
X194688095Y-45122619D01*
X194735714Y-45075000D01*
X194830952Y-45027380D01*
X195069047Y-45027380D01*
X195211904Y-45075000D01*
X195545238Y-45027380D02*
X195783333Y-46027380D01*
X195973809Y-45313095D01*
X196164285Y-46027380D01*
X196402380Y-45027380D01*
X196735714Y-45122619D02*
X196783333Y-45075000D01*
X196878571Y-45027380D01*
X197116666Y-45027380D01*
X197211904Y-45075000D01*
X197259523Y-45122619D01*
X197307142Y-45217857D01*
X197307142Y-45313095D01*
X197259523Y-45455952D01*
X196688095Y-46027380D01*
X197307142Y-46027380D01*
X198211904Y-45027380D02*
X197735714Y-45027380D01*
X197688095Y-45503571D01*
X197735714Y-45455952D01*
X197830952Y-45408333D01*
X198069047Y-45408333D01*
X198164285Y-45455952D01*
X198211904Y-45503571D01*
X198259523Y-45598809D01*
X198259523Y-45836904D01*
X198211904Y-45932142D01*
X198164285Y-45979761D01*
X198069047Y-46027380D01*
X197830952Y-46027380D01*
X197735714Y-45979761D01*
X197688095Y-45932142D01*
%TO.C,SW18*%
X61290476Y-45979761D02*
X61433333Y-46027380D01*
X61671428Y-46027380D01*
X61766666Y-45979761D01*
X61814285Y-45932142D01*
X61861904Y-45836904D01*
X61861904Y-45741666D01*
X61814285Y-45646428D01*
X61766666Y-45598809D01*
X61671428Y-45551190D01*
X61480952Y-45503571D01*
X61385714Y-45455952D01*
X61338095Y-45408333D01*
X61290476Y-45313095D01*
X61290476Y-45217857D01*
X61338095Y-45122619D01*
X61385714Y-45075000D01*
X61480952Y-45027380D01*
X61719047Y-45027380D01*
X61861904Y-45075000D01*
X62195238Y-45027380D02*
X62433333Y-46027380D01*
X62623809Y-45313095D01*
X62814285Y-46027380D01*
X63052380Y-45027380D01*
X63957142Y-46027380D02*
X63385714Y-46027380D01*
X63671428Y-46027380D02*
X63671428Y-45027380D01*
X63576190Y-45170238D01*
X63480952Y-45265476D01*
X63385714Y-45313095D01*
X64528571Y-45455952D02*
X64433333Y-45408333D01*
X64385714Y-45360714D01*
X64338095Y-45265476D01*
X64338095Y-45217857D01*
X64385714Y-45122619D01*
X64433333Y-45075000D01*
X64528571Y-45027380D01*
X64719047Y-45027380D01*
X64814285Y-45075000D01*
X64861904Y-45122619D01*
X64909523Y-45217857D01*
X64909523Y-45265476D01*
X64861904Y-45360714D01*
X64814285Y-45408333D01*
X64719047Y-45455952D01*
X64528571Y-45455952D01*
X64433333Y-45503571D01*
X64385714Y-45551190D01*
X64338095Y-45646428D01*
X64338095Y-45836904D01*
X64385714Y-45932142D01*
X64433333Y-45979761D01*
X64528571Y-46027380D01*
X64719047Y-46027380D01*
X64814285Y-45979761D01*
X64861904Y-45932142D01*
X64909523Y-45836904D01*
X64909523Y-45646428D01*
X64861904Y-45551190D01*
X64814285Y-45503571D01*
X64719047Y-45455952D01*
%TO.C,SW3*%
X71291666Y-26929761D02*
X71434523Y-26977380D01*
X71672619Y-26977380D01*
X71767857Y-26929761D01*
X71815476Y-26882142D01*
X71863095Y-26786904D01*
X71863095Y-26691666D01*
X71815476Y-26596428D01*
X71767857Y-26548809D01*
X71672619Y-26501190D01*
X71482142Y-26453571D01*
X71386904Y-26405952D01*
X71339285Y-26358333D01*
X71291666Y-26263095D01*
X71291666Y-26167857D01*
X71339285Y-26072619D01*
X71386904Y-26025000D01*
X71482142Y-25977380D01*
X71720238Y-25977380D01*
X71863095Y-26025000D01*
X72196428Y-25977380D02*
X72434523Y-26977380D01*
X72625000Y-26263095D01*
X72815476Y-26977380D01*
X73053571Y-25977380D01*
X73339285Y-25977380D02*
X73958333Y-25977380D01*
X73625000Y-26358333D01*
X73767857Y-26358333D01*
X73863095Y-26405952D01*
X73910714Y-26453571D01*
X73958333Y-26548809D01*
X73958333Y-26786904D01*
X73910714Y-26882142D01*
X73863095Y-26929761D01*
X73767857Y-26977380D01*
X73482142Y-26977380D01*
X73386904Y-26929761D01*
X73339285Y-26882142D01*
D12*
%TO.C,SW11*%
X232125000Y-27425000D02*
X217925000Y-27425000D01*
X217925000Y-41625000D02*
X232125000Y-41625000D01*
X232125000Y-41625000D02*
X232125000Y-27425000D01*
X217925000Y-27425000D02*
X217925000Y-41625000D01*
%TO.C,SW51*%
X127437500Y-98775000D02*
X141637500Y-98775000D01*
X141637500Y-84575000D02*
X127437500Y-84575000D01*
X127437500Y-84575000D02*
X127437500Y-98775000D01*
X141637500Y-98775000D02*
X141637500Y-84575000D01*
%TO.C,SW33*%
X34568750Y-79725000D02*
X48768750Y-79725000D01*
X48768750Y-79725000D02*
X48768750Y-65525000D01*
X48768750Y-65525000D02*
X34568750Y-65525000D01*
X34568750Y-65525000D02*
X34568750Y-79725000D01*
%TO.C,SW19*%
X89250000Y-46475000D02*
X75050000Y-46475000D01*
X89250000Y-60675000D02*
X89250000Y-46475000D01*
X75050000Y-46475000D02*
X75050000Y-60675000D01*
X75050000Y-60675000D02*
X89250000Y-60675000D01*
%TO.C,SW34*%
X74962500Y-65525000D02*
X60762500Y-65525000D01*
X74962500Y-79725000D02*
X74962500Y-65525000D01*
X60762500Y-65525000D02*
X60762500Y-79725000D01*
X60762500Y-79725000D02*
X74962500Y-79725000D01*
%TO.C,SW62*%
X67818750Y-117825000D02*
X67818750Y-103625000D01*
X53618750Y-117825000D02*
X67818750Y-117825000D01*
X53618750Y-103625000D02*
X53618750Y-117825000D01*
X67818750Y-103625000D02*
X53618750Y-103625000D01*
%TO.C,SW7*%
X155925000Y-27425000D02*
X141725000Y-27425000D01*
X155925000Y-41625000D02*
X155925000Y-27425000D01*
X141725000Y-27425000D02*
X141725000Y-41625000D01*
X141725000Y-41625000D02*
X155925000Y-41625000D01*
%TO.C,SW36*%
X98862500Y-65525000D02*
X98862500Y-79725000D01*
X98862500Y-79725000D02*
X113062500Y-79725000D01*
X113062500Y-79725000D02*
X113062500Y-65525000D01*
X113062500Y-65525000D02*
X98862500Y-65525000D01*
%TO.C,SW29*%
X265550000Y-60675000D02*
X279750000Y-60675000D01*
X279750000Y-60675000D02*
X279750000Y-46475000D01*
X265550000Y-46475000D02*
X265550000Y-60675000D01*
X279750000Y-46475000D02*
X265550000Y-46475000D01*
%TO.C,SW39*%
X170212500Y-65525000D02*
X156012500Y-65525000D01*
X156012500Y-65525000D02*
X156012500Y-79725000D01*
X170212500Y-79725000D02*
X170212500Y-65525000D01*
X156012500Y-79725000D02*
X170212500Y-79725000D01*
%TO.C,SW32*%
X336987500Y-60675000D02*
X351187500Y-60675000D01*
X351187500Y-60675000D02*
X351187500Y-46475000D01*
X351187500Y-46475000D02*
X336987500Y-46475000D01*
X336987500Y-46475000D02*
X336987500Y-60675000D01*
%TO.C,SW65*%
X141725000Y-117825000D02*
X155925000Y-117825000D01*
X155925000Y-117825000D02*
X155925000Y-103625000D01*
X155925000Y-103625000D02*
X141725000Y-103625000D01*
X141725000Y-103625000D02*
X141725000Y-117825000D01*
%TO.C,SW52*%
X160687500Y-98775000D02*
X160687500Y-84575000D01*
X160687500Y-84575000D02*
X146487500Y-84575000D01*
X146487500Y-84575000D02*
X146487500Y-98775000D01*
X146487500Y-98775000D02*
X160687500Y-98775000D01*
%TO.C,SW48*%
X84487500Y-98775000D02*
X84487500Y-84575000D01*
X70287500Y-98775000D02*
X84487500Y-98775000D01*
X84487500Y-84575000D02*
X70287500Y-84575000D01*
X70287500Y-84575000D02*
X70287500Y-98775000D01*
%TO.C,SW43*%
X232212500Y-79725000D02*
X246412500Y-79725000D01*
X246412500Y-65525000D02*
X232212500Y-65525000D01*
X246412500Y-79725000D02*
X246412500Y-65525000D01*
X232212500Y-65525000D02*
X232212500Y-79725000D01*
%TO.C,SW71*%
X317937500Y-103625000D02*
X317937500Y-117825000D01*
X317937500Y-117825000D02*
X332137500Y-117825000D01*
X332137500Y-117825000D02*
X332137500Y-103625000D01*
X332137500Y-103625000D02*
X317937500Y-103625000D01*
%TO.C,SW54*%
X184587500Y-84575000D02*
X184587500Y-98775000D01*
X198787500Y-98775000D02*
X198787500Y-84575000D01*
X198787500Y-84575000D02*
X184587500Y-84575000D01*
X184587500Y-98775000D02*
X198787500Y-98775000D01*
%TO.C,SW22*%
X146400000Y-46475000D02*
X132200000Y-46475000D01*
X132200000Y-60675000D02*
X146400000Y-60675000D01*
X146400000Y-60675000D02*
X146400000Y-46475000D01*
X132200000Y-46475000D02*
X132200000Y-60675000D01*
%TO.C,SW44*%
X251262500Y-65525000D02*
X251262500Y-79725000D01*
X265462500Y-79725000D02*
X265462500Y-65525000D01*
X265462500Y-65525000D02*
X251262500Y-65525000D01*
X251262500Y-79725000D02*
X265462500Y-79725000D01*
%TO.C,SW16*%
X351187500Y-41625000D02*
X351187500Y-27425000D01*
X351187500Y-27425000D02*
X336987500Y-27425000D01*
X336987500Y-41625000D02*
X351187500Y-41625000D01*
X336987500Y-27425000D02*
X336987500Y-41625000D01*
%TO.C,SW14*%
X284600000Y-27425000D02*
X284600000Y-41625000D01*
X298800000Y-41625000D02*
X298800000Y-27425000D01*
X284600000Y-41625000D02*
X298800000Y-41625000D01*
X298800000Y-27425000D02*
X284600000Y-27425000D01*
%TO.C,SW5*%
X117825000Y-27425000D02*
X103625000Y-27425000D01*
X103625000Y-41625000D02*
X117825000Y-41625000D01*
X103625000Y-27425000D02*
X103625000Y-41625000D01*
X117825000Y-41625000D02*
X117825000Y-27425000D01*
%TO.C,SW31*%
X317937500Y-60675000D02*
X332137500Y-60675000D01*
X332137500Y-60675000D02*
X332137500Y-46475000D01*
X317937500Y-46475000D02*
X317937500Y-60675000D01*
X332137500Y-46475000D02*
X317937500Y-46475000D01*
%TO.C,SW4*%
X98775000Y-27425000D02*
X84575000Y-27425000D01*
X84575000Y-41625000D02*
X98775000Y-41625000D01*
X84575000Y-27425000D02*
X84575000Y-41625000D01*
X98775000Y-41625000D02*
X98775000Y-27425000D01*
%TO.C,SW40*%
X175062500Y-79725000D02*
X189262500Y-79725000D01*
X175062500Y-65525000D02*
X175062500Y-79725000D01*
X189262500Y-65525000D02*
X175062500Y-65525000D01*
X189262500Y-79725000D02*
X189262500Y-65525000D01*
%TO.C,SW53*%
X165537500Y-84575000D02*
X165537500Y-98775000D01*
X179737500Y-84575000D02*
X165537500Y-84575000D01*
X165537500Y-98775000D02*
X179737500Y-98775000D01*
X179737500Y-98775000D02*
X179737500Y-84575000D01*
%TO.C,SW28*%
X246500000Y-46475000D02*
X246500000Y-60675000D01*
X260700000Y-46475000D02*
X246500000Y-46475000D01*
X246500000Y-60675000D02*
X260700000Y-60675000D01*
X260700000Y-60675000D02*
X260700000Y-46475000D01*
%TO.C,SW35*%
X94012500Y-79725000D02*
X94012500Y-65525000D01*
X94012500Y-65525000D02*
X79812500Y-65525000D01*
X79812500Y-65525000D02*
X79812500Y-79725000D01*
X79812500Y-79725000D02*
X94012500Y-79725000D01*
%TO.C,SW23*%
X165450000Y-46475000D02*
X151250000Y-46475000D01*
X165450000Y-60675000D02*
X165450000Y-46475000D01*
X151250000Y-46475000D02*
X151250000Y-60675000D01*
X151250000Y-60675000D02*
X165450000Y-60675000D01*
%TO.C,SW6*%
X136875000Y-27425000D02*
X122675000Y-27425000D01*
X136875000Y-41625000D02*
X136875000Y-27425000D01*
X122675000Y-27425000D02*
X122675000Y-41625000D01*
X122675000Y-41625000D02*
X136875000Y-41625000D01*
%TO.C,SW66*%
X177443750Y-103625000D02*
X177443750Y-117825000D01*
X191643750Y-117825000D02*
X191643750Y-103625000D01*
X177443750Y-117825000D02*
X191643750Y-117825000D01*
X191643750Y-103625000D02*
X177443750Y-103625000D01*
%TO.C,SW56*%
X222687500Y-98775000D02*
X236887500Y-98775000D01*
X222687500Y-84575000D02*
X222687500Y-98775000D01*
X236887500Y-98775000D02*
X236887500Y-84575000D01*
X236887500Y-84575000D02*
X222687500Y-84575000D01*
%TO.C,SW50*%
X108387500Y-98775000D02*
X122587500Y-98775000D01*
X122587500Y-98775000D02*
X122587500Y-84575000D01*
X122587500Y-84575000D02*
X108387500Y-84575000D01*
X108387500Y-84575000D02*
X108387500Y-98775000D01*
%TO.C,SW46*%
X29806250Y-84575000D02*
X29806250Y-98775000D01*
X44006250Y-84575000D02*
X29806250Y-84575000D01*
X44006250Y-98775000D02*
X44006250Y-84575000D01*
X29806250Y-98775000D02*
X44006250Y-98775000D01*
%TO.C,SW72*%
X351187500Y-103625000D02*
X336987500Y-103625000D01*
X336987500Y-103625000D02*
X336987500Y-117825000D01*
X351187500Y-117825000D02*
X351187500Y-103625000D01*
X336987500Y-117825000D02*
X351187500Y-117825000D01*
%TO.C,SW61*%
X44006250Y-117825000D02*
X44006250Y-103625000D01*
X44006250Y-103625000D02*
X29806250Y-103625000D01*
X29806250Y-103625000D02*
X29806250Y-117825000D01*
X29806250Y-117825000D02*
X44006250Y-117825000D01*
%TO.C,SW30*%
X305943750Y-56000000D02*
X291743750Y-56000000D01*
X305943750Y-70200000D02*
X305943750Y-56000000D01*
X291743750Y-56000000D02*
X291743750Y-70200000D01*
X291743750Y-70200000D02*
X305943750Y-70200000D01*
%TO.C,SW2*%
X60675000Y-27425000D02*
X46475000Y-27425000D01*
X60675000Y-41625000D02*
X60675000Y-27425000D01*
X46475000Y-27425000D02*
X46475000Y-41625000D01*
X46475000Y-41625000D02*
X60675000Y-41625000D01*
%TO.C,SW42*%
X213162500Y-65525000D02*
X213162500Y-79725000D01*
X213162500Y-79725000D02*
X227362500Y-79725000D01*
X227362500Y-79725000D02*
X227362500Y-65525000D01*
X227362500Y-65525000D02*
X213162500Y-65525000D01*
%TO.C,SW47*%
X51237500Y-84575000D02*
X51237500Y-98775000D01*
X51237500Y-98775000D02*
X65437500Y-98775000D01*
X65437500Y-98775000D02*
X65437500Y-84575000D01*
X65437500Y-84575000D02*
X51237500Y-84575000D01*
%TO.C,SW13*%
X270225000Y-41625000D02*
X270225000Y-27425000D01*
X256025000Y-41625000D02*
X270225000Y-41625000D01*
X256025000Y-27425000D02*
X256025000Y-41625000D01*
X270225000Y-27425000D02*
X256025000Y-27425000D01*
%TO.C,SW70*%
X313087500Y-117825000D02*
X313087500Y-103625000D01*
X313087500Y-103625000D02*
X298887500Y-103625000D01*
X298887500Y-117825000D02*
X313087500Y-117825000D01*
X298887500Y-103625000D02*
X298887500Y-117825000D01*
%TO.C,SW45*%
X284512500Y-65525000D02*
X270312500Y-65525000D01*
X270312500Y-79725000D02*
X284512500Y-79725000D01*
X270312500Y-65525000D02*
X270312500Y-79725000D01*
X284512500Y-79725000D02*
X284512500Y-65525000D01*
%TO.C,SW41*%
X208312500Y-65525000D02*
X194112500Y-65525000D01*
X208312500Y-79725000D02*
X208312500Y-65525000D01*
X194112500Y-65525000D02*
X194112500Y-79725000D01*
X194112500Y-79725000D02*
X208312500Y-79725000D01*
%TO.C,SW69*%
X277368750Y-103625000D02*
X263168750Y-103625000D01*
X263168750Y-103625000D02*
X263168750Y-117825000D01*
X277368750Y-117825000D02*
X277368750Y-103625000D01*
X263168750Y-117825000D02*
X277368750Y-117825000D01*
%TO.C,SW17*%
X46387500Y-60675000D02*
X46387500Y-46475000D01*
X32187500Y-46475000D02*
X32187500Y-60675000D01*
X46387500Y-46475000D02*
X32187500Y-46475000D01*
X32187500Y-60675000D02*
X46387500Y-60675000D01*
%TO.C,SW67*%
X215543750Y-117825000D02*
X229743750Y-117825000D01*
X229743750Y-117825000D02*
X229743750Y-103625000D01*
X229743750Y-103625000D02*
X215543750Y-103625000D01*
X215543750Y-103625000D02*
X215543750Y-117825000D01*
%TO.C,SW57*%
X255937500Y-84575000D02*
X241737500Y-84575000D01*
X255937500Y-98775000D02*
X255937500Y-84575000D01*
X241737500Y-98775000D02*
X255937500Y-98775000D01*
X241737500Y-84575000D02*
X241737500Y-98775000D01*
%TO.C,SW68*%
X239356250Y-117825000D02*
X253556250Y-117825000D01*
X253556250Y-103625000D02*
X239356250Y-103625000D01*
X253556250Y-117825000D02*
X253556250Y-103625000D01*
X239356250Y-103625000D02*
X239356250Y-117825000D01*
%TO.C,SW58*%
X282131250Y-98775000D02*
X282131250Y-84575000D01*
X282131250Y-84575000D02*
X267931250Y-84575000D01*
X267931250Y-98775000D02*
X282131250Y-98775000D01*
X267931250Y-84575000D02*
X267931250Y-98775000D01*
%TO.C,SW59*%
X294125000Y-84575000D02*
X294125000Y-98775000D01*
X308325000Y-84575000D02*
X294125000Y-84575000D01*
X308325000Y-98775000D02*
X308325000Y-84575000D01*
X294125000Y-98775000D02*
X308325000Y-98775000D01*
%TO.C,SW38*%
X151162500Y-79725000D02*
X151162500Y-65525000D01*
X136962500Y-79725000D02*
X151162500Y-79725000D01*
X136962500Y-65525000D02*
X136962500Y-79725000D01*
X151162500Y-65525000D02*
X136962500Y-65525000D01*
%TO.C,SW37*%
X117912500Y-79725000D02*
X132112500Y-79725000D01*
X132112500Y-79725000D02*
X132112500Y-65525000D01*
X117912500Y-65525000D02*
X117912500Y-79725000D01*
X132112500Y-65525000D02*
X117912500Y-65525000D01*
%TO.C,SW20*%
X108300000Y-46475000D02*
X94100000Y-46475000D01*
X94100000Y-46475000D02*
X94100000Y-60675000D01*
X94100000Y-60675000D02*
X108300000Y-60675000D01*
X108300000Y-60675000D02*
X108300000Y-46475000D01*
%TO.C,SW9*%
X194025000Y-41625000D02*
X194025000Y-27425000D01*
X179825000Y-41625000D02*
X194025000Y-41625000D01*
X179825000Y-27425000D02*
X179825000Y-41625000D01*
X194025000Y-27425000D02*
X179825000Y-27425000D01*
%TO.C,SW27*%
X241650000Y-46475000D02*
X227450000Y-46475000D01*
X241650000Y-60675000D02*
X241650000Y-46475000D01*
X227450000Y-46475000D02*
X227450000Y-60675000D01*
X227450000Y-60675000D02*
X241650000Y-60675000D01*
%TO.C,SW1*%
X27425000Y-41625000D02*
X41625000Y-41625000D01*
X41625000Y-27425000D02*
X27425000Y-27425000D01*
X27425000Y-27425000D02*
X27425000Y-41625000D01*
X41625000Y-41625000D02*
X41625000Y-27425000D01*
%TO.C,SW26*%
X208400000Y-60675000D02*
X222600000Y-60675000D01*
X222600000Y-60675000D02*
X222600000Y-46475000D01*
X208400000Y-46475000D02*
X208400000Y-60675000D01*
X222600000Y-46475000D02*
X208400000Y-46475000D01*
%TO.C,SW10*%
X213075000Y-27425000D02*
X198875000Y-27425000D01*
X198875000Y-27425000D02*
X198875000Y-41625000D01*
X213075000Y-41625000D02*
X213075000Y-27425000D01*
X198875000Y-41625000D02*
X213075000Y-41625000D01*
%TO.C,SW12*%
X236975000Y-41625000D02*
X251175000Y-41625000D01*
X251175000Y-27425000D02*
X236975000Y-27425000D01*
X251175000Y-41625000D02*
X251175000Y-27425000D01*
X236975000Y-27425000D02*
X236975000Y-41625000D01*
%TO.C,SW21*%
X127350000Y-46475000D02*
X113150000Y-46475000D01*
X127350000Y-60675000D02*
X127350000Y-46475000D01*
X113150000Y-60675000D02*
X127350000Y-60675000D01*
X113150000Y-46475000D02*
X113150000Y-60675000D01*
%TO.C,SW49*%
X89337500Y-98775000D02*
X103537500Y-98775000D01*
X89337500Y-84575000D02*
X89337500Y-98775000D01*
X103537500Y-98775000D02*
X103537500Y-84575000D01*
X103537500Y-84575000D02*
X89337500Y-84575000D01*
%TO.C,SW15*%
X317937500Y-41625000D02*
X332137500Y-41625000D01*
X317937500Y-27425000D02*
X317937500Y-41625000D01*
X332137500Y-27425000D02*
X317937500Y-27425000D01*
X332137500Y-41625000D02*
X332137500Y-27425000D01*
%TO.C,SW63*%
X77431250Y-103625000D02*
X77431250Y-117825000D01*
X91631250Y-103625000D02*
X77431250Y-103625000D01*
X77431250Y-117825000D02*
X91631250Y-117825000D01*
X91631250Y-117825000D02*
X91631250Y-103625000D01*
%TO.C,SW8*%
X160775000Y-41625000D02*
X174975000Y-41625000D01*
X174975000Y-27425000D02*
X160775000Y-27425000D01*
X160775000Y-27425000D02*
X160775000Y-41625000D01*
X174975000Y-41625000D02*
X174975000Y-27425000D01*
%TO.C,SW60*%
X332137500Y-98775000D02*
X332137500Y-84575000D01*
X317937500Y-98775000D02*
X332137500Y-98775000D01*
X317937500Y-84575000D02*
X317937500Y-98775000D01*
X332137500Y-84575000D02*
X317937500Y-84575000D01*
%TO.C,SW24*%
X170300000Y-60675000D02*
X184500000Y-60675000D01*
X184500000Y-60675000D02*
X184500000Y-46475000D01*
X184500000Y-46475000D02*
X170300000Y-46475000D01*
X170300000Y-46475000D02*
X170300000Y-60675000D01*
%TO.C,SW55*%
X217837500Y-98775000D02*
X217837500Y-84575000D01*
X203637500Y-84575000D02*
X203637500Y-98775000D01*
X203637500Y-98775000D02*
X217837500Y-98775000D01*
X217837500Y-84575000D02*
X203637500Y-84575000D01*
D11*
%TO.C,U*%
X344760640Y-77531568D02*
X344460640Y-77531568D01*
X344460640Y-77531568D02*
X344460640Y-77431568D01*
X344460640Y-77431568D02*
X344760640Y-77431568D01*
X344760640Y-77431568D02*
X344760640Y-77531568D01*
G36*
X344760640Y-77531568D02*
G01*
X344460640Y-77531568D01*
X344460640Y-77431568D01*
X344760640Y-77431568D01*
X344760640Y-77531568D01*
G37*
X344760640Y-77531568D02*
X344460640Y-77531568D01*
X344460640Y-77431568D01*
X344760640Y-77431568D01*
X344760640Y-77531568D01*
X344160640Y-77531568D02*
X343960640Y-77531568D01*
X343960640Y-77531568D02*
X343960640Y-77431568D01*
X343960640Y-77431568D02*
X344160640Y-77431568D01*
X344160640Y-77431568D02*
X344160640Y-77531568D01*
G36*
X344160640Y-77531568D02*
G01*
X343960640Y-77531568D01*
X343960640Y-77431568D01*
X344160640Y-77431568D01*
X344160640Y-77531568D01*
G37*
X344160640Y-77531568D02*
X343960640Y-77531568D01*
X343960640Y-77431568D01*
X344160640Y-77431568D01*
X344160640Y-77531568D01*
X344760640Y-77531568D02*
X344660640Y-77531568D01*
X344660640Y-77531568D02*
X344660640Y-77031568D01*
X344660640Y-77031568D02*
X344760640Y-77031568D01*
X344760640Y-77031568D02*
X344760640Y-77531568D01*
G36*
X344760640Y-77531568D02*
G01*
X344660640Y-77531568D01*
X344660640Y-77031568D01*
X344760640Y-77031568D01*
X344760640Y-77531568D01*
G37*
X344760640Y-77531568D02*
X344660640Y-77531568D01*
X344660640Y-77031568D01*
X344760640Y-77031568D01*
X344760640Y-77531568D01*
X344360640Y-77331568D02*
X344260640Y-77331568D01*
X344260640Y-77331568D02*
X344260640Y-77231568D01*
X344260640Y-77231568D02*
X344360640Y-77231568D01*
X344360640Y-77231568D02*
X344360640Y-77331568D01*
G36*
X344360640Y-77331568D02*
G01*
X344260640Y-77331568D01*
X344260640Y-77231568D01*
X344360640Y-77231568D01*
X344360640Y-77331568D01*
G37*
X344360640Y-77331568D02*
X344260640Y-77331568D01*
X344260640Y-77231568D01*
X344360640Y-77231568D01*
X344360640Y-77331568D01*
X344760640Y-77131568D02*
X343960640Y-77131568D01*
X343960640Y-77131568D02*
X343960640Y-77031568D01*
X343960640Y-77031568D02*
X344760640Y-77031568D01*
X344760640Y-77031568D02*
X344760640Y-77131568D01*
G36*
X344760640Y-77131568D02*
G01*
X343960640Y-77131568D01*
X343960640Y-77031568D01*
X344760640Y-77031568D01*
X344760640Y-77131568D01*
G37*
X344760640Y-77131568D02*
X343960640Y-77131568D01*
X343960640Y-77031568D01*
X344760640Y-77031568D01*
X344760640Y-77131568D01*
D13*
X350640000Y-81490000D02*
X353180000Y-81490000D01*
X350640000Y-66250000D02*
X350640000Y-63710000D01*
X320160000Y-63710000D02*
X320160000Y-81490000D01*
X353180000Y-81490000D02*
X353180000Y-63710000D01*
X353180000Y-63710000D02*
X350640000Y-63710000D01*
X350640000Y-66250000D02*
X348100000Y-66250000D01*
X350640000Y-63710000D02*
X320160000Y-63710000D01*
X320160000Y-81490000D02*
X350640000Y-81490000D01*
X348100000Y-66250000D02*
X348100000Y-63710000D01*
D12*
%TO.C,SW64*%
X110768750Y-117825000D02*
X124968750Y-117825000D01*
X110768750Y-103625000D02*
X110768750Y-117825000D01*
X124968750Y-103625000D02*
X110768750Y-103625000D01*
X124968750Y-117825000D02*
X124968750Y-103625000D01*
%TO.C,SW25*%
X189350000Y-60675000D02*
X203550000Y-60675000D01*
X203550000Y-46475000D02*
X189350000Y-46475000D01*
X189350000Y-46475000D02*
X189350000Y-60675000D01*
X203550000Y-60675000D02*
X203550000Y-46475000D01*
%TO.C,SW18*%
X56000000Y-60675000D02*
X70200000Y-60675000D01*
X56000000Y-46475000D02*
X56000000Y-60675000D01*
X70200000Y-60675000D02*
X70200000Y-46475000D01*
X70200000Y-46475000D02*
X56000000Y-46475000D01*
%TO.C,SW3*%
X65525000Y-27425000D02*
X65525000Y-41625000D01*
X65525000Y-41625000D02*
X79725000Y-41625000D01*
X79725000Y-41625000D02*
X79725000Y-27425000D01*
X79725000Y-27425000D02*
X65525000Y-27425000D01*
%TD*%
D14*
%TO.C,U*%
X349370000Y-80220000D03*
X346830000Y-80220000D03*
X344290000Y-80220000D03*
X341750000Y-80220000D03*
X339210000Y-80220000D03*
X336670000Y-80220000D03*
X334130000Y-80220000D03*
X331590000Y-80220000D03*
X329050000Y-80220000D03*
X326510000Y-80220000D03*
X323970000Y-80220000D03*
X321430000Y-80220000D03*
X321430000Y-64980000D03*
X323970000Y-64980000D03*
X326510000Y-64980000D03*
X329050000Y-64980000D03*
X331590000Y-64980000D03*
X334130000Y-64980000D03*
X336670000Y-64980000D03*
X339210000Y-64980000D03*
X341750000Y-64980000D03*
X344290000Y-64980000D03*
X346830000Y-64980000D03*
D15*
X349370000Y-64980000D03*
%TD*%
M02*
