G04 #@! TF.GenerationSoftware,KiCad,Pcbnew,(6.0.2-0)*
G04 #@! TF.CreationDate,2022-03-14T13:33:36+01:00*
G04 #@! TF.ProjectId,lasercut,6c617365-7263-4757-942e-6b696361645f,rev?*
G04 #@! TF.SameCoordinates,Original*
G04 #@! TF.FileFunction,Copper,L1,Top*
G04 #@! TF.FilePolarity,Positive*
%FSLAX46Y46*%
G04 Gerber Fmt 4.6, Leading zero omitted, Abs format (unit mm)*
G04 Created by KiCad (PCBNEW (6.0.2-0)) date 2022-03-14 13:33:36*
%MOMM*%
%LPD*%
G01*
G04 APERTURE LIST*
G04 #@! TA.AperFunction,Profile*
%ADD10C,0.200000*%
G04 #@! TD*
G04 #@! TA.AperFunction,ComponentPad*
%ADD11C,1.400000*%
G04 #@! TD*
G04 #@! TA.AperFunction,ComponentPad*
%ADD12R,1.700000X1.700000*%
G04 #@! TD*
G04 #@! TA.AperFunction,ComponentPad*
%ADD13O,1.700000X1.700000*%
G04 #@! TD*
G04 #@! TA.AperFunction,ComponentPad*
%ADD14C,3.600000*%
G04 #@! TD*
G04 #@! TA.AperFunction,ComponentPad*
%ADD15C,1.752600*%
G04 #@! TD*
G04 #@! TA.AperFunction,ComponentPad*
%ADD16R,1.752600X1.752600*%
G04 #@! TD*
G04 #@! TA.AperFunction,ViaPad*
%ADD17C,0.800000*%
G04 #@! TD*
G04 #@! TA.AperFunction,Conductor*
%ADD18C,0.350000*%
G04 #@! TD*
G04 #@! TA.AperFunction,Conductor*
%ADD19C,0.250000*%
G04 #@! TD*
G04 APERTURE END LIST*
D10*
X356581000Y-125053620D02*
X356354000Y-125117010D01*
X22805240Y-125190040D02*
X22570990Y-125163860D01*
X358646000Y-122435340D02*
X358617000Y-122669620D01*
X357015000Y-124873100D02*
X356802000Y-124970930D01*
X20050540Y-122435340D02*
X20039530Y-122199680D01*
X356354000Y-125117010D02*
X356122000Y-125163860D01*
X358571000Y-122899730D02*
X358506000Y-123127100D01*
X358617000Y-122669620D02*
X358571000Y-122899730D01*
X23040890Y-19947690D02*
X355654000Y-19949690D01*
X358327000Y-21587690D02*
X358426000Y-21799690D01*
X358506000Y-123127100D02*
X358426000Y-123348960D01*
X20123600Y-122899730D02*
X20076710Y-122669620D01*
X21891610Y-20177690D02*
X22113480Y-20095690D01*
X358617000Y-22479690D02*
X358646000Y-22713690D01*
X358327000Y-123561190D02*
X358212000Y-123767880D01*
X20040910Y-22949690D02*
X20050540Y-22713690D01*
X22339470Y-20031690D02*
X22570990Y-19984690D01*
X357221000Y-20391690D02*
X357416000Y-20520690D01*
X20483260Y-123767880D02*
X20367510Y-123561190D01*
X356802000Y-20177690D02*
X357015000Y-20275690D01*
X20076710Y-122669620D02*
X20050540Y-122435340D01*
X355890000Y-19958690D02*
X356122000Y-19984690D01*
X20186960Y-22021690D02*
X20269650Y-21799690D01*
X358212000Y-21380690D02*
X358327000Y-21587690D01*
X22570990Y-125163860D02*
X22339470Y-125117010D01*
X20612800Y-123963570D02*
X20483260Y-123767880D01*
X357221000Y-124757320D02*
X357015000Y-124873100D01*
X20269650Y-21799690D02*
X20367510Y-21587690D01*
X20918720Y-124321890D02*
X20758850Y-124148250D01*
X358571000Y-22247690D02*
X358617000Y-22479690D01*
X20612800Y-21185690D02*
X20758850Y-21000690D01*
X20269650Y-123348960D02*
X20186960Y-123127100D01*
X21092360Y-124481730D02*
X20918720Y-124321890D01*
X356581000Y-20095690D02*
X356802000Y-20177690D01*
X358212000Y-123767880D02*
X358080000Y-123963570D01*
X20050540Y-22713690D02*
X20076710Y-22479690D01*
X20918720Y-20826690D02*
X21092360Y-20667690D01*
X358654000Y-122199680D02*
X358646000Y-122435340D01*
X22113480Y-20095690D02*
X22339470Y-20031690D01*
X357934000Y-21000690D02*
X358080000Y-21185690D01*
X20758850Y-21000690D02*
X20918720Y-20826690D01*
X358654000Y-22949690D02*
X358654000Y-122199680D01*
X356354000Y-20031690D02*
X356581000Y-20095690D01*
X21277010Y-124627780D02*
X21092360Y-124481730D01*
X21277010Y-20520690D02*
X21472690Y-20391690D01*
X21891610Y-124970930D02*
X21679380Y-124873100D01*
X20186960Y-123127100D02*
X20123600Y-122899730D01*
X20758850Y-124148250D02*
X20612800Y-123963570D01*
X20039530Y-122199680D02*
X20040910Y-22949690D01*
X358426000Y-123348960D02*
X358327000Y-123561190D01*
X357602000Y-20667690D02*
X357775000Y-20826690D01*
X23040890Y-125199670D02*
X22805240Y-125190040D01*
X356122000Y-19984690D02*
X356354000Y-20031690D01*
X21472690Y-124757320D02*
X21277010Y-124627780D01*
X358080000Y-21185690D02*
X358212000Y-21380690D01*
X20367510Y-123561190D02*
X20269650Y-123348960D01*
X357416000Y-124627780D02*
X357221000Y-124757320D01*
X355654000Y-125199670D02*
X23040890Y-125199670D01*
X356802000Y-124970930D02*
X356581000Y-125053620D01*
X356122000Y-125163860D02*
X355890000Y-125190040D01*
X355890000Y-125190040D02*
X355654000Y-125199670D01*
X22113480Y-125053620D02*
X21891610Y-124970930D01*
X357602000Y-124481730D02*
X357416000Y-124627780D01*
X20076710Y-22479690D02*
X20123600Y-22247690D01*
X21472690Y-20391690D02*
X21679380Y-20275690D01*
X20483260Y-21380690D02*
X20612800Y-21185690D01*
X357775000Y-124321890D02*
X357602000Y-124481730D01*
X21092360Y-20667690D02*
X21277010Y-20520690D01*
X21679380Y-20275690D02*
X21891610Y-20177690D01*
X22570990Y-19984690D02*
X22805240Y-19958690D01*
X357416000Y-20520690D02*
X357602000Y-20667690D01*
X22339470Y-125117010D02*
X22113480Y-125053620D01*
X357015000Y-20275690D02*
X357221000Y-20391690D01*
X357775000Y-20826690D02*
X357934000Y-21000690D01*
X358426000Y-21799690D02*
X358506000Y-22021690D01*
X22805240Y-19958690D02*
X23040890Y-19947690D01*
X355654000Y-19949690D02*
X355890000Y-19958690D01*
X20367510Y-21587690D02*
X20483260Y-21380690D01*
X21679380Y-124873100D02*
X21472690Y-124757320D01*
X357934000Y-124148250D02*
X357775000Y-124321890D01*
X358080000Y-123963570D02*
X357934000Y-124148250D01*
X20123600Y-22247690D02*
X20186960Y-22021690D01*
X358646000Y-22713690D02*
X358654000Y-22949690D01*
X358506000Y-22021690D02*
X358571000Y-22247690D01*
D11*
X336800000Y-88000000D03*
X336800000Y-85460000D03*
D12*
X344260000Y-84600000D03*
D13*
X346800000Y-84600000D03*
D14*
X227565000Y-29445000D03*
X221215000Y-31985000D03*
X137077500Y-86595000D03*
X130727500Y-89135000D03*
X44208750Y-67545000D03*
X37858750Y-70085000D03*
X84690000Y-48495000D03*
X78340000Y-51035000D03*
X70402500Y-67545000D03*
X64052500Y-70085000D03*
X63258750Y-105645000D03*
X56908750Y-108185000D03*
X151365000Y-29445000D03*
X145015000Y-31985000D03*
X108502500Y-67545000D03*
X102152500Y-70085000D03*
X275190000Y-48495000D03*
X268840000Y-51035000D03*
X165652500Y-67545000D03*
X159302500Y-70085000D03*
X346627500Y-48495000D03*
X340277500Y-51035000D03*
X151365000Y-105645000D03*
X145015000Y-108185000D03*
X156127500Y-86595000D03*
X149777500Y-89135000D03*
X79927500Y-86595000D03*
X73577500Y-89135000D03*
X241852500Y-67545000D03*
X235502500Y-70085000D03*
X327577500Y-105645000D03*
X321227500Y-108185000D03*
X194227500Y-86595000D03*
X187877500Y-89135000D03*
X141840000Y-48495000D03*
X135490000Y-51035000D03*
X260902500Y-67545000D03*
X254552500Y-70085000D03*
X346627500Y-29445000D03*
X340277500Y-31985000D03*
X294240000Y-29445000D03*
X287890000Y-31985000D03*
X113265000Y-29445000D03*
X106915000Y-31985000D03*
X327577500Y-48495000D03*
X321227500Y-51035000D03*
X94215000Y-29445000D03*
X87865000Y-31985000D03*
X184702500Y-67545000D03*
X178352500Y-70085000D03*
X175177500Y-86595000D03*
X168827500Y-89135000D03*
X256140000Y-48495000D03*
X249790000Y-51035000D03*
X89452500Y-67545000D03*
X83102500Y-70085000D03*
X160890000Y-48495000D03*
X154540000Y-51035000D03*
X132315000Y-29445000D03*
X125965000Y-31985000D03*
X187083750Y-105645000D03*
X180733750Y-108185000D03*
X232327500Y-86595000D03*
X225977500Y-89135000D03*
X118027500Y-86595000D03*
X111677500Y-89135000D03*
X39446250Y-86595000D03*
X33096250Y-89135000D03*
X346627500Y-105645000D03*
X340277500Y-108185000D03*
X39446250Y-105645000D03*
X33096250Y-108185000D03*
X301383750Y-58020000D03*
X295033750Y-60560000D03*
X56115000Y-29445000D03*
X49765000Y-31985000D03*
X222802500Y-67545000D03*
X216452500Y-70085000D03*
X60877500Y-86595000D03*
X54527500Y-89135000D03*
X265665000Y-29445000D03*
X259315000Y-31985000D03*
X308527500Y-105645000D03*
X302177500Y-108185000D03*
X279952500Y-67545000D03*
X273602500Y-70085000D03*
X203752500Y-67545000D03*
X197402500Y-70085000D03*
X272808750Y-105645000D03*
X266458750Y-108185000D03*
X41827500Y-48495000D03*
X35477500Y-51035000D03*
X225183750Y-105645000D03*
X218833750Y-108185000D03*
X251377500Y-86595000D03*
X245027500Y-89135000D03*
X248996250Y-105645000D03*
X242646250Y-108185000D03*
X277571250Y-86595000D03*
X271221250Y-89135000D03*
X303765000Y-86595000D03*
X297415000Y-89135000D03*
X146602500Y-67545000D03*
X140252500Y-70085000D03*
X127552500Y-67545000D03*
X121202500Y-70085000D03*
X103740000Y-48495000D03*
X97390000Y-51035000D03*
X189465000Y-29445000D03*
X183115000Y-31985000D03*
X237090000Y-48495000D03*
X230740000Y-51035000D03*
X37065000Y-29445000D03*
X30715000Y-31985000D03*
X218040000Y-48495000D03*
X211690000Y-51035000D03*
X208515000Y-29445000D03*
X202165000Y-31985000D03*
X246615000Y-29445000D03*
X240265000Y-31985000D03*
X122790000Y-48495000D03*
X116440000Y-51035000D03*
X98977500Y-86595000D03*
X92627500Y-89135000D03*
X327577500Y-29445000D03*
X321227500Y-31985000D03*
X87071250Y-105645000D03*
X80721250Y-108185000D03*
X170415000Y-29445000D03*
X164065000Y-31985000D03*
X327577500Y-86595000D03*
X321227500Y-89135000D03*
X179940000Y-48495000D03*
X173590000Y-51035000D03*
X213277500Y-86595000D03*
X206927500Y-89135000D03*
D15*
X349370000Y-80220000D03*
X346830000Y-80220000D03*
X344290000Y-80220000D03*
X341750000Y-80220000D03*
X339210000Y-80220000D03*
X336670000Y-80220000D03*
X334130000Y-80220000D03*
X331590000Y-80220000D03*
X329050000Y-80220000D03*
X326510000Y-80220000D03*
X323970000Y-80220000D03*
X321430000Y-80220000D03*
X321430000Y-64980000D03*
X323970000Y-64980000D03*
X326510000Y-64980000D03*
X329050000Y-64980000D03*
X331590000Y-64980000D03*
X334130000Y-64980000D03*
X336670000Y-64980000D03*
X339210000Y-64980000D03*
X341750000Y-64980000D03*
X344290000Y-64980000D03*
X346830000Y-64980000D03*
D16*
X349370000Y-64980000D03*
D14*
X120408750Y-105645000D03*
X114058750Y-108185000D03*
X198990000Y-48495000D03*
X192640000Y-51035000D03*
X65640000Y-48495000D03*
X59290000Y-51035000D03*
X75165000Y-29445000D03*
X68815000Y-31985000D03*
D17*
X297400000Y-76800000D03*
X149800000Y-98529500D03*
X302387709Y-68587709D03*
X190545000Y-40655000D03*
X193200000Y-44574020D03*
X344145000Y-40655000D03*
X336700000Y-59700000D03*
X325400000Y-72600000D03*
X324600000Y-73400000D03*
D18*
X343400000Y-88000000D02*
X336800000Y-88000000D01*
D19*
X339050000Y-85460000D02*
X336800000Y-85460000D01*
X336700000Y-59700000D02*
X336670000Y-59730000D01*
X336670000Y-59730000D02*
X336670000Y-64980000D01*
D18*
X346800000Y-84600000D02*
X343400000Y-88000000D01*
D19*
X344290000Y-80220000D02*
X339050000Y-85460000D01*
D18*
X346830000Y-80220000D02*
X346830000Y-84570000D01*
X346830000Y-84570000D02*
X346800000Y-84600000D01*
D19*
X185398261Y-103520489D02*
X185398261Y-101401739D01*
X195567979Y-91232021D02*
X195567979Y-91178141D01*
X102152500Y-70085000D02*
X101726120Y-70085000D01*
X273602500Y-72102370D02*
X273602500Y-70085000D01*
X320065000Y-89135000D02*
X321227500Y-89135000D01*
X340277500Y-51035000D02*
X340410811Y-51168311D01*
X149800000Y-91703084D02*
X149777500Y-91680584D01*
X64052500Y-70085000D02*
X63626120Y-70085000D01*
X185398261Y-103520489D02*
X185398261Y-101401739D01*
X195567979Y-91232021D02*
X195567979Y-91178141D01*
X102152500Y-70085000D02*
X101726120Y-70085000D01*
X273602500Y-72102370D02*
X273602500Y-70085000D01*
X320065000Y-89135000D02*
X321227500Y-89135000D01*
X340277500Y-51035000D02*
X340410811Y-51168311D01*
X149800000Y-91703084D02*
X149777500Y-91680584D01*
X64052500Y-70085000D02*
X63626120Y-70085000D01*
X121202500Y-70085000D02*
X121202500Y-79610000D01*
X297415000Y-89135000D02*
X317595000Y-89135000D01*
X106915000Y-31985000D02*
X106915000Y-41510000D01*
X139585000Y-108185000D02*
X145015000Y-108185000D01*
X121202500Y-79610000D02*
X111677500Y-89135000D01*
X295033750Y-63058364D02*
X295033750Y-60560000D01*
X287890000Y-53416250D02*
X295033750Y-60560000D01*
X317595000Y-89135000D02*
X326510000Y-80220000D01*
X297400000Y-65424614D02*
X295033750Y-63058364D01*
X297400000Y-76800000D02*
X297400000Y-65424614D01*
X116440000Y-51035000D02*
X116440000Y-65322500D01*
X287890000Y-31985000D02*
X287890000Y-53416250D01*
X106915000Y-41510000D02*
X116440000Y-51035000D01*
X116440000Y-65322500D02*
X121202500Y-70085000D01*
X111677500Y-89135000D02*
X120535000Y-89135000D01*
X120535000Y-89135000D02*
X139585000Y-108185000D01*
X321227500Y-51035000D02*
X329273880Y-51035000D01*
X195567979Y-91178141D02*
X197611120Y-89135000D01*
X125965000Y-41510000D02*
X135490000Y-51035000D01*
X338009189Y-59770309D02*
X338009189Y-71260811D01*
X130727500Y-91680584D02*
X142567405Y-103520489D01*
X135490000Y-65322500D02*
X139934642Y-69767142D01*
X180733750Y-108185000D02*
X185398261Y-103520489D01*
X140252500Y-79610000D02*
X130727500Y-89135000D01*
X185398261Y-101401739D02*
X195567979Y-91232021D01*
X135490000Y-51035000D02*
X135490000Y-65322500D01*
X321227500Y-31985000D02*
X321227500Y-51035000D01*
X142567405Y-103520489D02*
X176069239Y-103520489D01*
X125965000Y-31985000D02*
X125965000Y-41510000D01*
X329273880Y-51035000D02*
X338009189Y-59770309D01*
X176069239Y-103520489D02*
X180733750Y-108185000D01*
X338009189Y-71260811D02*
X329050000Y-80220000D01*
X140252500Y-70085000D02*
X140252500Y-79610000D01*
X130727500Y-89135000D02*
X130727500Y-91680584D01*
X197611120Y-89135000D02*
X206927500Y-89135000D01*
X268840000Y-65322500D02*
X273602500Y-70085000D01*
X323970000Y-80220000D02*
X322769189Y-79019189D01*
X259315000Y-31985000D02*
X259315000Y-41510000D01*
X109131916Y-108185000D02*
X114058750Y-108185000D01*
X87865000Y-31985000D02*
X87865000Y-41510000D01*
X97390000Y-65322500D02*
X102152500Y-70085000D01*
X101726120Y-70085000D02*
X92627500Y-79183620D01*
X259315000Y-41510000D02*
X268840000Y-51035000D01*
X87865000Y-41510000D02*
X97390000Y-51035000D01*
X92627500Y-91680584D02*
X109131916Y-108185000D01*
X322769189Y-79019189D02*
X280519319Y-79019189D01*
X280519319Y-79019189D02*
X273602500Y-72102370D01*
X92627500Y-79183620D02*
X92627500Y-89135000D01*
X268840000Y-51035000D02*
X268840000Y-65322500D01*
X97390000Y-51035000D02*
X97390000Y-65322500D01*
X92627500Y-89135000D02*
X92627500Y-91680584D01*
X211690000Y-65322500D02*
X216452500Y-70085000D01*
X202165000Y-41510000D02*
X211690000Y-51035000D01*
X33096250Y-89135000D02*
X33096250Y-108185000D01*
X35477500Y-51035000D02*
X35477500Y-67703750D01*
X37858750Y-70085000D02*
X37858750Y-84372500D01*
X30715000Y-46272500D02*
X35477500Y-51035000D01*
X35477500Y-67703750D02*
X37858750Y-70085000D01*
X30715000Y-31985000D02*
X30715000Y-46272500D01*
X37858750Y-84372500D02*
X33096250Y-89135000D01*
X211690000Y-51035000D02*
X211690000Y-65322500D01*
X202165000Y-31985000D02*
X202165000Y-41510000D01*
X296773141Y-93999521D02*
X315200479Y-93999521D01*
X192640000Y-65322500D02*
X197402500Y-70085000D01*
X183115000Y-41510000D02*
X192640000Y-51035000D01*
X197402500Y-79610000D02*
X187877500Y-89135000D01*
X271221250Y-103422500D02*
X266458750Y-108185000D01*
X183115000Y-31985000D02*
X183115000Y-41510000D01*
X192640000Y-51035000D02*
X192640000Y-65322500D01*
X271221250Y-89135000D02*
X291908620Y-89135000D01*
X321227500Y-89135000D02*
X321227500Y-108185000D01*
X197402500Y-70085000D02*
X197402500Y-79610000D01*
X315200479Y-93999521D02*
X320065000Y-89135000D01*
X271221250Y-89135000D02*
X271221250Y-103422500D01*
X291908620Y-89135000D02*
X296773141Y-93999521D01*
X300550479Y-113049521D02*
X302177500Y-111422500D01*
X173590000Y-65322500D02*
X178352500Y-70085000D01*
X242646250Y-108185000D02*
X242646250Y-110730584D01*
X173590000Y-51035000D02*
X173590000Y-65322500D01*
X242646250Y-110730584D02*
X244965187Y-113049521D01*
X178352500Y-79610000D02*
X168827500Y-89135000D01*
X334130000Y-80220000D02*
X334130000Y-102037500D01*
X164065000Y-31985000D02*
X164065000Y-41510000D01*
X245027500Y-105803750D02*
X242646250Y-108185000D01*
X178352500Y-70085000D02*
X178352500Y-79610000D01*
X244965187Y-113049521D02*
X300550479Y-113049521D01*
X334130000Y-102037500D02*
X340277500Y-108185000D01*
X164065000Y-41510000D02*
X173590000Y-51035000D01*
X245027500Y-89135000D02*
X245027500Y-105803750D01*
X302177500Y-111422500D02*
X302177500Y-108185000D01*
X340277500Y-31985000D02*
X340277500Y-51035000D01*
X154540000Y-65322500D02*
X159302500Y-70085000D01*
X159302500Y-70085000D02*
X159302500Y-79610000D01*
X225977500Y-89135000D02*
X225977500Y-101041250D01*
X159302500Y-79610000D02*
X149777500Y-89135000D01*
X340410811Y-51168311D02*
X340410811Y-71399189D01*
X145015000Y-41510000D02*
X154540000Y-51035000D01*
X154540000Y-51035000D02*
X154540000Y-65322500D01*
X225977500Y-101041250D02*
X218833750Y-108185000D01*
X149777500Y-91680584D02*
X149777500Y-89135000D01*
X149800000Y-98529500D02*
X149800000Y-91703084D01*
X340410811Y-71399189D02*
X331590000Y-80220000D01*
X145015000Y-31985000D02*
X145015000Y-41510000D01*
X317810000Y-68600000D02*
X321430000Y-64980000D01*
X59290000Y-51035000D02*
X59290000Y-65322500D01*
X221215000Y-31985000D02*
X221215000Y-41510000D01*
X54527500Y-89135000D02*
X54527500Y-105803750D01*
X63626120Y-70085000D02*
X54527500Y-79183620D01*
X230740000Y-51035000D02*
X230740000Y-65322500D01*
X302400000Y-68600000D02*
X317810000Y-68600000D01*
X230740000Y-65322500D02*
X235502500Y-70085000D01*
X54527500Y-79183620D02*
X54527500Y-89135000D01*
X221215000Y-41510000D02*
X230740000Y-51035000D01*
X54527500Y-105803750D02*
X56908750Y-108185000D01*
X59290000Y-65322500D02*
X64052500Y-70085000D01*
X49765000Y-41510000D02*
X59290000Y-51035000D01*
X49765000Y-31985000D02*
X49765000Y-41510000D01*
X302387709Y-68587709D02*
X302400000Y-68600000D01*
X83102500Y-79610000D02*
X73577500Y-89135000D01*
X254552500Y-70085000D02*
X249790000Y-65322500D01*
X68815000Y-41510000D02*
X78340000Y-51035000D01*
X240265000Y-31985000D02*
X240265000Y-41510000D01*
X78340000Y-65322500D02*
X83102500Y-70085000D01*
X254552500Y-72630584D02*
X254552500Y-70085000D01*
X261390625Y-79468709D02*
X254552500Y-72630584D01*
X68815000Y-31985000D02*
X68815000Y-41510000D01*
X240265000Y-41510000D02*
X249790000Y-51035000D01*
X320678709Y-79468709D02*
X261390625Y-79468709D01*
X73577500Y-89135000D02*
X73577500Y-101041250D01*
X73577500Y-101041250D02*
X80721250Y-108185000D01*
X83102500Y-70085000D02*
X83102500Y-79610000D01*
X249790000Y-65322500D02*
X249790000Y-51035000D01*
X78340000Y-51035000D02*
X78340000Y-65322500D01*
X321430000Y-80220000D02*
X320678709Y-79468709D01*
X190545000Y-41945000D02*
X190545000Y-40655000D01*
X193200000Y-44574020D02*
X193174020Y-44574020D01*
X193174020Y-44574020D02*
X190545000Y-41945000D01*
X344145000Y-40655000D02*
X344145000Y-50172013D01*
X344145000Y-50172013D02*
X341750000Y-52567013D01*
X341750000Y-52567013D02*
X341750000Y-64980000D01*
X325400000Y-72600000D02*
X329050000Y-68950000D01*
X329050000Y-68950000D02*
X329050000Y-64980000D01*
X324600000Y-73400000D02*
X324600000Y-71600000D01*
X326510000Y-69690000D02*
X326510000Y-64980000D01*
X324600000Y-71600000D02*
X326510000Y-69690000D01*
M02*
