%TF.GenerationSoftware,KiCad,Pcbnew,(6.0.2-0)*%
%TF.CreationDate,2022-03-14T13:24:27+01:00*%
%TF.ProjectId,lasercut,6c617365-7263-4757-942e-6b696361645f,rev?*%
%TF.SameCoordinates,Original*%
%TF.FileFunction,Paste,Bot*%
%TF.FilePolarity,Positive*%
%FSLAX46Y46*%
G04 Gerber Fmt 4.6, Leading zero omitted, Abs format (unit mm)*
G04 Created by KiCad (PCBNEW (6.0.2-0)) date 2022-03-14 13:24:27*
%MOMM*%
%LPD*%
G01*
G04 APERTURE LIST*
G04 Aperture macros list*
%AMRoundRect*
0 Rectangle with rounded corners*
0 $1 Rounding radius*
0 $2 $3 $4 $5 $6 $7 $8 $9 X,Y pos of 4 corners*
0 Add a 4 corners polygon primitive as box body*
4,1,4,$2,$3,$4,$5,$6,$7,$8,$9,$2,$3,0*
0 Add four circle primitives for the rounded corners*
1,1,$1+$1,$2,$3*
1,1,$1+$1,$4,$5*
1,1,$1+$1,$6,$7*
1,1,$1+$1,$8,$9*
0 Add four rect primitives between the rounded corners*
20,1,$1+$1,$2,$3,$4,$5,0*
20,1,$1+$1,$4,$5,$6,$7,0*
20,1,$1+$1,$6,$7,$8,$9,0*
20,1,$1+$1,$8,$9,$2,$3,0*%
G04 Aperture macros list end*
%ADD10RoundRect,0.250000X-1.025000X-1.000000X1.025000X-1.000000X1.025000X1.000000X-1.025000X1.000000X0*%
%ADD11R,0.500000X0.500000*%
G04 APERTURE END LIST*
D10*
%TO.C,SW11*%
X217940000Y-31985000D03*
X230867000Y-29445000D03*
%TD*%
%TO.C,SW51*%
X127452500Y-89135000D03*
X140379500Y-86595000D03*
%TD*%
%TO.C,SW33*%
X47510750Y-67545000D03*
X34583750Y-70085000D03*
%TD*%
%TO.C,SW19*%
X75065000Y-51035000D03*
X87992000Y-48495000D03*
%TD*%
%TO.C,SW34*%
X73704500Y-67545000D03*
X60777500Y-70085000D03*
%TD*%
%TO.C,SW62*%
X66560750Y-105645000D03*
X53633750Y-108185000D03*
%TD*%
%TO.C,SW7*%
X154667000Y-29445000D03*
X141740000Y-31985000D03*
%TD*%
%TO.C,SW36*%
X111804500Y-67545000D03*
X98877500Y-70085000D03*
%TD*%
%TO.C,SW29*%
X265565000Y-51035000D03*
X278492000Y-48495000D03*
%TD*%
%TO.C,SW39*%
X168954500Y-67545000D03*
X156027500Y-70085000D03*
%TD*%
%TO.C,SW32*%
X337002500Y-51035000D03*
X349929500Y-48495000D03*
%TD*%
%TO.C,SW65*%
X154667000Y-105645000D03*
X141740000Y-108185000D03*
%TD*%
%TO.C,SW52*%
X159429500Y-86595000D03*
X146502500Y-89135000D03*
%TD*%
%TO.C,SW48*%
X70302500Y-89135000D03*
X83229500Y-86595000D03*
%TD*%
%TO.C,SW43*%
X232227500Y-70085000D03*
X245154500Y-67545000D03*
%TD*%
%TO.C,SW71*%
X330879500Y-105645000D03*
X317952500Y-108185000D03*
%TD*%
%TO.C,SW54*%
X197529500Y-86595000D03*
X184602500Y-89135000D03*
%TD*%
%TO.C,SW22*%
X132215000Y-51035000D03*
X145142000Y-48495000D03*
%TD*%
%TO.C,SW44*%
X264204500Y-67545000D03*
X251277500Y-70085000D03*
%TD*%
%TO.C,SW16*%
X337002500Y-31985000D03*
X349929500Y-29445000D03*
%TD*%
%TO.C,SW14*%
X297542000Y-29445000D03*
X284615000Y-31985000D03*
%TD*%
%TO.C,SW5*%
X103640000Y-31985000D03*
X116567000Y-29445000D03*
%TD*%
%TO.C,SW31*%
X330879500Y-48495000D03*
X317952500Y-51035000D03*
%TD*%
%TO.C,SW4*%
X84590000Y-31985000D03*
X97517000Y-29445000D03*
%TD*%
%TO.C,SW40*%
X175077500Y-70085000D03*
X188004500Y-67545000D03*
%TD*%
%TO.C,SW53*%
X178479500Y-86595000D03*
X165552500Y-89135000D03*
%TD*%
%TO.C,SW28*%
X246515000Y-51035000D03*
X259442000Y-48495000D03*
%TD*%
%TO.C,SW35*%
X92754500Y-67545000D03*
X79827500Y-70085000D03*
%TD*%
%TO.C,SW23*%
X151265000Y-51035000D03*
X164192000Y-48495000D03*
%TD*%
%TO.C,SW6*%
X122690000Y-31985000D03*
X135617000Y-29445000D03*
%TD*%
%TO.C,SW66*%
X177458750Y-108185000D03*
X190385750Y-105645000D03*
%TD*%
%TO.C,SW56*%
X235629500Y-86595000D03*
X222702500Y-89135000D03*
%TD*%
%TO.C,SW50*%
X108402500Y-89135000D03*
X121329500Y-86595000D03*
%TD*%
%TO.C,SW46*%
X42748250Y-86595000D03*
X29821250Y-89135000D03*
%TD*%
%TO.C,SW72*%
X349929500Y-105645000D03*
X337002500Y-108185000D03*
%TD*%
%TO.C,SW61*%
X42748250Y-105645000D03*
X29821250Y-108185000D03*
%TD*%
%TO.C,SW30*%
X304685750Y-58020000D03*
X291758750Y-60560000D03*
%TD*%
%TO.C,SW2*%
X46490000Y-31985000D03*
X59417000Y-29445000D03*
%TD*%
%TO.C,SW42*%
X226104500Y-67545000D03*
X213177500Y-70085000D03*
%TD*%
%TO.C,SW47*%
X64179500Y-86595000D03*
X51252500Y-89135000D03*
%TD*%
%TO.C,SW13*%
X268967000Y-29445000D03*
X256040000Y-31985000D03*
%TD*%
%TO.C,SW70*%
X298902500Y-108185000D03*
X311829500Y-105645000D03*
%TD*%
%TO.C,SW45*%
X270327500Y-70085000D03*
X283254500Y-67545000D03*
%TD*%
%TO.C,SW41*%
X194127500Y-70085000D03*
X207054500Y-67545000D03*
%TD*%
%TO.C,SW69*%
X263183750Y-108185000D03*
X276110750Y-105645000D03*
%TD*%
%TO.C,SW17*%
X45129500Y-48495000D03*
X32202500Y-51035000D03*
%TD*%
%TO.C,SW67*%
X215558750Y-108185000D03*
X228485750Y-105645000D03*
%TD*%
%TO.C,SW57*%
X254679500Y-86595000D03*
X241752500Y-89135000D03*
%TD*%
%TO.C,SW68*%
X239371250Y-108185000D03*
X252298250Y-105645000D03*
%TD*%
%TO.C,SW58*%
X280873250Y-86595000D03*
X267946250Y-89135000D03*
%TD*%
%TO.C,SW59*%
X294140000Y-89135000D03*
X307067000Y-86595000D03*
%TD*%
%TO.C,SW38*%
X136977500Y-70085000D03*
X149904500Y-67545000D03*
%TD*%
%TO.C,SW37*%
X130854500Y-67545000D03*
X117927500Y-70085000D03*
%TD*%
%TO.C,SW20*%
X94115000Y-51035000D03*
X107042000Y-48495000D03*
%TD*%
%TO.C,SW9*%
X192767000Y-29445000D03*
X179840000Y-31985000D03*
%TD*%
%TO.C,SW27*%
X227465000Y-51035000D03*
X240392000Y-48495000D03*
%TD*%
%TO.C,SW1*%
X27440000Y-31985000D03*
X40367000Y-29445000D03*
%TD*%
%TO.C,SW26*%
X208415000Y-51035000D03*
X221342000Y-48495000D03*
%TD*%
%TO.C,SW10*%
X211817000Y-29445000D03*
X198890000Y-31985000D03*
%TD*%
%TO.C,SW12*%
X236990000Y-31985000D03*
X249917000Y-29445000D03*
%TD*%
%TO.C,SW21*%
X113165000Y-51035000D03*
X126092000Y-48495000D03*
%TD*%
%TO.C,SW49*%
X89352500Y-89135000D03*
X102279500Y-86595000D03*
%TD*%
%TO.C,SW15*%
X317952500Y-31985000D03*
X330879500Y-29445000D03*
%TD*%
%TO.C,SW63*%
X77446250Y-108185000D03*
X90373250Y-105645000D03*
%TD*%
%TO.C,SW8*%
X173717000Y-29445000D03*
X160790000Y-31985000D03*
%TD*%
%TO.C,SW60*%
X317952500Y-89135000D03*
X330879500Y-86595000D03*
%TD*%
%TO.C,SW24*%
X170315000Y-51035000D03*
X183242000Y-48495000D03*
%TD*%
%TO.C,SW55*%
X203652500Y-89135000D03*
X216579500Y-86595000D03*
%TD*%
%TO.C,SW64*%
X110783750Y-108185000D03*
X123710750Y-105645000D03*
%TD*%
%TO.C,SW25*%
X189365000Y-51035000D03*
X202292000Y-48495000D03*
%TD*%
%TO.C,SW18*%
X68942000Y-48495000D03*
X56015000Y-51035000D03*
%TD*%
%TO.C,SW3*%
X65540000Y-31985000D03*
X78467000Y-29445000D03*
%TD*%
D11*
%TO.C,D72*%
X349167500Y-114655000D03*
X349167500Y-116855000D03*
%TD*%
%TO.C,D17*%
X44367500Y-57505000D03*
X44367500Y-59705000D03*
%TD*%
%TO.C,D33*%
X46748750Y-76555000D03*
X46748750Y-78755000D03*
%TD*%
%TO.C,D35*%
X91992500Y-76555000D03*
X91992500Y-78755000D03*
%TD*%
%TO.C,D49*%
X101517500Y-95605000D03*
X101517500Y-97805000D03*
%TD*%
%TO.C,D2*%
X58655000Y-38455000D03*
X58655000Y-40655000D03*
%TD*%
%TO.C,D51*%
X139617500Y-95605000D03*
X139617500Y-97805000D03*
%TD*%
%TO.C,D3*%
X77705000Y-38455000D03*
X77705000Y-40655000D03*
%TD*%
%TO.C,D40*%
X187242500Y-76555000D03*
X187242500Y-78755000D03*
%TD*%
%TO.C,D5*%
X115805000Y-38455000D03*
X115805000Y-40655000D03*
%TD*%
%TO.C,D64*%
X122948750Y-114655000D03*
X122948750Y-116855000D03*
%TD*%
%TO.C,D1*%
X39605000Y-38455000D03*
X39605000Y-40655000D03*
%TD*%
%TO.C,D62*%
X65798750Y-114655000D03*
X65798750Y-116855000D03*
%TD*%
%TO.C,D59*%
X306305000Y-95605000D03*
X306305000Y-97805000D03*
%TD*%
%TO.C,D55*%
X215817500Y-95605000D03*
X215817500Y-97805000D03*
%TD*%
%TO.C,D38*%
X149142500Y-76555000D03*
X149142500Y-78755000D03*
%TD*%
%TO.C,D21*%
X125330000Y-57505000D03*
X125330000Y-59705000D03*
%TD*%
%TO.C,D44*%
X263442500Y-76555000D03*
X263442500Y-78755000D03*
%TD*%
%TO.C,D25*%
X201530000Y-57505000D03*
X201530000Y-59705000D03*
%TD*%
%TO.C,D29*%
X277730000Y-57505000D03*
X277730000Y-59705000D03*
%TD*%
%TO.C,D42*%
X225342500Y-76555000D03*
X225342500Y-78755000D03*
%TD*%
%TO.C,D67*%
X227723750Y-114655000D03*
X227723750Y-116855000D03*
%TD*%
%TO.C,D39*%
X168192500Y-76555000D03*
X168192500Y-78755000D03*
%TD*%
%TO.C,D66*%
X189623750Y-114655000D03*
X189623750Y-116855000D03*
%TD*%
%TO.C,D4*%
X96755000Y-38455000D03*
X96755000Y-40655000D03*
%TD*%
%TO.C,D8*%
X172955000Y-38455000D03*
X172955000Y-40655000D03*
%TD*%
%TO.C,D27*%
X239630000Y-57505000D03*
X239630000Y-59705000D03*
%TD*%
%TO.C,D6*%
X134855000Y-38455000D03*
X134855000Y-40655000D03*
%TD*%
%TO.C,D58*%
X280111250Y-95605000D03*
X280111250Y-97805000D03*
%TD*%
%TO.C,D48*%
X82467500Y-95605000D03*
X82467500Y-97805000D03*
%TD*%
%TO.C,D52*%
X158667500Y-95605000D03*
X158667500Y-97805000D03*
%TD*%
%TO.C,D43*%
X244392500Y-76555000D03*
X244392500Y-78755000D03*
%TD*%
%TO.C,D23*%
X163430000Y-57505000D03*
X163430000Y-59705000D03*
%TD*%
%TO.C,D57*%
X253917500Y-95605000D03*
X253917500Y-97805000D03*
%TD*%
%TO.C,D12*%
X249155000Y-38455000D03*
X249155000Y-40655000D03*
%TD*%
%TO.C,D22*%
X144380000Y-57505000D03*
X144380000Y-59705000D03*
%TD*%
%TO.C,D47*%
X63417500Y-95605000D03*
X63417500Y-97805000D03*
%TD*%
%TO.C,D53*%
X177717500Y-95605000D03*
X177717500Y-97805000D03*
%TD*%
%TO.C,D26*%
X220580000Y-57505000D03*
X220580000Y-59705000D03*
%TD*%
%TO.C,D65*%
X153905000Y-114655000D03*
X153905000Y-116855000D03*
%TD*%
%TO.C,D46*%
X41986250Y-95605000D03*
X41986250Y-97805000D03*
%TD*%
%TO.C,D71*%
X330117500Y-114655000D03*
X330117500Y-116855000D03*
%TD*%
%TO.C,D24*%
X182480000Y-57505000D03*
X182480000Y-59705000D03*
%TD*%
%TO.C,D50*%
X120567500Y-95605000D03*
X120567500Y-97805000D03*
%TD*%
%TO.C,D37*%
X130092500Y-76555000D03*
X130092500Y-78755000D03*
%TD*%
%TO.C,D60*%
X330117500Y-95605000D03*
X330117500Y-97805000D03*
%TD*%
%TO.C,D10*%
X211055000Y-38455000D03*
X211055000Y-40655000D03*
%TD*%
%TO.C,D30*%
X303923750Y-67030000D03*
X303923750Y-69230000D03*
%TD*%
%TO.C,D36*%
X111042500Y-76555000D03*
X111042500Y-78755000D03*
%TD*%
%TO.C,D15*%
X330117500Y-38455000D03*
X330117500Y-40655000D03*
%TD*%
%TO.C,D16*%
X349167500Y-38455000D03*
X349167500Y-40655000D03*
%TD*%
%TO.C,D61*%
X41986250Y-114655000D03*
X41986250Y-116855000D03*
%TD*%
%TO.C,D11*%
X230105000Y-38455000D03*
X230105000Y-40655000D03*
%TD*%
%TO.C,D28*%
X258680000Y-57505000D03*
X258680000Y-59705000D03*
%TD*%
%TO.C,D68*%
X251536250Y-114655000D03*
X251536250Y-116855000D03*
%TD*%
%TO.C,D9*%
X192005000Y-38455000D03*
X192005000Y-40655000D03*
%TD*%
%TO.C,D63*%
X89611250Y-114655000D03*
X89611250Y-116855000D03*
%TD*%
%TO.C,D19*%
X87230000Y-57505000D03*
X87230000Y-59705000D03*
%TD*%
%TO.C,D70*%
X311067500Y-114655000D03*
X311067500Y-116855000D03*
%TD*%
%TO.C,D34*%
X72942500Y-76555000D03*
X72942500Y-78755000D03*
%TD*%
%TO.C,D54*%
X196767500Y-95605000D03*
X196767500Y-97805000D03*
%TD*%
%TO.C,D32*%
X349167500Y-57505000D03*
X349167500Y-59705000D03*
%TD*%
%TO.C,D20*%
X106280000Y-57505000D03*
X106280000Y-59705000D03*
%TD*%
%TO.C,D56*%
X234867500Y-95605000D03*
X234867500Y-97805000D03*
%TD*%
%TO.C,D18*%
X68180000Y-57505000D03*
X68180000Y-59705000D03*
%TD*%
%TO.C,D69*%
X275348750Y-114655000D03*
X275348750Y-116855000D03*
%TD*%
%TO.C,D31*%
X330117500Y-57505000D03*
X330117500Y-59705000D03*
%TD*%
%TO.C,D7*%
X153905000Y-38455000D03*
X153905000Y-40655000D03*
%TD*%
%TO.C,D13*%
X268205000Y-38455000D03*
X268205000Y-40655000D03*
%TD*%
%TO.C,D41*%
X206292500Y-76555000D03*
X206292500Y-78755000D03*
%TD*%
%TO.C,D14*%
X296780000Y-38455000D03*
X296780000Y-40655000D03*
%TD*%
%TO.C,D45*%
X282492500Y-76555000D03*
X282492500Y-78755000D03*
%TD*%
M02*
