%TF.GenerationSoftware,KiCad,Pcbnew,(6.0.2-0)*%
%TF.CreationDate,2022-03-14T13:24:28+01:00*%
%TF.ProjectId,lasercut,6c617365-7263-4757-942e-6b696361645f,rev?*%
%TF.SameCoordinates,Original*%
%TF.FileFunction,Profile,NP*%
%FSLAX46Y46*%
G04 Gerber Fmt 4.6, Leading zero omitted, Abs format (unit mm)*
G04 Created by KiCad (PCBNEW (6.0.2-0)) date 2022-03-14 13:24:28*
%MOMM*%
%LPD*%
G01*
G04 APERTURE LIST*
%TA.AperFunction,Profile*%
%ADD10C,0.200000*%
%TD*%
G04 APERTURE END LIST*
D10*
X356581000Y-125053620D02*
X356354000Y-125117010D01*
X22805240Y-125190040D02*
X22570990Y-125163860D01*
X358646000Y-122435340D02*
X358617000Y-122669620D01*
X357015000Y-124873100D02*
X356802000Y-124970930D01*
X20050540Y-122435340D02*
X20039530Y-122199680D01*
X356354000Y-125117010D02*
X356122000Y-125163860D01*
X358571000Y-122899730D02*
X358506000Y-123127100D01*
X358617000Y-122669620D02*
X358571000Y-122899730D01*
X23040890Y-19947690D02*
X355654000Y-19949690D01*
X358327000Y-21587690D02*
X358426000Y-21799690D01*
X358506000Y-123127100D02*
X358426000Y-123348960D01*
X20123600Y-122899730D02*
X20076710Y-122669620D01*
X21891610Y-20177690D02*
X22113480Y-20095690D01*
X358617000Y-22479690D02*
X358646000Y-22713690D01*
X358327000Y-123561190D02*
X358212000Y-123767880D01*
X20040910Y-22949690D02*
X20050540Y-22713690D01*
X22339470Y-20031690D02*
X22570990Y-19984690D01*
X357221000Y-20391690D02*
X357416000Y-20520690D01*
X20483260Y-123767880D02*
X20367510Y-123561190D01*
X356802000Y-20177690D02*
X357015000Y-20275690D01*
X20076710Y-122669620D02*
X20050540Y-122435340D01*
X355890000Y-19958690D02*
X356122000Y-19984690D01*
X20186960Y-22021690D02*
X20269650Y-21799690D01*
X358212000Y-21380690D02*
X358327000Y-21587690D01*
X22570990Y-125163860D02*
X22339470Y-125117010D01*
X20612800Y-123963570D02*
X20483260Y-123767880D01*
X357221000Y-124757320D02*
X357015000Y-124873100D01*
X20269650Y-21799690D02*
X20367510Y-21587690D01*
X20918720Y-124321890D02*
X20758850Y-124148250D01*
X358571000Y-22247690D02*
X358617000Y-22479690D01*
X20612800Y-21185690D02*
X20758850Y-21000690D01*
X20269650Y-123348960D02*
X20186960Y-123127100D01*
X21092360Y-124481730D02*
X20918720Y-124321890D01*
X356581000Y-20095690D02*
X356802000Y-20177690D01*
X358212000Y-123767880D02*
X358080000Y-123963570D01*
X20050540Y-22713690D02*
X20076710Y-22479690D01*
X20918720Y-20826690D02*
X21092360Y-20667690D01*
X358654000Y-122199680D02*
X358646000Y-122435340D01*
X22113480Y-20095690D02*
X22339470Y-20031690D01*
X357934000Y-21000690D02*
X358080000Y-21185690D01*
X20758850Y-21000690D02*
X20918720Y-20826690D01*
X358654000Y-22949690D02*
X358654000Y-122199680D01*
X356354000Y-20031690D02*
X356581000Y-20095690D01*
X21277010Y-124627780D02*
X21092360Y-124481730D01*
X21277010Y-20520690D02*
X21472690Y-20391690D01*
X21891610Y-124970930D02*
X21679380Y-124873100D01*
X20186960Y-123127100D02*
X20123600Y-122899730D01*
X20758850Y-124148250D02*
X20612800Y-123963570D01*
X20039530Y-122199680D02*
X20040910Y-22949690D01*
X358426000Y-123348960D02*
X358327000Y-123561190D01*
X357602000Y-20667690D02*
X357775000Y-20826690D01*
X23040890Y-125199670D02*
X22805240Y-125190040D01*
X356122000Y-19984690D02*
X356354000Y-20031690D01*
X21472690Y-124757320D02*
X21277010Y-124627780D01*
X358080000Y-21185690D02*
X358212000Y-21380690D01*
X20367510Y-123561190D02*
X20269650Y-123348960D01*
X357416000Y-124627780D02*
X357221000Y-124757320D01*
X355654000Y-125199670D02*
X23040890Y-125199670D01*
X356802000Y-124970930D02*
X356581000Y-125053620D01*
X356122000Y-125163860D02*
X355890000Y-125190040D01*
X355890000Y-125190040D02*
X355654000Y-125199670D01*
X22113480Y-125053620D02*
X21891610Y-124970930D01*
X357602000Y-124481730D02*
X357416000Y-124627780D01*
X20076710Y-22479690D02*
X20123600Y-22247690D01*
X21472690Y-20391690D02*
X21679380Y-20275690D01*
X20483260Y-21380690D02*
X20612800Y-21185690D01*
X357775000Y-124321890D02*
X357602000Y-124481730D01*
X21092360Y-20667690D02*
X21277010Y-20520690D01*
X21679380Y-20275690D02*
X21891610Y-20177690D01*
X22570990Y-19984690D02*
X22805240Y-19958690D01*
X357416000Y-20520690D02*
X357602000Y-20667690D01*
X22339470Y-125117010D02*
X22113480Y-125053620D01*
X357015000Y-20275690D02*
X357221000Y-20391690D01*
X357775000Y-20826690D02*
X357934000Y-21000690D01*
X358426000Y-21799690D02*
X358506000Y-22021690D01*
X22805240Y-19958690D02*
X23040890Y-19947690D01*
X355654000Y-19949690D02*
X355890000Y-19958690D01*
X20367510Y-21587690D02*
X20483260Y-21380690D01*
X21679380Y-124873100D02*
X21472690Y-124757320D01*
X357934000Y-124148250D02*
X357775000Y-124321890D01*
X358080000Y-123963570D02*
X357934000Y-124148250D01*
X20123600Y-22247690D02*
X20186960Y-22021690D01*
X358646000Y-22713690D02*
X358654000Y-22949690D01*
X358506000Y-22021690D02*
X358571000Y-22247690D01*
M02*
