%TF.GenerationSoftware,KiCad,Pcbnew,(5.99.0-12974-ge12f9a194d)*%
%TF.CreationDate,2022-03-06T12:10:11+01:00*%
%TF.ProjectId,lazercut,6c617a65-7263-4757-942e-6b696361645f,rev?*%
%TF.SameCoordinates,Original*%
%TF.FileFunction,Paste,Bot*%
%TF.FilePolarity,Positive*%
%FSLAX46Y46*%
G04 Gerber Fmt 4.6, Leading zero omitted, Abs format (unit mm)*
G04 Created by KiCad (PCBNEW (5.99.0-12974-ge12f9a194d)) date 2022-03-06 12:10:11*
%MOMM*%
%LPD*%
G01*
G04 APERTURE LIST*
%ADD10R,2.550000X2.500000*%
%ADD11R,2.100000X1.400000*%
G04 APERTURE END LIST*
D10*
X256040000Y-31985000D03*
X268940000Y-29445000D03*
X202265000Y-48495000D03*
X189365000Y-51035000D03*
X222702500Y-89135000D03*
X235602500Y-86595000D03*
X270327500Y-70085000D03*
X283227500Y-67545000D03*
X68915000Y-48495000D03*
X56015000Y-51035000D03*
X98877500Y-70085000D03*
X111777500Y-67545000D03*
X73677500Y-67545000D03*
X60777500Y-70085000D03*
X349902500Y-29445000D03*
X337002500Y-31985000D03*
X116540000Y-29445000D03*
X103640000Y-31985000D03*
X130827500Y-67545000D03*
X117927500Y-70085000D03*
X317952500Y-108185000D03*
X330852500Y-105645000D03*
X294140000Y-89135000D03*
X307040000Y-86595000D03*
X168927500Y-67545000D03*
X156027500Y-70085000D03*
X330852500Y-48495000D03*
X317952500Y-51035000D03*
X84590000Y-31985000D03*
X97490000Y-29445000D03*
X47483800Y-67545000D03*
X34583800Y-70085000D03*
X132215000Y-51035000D03*
X145115000Y-48495000D03*
X254652500Y-86595000D03*
X241752500Y-89135000D03*
X228458800Y-105645000D03*
X215558800Y-108185000D03*
X32202500Y-51035000D03*
X45102500Y-48495000D03*
X149877500Y-67545000D03*
X136977500Y-70085000D03*
X78440000Y-29445000D03*
X65540000Y-31985000D03*
X311802500Y-105645000D03*
X298902500Y-108185000D03*
X141740000Y-108185000D03*
X154640000Y-105645000D03*
X183215000Y-48495000D03*
X170315000Y-51035000D03*
X64152500Y-86595000D03*
X51252500Y-89135000D03*
X70302500Y-89135000D03*
X83202500Y-86595000D03*
X159402500Y-86595000D03*
X146502500Y-89135000D03*
X173690000Y-29445000D03*
X160790000Y-31985000D03*
X291758800Y-60560000D03*
X304658800Y-58020000D03*
X265565000Y-51035000D03*
X278465000Y-48495000D03*
X232227500Y-70085000D03*
X245127500Y-67545000D03*
X110783800Y-108185000D03*
X123683800Y-105645000D03*
X187977500Y-67545000D03*
X175077500Y-70085000D03*
X226077500Y-67545000D03*
X213177500Y-70085000D03*
X46490000Y-31985000D03*
X59390000Y-29445000D03*
X27440000Y-31985000D03*
X40340000Y-29445000D03*
X239371300Y-108185000D03*
X252271300Y-105645000D03*
X102252500Y-86595000D03*
X89352500Y-89135000D03*
X184602500Y-89135000D03*
X197502500Y-86595000D03*
X221315000Y-48495000D03*
X208415000Y-51035000D03*
X203652500Y-89135000D03*
X216552500Y-86595000D03*
X211790000Y-29445000D03*
X198890000Y-31985000D03*
X141740000Y-31985000D03*
X154640000Y-29445000D03*
X192740000Y-29445000D03*
X179840000Y-31985000D03*
X122690000Y-31985000D03*
X135590000Y-29445000D03*
X330852500Y-29445000D03*
X317952500Y-31985000D03*
X217940000Y-31985000D03*
X230840000Y-29445000D03*
X194127500Y-70085000D03*
X207027500Y-67545000D03*
X236990000Y-31985000D03*
X249890000Y-29445000D03*
X178452500Y-86595000D03*
X165552500Y-89135000D03*
X53633800Y-108185000D03*
X66533800Y-105645000D03*
X94115000Y-51035000D03*
X107015000Y-48495000D03*
X240365000Y-48495000D03*
X227465000Y-51035000D03*
X42721300Y-105645000D03*
X29821300Y-108185000D03*
X151265000Y-51035000D03*
X164165000Y-48495000D03*
X87965000Y-48495000D03*
X75065000Y-51035000D03*
X349902500Y-105645000D03*
X337002500Y-108185000D03*
X177458800Y-108185000D03*
X190358800Y-105645000D03*
X349902500Y-48495000D03*
X337002500Y-51035000D03*
X251277500Y-70085000D03*
X264177500Y-67545000D03*
X113165000Y-51035000D03*
X126065000Y-48495000D03*
X297515000Y-29445000D03*
X284615000Y-31985000D03*
X140352500Y-86595000D03*
X127452500Y-89135000D03*
X108402500Y-89135000D03*
X121302500Y-86595000D03*
X77446300Y-108185000D03*
X90346300Y-105645000D03*
X267946300Y-89135000D03*
X280846300Y-86595000D03*
X29821300Y-89135000D03*
X42721300Y-86595000D03*
X259415000Y-48495000D03*
X246515000Y-51035000D03*
X276083800Y-105645000D03*
X263183800Y-108185000D03*
X79827500Y-70085000D03*
X92727500Y-67545000D03*
X330852500Y-86595000D03*
X317952500Y-89135000D03*
D11*
X311067500Y-112555000D03*
X311067500Y-116955000D03*
X268205000Y-36355000D03*
X268205000Y-40755000D03*
X349167500Y-112555000D03*
X349167500Y-116955000D03*
X149142500Y-74455000D03*
X149142500Y-78855000D03*
X82467500Y-93505000D03*
X82467500Y-97905000D03*
X58655000Y-36355000D03*
X58655000Y-40755000D03*
X230105000Y-36355000D03*
X230105000Y-40755000D03*
X296780000Y-36355000D03*
X296780000Y-40755000D03*
X330117500Y-36355000D03*
X330117500Y-40755000D03*
X196767500Y-93505000D03*
X196767500Y-97905000D03*
X182480000Y-55405000D03*
X182480000Y-59805000D03*
X258680000Y-55405000D03*
X258680000Y-59805000D03*
X306305000Y-93505000D03*
X306305000Y-97905000D03*
X115805000Y-36355000D03*
X115805000Y-40755000D03*
X220580000Y-55405000D03*
X220580000Y-59805000D03*
X96755000Y-36355000D03*
X96755000Y-40755000D03*
X330117500Y-112555000D03*
X330117500Y-116955000D03*
X201530000Y-55405000D03*
X201530000Y-59805000D03*
X249155000Y-36355000D03*
X249155000Y-40755000D03*
X153905000Y-112555000D03*
X153905000Y-116955000D03*
X277730000Y-55405000D03*
X277730000Y-59805000D03*
X134855000Y-36355000D03*
X134855000Y-40755000D03*
X303923800Y-64930000D03*
X303923800Y-69330000D03*
X253917500Y-93505000D03*
X253917500Y-97905000D03*
X130092500Y-74455000D03*
X130092500Y-78855000D03*
X72942500Y-74455000D03*
X72942500Y-78855000D03*
X77705000Y-36355000D03*
X77705000Y-40755000D03*
X144380000Y-55405000D03*
X144380000Y-59805000D03*
X89611300Y-112555000D03*
X89611300Y-116955000D03*
X101517500Y-93505000D03*
X101517500Y-97905000D03*
X65798800Y-112555000D03*
X65798800Y-116955000D03*
X187242500Y-74455000D03*
X187242500Y-78855000D03*
X39605000Y-36355000D03*
X39605000Y-40755000D03*
X44367500Y-55405000D03*
X44367500Y-59805000D03*
X68180000Y-55405000D03*
X68180000Y-59805000D03*
X206292500Y-74455000D03*
X206292500Y-78855000D03*
X106280000Y-55405000D03*
X106280000Y-59805000D03*
X282492500Y-74455000D03*
X282492500Y-78855000D03*
X163430000Y-55405000D03*
X163430000Y-59805000D03*
X251536300Y-112555000D03*
X251536300Y-116955000D03*
X172955000Y-36355000D03*
X172955000Y-40755000D03*
X63417500Y-93505000D03*
X63417500Y-97905000D03*
X211055000Y-36355000D03*
X211055000Y-40755000D03*
X239630000Y-55405000D03*
X239630000Y-59805000D03*
X330117500Y-55405000D03*
X330117500Y-59805000D03*
X227723800Y-112555000D03*
X227723800Y-116955000D03*
X41986300Y-93505000D03*
X41986300Y-97905000D03*
X192005000Y-36355000D03*
X192005000Y-40755000D03*
X153905000Y-36355000D03*
X153905000Y-40755000D03*
X189623800Y-112555000D03*
X189623800Y-116955000D03*
X41986300Y-112555000D03*
X41986300Y-116955000D03*
X330117500Y-93505000D03*
X330117500Y-97905000D03*
X168192500Y-74455000D03*
X168192500Y-78855000D03*
X139617500Y-93505000D03*
X139617500Y-97905000D03*
X177717500Y-93505000D03*
X177717500Y-97905000D03*
X349167500Y-36355000D03*
X349167500Y-40755000D03*
X215817500Y-93505000D03*
X215817500Y-97905000D03*
X280111300Y-93505000D03*
X280111300Y-97905000D03*
X158667500Y-93505000D03*
X158667500Y-97905000D03*
X87230000Y-55405000D03*
X87230000Y-59805000D03*
X122948800Y-112555000D03*
X122948800Y-116955000D03*
X225342500Y-74455000D03*
X225342500Y-78855000D03*
X125330000Y-55405000D03*
X125330000Y-59805000D03*
X349167500Y-55405000D03*
X349167500Y-59805000D03*
X111042500Y-74455000D03*
X111042500Y-78855000D03*
X234867500Y-93505000D03*
X234867500Y-97905000D03*
X46748800Y-74455000D03*
X46748800Y-78855000D03*
X263442500Y-74455000D03*
X263442500Y-78855000D03*
X91992500Y-74455000D03*
X91992500Y-78855000D03*
X275348800Y-112555000D03*
X275348800Y-116955000D03*
X120567500Y-93505000D03*
X120567500Y-97905000D03*
X244392500Y-74455000D03*
X244392500Y-78855000D03*
M02*
