%TF.GenerationSoftware,KiCad,Pcbnew,(5.99.0-12974-ge12f9a194d)*%
%TF.CreationDate,2022-03-06T12:10:12+01:00*%
%TF.ProjectId,lazercut,6c617a65-7263-4757-942e-6b696361645f,rev?*%
%TF.SameCoordinates,Original*%
%TF.FileFunction,Soldermask,Top*%
%TF.FilePolarity,Negative*%
%FSLAX46Y46*%
G04 Gerber Fmt 4.6, Leading zero omitted, Abs format (unit mm)*
G04 Created by KiCad (PCBNEW (5.99.0-12974-ge12f9a194d)) date 2022-03-06 12:10:12*
%MOMM*%
%LPD*%
G01*
G04 APERTURE LIST*
%ADD10C,2.200000*%
%ADD11C,1.750000*%
%ADD12C,3.987800*%
%ADD13R,1.752600X1.752600*%
%ADD14C,1.752600*%
G04 APERTURE END LIST*
D10*
X189230000Y-122770000D03*
X105830000Y-122770000D03*
X22430000Y-122770000D03*
X22430000Y-72640000D03*
X22430000Y-22520000D03*
X105830000Y-22520000D03*
X189240000Y-22520000D03*
X272640000Y-22520000D03*
X356040000Y-22520000D03*
X356030000Y-72640000D03*
X356040000Y-122770000D03*
X272630000Y-122770000D03*
D11*
X268205000Y-34525000D03*
X258045000Y-34525000D03*
D12*
X263125000Y-34525000D03*
D11*
X191370000Y-53575000D03*
D12*
X196450000Y-53575000D03*
D11*
X201530000Y-53575000D03*
X224707500Y-91675000D03*
D12*
X229787500Y-91675000D03*
D11*
X234867500Y-91675000D03*
D12*
X277412500Y-72625000D03*
D11*
X272332500Y-72625000D03*
X282492500Y-72625000D03*
X58020000Y-53575000D03*
X68180000Y-53575000D03*
D12*
X63100000Y-53575000D03*
X105962500Y-72625000D03*
D11*
X100882500Y-72625000D03*
X111042500Y-72625000D03*
D12*
X67862500Y-72625000D03*
D11*
X72942500Y-72625000D03*
X62782500Y-72625000D03*
X339007500Y-34525000D03*
X349167500Y-34525000D03*
D12*
X344087500Y-34525000D03*
D11*
X105645000Y-34525000D03*
D12*
X110725000Y-34525000D03*
D11*
X115805000Y-34525000D03*
X130092500Y-72625000D03*
D12*
X125012500Y-72625000D03*
D11*
X119932500Y-72625000D03*
D12*
X325037500Y-110725000D03*
D11*
X319957500Y-110725000D03*
X330117500Y-110725000D03*
D12*
X301225000Y-91675000D03*
D11*
X296145000Y-91675000D03*
X306305000Y-91675000D03*
X168192500Y-72625000D03*
D12*
X163112500Y-72625000D03*
D11*
X158032500Y-72625000D03*
D12*
X325037500Y-53575000D03*
D11*
X319957500Y-53575000D03*
X330117500Y-53575000D03*
X86595000Y-34525000D03*
X96755000Y-34525000D03*
D12*
X91675000Y-34525000D03*
D11*
X46748800Y-72625000D03*
D12*
X41668800Y-72625000D03*
D11*
X36588800Y-72625000D03*
D13*
X349250000Y-65024000D03*
D14*
X346710000Y-65024000D03*
X344170000Y-65024000D03*
X341630000Y-65024000D03*
X339090000Y-65024000D03*
X336550000Y-65024000D03*
X334010000Y-65024000D03*
X331470000Y-65024000D03*
X328930000Y-65024000D03*
X326390000Y-65024000D03*
X323850000Y-65024000D03*
X321310000Y-65252600D03*
X321310000Y-80264000D03*
X323850000Y-80264000D03*
X326390000Y-80264000D03*
X328930000Y-80264000D03*
X331470000Y-80264000D03*
X334010000Y-80264000D03*
X336550000Y-80264000D03*
X339090000Y-80264000D03*
X341630000Y-80264000D03*
X344170000Y-80264000D03*
X346710000Y-80264000D03*
X349250000Y-80264000D03*
X321310000Y-67564000D03*
X321310000Y-70104000D03*
X321310000Y-72644000D03*
X321310000Y-75184000D03*
X321310000Y-77724000D03*
D12*
X139300000Y-53575000D03*
D11*
X144380000Y-53575000D03*
X134220000Y-53575000D03*
X253917500Y-91675000D03*
X243757500Y-91675000D03*
D12*
X248837500Y-91675000D03*
D11*
X217563800Y-110725000D03*
X227723800Y-110725000D03*
D12*
X222643800Y-110725000D03*
X39287500Y-53575000D03*
D11*
X44367500Y-53575000D03*
X34207500Y-53575000D03*
X149142500Y-72625000D03*
X138982500Y-72625000D03*
D12*
X144062500Y-72625000D03*
D11*
X77705000Y-34525000D03*
X67545000Y-34525000D03*
D12*
X72625000Y-34525000D03*
D11*
X300907500Y-110725000D03*
D12*
X305987500Y-110725000D03*
D11*
X311067500Y-110725000D03*
X153905000Y-110725000D03*
X143745000Y-110725000D03*
D12*
X148825000Y-110725000D03*
D11*
X172320000Y-53575000D03*
X182480000Y-53575000D03*
D12*
X177400000Y-53575000D03*
D11*
X53257500Y-91675000D03*
X63417500Y-91675000D03*
D12*
X58337500Y-91675000D03*
D11*
X82467500Y-91675000D03*
X72307500Y-91675000D03*
D12*
X77387500Y-91675000D03*
D11*
X148507500Y-91675000D03*
D12*
X153587500Y-91675000D03*
D11*
X158667500Y-91675000D03*
D12*
X167875000Y-34525000D03*
D11*
X162795000Y-34525000D03*
X172955000Y-34525000D03*
D12*
X298843800Y-63100000D03*
D11*
X303923800Y-63100000D03*
X293763800Y-63100000D03*
D12*
X272650000Y-53575000D03*
D11*
X267570000Y-53575000D03*
X277730000Y-53575000D03*
X234232500Y-72625000D03*
X244392500Y-72625000D03*
D12*
X239312500Y-72625000D03*
D11*
X122948800Y-110725000D03*
D12*
X117868800Y-110725000D03*
D11*
X112788800Y-110725000D03*
X187242500Y-72625000D03*
D12*
X182162500Y-72625000D03*
D11*
X177082500Y-72625000D03*
X225342500Y-72625000D03*
X215182500Y-72625000D03*
D12*
X220262500Y-72625000D03*
X53575000Y-34525000D03*
D11*
X58655000Y-34525000D03*
X48495000Y-34525000D03*
X39605000Y-34525000D03*
D12*
X34525000Y-34525000D03*
D11*
X29445000Y-34525000D03*
X241376300Y-110725000D03*
D12*
X246456300Y-110725000D03*
D11*
X251536300Y-110725000D03*
X101517500Y-91675000D03*
X91357500Y-91675000D03*
D12*
X96437500Y-91675000D03*
X191687500Y-91675000D03*
D11*
X186607500Y-91675000D03*
X196767500Y-91675000D03*
D12*
X215500000Y-53575000D03*
D11*
X220580000Y-53575000D03*
X210420000Y-53575000D03*
X205657500Y-91675000D03*
D12*
X210737500Y-91675000D03*
D11*
X215817500Y-91675000D03*
X211055000Y-34525000D03*
X200895000Y-34525000D03*
D12*
X205975000Y-34525000D03*
D11*
X153905000Y-34525000D03*
X143745000Y-34525000D03*
D12*
X148825000Y-34525000D03*
D11*
X192005000Y-34525000D03*
X181845000Y-34525000D03*
D12*
X186925000Y-34525000D03*
D11*
X124695000Y-34525000D03*
X134855000Y-34525000D03*
D12*
X129775000Y-34525000D03*
D11*
X319957500Y-34525000D03*
D12*
X325037500Y-34525000D03*
D11*
X330117500Y-34525000D03*
D12*
X225025000Y-34525000D03*
D11*
X230105000Y-34525000D03*
X219945000Y-34525000D03*
X196132500Y-72625000D03*
X206292500Y-72625000D03*
D12*
X201212500Y-72625000D03*
X244075000Y-34525000D03*
D11*
X238995000Y-34525000D03*
X249155000Y-34525000D03*
D12*
X172637500Y-91675000D03*
D11*
X167557500Y-91675000D03*
X177717500Y-91675000D03*
X55638800Y-110725000D03*
D12*
X60718800Y-110725000D03*
D11*
X65798800Y-110725000D03*
D12*
X101200000Y-53575000D03*
D11*
X96120000Y-53575000D03*
X106280000Y-53575000D03*
X239630000Y-53575000D03*
X229470000Y-53575000D03*
D12*
X234550000Y-53575000D03*
D11*
X41986300Y-110725000D03*
X31826300Y-110725000D03*
D12*
X36906300Y-110725000D03*
X158350000Y-53575000D03*
D11*
X153270000Y-53575000D03*
X163430000Y-53575000D03*
X77070000Y-53575000D03*
D12*
X82150000Y-53575000D03*
D11*
X87230000Y-53575000D03*
D12*
X344087500Y-110725000D03*
D11*
X339007500Y-110725000D03*
X349167500Y-110725000D03*
X179463800Y-110725000D03*
X189623800Y-110725000D03*
D12*
X184543800Y-110725000D03*
X344087500Y-53575000D03*
D11*
X339007500Y-53575000D03*
X349167500Y-53575000D03*
X253282500Y-72625000D03*
D12*
X258362500Y-72625000D03*
D11*
X263442500Y-72625000D03*
X115170000Y-53575000D03*
D12*
X120250000Y-53575000D03*
D11*
X125330000Y-53575000D03*
X296780000Y-34525000D03*
X286620000Y-34525000D03*
D12*
X291700000Y-34525000D03*
X134537500Y-91675000D03*
D11*
X129457500Y-91675000D03*
X139617500Y-91675000D03*
X120567500Y-91675000D03*
X110407500Y-91675000D03*
D12*
X115487500Y-91675000D03*
D11*
X79451300Y-110725000D03*
D12*
X84531300Y-110725000D03*
D11*
X89611300Y-110725000D03*
X269951300Y-91675000D03*
D12*
X275031300Y-91675000D03*
D11*
X280111300Y-91675000D03*
D12*
X36906300Y-91675000D03*
D11*
X31826300Y-91675000D03*
X41986300Y-91675000D03*
X258680000Y-53575000D03*
D12*
X253600000Y-53575000D03*
D11*
X248520000Y-53575000D03*
D12*
X270268800Y-110725000D03*
D11*
X275348800Y-110725000D03*
X265188800Y-110725000D03*
X91992500Y-72625000D03*
X81832500Y-72625000D03*
D12*
X86912500Y-72625000D03*
D11*
X330117500Y-91675000D03*
X319957500Y-91675000D03*
D12*
X325037500Y-91675000D03*
M02*
