%TF.GenerationSoftware,KiCad,Pcbnew,(5.99.0-12974-ge12f9a194d)*%
%TF.CreationDate,2022-03-06T12:10:12+01:00*%
%TF.ProjectId,lazercut,6c617a65-7263-4757-942e-6b696361645f,rev?*%
%TF.SameCoordinates,Original*%
%TF.FileFunction,Profile,NP*%
%FSLAX46Y46*%
G04 Gerber Fmt 4.6, Leading zero omitted, Abs format (unit mm)*
G04 Created by KiCad (PCBNEW (5.99.0-12974-ge12f9a194d)) date 2022-03-06 12:10:12*
%MOMM*%
%LPD*%
G01*
G04 APERTURE LIST*
%TA.AperFunction,Profile*%
%ADD10C,0.200000*%
%TD*%
G04 APERTURE END LIST*
D10*
X20642085Y-124218570D02*
X20496035Y-124033890D01*
X356005235Y-20055010D02*
X356237235Y-20102010D01*
X22688475Y-20029010D02*
X22924125Y-20018010D01*
X22688475Y-125260360D02*
X22454225Y-125234180D01*
X356237235Y-125187330D02*
X356005235Y-125234180D01*
X22924125Y-20018010D02*
X355537235Y-20020010D01*
X358537235Y-122270000D02*
X358529235Y-122505660D01*
X22222705Y-20102010D02*
X22454225Y-20055010D01*
X358529235Y-22784010D02*
X358537235Y-23020010D01*
X21774845Y-20248010D02*
X21996715Y-20166010D01*
X20250745Y-123631510D02*
X20152885Y-123419280D01*
X20366495Y-21451010D02*
X20496035Y-21256010D01*
X19922765Y-122270000D02*
X19924145Y-23020010D01*
X357299235Y-124698100D02*
X357104235Y-124827640D01*
X20801955Y-124392210D02*
X20642085Y-124218570D01*
X20496035Y-124033890D02*
X20366495Y-123838200D01*
X21355925Y-124827640D02*
X21160245Y-124698100D01*
X19959945Y-22550010D02*
X20006835Y-22318010D01*
X19959945Y-122739940D02*
X19933775Y-122505660D01*
X21996715Y-20166010D02*
X22222705Y-20102010D01*
X358537235Y-23020010D02*
X358537235Y-122270000D01*
X20006835Y-22318010D02*
X20070195Y-22092010D01*
X357104235Y-20462010D02*
X357299235Y-20591010D01*
X21562615Y-124943420D02*
X21355925Y-124827640D01*
X357104235Y-124827640D02*
X356898235Y-124943420D01*
X355773235Y-125260360D02*
X355537235Y-125269990D01*
X20642085Y-21071010D02*
X20801955Y-20897010D01*
X358500235Y-22550010D02*
X358529235Y-22784010D01*
X21160245Y-124698100D02*
X20975595Y-124552050D01*
X21996715Y-125123940D02*
X21774845Y-125041250D01*
X357963235Y-21256010D02*
X358095235Y-21451010D01*
X358210235Y-123631510D02*
X358095235Y-123838200D01*
X20801955Y-20897010D02*
X20975595Y-20738010D01*
X20250745Y-21658010D02*
X20366495Y-21451010D01*
X357658235Y-124392210D02*
X357485235Y-124552050D01*
X358389235Y-22092010D02*
X358454235Y-22318010D01*
X358500235Y-122739940D02*
X358454235Y-122970050D01*
X357485235Y-124552050D02*
X357299235Y-124698100D01*
X358309235Y-21870010D02*
X358389235Y-22092010D01*
X20152885Y-123419280D02*
X20070195Y-123197420D01*
X356464235Y-125123940D02*
X356237235Y-125187330D01*
X20496035Y-21256010D02*
X20642085Y-21071010D01*
X358454235Y-122970050D02*
X358389235Y-123197420D01*
X356464235Y-20166010D02*
X356685235Y-20248010D01*
X20975595Y-124552050D02*
X20801955Y-124392210D01*
X357299235Y-20591010D02*
X357485235Y-20738010D01*
X358309235Y-123419280D02*
X358210235Y-123631510D01*
X22454225Y-125234180D02*
X22222705Y-125187330D01*
X358389235Y-123197420D02*
X358309235Y-123419280D01*
X20070195Y-123197420D02*
X20006835Y-122970050D01*
X356898235Y-124943420D02*
X356685235Y-125041250D01*
X20006835Y-122970050D02*
X19959945Y-122739940D01*
X357485235Y-20738010D02*
X357658235Y-20897010D01*
X356005235Y-125234180D02*
X355773235Y-125260360D01*
X358529235Y-122505660D02*
X358500235Y-122739940D01*
X358095235Y-123838200D02*
X357963235Y-124033890D01*
X22454225Y-20055010D02*
X22688475Y-20029010D01*
X356685235Y-20248010D02*
X356898235Y-20346010D01*
X20070195Y-22092010D02*
X20152885Y-21870010D01*
X357817235Y-124218570D02*
X357658235Y-124392210D01*
X19933775Y-122505660D02*
X19922765Y-122270000D01*
X19924145Y-23020010D02*
X19933775Y-22784010D01*
X21562615Y-20346010D02*
X21774845Y-20248010D01*
X21355925Y-20462010D02*
X21562615Y-20346010D01*
X20975595Y-20738010D02*
X21160245Y-20591010D01*
X21774845Y-125041250D02*
X21562615Y-124943420D01*
X22924125Y-125269990D02*
X22688475Y-125260360D01*
X357817235Y-21071010D02*
X357963235Y-21256010D01*
X355773235Y-20029010D02*
X356005235Y-20055010D01*
X358095235Y-21451010D02*
X358210235Y-21658010D01*
X19933775Y-22784010D02*
X19959945Y-22550010D01*
X357963235Y-124033890D02*
X357817235Y-124218570D01*
X355537235Y-20020010D02*
X355773235Y-20029010D01*
X21160245Y-20591010D02*
X21355925Y-20462010D01*
X20366495Y-123838200D02*
X20250745Y-123631510D01*
X356685235Y-125041250D02*
X356464235Y-125123940D01*
X355537235Y-125269990D02*
X22924125Y-125269990D01*
X357658235Y-20897010D02*
X357817235Y-21071010D01*
X358210235Y-21658010D02*
X358309235Y-21870010D01*
X356237235Y-20102010D02*
X356464235Y-20166010D01*
X20152885Y-21870010D02*
X20250745Y-21658010D01*
X22222705Y-125187330D02*
X21996715Y-125123940D01*
X358454235Y-22318010D02*
X358500235Y-22550010D01*
X356898235Y-20346010D02*
X357104235Y-20462010D01*
M02*
