M48
; DRILL file {KiCad (5.99.0-12974-ge12f9a194d)} date 2022 March 06, Sunday 12:10:06
; FORMAT={-:-/ absolute / inch / decimal}
; #@! TF.CreationDate,2022-03-06T12:10:06+01:00
; #@! TF.GenerationSoftware,Kicad,Pcbnew,(5.99.0-12974-ge12f9a194d)
; #@! TF.FileFunction,Plated,1,2,PTH
FMAT,2
INCH
; #@! TA.AperFunction,Plated,PTH,ViaDrill
T1C0.0157
; #@! TA.AperFunction,Plated,PTH,ComponentDrill
T2C0.0157
; #@! TA.AperFunction,Plated,PTH,ComponentDrill
T3C0.0430
; #@! TA.AperFunction,Plated,PTH,ComponentDrill
T4C0.1181
%
G90
G05
T1
X2.9894Y-3.0787
X6.293Y-3.1637
X7.3Y-2.3973
X8.0437Y-3.0994
X8.5904Y-3.8367
X8.6464Y-2.9838
X9.4979Y-3.5827
X10.8004Y-2.9814
X10.9026Y-3.8151
T2
X1.0093Y-1.2293
X1.0093Y-1.2893
X1.103Y-3.4793
X1.103Y-3.5393
X1.103Y-4.2293
X1.103Y-4.2893
X1.1968Y-1.9793
X1.1968Y-2.0393
X1.2905Y-2.7293
X1.2905Y-2.7893
X1.6593Y-1.1293
X1.6593Y-1.1893
X1.753Y-3.3793
X1.753Y-3.4393
X1.753Y-4.1293
X1.753Y-4.1893
X1.7593Y-1.2293
X1.7593Y-1.2893
X1.8468Y-1.8793
X1.8468Y-1.9393
X1.9405Y-2.6293
X1.9405Y-2.6893
X1.9468Y-3.4793
X1.9468Y-3.5393
X2.0405Y-4.2293
X2.0405Y-4.2893
X2.1343Y-1.9793
X2.1343Y-2.0393
X2.3218Y-2.7293
X2.3218Y-2.7893
X2.4093Y-1.1293
X2.4093Y-1.1893
X2.5093Y-1.2293
X2.5093Y-1.2893
X2.5968Y-3.3793
X2.5968Y-3.4393
X2.6905Y-4.1293
X2.6905Y-4.1893
X2.6968Y-3.4793
X2.6968Y-3.5393
X2.7843Y-1.8793
X2.7843Y-1.9393
X2.8843Y-1.9793
X2.8843Y-2.0393
X2.9718Y-2.6293
X2.9718Y-2.6893
X2.978Y-4.2293
X2.978Y-4.2893
X3.0718Y-2.7293
X3.0718Y-2.7893
X3.1593Y-1.1293
X3.1593Y-1.1893
X3.2593Y-1.2293
X3.2593Y-1.2893
X3.3468Y-3.3793
X3.3468Y-3.4393
X3.4468Y-3.4793
X3.4468Y-3.5393
X3.5343Y-1.8793
X3.5343Y-1.9393
X3.628Y-4.1293
X3.628Y-4.1893
X3.6343Y-1.9793
X3.6343Y-2.0393
X3.7218Y-2.6293
X3.7218Y-2.6893
X3.8218Y-2.7293
X3.8218Y-2.7893
X3.9093Y-1.1293
X3.9093Y-1.1893
X4.0093Y-1.2293
X4.0093Y-1.2893
X4.0968Y-3.3793
X4.0968Y-3.4393
X4.1968Y-3.4793
X4.1968Y-3.5393
X4.2843Y-1.8793
X4.2843Y-1.9393
X4.2905Y-4.2293
X4.2905Y-4.2893
X4.3843Y-1.9793
X4.3843Y-2.0393
X4.4718Y-2.6293
X4.4718Y-2.6893
X4.5718Y-2.7293
X4.5718Y-2.7893
X4.6593Y-1.1293
X4.6593Y-1.1893
X4.7593Y-1.2293
X4.7593Y-1.2893
X4.8468Y-3.3793
X4.8468Y-3.4393
X4.9405Y-4.1293
X4.9405Y-4.1893
X4.9468Y-3.4793
X4.9468Y-3.5393
X5.0343Y-1.8793
X5.0343Y-1.9393
X5.1343Y-1.9793
X5.1343Y-2.0393
X5.2218Y-2.6293
X5.2218Y-2.6893
X5.3218Y-2.7293
X5.3218Y-2.7893
X5.4093Y-1.1293
X5.4093Y-1.1893
X5.5093Y-1.2293
X5.5093Y-1.2893
X5.5093Y-4.2293
X5.5093Y-4.2893
X5.5968Y-3.3793
X5.5968Y-3.4393
X5.6968Y-3.4793
X5.6968Y-3.5393
X5.7843Y-1.8793
X5.7843Y-1.9393
X5.8843Y-1.9793
X5.8843Y-2.0393
X5.9718Y-2.6293
X5.9718Y-2.6893
X6.0718Y-2.7293
X6.0718Y-2.7893
X6.1593Y-1.1293
X6.1593Y-1.1893
X6.1593Y-4.1293
X6.1593Y-4.1893
X6.2593Y-1.2293
X6.2593Y-1.2893
X6.3468Y-3.3793
X6.3468Y-3.4393
X6.4468Y-3.4793
X6.4468Y-3.5393
X6.5343Y-1.8793
X6.5343Y-1.9393
X6.6343Y-1.9793
X6.6343Y-2.0393
X6.7218Y-2.6293
X6.7218Y-2.6893
X6.8218Y-2.7293
X6.8218Y-2.7893
X6.9093Y-1.1293
X6.9093Y-1.1893
X6.9155Y-4.2293
X6.9155Y-4.2893
X7.0093Y-1.2293
X7.0093Y-1.2893
X7.0968Y-3.3793
X7.0968Y-3.4393
X7.1968Y-3.4793
X7.1968Y-3.5393
X7.2843Y-1.8793
X7.2843Y-1.9393
X7.3843Y-1.9793
X7.3843Y-2.0393
X7.4718Y-2.6293
X7.4718Y-2.6893
X7.5655Y-4.1293
X7.5655Y-4.1893
X7.5718Y-2.7293
X7.5718Y-2.7893
X7.6593Y-1.1293
X7.6593Y-1.1893
X7.7593Y-1.2293
X7.7593Y-1.2893
X7.8468Y-3.3793
X7.8468Y-3.4393
X7.9468Y-3.4793
X7.9468Y-3.5393
X8.0343Y-1.8793
X8.0343Y-1.9393
X8.1343Y-1.9793
X8.1343Y-2.0393
X8.2218Y-2.6293
X8.2218Y-2.6893
X8.3218Y-2.7293
X8.3218Y-2.7893
X8.4093Y-1.1293
X8.4093Y-1.1893
X8.4155Y-4.2293
X8.4155Y-4.2893
X8.5093Y-1.2293
X8.5093Y-1.2893
X8.5968Y-3.3793
X8.5968Y-3.4393
X8.6968Y-3.4793
X8.6968Y-3.5393
X8.7843Y-1.8793
X8.7843Y-1.9393
X8.8843Y-1.9793
X8.8843Y-2.0393
X8.9718Y-2.6293
X8.9718Y-2.6893
X9.0655Y-4.1293
X9.0655Y-4.1893
X9.0718Y-2.7293
X9.0718Y-2.7893
X9.1593Y-1.1293
X9.1593Y-1.1893
X9.2593Y-1.2293
X9.2593Y-1.2893
X9.3468Y-3.3793
X9.3468Y-3.4393
X9.353Y-4.2293
X9.353Y-4.2893
X9.4468Y-3.4793
X9.4468Y-3.5393
X9.5343Y-1.8793
X9.5343Y-1.9393
X9.6343Y-1.9793
X9.6343Y-2.0393
X9.7218Y-2.6293
X9.7218Y-2.6893
X9.8218Y-2.7293
X9.8218Y-2.7893
X9.9093Y-1.1293
X9.9093Y-1.1893
X10.003Y-4.1293
X10.003Y-4.1893
X10.0093Y-1.2293
X10.0093Y-1.2893
X10.0968Y-3.3793
X10.0968Y-3.4393
X10.2843Y-1.8793
X10.2843Y-1.9393
X10.2905Y-4.2293
X10.2905Y-4.2893
X10.3843Y-1.9793
X10.3843Y-2.0393
X10.4718Y-2.6293
X10.4718Y-2.6893
X10.478Y-3.4793
X10.478Y-3.5393
X10.5718Y-2.7293
X10.5718Y-2.7893
X10.6593Y-1.1293
X10.6593Y-1.1893
X10.9405Y-4.1293
X10.9405Y-4.1893
X11.0343Y-1.8793
X11.0343Y-1.9393
X11.128Y-3.3793
X11.128Y-3.4393
X11.1343Y-1.2293
X11.1343Y-1.2893
X11.2218Y-2.6293
X11.2218Y-2.6893
X11.4155Y-2.3543
X11.4155Y-2.4143
X11.5093Y-3.4793
X11.5093Y-3.5393
X11.6968Y-4.2293
X11.6968Y-4.2893
X11.7843Y-1.1293
X11.7843Y-1.1893
X12.0655Y-2.2543
X12.0655Y-2.3143
X12.1593Y-3.3793
X12.1593Y-3.4393
X12.3468Y-4.1293
X12.3468Y-4.1893
X12.4468Y-1.2293
X12.4468Y-1.2893
X12.4468Y-1.9793
X12.4468Y-2.0393
X12.4468Y-3.4793
X12.4468Y-3.5393
X12.4468Y-4.2293
X12.4468Y-4.2893
X13.0968Y-1.1293
X13.0968Y-1.1893
X13.0968Y-1.8793
X13.0968Y-1.9393
X13.0968Y-3.3793
X13.0968Y-3.4393
X13.0968Y-4.1293
X13.0968Y-4.1893
X13.1968Y-1.2293
X13.1968Y-1.2893
X13.1968Y-1.9793
X13.1968Y-2.0393
X13.1968Y-4.2293
X13.1968Y-4.2893
X13.8468Y-1.1293
X13.8468Y-1.1893
X13.8468Y-1.8793
X13.8468Y-1.9393
X13.8468Y-4.1293
X13.8468Y-4.1893
T3
X12.65Y-2.569
X12.65Y-2.66
X12.65Y-2.76
X12.65Y-2.86
X12.65Y-2.96
X12.65Y-3.06
X12.65Y-3.16
X12.75Y-2.56
X12.75Y-3.16
X12.85Y-2.56
X12.85Y-3.16
X12.95Y-2.56
X12.95Y-3.16
X13.05Y-2.56
X13.05Y-3.16
X13.15Y-2.56
X13.15Y-3.16
X13.25Y-2.56
X13.25Y-3.16
X13.35Y-2.56
X13.35Y-3.16
X13.45Y-2.56
X13.45Y-3.16
X13.55Y-2.56
X13.55Y-3.16
X13.65Y-2.56
X13.65Y-3.16
X13.75Y-2.56
X13.75Y-3.16
T4
X1.2093Y-1.2593
X1.303Y-3.5093
X1.303Y-4.2593
X1.3968Y-2.0093
X1.4593Y-1.1593
X1.4905Y-2.7593
X1.553Y-3.4093
X1.553Y-4.1593
X1.6468Y-1.9093
X1.7405Y-2.6593
X1.9593Y-1.2593
X2.1468Y-3.5093
X2.2093Y-1.1593
X2.2405Y-4.2593
X2.3343Y-2.0093
X2.3968Y-3.4093
X2.4905Y-4.1593
X2.5218Y-2.7593
X2.5843Y-1.9093
X2.7093Y-1.2593
X2.7718Y-2.6593
X2.8968Y-3.5093
X2.9593Y-1.1593
X3.0843Y-2.0093
X3.1468Y-3.4093
X3.178Y-4.2593
X3.2718Y-2.7593
X3.3343Y-1.9093
X3.428Y-4.1593
X3.4593Y-1.2593
X3.5218Y-2.6593
X3.6468Y-3.5093
X3.7093Y-1.1593
X3.8343Y-2.0093
X3.8968Y-3.4093
X4.0218Y-2.7593
X4.0843Y-1.9093
X4.2093Y-1.2593
X4.2718Y-2.6593
X4.3968Y-3.5093
X4.4593Y-1.1593
X4.4905Y-4.2593
X4.5843Y-2.0093
X4.6468Y-3.4093
X4.7405Y-4.1593
X4.7718Y-2.7593
X4.8343Y-1.9093
X4.9593Y-1.2593
X5.0218Y-2.6593
X5.1468Y-3.5093
X5.2093Y-1.1593
X5.3343Y-2.0093
X5.3968Y-3.4093
X5.5218Y-2.7593
X5.5843Y-1.9093
X5.7093Y-1.2593
X5.7093Y-4.2593
X5.7718Y-2.6593
X5.8968Y-3.5093
X5.9593Y-1.1593
X5.9593Y-4.1593
X6.0843Y-2.0093
X6.1468Y-3.4093
X6.2718Y-2.7593
X6.3343Y-1.9093
X6.4593Y-1.2593
X6.5218Y-2.6593
X6.6468Y-3.5093
X6.7093Y-1.1593
X6.8343Y-2.0093
X6.8968Y-3.4093
X7.0218Y-2.7593
X7.0843Y-1.9093
X7.1155Y-4.2593
X7.2093Y-1.2593
X7.2718Y-2.6593
X7.3655Y-4.1593
X7.3968Y-3.5093
X7.4593Y-1.1593
X7.5843Y-2.0093
X7.6468Y-3.4093
X7.7718Y-2.7593
X7.8343Y-1.9093
X7.9593Y-1.2593
X8.0218Y-2.6593
X8.1468Y-3.5093
X8.2093Y-1.1593
X8.3343Y-2.0093
X8.3968Y-3.4093
X8.5218Y-2.7593
X8.5843Y-1.9093
X8.6155Y-4.2593
X8.7093Y-1.2593
X8.7718Y-2.6593
X8.8655Y-4.1593
X8.8968Y-3.5093
X8.9593Y-1.1593
X9.0843Y-2.0093
X9.1468Y-3.4093
X9.2718Y-2.7593
X9.3343Y-1.9093
X9.4593Y-1.2593
X9.5218Y-2.6593
X9.553Y-4.2593
X9.6468Y-3.5093
X9.7093Y-1.1593
X9.803Y-4.1593
X9.8343Y-2.0093
X9.8968Y-3.4093
X10.0218Y-2.7593
X10.0843Y-1.9093
X10.2093Y-1.2593
X10.2718Y-2.6593
X10.4593Y-1.1593
X10.4905Y-4.2593
X10.5843Y-2.0093
X10.678Y-3.5093
X10.7405Y-4.1593
X10.7718Y-2.7593
X10.8343Y-1.9093
X10.928Y-3.4093
X11.0218Y-2.6593
X11.3343Y-1.2593
X11.5843Y-1.1593
X11.6155Y-2.3843
X11.7093Y-3.5093
X11.8655Y-2.2843
X11.8968Y-4.2593
X11.9593Y-3.4093
X12.1468Y-4.1593
X12.6468Y-1.2593
X12.6468Y-2.0093
X12.6468Y-3.5093
X12.6468Y-4.2593
X12.8968Y-1.1593
X12.8968Y-1.9093
X12.8968Y-3.4093
X12.8968Y-4.1593
X13.3968Y-1.2593
X13.3968Y-2.0093
X13.3968Y-4.2593
X13.6468Y-1.1593
X13.6468Y-1.9093
X13.6468Y-4.1593
T0
M30
