%TF.GenerationSoftware,KiCad,Pcbnew,(5.99.0-12974-ge12f9a194d)*%
%TF.CreationDate,2022-03-06T12:10:11+01:00*%
%TF.ProjectId,lazercut,6c617a65-7263-4757-942e-6b696361645f,rev?*%
%TF.SameCoordinates,Original*%
%TF.FileFunction,Legend,Bot*%
%TF.FilePolarity,Positive*%
%FSLAX46Y46*%
G04 Gerber Fmt 4.6, Leading zero omitted, Abs format (unit mm)*
G04 Created by KiCad (PCBNEW (5.99.0-12974-ge12f9a194d)) date 2022-03-06 12:10:11*
%MOMM*%
%LPD*%
G01*
G04 APERTURE LIST*
%ADD10C,0.150000*%
%ADD11C,0.381000*%
%ADD12C,0.120000*%
%ADD13R,1.752600X1.752600*%
%ADD14C,1.752600*%
%ADD15C,2.200000*%
%ADD16C,1.750000*%
%ADD17C,3.987800*%
%ADD18R,2.550000X2.500000*%
%ADD19R,2.100000X1.400000*%
G04 APERTURE END LIST*
D10*
X341191904Y-77038333D02*
X341991904Y-77305000D01*
X341191904Y-77571666D01*
X341915714Y-78295476D02*
X341953809Y-78257380D01*
X341991904Y-78143095D01*
X341991904Y-78066904D01*
X341953809Y-77952619D01*
X341877619Y-77876428D01*
X341801428Y-77838333D01*
X341649047Y-77800238D01*
X341534761Y-77800238D01*
X341382380Y-77838333D01*
X341306190Y-77876428D01*
X341230000Y-77952619D01*
X341191904Y-78066904D01*
X341191904Y-78143095D01*
X341230000Y-78257380D01*
X341268095Y-78295476D01*
X341915714Y-79095476D02*
X341953809Y-79057380D01*
X341991904Y-78943095D01*
X341991904Y-78866904D01*
X341953809Y-78752619D01*
X341877619Y-78676428D01*
X341801428Y-78638333D01*
X341649047Y-78600238D01*
X341534761Y-78600238D01*
X341382380Y-78638333D01*
X341306190Y-78676428D01*
X341230000Y-78752619D01*
X341191904Y-78866904D01*
X341191904Y-78943095D01*
X341230000Y-79057380D01*
X341268095Y-79095476D01*
X329291904Y-66592523D02*
X328491904Y-66592523D01*
X328491904Y-66783000D01*
X328530000Y-66897285D01*
X328606190Y-66973476D01*
X328682380Y-67011571D01*
X328834761Y-67049666D01*
X328949047Y-67049666D01*
X329101428Y-67011571D01*
X329177619Y-66973476D01*
X329253809Y-66897285D01*
X329291904Y-66783000D01*
X329291904Y-66592523D01*
X328491904Y-67316333D02*
X328491904Y-67849666D01*
X329291904Y-67506809D01*
X323241904Y-69513523D02*
X322441904Y-69513523D01*
X322441904Y-69704000D01*
X322480000Y-69818285D01*
X322556190Y-69894476D01*
X322632380Y-69932571D01*
X322784761Y-69970666D01*
X322899047Y-69970666D01*
X323051428Y-69932571D01*
X323127619Y-69894476D01*
X323203809Y-69818285D01*
X323241904Y-69704000D01*
X323241904Y-69513523D01*
X322441904Y-70694476D02*
X322441904Y-70313523D01*
X322822857Y-70275428D01*
X322784761Y-70313523D01*
X322746666Y-70389714D01*
X322746666Y-70580190D01*
X322784761Y-70656380D01*
X322822857Y-70694476D01*
X322899047Y-70732571D01*
X323089523Y-70732571D01*
X323165714Y-70694476D01*
X323203809Y-70656380D01*
X323241904Y-70580190D01*
X323241904Y-70389714D01*
X323203809Y-70313523D01*
X323165714Y-70275428D01*
X331412857Y-77838333D02*
X331412857Y-77571666D01*
X331831904Y-77571666D02*
X331031904Y-77571666D01*
X331031904Y-77952619D01*
X331031904Y-78181190D02*
X331031904Y-78714523D01*
X331831904Y-78371666D01*
X336911904Y-66592523D02*
X336111904Y-66592523D01*
X336111904Y-66783000D01*
X336150000Y-66897285D01*
X336226190Y-66973476D01*
X336302380Y-67011571D01*
X336454761Y-67049666D01*
X336569047Y-67049666D01*
X336721428Y-67011571D01*
X336797619Y-66973476D01*
X336873809Y-66897285D01*
X336911904Y-66783000D01*
X336911904Y-66592523D01*
X336111904Y-67544904D02*
X336111904Y-67621095D01*
X336150000Y-67697285D01*
X336188095Y-67735380D01*
X336264285Y-67773476D01*
X336416666Y-67811571D01*
X336607142Y-67811571D01*
X336759523Y-67773476D01*
X336835714Y-67735380D01*
X336873809Y-67697285D01*
X336911904Y-67621095D01*
X336911904Y-67544904D01*
X336873809Y-67468714D01*
X336835714Y-67430619D01*
X336759523Y-67392523D01*
X336607142Y-67354428D01*
X336416666Y-67354428D01*
X336264285Y-67392523D01*
X336188095Y-67430619D01*
X336150000Y-67468714D01*
X336111904Y-67544904D01*
X331755714Y-67049666D02*
X331793809Y-67011571D01*
X331831904Y-66897285D01*
X331831904Y-66821095D01*
X331793809Y-66706809D01*
X331717619Y-66630619D01*
X331641428Y-66592523D01*
X331489047Y-66554428D01*
X331374761Y-66554428D01*
X331222380Y-66592523D01*
X331146190Y-66630619D01*
X331070000Y-66706809D01*
X331031904Y-66821095D01*
X331031904Y-66897285D01*
X331070000Y-67011571D01*
X331108095Y-67049666D01*
X331031904Y-67735380D02*
X331031904Y-67583000D01*
X331070000Y-67506809D01*
X331108095Y-67468714D01*
X331222380Y-67392523D01*
X331374761Y-67354428D01*
X331679523Y-67354428D01*
X331755714Y-67392523D01*
X331793809Y-67430619D01*
X331831904Y-67506809D01*
X331831904Y-67659190D01*
X331793809Y-67735380D01*
X331755714Y-67773476D01*
X331679523Y-67811571D01*
X331489047Y-67811571D01*
X331412857Y-67773476D01*
X331374761Y-67735380D01*
X331336666Y-67659190D01*
X331336666Y-67506809D01*
X331374761Y-67430619D01*
X331412857Y-67392523D01*
X331489047Y-67354428D01*
X322630000Y-67860666D02*
X322663333Y-67960666D01*
X322696666Y-67994000D01*
X322763333Y-68027333D01*
X322863333Y-68027333D01*
X322930000Y-67994000D01*
X322963333Y-67960666D01*
X322996666Y-67894000D01*
X322996666Y-67627333D01*
X322296666Y-67627333D01*
X322296666Y-67860666D01*
X322330000Y-67927333D01*
X322363333Y-67960666D01*
X322430000Y-67994000D01*
X322496666Y-67994000D01*
X322563333Y-67960666D01*
X322596666Y-67927333D01*
X322630000Y-67860666D01*
X322630000Y-67627333D01*
X322296666Y-68260666D02*
X322296666Y-68727333D01*
X322996666Y-68427333D01*
X326332857Y-77781190D02*
X326370952Y-77895476D01*
X326409047Y-77933571D01*
X326485238Y-77971666D01*
X326599523Y-77971666D01*
X326675714Y-77933571D01*
X326713809Y-77895476D01*
X326751904Y-77819285D01*
X326751904Y-77514523D01*
X325951904Y-77514523D01*
X325951904Y-77781190D01*
X325990000Y-77857380D01*
X326028095Y-77895476D01*
X326104285Y-77933571D01*
X326180476Y-77933571D01*
X326256666Y-77895476D01*
X326294761Y-77857380D01*
X326332857Y-77781190D01*
X326332857Y-77514523D01*
X325951904Y-78238333D02*
X325951904Y-78733571D01*
X326256666Y-78466904D01*
X326256666Y-78581190D01*
X326294761Y-78657380D01*
X326332857Y-78695476D01*
X326409047Y-78733571D01*
X326599523Y-78733571D01*
X326675714Y-78695476D01*
X326713809Y-78657380D01*
X326751904Y-78581190D01*
X326751904Y-78352619D01*
X326713809Y-78276428D01*
X326675714Y-78238333D01*
X346310000Y-77495476D02*
X346271904Y-77419285D01*
X346271904Y-77305000D01*
X346310000Y-77190714D01*
X346386190Y-77114523D01*
X346462380Y-77076428D01*
X346614761Y-77038333D01*
X346729047Y-77038333D01*
X346881428Y-77076428D01*
X346957619Y-77114523D01*
X347033809Y-77190714D01*
X347071904Y-77305000D01*
X347071904Y-77381190D01*
X347033809Y-77495476D01*
X346995714Y-77533571D01*
X346729047Y-77533571D01*
X346729047Y-77381190D01*
X347071904Y-77876428D02*
X346271904Y-77876428D01*
X347071904Y-78333571D01*
X346271904Y-78333571D01*
X347071904Y-78714523D02*
X346271904Y-78714523D01*
X346271904Y-78905000D01*
X346310000Y-79019285D01*
X346386190Y-79095476D01*
X346462380Y-79133571D01*
X346614761Y-79171666D01*
X346729047Y-79171666D01*
X346881428Y-79133571D01*
X346957619Y-79095476D01*
X347033809Y-79019285D01*
X347071904Y-78905000D01*
X347071904Y-78714523D01*
X348811904Y-66881651D02*
X348811904Y-67338794D01*
X349611904Y-67110223D02*
X348811904Y-67110223D01*
X348811904Y-67529270D02*
X349611904Y-68062604D01*
X348811904Y-68062604D02*
X349611904Y-67529270D01*
X348811904Y-68519747D02*
X348811904Y-68595937D01*
X348850000Y-68672128D01*
X348888095Y-68710223D01*
X348964285Y-68748318D01*
X349116666Y-68786413D01*
X349307142Y-68786413D01*
X349459523Y-68748318D01*
X349535714Y-68710223D01*
X349573809Y-68672128D01*
X349611904Y-68595937D01*
X349611904Y-68519747D01*
X349573809Y-68443556D01*
X349535714Y-68405461D01*
X349459523Y-68367366D01*
X349307142Y-68329270D01*
X349116666Y-68329270D01*
X348964285Y-68367366D01*
X348888095Y-68405461D01*
X348850000Y-68443556D01*
X348811904Y-68519747D01*
X348773809Y-69700699D02*
X349802380Y-69014985D01*
X349611904Y-69967366D02*
X348811904Y-69967366D01*
X348811904Y-70157842D01*
X348850000Y-70272128D01*
X348926190Y-70348318D01*
X349002380Y-70386413D01*
X349154761Y-70424508D01*
X349269047Y-70424508D01*
X349421428Y-70386413D01*
X349497619Y-70348318D01*
X349573809Y-70272128D01*
X349611904Y-70157842D01*
X349611904Y-69967366D01*
X348811904Y-70691175D02*
X348811904Y-71186413D01*
X349116666Y-70919747D01*
X349116666Y-71034032D01*
X349154761Y-71110223D01*
X349192857Y-71148318D01*
X349269047Y-71186413D01*
X349459523Y-71186413D01*
X349535714Y-71148318D01*
X349573809Y-71110223D01*
X349611904Y-71034032D01*
X349611904Y-70805461D01*
X349573809Y-70729270D01*
X349535714Y-70691175D01*
X344513809Y-77150666D02*
X344551904Y-77264952D01*
X344551904Y-77455428D01*
X344513809Y-77531619D01*
X344475714Y-77569714D01*
X344399523Y-77607809D01*
X344323333Y-77607809D01*
X344247142Y-77569714D01*
X344209047Y-77531619D01*
X344170952Y-77455428D01*
X344132857Y-77303047D01*
X344094761Y-77226857D01*
X344056666Y-77188761D01*
X343980476Y-77150666D01*
X343904285Y-77150666D01*
X343828095Y-77188761D01*
X343790000Y-77226857D01*
X343751904Y-77303047D01*
X343751904Y-77493523D01*
X343790000Y-77607809D01*
X343751904Y-77836380D02*
X343751904Y-78293523D01*
X344551904Y-78064952D02*
X343751904Y-78064952D01*
X326332857Y-66630619D02*
X326332857Y-66897285D01*
X326751904Y-67011571D02*
X326751904Y-66630619D01*
X325951904Y-66630619D01*
X325951904Y-67011571D01*
X325951904Y-67697285D02*
X325951904Y-67544904D01*
X325990000Y-67468714D01*
X326028095Y-67430619D01*
X326142380Y-67354428D01*
X326294761Y-67316333D01*
X326599523Y-67316333D01*
X326675714Y-67354428D01*
X326713809Y-67392523D01*
X326751904Y-67468714D01*
X326751904Y-67621095D01*
X326713809Y-67697285D01*
X326675714Y-67735380D01*
X326599523Y-67773476D01*
X326409047Y-67773476D01*
X326332857Y-67735380D01*
X326294761Y-67697285D01*
X326256666Y-67621095D01*
X326256666Y-67468714D01*
X326294761Y-67392523D01*
X326332857Y-67354428D01*
X326409047Y-67316333D01*
X333952857Y-77838333D02*
X333952857Y-77571666D01*
X334371904Y-77571666D02*
X333571904Y-77571666D01*
X333571904Y-77952619D01*
X333571904Y-78600238D02*
X333571904Y-78447857D01*
X333610000Y-78371666D01*
X333648095Y-78333571D01*
X333762380Y-78257380D01*
X333914761Y-78219285D01*
X334219523Y-78219285D01*
X334295714Y-78257380D01*
X334333809Y-78295476D01*
X334371904Y-78371666D01*
X334371904Y-78524047D01*
X334333809Y-78600238D01*
X334295714Y-78638333D01*
X334219523Y-78676428D01*
X334029047Y-78676428D01*
X333952857Y-78638333D01*
X333914761Y-78600238D01*
X333876666Y-78524047D01*
X333876666Y-78371666D01*
X333914761Y-78295476D01*
X333952857Y-78257380D01*
X334029047Y-78219285D01*
X322815702Y-79208991D02*
X322721421Y-79161851D01*
X322674280Y-79161851D01*
X322603570Y-79185421D01*
X322532859Y-79256132D01*
X322509289Y-79326842D01*
X322509289Y-79373983D01*
X322532859Y-79444693D01*
X322721421Y-79633255D01*
X323216396Y-79138280D01*
X323051404Y-78973289D01*
X322980693Y-78949719D01*
X322933553Y-78949719D01*
X322862842Y-78973289D01*
X322815702Y-79020429D01*
X322792132Y-79091140D01*
X322792132Y-79138280D01*
X322815702Y-79208991D01*
X322980693Y-79373983D01*
X322509289Y-78431174D02*
X322603570Y-78525455D01*
X322627140Y-78596165D01*
X322627140Y-78643306D01*
X322603570Y-78761157D01*
X322532859Y-78879008D01*
X322344297Y-79067570D01*
X322273587Y-79091140D01*
X322226446Y-79091140D01*
X322155735Y-79067570D01*
X322061455Y-78973289D01*
X322037884Y-78902578D01*
X322037884Y-78855438D01*
X322061455Y-78784727D01*
X322179306Y-78666876D01*
X322250016Y-78643306D01*
X322297157Y-78643306D01*
X322367867Y-78666876D01*
X322462148Y-78761157D01*
X322485719Y-78831867D01*
X322485719Y-78879008D01*
X322462148Y-78949719D01*
X323792857Y-66859190D02*
X323830952Y-66973476D01*
X323869047Y-67011571D01*
X323945238Y-67049666D01*
X324059523Y-67049666D01*
X324135714Y-67011571D01*
X324173809Y-66973476D01*
X324211904Y-66897285D01*
X324211904Y-66592523D01*
X323411904Y-66592523D01*
X323411904Y-66859190D01*
X323450000Y-66935380D01*
X323488095Y-66973476D01*
X323564285Y-67011571D01*
X323640476Y-67011571D01*
X323716666Y-66973476D01*
X323754761Y-66935380D01*
X323792857Y-66859190D01*
X323792857Y-66592523D01*
X323678571Y-67735380D02*
X324211904Y-67735380D01*
X323373809Y-67544904D02*
X323945238Y-67354428D01*
X323945238Y-67849666D01*
X322744991Y-66008297D02*
X322697851Y-66102578D01*
X322697851Y-66149719D01*
X322721421Y-66220429D01*
X322792132Y-66291140D01*
X322862842Y-66314710D01*
X322909983Y-66314710D01*
X322980693Y-66291140D01*
X323169255Y-66102578D01*
X322674280Y-65607603D01*
X322509289Y-65772595D01*
X322485719Y-65843306D01*
X322485719Y-65890446D01*
X322509289Y-65961157D01*
X322556429Y-66008297D01*
X322627140Y-66031867D01*
X322674280Y-66031867D01*
X322744991Y-66008297D01*
X322909983Y-65843306D01*
X321943603Y-66338280D02*
X322179306Y-66102578D01*
X322438578Y-66314710D01*
X322391438Y-66314710D01*
X322320727Y-66338280D01*
X322202876Y-66456132D01*
X322179306Y-66526842D01*
X322179306Y-66573983D01*
X322202876Y-66644693D01*
X322320727Y-66762544D01*
X322391438Y-66786115D01*
X322438578Y-66786115D01*
X322509289Y-66762544D01*
X322627140Y-66644693D01*
X322650710Y-66573983D01*
X322650710Y-66526842D01*
X336492857Y-77838333D02*
X336492857Y-77571666D01*
X336911904Y-77571666D02*
X336111904Y-77571666D01*
X336111904Y-77952619D01*
X336111904Y-78638333D02*
X336111904Y-78257380D01*
X336492857Y-78219285D01*
X336454761Y-78257380D01*
X336416666Y-78333571D01*
X336416666Y-78524047D01*
X336454761Y-78600238D01*
X336492857Y-78638333D01*
X336569047Y-78676428D01*
X336759523Y-78676428D01*
X336835714Y-78638333D01*
X336873809Y-78600238D01*
X336911904Y-78524047D01*
X336911904Y-78333571D01*
X336873809Y-78257380D01*
X336835714Y-78219285D01*
X334371904Y-66592523D02*
X333571904Y-66592523D01*
X333571904Y-66783000D01*
X333610000Y-66897285D01*
X333686190Y-66973476D01*
X333762380Y-67011571D01*
X333914761Y-67049666D01*
X334029047Y-67049666D01*
X334181428Y-67011571D01*
X334257619Y-66973476D01*
X334333809Y-66897285D01*
X334371904Y-66783000D01*
X334371904Y-66592523D01*
X333838571Y-67735380D02*
X334371904Y-67735380D01*
X333533809Y-67544904D02*
X334105238Y-67354428D01*
X334105238Y-67849666D01*
X328872857Y-77781190D02*
X328910952Y-77895476D01*
X328949047Y-77933571D01*
X329025238Y-77971666D01*
X329139523Y-77971666D01*
X329215714Y-77933571D01*
X329253809Y-77895476D01*
X329291904Y-77819285D01*
X329291904Y-77514523D01*
X328491904Y-77514523D01*
X328491904Y-77781190D01*
X328530000Y-77857380D01*
X328568095Y-77895476D01*
X328644285Y-77933571D01*
X328720476Y-77933571D01*
X328796666Y-77895476D01*
X328834761Y-77857380D01*
X328872857Y-77781190D01*
X328872857Y-77514523D01*
X329291904Y-78733571D02*
X329291904Y-78276428D01*
X329291904Y-78505000D02*
X328491904Y-78505000D01*
X328606190Y-78428809D01*
X328682380Y-78352619D01*
X328720476Y-78276428D01*
X349192857Y-77781190D02*
X349230952Y-77895476D01*
X349269047Y-77933571D01*
X349345238Y-77971666D01*
X349459523Y-77971666D01*
X349535714Y-77933571D01*
X349573809Y-77895476D01*
X349611904Y-77819285D01*
X349611904Y-77514523D01*
X348811904Y-77514523D01*
X348811904Y-77781190D01*
X348850000Y-77857380D01*
X348888095Y-77895476D01*
X348964285Y-77933571D01*
X349040476Y-77933571D01*
X349116666Y-77895476D01*
X349154761Y-77857380D01*
X349192857Y-77781190D01*
X349192857Y-77514523D01*
X348811904Y-78466904D02*
X348811904Y-78543095D01*
X348850000Y-78619285D01*
X348888095Y-78657380D01*
X348964285Y-78695476D01*
X349116666Y-78733571D01*
X349307142Y-78733571D01*
X349459523Y-78695476D01*
X349535714Y-78657380D01*
X349573809Y-78619285D01*
X349611904Y-78543095D01*
X349611904Y-78466904D01*
X349573809Y-78390714D01*
X349535714Y-78352619D01*
X349459523Y-78314523D01*
X349307142Y-78276428D01*
X349116666Y-78276428D01*
X348964285Y-78314523D01*
X348888095Y-78352619D01*
X348850000Y-78390714D01*
X348811904Y-78466904D01*
X323792857Y-77781190D02*
X323830952Y-77895476D01*
X323869047Y-77933571D01*
X323945238Y-77971666D01*
X324059523Y-77971666D01*
X324135714Y-77933571D01*
X324173809Y-77895476D01*
X324211904Y-77819285D01*
X324211904Y-77514523D01*
X323411904Y-77514523D01*
X323411904Y-77781190D01*
X323450000Y-77857380D01*
X323488095Y-77895476D01*
X323564285Y-77933571D01*
X323640476Y-77933571D01*
X323716666Y-77895476D01*
X323754761Y-77857380D01*
X323792857Y-77781190D01*
X323792857Y-77514523D01*
X323488095Y-78276428D02*
X323450000Y-78314523D01*
X323411904Y-78390714D01*
X323411904Y-78581190D01*
X323450000Y-78657380D01*
X323488095Y-78695476D01*
X323564285Y-78733571D01*
X323640476Y-78733571D01*
X323754761Y-78695476D01*
X324211904Y-78238333D01*
X324211904Y-78733571D01*
X343770000Y-66573476D02*
X343731904Y-66497285D01*
X343731904Y-66383000D01*
X343770000Y-66268714D01*
X343846190Y-66192523D01*
X343922380Y-66154428D01*
X344074761Y-66116333D01*
X344189047Y-66116333D01*
X344341428Y-66154428D01*
X344417619Y-66192523D01*
X344493809Y-66268714D01*
X344531904Y-66383000D01*
X344531904Y-66459190D01*
X344493809Y-66573476D01*
X344455714Y-66611571D01*
X344189047Y-66611571D01*
X344189047Y-66459190D01*
X344531904Y-66954428D02*
X343731904Y-66954428D01*
X344531904Y-67411571D01*
X343731904Y-67411571D01*
X344531904Y-67792523D02*
X343731904Y-67792523D01*
X343731904Y-67983000D01*
X343770000Y-68097285D01*
X343846190Y-68173476D01*
X343922380Y-68211571D01*
X344074761Y-68249666D01*
X344189047Y-68249666D01*
X344341428Y-68211571D01*
X344417619Y-68173476D01*
X344493809Y-68097285D01*
X344531904Y-67983000D01*
X344531904Y-67792523D01*
X339032857Y-77838333D02*
X339032857Y-77571666D01*
X339451904Y-77571666D02*
X338651904Y-77571666D01*
X338651904Y-77952619D01*
X338918571Y-78600238D02*
X339451904Y-78600238D01*
X338613809Y-78409761D02*
X339185238Y-78219285D01*
X339185238Y-78714523D01*
X323165714Y-72510666D02*
X323203809Y-72472571D01*
X323241904Y-72358285D01*
X323241904Y-72282095D01*
X323203809Y-72167809D01*
X323127619Y-72091619D01*
X323051428Y-72053523D01*
X322899047Y-72015428D01*
X322784761Y-72015428D01*
X322632380Y-72053523D01*
X322556190Y-72091619D01*
X322480000Y-72167809D01*
X322441904Y-72282095D01*
X322441904Y-72358285D01*
X322480000Y-72472571D01*
X322518095Y-72510666D01*
X322441904Y-72777333D02*
X322441904Y-73310666D01*
X323241904Y-72967809D01*
X347071904Y-66592523D02*
X346271904Y-66592523D01*
X346271904Y-66783000D01*
X346310000Y-66897285D01*
X346386190Y-66973476D01*
X346462380Y-67011571D01*
X346614761Y-67049666D01*
X346729047Y-67049666D01*
X346881428Y-67011571D01*
X346957619Y-66973476D01*
X347033809Y-66897285D01*
X347071904Y-66783000D01*
X347071904Y-66592523D01*
X346348095Y-67354428D02*
X346310000Y-67392523D01*
X346271904Y-67468714D01*
X346271904Y-67659190D01*
X346310000Y-67735380D01*
X346348095Y-67773476D01*
X346424285Y-67811571D01*
X346500476Y-67811571D01*
X346614761Y-67773476D01*
X347071904Y-67316333D01*
X347071904Y-67811571D01*
X322822857Y-74917333D02*
X322822857Y-74650666D01*
X323241904Y-74650666D02*
X322441904Y-74650666D01*
X322441904Y-75031619D01*
X323241904Y-75755428D02*
X323241904Y-75298285D01*
X323241904Y-75526857D02*
X322441904Y-75526857D01*
X322556190Y-75450666D01*
X322632380Y-75374476D01*
X322670476Y-75298285D01*
X339451904Y-66592523D02*
X338651904Y-66592523D01*
X338651904Y-66783000D01*
X338690000Y-66897285D01*
X338766190Y-66973476D01*
X338842380Y-67011571D01*
X338994761Y-67049666D01*
X339109047Y-67049666D01*
X339261428Y-67011571D01*
X339337619Y-66973476D01*
X339413809Y-66897285D01*
X339451904Y-66783000D01*
X339451904Y-66592523D01*
X339451904Y-67811571D02*
X339451904Y-67354428D01*
X339451904Y-67583000D02*
X338651904Y-67583000D01*
X338766190Y-67506809D01*
X338842380Y-67430619D01*
X338880476Y-67354428D01*
X322630000Y-76910666D02*
X322630000Y-76677333D01*
X322996666Y-76677333D02*
X322296666Y-76677333D01*
X322296666Y-77010666D01*
X322296666Y-77410666D02*
X322296666Y-77477333D01*
X322330000Y-77544000D01*
X322363333Y-77577333D01*
X322430000Y-77610666D01*
X322563333Y-77644000D01*
X322730000Y-77644000D01*
X322863333Y-77610666D01*
X322930000Y-77577333D01*
X322963333Y-77544000D01*
X322996666Y-77477333D01*
X322996666Y-77410666D01*
X322963333Y-77344000D01*
X322930000Y-77310666D01*
X322863333Y-77277333D01*
X322730000Y-77244000D01*
X322563333Y-77244000D01*
X322430000Y-77277333D01*
X322363333Y-77310666D01*
X322330000Y-77344000D01*
X322296666Y-77410666D01*
X341230000Y-66573476D02*
X341191904Y-66497285D01*
X341191904Y-66383000D01*
X341230000Y-66268714D01*
X341306190Y-66192523D01*
X341382380Y-66154428D01*
X341534761Y-66116333D01*
X341649047Y-66116333D01*
X341801428Y-66154428D01*
X341877619Y-66192523D01*
X341953809Y-66268714D01*
X341991904Y-66383000D01*
X341991904Y-66459190D01*
X341953809Y-66573476D01*
X341915714Y-66611571D01*
X341649047Y-66611571D01*
X341649047Y-66459190D01*
X341991904Y-66954428D02*
X341191904Y-66954428D01*
X341991904Y-67411571D01*
X341191904Y-67411571D01*
X341991904Y-67792523D02*
X341191904Y-67792523D01*
X341191904Y-67983000D01*
X341230000Y-68097285D01*
X341306190Y-68173476D01*
X341382380Y-68211571D01*
X341534761Y-68249666D01*
X341649047Y-68249666D01*
X341801428Y-68211571D01*
X341877619Y-68173476D01*
X341953809Y-68097285D01*
X341991904Y-67983000D01*
X341991904Y-67792523D01*
X309519880Y-113540714D02*
X308519880Y-113540714D01*
X308519880Y-113778809D01*
X308567500Y-113921666D01*
X308662738Y-114016904D01*
X308757976Y-114064523D01*
X308948452Y-114112142D01*
X309091309Y-114112142D01*
X309281785Y-114064523D01*
X309377023Y-114016904D01*
X309472261Y-113921666D01*
X309519880Y-113778809D01*
X309519880Y-113540714D01*
X308519880Y-114445476D02*
X308519880Y-115112142D01*
X309519880Y-114683571D01*
X308519880Y-115683571D02*
X308519880Y-115778809D01*
X308567500Y-115874047D01*
X308615119Y-115921666D01*
X308710357Y-115969285D01*
X308900833Y-116016904D01*
X309138928Y-116016904D01*
X309329404Y-115969285D01*
X309424642Y-115921666D01*
X309472261Y-115874047D01*
X309519880Y-115778809D01*
X309519880Y-115683571D01*
X309472261Y-115588333D01*
X309424642Y-115540714D01*
X309329404Y-115493095D01*
X309138928Y-115445476D01*
X308900833Y-115445476D01*
X308710357Y-115493095D01*
X308615119Y-115540714D01*
X308567500Y-115588333D01*
X308519880Y-115683571D01*
X266657380Y-37340714D02*
X265657380Y-37340714D01*
X265657380Y-37578809D01*
X265705000Y-37721666D01*
X265800238Y-37816904D01*
X265895476Y-37864523D01*
X266085952Y-37912142D01*
X266228809Y-37912142D01*
X266419285Y-37864523D01*
X266514523Y-37816904D01*
X266609761Y-37721666D01*
X266657380Y-37578809D01*
X266657380Y-37340714D01*
X266657380Y-38864523D02*
X266657380Y-38293095D01*
X266657380Y-38578809D02*
X265657380Y-38578809D01*
X265800238Y-38483571D01*
X265895476Y-38388333D01*
X265943095Y-38293095D01*
X265657380Y-39197857D02*
X265657380Y-39816904D01*
X266038333Y-39483571D01*
X266038333Y-39626428D01*
X266085952Y-39721666D01*
X266133571Y-39769285D01*
X266228809Y-39816904D01*
X266466904Y-39816904D01*
X266562142Y-39769285D01*
X266609761Y-39721666D01*
X266657380Y-39626428D01*
X266657380Y-39340714D01*
X266609761Y-39245476D01*
X266562142Y-39197857D01*
X347619880Y-113540714D02*
X346619880Y-113540714D01*
X346619880Y-113778809D01*
X346667500Y-113921666D01*
X346762738Y-114016904D01*
X346857976Y-114064523D01*
X347048452Y-114112142D01*
X347191309Y-114112142D01*
X347381785Y-114064523D01*
X347477023Y-114016904D01*
X347572261Y-113921666D01*
X347619880Y-113778809D01*
X347619880Y-113540714D01*
X346619880Y-114445476D02*
X346619880Y-115112142D01*
X347619880Y-114683571D01*
X346715119Y-115445476D02*
X346667500Y-115493095D01*
X346619880Y-115588333D01*
X346619880Y-115826428D01*
X346667500Y-115921666D01*
X346715119Y-115969285D01*
X346810357Y-116016904D01*
X346905595Y-116016904D01*
X347048452Y-115969285D01*
X347619880Y-115397857D01*
X347619880Y-116016904D01*
X147594880Y-75440714D02*
X146594880Y-75440714D01*
X146594880Y-75678809D01*
X146642500Y-75821666D01*
X146737738Y-75916904D01*
X146832976Y-75964523D01*
X147023452Y-76012142D01*
X147166309Y-76012142D01*
X147356785Y-75964523D01*
X147452023Y-75916904D01*
X147547261Y-75821666D01*
X147594880Y-75678809D01*
X147594880Y-75440714D01*
X146594880Y-76345476D02*
X146594880Y-76964523D01*
X146975833Y-76631190D01*
X146975833Y-76774047D01*
X147023452Y-76869285D01*
X147071071Y-76916904D01*
X147166309Y-76964523D01*
X147404404Y-76964523D01*
X147499642Y-76916904D01*
X147547261Y-76869285D01*
X147594880Y-76774047D01*
X147594880Y-76488333D01*
X147547261Y-76393095D01*
X147499642Y-76345476D01*
X147023452Y-77535952D02*
X146975833Y-77440714D01*
X146928214Y-77393095D01*
X146832976Y-77345476D01*
X146785357Y-77345476D01*
X146690119Y-77393095D01*
X146642500Y-77440714D01*
X146594880Y-77535952D01*
X146594880Y-77726428D01*
X146642500Y-77821666D01*
X146690119Y-77869285D01*
X146785357Y-77916904D01*
X146832976Y-77916904D01*
X146928214Y-77869285D01*
X146975833Y-77821666D01*
X147023452Y-77726428D01*
X147023452Y-77535952D01*
X147071071Y-77440714D01*
X147118690Y-77393095D01*
X147213928Y-77345476D01*
X147404404Y-77345476D01*
X147499642Y-77393095D01*
X147547261Y-77440714D01*
X147594880Y-77535952D01*
X147594880Y-77726428D01*
X147547261Y-77821666D01*
X147499642Y-77869285D01*
X147404404Y-77916904D01*
X147213928Y-77916904D01*
X147118690Y-77869285D01*
X147071071Y-77821666D01*
X147023452Y-77726428D01*
X80919880Y-94490714D02*
X79919880Y-94490714D01*
X79919880Y-94728809D01*
X79967500Y-94871666D01*
X80062738Y-94966904D01*
X80157976Y-95014523D01*
X80348452Y-95062142D01*
X80491309Y-95062142D01*
X80681785Y-95014523D01*
X80777023Y-94966904D01*
X80872261Y-94871666D01*
X80919880Y-94728809D01*
X80919880Y-94490714D01*
X80253214Y-95919285D02*
X80919880Y-95919285D01*
X79872261Y-95681190D02*
X80586547Y-95443095D01*
X80586547Y-96062142D01*
X80348452Y-96585952D02*
X80300833Y-96490714D01*
X80253214Y-96443095D01*
X80157976Y-96395476D01*
X80110357Y-96395476D01*
X80015119Y-96443095D01*
X79967500Y-96490714D01*
X79919880Y-96585952D01*
X79919880Y-96776428D01*
X79967500Y-96871666D01*
X80015119Y-96919285D01*
X80110357Y-96966904D01*
X80157976Y-96966904D01*
X80253214Y-96919285D01*
X80300833Y-96871666D01*
X80348452Y-96776428D01*
X80348452Y-96585952D01*
X80396071Y-96490714D01*
X80443690Y-96443095D01*
X80538928Y-96395476D01*
X80729404Y-96395476D01*
X80824642Y-96443095D01*
X80872261Y-96490714D01*
X80919880Y-96585952D01*
X80919880Y-96776428D01*
X80872261Y-96871666D01*
X80824642Y-96919285D01*
X80729404Y-96966904D01*
X80538928Y-96966904D01*
X80443690Y-96919285D01*
X80396071Y-96871666D01*
X80348452Y-96776428D01*
X57107380Y-37816904D02*
X56107380Y-37816904D01*
X56107380Y-38055000D01*
X56155000Y-38197857D01*
X56250238Y-38293095D01*
X56345476Y-38340714D01*
X56535952Y-38388333D01*
X56678809Y-38388333D01*
X56869285Y-38340714D01*
X56964523Y-38293095D01*
X57059761Y-38197857D01*
X57107380Y-38055000D01*
X57107380Y-37816904D01*
X56202619Y-38769285D02*
X56155000Y-38816904D01*
X56107380Y-38912142D01*
X56107380Y-39150238D01*
X56155000Y-39245476D01*
X56202619Y-39293095D01*
X56297857Y-39340714D01*
X56393095Y-39340714D01*
X56535952Y-39293095D01*
X57107380Y-38721666D01*
X57107380Y-39340714D01*
X228557380Y-37340714D02*
X227557380Y-37340714D01*
X227557380Y-37578809D01*
X227605000Y-37721666D01*
X227700238Y-37816904D01*
X227795476Y-37864523D01*
X227985952Y-37912142D01*
X228128809Y-37912142D01*
X228319285Y-37864523D01*
X228414523Y-37816904D01*
X228509761Y-37721666D01*
X228557380Y-37578809D01*
X228557380Y-37340714D01*
X228557380Y-38864523D02*
X228557380Y-38293095D01*
X228557380Y-38578809D02*
X227557380Y-38578809D01*
X227700238Y-38483571D01*
X227795476Y-38388333D01*
X227843095Y-38293095D01*
X228557380Y-39816904D02*
X228557380Y-39245476D01*
X228557380Y-39531190D02*
X227557380Y-39531190D01*
X227700238Y-39435952D01*
X227795476Y-39340714D01*
X227843095Y-39245476D01*
X295232380Y-37340714D02*
X294232380Y-37340714D01*
X294232380Y-37578809D01*
X294280000Y-37721666D01*
X294375238Y-37816904D01*
X294470476Y-37864523D01*
X294660952Y-37912142D01*
X294803809Y-37912142D01*
X294994285Y-37864523D01*
X295089523Y-37816904D01*
X295184761Y-37721666D01*
X295232380Y-37578809D01*
X295232380Y-37340714D01*
X295232380Y-38864523D02*
X295232380Y-38293095D01*
X295232380Y-38578809D02*
X294232380Y-38578809D01*
X294375238Y-38483571D01*
X294470476Y-38388333D01*
X294518095Y-38293095D01*
X294565714Y-39721666D02*
X295232380Y-39721666D01*
X294184761Y-39483571D02*
X294899047Y-39245476D01*
X294899047Y-39864523D01*
X328569880Y-37340714D02*
X327569880Y-37340714D01*
X327569880Y-37578809D01*
X327617500Y-37721666D01*
X327712738Y-37816904D01*
X327807976Y-37864523D01*
X327998452Y-37912142D01*
X328141309Y-37912142D01*
X328331785Y-37864523D01*
X328427023Y-37816904D01*
X328522261Y-37721666D01*
X328569880Y-37578809D01*
X328569880Y-37340714D01*
X328569880Y-38864523D02*
X328569880Y-38293095D01*
X328569880Y-38578809D02*
X327569880Y-38578809D01*
X327712738Y-38483571D01*
X327807976Y-38388333D01*
X327855595Y-38293095D01*
X327569880Y-39769285D02*
X327569880Y-39293095D01*
X328046071Y-39245476D01*
X327998452Y-39293095D01*
X327950833Y-39388333D01*
X327950833Y-39626428D01*
X327998452Y-39721666D01*
X328046071Y-39769285D01*
X328141309Y-39816904D01*
X328379404Y-39816904D01*
X328474642Y-39769285D01*
X328522261Y-39721666D01*
X328569880Y-39626428D01*
X328569880Y-39388333D01*
X328522261Y-39293095D01*
X328474642Y-39245476D01*
X195219880Y-94490714D02*
X194219880Y-94490714D01*
X194219880Y-94728809D01*
X194267500Y-94871666D01*
X194362738Y-94966904D01*
X194457976Y-95014523D01*
X194648452Y-95062142D01*
X194791309Y-95062142D01*
X194981785Y-95014523D01*
X195077023Y-94966904D01*
X195172261Y-94871666D01*
X195219880Y-94728809D01*
X195219880Y-94490714D01*
X194219880Y-95966904D02*
X194219880Y-95490714D01*
X194696071Y-95443095D01*
X194648452Y-95490714D01*
X194600833Y-95585952D01*
X194600833Y-95824047D01*
X194648452Y-95919285D01*
X194696071Y-95966904D01*
X194791309Y-96014523D01*
X195029404Y-96014523D01*
X195124642Y-95966904D01*
X195172261Y-95919285D01*
X195219880Y-95824047D01*
X195219880Y-95585952D01*
X195172261Y-95490714D01*
X195124642Y-95443095D01*
X194553214Y-96871666D02*
X195219880Y-96871666D01*
X194172261Y-96633571D02*
X194886547Y-96395476D01*
X194886547Y-97014523D01*
X180932380Y-56390714D02*
X179932380Y-56390714D01*
X179932380Y-56628809D01*
X179980000Y-56771666D01*
X180075238Y-56866904D01*
X180170476Y-56914523D01*
X180360952Y-56962142D01*
X180503809Y-56962142D01*
X180694285Y-56914523D01*
X180789523Y-56866904D01*
X180884761Y-56771666D01*
X180932380Y-56628809D01*
X180932380Y-56390714D01*
X180027619Y-57343095D02*
X179980000Y-57390714D01*
X179932380Y-57485952D01*
X179932380Y-57724047D01*
X179980000Y-57819285D01*
X180027619Y-57866904D01*
X180122857Y-57914523D01*
X180218095Y-57914523D01*
X180360952Y-57866904D01*
X180932380Y-57295476D01*
X180932380Y-57914523D01*
X180265714Y-58771666D02*
X180932380Y-58771666D01*
X179884761Y-58533571D02*
X180599047Y-58295476D01*
X180599047Y-58914523D01*
X257132380Y-56390714D02*
X256132380Y-56390714D01*
X256132380Y-56628809D01*
X256180000Y-56771666D01*
X256275238Y-56866904D01*
X256370476Y-56914523D01*
X256560952Y-56962142D01*
X256703809Y-56962142D01*
X256894285Y-56914523D01*
X256989523Y-56866904D01*
X257084761Y-56771666D01*
X257132380Y-56628809D01*
X257132380Y-56390714D01*
X256227619Y-57343095D02*
X256180000Y-57390714D01*
X256132380Y-57485952D01*
X256132380Y-57724047D01*
X256180000Y-57819285D01*
X256227619Y-57866904D01*
X256322857Y-57914523D01*
X256418095Y-57914523D01*
X256560952Y-57866904D01*
X257132380Y-57295476D01*
X257132380Y-57914523D01*
X256560952Y-58485952D02*
X256513333Y-58390714D01*
X256465714Y-58343095D01*
X256370476Y-58295476D01*
X256322857Y-58295476D01*
X256227619Y-58343095D01*
X256180000Y-58390714D01*
X256132380Y-58485952D01*
X256132380Y-58676428D01*
X256180000Y-58771666D01*
X256227619Y-58819285D01*
X256322857Y-58866904D01*
X256370476Y-58866904D01*
X256465714Y-58819285D01*
X256513333Y-58771666D01*
X256560952Y-58676428D01*
X256560952Y-58485952D01*
X256608571Y-58390714D01*
X256656190Y-58343095D01*
X256751428Y-58295476D01*
X256941904Y-58295476D01*
X257037142Y-58343095D01*
X257084761Y-58390714D01*
X257132380Y-58485952D01*
X257132380Y-58676428D01*
X257084761Y-58771666D01*
X257037142Y-58819285D01*
X256941904Y-58866904D01*
X256751428Y-58866904D01*
X256656190Y-58819285D01*
X256608571Y-58771666D01*
X256560952Y-58676428D01*
X304757380Y-94490714D02*
X303757380Y-94490714D01*
X303757380Y-94728809D01*
X303805000Y-94871666D01*
X303900238Y-94966904D01*
X303995476Y-95014523D01*
X304185952Y-95062142D01*
X304328809Y-95062142D01*
X304519285Y-95014523D01*
X304614523Y-94966904D01*
X304709761Y-94871666D01*
X304757380Y-94728809D01*
X304757380Y-94490714D01*
X303757380Y-95966904D02*
X303757380Y-95490714D01*
X304233571Y-95443095D01*
X304185952Y-95490714D01*
X304138333Y-95585952D01*
X304138333Y-95824047D01*
X304185952Y-95919285D01*
X304233571Y-95966904D01*
X304328809Y-96014523D01*
X304566904Y-96014523D01*
X304662142Y-95966904D01*
X304709761Y-95919285D01*
X304757380Y-95824047D01*
X304757380Y-95585952D01*
X304709761Y-95490714D01*
X304662142Y-95443095D01*
X304757380Y-96490714D02*
X304757380Y-96681190D01*
X304709761Y-96776428D01*
X304662142Y-96824047D01*
X304519285Y-96919285D01*
X304328809Y-96966904D01*
X303947857Y-96966904D01*
X303852619Y-96919285D01*
X303805000Y-96871666D01*
X303757380Y-96776428D01*
X303757380Y-96585952D01*
X303805000Y-96490714D01*
X303852619Y-96443095D01*
X303947857Y-96395476D01*
X304185952Y-96395476D01*
X304281190Y-96443095D01*
X304328809Y-96490714D01*
X304376428Y-96585952D01*
X304376428Y-96776428D01*
X304328809Y-96871666D01*
X304281190Y-96919285D01*
X304185952Y-96966904D01*
X114257380Y-37816904D02*
X113257380Y-37816904D01*
X113257380Y-38055000D01*
X113305000Y-38197857D01*
X113400238Y-38293095D01*
X113495476Y-38340714D01*
X113685952Y-38388333D01*
X113828809Y-38388333D01*
X114019285Y-38340714D01*
X114114523Y-38293095D01*
X114209761Y-38197857D01*
X114257380Y-38055000D01*
X114257380Y-37816904D01*
X113257380Y-39293095D02*
X113257380Y-38816904D01*
X113733571Y-38769285D01*
X113685952Y-38816904D01*
X113638333Y-38912142D01*
X113638333Y-39150238D01*
X113685952Y-39245476D01*
X113733571Y-39293095D01*
X113828809Y-39340714D01*
X114066904Y-39340714D01*
X114162142Y-39293095D01*
X114209761Y-39245476D01*
X114257380Y-39150238D01*
X114257380Y-38912142D01*
X114209761Y-38816904D01*
X114162142Y-38769285D01*
X219032380Y-56390714D02*
X218032380Y-56390714D01*
X218032380Y-56628809D01*
X218080000Y-56771666D01*
X218175238Y-56866904D01*
X218270476Y-56914523D01*
X218460952Y-56962142D01*
X218603809Y-56962142D01*
X218794285Y-56914523D01*
X218889523Y-56866904D01*
X218984761Y-56771666D01*
X219032380Y-56628809D01*
X219032380Y-56390714D01*
X218127619Y-57343095D02*
X218080000Y-57390714D01*
X218032380Y-57485952D01*
X218032380Y-57724047D01*
X218080000Y-57819285D01*
X218127619Y-57866904D01*
X218222857Y-57914523D01*
X218318095Y-57914523D01*
X218460952Y-57866904D01*
X219032380Y-57295476D01*
X219032380Y-57914523D01*
X218032380Y-58771666D02*
X218032380Y-58581190D01*
X218080000Y-58485952D01*
X218127619Y-58438333D01*
X218270476Y-58343095D01*
X218460952Y-58295476D01*
X218841904Y-58295476D01*
X218937142Y-58343095D01*
X218984761Y-58390714D01*
X219032380Y-58485952D01*
X219032380Y-58676428D01*
X218984761Y-58771666D01*
X218937142Y-58819285D01*
X218841904Y-58866904D01*
X218603809Y-58866904D01*
X218508571Y-58819285D01*
X218460952Y-58771666D01*
X218413333Y-58676428D01*
X218413333Y-58485952D01*
X218460952Y-58390714D01*
X218508571Y-58343095D01*
X218603809Y-58295476D01*
X95207380Y-37816904D02*
X94207380Y-37816904D01*
X94207380Y-38055000D01*
X94255000Y-38197857D01*
X94350238Y-38293095D01*
X94445476Y-38340714D01*
X94635952Y-38388333D01*
X94778809Y-38388333D01*
X94969285Y-38340714D01*
X95064523Y-38293095D01*
X95159761Y-38197857D01*
X95207380Y-38055000D01*
X95207380Y-37816904D01*
X94540714Y-39245476D02*
X95207380Y-39245476D01*
X94159761Y-39007380D02*
X94874047Y-38769285D01*
X94874047Y-39388333D01*
X328569880Y-113540714D02*
X327569880Y-113540714D01*
X327569880Y-113778809D01*
X327617500Y-113921666D01*
X327712738Y-114016904D01*
X327807976Y-114064523D01*
X327998452Y-114112142D01*
X328141309Y-114112142D01*
X328331785Y-114064523D01*
X328427023Y-114016904D01*
X328522261Y-113921666D01*
X328569880Y-113778809D01*
X328569880Y-113540714D01*
X327569880Y-114445476D02*
X327569880Y-115112142D01*
X328569880Y-114683571D01*
X328569880Y-116016904D02*
X328569880Y-115445476D01*
X328569880Y-115731190D02*
X327569880Y-115731190D01*
X327712738Y-115635952D01*
X327807976Y-115540714D01*
X327855595Y-115445476D01*
X199982380Y-56390714D02*
X198982380Y-56390714D01*
X198982380Y-56628809D01*
X199030000Y-56771666D01*
X199125238Y-56866904D01*
X199220476Y-56914523D01*
X199410952Y-56962142D01*
X199553809Y-56962142D01*
X199744285Y-56914523D01*
X199839523Y-56866904D01*
X199934761Y-56771666D01*
X199982380Y-56628809D01*
X199982380Y-56390714D01*
X199077619Y-57343095D02*
X199030000Y-57390714D01*
X198982380Y-57485952D01*
X198982380Y-57724047D01*
X199030000Y-57819285D01*
X199077619Y-57866904D01*
X199172857Y-57914523D01*
X199268095Y-57914523D01*
X199410952Y-57866904D01*
X199982380Y-57295476D01*
X199982380Y-57914523D01*
X198982380Y-58819285D02*
X198982380Y-58343095D01*
X199458571Y-58295476D01*
X199410952Y-58343095D01*
X199363333Y-58438333D01*
X199363333Y-58676428D01*
X199410952Y-58771666D01*
X199458571Y-58819285D01*
X199553809Y-58866904D01*
X199791904Y-58866904D01*
X199887142Y-58819285D01*
X199934761Y-58771666D01*
X199982380Y-58676428D01*
X199982380Y-58438333D01*
X199934761Y-58343095D01*
X199887142Y-58295476D01*
X247607380Y-37340714D02*
X246607380Y-37340714D01*
X246607380Y-37578809D01*
X246655000Y-37721666D01*
X246750238Y-37816904D01*
X246845476Y-37864523D01*
X247035952Y-37912142D01*
X247178809Y-37912142D01*
X247369285Y-37864523D01*
X247464523Y-37816904D01*
X247559761Y-37721666D01*
X247607380Y-37578809D01*
X247607380Y-37340714D01*
X247607380Y-38864523D02*
X247607380Y-38293095D01*
X247607380Y-38578809D02*
X246607380Y-38578809D01*
X246750238Y-38483571D01*
X246845476Y-38388333D01*
X246893095Y-38293095D01*
X246702619Y-39245476D02*
X246655000Y-39293095D01*
X246607380Y-39388333D01*
X246607380Y-39626428D01*
X246655000Y-39721666D01*
X246702619Y-39769285D01*
X246797857Y-39816904D01*
X246893095Y-39816904D01*
X247035952Y-39769285D01*
X247607380Y-39197857D01*
X247607380Y-39816904D01*
X152357380Y-113540714D02*
X151357380Y-113540714D01*
X151357380Y-113778809D01*
X151405000Y-113921666D01*
X151500238Y-114016904D01*
X151595476Y-114064523D01*
X151785952Y-114112142D01*
X151928809Y-114112142D01*
X152119285Y-114064523D01*
X152214523Y-114016904D01*
X152309761Y-113921666D01*
X152357380Y-113778809D01*
X152357380Y-113540714D01*
X151357380Y-114969285D02*
X151357380Y-114778809D01*
X151405000Y-114683571D01*
X151452619Y-114635952D01*
X151595476Y-114540714D01*
X151785952Y-114493095D01*
X152166904Y-114493095D01*
X152262142Y-114540714D01*
X152309761Y-114588333D01*
X152357380Y-114683571D01*
X152357380Y-114874047D01*
X152309761Y-114969285D01*
X152262142Y-115016904D01*
X152166904Y-115064523D01*
X151928809Y-115064523D01*
X151833571Y-115016904D01*
X151785952Y-114969285D01*
X151738333Y-114874047D01*
X151738333Y-114683571D01*
X151785952Y-114588333D01*
X151833571Y-114540714D01*
X151928809Y-114493095D01*
X151357380Y-115969285D02*
X151357380Y-115493095D01*
X151833571Y-115445476D01*
X151785952Y-115493095D01*
X151738333Y-115588333D01*
X151738333Y-115826428D01*
X151785952Y-115921666D01*
X151833571Y-115969285D01*
X151928809Y-116016904D01*
X152166904Y-116016904D01*
X152262142Y-115969285D01*
X152309761Y-115921666D01*
X152357380Y-115826428D01*
X152357380Y-115588333D01*
X152309761Y-115493095D01*
X152262142Y-115445476D01*
X276182380Y-56390714D02*
X275182380Y-56390714D01*
X275182380Y-56628809D01*
X275230000Y-56771666D01*
X275325238Y-56866904D01*
X275420476Y-56914523D01*
X275610952Y-56962142D01*
X275753809Y-56962142D01*
X275944285Y-56914523D01*
X276039523Y-56866904D01*
X276134761Y-56771666D01*
X276182380Y-56628809D01*
X276182380Y-56390714D01*
X275277619Y-57343095D02*
X275230000Y-57390714D01*
X275182380Y-57485952D01*
X275182380Y-57724047D01*
X275230000Y-57819285D01*
X275277619Y-57866904D01*
X275372857Y-57914523D01*
X275468095Y-57914523D01*
X275610952Y-57866904D01*
X276182380Y-57295476D01*
X276182380Y-57914523D01*
X276182380Y-58390714D02*
X276182380Y-58581190D01*
X276134761Y-58676428D01*
X276087142Y-58724047D01*
X275944285Y-58819285D01*
X275753809Y-58866904D01*
X275372857Y-58866904D01*
X275277619Y-58819285D01*
X275230000Y-58771666D01*
X275182380Y-58676428D01*
X275182380Y-58485952D01*
X275230000Y-58390714D01*
X275277619Y-58343095D01*
X275372857Y-58295476D01*
X275610952Y-58295476D01*
X275706190Y-58343095D01*
X275753809Y-58390714D01*
X275801428Y-58485952D01*
X275801428Y-58676428D01*
X275753809Y-58771666D01*
X275706190Y-58819285D01*
X275610952Y-58866904D01*
X133307380Y-37816904D02*
X132307380Y-37816904D01*
X132307380Y-38055000D01*
X132355000Y-38197857D01*
X132450238Y-38293095D01*
X132545476Y-38340714D01*
X132735952Y-38388333D01*
X132878809Y-38388333D01*
X133069285Y-38340714D01*
X133164523Y-38293095D01*
X133259761Y-38197857D01*
X133307380Y-38055000D01*
X133307380Y-37816904D01*
X132307380Y-39245476D02*
X132307380Y-39055000D01*
X132355000Y-38959761D01*
X132402619Y-38912142D01*
X132545476Y-38816904D01*
X132735952Y-38769285D01*
X133116904Y-38769285D01*
X133212142Y-38816904D01*
X133259761Y-38864523D01*
X133307380Y-38959761D01*
X133307380Y-39150238D01*
X133259761Y-39245476D01*
X133212142Y-39293095D01*
X133116904Y-39340714D01*
X132878809Y-39340714D01*
X132783571Y-39293095D01*
X132735952Y-39245476D01*
X132688333Y-39150238D01*
X132688333Y-38959761D01*
X132735952Y-38864523D01*
X132783571Y-38816904D01*
X132878809Y-38769285D01*
X302376180Y-65915714D02*
X301376180Y-65915714D01*
X301376180Y-66153809D01*
X301423800Y-66296666D01*
X301519038Y-66391904D01*
X301614276Y-66439523D01*
X301804752Y-66487142D01*
X301947609Y-66487142D01*
X302138085Y-66439523D01*
X302233323Y-66391904D01*
X302328561Y-66296666D01*
X302376180Y-66153809D01*
X302376180Y-65915714D01*
X301376180Y-66820476D02*
X301376180Y-67439523D01*
X301757133Y-67106190D01*
X301757133Y-67249047D01*
X301804752Y-67344285D01*
X301852371Y-67391904D01*
X301947609Y-67439523D01*
X302185704Y-67439523D01*
X302280942Y-67391904D01*
X302328561Y-67344285D01*
X302376180Y-67249047D01*
X302376180Y-66963333D01*
X302328561Y-66868095D01*
X302280942Y-66820476D01*
X301376180Y-68058571D02*
X301376180Y-68153809D01*
X301423800Y-68249047D01*
X301471419Y-68296666D01*
X301566657Y-68344285D01*
X301757133Y-68391904D01*
X301995228Y-68391904D01*
X302185704Y-68344285D01*
X302280942Y-68296666D01*
X302328561Y-68249047D01*
X302376180Y-68153809D01*
X302376180Y-68058571D01*
X302328561Y-67963333D01*
X302280942Y-67915714D01*
X302185704Y-67868095D01*
X301995228Y-67820476D01*
X301757133Y-67820476D01*
X301566657Y-67868095D01*
X301471419Y-67915714D01*
X301423800Y-67963333D01*
X301376180Y-68058571D01*
X252369880Y-94490714D02*
X251369880Y-94490714D01*
X251369880Y-94728809D01*
X251417500Y-94871666D01*
X251512738Y-94966904D01*
X251607976Y-95014523D01*
X251798452Y-95062142D01*
X251941309Y-95062142D01*
X252131785Y-95014523D01*
X252227023Y-94966904D01*
X252322261Y-94871666D01*
X252369880Y-94728809D01*
X252369880Y-94490714D01*
X251369880Y-95966904D02*
X251369880Y-95490714D01*
X251846071Y-95443095D01*
X251798452Y-95490714D01*
X251750833Y-95585952D01*
X251750833Y-95824047D01*
X251798452Y-95919285D01*
X251846071Y-95966904D01*
X251941309Y-96014523D01*
X252179404Y-96014523D01*
X252274642Y-95966904D01*
X252322261Y-95919285D01*
X252369880Y-95824047D01*
X252369880Y-95585952D01*
X252322261Y-95490714D01*
X252274642Y-95443095D01*
X251369880Y-96347857D02*
X251369880Y-97014523D01*
X252369880Y-96585952D01*
X128544880Y-75440714D02*
X127544880Y-75440714D01*
X127544880Y-75678809D01*
X127592500Y-75821666D01*
X127687738Y-75916904D01*
X127782976Y-75964523D01*
X127973452Y-76012142D01*
X128116309Y-76012142D01*
X128306785Y-75964523D01*
X128402023Y-75916904D01*
X128497261Y-75821666D01*
X128544880Y-75678809D01*
X128544880Y-75440714D01*
X127544880Y-76345476D02*
X127544880Y-76964523D01*
X127925833Y-76631190D01*
X127925833Y-76774047D01*
X127973452Y-76869285D01*
X128021071Y-76916904D01*
X128116309Y-76964523D01*
X128354404Y-76964523D01*
X128449642Y-76916904D01*
X128497261Y-76869285D01*
X128544880Y-76774047D01*
X128544880Y-76488333D01*
X128497261Y-76393095D01*
X128449642Y-76345476D01*
X127544880Y-77297857D02*
X127544880Y-77964523D01*
X128544880Y-77535952D01*
X71394880Y-75440714D02*
X70394880Y-75440714D01*
X70394880Y-75678809D01*
X70442500Y-75821666D01*
X70537738Y-75916904D01*
X70632976Y-75964523D01*
X70823452Y-76012142D01*
X70966309Y-76012142D01*
X71156785Y-75964523D01*
X71252023Y-75916904D01*
X71347261Y-75821666D01*
X71394880Y-75678809D01*
X71394880Y-75440714D01*
X70394880Y-76345476D02*
X70394880Y-76964523D01*
X70775833Y-76631190D01*
X70775833Y-76774047D01*
X70823452Y-76869285D01*
X70871071Y-76916904D01*
X70966309Y-76964523D01*
X71204404Y-76964523D01*
X71299642Y-76916904D01*
X71347261Y-76869285D01*
X71394880Y-76774047D01*
X71394880Y-76488333D01*
X71347261Y-76393095D01*
X71299642Y-76345476D01*
X70728214Y-77821666D02*
X71394880Y-77821666D01*
X70347261Y-77583571D02*
X71061547Y-77345476D01*
X71061547Y-77964523D01*
X76157380Y-37816904D02*
X75157380Y-37816904D01*
X75157380Y-38055000D01*
X75205000Y-38197857D01*
X75300238Y-38293095D01*
X75395476Y-38340714D01*
X75585952Y-38388333D01*
X75728809Y-38388333D01*
X75919285Y-38340714D01*
X76014523Y-38293095D01*
X76109761Y-38197857D01*
X76157380Y-38055000D01*
X76157380Y-37816904D01*
X75157380Y-38721666D02*
X75157380Y-39340714D01*
X75538333Y-39007380D01*
X75538333Y-39150238D01*
X75585952Y-39245476D01*
X75633571Y-39293095D01*
X75728809Y-39340714D01*
X75966904Y-39340714D01*
X76062142Y-39293095D01*
X76109761Y-39245476D01*
X76157380Y-39150238D01*
X76157380Y-38864523D01*
X76109761Y-38769285D01*
X76062142Y-38721666D01*
X142832380Y-56390714D02*
X141832380Y-56390714D01*
X141832380Y-56628809D01*
X141880000Y-56771666D01*
X141975238Y-56866904D01*
X142070476Y-56914523D01*
X142260952Y-56962142D01*
X142403809Y-56962142D01*
X142594285Y-56914523D01*
X142689523Y-56866904D01*
X142784761Y-56771666D01*
X142832380Y-56628809D01*
X142832380Y-56390714D01*
X141927619Y-57343095D02*
X141880000Y-57390714D01*
X141832380Y-57485952D01*
X141832380Y-57724047D01*
X141880000Y-57819285D01*
X141927619Y-57866904D01*
X142022857Y-57914523D01*
X142118095Y-57914523D01*
X142260952Y-57866904D01*
X142832380Y-57295476D01*
X142832380Y-57914523D01*
X141927619Y-58295476D02*
X141880000Y-58343095D01*
X141832380Y-58438333D01*
X141832380Y-58676428D01*
X141880000Y-58771666D01*
X141927619Y-58819285D01*
X142022857Y-58866904D01*
X142118095Y-58866904D01*
X142260952Y-58819285D01*
X142832380Y-58247857D01*
X142832380Y-58866904D01*
X88063680Y-113540714D02*
X87063680Y-113540714D01*
X87063680Y-113778809D01*
X87111300Y-113921666D01*
X87206538Y-114016904D01*
X87301776Y-114064523D01*
X87492252Y-114112142D01*
X87635109Y-114112142D01*
X87825585Y-114064523D01*
X87920823Y-114016904D01*
X88016061Y-113921666D01*
X88063680Y-113778809D01*
X88063680Y-113540714D01*
X87063680Y-114969285D02*
X87063680Y-114778809D01*
X87111300Y-114683571D01*
X87158919Y-114635952D01*
X87301776Y-114540714D01*
X87492252Y-114493095D01*
X87873204Y-114493095D01*
X87968442Y-114540714D01*
X88016061Y-114588333D01*
X88063680Y-114683571D01*
X88063680Y-114874047D01*
X88016061Y-114969285D01*
X87968442Y-115016904D01*
X87873204Y-115064523D01*
X87635109Y-115064523D01*
X87539871Y-115016904D01*
X87492252Y-114969285D01*
X87444633Y-114874047D01*
X87444633Y-114683571D01*
X87492252Y-114588333D01*
X87539871Y-114540714D01*
X87635109Y-114493095D01*
X87063680Y-115397857D02*
X87063680Y-116016904D01*
X87444633Y-115683571D01*
X87444633Y-115826428D01*
X87492252Y-115921666D01*
X87539871Y-115969285D01*
X87635109Y-116016904D01*
X87873204Y-116016904D01*
X87968442Y-115969285D01*
X88016061Y-115921666D01*
X88063680Y-115826428D01*
X88063680Y-115540714D01*
X88016061Y-115445476D01*
X87968442Y-115397857D01*
X99969880Y-94490714D02*
X98969880Y-94490714D01*
X98969880Y-94728809D01*
X99017500Y-94871666D01*
X99112738Y-94966904D01*
X99207976Y-95014523D01*
X99398452Y-95062142D01*
X99541309Y-95062142D01*
X99731785Y-95014523D01*
X99827023Y-94966904D01*
X99922261Y-94871666D01*
X99969880Y-94728809D01*
X99969880Y-94490714D01*
X99303214Y-95919285D02*
X99969880Y-95919285D01*
X98922261Y-95681190D02*
X99636547Y-95443095D01*
X99636547Y-96062142D01*
X99969880Y-96490714D02*
X99969880Y-96681190D01*
X99922261Y-96776428D01*
X99874642Y-96824047D01*
X99731785Y-96919285D01*
X99541309Y-96966904D01*
X99160357Y-96966904D01*
X99065119Y-96919285D01*
X99017500Y-96871666D01*
X98969880Y-96776428D01*
X98969880Y-96585952D01*
X99017500Y-96490714D01*
X99065119Y-96443095D01*
X99160357Y-96395476D01*
X99398452Y-96395476D01*
X99493690Y-96443095D01*
X99541309Y-96490714D01*
X99588928Y-96585952D01*
X99588928Y-96776428D01*
X99541309Y-96871666D01*
X99493690Y-96919285D01*
X99398452Y-96966904D01*
X64251180Y-113540714D02*
X63251180Y-113540714D01*
X63251180Y-113778809D01*
X63298800Y-113921666D01*
X63394038Y-114016904D01*
X63489276Y-114064523D01*
X63679752Y-114112142D01*
X63822609Y-114112142D01*
X64013085Y-114064523D01*
X64108323Y-114016904D01*
X64203561Y-113921666D01*
X64251180Y-113778809D01*
X64251180Y-113540714D01*
X63251180Y-114969285D02*
X63251180Y-114778809D01*
X63298800Y-114683571D01*
X63346419Y-114635952D01*
X63489276Y-114540714D01*
X63679752Y-114493095D01*
X64060704Y-114493095D01*
X64155942Y-114540714D01*
X64203561Y-114588333D01*
X64251180Y-114683571D01*
X64251180Y-114874047D01*
X64203561Y-114969285D01*
X64155942Y-115016904D01*
X64060704Y-115064523D01*
X63822609Y-115064523D01*
X63727371Y-115016904D01*
X63679752Y-114969285D01*
X63632133Y-114874047D01*
X63632133Y-114683571D01*
X63679752Y-114588333D01*
X63727371Y-114540714D01*
X63822609Y-114493095D01*
X63346419Y-115445476D02*
X63298800Y-115493095D01*
X63251180Y-115588333D01*
X63251180Y-115826428D01*
X63298800Y-115921666D01*
X63346419Y-115969285D01*
X63441657Y-116016904D01*
X63536895Y-116016904D01*
X63679752Y-115969285D01*
X64251180Y-115397857D01*
X64251180Y-116016904D01*
X185694880Y-75440714D02*
X184694880Y-75440714D01*
X184694880Y-75678809D01*
X184742500Y-75821666D01*
X184837738Y-75916904D01*
X184932976Y-75964523D01*
X185123452Y-76012142D01*
X185266309Y-76012142D01*
X185456785Y-75964523D01*
X185552023Y-75916904D01*
X185647261Y-75821666D01*
X185694880Y-75678809D01*
X185694880Y-75440714D01*
X185028214Y-76869285D02*
X185694880Y-76869285D01*
X184647261Y-76631190D02*
X185361547Y-76393095D01*
X185361547Y-77012142D01*
X184694880Y-77583571D02*
X184694880Y-77678809D01*
X184742500Y-77774047D01*
X184790119Y-77821666D01*
X184885357Y-77869285D01*
X185075833Y-77916904D01*
X185313928Y-77916904D01*
X185504404Y-77869285D01*
X185599642Y-77821666D01*
X185647261Y-77774047D01*
X185694880Y-77678809D01*
X185694880Y-77583571D01*
X185647261Y-77488333D01*
X185599642Y-77440714D01*
X185504404Y-77393095D01*
X185313928Y-77345476D01*
X185075833Y-77345476D01*
X184885357Y-77393095D01*
X184790119Y-77440714D01*
X184742500Y-77488333D01*
X184694880Y-77583571D01*
X38057380Y-37816904D02*
X37057380Y-37816904D01*
X37057380Y-38055000D01*
X37105000Y-38197857D01*
X37200238Y-38293095D01*
X37295476Y-38340714D01*
X37485952Y-38388333D01*
X37628809Y-38388333D01*
X37819285Y-38340714D01*
X37914523Y-38293095D01*
X38009761Y-38197857D01*
X38057380Y-38055000D01*
X38057380Y-37816904D01*
X38057380Y-39340714D02*
X38057380Y-38769285D01*
X38057380Y-39055000D02*
X37057380Y-39055000D01*
X37200238Y-38959761D01*
X37295476Y-38864523D01*
X37343095Y-38769285D01*
X42819880Y-56390714D02*
X41819880Y-56390714D01*
X41819880Y-56628809D01*
X41867500Y-56771666D01*
X41962738Y-56866904D01*
X42057976Y-56914523D01*
X42248452Y-56962142D01*
X42391309Y-56962142D01*
X42581785Y-56914523D01*
X42677023Y-56866904D01*
X42772261Y-56771666D01*
X42819880Y-56628809D01*
X42819880Y-56390714D01*
X42819880Y-57914523D02*
X42819880Y-57343095D01*
X42819880Y-57628809D02*
X41819880Y-57628809D01*
X41962738Y-57533571D01*
X42057976Y-57438333D01*
X42105595Y-57343095D01*
X41819880Y-58247857D02*
X41819880Y-58914523D01*
X42819880Y-58485952D01*
X66632380Y-56390714D02*
X65632380Y-56390714D01*
X65632380Y-56628809D01*
X65680000Y-56771666D01*
X65775238Y-56866904D01*
X65870476Y-56914523D01*
X66060952Y-56962142D01*
X66203809Y-56962142D01*
X66394285Y-56914523D01*
X66489523Y-56866904D01*
X66584761Y-56771666D01*
X66632380Y-56628809D01*
X66632380Y-56390714D01*
X66632380Y-57914523D02*
X66632380Y-57343095D01*
X66632380Y-57628809D02*
X65632380Y-57628809D01*
X65775238Y-57533571D01*
X65870476Y-57438333D01*
X65918095Y-57343095D01*
X66060952Y-58485952D02*
X66013333Y-58390714D01*
X65965714Y-58343095D01*
X65870476Y-58295476D01*
X65822857Y-58295476D01*
X65727619Y-58343095D01*
X65680000Y-58390714D01*
X65632380Y-58485952D01*
X65632380Y-58676428D01*
X65680000Y-58771666D01*
X65727619Y-58819285D01*
X65822857Y-58866904D01*
X65870476Y-58866904D01*
X65965714Y-58819285D01*
X66013333Y-58771666D01*
X66060952Y-58676428D01*
X66060952Y-58485952D01*
X66108571Y-58390714D01*
X66156190Y-58343095D01*
X66251428Y-58295476D01*
X66441904Y-58295476D01*
X66537142Y-58343095D01*
X66584761Y-58390714D01*
X66632380Y-58485952D01*
X66632380Y-58676428D01*
X66584761Y-58771666D01*
X66537142Y-58819285D01*
X66441904Y-58866904D01*
X66251428Y-58866904D01*
X66156190Y-58819285D01*
X66108571Y-58771666D01*
X66060952Y-58676428D01*
X204744880Y-75440714D02*
X203744880Y-75440714D01*
X203744880Y-75678809D01*
X203792500Y-75821666D01*
X203887738Y-75916904D01*
X203982976Y-75964523D01*
X204173452Y-76012142D01*
X204316309Y-76012142D01*
X204506785Y-75964523D01*
X204602023Y-75916904D01*
X204697261Y-75821666D01*
X204744880Y-75678809D01*
X204744880Y-75440714D01*
X204078214Y-76869285D02*
X204744880Y-76869285D01*
X203697261Y-76631190D02*
X204411547Y-76393095D01*
X204411547Y-77012142D01*
X204744880Y-77916904D02*
X204744880Y-77345476D01*
X204744880Y-77631190D02*
X203744880Y-77631190D01*
X203887738Y-77535952D01*
X203982976Y-77440714D01*
X204030595Y-77345476D01*
X104732380Y-56390714D02*
X103732380Y-56390714D01*
X103732380Y-56628809D01*
X103780000Y-56771666D01*
X103875238Y-56866904D01*
X103970476Y-56914523D01*
X104160952Y-56962142D01*
X104303809Y-56962142D01*
X104494285Y-56914523D01*
X104589523Y-56866904D01*
X104684761Y-56771666D01*
X104732380Y-56628809D01*
X104732380Y-56390714D01*
X103827619Y-57343095D02*
X103780000Y-57390714D01*
X103732380Y-57485952D01*
X103732380Y-57724047D01*
X103780000Y-57819285D01*
X103827619Y-57866904D01*
X103922857Y-57914523D01*
X104018095Y-57914523D01*
X104160952Y-57866904D01*
X104732380Y-57295476D01*
X104732380Y-57914523D01*
X103732380Y-58533571D02*
X103732380Y-58628809D01*
X103780000Y-58724047D01*
X103827619Y-58771666D01*
X103922857Y-58819285D01*
X104113333Y-58866904D01*
X104351428Y-58866904D01*
X104541904Y-58819285D01*
X104637142Y-58771666D01*
X104684761Y-58724047D01*
X104732380Y-58628809D01*
X104732380Y-58533571D01*
X104684761Y-58438333D01*
X104637142Y-58390714D01*
X104541904Y-58343095D01*
X104351428Y-58295476D01*
X104113333Y-58295476D01*
X103922857Y-58343095D01*
X103827619Y-58390714D01*
X103780000Y-58438333D01*
X103732380Y-58533571D01*
X280944880Y-75440714D02*
X279944880Y-75440714D01*
X279944880Y-75678809D01*
X279992500Y-75821666D01*
X280087738Y-75916904D01*
X280182976Y-75964523D01*
X280373452Y-76012142D01*
X280516309Y-76012142D01*
X280706785Y-75964523D01*
X280802023Y-75916904D01*
X280897261Y-75821666D01*
X280944880Y-75678809D01*
X280944880Y-75440714D01*
X280278214Y-76869285D02*
X280944880Y-76869285D01*
X279897261Y-76631190D02*
X280611547Y-76393095D01*
X280611547Y-77012142D01*
X279944880Y-77869285D02*
X279944880Y-77393095D01*
X280421071Y-77345476D01*
X280373452Y-77393095D01*
X280325833Y-77488333D01*
X280325833Y-77726428D01*
X280373452Y-77821666D01*
X280421071Y-77869285D01*
X280516309Y-77916904D01*
X280754404Y-77916904D01*
X280849642Y-77869285D01*
X280897261Y-77821666D01*
X280944880Y-77726428D01*
X280944880Y-77488333D01*
X280897261Y-77393095D01*
X280849642Y-77345476D01*
X161882380Y-56390714D02*
X160882380Y-56390714D01*
X160882380Y-56628809D01*
X160930000Y-56771666D01*
X161025238Y-56866904D01*
X161120476Y-56914523D01*
X161310952Y-56962142D01*
X161453809Y-56962142D01*
X161644285Y-56914523D01*
X161739523Y-56866904D01*
X161834761Y-56771666D01*
X161882380Y-56628809D01*
X161882380Y-56390714D01*
X160977619Y-57343095D02*
X160930000Y-57390714D01*
X160882380Y-57485952D01*
X160882380Y-57724047D01*
X160930000Y-57819285D01*
X160977619Y-57866904D01*
X161072857Y-57914523D01*
X161168095Y-57914523D01*
X161310952Y-57866904D01*
X161882380Y-57295476D01*
X161882380Y-57914523D01*
X160882380Y-58247857D02*
X160882380Y-58866904D01*
X161263333Y-58533571D01*
X161263333Y-58676428D01*
X161310952Y-58771666D01*
X161358571Y-58819285D01*
X161453809Y-58866904D01*
X161691904Y-58866904D01*
X161787142Y-58819285D01*
X161834761Y-58771666D01*
X161882380Y-58676428D01*
X161882380Y-58390714D01*
X161834761Y-58295476D01*
X161787142Y-58247857D01*
X249988680Y-113540714D02*
X248988680Y-113540714D01*
X248988680Y-113778809D01*
X249036300Y-113921666D01*
X249131538Y-114016904D01*
X249226776Y-114064523D01*
X249417252Y-114112142D01*
X249560109Y-114112142D01*
X249750585Y-114064523D01*
X249845823Y-114016904D01*
X249941061Y-113921666D01*
X249988680Y-113778809D01*
X249988680Y-113540714D01*
X248988680Y-114969285D02*
X248988680Y-114778809D01*
X249036300Y-114683571D01*
X249083919Y-114635952D01*
X249226776Y-114540714D01*
X249417252Y-114493095D01*
X249798204Y-114493095D01*
X249893442Y-114540714D01*
X249941061Y-114588333D01*
X249988680Y-114683571D01*
X249988680Y-114874047D01*
X249941061Y-114969285D01*
X249893442Y-115016904D01*
X249798204Y-115064523D01*
X249560109Y-115064523D01*
X249464871Y-115016904D01*
X249417252Y-114969285D01*
X249369633Y-114874047D01*
X249369633Y-114683571D01*
X249417252Y-114588333D01*
X249464871Y-114540714D01*
X249560109Y-114493095D01*
X249417252Y-115635952D02*
X249369633Y-115540714D01*
X249322014Y-115493095D01*
X249226776Y-115445476D01*
X249179157Y-115445476D01*
X249083919Y-115493095D01*
X249036300Y-115540714D01*
X248988680Y-115635952D01*
X248988680Y-115826428D01*
X249036300Y-115921666D01*
X249083919Y-115969285D01*
X249179157Y-116016904D01*
X249226776Y-116016904D01*
X249322014Y-115969285D01*
X249369633Y-115921666D01*
X249417252Y-115826428D01*
X249417252Y-115635952D01*
X249464871Y-115540714D01*
X249512490Y-115493095D01*
X249607728Y-115445476D01*
X249798204Y-115445476D01*
X249893442Y-115493095D01*
X249941061Y-115540714D01*
X249988680Y-115635952D01*
X249988680Y-115826428D01*
X249941061Y-115921666D01*
X249893442Y-115969285D01*
X249798204Y-116016904D01*
X249607728Y-116016904D01*
X249512490Y-115969285D01*
X249464871Y-115921666D01*
X249417252Y-115826428D01*
X171407380Y-37816904D02*
X170407380Y-37816904D01*
X170407380Y-38055000D01*
X170455000Y-38197857D01*
X170550238Y-38293095D01*
X170645476Y-38340714D01*
X170835952Y-38388333D01*
X170978809Y-38388333D01*
X171169285Y-38340714D01*
X171264523Y-38293095D01*
X171359761Y-38197857D01*
X171407380Y-38055000D01*
X171407380Y-37816904D01*
X170835952Y-38959761D02*
X170788333Y-38864523D01*
X170740714Y-38816904D01*
X170645476Y-38769285D01*
X170597857Y-38769285D01*
X170502619Y-38816904D01*
X170455000Y-38864523D01*
X170407380Y-38959761D01*
X170407380Y-39150238D01*
X170455000Y-39245476D01*
X170502619Y-39293095D01*
X170597857Y-39340714D01*
X170645476Y-39340714D01*
X170740714Y-39293095D01*
X170788333Y-39245476D01*
X170835952Y-39150238D01*
X170835952Y-38959761D01*
X170883571Y-38864523D01*
X170931190Y-38816904D01*
X171026428Y-38769285D01*
X171216904Y-38769285D01*
X171312142Y-38816904D01*
X171359761Y-38864523D01*
X171407380Y-38959761D01*
X171407380Y-39150238D01*
X171359761Y-39245476D01*
X171312142Y-39293095D01*
X171216904Y-39340714D01*
X171026428Y-39340714D01*
X170931190Y-39293095D01*
X170883571Y-39245476D01*
X170835952Y-39150238D01*
X61869880Y-94490714D02*
X60869880Y-94490714D01*
X60869880Y-94728809D01*
X60917500Y-94871666D01*
X61012738Y-94966904D01*
X61107976Y-95014523D01*
X61298452Y-95062142D01*
X61441309Y-95062142D01*
X61631785Y-95014523D01*
X61727023Y-94966904D01*
X61822261Y-94871666D01*
X61869880Y-94728809D01*
X61869880Y-94490714D01*
X61203214Y-95919285D02*
X61869880Y-95919285D01*
X60822261Y-95681190D02*
X61536547Y-95443095D01*
X61536547Y-96062142D01*
X60869880Y-96347857D02*
X60869880Y-97014523D01*
X61869880Y-96585952D01*
X209507380Y-37340714D02*
X208507380Y-37340714D01*
X208507380Y-37578809D01*
X208555000Y-37721666D01*
X208650238Y-37816904D01*
X208745476Y-37864523D01*
X208935952Y-37912142D01*
X209078809Y-37912142D01*
X209269285Y-37864523D01*
X209364523Y-37816904D01*
X209459761Y-37721666D01*
X209507380Y-37578809D01*
X209507380Y-37340714D01*
X209507380Y-38864523D02*
X209507380Y-38293095D01*
X209507380Y-38578809D02*
X208507380Y-38578809D01*
X208650238Y-38483571D01*
X208745476Y-38388333D01*
X208793095Y-38293095D01*
X208507380Y-39483571D02*
X208507380Y-39578809D01*
X208555000Y-39674047D01*
X208602619Y-39721666D01*
X208697857Y-39769285D01*
X208888333Y-39816904D01*
X209126428Y-39816904D01*
X209316904Y-39769285D01*
X209412142Y-39721666D01*
X209459761Y-39674047D01*
X209507380Y-39578809D01*
X209507380Y-39483571D01*
X209459761Y-39388333D01*
X209412142Y-39340714D01*
X209316904Y-39293095D01*
X209126428Y-39245476D01*
X208888333Y-39245476D01*
X208697857Y-39293095D01*
X208602619Y-39340714D01*
X208555000Y-39388333D01*
X208507380Y-39483571D01*
X238082380Y-56390714D02*
X237082380Y-56390714D01*
X237082380Y-56628809D01*
X237130000Y-56771666D01*
X237225238Y-56866904D01*
X237320476Y-56914523D01*
X237510952Y-56962142D01*
X237653809Y-56962142D01*
X237844285Y-56914523D01*
X237939523Y-56866904D01*
X238034761Y-56771666D01*
X238082380Y-56628809D01*
X238082380Y-56390714D01*
X237177619Y-57343095D02*
X237130000Y-57390714D01*
X237082380Y-57485952D01*
X237082380Y-57724047D01*
X237130000Y-57819285D01*
X237177619Y-57866904D01*
X237272857Y-57914523D01*
X237368095Y-57914523D01*
X237510952Y-57866904D01*
X238082380Y-57295476D01*
X238082380Y-57914523D01*
X237082380Y-58247857D02*
X237082380Y-58914523D01*
X238082380Y-58485952D01*
X328569880Y-56390714D02*
X327569880Y-56390714D01*
X327569880Y-56628809D01*
X327617500Y-56771666D01*
X327712738Y-56866904D01*
X327807976Y-56914523D01*
X327998452Y-56962142D01*
X328141309Y-56962142D01*
X328331785Y-56914523D01*
X328427023Y-56866904D01*
X328522261Y-56771666D01*
X328569880Y-56628809D01*
X328569880Y-56390714D01*
X327569880Y-57295476D02*
X327569880Y-57914523D01*
X327950833Y-57581190D01*
X327950833Y-57724047D01*
X327998452Y-57819285D01*
X328046071Y-57866904D01*
X328141309Y-57914523D01*
X328379404Y-57914523D01*
X328474642Y-57866904D01*
X328522261Y-57819285D01*
X328569880Y-57724047D01*
X328569880Y-57438333D01*
X328522261Y-57343095D01*
X328474642Y-57295476D01*
X328569880Y-58866904D02*
X328569880Y-58295476D01*
X328569880Y-58581190D02*
X327569880Y-58581190D01*
X327712738Y-58485952D01*
X327807976Y-58390714D01*
X327855595Y-58295476D01*
X226176180Y-113540714D02*
X225176180Y-113540714D01*
X225176180Y-113778809D01*
X225223800Y-113921666D01*
X225319038Y-114016904D01*
X225414276Y-114064523D01*
X225604752Y-114112142D01*
X225747609Y-114112142D01*
X225938085Y-114064523D01*
X226033323Y-114016904D01*
X226128561Y-113921666D01*
X226176180Y-113778809D01*
X226176180Y-113540714D01*
X225176180Y-114969285D02*
X225176180Y-114778809D01*
X225223800Y-114683571D01*
X225271419Y-114635952D01*
X225414276Y-114540714D01*
X225604752Y-114493095D01*
X225985704Y-114493095D01*
X226080942Y-114540714D01*
X226128561Y-114588333D01*
X226176180Y-114683571D01*
X226176180Y-114874047D01*
X226128561Y-114969285D01*
X226080942Y-115016904D01*
X225985704Y-115064523D01*
X225747609Y-115064523D01*
X225652371Y-115016904D01*
X225604752Y-114969285D01*
X225557133Y-114874047D01*
X225557133Y-114683571D01*
X225604752Y-114588333D01*
X225652371Y-114540714D01*
X225747609Y-114493095D01*
X225176180Y-115397857D02*
X225176180Y-116064523D01*
X226176180Y-115635952D01*
X40438680Y-94490714D02*
X39438680Y-94490714D01*
X39438680Y-94728809D01*
X39486300Y-94871666D01*
X39581538Y-94966904D01*
X39676776Y-95014523D01*
X39867252Y-95062142D01*
X40010109Y-95062142D01*
X40200585Y-95014523D01*
X40295823Y-94966904D01*
X40391061Y-94871666D01*
X40438680Y-94728809D01*
X40438680Y-94490714D01*
X39772014Y-95919285D02*
X40438680Y-95919285D01*
X39391061Y-95681190D02*
X40105347Y-95443095D01*
X40105347Y-96062142D01*
X39438680Y-96871666D02*
X39438680Y-96681190D01*
X39486300Y-96585952D01*
X39533919Y-96538333D01*
X39676776Y-96443095D01*
X39867252Y-96395476D01*
X40248204Y-96395476D01*
X40343442Y-96443095D01*
X40391061Y-96490714D01*
X40438680Y-96585952D01*
X40438680Y-96776428D01*
X40391061Y-96871666D01*
X40343442Y-96919285D01*
X40248204Y-96966904D01*
X40010109Y-96966904D01*
X39914871Y-96919285D01*
X39867252Y-96871666D01*
X39819633Y-96776428D01*
X39819633Y-96585952D01*
X39867252Y-96490714D01*
X39914871Y-96443095D01*
X40010109Y-96395476D01*
X190457380Y-37816904D02*
X189457380Y-37816904D01*
X189457380Y-38055000D01*
X189505000Y-38197857D01*
X189600238Y-38293095D01*
X189695476Y-38340714D01*
X189885952Y-38388333D01*
X190028809Y-38388333D01*
X190219285Y-38340714D01*
X190314523Y-38293095D01*
X190409761Y-38197857D01*
X190457380Y-38055000D01*
X190457380Y-37816904D01*
X190457380Y-38864523D02*
X190457380Y-39055000D01*
X190409761Y-39150238D01*
X190362142Y-39197857D01*
X190219285Y-39293095D01*
X190028809Y-39340714D01*
X189647857Y-39340714D01*
X189552619Y-39293095D01*
X189505000Y-39245476D01*
X189457380Y-39150238D01*
X189457380Y-38959761D01*
X189505000Y-38864523D01*
X189552619Y-38816904D01*
X189647857Y-38769285D01*
X189885952Y-38769285D01*
X189981190Y-38816904D01*
X190028809Y-38864523D01*
X190076428Y-38959761D01*
X190076428Y-39150238D01*
X190028809Y-39245476D01*
X189981190Y-39293095D01*
X189885952Y-39340714D01*
X152357380Y-37816904D02*
X151357380Y-37816904D01*
X151357380Y-38055000D01*
X151405000Y-38197857D01*
X151500238Y-38293095D01*
X151595476Y-38340714D01*
X151785952Y-38388333D01*
X151928809Y-38388333D01*
X152119285Y-38340714D01*
X152214523Y-38293095D01*
X152309761Y-38197857D01*
X152357380Y-38055000D01*
X152357380Y-37816904D01*
X151357380Y-38721666D02*
X151357380Y-39388333D01*
X152357380Y-38959761D01*
X188076180Y-113540714D02*
X187076180Y-113540714D01*
X187076180Y-113778809D01*
X187123800Y-113921666D01*
X187219038Y-114016904D01*
X187314276Y-114064523D01*
X187504752Y-114112142D01*
X187647609Y-114112142D01*
X187838085Y-114064523D01*
X187933323Y-114016904D01*
X188028561Y-113921666D01*
X188076180Y-113778809D01*
X188076180Y-113540714D01*
X187076180Y-114969285D02*
X187076180Y-114778809D01*
X187123800Y-114683571D01*
X187171419Y-114635952D01*
X187314276Y-114540714D01*
X187504752Y-114493095D01*
X187885704Y-114493095D01*
X187980942Y-114540714D01*
X188028561Y-114588333D01*
X188076180Y-114683571D01*
X188076180Y-114874047D01*
X188028561Y-114969285D01*
X187980942Y-115016904D01*
X187885704Y-115064523D01*
X187647609Y-115064523D01*
X187552371Y-115016904D01*
X187504752Y-114969285D01*
X187457133Y-114874047D01*
X187457133Y-114683571D01*
X187504752Y-114588333D01*
X187552371Y-114540714D01*
X187647609Y-114493095D01*
X187076180Y-115921666D02*
X187076180Y-115731190D01*
X187123800Y-115635952D01*
X187171419Y-115588333D01*
X187314276Y-115493095D01*
X187504752Y-115445476D01*
X187885704Y-115445476D01*
X187980942Y-115493095D01*
X188028561Y-115540714D01*
X188076180Y-115635952D01*
X188076180Y-115826428D01*
X188028561Y-115921666D01*
X187980942Y-115969285D01*
X187885704Y-116016904D01*
X187647609Y-116016904D01*
X187552371Y-115969285D01*
X187504752Y-115921666D01*
X187457133Y-115826428D01*
X187457133Y-115635952D01*
X187504752Y-115540714D01*
X187552371Y-115493095D01*
X187647609Y-115445476D01*
X40438680Y-113540714D02*
X39438680Y-113540714D01*
X39438680Y-113778809D01*
X39486300Y-113921666D01*
X39581538Y-114016904D01*
X39676776Y-114064523D01*
X39867252Y-114112142D01*
X40010109Y-114112142D01*
X40200585Y-114064523D01*
X40295823Y-114016904D01*
X40391061Y-113921666D01*
X40438680Y-113778809D01*
X40438680Y-113540714D01*
X39438680Y-114969285D02*
X39438680Y-114778809D01*
X39486300Y-114683571D01*
X39533919Y-114635952D01*
X39676776Y-114540714D01*
X39867252Y-114493095D01*
X40248204Y-114493095D01*
X40343442Y-114540714D01*
X40391061Y-114588333D01*
X40438680Y-114683571D01*
X40438680Y-114874047D01*
X40391061Y-114969285D01*
X40343442Y-115016904D01*
X40248204Y-115064523D01*
X40010109Y-115064523D01*
X39914871Y-115016904D01*
X39867252Y-114969285D01*
X39819633Y-114874047D01*
X39819633Y-114683571D01*
X39867252Y-114588333D01*
X39914871Y-114540714D01*
X40010109Y-114493095D01*
X40438680Y-116016904D02*
X40438680Y-115445476D01*
X40438680Y-115731190D02*
X39438680Y-115731190D01*
X39581538Y-115635952D01*
X39676776Y-115540714D01*
X39724395Y-115445476D01*
X328569880Y-94490714D02*
X327569880Y-94490714D01*
X327569880Y-94728809D01*
X327617500Y-94871666D01*
X327712738Y-94966904D01*
X327807976Y-95014523D01*
X327998452Y-95062142D01*
X328141309Y-95062142D01*
X328331785Y-95014523D01*
X328427023Y-94966904D01*
X328522261Y-94871666D01*
X328569880Y-94728809D01*
X328569880Y-94490714D01*
X327569880Y-95919285D02*
X327569880Y-95728809D01*
X327617500Y-95633571D01*
X327665119Y-95585952D01*
X327807976Y-95490714D01*
X327998452Y-95443095D01*
X328379404Y-95443095D01*
X328474642Y-95490714D01*
X328522261Y-95538333D01*
X328569880Y-95633571D01*
X328569880Y-95824047D01*
X328522261Y-95919285D01*
X328474642Y-95966904D01*
X328379404Y-96014523D01*
X328141309Y-96014523D01*
X328046071Y-95966904D01*
X327998452Y-95919285D01*
X327950833Y-95824047D01*
X327950833Y-95633571D01*
X327998452Y-95538333D01*
X328046071Y-95490714D01*
X328141309Y-95443095D01*
X327569880Y-96633571D02*
X327569880Y-96728809D01*
X327617500Y-96824047D01*
X327665119Y-96871666D01*
X327760357Y-96919285D01*
X327950833Y-96966904D01*
X328188928Y-96966904D01*
X328379404Y-96919285D01*
X328474642Y-96871666D01*
X328522261Y-96824047D01*
X328569880Y-96728809D01*
X328569880Y-96633571D01*
X328522261Y-96538333D01*
X328474642Y-96490714D01*
X328379404Y-96443095D01*
X328188928Y-96395476D01*
X327950833Y-96395476D01*
X327760357Y-96443095D01*
X327665119Y-96490714D01*
X327617500Y-96538333D01*
X327569880Y-96633571D01*
X166644880Y-75440714D02*
X165644880Y-75440714D01*
X165644880Y-75678809D01*
X165692500Y-75821666D01*
X165787738Y-75916904D01*
X165882976Y-75964523D01*
X166073452Y-76012142D01*
X166216309Y-76012142D01*
X166406785Y-75964523D01*
X166502023Y-75916904D01*
X166597261Y-75821666D01*
X166644880Y-75678809D01*
X166644880Y-75440714D01*
X165644880Y-76345476D02*
X165644880Y-76964523D01*
X166025833Y-76631190D01*
X166025833Y-76774047D01*
X166073452Y-76869285D01*
X166121071Y-76916904D01*
X166216309Y-76964523D01*
X166454404Y-76964523D01*
X166549642Y-76916904D01*
X166597261Y-76869285D01*
X166644880Y-76774047D01*
X166644880Y-76488333D01*
X166597261Y-76393095D01*
X166549642Y-76345476D01*
X166644880Y-77440714D02*
X166644880Y-77631190D01*
X166597261Y-77726428D01*
X166549642Y-77774047D01*
X166406785Y-77869285D01*
X166216309Y-77916904D01*
X165835357Y-77916904D01*
X165740119Y-77869285D01*
X165692500Y-77821666D01*
X165644880Y-77726428D01*
X165644880Y-77535952D01*
X165692500Y-77440714D01*
X165740119Y-77393095D01*
X165835357Y-77345476D01*
X166073452Y-77345476D01*
X166168690Y-77393095D01*
X166216309Y-77440714D01*
X166263928Y-77535952D01*
X166263928Y-77726428D01*
X166216309Y-77821666D01*
X166168690Y-77869285D01*
X166073452Y-77916904D01*
X138069880Y-94490714D02*
X137069880Y-94490714D01*
X137069880Y-94728809D01*
X137117500Y-94871666D01*
X137212738Y-94966904D01*
X137307976Y-95014523D01*
X137498452Y-95062142D01*
X137641309Y-95062142D01*
X137831785Y-95014523D01*
X137927023Y-94966904D01*
X138022261Y-94871666D01*
X138069880Y-94728809D01*
X138069880Y-94490714D01*
X137069880Y-95966904D02*
X137069880Y-95490714D01*
X137546071Y-95443095D01*
X137498452Y-95490714D01*
X137450833Y-95585952D01*
X137450833Y-95824047D01*
X137498452Y-95919285D01*
X137546071Y-95966904D01*
X137641309Y-96014523D01*
X137879404Y-96014523D01*
X137974642Y-95966904D01*
X138022261Y-95919285D01*
X138069880Y-95824047D01*
X138069880Y-95585952D01*
X138022261Y-95490714D01*
X137974642Y-95443095D01*
X138069880Y-96966904D02*
X138069880Y-96395476D01*
X138069880Y-96681190D02*
X137069880Y-96681190D01*
X137212738Y-96585952D01*
X137307976Y-96490714D01*
X137355595Y-96395476D01*
X176169880Y-94490714D02*
X175169880Y-94490714D01*
X175169880Y-94728809D01*
X175217500Y-94871666D01*
X175312738Y-94966904D01*
X175407976Y-95014523D01*
X175598452Y-95062142D01*
X175741309Y-95062142D01*
X175931785Y-95014523D01*
X176027023Y-94966904D01*
X176122261Y-94871666D01*
X176169880Y-94728809D01*
X176169880Y-94490714D01*
X175169880Y-95966904D02*
X175169880Y-95490714D01*
X175646071Y-95443095D01*
X175598452Y-95490714D01*
X175550833Y-95585952D01*
X175550833Y-95824047D01*
X175598452Y-95919285D01*
X175646071Y-95966904D01*
X175741309Y-96014523D01*
X175979404Y-96014523D01*
X176074642Y-95966904D01*
X176122261Y-95919285D01*
X176169880Y-95824047D01*
X176169880Y-95585952D01*
X176122261Y-95490714D01*
X176074642Y-95443095D01*
X175169880Y-96347857D02*
X175169880Y-96966904D01*
X175550833Y-96633571D01*
X175550833Y-96776428D01*
X175598452Y-96871666D01*
X175646071Y-96919285D01*
X175741309Y-96966904D01*
X175979404Y-96966904D01*
X176074642Y-96919285D01*
X176122261Y-96871666D01*
X176169880Y-96776428D01*
X176169880Y-96490714D01*
X176122261Y-96395476D01*
X176074642Y-96347857D01*
X347619880Y-37340714D02*
X346619880Y-37340714D01*
X346619880Y-37578809D01*
X346667500Y-37721666D01*
X346762738Y-37816904D01*
X346857976Y-37864523D01*
X347048452Y-37912142D01*
X347191309Y-37912142D01*
X347381785Y-37864523D01*
X347477023Y-37816904D01*
X347572261Y-37721666D01*
X347619880Y-37578809D01*
X347619880Y-37340714D01*
X347619880Y-38864523D02*
X347619880Y-38293095D01*
X347619880Y-38578809D02*
X346619880Y-38578809D01*
X346762738Y-38483571D01*
X346857976Y-38388333D01*
X346905595Y-38293095D01*
X346619880Y-39721666D02*
X346619880Y-39531190D01*
X346667500Y-39435952D01*
X346715119Y-39388333D01*
X346857976Y-39293095D01*
X347048452Y-39245476D01*
X347429404Y-39245476D01*
X347524642Y-39293095D01*
X347572261Y-39340714D01*
X347619880Y-39435952D01*
X347619880Y-39626428D01*
X347572261Y-39721666D01*
X347524642Y-39769285D01*
X347429404Y-39816904D01*
X347191309Y-39816904D01*
X347096071Y-39769285D01*
X347048452Y-39721666D01*
X347000833Y-39626428D01*
X347000833Y-39435952D01*
X347048452Y-39340714D01*
X347096071Y-39293095D01*
X347191309Y-39245476D01*
X214269880Y-94490714D02*
X213269880Y-94490714D01*
X213269880Y-94728809D01*
X213317500Y-94871666D01*
X213412738Y-94966904D01*
X213507976Y-95014523D01*
X213698452Y-95062142D01*
X213841309Y-95062142D01*
X214031785Y-95014523D01*
X214127023Y-94966904D01*
X214222261Y-94871666D01*
X214269880Y-94728809D01*
X214269880Y-94490714D01*
X213269880Y-95966904D02*
X213269880Y-95490714D01*
X213746071Y-95443095D01*
X213698452Y-95490714D01*
X213650833Y-95585952D01*
X213650833Y-95824047D01*
X213698452Y-95919285D01*
X213746071Y-95966904D01*
X213841309Y-96014523D01*
X214079404Y-96014523D01*
X214174642Y-95966904D01*
X214222261Y-95919285D01*
X214269880Y-95824047D01*
X214269880Y-95585952D01*
X214222261Y-95490714D01*
X214174642Y-95443095D01*
X213269880Y-96919285D02*
X213269880Y-96443095D01*
X213746071Y-96395476D01*
X213698452Y-96443095D01*
X213650833Y-96538333D01*
X213650833Y-96776428D01*
X213698452Y-96871666D01*
X213746071Y-96919285D01*
X213841309Y-96966904D01*
X214079404Y-96966904D01*
X214174642Y-96919285D01*
X214222261Y-96871666D01*
X214269880Y-96776428D01*
X214269880Y-96538333D01*
X214222261Y-96443095D01*
X214174642Y-96395476D01*
X278563680Y-94490714D02*
X277563680Y-94490714D01*
X277563680Y-94728809D01*
X277611300Y-94871666D01*
X277706538Y-94966904D01*
X277801776Y-95014523D01*
X277992252Y-95062142D01*
X278135109Y-95062142D01*
X278325585Y-95014523D01*
X278420823Y-94966904D01*
X278516061Y-94871666D01*
X278563680Y-94728809D01*
X278563680Y-94490714D01*
X277563680Y-95966904D02*
X277563680Y-95490714D01*
X278039871Y-95443095D01*
X277992252Y-95490714D01*
X277944633Y-95585952D01*
X277944633Y-95824047D01*
X277992252Y-95919285D01*
X278039871Y-95966904D01*
X278135109Y-96014523D01*
X278373204Y-96014523D01*
X278468442Y-95966904D01*
X278516061Y-95919285D01*
X278563680Y-95824047D01*
X278563680Y-95585952D01*
X278516061Y-95490714D01*
X278468442Y-95443095D01*
X277992252Y-96585952D02*
X277944633Y-96490714D01*
X277897014Y-96443095D01*
X277801776Y-96395476D01*
X277754157Y-96395476D01*
X277658919Y-96443095D01*
X277611300Y-96490714D01*
X277563680Y-96585952D01*
X277563680Y-96776428D01*
X277611300Y-96871666D01*
X277658919Y-96919285D01*
X277754157Y-96966904D01*
X277801776Y-96966904D01*
X277897014Y-96919285D01*
X277944633Y-96871666D01*
X277992252Y-96776428D01*
X277992252Y-96585952D01*
X278039871Y-96490714D01*
X278087490Y-96443095D01*
X278182728Y-96395476D01*
X278373204Y-96395476D01*
X278468442Y-96443095D01*
X278516061Y-96490714D01*
X278563680Y-96585952D01*
X278563680Y-96776428D01*
X278516061Y-96871666D01*
X278468442Y-96919285D01*
X278373204Y-96966904D01*
X278182728Y-96966904D01*
X278087490Y-96919285D01*
X278039871Y-96871666D01*
X277992252Y-96776428D01*
X157119880Y-94490714D02*
X156119880Y-94490714D01*
X156119880Y-94728809D01*
X156167500Y-94871666D01*
X156262738Y-94966904D01*
X156357976Y-95014523D01*
X156548452Y-95062142D01*
X156691309Y-95062142D01*
X156881785Y-95014523D01*
X156977023Y-94966904D01*
X157072261Y-94871666D01*
X157119880Y-94728809D01*
X157119880Y-94490714D01*
X156119880Y-95966904D02*
X156119880Y-95490714D01*
X156596071Y-95443095D01*
X156548452Y-95490714D01*
X156500833Y-95585952D01*
X156500833Y-95824047D01*
X156548452Y-95919285D01*
X156596071Y-95966904D01*
X156691309Y-96014523D01*
X156929404Y-96014523D01*
X157024642Y-95966904D01*
X157072261Y-95919285D01*
X157119880Y-95824047D01*
X157119880Y-95585952D01*
X157072261Y-95490714D01*
X157024642Y-95443095D01*
X156215119Y-96395476D02*
X156167500Y-96443095D01*
X156119880Y-96538333D01*
X156119880Y-96776428D01*
X156167500Y-96871666D01*
X156215119Y-96919285D01*
X156310357Y-96966904D01*
X156405595Y-96966904D01*
X156548452Y-96919285D01*
X157119880Y-96347857D01*
X157119880Y-96966904D01*
X85682380Y-56390714D02*
X84682380Y-56390714D01*
X84682380Y-56628809D01*
X84730000Y-56771666D01*
X84825238Y-56866904D01*
X84920476Y-56914523D01*
X85110952Y-56962142D01*
X85253809Y-56962142D01*
X85444285Y-56914523D01*
X85539523Y-56866904D01*
X85634761Y-56771666D01*
X85682380Y-56628809D01*
X85682380Y-56390714D01*
X85682380Y-57914523D02*
X85682380Y-57343095D01*
X85682380Y-57628809D02*
X84682380Y-57628809D01*
X84825238Y-57533571D01*
X84920476Y-57438333D01*
X84968095Y-57343095D01*
X85682380Y-58390714D02*
X85682380Y-58581190D01*
X85634761Y-58676428D01*
X85587142Y-58724047D01*
X85444285Y-58819285D01*
X85253809Y-58866904D01*
X84872857Y-58866904D01*
X84777619Y-58819285D01*
X84730000Y-58771666D01*
X84682380Y-58676428D01*
X84682380Y-58485952D01*
X84730000Y-58390714D01*
X84777619Y-58343095D01*
X84872857Y-58295476D01*
X85110952Y-58295476D01*
X85206190Y-58343095D01*
X85253809Y-58390714D01*
X85301428Y-58485952D01*
X85301428Y-58676428D01*
X85253809Y-58771666D01*
X85206190Y-58819285D01*
X85110952Y-58866904D01*
X121401180Y-113540714D02*
X120401180Y-113540714D01*
X120401180Y-113778809D01*
X120448800Y-113921666D01*
X120544038Y-114016904D01*
X120639276Y-114064523D01*
X120829752Y-114112142D01*
X120972609Y-114112142D01*
X121163085Y-114064523D01*
X121258323Y-114016904D01*
X121353561Y-113921666D01*
X121401180Y-113778809D01*
X121401180Y-113540714D01*
X120401180Y-114969285D02*
X120401180Y-114778809D01*
X120448800Y-114683571D01*
X120496419Y-114635952D01*
X120639276Y-114540714D01*
X120829752Y-114493095D01*
X121210704Y-114493095D01*
X121305942Y-114540714D01*
X121353561Y-114588333D01*
X121401180Y-114683571D01*
X121401180Y-114874047D01*
X121353561Y-114969285D01*
X121305942Y-115016904D01*
X121210704Y-115064523D01*
X120972609Y-115064523D01*
X120877371Y-115016904D01*
X120829752Y-114969285D01*
X120782133Y-114874047D01*
X120782133Y-114683571D01*
X120829752Y-114588333D01*
X120877371Y-114540714D01*
X120972609Y-114493095D01*
X120734514Y-115921666D02*
X121401180Y-115921666D01*
X120353561Y-115683571D02*
X121067847Y-115445476D01*
X121067847Y-116064523D01*
X223794880Y-75440714D02*
X222794880Y-75440714D01*
X222794880Y-75678809D01*
X222842500Y-75821666D01*
X222937738Y-75916904D01*
X223032976Y-75964523D01*
X223223452Y-76012142D01*
X223366309Y-76012142D01*
X223556785Y-75964523D01*
X223652023Y-75916904D01*
X223747261Y-75821666D01*
X223794880Y-75678809D01*
X223794880Y-75440714D01*
X223128214Y-76869285D02*
X223794880Y-76869285D01*
X222747261Y-76631190D02*
X223461547Y-76393095D01*
X223461547Y-77012142D01*
X222890119Y-77345476D02*
X222842500Y-77393095D01*
X222794880Y-77488333D01*
X222794880Y-77726428D01*
X222842500Y-77821666D01*
X222890119Y-77869285D01*
X222985357Y-77916904D01*
X223080595Y-77916904D01*
X223223452Y-77869285D01*
X223794880Y-77297857D01*
X223794880Y-77916904D01*
X123782380Y-56390714D02*
X122782380Y-56390714D01*
X122782380Y-56628809D01*
X122830000Y-56771666D01*
X122925238Y-56866904D01*
X123020476Y-56914523D01*
X123210952Y-56962142D01*
X123353809Y-56962142D01*
X123544285Y-56914523D01*
X123639523Y-56866904D01*
X123734761Y-56771666D01*
X123782380Y-56628809D01*
X123782380Y-56390714D01*
X122877619Y-57343095D02*
X122830000Y-57390714D01*
X122782380Y-57485952D01*
X122782380Y-57724047D01*
X122830000Y-57819285D01*
X122877619Y-57866904D01*
X122972857Y-57914523D01*
X123068095Y-57914523D01*
X123210952Y-57866904D01*
X123782380Y-57295476D01*
X123782380Y-57914523D01*
X123782380Y-58866904D02*
X123782380Y-58295476D01*
X123782380Y-58581190D02*
X122782380Y-58581190D01*
X122925238Y-58485952D01*
X123020476Y-58390714D01*
X123068095Y-58295476D01*
X347619880Y-56390714D02*
X346619880Y-56390714D01*
X346619880Y-56628809D01*
X346667500Y-56771666D01*
X346762738Y-56866904D01*
X346857976Y-56914523D01*
X347048452Y-56962142D01*
X347191309Y-56962142D01*
X347381785Y-56914523D01*
X347477023Y-56866904D01*
X347572261Y-56771666D01*
X347619880Y-56628809D01*
X347619880Y-56390714D01*
X346619880Y-57295476D02*
X346619880Y-57914523D01*
X347000833Y-57581190D01*
X347000833Y-57724047D01*
X347048452Y-57819285D01*
X347096071Y-57866904D01*
X347191309Y-57914523D01*
X347429404Y-57914523D01*
X347524642Y-57866904D01*
X347572261Y-57819285D01*
X347619880Y-57724047D01*
X347619880Y-57438333D01*
X347572261Y-57343095D01*
X347524642Y-57295476D01*
X346715119Y-58295476D02*
X346667500Y-58343095D01*
X346619880Y-58438333D01*
X346619880Y-58676428D01*
X346667500Y-58771666D01*
X346715119Y-58819285D01*
X346810357Y-58866904D01*
X346905595Y-58866904D01*
X347048452Y-58819285D01*
X347619880Y-58247857D01*
X347619880Y-58866904D01*
X109494880Y-75440714D02*
X108494880Y-75440714D01*
X108494880Y-75678809D01*
X108542500Y-75821666D01*
X108637738Y-75916904D01*
X108732976Y-75964523D01*
X108923452Y-76012142D01*
X109066309Y-76012142D01*
X109256785Y-75964523D01*
X109352023Y-75916904D01*
X109447261Y-75821666D01*
X109494880Y-75678809D01*
X109494880Y-75440714D01*
X108494880Y-76345476D02*
X108494880Y-76964523D01*
X108875833Y-76631190D01*
X108875833Y-76774047D01*
X108923452Y-76869285D01*
X108971071Y-76916904D01*
X109066309Y-76964523D01*
X109304404Y-76964523D01*
X109399642Y-76916904D01*
X109447261Y-76869285D01*
X109494880Y-76774047D01*
X109494880Y-76488333D01*
X109447261Y-76393095D01*
X109399642Y-76345476D01*
X108494880Y-77821666D02*
X108494880Y-77631190D01*
X108542500Y-77535952D01*
X108590119Y-77488333D01*
X108732976Y-77393095D01*
X108923452Y-77345476D01*
X109304404Y-77345476D01*
X109399642Y-77393095D01*
X109447261Y-77440714D01*
X109494880Y-77535952D01*
X109494880Y-77726428D01*
X109447261Y-77821666D01*
X109399642Y-77869285D01*
X109304404Y-77916904D01*
X109066309Y-77916904D01*
X108971071Y-77869285D01*
X108923452Y-77821666D01*
X108875833Y-77726428D01*
X108875833Y-77535952D01*
X108923452Y-77440714D01*
X108971071Y-77393095D01*
X109066309Y-77345476D01*
X233319880Y-94490714D02*
X232319880Y-94490714D01*
X232319880Y-94728809D01*
X232367500Y-94871666D01*
X232462738Y-94966904D01*
X232557976Y-95014523D01*
X232748452Y-95062142D01*
X232891309Y-95062142D01*
X233081785Y-95014523D01*
X233177023Y-94966904D01*
X233272261Y-94871666D01*
X233319880Y-94728809D01*
X233319880Y-94490714D01*
X232319880Y-95966904D02*
X232319880Y-95490714D01*
X232796071Y-95443095D01*
X232748452Y-95490714D01*
X232700833Y-95585952D01*
X232700833Y-95824047D01*
X232748452Y-95919285D01*
X232796071Y-95966904D01*
X232891309Y-96014523D01*
X233129404Y-96014523D01*
X233224642Y-95966904D01*
X233272261Y-95919285D01*
X233319880Y-95824047D01*
X233319880Y-95585952D01*
X233272261Y-95490714D01*
X233224642Y-95443095D01*
X232319880Y-96871666D02*
X232319880Y-96681190D01*
X232367500Y-96585952D01*
X232415119Y-96538333D01*
X232557976Y-96443095D01*
X232748452Y-96395476D01*
X233129404Y-96395476D01*
X233224642Y-96443095D01*
X233272261Y-96490714D01*
X233319880Y-96585952D01*
X233319880Y-96776428D01*
X233272261Y-96871666D01*
X233224642Y-96919285D01*
X233129404Y-96966904D01*
X232891309Y-96966904D01*
X232796071Y-96919285D01*
X232748452Y-96871666D01*
X232700833Y-96776428D01*
X232700833Y-96585952D01*
X232748452Y-96490714D01*
X232796071Y-96443095D01*
X232891309Y-96395476D01*
X45201180Y-75440714D02*
X44201180Y-75440714D01*
X44201180Y-75678809D01*
X44248800Y-75821666D01*
X44344038Y-75916904D01*
X44439276Y-75964523D01*
X44629752Y-76012142D01*
X44772609Y-76012142D01*
X44963085Y-75964523D01*
X45058323Y-75916904D01*
X45153561Y-75821666D01*
X45201180Y-75678809D01*
X45201180Y-75440714D01*
X44201180Y-76345476D02*
X44201180Y-76964523D01*
X44582133Y-76631190D01*
X44582133Y-76774047D01*
X44629752Y-76869285D01*
X44677371Y-76916904D01*
X44772609Y-76964523D01*
X45010704Y-76964523D01*
X45105942Y-76916904D01*
X45153561Y-76869285D01*
X45201180Y-76774047D01*
X45201180Y-76488333D01*
X45153561Y-76393095D01*
X45105942Y-76345476D01*
X44201180Y-77297857D02*
X44201180Y-77916904D01*
X44582133Y-77583571D01*
X44582133Y-77726428D01*
X44629752Y-77821666D01*
X44677371Y-77869285D01*
X44772609Y-77916904D01*
X45010704Y-77916904D01*
X45105942Y-77869285D01*
X45153561Y-77821666D01*
X45201180Y-77726428D01*
X45201180Y-77440714D01*
X45153561Y-77345476D01*
X45105942Y-77297857D01*
X261894880Y-75440714D02*
X260894880Y-75440714D01*
X260894880Y-75678809D01*
X260942500Y-75821666D01*
X261037738Y-75916904D01*
X261132976Y-75964523D01*
X261323452Y-76012142D01*
X261466309Y-76012142D01*
X261656785Y-75964523D01*
X261752023Y-75916904D01*
X261847261Y-75821666D01*
X261894880Y-75678809D01*
X261894880Y-75440714D01*
X261228214Y-76869285D02*
X261894880Y-76869285D01*
X260847261Y-76631190D02*
X261561547Y-76393095D01*
X261561547Y-77012142D01*
X261228214Y-77821666D02*
X261894880Y-77821666D01*
X260847261Y-77583571D02*
X261561547Y-77345476D01*
X261561547Y-77964523D01*
X90444880Y-75440714D02*
X89444880Y-75440714D01*
X89444880Y-75678809D01*
X89492500Y-75821666D01*
X89587738Y-75916904D01*
X89682976Y-75964523D01*
X89873452Y-76012142D01*
X90016309Y-76012142D01*
X90206785Y-75964523D01*
X90302023Y-75916904D01*
X90397261Y-75821666D01*
X90444880Y-75678809D01*
X90444880Y-75440714D01*
X89444880Y-76345476D02*
X89444880Y-76964523D01*
X89825833Y-76631190D01*
X89825833Y-76774047D01*
X89873452Y-76869285D01*
X89921071Y-76916904D01*
X90016309Y-76964523D01*
X90254404Y-76964523D01*
X90349642Y-76916904D01*
X90397261Y-76869285D01*
X90444880Y-76774047D01*
X90444880Y-76488333D01*
X90397261Y-76393095D01*
X90349642Y-76345476D01*
X89444880Y-77869285D02*
X89444880Y-77393095D01*
X89921071Y-77345476D01*
X89873452Y-77393095D01*
X89825833Y-77488333D01*
X89825833Y-77726428D01*
X89873452Y-77821666D01*
X89921071Y-77869285D01*
X90016309Y-77916904D01*
X90254404Y-77916904D01*
X90349642Y-77869285D01*
X90397261Y-77821666D01*
X90444880Y-77726428D01*
X90444880Y-77488333D01*
X90397261Y-77393095D01*
X90349642Y-77345476D01*
X273801180Y-113540714D02*
X272801180Y-113540714D01*
X272801180Y-113778809D01*
X272848800Y-113921666D01*
X272944038Y-114016904D01*
X273039276Y-114064523D01*
X273229752Y-114112142D01*
X273372609Y-114112142D01*
X273563085Y-114064523D01*
X273658323Y-114016904D01*
X273753561Y-113921666D01*
X273801180Y-113778809D01*
X273801180Y-113540714D01*
X272801180Y-114969285D02*
X272801180Y-114778809D01*
X272848800Y-114683571D01*
X272896419Y-114635952D01*
X273039276Y-114540714D01*
X273229752Y-114493095D01*
X273610704Y-114493095D01*
X273705942Y-114540714D01*
X273753561Y-114588333D01*
X273801180Y-114683571D01*
X273801180Y-114874047D01*
X273753561Y-114969285D01*
X273705942Y-115016904D01*
X273610704Y-115064523D01*
X273372609Y-115064523D01*
X273277371Y-115016904D01*
X273229752Y-114969285D01*
X273182133Y-114874047D01*
X273182133Y-114683571D01*
X273229752Y-114588333D01*
X273277371Y-114540714D01*
X273372609Y-114493095D01*
X273801180Y-115540714D02*
X273801180Y-115731190D01*
X273753561Y-115826428D01*
X273705942Y-115874047D01*
X273563085Y-115969285D01*
X273372609Y-116016904D01*
X272991657Y-116016904D01*
X272896419Y-115969285D01*
X272848800Y-115921666D01*
X272801180Y-115826428D01*
X272801180Y-115635952D01*
X272848800Y-115540714D01*
X272896419Y-115493095D01*
X272991657Y-115445476D01*
X273229752Y-115445476D01*
X273324990Y-115493095D01*
X273372609Y-115540714D01*
X273420228Y-115635952D01*
X273420228Y-115826428D01*
X273372609Y-115921666D01*
X273324990Y-115969285D01*
X273229752Y-116016904D01*
X119019880Y-94490714D02*
X118019880Y-94490714D01*
X118019880Y-94728809D01*
X118067500Y-94871666D01*
X118162738Y-94966904D01*
X118257976Y-95014523D01*
X118448452Y-95062142D01*
X118591309Y-95062142D01*
X118781785Y-95014523D01*
X118877023Y-94966904D01*
X118972261Y-94871666D01*
X119019880Y-94728809D01*
X119019880Y-94490714D01*
X118019880Y-95966904D02*
X118019880Y-95490714D01*
X118496071Y-95443095D01*
X118448452Y-95490714D01*
X118400833Y-95585952D01*
X118400833Y-95824047D01*
X118448452Y-95919285D01*
X118496071Y-95966904D01*
X118591309Y-96014523D01*
X118829404Y-96014523D01*
X118924642Y-95966904D01*
X118972261Y-95919285D01*
X119019880Y-95824047D01*
X119019880Y-95585952D01*
X118972261Y-95490714D01*
X118924642Y-95443095D01*
X118019880Y-96633571D02*
X118019880Y-96728809D01*
X118067500Y-96824047D01*
X118115119Y-96871666D01*
X118210357Y-96919285D01*
X118400833Y-96966904D01*
X118638928Y-96966904D01*
X118829404Y-96919285D01*
X118924642Y-96871666D01*
X118972261Y-96824047D01*
X119019880Y-96728809D01*
X119019880Y-96633571D01*
X118972261Y-96538333D01*
X118924642Y-96490714D01*
X118829404Y-96443095D01*
X118638928Y-96395476D01*
X118400833Y-96395476D01*
X118210357Y-96443095D01*
X118115119Y-96490714D01*
X118067500Y-96538333D01*
X118019880Y-96633571D01*
X242844880Y-75440714D02*
X241844880Y-75440714D01*
X241844880Y-75678809D01*
X241892500Y-75821666D01*
X241987738Y-75916904D01*
X242082976Y-75964523D01*
X242273452Y-76012142D01*
X242416309Y-76012142D01*
X242606785Y-75964523D01*
X242702023Y-75916904D01*
X242797261Y-75821666D01*
X242844880Y-75678809D01*
X242844880Y-75440714D01*
X242178214Y-76869285D02*
X242844880Y-76869285D01*
X241797261Y-76631190D02*
X242511547Y-76393095D01*
X242511547Y-77012142D01*
X241844880Y-77297857D02*
X241844880Y-77916904D01*
X242225833Y-77583571D01*
X242225833Y-77726428D01*
X242273452Y-77821666D01*
X242321071Y-77869285D01*
X242416309Y-77916904D01*
X242654404Y-77916904D01*
X242749642Y-77869285D01*
X242797261Y-77821666D01*
X242844880Y-77726428D01*
X242844880Y-77440714D01*
X242797261Y-77345476D01*
X242749642Y-77297857D01*
D11*
X353060000Y-63754000D02*
X320040000Y-63754000D01*
X353060000Y-81534000D02*
X353060000Y-63754000D01*
X320040000Y-63754000D02*
X320040000Y-81534000D01*
X350520000Y-66294000D02*
X350520000Y-63754000D01*
X347980000Y-66294000D02*
X347980000Y-63754000D01*
X320040000Y-81534000D02*
X353060000Y-81534000D01*
X350520000Y-66294000D02*
X347980000Y-66294000D01*
D10*
X344630970Y-78488635D02*
X344530970Y-78488635D01*
X344530970Y-78488635D02*
X344530970Y-78988635D01*
X344530970Y-78988635D02*
X344630970Y-78988635D01*
X344630970Y-78988635D02*
X344630970Y-78488635D01*
G36*
X344630970Y-78988635D02*
G01*
X344530970Y-78988635D01*
X344530970Y-78488635D01*
X344630970Y-78488635D01*
X344630970Y-78988635D01*
G37*
X344630970Y-78988635D02*
X344530970Y-78988635D01*
X344530970Y-78488635D01*
X344630970Y-78488635D01*
X344630970Y-78988635D01*
X344030970Y-78488635D02*
X343830970Y-78488635D01*
X343830970Y-78488635D02*
X343830970Y-78588635D01*
X343830970Y-78588635D02*
X344030970Y-78588635D01*
X344030970Y-78588635D02*
X344030970Y-78488635D01*
G36*
X344030970Y-78588635D02*
G01*
X343830970Y-78588635D01*
X343830970Y-78488635D01*
X344030970Y-78488635D01*
X344030970Y-78588635D01*
G37*
X344030970Y-78588635D02*
X343830970Y-78588635D01*
X343830970Y-78488635D01*
X344030970Y-78488635D01*
X344030970Y-78588635D01*
X344230970Y-78688635D02*
X344130970Y-78688635D01*
X344130970Y-78688635D02*
X344130970Y-78788635D01*
X344130970Y-78788635D02*
X344230970Y-78788635D01*
X344230970Y-78788635D02*
X344230970Y-78688635D01*
G36*
X344230970Y-78788635D02*
G01*
X344130970Y-78788635D01*
X344130970Y-78688635D01*
X344230970Y-78688635D01*
X344230970Y-78788635D01*
G37*
X344230970Y-78788635D02*
X344130970Y-78788635D01*
X344130970Y-78688635D01*
X344230970Y-78688635D01*
X344230970Y-78788635D01*
X344630970Y-78888635D02*
X343830970Y-78888635D01*
X343830970Y-78888635D02*
X343830970Y-78988635D01*
X343830970Y-78988635D02*
X344630970Y-78988635D01*
X344630970Y-78988635D02*
X344630970Y-78888635D01*
G36*
X344630970Y-78988635D02*
G01*
X343830970Y-78988635D01*
X343830970Y-78888635D01*
X344630970Y-78888635D01*
X344630970Y-78988635D01*
G37*
X344630970Y-78988635D02*
X343830970Y-78988635D01*
X343830970Y-78888635D01*
X344630970Y-78888635D01*
X344630970Y-78988635D01*
X344630970Y-78488635D02*
X344330970Y-78488635D01*
X344330970Y-78488635D02*
X344330970Y-78588635D01*
X344330970Y-78588635D02*
X344630970Y-78588635D01*
X344630970Y-78588635D02*
X344630970Y-78488635D01*
G36*
X344630970Y-78588635D02*
G01*
X344330970Y-78588635D01*
X344330970Y-78488635D01*
X344630970Y-78488635D01*
X344630970Y-78588635D01*
G37*
X344630970Y-78588635D02*
X344330970Y-78588635D01*
X344330970Y-78488635D01*
X344630970Y-78488635D01*
X344630970Y-78588635D01*
D12*
X312427500Y-111675000D02*
X312427500Y-116655000D01*
X309707500Y-111675000D02*
X309707500Y-116655000D01*
X309707500Y-111675000D02*
X312427500Y-111675000D01*
X266845000Y-35475000D02*
X266845000Y-40455000D01*
X269565000Y-35475000D02*
X269565000Y-40455000D01*
X266845000Y-35475000D02*
X269565000Y-35475000D01*
X347807500Y-111675000D02*
X350527500Y-111675000D01*
X350527500Y-111675000D02*
X350527500Y-116655000D01*
X347807500Y-111675000D02*
X347807500Y-116655000D01*
X147782500Y-73575000D02*
X150502500Y-73575000D01*
X147782500Y-73575000D02*
X147782500Y-78555000D01*
X150502500Y-73575000D02*
X150502500Y-78555000D01*
X83827500Y-92625000D02*
X83827500Y-97605000D01*
X81107500Y-92625000D02*
X81107500Y-97605000D01*
X81107500Y-92625000D02*
X83827500Y-92625000D01*
X57295000Y-35475000D02*
X60015000Y-35475000D01*
X57295000Y-35475000D02*
X57295000Y-40455000D01*
X60015000Y-35475000D02*
X60015000Y-40455000D01*
X228745000Y-35475000D02*
X228745000Y-40455000D01*
X228745000Y-35475000D02*
X231465000Y-35475000D01*
X231465000Y-35475000D02*
X231465000Y-40455000D01*
X298140000Y-35475000D02*
X298140000Y-40455000D01*
X295420000Y-35475000D02*
X295420000Y-40455000D01*
X295420000Y-35475000D02*
X298140000Y-35475000D01*
X328757500Y-35475000D02*
X331477500Y-35475000D01*
X328757500Y-35475000D02*
X328757500Y-40455000D01*
X331477500Y-35475000D02*
X331477500Y-40455000D01*
X198127500Y-92625000D02*
X198127500Y-97605000D01*
X195407500Y-92625000D02*
X195407500Y-97605000D01*
X195407500Y-92625000D02*
X198127500Y-92625000D01*
X181120000Y-54525000D02*
X181120000Y-59505000D01*
X183840000Y-54525000D02*
X183840000Y-59505000D01*
X181120000Y-54525000D02*
X183840000Y-54525000D01*
X260040000Y-54525000D02*
X260040000Y-59505000D01*
X257320000Y-54525000D02*
X257320000Y-59505000D01*
X257320000Y-54525000D02*
X260040000Y-54525000D01*
X304945000Y-92625000D02*
X304945000Y-97605000D01*
X304945000Y-92625000D02*
X307665000Y-92625000D01*
X307665000Y-92625000D02*
X307665000Y-97605000D01*
X117165000Y-35475000D02*
X117165000Y-40455000D01*
X114445000Y-35475000D02*
X117165000Y-35475000D01*
X114445000Y-35475000D02*
X114445000Y-40455000D01*
X219220000Y-54525000D02*
X221940000Y-54525000D01*
X221940000Y-54525000D02*
X221940000Y-59505000D01*
X219220000Y-54525000D02*
X219220000Y-59505000D01*
X98115000Y-35475000D02*
X98115000Y-40455000D01*
X95395000Y-35475000D02*
X98115000Y-35475000D01*
X95395000Y-35475000D02*
X95395000Y-40455000D01*
X331477500Y-111675000D02*
X331477500Y-116655000D01*
X328757500Y-111675000D02*
X331477500Y-111675000D01*
X328757500Y-111675000D02*
X328757500Y-116655000D01*
X200170000Y-54525000D02*
X202890000Y-54525000D01*
X200170000Y-54525000D02*
X200170000Y-59505000D01*
X202890000Y-54525000D02*
X202890000Y-59505000D01*
X247795000Y-35475000D02*
X247795000Y-40455000D01*
X247795000Y-35475000D02*
X250515000Y-35475000D01*
X250515000Y-35475000D02*
X250515000Y-40455000D01*
X155265000Y-111675000D02*
X155265000Y-116655000D01*
X152545000Y-111675000D02*
X155265000Y-111675000D01*
X152545000Y-111675000D02*
X152545000Y-116655000D01*
X276370000Y-54525000D02*
X276370000Y-59505000D01*
X279090000Y-54525000D02*
X279090000Y-59505000D01*
X276370000Y-54525000D02*
X279090000Y-54525000D01*
X133495000Y-35475000D02*
X136215000Y-35475000D01*
X133495000Y-35475000D02*
X133495000Y-40455000D01*
X136215000Y-35475000D02*
X136215000Y-40455000D01*
X302563800Y-64050000D02*
X302563800Y-69030000D01*
X305283800Y-64050000D02*
X305283800Y-69030000D01*
X302563800Y-64050000D02*
X305283800Y-64050000D01*
X252557500Y-92625000D02*
X255277500Y-92625000D01*
X255277500Y-92625000D02*
X255277500Y-97605000D01*
X252557500Y-92625000D02*
X252557500Y-97605000D01*
X128732500Y-73575000D02*
X131452500Y-73575000D01*
X131452500Y-73575000D02*
X131452500Y-78555000D01*
X128732500Y-73575000D02*
X128732500Y-78555000D01*
X71582500Y-73575000D02*
X71582500Y-78555000D01*
X71582500Y-73575000D02*
X74302500Y-73575000D01*
X74302500Y-73575000D02*
X74302500Y-78555000D01*
X76345000Y-35475000D02*
X79065000Y-35475000D01*
X76345000Y-35475000D02*
X76345000Y-40455000D01*
X79065000Y-35475000D02*
X79065000Y-40455000D01*
X143020000Y-54525000D02*
X145740000Y-54525000D01*
X145740000Y-54525000D02*
X145740000Y-59505000D01*
X143020000Y-54525000D02*
X143020000Y-59505000D01*
X90971300Y-111675000D02*
X90971300Y-116655000D01*
X88251300Y-111675000D02*
X88251300Y-116655000D01*
X88251300Y-111675000D02*
X90971300Y-111675000D01*
X100157500Y-92625000D02*
X102877500Y-92625000D01*
X102877500Y-92625000D02*
X102877500Y-97605000D01*
X100157500Y-92625000D02*
X100157500Y-97605000D01*
X67158800Y-111675000D02*
X67158800Y-116655000D01*
X64438800Y-111675000D02*
X67158800Y-111675000D01*
X64438800Y-111675000D02*
X64438800Y-116655000D01*
X185882500Y-73575000D02*
X188602500Y-73575000D01*
X188602500Y-73575000D02*
X188602500Y-78555000D01*
X185882500Y-73575000D02*
X185882500Y-78555000D01*
X40965000Y-35475000D02*
X40965000Y-40455000D01*
X38245000Y-35475000D02*
X40965000Y-35475000D01*
X38245000Y-35475000D02*
X38245000Y-40455000D01*
X45727500Y-54525000D02*
X45727500Y-59505000D01*
X43007500Y-54525000D02*
X45727500Y-54525000D01*
X43007500Y-54525000D02*
X43007500Y-59505000D01*
X69540000Y-54525000D02*
X69540000Y-59505000D01*
X66820000Y-54525000D02*
X69540000Y-54525000D01*
X66820000Y-54525000D02*
X66820000Y-59505000D01*
X204932500Y-73575000D02*
X204932500Y-78555000D01*
X207652500Y-73575000D02*
X207652500Y-78555000D01*
X204932500Y-73575000D02*
X207652500Y-73575000D01*
X104920000Y-54525000D02*
X107640000Y-54525000D01*
X104920000Y-54525000D02*
X104920000Y-59505000D01*
X107640000Y-54525000D02*
X107640000Y-59505000D01*
X283852500Y-73575000D02*
X283852500Y-78555000D01*
X281132500Y-73575000D02*
X283852500Y-73575000D01*
X281132500Y-73575000D02*
X281132500Y-78555000D01*
X162070000Y-54525000D02*
X164790000Y-54525000D01*
X164790000Y-54525000D02*
X164790000Y-59505000D01*
X162070000Y-54525000D02*
X162070000Y-59505000D01*
X250176300Y-111675000D02*
X250176300Y-116655000D01*
X250176300Y-111675000D02*
X252896300Y-111675000D01*
X252896300Y-111675000D02*
X252896300Y-116655000D01*
X174315000Y-35475000D02*
X174315000Y-40455000D01*
X171595000Y-35475000D02*
X174315000Y-35475000D01*
X171595000Y-35475000D02*
X171595000Y-40455000D01*
X62057500Y-92625000D02*
X64777500Y-92625000D01*
X64777500Y-92625000D02*
X64777500Y-97605000D01*
X62057500Y-92625000D02*
X62057500Y-97605000D01*
X209695000Y-35475000D02*
X209695000Y-40455000D01*
X209695000Y-35475000D02*
X212415000Y-35475000D01*
X212415000Y-35475000D02*
X212415000Y-40455000D01*
X238270000Y-54525000D02*
X240990000Y-54525000D01*
X238270000Y-54525000D02*
X238270000Y-59505000D01*
X240990000Y-54525000D02*
X240990000Y-59505000D01*
X331477500Y-54525000D02*
X331477500Y-59505000D01*
X328757500Y-54525000D02*
X331477500Y-54525000D01*
X328757500Y-54525000D02*
X328757500Y-59505000D01*
X226363800Y-111675000D02*
X226363800Y-116655000D01*
X229083800Y-111675000D02*
X229083800Y-116655000D01*
X226363800Y-111675000D02*
X229083800Y-111675000D01*
X40626300Y-92625000D02*
X43346300Y-92625000D01*
X40626300Y-92625000D02*
X40626300Y-97605000D01*
X43346300Y-92625000D02*
X43346300Y-97605000D01*
X190645000Y-35475000D02*
X190645000Y-40455000D01*
X190645000Y-35475000D02*
X193365000Y-35475000D01*
X193365000Y-35475000D02*
X193365000Y-40455000D01*
X152545000Y-35475000D02*
X155265000Y-35475000D01*
X152545000Y-35475000D02*
X152545000Y-40455000D01*
X155265000Y-35475000D02*
X155265000Y-40455000D01*
X188263800Y-111675000D02*
X190983800Y-111675000D01*
X190983800Y-111675000D02*
X190983800Y-116655000D01*
X188263800Y-111675000D02*
X188263800Y-116655000D01*
X40626300Y-111675000D02*
X40626300Y-116655000D01*
X40626300Y-111675000D02*
X43346300Y-111675000D01*
X43346300Y-111675000D02*
X43346300Y-116655000D01*
X328757500Y-92625000D02*
X331477500Y-92625000D01*
X331477500Y-92625000D02*
X331477500Y-97605000D01*
X328757500Y-92625000D02*
X328757500Y-97605000D01*
X166832500Y-73575000D02*
X169552500Y-73575000D01*
X169552500Y-73575000D02*
X169552500Y-78555000D01*
X166832500Y-73575000D02*
X166832500Y-78555000D01*
X138257500Y-92625000D02*
X140977500Y-92625000D01*
X140977500Y-92625000D02*
X140977500Y-97605000D01*
X138257500Y-92625000D02*
X138257500Y-97605000D01*
X179077500Y-92625000D02*
X179077500Y-97605000D01*
X176357500Y-92625000D02*
X176357500Y-97605000D01*
X176357500Y-92625000D02*
X179077500Y-92625000D01*
X347807500Y-35475000D02*
X347807500Y-40455000D01*
X350527500Y-35475000D02*
X350527500Y-40455000D01*
X347807500Y-35475000D02*
X350527500Y-35475000D01*
X214457500Y-92625000D02*
X214457500Y-97605000D01*
X217177500Y-92625000D02*
X217177500Y-97605000D01*
X214457500Y-92625000D02*
X217177500Y-92625000D01*
X278751300Y-92625000D02*
X278751300Y-97605000D01*
X278751300Y-92625000D02*
X281471300Y-92625000D01*
X281471300Y-92625000D02*
X281471300Y-97605000D01*
X157307500Y-92625000D02*
X157307500Y-97605000D01*
X157307500Y-92625000D02*
X160027500Y-92625000D01*
X160027500Y-92625000D02*
X160027500Y-97605000D01*
X85870000Y-54525000D02*
X88590000Y-54525000D01*
X88590000Y-54525000D02*
X88590000Y-59505000D01*
X85870000Y-54525000D02*
X85870000Y-59505000D01*
X121588800Y-111675000D02*
X124308800Y-111675000D01*
X121588800Y-111675000D02*
X121588800Y-116655000D01*
X124308800Y-111675000D02*
X124308800Y-116655000D01*
X223982500Y-73575000D02*
X223982500Y-78555000D01*
X223982500Y-73575000D02*
X226702500Y-73575000D01*
X226702500Y-73575000D02*
X226702500Y-78555000D01*
X123970000Y-54525000D02*
X123970000Y-59505000D01*
X126690000Y-54525000D02*
X126690000Y-59505000D01*
X123970000Y-54525000D02*
X126690000Y-54525000D01*
X347807500Y-54525000D02*
X350527500Y-54525000D01*
X347807500Y-54525000D02*
X347807500Y-59505000D01*
X350527500Y-54525000D02*
X350527500Y-59505000D01*
X112402500Y-73575000D02*
X112402500Y-78555000D01*
X109682500Y-73575000D02*
X112402500Y-73575000D01*
X109682500Y-73575000D02*
X109682500Y-78555000D01*
X236227500Y-92625000D02*
X236227500Y-97605000D01*
X233507500Y-92625000D02*
X233507500Y-97605000D01*
X233507500Y-92625000D02*
X236227500Y-92625000D01*
X45388800Y-73575000D02*
X45388800Y-78555000D01*
X48108800Y-73575000D02*
X48108800Y-78555000D01*
X45388800Y-73575000D02*
X48108800Y-73575000D01*
X262082500Y-73575000D02*
X262082500Y-78555000D01*
X262082500Y-73575000D02*
X264802500Y-73575000D01*
X264802500Y-73575000D02*
X264802500Y-78555000D01*
X90632500Y-73575000D02*
X90632500Y-78555000D01*
X90632500Y-73575000D02*
X93352500Y-73575000D01*
X93352500Y-73575000D02*
X93352500Y-78555000D01*
X273988800Y-111675000D02*
X273988800Y-116655000D01*
X273988800Y-111675000D02*
X276708800Y-111675000D01*
X276708800Y-111675000D02*
X276708800Y-116655000D01*
X121927500Y-92625000D02*
X121927500Y-97605000D01*
X119207500Y-92625000D02*
X121927500Y-92625000D01*
X119207500Y-92625000D02*
X119207500Y-97605000D01*
X243032500Y-73575000D02*
X245752500Y-73575000D01*
X243032500Y-73575000D02*
X243032500Y-78555000D01*
X245752500Y-73575000D02*
X245752500Y-78555000D01*
D13*
X349250000Y-65024000D03*
D14*
X346710000Y-65024000D03*
X344170000Y-65024000D03*
X341630000Y-65024000D03*
X339090000Y-65024000D03*
X336550000Y-65024000D03*
X334010000Y-65024000D03*
X331470000Y-65024000D03*
X328930000Y-65024000D03*
X326390000Y-65024000D03*
X323850000Y-65024000D03*
X321310000Y-65252600D03*
X321310000Y-80264000D03*
X323850000Y-80264000D03*
X326390000Y-80264000D03*
X328930000Y-80264000D03*
X331470000Y-80264000D03*
X334010000Y-80264000D03*
X336550000Y-80264000D03*
X339090000Y-80264000D03*
X341630000Y-80264000D03*
X344170000Y-80264000D03*
X346710000Y-80264000D03*
X349250000Y-80264000D03*
X321310000Y-67564000D03*
X321310000Y-70104000D03*
X321310000Y-72644000D03*
X321310000Y-75184000D03*
X321310000Y-77724000D03*
%LPC*%
D15*
X189230000Y-122770000D03*
X105830000Y-122770000D03*
X22430000Y-122770000D03*
X22430000Y-72640000D03*
X22430000Y-22520000D03*
X105830000Y-22520000D03*
X189240000Y-22520000D03*
X272640000Y-22520000D03*
X356040000Y-22520000D03*
X356030000Y-72640000D03*
X356040000Y-122770000D03*
X272630000Y-122770000D03*
D16*
X268205000Y-34525000D03*
X258045000Y-34525000D03*
D17*
X263125000Y-34525000D03*
D18*
X256040000Y-31985000D03*
X268940000Y-29445000D03*
D16*
X191370000Y-53575000D03*
D17*
X196450000Y-53575000D03*
D18*
X202265000Y-48495000D03*
X189365000Y-51035000D03*
D16*
X201530000Y-53575000D03*
D18*
X222702500Y-89135000D03*
D16*
X224707500Y-91675000D03*
D18*
X235602500Y-86595000D03*
D17*
X229787500Y-91675000D03*
D16*
X234867500Y-91675000D03*
D18*
X270327500Y-70085000D03*
X283227500Y-67545000D03*
D17*
X277412500Y-72625000D03*
D16*
X272332500Y-72625000D03*
X282492500Y-72625000D03*
X58020000Y-53575000D03*
D18*
X68915000Y-48495000D03*
D16*
X68180000Y-53575000D03*
D17*
X63100000Y-53575000D03*
D18*
X56015000Y-51035000D03*
X98877500Y-70085000D03*
D17*
X105962500Y-72625000D03*
D16*
X100882500Y-72625000D03*
D18*
X111777500Y-67545000D03*
D16*
X111042500Y-72625000D03*
D17*
X67862500Y-72625000D03*
D18*
X73677500Y-67545000D03*
D16*
X72942500Y-72625000D03*
X62782500Y-72625000D03*
D18*
X60777500Y-70085000D03*
D16*
X339007500Y-34525000D03*
D18*
X349902500Y-29445000D03*
D16*
X349167500Y-34525000D03*
D17*
X344087500Y-34525000D03*
D18*
X337002500Y-31985000D03*
D16*
X105645000Y-34525000D03*
D17*
X110725000Y-34525000D03*
D18*
X116540000Y-29445000D03*
X103640000Y-31985000D03*
D16*
X115805000Y-34525000D03*
D18*
X130827500Y-67545000D03*
X117927500Y-70085000D03*
D16*
X130092500Y-72625000D03*
D17*
X125012500Y-72625000D03*
D16*
X119932500Y-72625000D03*
D18*
X317952500Y-108185000D03*
X330852500Y-105645000D03*
D17*
X325037500Y-110725000D03*
D16*
X319957500Y-110725000D03*
X330117500Y-110725000D03*
D17*
X301225000Y-91675000D03*
D16*
X296145000Y-91675000D03*
X306305000Y-91675000D03*
D18*
X294140000Y-89135000D03*
X307040000Y-86595000D03*
D16*
X168192500Y-72625000D03*
D18*
X168927500Y-67545000D03*
D17*
X163112500Y-72625000D03*
D18*
X156027500Y-70085000D03*
D16*
X158032500Y-72625000D03*
D17*
X325037500Y-53575000D03*
D18*
X330852500Y-48495000D03*
X317952500Y-51035000D03*
D16*
X319957500Y-53575000D03*
X330117500Y-53575000D03*
X86595000Y-34525000D03*
D18*
X84590000Y-31985000D03*
X97490000Y-29445000D03*
D16*
X96755000Y-34525000D03*
D17*
X91675000Y-34525000D03*
D16*
X46748800Y-72625000D03*
D18*
X47483800Y-67545000D03*
D17*
X41668800Y-72625000D03*
D16*
X36588800Y-72625000D03*
D18*
X34583800Y-70085000D03*
D13*
X349250000Y-65024000D03*
D14*
X346710000Y-65024000D03*
X344170000Y-65024000D03*
X341630000Y-65024000D03*
X339090000Y-65024000D03*
X336550000Y-65024000D03*
X334010000Y-65024000D03*
X331470000Y-65024000D03*
X328930000Y-65024000D03*
X326390000Y-65024000D03*
X323850000Y-65024000D03*
X321310000Y-65252600D03*
X321310000Y-80264000D03*
X323850000Y-80264000D03*
X326390000Y-80264000D03*
X328930000Y-80264000D03*
X331470000Y-80264000D03*
X334010000Y-80264000D03*
X336550000Y-80264000D03*
X339090000Y-80264000D03*
X341630000Y-80264000D03*
X344170000Y-80264000D03*
X346710000Y-80264000D03*
X349250000Y-80264000D03*
X321310000Y-67564000D03*
X321310000Y-70104000D03*
X321310000Y-72644000D03*
X321310000Y-75184000D03*
X321310000Y-77724000D03*
D17*
X139300000Y-53575000D03*
D18*
X132215000Y-51035000D03*
D16*
X144380000Y-53575000D03*
D18*
X145115000Y-48495000D03*
D16*
X134220000Y-53575000D03*
X253917500Y-91675000D03*
D18*
X254652500Y-86595000D03*
D16*
X243757500Y-91675000D03*
D17*
X248837500Y-91675000D03*
D18*
X241752500Y-89135000D03*
D16*
X217563800Y-110725000D03*
D18*
X228458800Y-105645000D03*
X215558800Y-108185000D03*
D16*
X227723800Y-110725000D03*
D17*
X222643800Y-110725000D03*
D18*
X32202500Y-51035000D03*
D17*
X39287500Y-53575000D03*
D16*
X44367500Y-53575000D03*
D18*
X45102500Y-48495000D03*
D16*
X34207500Y-53575000D03*
D18*
X149877500Y-67545000D03*
D16*
X149142500Y-72625000D03*
X138982500Y-72625000D03*
D17*
X144062500Y-72625000D03*
D18*
X136977500Y-70085000D03*
D16*
X77705000Y-34525000D03*
X67545000Y-34525000D03*
D17*
X72625000Y-34525000D03*
D18*
X78440000Y-29445000D03*
X65540000Y-31985000D03*
D16*
X300907500Y-110725000D03*
D18*
X311802500Y-105645000D03*
D17*
X305987500Y-110725000D03*
D18*
X298902500Y-108185000D03*
D16*
X311067500Y-110725000D03*
D18*
X141740000Y-108185000D03*
D16*
X153905000Y-110725000D03*
X143745000Y-110725000D03*
D18*
X154640000Y-105645000D03*
D17*
X148825000Y-110725000D03*
D16*
X172320000Y-53575000D03*
X182480000Y-53575000D03*
D17*
X177400000Y-53575000D03*
D18*
X183215000Y-48495000D03*
X170315000Y-51035000D03*
D16*
X53257500Y-91675000D03*
X63417500Y-91675000D03*
D18*
X64152500Y-86595000D03*
X51252500Y-89135000D03*
D17*
X58337500Y-91675000D03*
D16*
X82467500Y-91675000D03*
D18*
X70302500Y-89135000D03*
X83202500Y-86595000D03*
D16*
X72307500Y-91675000D03*
D17*
X77387500Y-91675000D03*
D18*
X159402500Y-86595000D03*
D16*
X148507500Y-91675000D03*
D17*
X153587500Y-91675000D03*
D16*
X158667500Y-91675000D03*
D18*
X146502500Y-89135000D03*
X173690000Y-29445000D03*
X160790000Y-31985000D03*
D17*
X167875000Y-34525000D03*
D16*
X162795000Y-34525000D03*
X172955000Y-34525000D03*
D17*
X298843800Y-63100000D03*
D18*
X291758800Y-60560000D03*
D16*
X303923800Y-63100000D03*
X293763800Y-63100000D03*
D18*
X304658800Y-58020000D03*
X265565000Y-51035000D03*
D17*
X272650000Y-53575000D03*
D18*
X278465000Y-48495000D03*
D16*
X267570000Y-53575000D03*
X277730000Y-53575000D03*
X234232500Y-72625000D03*
X244392500Y-72625000D03*
D18*
X232227500Y-70085000D03*
X245127500Y-67545000D03*
D17*
X239312500Y-72625000D03*
D16*
X122948800Y-110725000D03*
D18*
X110783800Y-108185000D03*
D17*
X117868800Y-110725000D03*
D18*
X123683800Y-105645000D03*
D16*
X112788800Y-110725000D03*
D18*
X187977500Y-67545000D03*
D16*
X187242500Y-72625000D03*
D18*
X175077500Y-70085000D03*
D17*
X182162500Y-72625000D03*
D16*
X177082500Y-72625000D03*
D18*
X226077500Y-67545000D03*
D16*
X225342500Y-72625000D03*
X215182500Y-72625000D03*
D17*
X220262500Y-72625000D03*
D18*
X213177500Y-70085000D03*
D17*
X53575000Y-34525000D03*
D18*
X46490000Y-31985000D03*
D16*
X58655000Y-34525000D03*
X48495000Y-34525000D03*
D18*
X59390000Y-29445000D03*
D16*
X39605000Y-34525000D03*
D18*
X27440000Y-31985000D03*
D17*
X34525000Y-34525000D03*
D16*
X29445000Y-34525000D03*
D18*
X40340000Y-29445000D03*
D16*
X241376300Y-110725000D03*
D17*
X246456300Y-110725000D03*
D18*
X239371300Y-108185000D03*
X252271300Y-105645000D03*
D16*
X251536300Y-110725000D03*
D18*
X102252500Y-86595000D03*
D16*
X101517500Y-91675000D03*
X91357500Y-91675000D03*
D18*
X89352500Y-89135000D03*
D17*
X96437500Y-91675000D03*
X191687500Y-91675000D03*
D18*
X184602500Y-89135000D03*
X197502500Y-86595000D03*
D16*
X186607500Y-91675000D03*
X196767500Y-91675000D03*
D17*
X215500000Y-53575000D03*
D18*
X221315000Y-48495000D03*
D16*
X220580000Y-53575000D03*
D18*
X208415000Y-51035000D03*
D16*
X210420000Y-53575000D03*
X205657500Y-91675000D03*
D18*
X203652500Y-89135000D03*
D17*
X210737500Y-91675000D03*
D18*
X216552500Y-86595000D03*
D16*
X215817500Y-91675000D03*
D18*
X211790000Y-29445000D03*
D16*
X211055000Y-34525000D03*
X200895000Y-34525000D03*
D17*
X205975000Y-34525000D03*
D18*
X198890000Y-31985000D03*
D16*
X153905000Y-34525000D03*
D18*
X141740000Y-31985000D03*
D16*
X143745000Y-34525000D03*
D17*
X148825000Y-34525000D03*
D18*
X154640000Y-29445000D03*
X192740000Y-29445000D03*
X179840000Y-31985000D03*
D16*
X192005000Y-34525000D03*
X181845000Y-34525000D03*
D17*
X186925000Y-34525000D03*
D18*
X122690000Y-31985000D03*
X135590000Y-29445000D03*
D16*
X124695000Y-34525000D03*
X134855000Y-34525000D03*
D17*
X129775000Y-34525000D03*
D16*
X319957500Y-34525000D03*
D18*
X330852500Y-29445000D03*
D17*
X325037500Y-34525000D03*
D16*
X330117500Y-34525000D03*
D18*
X317952500Y-31985000D03*
X217940000Y-31985000D03*
D17*
X225025000Y-34525000D03*
D18*
X230840000Y-29445000D03*
D16*
X230105000Y-34525000D03*
X219945000Y-34525000D03*
X196132500Y-72625000D03*
X206292500Y-72625000D03*
D18*
X194127500Y-70085000D03*
X207027500Y-67545000D03*
D17*
X201212500Y-72625000D03*
X244075000Y-34525000D03*
D16*
X238995000Y-34525000D03*
X249155000Y-34525000D03*
D18*
X236990000Y-31985000D03*
X249890000Y-29445000D03*
X178452500Y-86595000D03*
D17*
X172637500Y-91675000D03*
D16*
X167557500Y-91675000D03*
X177717500Y-91675000D03*
D18*
X165552500Y-89135000D03*
X53633800Y-108185000D03*
D16*
X55638800Y-110725000D03*
D17*
X60718800Y-110725000D03*
D16*
X65798800Y-110725000D03*
D18*
X66533800Y-105645000D03*
X94115000Y-51035000D03*
D17*
X101200000Y-53575000D03*
D16*
X96120000Y-53575000D03*
X106280000Y-53575000D03*
D18*
X107015000Y-48495000D03*
X240365000Y-48495000D03*
D16*
X239630000Y-53575000D03*
D18*
X227465000Y-51035000D03*
D16*
X229470000Y-53575000D03*
D17*
X234550000Y-53575000D03*
D16*
X41986300Y-110725000D03*
D18*
X42721300Y-105645000D03*
D16*
X31826300Y-110725000D03*
D18*
X29821300Y-108185000D03*
D17*
X36906300Y-110725000D03*
X158350000Y-53575000D03*
D16*
X153270000Y-53575000D03*
D18*
X151265000Y-51035000D03*
D16*
X163430000Y-53575000D03*
D18*
X164165000Y-48495000D03*
D16*
X77070000Y-53575000D03*
D18*
X87965000Y-48495000D03*
D17*
X82150000Y-53575000D03*
D16*
X87230000Y-53575000D03*
D18*
X75065000Y-51035000D03*
D17*
X344087500Y-110725000D03*
D16*
X339007500Y-110725000D03*
X349167500Y-110725000D03*
D18*
X349902500Y-105645000D03*
X337002500Y-108185000D03*
D16*
X179463800Y-110725000D03*
X189623800Y-110725000D03*
D18*
X177458800Y-108185000D03*
X190358800Y-105645000D03*
D17*
X184543800Y-110725000D03*
X344087500Y-53575000D03*
D16*
X339007500Y-53575000D03*
X349167500Y-53575000D03*
D18*
X349902500Y-48495000D03*
X337002500Y-51035000D03*
D16*
X253282500Y-72625000D03*
D17*
X258362500Y-72625000D03*
D18*
X251277500Y-70085000D03*
X264177500Y-67545000D03*
D16*
X263442500Y-72625000D03*
X115170000Y-53575000D03*
D17*
X120250000Y-53575000D03*
D18*
X113165000Y-51035000D03*
X126065000Y-48495000D03*
D16*
X125330000Y-53575000D03*
X296780000Y-34525000D03*
X286620000Y-34525000D03*
D18*
X297515000Y-29445000D03*
D17*
X291700000Y-34525000D03*
D18*
X284615000Y-31985000D03*
X140352500Y-86595000D03*
D17*
X134537500Y-91675000D03*
D18*
X127452500Y-89135000D03*
D16*
X129457500Y-91675000D03*
X139617500Y-91675000D03*
D18*
X108402500Y-89135000D03*
D16*
X120567500Y-91675000D03*
D18*
X121302500Y-86595000D03*
D16*
X110407500Y-91675000D03*
D17*
X115487500Y-91675000D03*
D16*
X79451300Y-110725000D03*
D18*
X77446300Y-108185000D03*
X90346300Y-105645000D03*
D17*
X84531300Y-110725000D03*
D16*
X89611300Y-110725000D03*
X269951300Y-91675000D03*
D18*
X267946300Y-89135000D03*
D17*
X275031300Y-91675000D03*
D18*
X280846300Y-86595000D03*
D16*
X280111300Y-91675000D03*
D18*
X29821300Y-89135000D03*
X42721300Y-86595000D03*
D17*
X36906300Y-91675000D03*
D16*
X31826300Y-91675000D03*
X41986300Y-91675000D03*
X258680000Y-53575000D03*
D17*
X253600000Y-53575000D03*
D18*
X259415000Y-48495000D03*
D16*
X248520000Y-53575000D03*
D18*
X246515000Y-51035000D03*
D17*
X270268800Y-110725000D03*
D16*
X275348800Y-110725000D03*
D18*
X276083800Y-105645000D03*
X263183800Y-108185000D03*
D16*
X265188800Y-110725000D03*
X91992500Y-72625000D03*
D18*
X79827500Y-70085000D03*
D16*
X81832500Y-72625000D03*
D17*
X86912500Y-72625000D03*
D18*
X92727500Y-67545000D03*
D16*
X330117500Y-91675000D03*
X319957500Y-91675000D03*
D18*
X330852500Y-86595000D03*
X317952500Y-89135000D03*
D17*
X325037500Y-91675000D03*
D19*
X311067500Y-112555000D03*
X311067500Y-116955000D03*
X268205000Y-36355000D03*
X268205000Y-40755000D03*
X349167500Y-112555000D03*
X349167500Y-116955000D03*
X149142500Y-74455000D03*
X149142500Y-78855000D03*
X82467500Y-93505000D03*
X82467500Y-97905000D03*
X58655000Y-36355000D03*
X58655000Y-40755000D03*
X230105000Y-36355000D03*
X230105000Y-40755000D03*
X296780000Y-36355000D03*
X296780000Y-40755000D03*
X330117500Y-36355000D03*
X330117500Y-40755000D03*
X196767500Y-93505000D03*
X196767500Y-97905000D03*
X182480000Y-55405000D03*
X182480000Y-59805000D03*
X258680000Y-55405000D03*
X258680000Y-59805000D03*
X306305000Y-93505000D03*
X306305000Y-97905000D03*
X115805000Y-36355000D03*
X115805000Y-40755000D03*
X220580000Y-55405000D03*
X220580000Y-59805000D03*
X96755000Y-36355000D03*
X96755000Y-40755000D03*
X330117500Y-112555000D03*
X330117500Y-116955000D03*
X201530000Y-55405000D03*
X201530000Y-59805000D03*
X249155000Y-36355000D03*
X249155000Y-40755000D03*
X153905000Y-112555000D03*
X153905000Y-116955000D03*
X277730000Y-55405000D03*
X277730000Y-59805000D03*
X134855000Y-36355000D03*
X134855000Y-40755000D03*
X303923800Y-64930000D03*
X303923800Y-69330000D03*
X253917500Y-93505000D03*
X253917500Y-97905000D03*
X130092500Y-74455000D03*
X130092500Y-78855000D03*
X72942500Y-74455000D03*
X72942500Y-78855000D03*
X77705000Y-36355000D03*
X77705000Y-40755000D03*
X144380000Y-55405000D03*
X144380000Y-59805000D03*
X89611300Y-112555000D03*
X89611300Y-116955000D03*
X101517500Y-93505000D03*
X101517500Y-97905000D03*
X65798800Y-112555000D03*
X65798800Y-116955000D03*
X187242500Y-74455000D03*
X187242500Y-78855000D03*
X39605000Y-36355000D03*
X39605000Y-40755000D03*
X44367500Y-55405000D03*
X44367500Y-59805000D03*
X68180000Y-55405000D03*
X68180000Y-59805000D03*
X206292500Y-74455000D03*
X206292500Y-78855000D03*
X106280000Y-55405000D03*
X106280000Y-59805000D03*
X282492500Y-74455000D03*
X282492500Y-78855000D03*
X163430000Y-55405000D03*
X163430000Y-59805000D03*
X251536300Y-112555000D03*
X251536300Y-116955000D03*
X172955000Y-36355000D03*
X172955000Y-40755000D03*
X63417500Y-93505000D03*
X63417500Y-97905000D03*
X211055000Y-36355000D03*
X211055000Y-40755000D03*
X239630000Y-55405000D03*
X239630000Y-59805000D03*
X330117500Y-55405000D03*
X330117500Y-59805000D03*
X227723800Y-112555000D03*
X227723800Y-116955000D03*
X41986300Y-93505000D03*
X41986300Y-97905000D03*
X192005000Y-36355000D03*
X192005000Y-40755000D03*
X153905000Y-36355000D03*
X153905000Y-40755000D03*
X189623800Y-112555000D03*
X189623800Y-116955000D03*
X41986300Y-112555000D03*
X41986300Y-116955000D03*
X330117500Y-93505000D03*
X330117500Y-97905000D03*
X168192500Y-74455000D03*
X168192500Y-78855000D03*
X139617500Y-93505000D03*
X139617500Y-97905000D03*
X177717500Y-93505000D03*
X177717500Y-97905000D03*
X349167500Y-36355000D03*
X349167500Y-40755000D03*
X215817500Y-93505000D03*
X215817500Y-97905000D03*
X280111300Y-93505000D03*
X280111300Y-97905000D03*
X158667500Y-93505000D03*
X158667500Y-97905000D03*
X87230000Y-55405000D03*
X87230000Y-59805000D03*
X122948800Y-112555000D03*
X122948800Y-116955000D03*
X225342500Y-74455000D03*
X225342500Y-78855000D03*
X125330000Y-55405000D03*
X125330000Y-59805000D03*
X349167500Y-55405000D03*
X349167500Y-59805000D03*
X111042500Y-74455000D03*
X111042500Y-78855000D03*
X234867500Y-93505000D03*
X234867500Y-97905000D03*
X46748800Y-74455000D03*
X46748800Y-78855000D03*
X263442500Y-74455000D03*
X263442500Y-78855000D03*
X91992500Y-74455000D03*
X91992500Y-78855000D03*
X275348800Y-112555000D03*
X275348800Y-116955000D03*
X120567500Y-93505000D03*
X120567500Y-97905000D03*
X244392500Y-74455000D03*
X244392500Y-78855000D03*
M02*
