M48
; DRILL file {KiCad (5.99.0-12974-ge12f9a194d)} date 2022 March 06, Sunday 12:10:06
; FORMAT={-:-/ absolute / inch / decimal}
; #@! TF.CreationDate,2022-03-06T12:10:06+01:00
; #@! TF.GenerationSoftware,Kicad,Pcbnew,(5.99.0-12974-ge12f9a194d)
; #@! TF.FileFunction,NonPlated,1,2,NPTH
FMAT,2
INCH
; #@! TA.AperFunction,NonPlated,NPTH,ComponentDrill
T1C0.0689
; #@! TA.AperFunction,NonPlated,NPTH,ComponentDrill
T2C0.0866
; #@! TA.AperFunction,NonPlated,NPTH,ComponentDrill
T3C0.1570
%
G90
G05
T1
X1.1593Y-1.3593
X1.253Y-3.6093
X1.253Y-4.3593
X1.3468Y-2.1093
X1.4405Y-2.8593
X1.5593Y-1.3593
X1.653Y-3.6093
X1.653Y-4.3593
X1.7468Y-2.1093
X1.8405Y-2.8593
X1.9093Y-1.3593
X2.0968Y-3.6093
X2.1905Y-4.3593
X2.2843Y-2.1093
X2.3093Y-1.3593
X2.4718Y-2.8593
X2.4968Y-3.6093
X2.5905Y-4.3593
X2.6593Y-1.3593
X2.6843Y-2.1093
X2.8468Y-3.6093
X2.8718Y-2.8593
X3.0343Y-2.1093
X3.0593Y-1.3593
X3.128Y-4.3593
X3.2218Y-2.8593
X3.2468Y-3.6093
X3.4093Y-1.3593
X3.4343Y-2.1093
X3.528Y-4.3593
X3.5968Y-3.6093
X3.6218Y-2.8593
X3.7843Y-2.1093
X3.8093Y-1.3593
X3.9718Y-2.8593
X3.9968Y-3.6093
X4.1593Y-1.3593
X4.1843Y-2.1093
X4.3468Y-3.6093
X4.3718Y-2.8593
X4.4405Y-4.3593
X4.5343Y-2.1093
X4.5593Y-1.3593
X4.7218Y-2.8593
X4.7468Y-3.6093
X4.8405Y-4.3593
X4.9093Y-1.3593
X4.9343Y-2.1093
X5.0968Y-3.6093
X5.1218Y-2.8593
X5.2843Y-2.1093
X5.3093Y-1.3593
X5.4718Y-2.8593
X5.4968Y-3.6093
X5.6593Y-1.3593
X5.6593Y-4.3593
X5.6843Y-2.1093
X5.8468Y-3.6093
X5.8718Y-2.8593
X6.0343Y-2.1093
X6.0593Y-1.3593
X6.0593Y-4.3593
X6.2218Y-2.8593
X6.2468Y-3.6093
X6.4093Y-1.3593
X6.4343Y-2.1093
X6.5968Y-3.6093
X6.6218Y-2.8593
X6.7843Y-2.1093
X6.8093Y-1.3593
X6.9718Y-2.8593
X6.9968Y-3.6093
X7.0655Y-4.3593
X7.1593Y-1.3593
X7.1843Y-2.1093
X7.3468Y-3.6093
X7.3718Y-2.8593
X7.4655Y-4.3593
X7.5343Y-2.1093
X7.5593Y-1.3593
X7.7218Y-2.8593
X7.7468Y-3.6093
X7.9093Y-1.3593
X7.9343Y-2.1093
X8.0968Y-3.6093
X8.1218Y-2.8593
X8.2843Y-2.1093
X8.3093Y-1.3593
X8.4718Y-2.8593
X8.4968Y-3.6093
X8.5655Y-4.3593
X8.6593Y-1.3593
X8.6843Y-2.1093
X8.8468Y-3.6093
X8.8718Y-2.8593
X8.9655Y-4.3593
X9.0343Y-2.1093
X9.0593Y-1.3593
X9.2218Y-2.8593
X9.2468Y-3.6093
X9.4093Y-1.3593
X9.4343Y-2.1093
X9.503Y-4.3593
X9.5968Y-3.6093
X9.6218Y-2.8593
X9.7843Y-2.1093
X9.8093Y-1.3593
X9.903Y-4.3593
X9.9718Y-2.8593
X9.9968Y-3.6093
X10.1593Y-1.3593
X10.1843Y-2.1093
X10.3718Y-2.8593
X10.4405Y-4.3593
X10.5343Y-2.1093
X10.5593Y-1.3593
X10.628Y-3.6093
X10.7218Y-2.8593
X10.8405Y-4.3593
X10.9343Y-2.1093
X11.028Y-3.6093
X11.1218Y-2.8593
X11.2843Y-1.3593
X11.5655Y-2.4843
X11.6593Y-3.6093
X11.6843Y-1.3593
X11.8468Y-4.3593
X11.9655Y-2.4843
X12.0593Y-3.6093
X12.2468Y-4.3593
X12.5968Y-1.3593
X12.5968Y-2.1093
X12.5968Y-3.6093
X12.5968Y-4.3593
X12.9968Y-1.3593
X12.9968Y-2.1093
X12.9968Y-3.6093
X12.9968Y-4.3593
X13.3468Y-1.3593
X13.3468Y-2.1093
X13.3468Y-4.3593
X13.7468Y-1.3593
X13.7468Y-2.1093
X13.7468Y-4.3593
T2
X0.8831Y-0.8866
X0.8831Y-2.8598
X0.8831Y-4.8335
X4.1665Y-0.8866
X4.1665Y-4.8335
X7.45Y-4.8335
X7.4504Y-0.8866
X10.7335Y-4.8335
X10.7339Y-0.8866
X14.0169Y-2.8598
X14.0173Y-0.8866
X14.0173Y-4.8335
T3
X1.3593Y-1.3593
X1.453Y-3.6093
X1.453Y-4.3593
X1.5468Y-2.1093
X1.6405Y-2.8593
X2.1093Y-1.3593
X2.2968Y-3.6093
X2.3905Y-4.3593
X2.4843Y-2.1093
X2.6718Y-2.8593
X2.8593Y-1.3593
X3.0468Y-3.6093
X3.2343Y-2.1093
X3.328Y-4.3593
X3.4218Y-2.8593
X3.6093Y-1.3593
X3.7968Y-3.6093
X3.9843Y-2.1093
X4.1718Y-2.8593
X4.3593Y-1.3593
X4.5468Y-3.6093
X4.6405Y-4.3593
X4.7343Y-2.1093
X4.9218Y-2.8593
X5.1093Y-1.3593
X5.2968Y-3.6093
X5.4843Y-2.1093
X5.6718Y-2.8593
X5.8593Y-1.3593
X5.8593Y-4.3593
X6.0468Y-3.6093
X6.2343Y-2.1093
X6.4218Y-2.8593
X6.6093Y-1.3593
X6.7968Y-3.6093
X6.9843Y-2.1093
X7.1718Y-2.8593
X7.2655Y-4.3593
X7.3593Y-1.3593
X7.5468Y-3.6093
X7.7343Y-2.1093
X7.9218Y-2.8593
X8.1093Y-1.3593
X8.2968Y-3.6093
X8.4843Y-2.1093
X8.6718Y-2.8593
X8.7655Y-4.3593
X8.8593Y-1.3593
X9.0468Y-3.6093
X9.2343Y-2.1093
X9.4218Y-2.8593
X9.6093Y-1.3593
X9.703Y-4.3593
X9.7968Y-3.6093
X9.9843Y-2.1093
X10.1718Y-2.8593
X10.3593Y-1.3593
X10.6405Y-4.3593
X10.7343Y-2.1093
X10.828Y-3.6093
X10.9218Y-2.8593
X11.4843Y-1.3593
X11.7655Y-2.4843
X11.8593Y-3.6093
X12.0468Y-4.3593
X12.7968Y-1.3593
X12.7968Y-2.1093
X12.7968Y-3.6093
X12.7968Y-4.3593
X13.5468Y-1.3593
X13.5468Y-2.1093
X13.5468Y-4.3593
T0
M30
